<svg width="70" height="70" viewBox="0 0 70 70" fill="none" xmlns="http://www.w3.org/2000/svg">
<path d="M35.4467 43.1035H67.1878C67.4695 43.1035 67.7397 42.9915 67.9389 42.792C68.1381 42.5925 68.25 42.322 68.25 42.04V35.0007C68.25 34.9627 68.25 34.9262 68.25 34.8913C68.2435 34.84 68.2333 34.7892 68.2196 34.7394C68.2203 34.7318 68.2203 34.7241 68.2196 34.7165C68.2061 34.6645 68.1883 34.6137 68.1665 34.5646L68.1574 34.5433C68.135 34.4951 68.1086 34.4489 68.0785 34.4051C68.0491 34.3628 68.0167 34.3226 67.9814 34.2851L67.9632 34.2653C67.9274 34.229 67.8894 34.195 67.8494 34.1635L67.8251 34.1468C67.7825 34.1147 67.7373 34.0863 67.69 34.0617L52.2088 27.0285L52.1845 27.0179L52.1223 26.989L52.0813 26.9738L52.0267 26.9556L51.9735 26.9419L51.9265 26.9328L51.8628 26.9222H51.8248H51.7505H18.2492L7.43414 22.0161H67.1878C67.4695 22.0161 67.7397 21.9041 67.9389 21.7046C68.1381 21.5051 68.25 21.2346 68.25 20.9525V13.9209C68.2493 13.8772 68.2462 13.8336 68.2409 13.7902V13.7644C68.2255 13.6562 68.1932 13.5511 68.1453 13.4529L68.1362 13.4347C68.1118 13.3884 68.0844 13.3437 68.0542 13.301C68.0492 13.2935 68.0436 13.2864 68.0375 13.2797C68.0069 13.2371 67.9723 13.1974 67.9344 13.1612L67.9207 13.1475C67.8811 13.1107 67.8391 13.0767 67.7947 13.0457C67.7461 13.0141 67.6954 12.9857 67.643 12.9606H67.6339L52.1299 5.92743C51.992 5.86514 51.8425 5.83304 51.6913 5.83325L2.51449 5.83325C2.45802 5.83365 2.40168 5.83871 2.34605 5.84842H2.32177C2.27025 5.85833 2.21953 5.87204 2.17002 5.88945L2.14726 5.89858C2.09448 5.91549 2.04362 5.93789 1.99551 5.96542H1.98337C1.93725 5.99071 1.89357 6.02022 1.85287 6.05355L1.84224 6.06116C1.80178 6.09435 1.76375 6.1304 1.72843 6.16903L1.70871 6.19028C1.67534 6.22951 1.64491 6.27117 1.61766 6.31488C1.61208 6.32212 1.60702 6.32976 1.60249 6.3377C1.57431 6.38373 1.54994 6.432 1.52965 6.48203V6.49267C1.5084 6.54587 1.49165 6.60074 1.47958 6.65674C1.46784 6.71073 1.46073 6.76564 1.45833 6.82085C1.45833 6.83148 1.45833 6.84211 1.45833 6.85275C1.45833 6.86338 1.45833 6.87097 1.45833 6.88009V13.9133C1.45849 14.1175 1.51739 14.3174 1.62799 14.4891C1.73859 14.6607 1.89621 14.7968 2.08201 14.8811L13.1034 19.8768H2.51449C2.45802 19.8772 2.40168 19.8823 2.34605 19.892H2.32177C2.2704 19.9026 2.21972 19.9163 2.17002 19.9331L2.14726 19.9421C2.09501 19.9604 2.04428 19.9828 1.99551 20.009L1.98337 20.0166C1.93758 20.0424 1.89394 20.0719 1.85287 20.1047L1.84224 20.1123C1.8014 20.1456 1.76334 20.1822 1.72843 20.2217L1.70871 20.243C1.675 20.2814 1.64454 20.3226 1.61766 20.3661L1.60249 20.3889C1.57424 20.4375 1.54987 20.4883 1.52965 20.5408V20.5514C1.5084 20.6046 1.49165 20.6595 1.47958 20.7155C1.46784 20.7695 1.46073 20.8244 1.45833 20.8796C1.45833 20.8903 1.45833 20.9009 1.45833 20.9115C1.45833 20.9222 1.45833 20.9282 1.45833 20.9373V27.9705C1.4582 28.175 1.51696 28.3753 1.62758 28.5472C1.7382 28.7191 1.89597 28.8555 2.08201 28.9399L13.1034 33.9371H2.51449C2.45809 33.9378 2.40181 33.9423 2.34605 33.9508H2.32177C2.27008 33.96 2.21931 33.9737 2.17002 33.9918L2.14726 34.0009C2.0948 34.018 2.04401 34.0399 1.99551 34.0663H1.98337C1.93755 34.0926 1.89391 34.1226 1.85287 34.1559C1.84877 34.1575 1.84512 34.1601 1.84224 34.1635C1.80178 34.1967 1.76375 34.2327 1.72843 34.2714L1.70871 34.2927C1.67534 34.3319 1.64491 34.3735 1.61766 34.4172C1.61208 34.4245 1.60702 34.4321 1.60249 34.44C1.57393 34.4885 1.54956 34.5393 1.52965 34.592V34.6026C1.50819 34.6557 1.49144 34.7106 1.47958 34.7667C1.46784 34.8207 1.46073 34.8756 1.45833 34.9308C1.45833 34.9414 1.45833 34.9521 1.45833 34.9627C1.45833 34.9733 1.45833 34.9809 1.45833 34.99V42.0232C1.45849 42.2275 1.51739 42.4274 1.62799 42.599C1.73859 42.7706 1.89621 42.9068 2.08201 42.9911L13.1034 48.0081H2.51449C2.45802 48.0085 2.40168 48.0135 2.34605 48.0232H2.32177C2.2704 48.0338 2.21972 48.0475 2.17002 48.0643L2.14726 48.0734C2.09475 48.091 2.04396 48.1134 1.99551 48.1402L1.98337 48.1478C1.93758 48.1737 1.89394 48.2031 1.85287 48.236H1.84224C1.8014 48.2693 1.76334 48.3059 1.72843 48.3454L1.70871 48.3651C1.67534 48.4043 1.64491 48.446 1.61766 48.4897L1.60249 48.5125C1.57459 48.5587 1.55023 48.6069 1.52965 48.6568V48.6674C1.5084 48.7206 1.49165 48.7755 1.47958 48.8315C1.46794 48.885 1.46083 48.9394 1.45833 48.9941C1.45833 49.0048 1.45833 49.0154 1.45833 49.0276C1.45833 49.0397 1.45833 49.0443 1.45833 49.0534V56.0866C1.4582 56.2911 1.51696 56.4913 1.62758 56.6632C1.7382 56.8352 1.89597 56.9715 2.08201 57.0559L17.5876 64.0876C17.6134 64.0997 17.6407 64.1104 17.6665 64.1195L17.6892 64.1271C17.7196 64.1362 17.7484 64.1453 17.7788 64.1514H17.797C17.8281 64.1581 17.8595 64.1631 17.8911 64.1666H17.9062C17.9427 64.1666 17.9806 64.1666 18.0185 64.1666H67.1847C67.4664 64.1666 67.7366 64.0545 67.9358 63.8551C68.135 63.6556 68.247 63.3851 68.247 63.103V56.1048C68.2462 56.0616 68.2432 56.0185 68.2378 55.9756V55.9483C68.222 55.8426 68.1898 55.7401 68.1422 55.6444L68.1331 55.6247C68.1091 55.5787 68.0817 55.5345 68.0512 55.4925L68.0345 55.4697C68.0035 55.4278 67.9695 55.3881 67.9328 55.3512L67.9177 55.3375C67.8782 55.3011 67.8367 55.2671 67.7932 55.2357C67.7447 55.2043 67.694 55.1763 67.6415 55.1521H67.6324L52.1268 48.1205C51.9891 48.0577 51.8396 48.025 51.6883 48.0247H19.0823V43.1202L35.4467 43.1035ZM19.0823 19.8768V14.9723H66.1255V19.8768H19.0823ZM51.4485 7.93909L62.2635 12.8452H18.2492L7.43414 7.93909H51.4485ZM3.57217 8.52558L16.9533 14.594V19.2919L3.57217 13.2144V8.52558ZM22.7424 33.9371H19.0823V29.031H51.4531L62.2696 33.9371H22.7424ZM3.57672 22.5844L16.9578 28.6527V33.3506L3.57672 27.2822V22.5844ZM18.0201 36.0642H66.124V40.9703H18.2492L7.43414 36.0642H18.0201ZM3.57672 36.6492L16.9578 42.7267V47.4246L3.57672 41.3471V36.6492ZM3.57672 50.7156L16.9578 56.784V61.4819L3.57672 55.4135V50.7156ZM19.0823 62.0683V57.1683H66.124V62.0744L19.0823 62.0683ZM51.4531 50.1291L62.2696 55.0412H18.2492L7.43414 50.1352H51.4531V50.1291Z" fill="#78716C"/>
</svg>
