<svg width="70" height="70" viewBox="0 0 70 70" fill="none" xmlns="http://www.w3.org/2000/svg">
<path d="M35.4467 43.1085H67.1878C67.4695 43.1085 67.7397 42.9964 67.9389 42.797C68.1381 42.5976 68.25 42.3272 68.25 42.0452V35.0075C68.25 34.9696 68.25 34.9331 68.25 34.8982C68.2435 34.8469 68.2333 34.7961 68.2196 34.7463C68.2203 34.7387 68.2203 34.731 68.2196 34.7235C68.2061 34.6715 68.1883 34.6207 68.1665 34.5716L68.1574 34.5503C68.135 34.5021 68.1086 34.4559 68.0785 34.4121C68.0491 34.3698 68.0167 34.3296 67.9814 34.2921L67.9632 34.2723C67.9274 34.236 67.8894 34.2021 67.8494 34.1706L67.8251 34.1538C67.7825 34.1218 67.7373 34.0934 67.69 34.0688L52.2088 27.0373L52.1845 27.0266L52.1223 26.9978L52.0813 26.9826L52.0267 26.9643L51.9735 26.9507L51.9265 26.9415L51.8628 26.9309H51.8248H51.7505H18.2492L7.43415 22.026L67.1862 22.0123C67.468 22.0123 67.7382 21.9003 67.9374 21.7009C68.1366 21.5015 68.2485 21.231 68.2485 20.949V13.919C68.2478 13.8753 68.2447 13.8317 68.2394 13.7883V13.7625C68.224 13.6544 68.1917 13.5493 68.1438 13.4511L68.1347 13.4329C68.1103 13.3866 68.0829 13.342 68.0527 13.2992C68.0476 13.2918 68.0421 13.2847 68.036 13.278C68.0054 13.2354 67.9708 13.1957 67.9328 13.1595L67.9192 13.1458C67.8796 13.1089 67.8375 13.075 67.7932 13.044C67.7445 13.0124 67.6939 12.984 67.6415 12.9589H67.6324L52.1283 5.92741C51.9905 5.86513 51.841 5.83304 51.6898 5.83325L2.51449 5.84698C2.45802 5.84738 2.40168 5.85244 2.34605 5.86215H2.32177C2.27025 5.87205 2.21953 5.88576 2.17002 5.90316L2.14726 5.91229C2.09448 5.9292 2.04362 5.95159 1.99551 5.97911H1.98337C1.93725 6.0044 1.89357 6.0339 1.85287 6.06723L1.84224 6.07483C1.80178 6.10802 1.76375 6.14405 1.72843 6.18268L1.70871 6.20393C1.67534 6.24315 1.64491 6.28479 1.61766 6.3285C1.61208 6.33573 1.60702 6.34337 1.60249 6.3513C1.57431 6.39733 1.54994 6.44559 1.52965 6.4956V6.50625C1.5084 6.55943 1.49165 6.61428 1.47958 6.67027C1.46784 6.72425 1.46073 6.77915 1.45833 6.83434C1.45833 6.84497 1.45833 6.8556 1.45833 6.86623C1.45833 6.87687 1.45833 6.88445 1.45833 6.89357V13.9251C1.45849 14.1293 1.51739 14.3292 1.62799 14.5007C1.73859 14.6723 1.89621 14.8084 2.08201 14.8927L13.1034 19.8872H2.51449C2.45802 19.8876 2.40168 19.8927 2.34605 19.9024H2.32177C2.2704 19.913 2.21973 19.9267 2.17002 19.9435L2.14726 19.9526C2.09501 19.9708 2.04428 19.9932 1.99551 20.0194L1.98337 20.027C1.93758 20.0528 1.89394 20.0823 1.85287 20.1151L1.84224 20.1227C1.8014 20.156 1.76334 20.1926 1.72843 20.2321L1.70871 20.2534C1.675 20.2918 1.64454 20.3329 1.61766 20.3764L1.60249 20.3992C1.57424 20.4478 1.54987 20.4986 1.52965 20.5511V20.5617C1.5084 20.6149 1.49165 20.6698 1.47958 20.7257C1.46784 20.7797 1.46073 20.8346 1.45833 20.8898C1.45833 20.9004 1.45833 20.9111 1.45833 20.9217C1.45833 20.9323 1.45833 20.9384 1.45833 20.9475V27.979C1.4582 28.1835 1.51696 28.3837 1.62758 28.5556C1.7382 28.7275 1.89597 28.8638 2.08201 28.9482L13.1034 33.9442H2.51449C2.45809 33.9449 2.40181 33.9494 2.34605 33.9579H2.32177C2.27008 33.9671 2.21931 33.9808 2.17002 33.9989L2.14726 34.008C2.0948 34.0251 2.04401 34.047 1.99551 34.0734H1.98337C1.93755 34.0997 1.89391 34.1296 1.85287 34.163C1.84877 34.1646 1.84512 34.1672 1.84224 34.1706C1.80178 34.2037 1.76375 34.2398 1.72843 34.2784L1.70871 34.2997C1.67534 34.3389 1.64491 34.3805 1.61766 34.4242C1.61208 34.4315 1.60702 34.4391 1.60249 34.447C1.57393 34.4955 1.54956 34.5463 1.52965 34.5989V34.6095C1.50819 34.6626 1.49144 34.7176 1.47958 34.7736C1.46784 34.8276 1.46073 34.8825 1.45833 34.9377C1.45833 34.9483 1.45833 34.9589 1.45833 34.9696C1.45833 34.9802 1.45833 34.9878 1.45833 34.9969V42.0284C1.45849 42.2326 1.51739 42.4325 1.62799 42.6041C1.73859 42.7757 1.89621 42.9118 2.08201 42.9961L13.1034 48.0119H2.51449C2.45802 48.0123 2.40168 48.0173 2.34605 48.027H2.32177C2.2704 48.0376 2.21973 48.0513 2.17002 48.0681L2.14726 48.0772C2.09475 48.0948 2.04396 48.1171 1.99551 48.144L1.98337 48.1516C1.93758 48.1774 1.89394 48.2069 1.85287 48.2397H1.84224C1.8014 48.273 1.76334 48.3096 1.72843 48.3491L1.70871 48.3688C1.67534 48.408 1.64491 48.4497 1.61766 48.4934L1.60249 48.5162C1.57459 48.5623 1.55023 48.6106 1.52965 48.6605V48.6711C1.5084 48.7243 1.49165 48.7792 1.47958 48.8352C1.46794 48.8886 1.46083 48.943 1.45833 48.9977C1.45833 49.0083 1.45833 49.019 1.45833 49.0311C1.45833 49.0433 1.45833 49.0478 1.45833 49.0569V56.0885C1.4582 56.2929 1.51696 56.4931 1.62758 56.665C1.7382 56.8369 1.89597 56.9732 2.08201 57.0576L17.5876 64.0876C17.6134 64.0998 17.6407 64.1104 17.6665 64.1195L17.6892 64.1271C17.7196 64.1362 17.7484 64.1453 17.7788 64.1514H17.797C17.8281 64.1581 17.8595 64.1631 17.8911 64.1666H17.9062C17.9427 64.1666 17.9806 64.1666 18.0185 64.1666H46.4902C46.772 64.1666 47.0421 64.0546 47.2413 63.8551C47.4405 63.6557 47.5525 63.3853 47.5525 63.1033V56.1067C47.5517 56.0635 47.5487 56.0204 47.5433 55.9776V55.9502C47.5275 55.8446 47.4953 55.7421 47.4478 55.6464L47.4387 55.6267C47.4146 55.5807 47.3872 55.5365 47.3567 55.4945L47.34 55.4717C47.309 55.4298 47.2751 55.3902 47.2383 55.3532L47.2232 55.3396C47.1838 55.3032 47.1422 55.2692 47.0987 55.2378C47.0502 55.2064 46.9995 55.1784 46.947 55.1542H46.9379L31.4323 48.1243C31.2946 48.0615 31.1451 48.0288 30.9938 48.0286H19.0823V43.1252L35.4467 43.1085ZM19.0823 19.8872V14.9839L66.124 14.9701V19.8735L19.0823 19.8872ZM51.447 7.93859L62.262 12.8435L18.2492 12.8572L7.43415 7.95232L51.447 7.93859ZM3.57217 8.53867L16.9533 14.6056V19.3024L3.57217 13.2264V8.53867ZM22.7424 33.9442H19.0823V29.0393H51.4531L62.2696 33.9442H22.7424ZM3.57672 22.5941L16.9578 28.6611V33.3579L3.57672 27.2909V22.5941ZM18.0201 36.0709H66.124V40.9758H18.2492L7.43415 36.0709H18.0201ZM3.57672 36.6557L16.9578 42.7318V47.4286L3.57672 41.3525V36.6557ZM3.57672 50.7187L16.9578 56.7857V61.4825L3.57672 55.4156V50.7187ZM19.0823 62.0688V57.17H45.4295V62.0749L19.0823 62.0688ZM30.7586 50.1324L41.5751 55.0434H18.2492L7.43415 50.1385H30.7586V50.1324Z" fill="#78716C"/>
</svg>
