<svg width="903" height="240" viewBox="0 0 903 240" fill="none" xmlns="http://www.w3.org/2000/svg">
<path d="M100.22 121.53V230.36C100.22 231.33 100.6 232.25 101.29 232.93C101.97 233.61 102.9 234 103.87 234H128.38C128.56 233.98 128.73 233.94 128.9 233.9C128.93 233.9 128.95 233.9 128.98 233.9C129.16 233.85 129.33 233.79 129.5 233.72L129.57 233.69C129.74 233.61 129.89 233.52 130.04 233.42C130.19 233.32 130.32 233.21 130.45 233.09L130.52 233.03C130.64 232.91 130.76 232.78 130.87 232.64L130.93 232.56C131.04 232.41 131.14 232.26 131.22 232.1L155.33 179.02L155.37 178.94L155.47 178.73L155.52 178.59L155.58 178.4L155.63 178.22L155.66 178.06L155.7 177.84V62.57L172.52 25.49V230.36C172.52 231.33 172.9 232.25 173.59 232.93C174.27 233.61 175.2 234 176.17 234H200.28C200.43 234 200.58 233.99 200.73 233.97H200.82C201.19 233.92 201.55 233.81 201.89 233.64L201.95 233.61C202.11 233.53 202.26 233.43 202.41 233.33C202.44 233.31 202.46 233.29 202.48 233.27C202.63 233.17 202.76 233.05 202.89 232.92L202.94 232.87C203.07 232.73 203.18 232.59 203.29 232.44C203.4 232.27 203.5 232.1 203.58 231.92V231.89L227.69 178.73C227.9 178.26 228.01 177.74 228.01 177.23V8.62C228.01 8.43 227.99 8.23 227.96 8.04V7.96C227.93 7.78 227.88 7.61 227.82 7.44L227.79 7.36C227.73 7.18 227.66 7 227.56 6.84V6.8C227.47 6.64 227.37 6.49 227.26 6.35L227.23 6.31C227.12 6.17 226.99 6.04 226.86 5.92L226.79 5.85C226.66 5.74 226.51 5.63 226.36 5.54C226.34 5.52 226.31 5.5 226.28 5.49C226.12 5.39 225.96 5.31 225.79 5.24H225.75C225.57 5.17 225.38 5.11 225.19 5.07C225 5.03 224.82 5.01 224.63 5H200.31C199.61 5 198.92 5.2 198.34 5.58C197.75 5.96 197.28 6.5 197 7.14L179.87 44.93V8.62C179.87 8.43 179.85 8.23 179.82 8.04V7.96C179.78 7.78 179.74 7.61 179.68 7.44L179.65 7.36C179.59 7.18 179.51 7.01 179.42 6.84L179.39 6.8C179.3 6.64 179.2 6.49 179.09 6.35L179.06 6.31C178.95 6.17 178.82 6.04 178.68 5.92L178.61 5.85C178.48 5.73 178.34 5.63 178.19 5.54L178.11 5.49C177.94 5.39 177.77 5.31 177.59 5.24H177.55C177.37 5.17 177.18 5.11 176.99 5.07C176.8 5.03 176.62 5.01 176.43 5H152.12C151.42 5 150.73 5.2 150.14 5.58C149.55 5.96 149.08 6.5 148.79 7.14L131.66 44.93V8.62C131.66 8.43 131.64 8.23 131.61 8.04V7.96C131.58 7.78 131.53 7.61 131.47 7.44L131.44 7.36C131.38 7.18 131.31 7.01 131.22 6.84V6.8C131.13 6.64 131.03 6.49 130.91 6.35C130.91 6.34 130.9 6.32 130.88 6.31C130.77 6.17 130.64 6.04 130.51 5.92L130.44 5.85C130.31 5.74 130.16 5.63 130.01 5.54C129.99 5.52 129.96 5.5 129.93 5.49C129.76 5.39 129.59 5.31 129.41 5.24H129.37C129.19 5.17 129 5.11 128.81 5.07C128.62 5.03 128.44 5.01 128.25 5H103.93C103.23 5 102.54 5.2 101.96 5.58C101.37 5.96 100.9 6.5 100.62 7.14L83.42 44.93V8.62C83.42 8.43 83.4 8.23 83.37 8.04V7.96C83.33 7.78 83.29 7.61 83.23 7.44L83.2 7.36C83.14 7.18 83.06 7.01 82.97 6.84L82.94 6.8C82.85 6.64 82.75 6.49 82.64 6.35V6.31C82.53 6.17 82.4 6.04 82.26 5.92L82.19 5.85C82.06 5.74 81.91 5.63 81.76 5.54L81.68 5.49C81.52 5.39 81.36 5.31 81.18 5.24H81.14C80.96 5.17 80.77 5.11 80.58 5.07C80.4 5.03 80.21 5.01 80.02 5H55.7C55 5 54.31 5.2 53.72 5.58C53.13 5.96 52.66 6.5 52.37 7.14L28.27 60.3C28.23 60.39 28.19 60.48 28.16 60.57L28.13 60.65C28.1 60.75 28.07 60.85 28.05 60.96V61.02C28.03 61.13 28.01 61.23 28 61.34V230.35C28 231.32 28.38 232.24 29.07 232.92C29.75 233.6 30.68 233.99 31.65 233.99H55.64C55.79 233.99 55.94 233.98 56.08 233.96H56.17C56.53 233.91 56.88 233.8 57.21 233.63L57.28 233.6C57.44 233.52 57.59 233.42 57.73 233.32L57.81 233.26C57.95 233.15 58.09 233.04 58.22 232.91L58.27 232.86C58.39 232.72 58.51 232.58 58.62 232.43C58.73 232.26 58.82 232.09 58.91 231.91V231.88L83.02 178.72C83.24 178.25 83.35 177.73 83.35 177.22V65.42H100.17L100.23 121.53H100.22ZM179.85 65.42H196.67V226.71H179.85V65.42ZM220.78 176.4L203.96 213.48V62.57L220.78 25.49V176.4ZM218.77 12.25L197.96 58.13H181.85L202.69 12.25H218.77ZM131.64 77.97V65.42H148.46V176.41L131.64 213.5V77.97ZM170.57 12.26L149.76 58.14H133.65L154.46 12.26H170.57ZM124.35 61.78V226.71H107.53V62.57L124.35 25.49V61.78ZM122.35 12.26L101.51 58.14H85.4L106.24 12.26H122.35ZM74.12 12.26L53.31 58.14H37.21L58.01 12.26H74.12ZM35.19 65.42H51.99V226.71H35.17L35.19 65.42ZM76.13 176.41L59.29 213.5V62.57L76.11 25.49V176.41H76.13Z" fill="#0C0A09"/>
<path d="M805.791 149.384H821.215V111.547H805.791V99.3767H836.639V116.367H837.603C838.165 114.198 838.928 112.109 839.892 110.101C840.937 108.012 842.222 106.205 843.748 104.679C845.355 103.072 847.283 101.787 849.532 100.823C851.781 99.8587 854.473 99.3767 857.606 99.3767H864.353V113.837H851.581C846.921 113.837 843.266 115.202 840.615 117.933C837.964 120.665 836.639 124.159 836.639 128.417V149.384H858.208V161.554H805.791V149.384Z" fill="#0C0A09"/>
<path d="M776.532 163C771.552 163 767.133 162.237 763.277 160.711C759.421 159.184 756.168 157.015 753.517 154.204C750.946 151.392 748.978 148.018 747.612 144.082C746.247 140.065 745.564 135.567 745.564 130.586C745.564 125.525 746.247 120.986 747.612 116.97C749.058 112.953 751.067 109.539 753.637 106.727C756.208 103.916 759.301 101.747 762.916 100.22C766.611 98.6939 770.748 97.9308 775.327 97.9308C779.826 97.9308 783.883 98.6939 787.498 100.22C791.112 101.666 794.165 103.755 796.655 106.486C799.226 109.217 801.194 112.511 802.56 116.367C803.925 120.223 804.608 124.481 804.608 129.14V134.201H760.988V135.767C760.988 140.266 762.394 143.921 765.205 146.733C768.017 149.464 771.953 150.83 777.014 150.83C780.87 150.83 784.164 150.067 786.895 148.54C789.707 146.934 792.036 144.845 793.884 142.274L802.68 151.071C800.431 154.364 797.137 157.176 792.799 159.506C788.542 161.835 783.119 163 776.532 163ZM775.448 109.258C771.11 109.258 767.615 110.623 764.964 113.355C762.313 116.086 760.988 119.701 760.988 124.199V125.043H789.184V123.958C789.184 119.46 787.939 115.885 785.449 113.234C783.039 110.583 779.705 109.258 775.448 109.258Z" fill="#0C0A09"/>
<path d="M708.991 161.554L686.698 99.3767H702.845L711.16 125.766L718.149 148.661H718.992L725.981 125.766L734.295 99.3767H749.84L727.547 161.554H708.991Z" fill="#0C0A09"/>
<path d="M625.34 149.384H640.763V111.547H625.34V99.3767H656.187V116.367H657.151C657.714 114.198 658.477 112.109 659.441 110.101C660.485 108.012 661.77 106.205 663.297 104.679C664.903 103.072 666.831 101.787 669.081 100.823C671.33 99.8587 674.021 99.3767 677.154 99.3767H683.902V113.837H671.129C666.47 113.837 662.815 115.202 660.164 117.933C657.513 120.665 656.187 124.159 656.187 128.417V149.384H677.756V161.554H625.34V149.384Z" fill="#0C0A09"/>
<path d="M595.081 163C590.1 163 585.682 162.237 581.826 160.711C577.97 159.184 574.716 157.015 572.065 154.204C569.495 151.392 567.527 148.018 566.161 144.082C564.795 140.065 564.112 135.567 564.112 130.586C564.112 125.525 564.795 120.986 566.161 116.97C567.607 112.953 569.615 109.539 572.186 106.727C574.756 103.916 577.849 101.747 581.464 100.22C585.16 98.6939 589.297 97.9308 593.876 97.9308C598.374 97.9308 602.431 98.6939 606.046 100.22C609.661 101.666 612.714 103.755 615.204 106.486C617.774 109.217 619.743 112.511 621.108 116.367C622.474 120.223 623.157 124.481 623.157 129.14V134.201H579.536V135.767C579.536 140.266 580.942 143.921 583.754 146.733C586.565 149.464 590.502 150.83 595.563 150.83C599.419 150.83 602.712 150.067 605.443 148.54C608.255 146.934 610.585 144.845 612.432 142.274L621.229 151.071C618.979 154.364 615.686 157.176 611.348 159.506C607.09 161.835 601.668 163 595.081 163ZM593.996 109.258C589.658 109.258 586.164 110.623 583.513 113.355C580.862 116.086 579.536 119.701 579.536 124.199V125.043H607.733V123.958C607.733 119.46 606.488 115.885 603.997 113.234C601.587 110.583 598.254 109.258 593.996 109.258Z" fill="#0C0A09"/>
<path d="M528.853 163C521.623 163 515.438 161.755 510.297 159.265C505.236 156.774 501.099 153.481 497.885 149.384L507.405 139.503C510.538 143.118 513.912 145.809 517.527 147.576C521.222 149.263 525.158 150.107 529.335 150.107C534.155 150.107 537.851 149.022 540.421 146.853C542.992 144.684 544.277 141.551 544.277 137.454C544.277 134.08 543.313 131.55 541.385 129.863C539.457 128.096 536.204 126.85 531.625 126.127L522.708 124.681C514.916 123.316 509.373 120.504 506.079 116.247C502.786 111.909 501.139 106.807 501.139 100.943C501.139 92.91 503.75 86.7645 508.971 82.5069C514.193 78.169 521.423 76 530.661 76C537.248 76 542.912 77.0443 547.651 79.133C552.471 81.2216 556.327 84.0734 559.219 87.6884L549.941 97.5693C547.691 94.9183 545 92.8296 541.867 91.3033C538.734 89.6967 535.039 88.8934 530.781 88.8934C521.623 88.8934 517.045 92.669 517.045 100.22C517.045 103.434 518.009 105.884 519.936 107.571C521.864 109.258 525.158 110.503 529.817 111.306L538.614 112.873C545.924 114.238 551.346 116.929 554.881 120.946C558.416 124.963 560.183 130.104 560.183 136.37C560.183 140.306 559.5 143.921 558.135 147.215C556.769 150.428 554.761 153.24 552.11 155.65C549.459 157.979 546.165 159.787 542.229 161.072C538.373 162.357 533.914 163 528.853 163Z" fill="#0C0A09"/>
<path d="M415.49 161.554V77.4459H447.423C455.617 77.4459 461.882 79.7756 466.22 84.4348C470.558 89.0941 472.727 95.4404 472.727 103.474C472.727 111.507 470.558 117.853 466.22 122.512C461.882 127.172 455.617 129.501 447.423 129.501H431.276V161.554H415.49ZM431.276 116.608H444.169C448.427 116.608 451.479 115.764 453.327 114.077C455.175 112.31 456.099 109.539 456.099 105.763V101.184C456.099 97.4085 455.175 94.6772 453.327 92.9902C451.479 91.2229 448.427 90.3393 444.169 90.3393H431.276V116.608Z" fill="#0C0A09"/>
<path d="M382.352 163C371.346 163 363.193 159.224 357.891 151.673C352.669 144.122 350.058 133.398 350.058 119.5C350.058 105.683 352.669 94.9986 357.891 87.4474C363.193 79.8158 371.346 76 382.352 76C386.529 76 390.184 76.5623 393.317 77.687C396.531 78.8116 399.302 80.3781 401.632 82.3864C403.961 84.3144 405.889 86.6842 407.416 89.4958C408.942 92.2271 410.147 95.2396 411.031 98.5332L396.571 102.63C396.008 100.702 395.366 98.8947 394.643 97.2078C393.92 95.5208 392.996 94.0748 391.871 92.8698C390.827 91.5845 389.502 90.6205 387.895 89.9778C386.288 89.2548 384.36 88.8934 382.111 88.8934C376.648 88.8934 372.712 90.982 370.302 95.1593C367.972 99.3366 366.808 105.04 366.808 112.27V126.73C366.808 133.96 367.972 139.663 370.302 143.841C372.712 148.018 376.648 150.107 382.111 150.107C384.36 150.107 386.288 149.785 387.895 149.143C389.502 148.42 390.827 147.456 391.871 146.251C392.996 144.965 393.92 143.479 394.643 141.792C395.366 140.105 396.008 138.298 396.571 136.37L411.031 140.467C410.147 143.76 408.942 146.813 407.416 149.625C405.889 152.356 403.961 154.726 401.632 156.734C399.302 158.662 396.531 160.188 393.317 161.313C390.184 162.438 386.529 163 382.352 163Z" fill="#0C0A09"/>
<path d="M330.995 122.633L331.718 98.2922H330.633L314.366 141.551L298.098 98.2922H297.014L297.737 122.633V161.554H284V77.446H302.798L314.486 108.414H315.33L327.139 77.446H344.731V161.554H330.995V122.633Z" fill="#0C0A09"/>
</svg>
