<svg width="70" height="70" viewBox="0 0 70 70" fill="none" xmlns="http://www.w3.org/2000/svg">
<path d="M26.8975 35.4462V67.1883C26.8975 67.4712 27.0083 67.7395 27.2096 67.9378C27.4079 68.1362 27.6792 68.2499 27.9621 68.2499H35.1108C35.1633 68.2441 35.2129 68.2324 35.2625 68.2208C35.2712 68.2208 35.2771 68.2208 35.2858 68.2208C35.3383 68.2062 35.3879 68.1887 35.4375 68.1683L35.4579 68.1595C35.5075 68.1362 35.5512 68.1099 35.595 68.0808C35.6387 68.0516 35.6767 68.0195 35.7146 67.9845L35.735 67.967C35.77 67.932 35.805 67.8941 35.8371 67.8533L35.8546 67.8299C35.8867 67.7862 35.9158 67.7424 35.9392 67.6958L42.9712 52.2141L42.9829 52.1908L43.0121 52.1295L43.0267 52.0887L43.0442 52.0333L43.0587 51.9808L43.0675 51.9341L43.0792 51.8699V18.2495L47.985 7.4345V67.1883C47.985 67.4712 48.0958 67.7395 48.2971 67.9378C48.4954 68.1362 48.7667 68.2499 49.0496 68.2499H56.0817C56.1254 68.2499 56.1692 68.247 56.2129 68.2412H56.2392C56.3471 68.2266 56.4521 68.1945 56.5512 68.1449L56.5687 68.1362C56.6154 68.1128 56.6592 68.0837 56.7029 68.0545C56.7117 68.0487 56.7175 68.0428 56.7233 68.037C56.7671 68.0078 56.805 67.9728 56.8429 67.9349L56.8575 67.9203C56.8954 67.8795 56.9275 67.8387 56.9596 67.7949C56.9917 67.7453 57.0208 67.6958 57.0442 67.6433V67.6345L64.0762 52.1295C64.1375 51.9924 64.1696 51.8408 64.1696 51.692V2.51409C64.1696 2.45867 64.1637 2.40034 64.155 2.34492V2.32159C64.1463 2.26909 64.1317 2.2195 64.1142 2.16992L64.1054 2.14659C64.0879 2.09409 64.0675 2.04159 64.0383 1.99492V1.98325C64.0121 1.93659 63.9829 1.89284 63.9508 1.852L63.9421 1.84034C63.91 1.7995 63.8721 1.76159 63.8342 1.72659L63.8137 1.70617C63.7758 1.67409 63.7321 1.642 63.6883 1.61575C63.6825 1.60992 63.6737 1.60409 63.665 1.60117C63.6183 1.572 63.5717 1.54867 63.5221 1.52825H63.5104C63.4579 1.50784 63.4025 1.49034 63.3471 1.47867C63.2917 1.467 63.2392 1.46117 63.1838 1.45825H56.0904C55.8862 1.45825 55.685 1.51659 55.5158 1.62742C55.3437 1.73825 55.2067 1.89575 55.125 2.08242L50.1287 13.1045V2.51409C50.1287 2.45867 50.1229 2.40034 50.1142 2.34492V2.32159C50.1025 2.26909 50.0908 2.2195 50.0733 2.16992L50.0646 2.14659C50.0471 2.09409 50.0237 2.0445 49.9975 1.99492L49.9887 1.98325C49.9625 1.93659 49.9333 1.89284 49.9012 1.852L49.8925 1.84034C49.8604 1.7995 49.8225 1.76159 49.7817 1.72659L49.7612 1.70617C49.7233 1.67117 49.6825 1.642 49.6387 1.61575L49.6154 1.60117C49.5658 1.572 49.5162 1.54867 49.4637 1.52825H49.4521C49.3996 1.50784 49.3442 1.49034 49.2887 1.47867C49.2333 1.467 49.1808 1.46117 49.1254 1.45825H42.035C41.8308 1.45825 41.6296 1.51659 41.4575 1.62742C41.2854 1.73825 41.1483 1.89575 41.0637 2.08242L36.0675 13.1045V2.51409C36.0675 2.45867 36.0617 2.40034 36.0529 2.34492V2.32159C36.0442 2.26909 36.0296 2.2195 36.0121 2.16992L36.0033 2.14659C35.9858 2.09409 35.9654 2.0445 35.9392 1.99492V1.98325C35.9129 1.93659 35.8837 1.89284 35.8487 1.852C35.8487 1.84909 35.8458 1.84325 35.84 1.84034C35.8079 1.7995 35.77 1.76159 35.7321 1.72659L35.7117 1.70617C35.6737 1.67409 35.63 1.642 35.5862 1.61575C35.5804 1.60992 35.5717 1.60409 35.5629 1.60117C35.5133 1.572 35.4637 1.54867 35.4112 1.52825H35.3996C35.3471 1.50784 35.2917 1.49034 35.2362 1.47867C35.1808 1.467 35.1283 1.46117 35.0729 1.45825H27.9796C27.7754 1.45825 27.5742 1.51659 27.405 1.62742C27.2329 1.73825 27.0958 1.89575 27.0142 2.08242L21.9975 13.1045V2.51409C21.9975 2.45867 21.9917 2.40034 21.9829 2.34492V2.32159C21.9712 2.26909 21.9596 2.2195 21.9421 2.16992L21.9333 2.14659C21.9158 2.09409 21.8925 2.0445 21.8662 1.99492L21.8575 1.98325C21.8312 1.93659 21.8021 1.89284 21.77 1.852V1.84034C21.7379 1.7995 21.7 1.76159 21.6592 1.72659L21.6387 1.70617C21.6008 1.67409 21.5571 1.642 21.5133 1.61575L21.49 1.60117C21.4433 1.572 21.3967 1.54867 21.3442 1.52825H21.3325C21.28 1.50784 21.2246 1.49034 21.1692 1.47867C21.1167 1.467 21.0612 1.46117 21.0058 1.45825H13.9125C13.7083 1.45825 13.5071 1.51659 13.335 1.62742C13.1629 1.73825 13.0258 1.89575 12.9412 2.08242L5.91208 17.5874C5.90041 17.6137 5.88874 17.6399 5.87999 17.6662L5.87124 17.6895C5.86249 17.7187 5.85374 17.7478 5.84791 17.7799V17.7974C5.84208 17.8295 5.83624 17.8587 5.83333 17.8908V67.1853C5.83333 67.4683 5.94416 67.7366 6.14541 67.9349C6.34374 68.1333 6.615 68.247 6.89791 68.247H13.895C13.9387 68.247 13.9825 68.2441 14.0233 68.2383H14.0496C14.1546 68.2237 14.2567 68.1916 14.3529 68.142L14.3733 68.1333C14.42 68.1099 14.4637 68.0808 14.5046 68.0516L14.5279 68.0341C14.5687 68.002 14.6096 67.9699 14.6475 67.932L14.6621 67.9174C14.6971 67.8766 14.7321 67.8358 14.7642 67.792C14.7962 67.7424 14.8225 67.6928 14.8487 67.6403V67.6316L21.8808 52.1266C21.945 51.9895 21.9771 51.8378 21.9771 51.6891V19.0808H26.8829L26.9004 35.4462H26.8975ZM50.1229 19.0808H55.0287V66.1237H50.1229V19.0808ZM62.0608 51.4499L57.155 62.2649V18.2495L62.0608 7.4345V51.4499ZM61.4746 3.57284L55.405 16.9545H50.7062L56.7846 3.57284H61.4746ZM36.0617 22.7412V19.0808H40.9675V51.4528L36.0617 62.2708V22.7412ZM47.4162 3.57575L41.3467 16.9574H36.6479L42.7175 3.57575H47.4162ZM33.9354 18.0191V66.1237H29.0296V18.2495L33.9354 7.4345V18.0191ZM33.3521 3.57575L27.2737 16.9574H22.575L28.6533 3.57575H33.3521ZM19.285 3.57575L13.2154 16.9574H8.51958L14.5862 3.57575H19.285ZM7.93041 19.0808H12.8304V66.1237H7.92458L7.93041 19.0808ZM19.8712 51.4528L14.9596 62.2708V18.2495L19.8654 7.4345V51.4528H19.8712Z" fill="#78716C"/>
</svg>
