<svg width="70" height="70" viewBox="0 0 70 70" fill="none" xmlns="http://www.w3.org/2000/svg">
<path d="M35.4308 42.8142H66.0382C66.3099 42.8142 66.5704 42.7061 66.7625 42.5138C66.9546 42.3215 67.0625 42.0606 67.0625 41.7886V35.0007C67.0625 34.9641 67.0625 34.929 67.0625 34.8953C67.0562 34.8458 67.0464 34.7968 67.0332 34.7487C67.0339 34.7414 67.0339 34.7341 67.0332 34.7267C67.0202 34.6766 67.0031 34.6276 66.982 34.5802L66.9732 34.5597C66.9516 34.5133 66.9262 34.4687 66.8971 34.4264C66.8688 34.3856 66.8375 34.3469 66.8035 34.3107L66.7859 34.2916C66.7514 34.2566 66.7148 34.2238 66.6762 34.1935L66.6528 34.1773C66.6117 34.1464 66.5681 34.119 66.5225 34.0953L51.5942 27.3133L51.5707 27.303L51.5108 27.2752L51.4713 27.2605L51.4186 27.243L51.3673 27.2298L51.322 27.221L51.2605 27.2108H51.2239H51.1522H18.8474L8.41864 22.4799H40.0957C40.3674 22.4799 40.6279 22.3718 40.82 22.1795C41.0121 21.9872 41.12 21.7263 41.12 21.4543V14.6738C41.1193 14.6317 41.1164 14.5896 41.1112 14.5478V14.5229C41.0964 14.4185 41.0653 14.3172 41.019 14.2225L41.0103 14.205C40.9867 14.1603 40.9603 14.1172 40.9313 14.076C40.9263 14.0688 40.921 14.062 40.9151 14.0555C40.8856 14.0144 40.8523 13.9762 40.8156 13.9412L40.8025 13.928C40.7643 13.8925 40.7238 13.8597 40.681 13.8299C40.6341 13.7994 40.5852 13.772 40.5347 13.7478H40.5259L25.5756 6.96582C25.4427 6.90575 25.2985 6.8748 25.1527 6.875H3.67469C3.62023 6.87539 3.56591 6.88027 3.51227 6.88963H3.48886C3.43917 6.89918 3.39026 6.91241 3.34253 6.92919L3.32058 6.93799C3.26969 6.95431 3.22064 6.9759 3.17425 7.00245H3.16254C3.11807 7.02683 3.07595 7.05529 3.0367 7.08743L3.02646 7.09477C2.98744 7.12677 2.95076 7.16153 2.91671 7.19878L2.89769 7.21928C2.86551 7.25711 2.83617 7.29727 2.80989 7.33943C2.80451 7.34641 2.79963 7.35377 2.79526 7.36143C2.76809 7.40582 2.74459 7.45237 2.72502 7.50061V7.51087C2.70453 7.56217 2.68839 7.61508 2.67674 7.66908C2.66542 7.72114 2.65856 7.77409 2.65625 7.82732C2.65625 7.83758 2.65625 7.84783 2.65625 7.85808C2.65625 7.86834 2.65625 7.87566 2.65625 7.88445V14.6665C2.65641 14.8634 2.7132 15.0562 2.81985 15.2217C2.9265 15.3872 3.07849 15.5184 3.25766 15.5997L13.8855 20.417H3.67469C3.62023 20.4174 3.56591 20.4223 3.51227 20.4317H3.48886C3.43932 20.4419 3.39045 20.4551 3.34253 20.4712L3.32058 20.48C3.2702 20.4976 3.22127 20.5192 3.17425 20.5445L3.16254 20.5518C3.11839 20.5767 3.07631 20.6051 3.0367 20.6368L3.02646 20.6441C2.98707 20.6762 2.95036 20.7115 2.91671 20.7496L2.89769 20.7701C2.86518 20.8072 2.83582 20.8468 2.80989 20.8888L2.79526 20.9108C2.76802 20.9577 2.74453 21.0067 2.72502 21.0573V21.0675C2.70453 21.1188 2.68839 21.1718 2.67674 21.2258C2.66542 21.2778 2.65856 21.3308 2.65625 21.384C2.65625 21.3943 2.65625 21.4045 2.65625 21.4148C2.65625 21.425 2.65625 21.4309 2.65625 21.4397V28.2217C2.65613 28.4189 2.71279 28.6119 2.81946 28.7777C2.92612 28.9435 3.07826 29.075 3.25766 29.1564L13.8855 33.9752H3.67469C3.62031 33.9758 3.56603 33.9802 3.51227 33.9884H3.48886C3.43901 33.9972 3.39005 34.0105 3.34253 34.0279L3.32058 34.0367C3.26999 34.0532 3.22102 34.0743 3.17425 34.0997H3.16254C3.11836 34.1251 3.07628 34.154 3.0367 34.1861C3.03274 34.1877 3.02923 34.1902 3.02646 34.1935C2.98744 34.2255 2.95076 34.2602 2.91671 34.2975L2.89769 34.318C2.86551 34.3558 2.83617 34.396 2.80989 34.4381C2.80451 34.4451 2.79963 34.4525 2.79526 34.4601C2.76772 34.5069 2.74422 34.5559 2.72502 34.6066V34.6169C2.70433 34.6681 2.68818 34.721 2.67674 34.7751C2.66542 34.8272 2.65856 34.8801 2.65625 34.9333C2.65625 34.9436 2.65625 34.9539 2.65625 34.9641C2.65625 34.9744 2.65625 34.9817 2.65625 34.9905V41.7725C2.65641 41.9694 2.7132 42.1622 2.81985 42.3277C2.9265 42.4932 3.07849 42.6245 3.25766 42.7058L13.8855 47.5436H3.67469C3.62023 47.544 3.56591 47.5488 3.51227 47.5582H3.48886C3.43932 47.5684 3.39045 47.5816 3.34253 47.5978L3.32058 47.6066C3.26994 47.6235 3.22096 47.6451 3.17425 47.671L3.16254 47.6783C3.11839 47.7033 3.07631 47.7317 3.0367 47.7633H3.02646C2.98707 47.7955 2.95036 47.8307 2.91671 47.8688L2.89769 47.8878C2.86551 47.9257 2.83617 47.9658 2.80989 48.008L2.79526 48.03C2.76836 48.0745 2.74487 48.121 2.72502 48.1691V48.1794C2.70453 48.2307 2.68839 48.2836 2.67674 48.3376C2.66551 48.3892 2.65866 48.4417 2.65625 48.4944C2.65625 48.5047 2.65625 48.5149 2.65625 48.5267C2.65625 48.5384 2.65625 48.5428 2.65625 48.5516V55.3336C2.65613 55.5308 2.71279 55.7238 2.81946 55.8896C2.92612 56.0554 3.07826 56.1869 3.25766 56.2683L18.2094 63.0488C18.2343 63.0605 18.2607 63.0708 18.2855 63.0796L18.3075 63.0869C18.3367 63.0957 18.3646 63.1045 18.3938 63.1104H18.4114C18.4413 63.1168 18.4716 63.1217 18.5021 63.125H18.5167C18.5519 63.125 18.5884 63.125 18.625 63.125H66.0353C66.3069 63.125 66.5675 63.0169 66.7596 62.8246C66.9517 62.6323 67.0596 62.3714 67.0596 62.0994V55.3511C67.0589 55.3095 67.0559 55.2679 67.0508 55.2266V55.2002C67.0355 55.0983 67.0044 54.9995 66.9586 54.9072L66.9498 54.8882C66.9266 54.8438 66.9002 54.8012 66.8708 54.7607L66.8547 54.7387C66.8248 54.6983 66.7921 54.6601 66.7567 54.6244L66.742 54.6113C66.704 54.5762 66.664 54.5434 66.6221 54.5131C66.5753 54.4828 66.5264 54.4558 66.4757 54.4325H66.4669L51.5152 47.652C51.3824 47.5914 51.2382 47.5599 51.0923 47.5597H19.6508V42.8303L35.4308 42.8142ZM19.6508 20.417V15.6876H39.0714V20.417H19.6508ZM24.9186 8.90563L35.3474 13.6365H18.8474L8.41864 8.90563H24.9186ZM4.6946 9.47117L17.5978 15.3228V19.853L4.6946 13.9925V9.47117ZM23.1802 33.9752H19.6508V29.2443H50.8655L61.2957 33.9752H23.1802ZM4.69898 23.0279L17.6022 28.8795V33.4096L4.69898 27.558V23.0279ZM18.6265 36.0263H65.0124V40.7572H18.8474L8.41864 36.0263H18.6265ZM4.69898 36.5904L17.6022 42.4508V46.981L4.69898 41.1205V36.5904ZM4.69898 50.1544L17.6022 56.0061V60.5362L4.69898 54.6845V50.1544ZM19.6508 61.1017V56.3767H65.0124V61.1075L19.6508 61.1017ZM50.8655 49.5889L61.2957 54.3255H18.8474L8.41864 49.5947H50.8655V49.5889Z" fill="#78716C"/>
</svg>
