<svg width="150" height="32" viewBox="0 0 150 32" fill="none" xmlns="http://www.w3.org/2000/svg">
<g opacity="0.5" clip-path="url(#clip0_15_1263)">
<mask id="mask0_15_1263" style="mask-type:luminance" maskUnits="userSpaceOnUse" x="0" y="0" width="150" height="32">
<path d="M149.381 0H0V32H149.381V0Z" fill="white"/>
</mask>
<g mask="url(#mask0_15_1263)">
<path d="M62.3218 10.0493C63.3822 10.4631 64.1442 10.9519 64.6118 11.5176C65.0794 12.0834 65.3123 12.8146 65.3123 13.7133C65.3123 14.9891 64.837 16.0033 63.8844 16.7576C62.9319 17.512 61.6656 17.8891 60.0858 17.8891C58.3077 17.8891 56.7624 17.5485 55.4519 16.8654V14.9795C57.1396 15.5357 58.7021 15.8147 60.1396 15.8147C61.0191 15.8147 61.6887 15.6434 62.1467 15.3028C62.6047 14.9622 62.8337 14.4676 62.8337 13.8211C62.8337 13.39 62.6952 13.0398 62.4161 12.7704C62.1371 12.501 61.631 12.2315 60.894 11.9621L58.604 11.1C56.6104 10.363 55.6136 9.10639 55.6136 7.32829C55.6136 6.16021 56.0677 5.21728 56.9741 4.4995C57.8805 3.78172 59.0716 3.42188 60.5438 3.42188C62.0159 3.42188 63.3013 3.70859 64.5579 4.28397V6.16984C63.157 5.72146 61.8639 5.49631 60.6785 5.49631C58.9542 5.49631 58.0921 6.07939 58.0921 7.24747C58.0921 7.7151 58.2365 8.08265 58.5232 8.35206C58.8099 8.62147 59.3757 8.91782 60.2205 9.24111L62.3218 10.0493Z" fill="white"/>
<path d="M75.3439 17.1613C74.4645 17.502 73.4677 17.6732 72.3535 17.6732C69.8037 17.6732 68.5279 16.3974 68.5279 13.8476V5.92699H66.0493V4.20278L68.6087 3.87949L69.0128 0H71.195V3.82561H75.2362V5.92699H71.195V13.7129C71.195 14.3768 71.3432 14.8444 71.6396 15.1138C71.9359 15.3832 72.4439 15.518 73.1617 15.518C73.8795 15.518 74.6262 15.4275 75.3439 15.2485V17.1613Z" fill="white"/>
<path d="M87.8406 17.485H85.6315L85.416 16.0841C84.7694 16.6402 84.0554 17.0713 83.2742 17.3773C82.4929 17.6832 81.7154 17.8352 80.9438 17.8352C79.6679 17.8352 78.6499 17.4715 77.886 16.7441C77.122 16.0167 76.741 15.043 76.741 13.8211C76.741 12.5106 77.2086 11.4637 78.1419 10.6824C79.0752 9.90115 80.3337 9.51051 81.9136 9.51051C82.9547 9.51051 84.0862 9.66253 85.3082 9.9685V8.1904C85.3082 7.22053 85.0888 6.5374 84.6481 6.14289C84.2075 5.7484 83.4589 5.55019 82.3986 5.55019C80.8726 5.55019 79.2907 5.82923 77.657 6.38536V4.4995C78.3036 4.15889 79.0945 3.89334 80.0278 3.70475C80.9611 3.51617 81.904 3.42188 82.8566 3.42188C84.5635 3.42188 85.8201 3.77595 86.6283 4.48604C87.4365 5.19612 87.8406 6.27761 87.8406 7.73242V17.485ZM85.3082 11.6927C84.3749 11.4599 83.4223 11.3425 82.4525 11.3425C80.4223 11.3425 79.4081 12.1238 79.4081 13.6864C79.4081 14.3695 79.5967 14.8948 79.9739 15.2624C80.3511 15.6299 80.8899 15.8147 81.5903 15.8147C82.8123 15.8147 84.0516 15.3567 85.3082 14.4407V11.6927Z" fill="white"/>
<path d="M93.5714 17.4846H90.9043V3.82554H93.1404L93.4367 5.8461C93.939 5.30729 94.4066 4.8897 94.8377 4.59335C95.2687 4.297 95.7094 4.07763 96.1578 3.9333C96.6061 3.78897 97.0911 3.71777 97.6126 3.71777C97.9532 3.71777 98.3227 3.74471 98.7172 3.7986V6.22328C98.1418 6.15208 97.6568 6.11551 97.2623 6.11551C95.8249 6.11551 94.5952 6.54657 93.5714 7.40867V17.4846Z" fill="white"/>
<path d="M108.93 17.1613C108.05 17.502 107.054 17.6732 105.939 17.6732C103.39 17.6732 102.114 16.3974 102.114 13.8476V5.92699H99.635V4.20278L102.195 3.87949L102.599 0H104.781V3.82561H108.822V5.92699H104.781V13.7129C104.781 14.3768 104.929 14.8444 105.225 15.1138C105.522 15.3832 106.03 15.518 106.748 15.518C107.465 15.518 108.212 15.4275 108.93 15.2485V17.1613Z" fill="white"/>
<path d="M122.292 17.4842H120.083L119.787 16.0294C118.116 17.2687 116.402 17.8883 114.641 17.8883C113.365 17.8883 112.388 17.5285 111.705 16.8107C111.021 16.0929 110.681 15.0769 110.681 13.7664V3.8252H113.348V12.9043C113.348 13.8741 113.537 14.5881 113.914 15.0461C114.291 15.5041 114.893 15.7331 115.719 15.7331C117.012 15.7331 118.315 15.302 119.625 14.4399V3.8252H122.292V17.4842Z" fill="white"/>
<path d="M128.05 23.0348H125.383V3.82598H127.619L127.861 5.22691C129.226 4.0242 130.744 3.42188 132.414 3.42188C134.085 3.42188 135.53 4.05498 136.536 5.3212C137.543 6.58742 138.045 8.3078 138.045 10.4804C138.045 12.653 137.516 14.458 136.456 15.7877C135.395 17.1175 133.987 17.7814 132.226 17.7814C130.609 17.7814 129.218 17.2522 128.05 16.1919V23.0348ZM128.05 14.3329C129.218 15.195 130.403 15.6261 131.606 15.6261C134.085 15.6261 135.324 13.9558 135.324 10.6151C135.324 8.90819 135.024 7.64196 134.421 6.81643C133.819 5.99088 132.899 5.57714 131.66 5.57714C130.421 5.57714 129.181 5.99088 128.05 6.81643V14.3329Z" fill="white"/>
<path d="M146.391 10.0493C147.451 10.4631 148.213 10.9519 148.681 11.5176C149.149 12.0834 149.381 12.8146 149.381 13.7133C149.381 14.9891 148.906 16.0033 147.954 16.7576C147.001 17.512 145.735 17.8891 144.155 17.8891C142.377 17.8891 140.832 17.5485 139.521 16.8654V14.9795C141.209 15.5357 142.771 15.8147 144.209 15.8147C145.088 15.8147 145.758 15.6434 146.216 15.3028C146.674 14.9622 146.903 14.4676 146.903 13.8211C146.903 13.39 146.764 13.0398 146.485 12.7704C146.206 12.501 145.7 12.2315 144.963 11.9621L142.673 11.1C140.68 10.363 139.683 9.10639 139.683 7.32829C139.683 6.16021 140.137 5.21728 141.043 4.4995C141.95 3.78172 143.141 3.42188 144.613 3.42188C146.085 3.42188 147.371 3.70859 148.627 4.28397V6.16984C147.226 5.72146 145.933 5.49631 144.748 5.49631C143.023 5.49631 142.161 6.07939 142.161 7.24747C142.161 7.7151 142.306 8.08265 142.592 8.35206C142.879 8.62147 143.445 8.91782 144.29 9.24111L146.391 10.0493Z" fill="white"/>
<path d="M41.5871 17.8852C40.7231 17.8852 39.8802 17.789 39.0546 17.5984C38.2291 17.406 37.596 17.1866 37.1553 16.9365C36.8859 16.7825 36.7185 16.6305 36.6511 16.4765C36.5838 16.3226 36.5511 16.1706 36.5511 16.0166V15.1815C36.5511 14.837 36.6762 14.6638 36.9244 14.6638C37.0206 14.6638 37.1207 14.6831 37.2265 14.7215C37.3324 14.76 37.4709 14.8178 37.6441 14.8947C38.2002 15.1449 38.8045 15.3373 39.4568 15.4701C40.1092 15.6048 40.7615 15.6722 41.4139 15.6722C42.4492 15.6722 43.2497 15.4894 43.8155 15.1257C44.3812 14.7619 44.6641 14.2443 44.6641 13.5727C44.6641 13.1128 44.516 12.7279 44.2177 12.4219C43.9194 12.116 43.369 11.8273 42.5627 11.5579L40.1746 10.8093C38.9661 10.4264 38.0886 9.87025 37.5421 9.14093C36.9956 8.4116 36.7223 7.61492 36.7223 6.75281C36.7223 6.06197 36.8705 5.45387 37.1688 4.92468C37.4651 4.39741 37.8596 3.94518 38.3484 3.57186C38.8372 3.19854 39.4087 2.91566 40.0611 2.72322C40.7134 2.53271 41.4043 2.43457 42.1336 2.43457C42.4973 2.43457 42.8668 2.45959 43.242 2.50577C43.6154 2.55388 43.9714 2.61738 44.3062 2.69243C44.641 2.76941 44.9547 2.856 45.2414 2.95222C45.5301 3.04844 45.7591 3.14466 45.9323 3.24087C46.1632 3.37558 46.3248 3.51028 46.4211 3.64306C46.5173 3.77777 46.5654 3.95865 46.5654 4.18958V4.96701C46.5654 5.31147 46.4403 5.48466 46.1921 5.48466C46.0574 5.48466 45.8476 5.41731 45.5589 5.28261C44.6179 4.86117 43.5634 4.6495 42.3934 4.6495C41.4524 4.6495 40.725 4.80344 40.2073 5.10942C39.6897 5.41731 39.4299 5.9061 39.4299 6.57769C39.4299 7.03761 39.5915 7.42633 39.9187 7.74385C40.2439 8.05944 40.8481 8.36349 41.7314 8.65022L44.0618 9.39879C45.2511 9.78366 46.0997 10.3109 46.6077 10.9806C47.1157 11.6522 47.3698 12.42 47.3698 13.2821C47.3698 13.9922 47.2254 14.6311 46.9387 15.1949C46.6501 15.7607 46.2517 16.2456 45.7437 16.6478C45.2357 17.05 44.6256 17.3579 43.9156 17.5696C43.2055 17.7813 42.428 17.8852 41.5852 17.8852M20.4654 17.4541C20.1768 17.4541 19.967 17.4022 19.8323 17.2963C19.6976 17.1905 19.5822 16.975 19.4879 16.6478L15.6315 3.92979C15.5353 3.60457 15.4871 3.38327 15.4871 3.26781C15.4871 3.00033 15.6219 2.86562 15.8893 2.86562H17.5C17.806 2.86562 18.0215 2.91951 18.1485 3.02342C18.2736 3.12926 18.3833 3.34479 18.4795 3.67L21.2429 14.5464L23.8042 3.67C23.8812 3.34479 23.987 3.12734 24.1198 3.02342C24.2545 2.91758 24.4739 2.86562 24.7818 2.86562H26.1057C26.4117 2.86562 26.633 2.91951 26.7677 3.02342C26.9024 3.12926 27.0063 3.34479 27.0833 3.67L29.6734 14.6907L32.5215 3.67C32.6177 3.34479 32.7274 3.12734 32.8525 3.02342C32.9776 2.91758 33.1931 2.86562 33.501 2.86562H35.0251C35.2925 2.86562 35.4273 3.00033 35.4273 3.26781C35.4273 3.34479 35.4176 3.43138 35.3984 3.5276C35.3791 3.62382 35.3407 3.75852 35.2829 3.92979L31.3111 16.6478C31.2149 16.975 31.0994 17.1905 30.9666 17.2963C30.8319 17.4022 30.6222 17.4541 30.3335 17.4541H28.923C28.6151 17.4541 28.3957 17.3964 28.261 17.2809C28.1263 17.1655 28.0204 16.9461 27.9454 16.6189L25.3841 6.02925L22.8516 16.6189C22.7747 16.9461 22.6688 17.1655 22.536 17.2809C22.4013 17.3964 22.182 17.4541 21.8741 17.4541H20.4635H20.4654ZM7.25671 15.6702C7.7936 15.6702 8.35936 15.5702 8.95398 15.3681C9.54861 15.1661 10.0663 14.8178 10.5069 14.3174C10.7744 14.0115 10.963 13.6612 11.0669 13.2667C11.1728 12.8742 11.2247 12.3988 11.2247 11.8427V11.1519C10.7456 11.0364 10.2414 10.946 9.7141 10.8786C9.18683 10.8113 8.67303 10.7785 8.17462 10.7785C7.08159 10.7785 6.26567 10.9998 5.72877 11.4405C5.19188 11.8812 4.92247 12.5143 4.92247 13.3399C4.92247 14.1077 5.12453 14.6888 5.52672 15.0814C5.92891 15.474 6.50429 15.6722 7.25286 15.6722M13.9284 13.1686C13.9284 13.7825 13.99 14.2712 14.1151 14.6369C14.2402 15.0025 14.4172 15.3951 14.6481 15.8165C14.7251 15.9512 14.7636 16.0763 14.7636 16.1898C14.7636 16.363 14.6578 16.5266 14.4461 16.6786L13.4108 17.3694C13.2568 17.4657 13.1125 17.5138 12.9797 17.5138C12.8065 17.5138 12.6449 17.4368 12.4909 17.2828C12.26 17.0519 12.0637 16.7979 11.9002 16.5208C11.7366 16.2437 11.5692 15.9223 11.396 15.5567C10.1105 17.0731 8.49984 17.8294 6.56202 17.8294C5.18033 17.8294 4.0873 17.4368 3.281 16.6497C2.4747 15.8627 2.07251 14.8081 2.07251 13.4842C2.07251 12.0852 2.57092 10.9575 3.56965 10.1031C4.56647 9.25061 5.90966 8.82341 7.59732 8.82341C8.15345 8.82341 8.73461 8.86575 9.33885 8.95234C9.9431 9.03894 10.5704 9.15825 11.2247 9.31219V8.1037C11.2247 6.85672 10.9649 5.97922 10.4473 5.47119C9.92963 4.96317 9.03673 4.70915 7.77051 4.70915C7.19513 4.70915 6.60435 4.78035 6.00011 4.92468C5.39586 5.069 4.80509 5.25567 4.2297 5.48659C3.9603 5.60205 3.76979 5.67325 3.65432 5.70212C3.53886 5.73098 3.45227 5.74445 3.39646 5.74445C3.16554 5.74445 3.052 5.57126 3.052 5.2268V4.4205C3.052 4.15109 3.09049 3.96058 3.16746 3.84512C3.24444 3.72966 3.39839 3.6142 3.62738 3.50066C4.20276 3.21201 4.89361 2.96377 5.69991 2.75209C6.50621 2.54041 7.3587 2.43457 8.26122 2.43457C10.2183 2.43457 11.6519 2.88102 12.5641 3.77199C13.4743 4.66489 13.9303 6.01194 13.9303 7.81505V13.1667L13.9284 13.1686Z" fill="white"/>
<path d="M44.6968 25.8812C39.2836 29.8761 31.4342 32.0006 24.6759 32.0006C15.2042 32.0006 6.67355 28.5002 0.21928 22.6714C-0.286824 22.2134 0.163474 21.588 0.773493 21.944C7.73771 25.9967 16.3492 28.4367 25.2455 28.4367C31.2456 28.4367 37.8423 27.1917 43.9097 24.6169C44.8257 24.2282 45.5916 25.2192 44.6968 25.8812Z" fill="white"/>
<path d="M46.9481 23.3079C46.2554 22.4208 42.372 22.8884 40.6266 23.0962C40.0974 23.1597 40.0166 22.6979 40.4919 22.3631C43.5921 20.1866 48.6685 20.814 49.2593 21.5433C49.8539 22.2784 49.1034 27.3702 46.1995 29.7987C45.7531 30.1721 45.3278 29.9739 45.526 29.4793C46.1803 27.8475 47.6428 24.1931 46.95 23.306" fill="white"/>
</g>
</g>
<defs>
<clipPath id="clip0_15_1263">
<rect width="150" height="32" fill="white"/>
</clipPath>
</defs>
</svg>
