<svg width="165" height="24" viewBox="0 0 165 24" fill="none" xmlns="http://www.w3.org/2000/svg">
<g opacity="0.5">
<g clip-path="url(#clip0_15_1250)">
<path fill-rule="evenodd" clip-rule="evenodd" d="M18.397 15.296H7.39997C7.29787 15.2964 7.19823 15.3274 7.11395 15.385C7.02967 15.4427 6.96463 15.5243 6.92725 15.6193C6.88987 15.7143 6.88187 15.8184 6.90429 15.918C6.9267 16.0176 6.9785 16.1082 7.05297 16.178L14.119 22.773C14.325 22.965 14.596 23.071 14.877 23.071H21.103L18.397 15.296Z" fill="white" fill-opacity="0.75"/>
<path fill-rule="evenodd" clip-rule="evenodd" d="M8.29492 0.857056C7.81792 0.857056 7.39492 1.16106 7.24192 1.61306L0.494917 21.6051C0.438348 21.7721 0.422405 21.9503 0.44841 22.1247C0.474415 22.2992 0.541618 22.4649 0.644451 22.6082C0.747284 22.7515 0.882786 22.8682 1.03973 22.9487C1.19667 23.0292 1.37054 23.0712 1.54692 23.0711H6.97692C7.45392 23.0711 7.87692 22.7671 8.02992 22.3161L9.37092 18.3411L7.05292 16.1781C6.97844 16.1082 6.92665 16.0176 6.90423 15.918C6.88182 15.8184 6.88982 15.7143 6.9272 15.6193C6.96458 15.5243 7.02962 15.4427 7.1139 15.3851C7.19818 15.3274 7.29782 15.2964 7.39992 15.2961H10.3999L15.2709 0.857056H8.29492Z" fill="white" fill-opacity="0.5"/>
<path fill-rule="evenodd" clip-rule="evenodd" d="M17.1931 1.61306C17.1189 1.39277 16.9775 1.2013 16.7888 1.06567C16.6 0.930031 16.3735 0.857064 16.1411 0.857056H8.33105H8.36605C8.84305 0.857056 9.26605 1.16106 9.41805 1.61306L16.1661 21.6051C16.2226 21.7721 16.2386 21.9503 16.2126 22.1247C16.1866 22.2992 16.1194 22.4649 16.0165 22.6082C15.9137 22.7515 15.7782 22.8682 15.6212 22.9487C15.4643 23.0292 15.2904 23.0712 15.1141 23.0711H14.9941H22.8891C23.0654 23.0712 23.2393 23.0292 23.3962 22.9487C23.5532 22.8682 23.6887 22.7515 23.7915 22.6082C23.8944 22.4649 23.9616 22.2992 23.9876 22.1247C24.0136 21.9503 23.9976 21.7721 23.9411 21.6051L17.1931 1.61306Z" fill="white"/>
</g>
<path fill-rule="evenodd" clip-rule="evenodd" d="M122.218 5.51625L127.404 19.26H124.772L123.553 15.849H118.125L116.954 19.26H114.34L119.527 5.51625H122.218ZM120.863 8.06625H120.796L118.758 13.8547H122.889L120.864 8.0655L120.863 8.06625ZM128.59 9.40725H136.478V10.3372L131.299 17.4202H136.507V19.26H128.225V18.1575L133.326 11.2477H128.59V9.40725ZM146.74 9.40725V19.26H144.395V17.967H144.357C144.044 18.4185 143.619 18.78 143.122 19.0155C142.606 19.2683 142.028 19.395 141.388 19.395C140.24 19.395 139.369 19.0703 138.77 18.4215C138.171 17.7735 137.87 16.7655 137.87 15.3975V9.40725H140.226V15.12C140.226 15.951 140.39 16.575 140.721 16.9935C141.05 17.412 141.548 17.6213 142.214 17.6213C142.873 17.6213 143.402 17.3903 143.8 16.9268C144.197 16.464 144.395 15.8573 144.395 15.111V9.40725H146.74ZM153.421 9.2445C153.606 9.2445 153.773 9.25725 153.92 9.28275C154.067 9.30825 154.193 9.33975 154.295 9.37875V11.727C154.172 11.637 153.997 11.553 153.763 11.4735C153.529 11.3933 153.245 11.3535 152.913 11.3535C152.342 11.3535 151.859 11.5935 151.465 12.072C151.072 12.552 150.874 13.29 150.874 14.286V19.26H148.549V9.40725H150.874V10.9598H150.913C151.124 10.4235 151.446 10.0035 151.874 9.69975C152.303 9.39675 152.819 9.2445 153.421 9.2445ZM159.175 9.207C160.54 9.207 161.602 9.6225 162.363 10.4572C163.12 11.2905 163.5 12.4433 163.5 13.9125V15.033H156.736C156.84 16.023 157.158 16.7153 157.693 17.109C158.226 17.502 158.918 17.6978 159.763 17.6978C160.32 17.6978 160.853 17.613 161.357 17.4435C161.836 17.2885 162.289 17.0644 162.703 16.7782V18.6863C162.319 18.9285 161.816 19.125 161.194 19.2743C160.573 19.425 159.91 19.5 159.205 19.5C157.699 19.5 156.53 19.056 155.695 18.168C154.858 17.2793 154.441 16.044 154.441 14.4593C154.441 12.9323 154.887 11.6737 155.781 10.6867C156.673 9.69975 157.806 9.20625 159.175 9.20625V9.207ZM159.175 10.9792C158.62 10.9792 158.12 11.1795 157.679 11.5793C157.236 11.9775 156.941 12.5632 156.794 13.3365H161.213C161.213 12.5707 161.036 11.9865 160.681 11.583C160.325 11.181 159.824 10.9792 159.175 10.9792ZM47.1608 5.51625V19.26H44.7682V8.487H44.73L40.455 19.26H38.8695L34.488 8.487H34.4595V19.26H32.25V5.51625H35.6797L39.6375 15.705H39.6945L43.875 5.51625H47.1608ZM49.161 6.561C49.161 6.17775 49.3005 5.85675 49.5795 5.598C49.8469 5.34305 50.2038 5.20351 50.5732 5.2095C50.9827 5.2095 51.3232 5.34225 51.5917 5.607C51.861 5.8725 51.9953 6.1905 51.9953 6.561C51.9953 6.9375 51.8573 7.25475 51.5828 7.509C51.3068 7.7655 50.9707 7.893 50.5732 7.893C50.1765 7.893 49.8412 7.764 49.5697 7.50525C49.4386 7.38584 49.3343 7.23989 49.2638 7.07709C49.1933 6.9143 49.1583 6.73837 49.161 6.561ZM49.401 19.26H51.726V9.40725H49.401V19.26ZM58.7782 17.5725C59.124 17.5725 59.5058 17.4945 59.9212 17.334C60.3329 17.1768 60.7211 16.9638 61.0747 16.701V18.858C60.6787 19.0776 60.2531 19.239 59.811 19.3373C59.3018 19.4498 58.7815 19.5044 58.26 19.5C56.805 19.5 55.6238 19.0417 54.714 18.1245C53.805 17.2088 53.3498 16.0372 53.3498 14.6122C53.3498 13.0275 53.8147 11.7225 54.7432 10.6972C55.6717 9.67125 56.988 9.159 58.692 9.159C59.127 9.159 59.568 9.2145 60.0127 9.32625C60.4582 9.43725 60.8115 9.56625 61.0747 9.71475V11.9377C60.7361 11.6872 60.3659 11.4825 59.9738 11.3287C59.6078 11.1867 59.2188 11.1137 58.8263 11.1135C57.9113 11.1135 57.171 11.4105 56.6062 12.0052C56.0437 12.5992 55.7617 13.4017 55.7617 14.4105C55.7617 15.4072 56.0317 16.1842 56.5732 16.7393C57.1147 17.2958 57.849 17.5725 58.7782 17.5725ZM67.6935 9.24525C67.8795 9.24525 68.0467 9.258 68.1937 9.2835C68.34 9.309 68.466 9.3405 68.5687 9.3795V11.7277C68.4465 11.6378 68.2687 11.5538 68.0355 11.4742C67.8008 11.3932 67.518 11.3542 67.185 11.3542C66.615 11.3542 66.1328 11.5943 65.739 12.0728C65.3452 12.5527 65.1488 13.2907 65.1488 14.2867V19.2607H62.8237V9.408H65.1488V10.9605H65.1862C65.3978 10.4235 65.718 10.0035 66.147 9.69975C66.576 9.39675 67.092 9.24525 67.6935 9.24525ZM68.6947 14.478C68.6947 12.849 69.1553 11.5583 70.077 10.6065C71.0003 9.654 72.2812 9.1785 73.92 9.1785C75.465 9.1785 76.6695 9.63675 77.538 10.554C78.4058 11.4712 78.8393 12.7087 78.8393 14.268C78.8393 15.8655 78.3787 17.1367 77.4563 18.0817C76.5338 19.0282 75.2782 19.5 73.6898 19.5C72.159 19.5 70.944 19.0515 70.0448 18.1537C69.144 17.256 68.6947 16.032 68.6947 14.478ZM71.1157 14.4023C71.1157 15.4298 71.3483 16.2173 71.817 16.7595C72.2835 17.3025 72.9533 17.574 73.8247 17.574C74.6707 17.574 75.3135 17.3025 75.7552 16.7595C76.1978 16.2173 76.4183 15.4117 76.4183 14.3445C76.4183 13.2833 76.1895 12.483 75.732 11.9445C75.2738 11.4037 74.631 11.133 73.806 11.133C72.9533 11.133 72.2918 11.4158 71.8215 11.982C71.3505 12.5475 71.1157 13.3538 71.1157 14.4023ZM82.2983 11.9963C82.2983 12.3285 82.404 12.5887 82.6147 12.7778C82.827 12.9653 83.2935 13.2037 84.018 13.491C84.9465 13.8623 85.599 14.2793 85.9732 14.7435C86.3482 15.2048 86.535 15.7665 86.535 16.4235C86.535 17.3513 86.178 18.096 85.464 18.6578C84.7508 19.2203 83.784 19.5007 82.5675 19.5007C82.1105 19.496 81.655 19.4463 81.2077 19.3522C80.7113 19.2532 80.2905 19.1273 79.944 18.9728V16.6927C80.367 16.986 80.8215 17.22 81.309 17.3925C81.7958 17.565 82.2375 17.6505 82.635 17.6505C83.1592 17.6505 83.547 17.5778 83.7975 17.43C84.0458 17.2837 84.1717 17.0377 84.1717 16.6935C84.1717 16.3733 84.0427 16.1033 83.7825 15.8827C83.523 15.6622 83.0325 15.408 82.308 15.1207C81.45 14.763 80.841 14.3602 80.4825 13.9132C80.1247 13.4662 79.944 12.8977 79.944 12.207C79.944 11.3183 80.2988 10.5885 81.006 10.017C81.714 9.44475 82.6313 9.15975 83.7585 9.15975C84.1035 9.15975 84.492 9.19725 84.921 9.27375C85.3507 9.351 85.7093 9.45 85.9973 9.57075V11.7758C85.6611 11.5573 85.2997 11.3802 84.921 11.2485C84.5303 11.105 84.1177 11.0304 83.7015 11.028C83.259 11.028 82.9147 11.1142 82.668 11.2867C82.422 11.4592 82.2983 11.6962 82.2983 11.9963ZM87.5347 14.4788C87.5347 12.849 87.9953 11.5583 88.9177 10.6065C89.8402 9.654 91.1205 9.1785 92.7607 9.1785C94.305 9.1785 95.5102 9.63675 96.3787 10.554C97.2465 11.4712 97.68 12.7087 97.68 14.268C97.68 15.8655 97.218 17.1367 96.297 18.0817C95.3745 19.0282 94.1183 19.5 92.5298 19.5C90.9998 19.5 89.7848 19.0515 88.884 18.1537C87.984 17.256 87.5347 16.0312 87.5347 14.4773V14.4788ZM89.955 14.4023C89.955 15.4298 90.1898 16.2173 90.6562 16.7595C91.125 17.3025 91.794 17.574 92.664 17.574C93.51 17.574 94.1542 17.3025 94.596 16.7595C95.037 16.2173 95.2583 15.4117 95.2583 14.3445C95.2583 13.2833 95.0303 12.483 94.5713 11.9445C94.1145 11.4037 93.471 11.133 92.646 11.133C91.794 11.133 91.1325 11.4158 90.6615 11.982C90.1905 12.5475 89.955 13.3538 89.955 14.4023ZM105.393 11.3062H101.929V19.26H99.5775V11.3055H97.9252V9.408H99.5775V8.037C99.5775 7.002 99.915 6.15375 100.591 5.49225C101.266 4.83 102.133 4.5 103.189 4.5C103.471 4.5 103.72 4.515 103.938 4.5435C104.157 4.572 104.349 4.61475 104.515 4.6725V6.6765C104.386 6.60993 104.25 6.55521 104.111 6.513C103.896 6.44571 103.673 6.41329 103.448 6.417C102.962 6.417 102.587 6.5685 102.325 6.87225C102.062 7.176 101.929 7.62525 101.929 8.2185V9.408H105.393V7.194L107.728 6.4845V9.408H110.081V11.3055H107.728V15.915C107.728 16.5225 107.838 16.95 108.059 17.199C108.28 17.4495 108.628 17.5732 109.103 17.5732C109.236 17.5732 109.398 17.5417 109.588 17.4772C109.775 17.4135 109.94 17.3377 110.081 17.2477V19.1647C109.934 19.2487 109.689 19.3245 109.346 19.395C109.004 19.4648 108.667 19.5 108.334 19.5C107.353 19.5 106.618 19.2398 106.127 18.7178C105.637 18.1988 105.392 17.4135 105.392 16.3657V11.3055L105.393 11.3062Z" fill="white"/>
</g>
<defs>
<clipPath id="clip0_15_1250">
<rect width="24" height="24" fill="white"/>
</clipPath>
</defs>
</svg>
