<svg width="153" height="35" viewBox="0 0 153 35" fill="none" xmlns="http://www.w3.org/2000/svg">
<g opacity="0.5">
<mask id="mask0_210_342" style="mask-type:luminance" maskUnits="userSpaceOnUse" x="0" y="1" width="149" height="24">
<path d="M148.48 1.28003H0.0585938V24.2748H148.48V1.28003Z" fill="white"/>
</mask>
<g mask="url(#mask0_210_342)">
<path d="M32.6571 23.3181L32.899 22.4674C33.1927 21.4604 33.0833 20.5229 32.5938 19.84C32.1445 19.2092 31.3958 18.8389 30.4858 18.7926L13.265 18.5727C13.1499 18.5669 13.0519 18.5148 12.9943 18.4279C12.9367 18.3411 12.9195 18.2254 12.9598 18.1154C13.0174 17.9476 13.1844 17.8146 13.3572 17.8087L30.7334 17.5888C32.7954 17.4962 35.0243 15.8122 35.8076 13.7635L36.7982 11.1593C36.827 11.0898 36.8385 11.0146 36.8385 10.9394C36.8385 10.8988 36.8327 10.8583 36.827 10.8178C35.7097 5.73089 31.1885 1.92871 25.7918 1.92871C20.8157 1.92871 16.5883 5.15796 15.0735 9.64303C14.0944 8.90806 12.8446 8.51452 11.4969 8.64758C9.10672 8.88489 7.18884 10.8178 6.95268 13.2195C6.88932 13.8445 6.94116 14.4405 7.08509 15.0077C3.18598 15.1235 0.0585938 18.3353 0.0585938 22.2764C0.0585938 22.6352 0.0873913 22.9824 0.133467 23.3297C0.156504 23.4976 0.300491 23.619 0.467515 23.619L32.2539 23.6249C32.2597 23.6249 32.2597 23.6249 32.2655 23.6249C32.4441 23.619 32.6053 23.4976 32.6571 23.3181Z" fill="white"/>
<path d="M38.3938 11.3513C38.2326 11.3513 38.077 11.3571 37.9158 11.3629C37.887 11.3629 37.864 11.3687 37.841 11.3802C37.7603 11.4092 37.6912 11.4786 37.6682 11.5655L36.9886 13.915C36.6948 14.922 36.8043 15.8595 37.2938 16.5424C37.743 17.1732 38.4918 17.5436 39.4018 17.5899L43.0706 17.8098C43.18 17.8156 43.2722 17.8677 43.3297 17.9545C43.3931 18.0413 43.4046 18.157 43.37 18.267C43.3124 18.4348 43.1454 18.5679 42.9727 18.5737L39.1599 18.7936C37.0922 18.892 34.8575 20.5703 34.0742 22.619L33.7978 23.3423C33.746 23.4755 33.8439 23.6144 33.9763 23.6201C33.9821 23.6201 33.9821 23.6201 33.9879 23.6201H47.1137C47.2692 23.6201 47.4074 23.5159 47.4536 23.3655C47.6839 22.5495 47.8049 21.693 47.8049 20.8018C47.8049 15.5875 43.5889 11.3513 38.3938 11.3513Z" fill="white"/>
<path d="M62.2773 15.5925H64.4485V21.5591H68.2501V23.4689H62.2773V15.5925Z" fill="white"/>
<path d="M70.5024 19.5518V19.5286C70.5024 17.2658 72.3168 15.4313 74.7354 15.4313C77.1552 15.4313 78.946 17.2427 78.946 19.5055V19.5286C78.946 21.7914 77.1322 23.626 74.713 23.626C72.2938 23.626 70.5024 21.8146 70.5024 19.5518ZM76.7284 19.5518V19.5286C76.7284 18.3943 75.9111 17.399 74.713 17.399C73.5264 17.399 72.7316 18.3654 72.7316 19.5055V19.5286C72.7316 20.6629 73.5495 21.6583 74.7354 21.6583C75.9341 21.6583 76.7284 20.6919 76.7284 19.5518Z" fill="white"/>
<path d="M81.6064 20.0138V15.5925H83.8119V19.9734C83.8119 21.1077 84.3821 21.6517 85.2576 21.6517C86.1325 21.6517 86.7034 21.1367 86.7034 20.0313V15.5983H88.9088V19.9676C88.9088 22.5139 87.4637 23.6251 85.2346 23.6251C83.0055 23.6135 81.6064 22.4792 81.6064 20.0138Z" fill="white"/>
<path d="M92.2388 15.5925H95.2621C98.0621 15.5925 99.6858 17.2129 99.6858 19.4873V19.5104C99.6858 21.7847 98.0384 23.4746 95.216 23.4746H92.2388V15.5925ZM95.2973 21.5359C96.5984 21.5359 97.4573 20.8183 97.4573 19.5451V19.522C97.4573 18.2604 96.5933 17.5312 95.2973 17.5312H94.4103V21.5359H95.2973Z" fill="white"/>
<path d="M102.841 15.5925H109.119V17.5023H105.019V18.8449H108.728V20.6563H105.019V23.4689H102.841V15.5925Z" fill="white"/>
<path d="M112.144 15.5925H114.315V21.5591H118.111V23.4689H112.144V15.5925Z" fill="white"/>
<path d="M123.794 15.535H125.891L129.231 23.4692H126.898L126.328 22.063H123.305L122.746 23.4692H120.46L123.794 15.535ZM125.695 20.3615L124.82 18.1219L123.933 20.3615H125.695Z" fill="white"/>
<path d="M132.025 15.5925H135.734C136.932 15.5925 137.762 15.9108 138.286 16.449C138.746 16.9004 138.982 17.508 138.982 18.2835V18.3067C138.982 19.5104 138.343 20.309 137.37 20.7257L139.242 23.4746H136.731L135.152 21.0903H134.196V23.4746H132.025V15.5925ZM135.63 19.3715C136.367 19.3715 136.794 19.0127 136.794 18.4398V18.4167C136.794 17.7974 136.344 17.4849 135.619 17.4849H134.196V19.3773H135.63V19.3715Z" fill="white"/>
<path d="M142.117 15.5925H148.423V17.4501H144.27V18.6423H148.031V20.3612H144.27V21.6112H148.48V23.4689H142.117V15.5925Z" fill="white"/>
<path d="M57.5199 20.4777C57.2146 21.1664 56.5753 21.6583 55.7229 21.6583C54.5365 21.6583 53.7187 20.6687 53.7187 19.5286V19.5055C53.7187 18.3712 54.5134 17.399 55.6999 17.399C56.5926 17.399 57.278 17.9545 57.566 18.7069H59.8582C59.4896 16.8318 57.854 15.4313 55.7229 15.4313C53.304 15.4313 51.4897 17.2658 51.4897 19.5286V19.5518C51.4897 21.8146 53.2809 23.626 55.6999 23.626C57.7676 23.626 59.386 22.2775 59.8122 20.472H57.5199V20.4777Z" fill="white"/>
</g>
</g>
</svg>
