<svg width="153" height="35" viewBox="0 0 153 35" fill="none" xmlns="http://www.w3.org/2000/svg">
<g opacity="0.5">
<mask id="mask0_210_307" style="mask-type:luminance" maskUnits="userSpaceOnUse" x="0" y="1" width="149" height="24">
<path d="M148.48 1.28003H0.0587158V24.2748H148.48V1.28003Z" fill="white"/>
</mask>
<g mask="url(#mask0_210_307)">
<path d="M32.6574 23.3181L32.8993 22.4674C33.193 21.4604 33.0835 20.5229 32.594 19.84C32.1448 19.2092 31.3961 18.8389 30.486 18.7926L13.2652 18.5727C13.1501 18.5669 13.0522 18.5148 12.9946 18.4279C12.937 18.3411 12.9197 18.2254 12.9601 18.1154C13.0176 17.9476 13.1847 17.8146 13.3575 17.8087L30.7337 17.5888C32.7956 17.4962 35.0245 15.8122 35.8078 13.7635L36.7984 11.1593C36.8272 11.0898 36.8387 11.0146 36.8387 10.9394C36.8387 10.8988 36.833 10.8583 36.8272 10.8178C35.7099 5.73089 31.1887 1.92871 25.7921 1.92871C20.816 1.92871 16.5885 5.15796 15.0738 9.64303C14.0946 8.90806 12.8448 8.51452 11.4971 8.64758C9.10697 8.88489 7.18908 10.8178 6.95292 13.2195C6.88956 13.8445 6.9414 14.4405 7.08534 15.0077C3.18623 15.1235 0.0588379 18.3353 0.0588379 22.2764C0.0588379 22.6352 0.0876354 22.9824 0.133711 23.3297C0.156748 23.4976 0.300736 23.619 0.46776 23.619L32.2542 23.6249C32.26 23.6249 32.26 23.6249 32.2658 23.6249C32.4443 23.619 32.6055 23.4976 32.6574 23.3181Z" fill="black"/>
<path d="M38.3941 11.3513C38.2329 11.3513 38.0773 11.3571 37.9161 11.3629C37.8873 11.3629 37.8642 11.3687 37.8412 11.3802C37.7606 11.4092 37.6914 11.4786 37.6685 11.5655L36.9888 13.915C36.695 14.922 36.8045 15.8595 37.2941 16.5424C37.7433 17.1732 38.492 17.5436 39.402 17.5899L43.0708 17.8098C43.1802 17.8156 43.2724 17.8677 43.33 17.9545C43.3933 18.0413 43.4048 18.157 43.3703 18.267C43.3127 18.4348 43.1456 18.5679 42.9729 18.5737L39.1601 18.7936C37.0925 18.892 34.8578 20.5703 34.0745 22.619L33.7981 23.3423C33.7462 23.4755 33.8441 23.6144 33.9766 23.6201C33.9824 23.6201 33.9824 23.6201 33.9881 23.6201H47.114C47.2695 23.6201 47.4077 23.5159 47.4538 23.3655C47.6841 22.5495 47.8051 21.693 47.8051 20.8018C47.8051 15.5875 43.5892 11.3513 38.3941 11.3513Z" fill="black"/>
<path d="M62.2777 15.5925H64.4488V21.5591H68.2504V23.4689H62.2777V15.5925Z" fill="black"/>
<path d="M70.5024 19.5518V19.5286C70.5024 17.2658 72.3168 15.4313 74.7354 15.4313C77.1552 15.4313 78.946 17.2427 78.946 19.5055V19.5286C78.946 21.7914 77.1322 23.626 74.713 23.626C72.2938 23.626 70.5024 21.8146 70.5024 19.5518ZM76.7284 19.5518V19.5286C76.7284 18.3943 75.9111 17.399 74.713 17.399C73.5264 17.399 72.7316 18.3654 72.7316 19.5055V19.5286C72.7316 20.6629 73.5495 21.6583 74.7354 21.6583C75.9341 21.6583 76.7284 20.6919 76.7284 19.5518Z" fill="black"/>
<path d="M81.6066 20.0138V15.5925H83.812V19.9734C83.812 21.1077 84.3822 21.6517 85.2578 21.6517C86.1326 21.6517 86.7035 21.1367 86.7035 20.0313V15.5983H88.909V19.9676C88.909 22.5139 87.4638 23.6251 85.2347 23.6251C83.0056 23.6135 81.6066 22.4792 81.6066 20.0138Z" fill="black"/>
<path d="M92.239 15.5925H95.2624C98.0624 15.5925 99.6861 17.2129 99.6861 19.4873V19.5104C99.6861 21.7847 98.0387 23.4746 95.2163 23.4746H92.239V15.5925ZM95.2976 21.5359C96.5987 21.5359 97.4576 20.8183 97.4576 19.5451V19.522C97.4576 18.2604 96.5936 17.5312 95.2976 17.5312H94.4105V21.5359H95.2976Z" fill="black"/>
<path d="M102.841 15.5925H109.12V17.5023H105.019V18.8449H108.728V20.6563H105.019V23.4689H102.841V15.5925Z" fill="black"/>
<path d="M112.144 15.5925H114.315V21.5591H118.111V23.4689H112.144V15.5925Z" fill="black"/>
<path d="M123.795 15.535H125.891L129.232 23.4692H126.899L126.328 22.063H123.305L122.746 23.4692H120.46L123.795 15.535ZM125.696 20.3615L124.82 18.1219L123.933 20.3615H125.696Z" fill="black"/>
<path d="M132.025 15.5925H135.735C136.932 15.5925 137.762 15.9108 138.286 16.449C138.746 16.9004 138.983 17.508 138.983 18.2835V18.3067C138.983 19.5104 138.343 20.309 137.37 20.7257L139.242 23.4746H136.731L135.152 21.0903H134.197V23.4746H132.025V15.5925ZM135.63 19.3715C136.368 19.3715 136.794 19.0127 136.794 18.4398V18.4167C136.794 17.7974 136.345 17.4849 135.619 17.4849H134.197V19.3773H135.63V19.3715Z" fill="black"/>
<path d="M142.117 15.5925H148.423V17.4501H144.27V18.6423H148.031V20.3612H144.27V21.6112H148.48V23.4689H142.117V15.5925Z" fill="black"/>
<path d="M57.5203 20.4777C57.215 21.1664 56.5757 21.6583 55.7233 21.6583C54.5369 21.6583 53.719 20.6687 53.719 19.5286V19.5055C53.719 18.3712 54.5138 17.399 55.7003 17.399C56.593 17.399 57.2783 17.9545 57.5663 18.7069H59.8586C59.49 16.8318 57.8543 15.4313 55.7233 15.4313C53.3044 15.4313 51.4901 17.2658 51.4901 19.5286V19.5518C51.4901 21.8146 53.2813 23.626 55.7003 23.626C57.7679 23.626 59.3864 22.2775 59.8125 20.472H57.5203V20.4777Z" fill="black"/>
</g>
</g>
</svg>
