<svg width="155" height="25" viewBox="0 0 155 25" fill="none" xmlns="http://www.w3.org/2000/svg">
<g opacity="0.5">
<path d="M18.4835 6.36182L19.3987 6.37782L21.8851 3.89142L22.0051 2.83782C20.0291 1.08022 17.4291 0.0106201 14.5835 0.0106201C9.43148 0.0106201 5.08268 3.51622 3.79468 8.26502C4.06668 8.07542 4.64668 8.21702 4.64668 8.21702L9.61628 7.39942C9.61628 7.39942 9.87228 6.97542 10.0003 7.00182C11.067 5.83484 12.5388 5.11885 14.1154 4.99991C15.692 4.88098 17.2537 5.36808 18.4835 6.36182Z" fill="white"/>
<path d="M25.3874 8.27384C24.8161 6.17198 23.6439 4.2825 22.0146 2.83704L18.493 6.35864C19.2157 6.93949 19.799 7.67505 20.1998 8.51116C20.6006 9.34726 20.8088 10.2626 20.809 11.1898V11.8114C22.5226 11.8114 23.913 13.2058 23.913 14.9154C23.913 16.625 22.5186 18.0194 20.809 18.0194H14.5994L13.9778 18.6434V22.3698L14.5994 22.9882H20.809C22.9475 22.9825 24.9968 22.1301 26.5085 20.6174C28.0201 19.1046 28.8712 17.0548 28.8754 14.9162C28.8722 12.1674 27.4866 9.73224 25.3794 8.27384H25.3874Z" fill="white"/>
<path d="M8.37467 22.9938H14.5827V18.0242H8.37467C7.93382 18.0244 7.49809 17.9297 7.09707 17.7466L6.20107 18.021L3.71467 20.5074L3.49707 21.3474C4.89599 22.4215 6.61176 23.0011 8.37547 22.9954L8.37467 22.9938Z" fill="white"/>
<path d="M8.37452 6.84424C6.23388 6.84762 4.18189 7.69949 2.66823 9.21315C1.15457 10.7268 0.302701 12.7788 0.299316 14.9194C0.299304 16.1659 0.588259 17.3955 1.14349 18.5115C1.69872 19.6275 2.5051 20.5996 3.49932 21.3514L7.09932 17.7514C6.55401 17.5061 6.09117 17.1085 5.76646 16.6063C5.44174 16.1042 5.26897 15.519 5.26892 14.921C5.26892 13.2074 6.66332 11.817 8.37292 11.817C8.97066 11.8181 9.55546 11.9913 10.0574 12.3159C10.5593 12.6405 10.9572 13.1027 11.2033 13.6474L14.8033 10.0474C13.3265 8.10344 10.9953 6.84744 8.37132 6.84744L8.37452 6.84424Z" fill="white"/>
<path d="M45.1088 19.3863C42.87 19.3863 40.9481 18.5943 39.3282 17.0103C37.7083 15.4263 36.8994 13.5212 36.8994 11.2994C36.8994 9.07759 37.7073 7.17257 39.3282 5.58857C40.9492 4.00457 42.8732 3.21151 45.1088 3.21151C46.1343 3.1966 47.1525 3.38593 48.1042 3.76847C49.0558 4.15101 49.9218 4.71911 50.6517 5.43967L49.092 6.99938C48.0247 5.96734 46.5922 5.39976 45.1077 5.42067C43.492 5.42067 42.1192 5.9909 40.9935 7.13878C40.4459 7.68258 40.0141 8.33171 39.7243 9.04698C39.4344 9.76226 39.2925 10.5288 39.3071 11.3005C39.3071 12.933 39.8668 14.3175 40.9935 15.4611C41.523 16.0167 42.1621 16.4562 42.8703 16.752C43.5785 17.0477 44.3404 17.1932 45.1077 17.1792C46.7529 17.1792 48.112 16.6512 49.1944 15.5593C49.828 14.9257 50.2504 13.9753 50.3983 12.7768H45.1119V10.5676H52.5504C52.6296 10.9604 52.656 11.4124 52.656 11.9404C52.656 14.1115 52.0192 15.8328 50.7415 17.1095C49.2926 18.6249 47.4151 19.3799 45.0971 19.3799L45.1088 19.3863ZM62.3955 17.9079C61.3817 18.9005 60.1462 19.3863 58.6868 19.3863C57.2274 19.3863 55.9898 18.8899 54.9781 17.9079C53.9665 16.9258 53.4596 15.6765 53.4596 14.1907C53.4596 12.7049 53.9665 11.4663 54.9781 10.4736C55.9898 9.48099 57.2274 8.99522 58.6868 8.99522C60.1462 8.99522 61.3838 9.49154 62.3955 10.4736C63.4071 11.4557 63.914 12.7081 63.914 14.1907C63.914 15.6734 63.4071 16.9152 62.3955 17.9079ZM56.6149 16.4506C56.8784 16.7369 57.199 16.9646 57.5561 17.1191C57.9132 17.2735 58.2988 17.3512 58.6879 17.3471C59.4904 17.3471 60.181 17.0493 60.7608 16.4495C61.3405 15.8497 61.6288 15.0978 61.6288 14.1897C61.6288 13.271 61.3437 12.5128 60.7703 11.9193C60.1969 11.3258 59.5052 11.0322 58.6879 11.0322C58.298 11.0263 57.9113 11.1021 57.5526 11.2549C57.1939 11.4077 56.8712 11.634 56.6054 11.9193C56.032 12.5106 55.7469 13.2667 55.7469 14.1897C55.7469 15.0957 56.0352 15.8508 56.6149 16.4495V16.4506ZM73.7992 17.9079C72.7855 18.9005 71.5499 19.3863 70.0906 19.3863C68.6312 19.3863 67.3935 18.8899 66.3819 17.9079C65.3702 16.9258 64.8633 15.6765 64.8633 14.1907C64.8633 12.7049 65.3702 11.4663 66.3819 10.4736C67.3935 9.48099 68.6312 8.99522 70.0906 8.99522C71.5499 8.99522 72.7876 9.49154 73.7992 10.4736C74.8109 11.4557 75.3177 12.7081 75.3177 14.1907C75.3177 15.6734 74.8109 16.9152 73.7992 17.9079ZM68.0187 16.4506C68.2821 16.7369 68.6028 16.9646 68.9599 17.1191C69.317 17.2735 69.7026 17.3512 70.0916 17.3471C70.8942 17.3471 71.5848 17.0493 72.1645 16.4495C72.7443 15.8497 73.0326 15.0978 73.0326 14.1897C73.0326 13.271 72.7474 12.5128 72.174 11.9193C71.6006 11.3258 70.909 11.0322 70.0916 11.0322C69.7018 11.0263 69.315 11.1021 68.9563 11.2549C68.5976 11.4077 68.275 11.634 68.0092 11.9193C67.4358 12.5106 67.1506 13.2667 67.1506 14.1897C67.1506 15.0957 67.4389 15.8508 68.0187 16.4495V16.4506ZM81.2958 24.0749C80.1394 24.0749 79.1658 23.7644 78.377 23.1456C77.5882 22.5268 77.0232 21.8108 76.681 20.9935L78.6748 20.1666C78.8839 20.6672 79.2028 21.1012 79.66 21.4697C80.1173 21.8383 80.6527 22.021 81.2989 22.021C82.167 22.021 82.8491 21.757 83.3402 21.2322C83.8312 20.7073 84.0794 19.9481 84.0794 18.9618V18.2226H84.0002C83.3666 19.0114 82.4405 19.4074 81.2588 19.4074C79.9304 19.4074 78.7666 18.9005 77.7666 17.8889C77.2808 17.4107 76.8974 16.8387 76.6396 16.2076C76.3818 15.5766 76.2551 14.8997 76.2671 14.2182C76.2549 13.5324 76.3814 12.8512 76.6391 12.2155C76.8968 11.5798 77.2803 11.0028 77.7666 10.519C78.7645 9.5021 79.9314 8.991 81.2588 8.991C81.8502 8.991 82.3866 9.10188 82.866 9.32681C83.3455 9.55173 83.7246 9.82735 84.0002 10.1537H84.0794V9.31519H86.2505V18.6682C86.2505 20.4845 85.788 21.8404 84.8587 22.7443C83.9294 23.6419 82.7446 24.096 81.2968 24.096L81.2958 24.0749ZM81.4542 17.3461C81.8306 17.3527 82.2039 17.2758 82.547 17.1207C82.8901 16.9657 83.1946 16.7364 83.4384 16.4495C83.9706 15.8508 84.2367 15.1052 84.2367 14.2087C84.2367 13.3026 83.9706 12.5444 83.4384 11.9383C83.196 11.6491 82.892 11.4176 82.5487 11.2609C82.2055 11.1041 81.8315 11.026 81.4542 11.0322C80.6516 11.0322 79.9673 11.3364 79.4034 11.9383C78.8395 12.5402 78.5544 13.2984 78.5544 14.2087C78.5544 15.1021 78.8363 15.8508 79.4034 16.4495C79.9705 17.0483 80.6527 17.3461 81.4542 17.3461ZM90.1155 3.76063V19.0726H87.8271V3.76063H90.1155ZM96.3881 19.3852C94.9139 19.3852 93.6848 18.8847 92.6985 17.8857C91.7122 16.8867 91.2179 15.6512 91.2179 14.177C91.2179 12.6522 91.6931 11.3997 92.6478 10.4282C93.0956 9.95695 93.6364 9.58374 94.2358 9.33217C94.8353 9.08061 95.4804 8.95616 96.1305 8.96671C96.7609 8.96671 97.348 9.08076 97.8866 9.31202C98.3873 9.5172 98.8429 9.81857 99.2277 10.1991C99.5486 10.5185 99.8333 10.8723 100.077 11.254C100.278 11.5803 100.45 11.9238 100.59 12.2804L100.828 12.8718L93.8643 15.7568C94.3923 16.8086 95.2371 17.3355 96.3902 17.3355C97.442 17.3355 98.2984 16.8571 98.9542 15.8962L100.728 17.081C100.332 17.6724 99.7747 18.2057 99.0514 18.6787C98.328 19.1518 97.4378 19.3863 96.386 19.3863L96.3881 19.3852ZM93.4883 14.0207L98.1347 12.0882C98.0017 11.7588 97.7609 11.4927 97.3955 11.2899C97.0281 11.0841 96.6128 10.9792 96.1917 10.9858C95.5201 10.9858 94.8928 11.2603 94.3089 11.8126C93.7249 12.3649 93.4429 13.1031 93.4693 14.0218L93.4883 14.0207ZM112.845 19.3852C110.765 19.3852 109.022 18.6819 107.616 17.2732C106.209 15.8645 105.504 14.1105 105.504 12.0059C105.504 9.90127 106.207 8.14514 107.616 6.73855C109.024 5.33196 110.766 4.62655 112.845 4.62655C114.975 4.62655 116.706 5.39743 118.033 6.93391L116.771 8.15887C115.821 6.96137 114.501 6.36367 112.843 6.36367C111.301 6.36367 110.006 6.88322 108.936 7.92338C107.865 8.96354 107.347 10.3226 107.347 12.0059C107.347 13.6891 107.875 15.0514 108.936 16.0926C109.996 17.1338 111.294 17.6523 112.843 17.6523C114.539 17.6523 115.986 16.968 117.172 15.6016L118.434 16.8635C117.773 17.6525 116.943 18.283 116.005 18.7083C115.011 19.1657 113.928 19.3972 112.833 19.3863L112.845 19.3852ZM121.88 19.0726H120.064V4.94652H121.88V19.0726ZM124.84 10.5613C125.774 9.58236 126.952 9.09026 128.411 9.09026C129.871 9.09026 131.048 9.58131 131.983 10.5613C132.917 11.5412 133.384 12.7789 133.384 14.2414C133.384 15.704 132.919 16.9416 131.983 17.9216C131.046 18.9016 129.871 19.3926 128.411 19.3926C126.952 19.3926 125.774 18.9016 124.84 17.9216C123.905 16.9416 123.439 15.704 123.439 14.2414C123.439 12.7789 123.903 11.5412 124.84 10.5613ZM126.192 16.7737C126.825 17.4105 127.558 17.7305 128.409 17.7305C129.26 17.7305 129.993 17.4105 130.627 16.7737C131.26 16.137 131.565 15.29 131.565 14.2393C131.565 13.1886 131.251 12.3406 130.627 11.7049C130.003 11.0692 129.26 10.7482 128.409 10.7482C127.558 10.7482 126.825 11.0681 126.192 11.7049C125.558 12.3417 125.254 13.1886 125.254 14.2393C125.254 15.29 125.568 16.138 126.192 16.7737ZM143.426 19.0726H141.688V17.7315H141.609C141.335 18.1909 140.912 18.5837 140.347 18.8931C139.782 19.2025 139.186 19.3789 138.552 19.3789C137.341 19.3789 136.425 19.0114 135.801 18.2732C135.177 17.5351 134.863 16.5488 134.863 15.3133V9.39333H136.68V15.0155C136.68 16.8191 137.475 17.7188 139.066 17.7188C139.423 17.7264 139.775 17.6479 140.095 17.4902C140.414 17.3325 140.691 17.1001 140.902 16.8128C141.371 16.2175 141.622 15.4789 141.611 14.7209V9.39333H143.428V19.0631L143.426 19.0726ZM149.58 19.3863C148.331 19.3863 147.25 18.8921 146.344 17.9058C145.438 16.9194 144.984 15.6966 144.984 14.2351C144.984 12.7736 145.438 11.5507 146.344 10.5644C147.25 9.57814 148.332 9.08393 149.58 9.08393C150.315 9.08393 150.978 9.24233 151.565 9.55596C152.152 9.86959 152.589 10.2656 152.878 10.7408H152.957L152.878 9.39967V4.94335H154.694V19.0726H152.957V17.7315H152.878C152.589 18.2035 152.152 18.5995 151.565 18.9163C150.979 19.2268 150.316 19.3863 149.58 19.3863ZM149.876 17.7283C150.285 17.7339 150.692 17.6523 151.068 17.489C151.444 17.3257 151.781 17.0844 152.056 16.7811C152.655 16.1507 152.954 15.3006 152.954 14.2467C152.954 13.1928 152.656 12.3322 152.056 11.7123C151.781 11.409 151.444 11.1677 151.068 11.0044C150.692 10.8411 150.285 10.7595 149.876 10.7651C149.033 10.7651 148.31 11.085 147.704 11.7218C147.099 12.3586 146.798 13.2055 146.798 14.2562C146.798 15.3069 147.099 16.1549 147.704 16.7906C147.978 17.095 148.313 17.3377 148.687 17.5027C149.061 17.6676 149.467 17.751 149.876 17.7473V17.7283Z" fill="white"/>
</g>
</svg>
