<svg width="137" height="32" viewBox="0 0 137 32" fill="none" xmlns="http://www.w3.org/2000/svg">
<g opacity="0.5">
<path d="M43.7376 22.0002H51.409V25.7058H39.3598V6.196H43.7376V22.0002ZM1.27173 1.36719H30.5872V30.6367H1.27173V1.36719ZM3.86334 28.057H27.9884V3.9445H3.86334V28.057ZM9.0153 6.23491L14.1144 15.275L8.44074 25.7446H12.095L15.8766 18.5987L19.9035 25.7446H23.625L12.7368 6.23248L9.0153 6.23491ZM83.9582 11.2339C83.0247 11.2123 82.1031 11.453 81.2967 11.9293C80.5894 12.369 79.9762 12.9478 79.4936 13.6313H79.4359C78.8349 12.1554 77.4045 11.229 75.6014 11.229C73.1973 11.229 71.9664 12.559 71.3654 13.4586H71.2789L71.0793 11.5476H67.5309V25.7009H71.7669V17.4559C71.7531 17.0819 71.811 16.7086 71.9376 16.357C72.1948 15.6275 72.8535 14.7643 73.969 14.7643C75.3442 14.7643 75.9741 15.9801 75.9741 17.7745V25.7058H80.2103V17.4389C80.2078 17.0554 80.2654 16.6738 80.3806 16.3083C80.5102 15.8709 80.7742 15.4866 81.1342 15.2108C81.4942 14.935 81.9318 14.7821 82.383 14.7741C83.787 14.7741 84.4463 15.9606 84.4463 18.0176V25.7155H88.6798V17.3708C88.6798 13.145 86.6479 11.2339 83.9582 11.2339ZM116.803 5.64164H121.154V25.6936H117.404L117.204 23.6098H117.146C116.259 25.2025 114.569 26.0122 112.766 26.0122C109.446 26.0122 106.785 23.1479 106.785 18.747C106.756 13.9717 109.703 11.2218 113.053 11.2218C114.771 11.2218 116.115 11.8296 116.745 12.8143H116.803V5.64164ZM116.803 17.5313C116.797 17.2702 116.778 17.0097 116.745 16.7508C116.488 15.5643 115.543 14.5795 114.199 14.5795C112.223 14.5795 111.194 16.3739 111.194 18.6036C111.194 21.0058 112.367 22.5109 114.17 22.5109C114.769 22.5177 115.35 22.3108 115.813 21.9265C116.276 21.5422 116.589 21.0053 116.699 20.4101C116.784 20.0791 116.822 19.7379 116.815 19.3962L116.803 17.5313ZM135.574 17.327V25.6936H131.824L131.566 24.2761H131.48C130.561 25.4042 129.124 26.0122 127.457 26.0122C124.613 26.0122 122.919 23.9284 122.919 21.6696C122.919 17.9933 126.618 16.9138 131.162 16.9138V16.0651C131.162 15.3138 130.761 14.2416 128.607 14.2416C127.472 14.2574 126.352 14.5134 125.321 14.9929L123.926 12.4764C124.902 11.9269 126.825 11.2315 129.383 11.2315C134.064 11.2315 135.574 14.0106 135.574 17.3392V17.327ZM131.306 19.5154C128.902 19.5154 126.953 19.6807 126.943 21.4605C126.943 22.596 127.974 22.9023 128.95 22.9023C129.449 22.9061 129.936 22.7517 130.343 22.4607C130.75 22.1698 131.057 21.757 131.22 21.2806C131.279 21.0346 131.308 20.7823 131.306 20.5293V19.5154ZM105.102 18.358C105.102 23.4494 101.938 25.9926 98.7742 25.9926C97.1638 25.9926 95.611 25.3848 94.6222 23.7096H94.5814L94.4134 25.6742H90.879V5.6538H95.1686V13.2228H95.2238C96.043 12.0071 97.483 11.229 99.4046 11.229C102.71 11.229 105.138 14.0325 105.112 18.3702L105.102 18.358ZM100.721 18.533C100.721 16.3448 99.7598 14.599 97.7574 14.599C96.599 14.599 95.5262 15.4962 95.243 16.7678C95.1862 17.0338 95.1574 17.3054 95.159 17.5775V19.6612C95.1566 19.9238 95.1846 20.1858 95.243 20.4418C95.3671 21.0252 95.6839 21.5487 96.1406 21.9268C96.5975 22.3048 97.167 22.515 97.7574 22.523C99.6038 22.5352 100.731 21.0885 100.731 18.5452L100.721 18.533ZM65.622 17.3174V25.6838H61.8861L61.6288 24.2663H61.5423C60.6215 25.3946 59.1862 26.0024 57.5202 26.0024C54.6738 26.017 52.991 23.9406 52.991 21.6818C52.991 18.0054 56.6908 16.9259 61.2346 16.9259V16.0651C61.2346 15.3138 60.833 14.2416 58.6791 14.2416C57.5445 14.2572 56.4258 14.5131 55.3951 14.9929L53.9983 12.4764C54.9767 11.9269 56.9 11.2315 59.4579 11.2315C64.1291 11.2315 65.6389 14.0106 65.6389 17.3392L65.622 17.3174ZM61.3547 19.5056C58.9507 19.5056 57.001 19.671 56.9914 21.4508C56.9914 22.5862 58.0227 22.8926 58.9987 22.8926C59.4974 22.8967 59.9846 22.7425 60.3918 22.4514C60.799 22.1605 61.1055 21.7475 61.2683 21.2709C61.3271 21.0249 61.3562 20.7726 61.3547 20.5195V19.5056Z" fill="black"/>
</g>
</svg>
