<svg width="137" height="32" viewBox="0 0 137 32" fill="none" xmlns="http://www.w3.org/2000/svg">
<g opacity="0.5">
<path d="M43.7379 22.0002H51.4093V25.7058H39.36V6.196H43.7379V22.0002ZM1.27197 1.36719H30.5875V30.6367H1.27197V1.36719ZM3.86359 28.057H27.9887V3.9445H3.86359V28.057ZM9.01554 6.23491L14.1147 15.275L8.44098 25.7446H12.0952L15.8768 18.5987L19.9037 25.7446H23.6252L12.7371 6.23248L9.01554 6.23491ZM83.9585 11.2339C83.0249 11.2123 82.1033 11.453 81.2969 11.9293C80.5897 12.369 79.9764 12.9478 79.4939 13.6313H79.4362C78.8351 12.1554 77.4047 11.229 75.6017 11.229C73.1975 11.229 71.9667 12.559 71.3656 13.4586H71.2791L71.0795 11.5476H67.5311V25.7009H71.7671V17.4559C71.7533 17.0819 71.8112 16.7086 71.9379 16.357C72.1951 15.6275 72.8538 14.7643 73.9693 14.7643C75.3444 14.7643 75.9743 15.9801 75.9743 17.7745V25.7058H80.2105V17.4389C80.2081 17.0554 80.2657 16.6738 80.3809 16.3083C80.5105 15.8709 80.7745 15.4866 81.1345 15.2108C81.4945 14.935 81.9321 14.7821 82.3833 14.7741C83.7873 14.7741 84.4465 15.9606 84.4465 18.0176V25.7155H88.6801V17.3708C88.6801 13.145 86.6481 11.2339 83.9585 11.2339ZM116.803 5.64164H121.154V25.6936H117.404L117.204 23.6098H117.146C116.259 25.2025 114.57 26.0122 112.766 26.0122C109.446 26.0122 106.785 23.1479 106.785 18.747C106.756 13.9717 109.703 11.2218 113.053 11.2218C114.771 11.2218 116.115 11.8296 116.745 12.8143H116.803V5.64164ZM116.803 17.5313C116.798 17.2702 116.778 17.0097 116.745 16.7508C116.488 15.5643 115.543 14.5795 114.199 14.5795C112.223 14.5795 111.194 16.3739 111.194 18.6036C111.194 21.0058 112.367 22.5109 114.17 22.5109C114.769 22.5177 115.35 22.3108 115.814 21.9265C116.276 21.5422 116.59 21.0053 116.699 20.4101C116.784 20.0791 116.822 19.7379 116.815 19.3962L116.803 17.5313ZM135.574 17.327V25.6936H131.824L131.566 24.2761H131.48C130.562 25.4042 129.124 26.0122 127.458 26.0122C124.614 26.0122 122.919 23.9284 122.919 21.6696C122.919 17.9933 126.618 16.9138 131.162 16.9138V16.0651C131.162 15.3138 130.761 14.2416 128.607 14.2416C127.472 14.2574 126.352 14.5134 125.321 14.9929L123.926 12.4764C124.902 11.9269 126.826 11.2315 129.383 11.2315C134.064 11.2315 135.574 14.0106 135.574 17.3392V17.327ZM131.306 19.5154C128.902 19.5154 126.953 19.6807 126.943 21.4605C126.943 22.596 127.974 22.9023 128.95 22.9023C129.45 22.9061 129.936 22.7517 130.343 22.4607C130.75 22.1698 131.058 21.757 131.22 21.2806C131.279 21.0346 131.308 20.7823 131.306 20.5293V19.5154ZM105.102 18.358C105.102 23.4494 101.938 25.9926 98.7745 25.9926C97.1641 25.9926 95.6113 25.3848 94.6225 23.7096H94.5817L94.4137 25.6742H90.8793V5.6538H95.1689V13.2228H95.2241C96.0433 12.0071 97.4833 11.229 99.4049 11.229C102.71 11.229 105.138 14.0325 105.112 18.3702L105.102 18.358ZM100.722 18.533C100.722 16.3448 99.7601 14.599 97.7577 14.599C96.5993 14.599 95.5265 15.4962 95.2433 16.7678C95.1865 17.0338 95.1577 17.3054 95.1593 17.5775V19.6612C95.1569 19.9238 95.1849 20.1858 95.2433 20.4418C95.3673 21.0252 95.6841 21.5487 96.1409 21.9268C96.5977 22.3048 97.1673 22.515 97.7577 22.523C99.6041 22.5352 100.731 21.0885 100.731 18.5452L100.722 18.533ZM65.6223 17.3174V25.6838H61.8863L61.6291 24.2663H61.5426C60.6218 25.3946 59.1865 26.0024 57.5205 26.0024C54.674 26.017 52.9912 23.9406 52.9912 21.6818C52.9912 18.0054 56.6911 16.9259 61.2348 16.9259V16.0651C61.2348 15.3138 60.8333 14.2416 58.6793 14.2416C57.5447 14.2572 56.426 14.5131 55.3953 14.9929L53.9985 12.4764C54.977 11.9269 56.9003 11.2315 59.4582 11.2315C64.1294 11.2315 65.6391 14.0106 65.6391 17.3392L65.6223 17.3174ZM61.355 19.5056C58.9509 19.5056 57.0012 19.671 56.9916 21.4508C56.9916 22.5862 58.023 22.8926 58.999 22.8926C59.4976 22.8967 59.9848 22.7425 60.3921 22.4514C60.7992 22.1605 61.1058 21.7475 61.2685 21.2709C61.3274 21.0249 61.3564 20.7726 61.355 20.5195V19.5056Z" fill="white"/>
</g>
</svg>
