<svg width="152" height="65" viewBox="0 0 152 65" fill="none" xmlns="http://www.w3.org/2000/svg">
<g opacity="0.5">
<path d="M8.59814 7.59802V57.002H143.402V7.59802H8.59814ZM142.204 55.8078H9.79572V8.79213H142.204V55.8078ZM67.8795 52.156H67.2808V12.444H67.8795V52.156ZM78.3782 29.6572H77.1492V22.2006H78.3782V29.6572ZM83.762 26.4509C83.762 26.0035 83.6663 25.6607 83.4738 25.4226C83.2814 25.185 82.9892 25.0659 82.5979 25.0659H82.5231C82.2947 25.0659 82.0779 25.1226 81.8709 25.2365C81.6646 25.3503 81.497 25.5237 81.3689 25.7584C81.2408 25.9925 81.177 26.2908 81.177 26.6532V29.6572H80.0014V24.2029H81.0379V25.0232C81.2089 24.7249 81.4419 24.4891 81.7376 24.3151C82.0333 24.1411 82.384 24.0538 82.7898 24.0538H82.897C83.5167 24.0538 84.0112 24.2457 84.3816 24.6289C84.7521 25.0128 84.9376 25.5665 84.9376 26.2908V29.6572H83.762V26.4509ZM86.7161 29.0977C86.2501 28.633 86.0164 27.9671 86.0164 27.1006V26.7492C86.0164 26.181 86.1248 25.6966 86.3422 25.2948C86.5596 24.8937 86.864 24.5867 87.2559 24.3735C87.6477 24.1607 88.0999 24.0538 88.613 24.0538H88.7196C89.2251 24.0538 89.6541 24.1746 90.0072 24.4162C90.3596 24.6578 90.6141 24.9775 90.7706 25.3746L89.8309 25.7902C89.7237 25.5706 89.5793 25.3942 89.3979 25.263C89.2164 25.1318 88.9903 25.0659 88.7196 25.0659H88.6234C88.2031 25.0659 87.8593 25.2047 87.5927 25.4815C87.3254 25.7584 87.1921 26.174 87.1921 26.7278V27.122C87.1921 27.6971 87.322 28.1197 87.5817 28.3896C87.842 28.6595 88.1886 28.7942 88.6234 28.7942H88.7196C89.0043 28.7942 89.2431 28.7324 89.4356 28.6081C89.6275 28.4838 89.777 28.315 89.8843 28.1018L90.8031 28.5815C90.646 28.9364 90.3863 29.2277 90.0228 29.4549C89.6599 29.6821 89.2251 29.796 88.7196 29.796H88.613C87.8147 29.796 87.1828 29.563 86.7161 29.0977ZM94.0935 29.796H94.2535C94.7596 29.796 95.1973 29.7017 95.5677 29.5133C95.9382 29.3254 96.2193 29.0676 96.4118 28.741L95.5573 28.1873C95.4292 28.4075 95.2599 28.5723 95.0495 28.6827C94.8396 28.7925 94.5741 28.8474 94.2535 28.8474H94.0935C93.6732 28.8474 93.344 28.7162 93.1051 28.4538C92.8669 28.1908 92.737 27.7931 92.7156 27.2601H96.5932V26.6104C96.5932 25.8295 96.3782 25.2081 95.9469 24.7463C95.5161 24.285 94.9306 24.0538 94.1898 24.0538H94.0935C93.3173 24.0538 92.7011 24.2937 92.2454 24.7729C91.7892 25.2526 91.5614 25.9145 91.5614 26.7596V27.111C91.5614 27.9705 91.784 28.633 92.2292 29.0977C92.6744 29.563 93.2959 29.796 94.0935 29.796ZM93.148 25.3746C93.3869 25.1336 93.7016 25.0127 94.0935 25.0127H94.1787C94.5776 25.0127 94.8895 25.1284 95.1138 25.359C95.3382 25.5896 95.4506 25.9255 95.4506 26.3654V26.4399H92.726C92.7689 25.9711 92.9092 25.6162 93.148 25.3746ZM100.6 29.796C101.048 29.796 101.447 29.6925 101.796 29.4867C102.145 29.2809 102.421 28.9775 102.624 28.5757C102.827 28.1746 102.928 27.6867 102.928 27.111V26.7596C102.928 26.1775 102.827 25.6856 102.624 25.2844C102.421 24.8833 102.145 24.5775 101.796 24.3683C101.447 24.159 101.048 24.0538 100.6 24.0538H100.535C100.115 24.0538 99.7538 24.1376 99.4512 24.3041C99.148 24.4711 98.9115 24.7035 98.7405 25.0018V24.2029H97.704V31.7879H98.8796V29.0179C99.0576 29.2665 99.2872 29.4584 99.5683 29.5931C99.8495 29.7283 100.172 29.796 100.535 29.796L100.6 29.796ZM100.247 28.7942C100.012 28.7942 99.7874 28.7358 99.5735 28.6185C99.3602 28.5012 99.1874 28.3168 99.0558 28.0648C98.9237 27.8127 98.8582 27.4879 98.8582 27.0902V26.7596C98.8582 26.3549 98.9237 26.0284 99.0558 25.7798C99.1874 25.5312 99.3585 25.3503 99.5683 25.2365C99.7782 25.1226 100.005 25.0659 100.247 25.0659H100.332C100.738 25.0659 101.077 25.2012 101.347 25.4706C101.618 25.7405 101.753 26.1671 101.753 26.7492V27.111C101.753 27.6937 101.618 28.1197 101.347 28.3896C101.077 28.6595 100.738 28.7942 100.332 28.7942H100.247ZM104.445 25.1723H103.291V24.2029H104.445V22.5943H105.62V24.2029H107.405L107.266 25.1723H105.62V27.8677C105.62 28.1728 105.692 28.3913 105.834 28.5226C105.976 28.6543 106.19 28.7197 106.475 28.7197H107.405V29.7104H106.358C105.667 29.7104 105.175 29.5561 104.883 29.2468C104.591 28.9382 104.445 28.496 104.445 27.9208V25.1723ZM108.441 22.0087H109.659V23.2336H108.441V22.0087ZM108.462 24.2029H109.638V29.6572H108.462V24.2029ZM112.047 29.4815C112.435 29.6908 112.874 29.796 113.366 29.796H113.462C113.954 29.796 114.395 29.6908 114.787 29.4815C115.179 29.2723 115.487 28.9648 115.711 28.5601C115.935 28.1549 116.048 27.6688 116.048 27.1006V26.7492C116.048 26.181 115.935 25.6966 115.711 25.2948C115.487 24.8937 115.179 24.5867 114.787 24.3735C114.395 24.1607 113.954 24.0538 113.462 24.0538H113.366C112.874 24.0538 112.435 24.1607 112.047 24.3735C111.658 24.5867 111.35 24.8937 111.122 25.2948C110.895 25.6966 110.78 26.1844 110.78 26.7596V27.1006C110.78 27.6688 110.895 28.1549 111.122 28.5601C111.35 28.9648 111.658 29.2723 112.047 29.4815ZM111.956 26.7278C111.956 26.1671 112.091 25.7498 112.362 25.4763C112.633 25.2029 112.967 25.0659 113.366 25.0659H113.452C113.858 25.0659 114.196 25.2029 114.466 25.4763C114.737 25.7498 114.873 26.1671 114.873 26.7278V27.122C114.873 27.6833 114.737 28.1018 114.466 28.3786C114.196 28.6561 113.858 28.7942 113.452 28.7942H113.366C112.967 28.7942 112.633 28.6561 112.362 28.3786C112.091 28.1018 111.956 27.6833 111.956 27.122V26.7278ZM122.138 26.2908V29.6572H120.962V26.4509C120.962 26.0035 120.866 25.6607 120.674 25.4226C120.481 25.185 120.189 25.0659 119.798 25.0659H119.723C119.495 25.0659 119.278 25.1226 119.071 25.2365C118.865 25.3503 118.697 25.5237 118.569 25.7584C118.441 25.9925 118.377 26.2908 118.377 26.6532V29.6572H117.201V24.2029H118.238V25.0232C118.409 24.7249 118.642 24.4891 118.938 24.3151C119.233 24.1411 119.584 24.0538 119.99 24.0538H120.097C120.717 24.0538 121.211 24.2457 121.582 24.629C121.952 25.0128 122.138 25.5665 122.138 26.2908ZM81.893 33.467C81.4014 33.059 80.7318 32.8549 79.8843 32.8549H77.1492V40.3115H78.3782V37.6907H79.8843C80.7318 37.6907 81.4014 37.4901 81.893 37.089C82.3846 36.6878 82.6298 36.1179 82.6298 35.3792V35.1555C82.6298 34.4381 82.3846 33.8757 81.893 33.467ZM81.4014 35.4115C81.4014 35.8375 81.2605 36.1503 80.9793 36.3485C80.6982 36.5474 80.3225 36.6468 79.8524 36.6468H78.3782V33.9092H79.8524C80.3225 33.9092 80.6982 34.0087 80.9793 34.2075C81.2605 34.4063 81.4014 34.7156 81.4014 35.1341V35.4115ZM86.2408 34.7936H86.7967V35.8797H86.2518C85.995 35.8797 85.755 35.937 85.5306 36.0503C85.3063 36.1641 85.1243 36.3433 84.9857 36.5884C84.8466 36.8335 84.7776 37.1583 84.7776 37.563V40.3115H83.602V34.8572H84.6385V35.8907C84.7735 35.5572 84.9643 35.2907 85.2101 35.0919C85.4559 34.893 85.799 34.7936 86.2408 34.7936ZM91.2518 35.0277C90.8599 34.815 90.4187 34.7081 89.9272 34.7081H89.8309C89.3393 34.7081 88.8999 34.815 88.5115 35.0277C88.1231 35.241 87.8153 35.5479 87.5875 35.9491C87.3596 36.3508 87.2454 36.8387 87.2454 37.4138V37.7549C87.2454 38.3231 87.3596 38.8092 87.5875 39.2144C87.8153 39.619 88.1231 39.9265 88.5115 40.1358C88.8999 40.345 89.3393 40.4502 89.8309 40.4502H89.9272C90.4187 40.4502 90.8599 40.345 91.2518 40.1358C91.6437 39.9265 91.9515 39.619 92.1759 39.2144C92.4002 38.8092 92.5127 38.3231 92.5127 37.7549V37.4034C92.5127 36.8352 92.4002 36.3508 92.1759 35.9491C91.9515 35.5479 91.6437 35.241 91.2518 35.0277ZM91.3376 37.7763C91.3376 38.3375 91.2019 38.756 90.9312 39.0329C90.6605 39.3103 90.3225 39.4485 89.9167 39.4485H89.8309C89.4321 39.4485 89.0976 39.3103 88.8269 39.0329C88.5562 38.756 88.4211 38.3375 88.4211 37.7763V37.382C88.4211 36.8213 88.5562 36.404 88.8269 36.1306C89.0976 35.8572 89.4321 35.7202 89.8309 35.7202H89.9167C90.3225 35.7202 90.6605 35.8572 90.9312 36.1306C91.2019 36.404 91.3376 36.8213 91.3376 37.382V37.7763ZM97.555 35.667C97.1985 35.0277 96.6002 34.7081 95.7596 34.7081H95.6848C95.2222 34.7081 94.8159 34.8185 94.4675 35.0387C94.1179 35.2589 93.8477 35.5676 93.6553 35.9653C93.4628 36.363 93.3666 36.8248 93.3666 37.3502V37.6375C93.3666 38.1635 93.4628 38.6248 93.6553 39.0225C93.8477 39.4202 94.1179 39.7294 94.4675 39.9491C94.8159 40.1693 95.2222 40.2797 95.6848 40.2797H95.7596C96.4866 40.2797 97.035 40.0202 97.4054 39.5017V40.0664C97.4054 41.0959 96.9492 41.6109 96.0379 41.6109H95.8988C95.5498 41.6109 95.2703 41.5595 95.0599 41.4566C94.8501 41.3537 94.6738 41.1849 94.5312 40.9508L93.6872 41.5791C93.8866 41.9126 94.1625 42.1652 94.515 42.3358C94.868 42.5057 95.3144 42.5912 95.8559 42.5912H96.0802C96.8854 42.5912 97.5045 42.3693 97.9393 41.9254C98.3735 41.4814 98.5909 40.8514 98.5909 40.0346V34.8572H97.555L97.555 35.667ZM97.4263 37.6271C97.4263 38.1242 97.2999 38.5236 97.0471 38.8254C96.7944 39.1271 96.4576 39.278 96.0379 39.278H95.9416C95.5069 39.278 95.1648 39.1311 94.9161 38.8364C94.6663 38.5416 94.5422 38.1421 94.5422 37.6375V37.3393C94.5422 36.8352 94.6663 36.4393 94.9161 36.1514C95.1648 35.8641 95.5069 35.7202 95.9416 35.7202H96.0379C96.4576 35.7202 96.7944 35.8676 97.0471 36.1624C97.2999 36.4572 97.4263 36.8566 97.4263 37.3606V37.6271ZM102.672 34.7936H103.228V35.8797H102.683C102.426 35.8797 102.186 35.937 101.962 36.0502C101.738 36.1641 101.556 36.3433 101.417 36.5884C101.278 36.8335 101.209 37.1583 101.209 37.563V40.3115H100.033V34.8572H101.07V35.8907C101.205 35.5572 101.396 35.2907 101.641 35.0919C101.887 34.893 102.23 34.7936 102.672 34.7936ZM106.176 34.7081H106.016C105.482 34.7081 105.028 34.8167 104.654 35.0329C104.28 35.2497 104.011 35.5462 103.847 35.9225L104.756 36.3913C104.884 36.1289 105.049 35.9422 105.252 35.8323C105.455 35.7219 105.71 35.667 106.016 35.667H106.134C106.86 35.667 107.223 36.0716 107.223 36.8815V36.9242L105.289 37.1797C104.748 37.2508 104.337 37.4283 104.056 37.7121C103.774 37.9965 103.634 38.3618 103.634 38.8092C103.634 39.3277 103.794 39.7312 104.114 40.0184C104.435 40.3063 104.887 40.4502 105.471 40.4502H105.546C105.952 40.4502 106.315 40.3629 106.636 40.189C106.956 40.015 107.198 39.7791 107.362 39.4809V40.3115H108.398V36.8601C108.398 36.1572 108.209 35.6225 107.832 35.2566C107.455 34.8913 106.903 34.7081 106.176 34.7081ZM107.223 38.0849C107.223 38.5184 107.099 38.8647 106.849 39.1236C106.6 39.3832 106.265 39.5127 105.845 39.5127H105.738C105.432 39.5127 105.195 39.4433 105.028 39.3046C104.86 39.1664 104.777 38.9762 104.777 38.7346C104.777 38.4936 104.849 38.3161 104.996 38.2023C105.142 38.089 105.4 38.0069 105.77 37.9572L107.223 37.7445V38.0849ZM117.485 35.2832C117.83 35.667 118.003 36.2208 118.003 36.9451V40.3115H116.828V37.1052C116.828 36.6578 116.744 36.315 116.577 36.0768C116.409 35.8393 116.144 35.7202 115.781 35.7202H115.695C115.496 35.7202 115.302 35.7768 115.113 35.8907C114.924 36.0046 114.771 36.178 114.654 36.4127C114.536 36.6468 114.477 36.9451 114.477 37.3075V40.3115H113.302V37.1052C113.302 36.6578 113.218 36.315 113.051 36.0768C112.884 35.8393 112.618 35.7202 112.255 35.7202H112.169C111.97 35.7202 111.776 35.7768 111.587 35.8907C111.398 36.0046 111.245 36.178 111.128 36.4127C111.011 36.6468 110.952 36.9451 110.952 37.3075V40.3115H109.776V34.8572H110.813V35.667C110.976 35.3688 111.196 35.1341 111.47 34.9641C111.744 34.7936 112.066 34.7081 112.437 34.7081H112.533C113.359 34.7081 113.929 35.0456 114.243 35.7202C114.414 35.4081 114.647 35.1607 114.942 34.9797C115.238 34.7988 115.581 34.7081 115.973 34.7081H116.069C116.667 34.7081 117.139 34.9 117.485 35.2832Z" fill="white"/>
<path d="M34.3071 40.3888L34.3079 47.9627H36.453V40.389L34.3071 40.3888ZM17.4316 40.3785V47.9627H19.5959V42.2039L21.2726 42.2045C21.828 42.2045 22.2235 42.3423 22.4912 42.6271C22.8305 42.9876 22.969 43.5688 22.969 44.6324V47.9627L25.0656 47.9623L25.066 43.7725C25.066 40.7818 23.1541 40.3785 21.2838 40.3785H17.4316ZM37.7612 40.3891V47.9627H41.2406C43.0944 47.9627 43.6995 47.6552 44.3539 46.966C44.8164 46.4821 45.1153 45.4199 45.1153 44.2591C45.1153 43.1946 44.8623 42.2448 44.421 41.6534C43.6262 40.5958 42.4812 40.3891 40.7719 40.3891H37.7612ZM39.8891 42.0382H40.8115C42.1496 42.0382 43.015 42.6374 43.015 44.192C43.015 45.747 42.1496 46.3461 40.8115 46.3461H39.8891V42.0382ZM31.2142 40.3891L29.4238 46.3916L27.7083 40.3895L25.3926 40.3891L27.8426 47.9627H30.9344L33.4037 40.3891H31.2142ZM46.1135 47.9627H48.259V40.3895L46.113 40.3891L46.1135 47.9627ZM52.1272 40.3918L49.1317 47.96H51.247L51.7209 46.6224H55.2659L55.7146 47.96H58.0111L54.9928 40.3912L52.1272 40.3918ZM53.5197 41.7726L54.8192 45.3181H52.1792L53.5197 41.7726Z" fill="white"/>
<path d="M31.4711 22.648V20.8284C31.6481 20.8159 31.8271 20.8065 32.0095 20.8007C37.0003 20.6443 40.2747 25.0767 40.2747 25.0767C40.2747 25.0767 36.7382 29.9744 32.9465 29.9744C32.4004 29.9744 31.9116 29.8866 31.4711 29.7391V24.2217C33.414 24.4557 33.8046 25.3115 34.973 27.2529L37.571 25.0688C37.571 25.0688 35.6746 22.5888 32.4777 22.5888C32.1298 22.5888 31.7974 22.6132 31.4711 22.648ZM31.4711 16.6375V19.3553C31.6502 19.3411 31.8295 19.3298 32.0095 19.3233C38.95 19.0902 43.4717 24.9988 43.4717 24.9988C43.4717 24.9988 38.2779 31.2961 32.8672 31.2961C32.3714 31.2961 31.9072 31.2505 31.4711 31.1735V32.8535C31.8441 32.9007 32.2305 32.9286 32.6337 32.9286C37.6691 32.9286 41.3104 30.3648 44.8366 27.33C45.4207 27.7968 47.8143 28.9322 48.3065 29.4299C44.9536 32.2283 37.1406 34.4839 32.7112 34.4839C32.2843 34.4839 31.8738 34.4582 31.4711 34.4196V36.7806H50.6091V16.6375H31.4711ZM31.4711 29.7391V31.1735C26.8139 30.3456 25.5213 25.5185 25.5213 25.5185C25.5213 25.5185 27.7573 23.0483 31.4711 22.648L31.4711 24.2217C31.4682 24.2217 31.4663 24.221 31.4638 24.221C29.5151 23.9876 27.9923 25.8032 27.9923 25.8032C27.9923 25.8032 28.8454 28.8595 31.4711 29.7391ZM23.1995 25.3094C23.1995 25.3094 25.9596 21.2483 31.4711 20.8284L31.4711 19.3553C25.3666 19.8437 20.0803 24.9988 20.0803 24.9988C20.0803 24.9988 23.0742 33.6295 31.4711 34.4196V32.8535C25.3093 32.0804 23.1995 25.3094 23.1995 25.3094Z" fill="white"/>
</g>
</svg>
