<svg width="152" height="65" viewBox="0 0 152 65" fill="none" xmlns="http://www.w3.org/2000/svg"> <path d="M8.59827 7.59802V57.002H143.402V7.59802H8.59827ZM142.204 55.8078H9.79584V8.79213H142.204V55.8078ZM67.8797 52.156H67.2809V12.444H67.8797V52.156ZM78.3783 29.6572H77.1493V22.2006H78.3783V29.6572ZM83.7621 26.4509C83.7621 26.0035 83.6664 25.6607 83.4739 25.4226C83.2815 25.185 82.9893 25.0659 82.598 25.0659H82.5232C82.2948 25.0659 82.078 25.1226 81.8711 25.2365C81.6647 25.3503 81.4971 25.5237 81.369 25.7584C81.2409 25.9925 81.1771 26.2908 81.1771 26.6532V29.6572H80.0015V24.2029H81.038V25.0232C81.209 24.7249 81.4421 24.4891 81.7377 24.3151C82.0334 24.1411 82.3841 24.0538 82.7899 24.0538H82.8971C83.5169 24.0538 84.0113 24.2457 84.3818 24.6289C84.7522 25.0128 84.9377 25.5665 84.9377 26.2908V29.6572H83.7621V26.4509ZM86.7163 29.0977C86.2502 28.633 86.0165 27.9671 86.0165 27.1006V26.7492C86.0165 26.181 86.125 25.6966 86.3424 25.2948C86.5598 24.8937 86.8641 24.5867 87.256 24.3735C87.6479 24.1607 88.1 24.0538 88.6131 24.0538H88.7197C89.2253 24.0538 89.6542 24.1746 90.0073 24.4162C90.3597 24.6578 90.6142 24.9775 90.7708 25.3746L89.8311 25.7902C89.7238 25.5706 89.5795 25.3942 89.398 25.263C89.2166 25.1318 88.9905 25.0659 88.7197 25.0659H88.6235C88.2032 25.0659 87.8595 25.2047 87.5928 25.4815C87.3255 25.7584 87.1922 26.174 87.1922 26.7278V27.122C87.1922 27.6971 87.3221 28.1197 87.5818 28.3896C87.8421 28.6595 88.1887 28.7942 88.6235 28.7942H88.7197C89.0044 28.7942 89.2432 28.7324 89.4357 28.6081C89.6276 28.4838 89.7771 28.315 89.8844 28.1018L90.8032 28.5815C90.6461 28.9364 90.3864 29.2277 90.0229 29.4549C89.66 29.6821 89.2253 29.796 88.7198 29.796H88.6131C87.8148 29.796 87.1829 29.563 86.7163 29.0977ZM94.0937 29.796H94.2537C94.7598 29.796 95.1974 29.7017 95.5679 29.5133C95.9383 29.3254 96.2195 29.0676 96.4119 28.741L95.5574 28.1873C95.4293 28.4075 95.26 28.5723 95.0496 28.6827C94.8397 28.7925 94.5742 28.8474 94.2537 28.8474H94.0937C93.6734 28.8474 93.3441 28.7162 93.1053 28.4538C92.867 28.1908 92.7371 27.7931 92.7157 27.2601H96.5934V26.6104C96.5934 25.8295 96.3783 25.2081 95.947 24.7463C95.5163 24.285 94.9308 24.0538 94.1899 24.0538H94.0937C93.3174 24.0538 92.7012 24.2937 92.2455 24.7729C91.7893 25.2526 91.5615 25.9145 91.5615 26.7596V27.111C91.5615 27.9705 91.7841 28.633 92.2293 29.0977C92.6745 29.563 93.296 29.796 94.0937 29.796ZM93.1481 25.3746C93.387 25.1336 93.7018 25.0127 94.0937 25.0127H94.1789C94.5777 25.0127 94.8896 25.1284 95.114 25.359C95.3383 25.5896 95.4508 25.9255 95.4508 26.3654V26.4399H92.7261C92.769 25.9711 92.9093 25.6162 93.1481 25.3746ZM100.6 29.796C101.048 29.796 101.447 29.6925 101.796 29.4867C102.145 29.2809 102.421 28.9775 102.624 28.5757C102.827 28.1746 102.928 27.6867 102.928 27.111V26.7596C102.928 26.1775 102.827 25.6856 102.624 25.2844C102.421 24.8833 102.145 24.5775 101.796 24.3683C101.447 24.159 101.048 24.0538 100.6 24.0538H100.535C100.115 24.0538 99.7539 24.1376 99.4513 24.3041C99.1481 24.4711 98.9116 24.7035 98.7406 25.0018V24.2029H97.7041V31.7879H98.8797V29.0179C99.0577 29.2665 99.2873 29.4584 99.5684 29.5931C99.8496 29.7283 100.172 29.796 100.535 29.796L100.6 29.796ZM100.247 28.7942C100.012 28.7942 99.7876 28.7358 99.5736 28.6185C99.3603 28.5012 99.1876 28.3168 99.056 28.0648C98.9238 27.8127 98.8583 27.4879 98.8583 27.0902V26.7596C98.8583 26.3549 98.9238 26.0284 99.056 25.7798C99.1876 25.5312 99.3586 25.3503 99.5684 25.2365C99.7783 25.1226 100.005 25.0659 100.247 25.0659H100.332C100.738 25.0659 101.077 25.2012 101.348 25.4706C101.618 25.7405 101.753 26.1671 101.753 26.7492V27.111C101.753 27.6937 101.618 28.1197 101.348 28.3896C101.077 28.6595 100.738 28.7942 100.332 28.7942H100.247ZM104.446 25.1723H103.291V24.2029H104.446V22.5943H105.621V24.2029H107.405L107.266 25.1723H105.621V27.8677C105.621 28.1728 105.692 28.3913 105.835 28.5226C105.977 28.6543 106.19 28.7197 106.475 28.7197H107.405V29.7104H106.358C105.667 29.7104 105.175 29.5561 104.883 29.2468C104.591 28.9382 104.446 28.496 104.446 27.9208V25.1723ZM108.441 22.0087H109.659V23.2336H108.441V22.0087ZM108.462 24.2029H109.638V29.6572H108.462V24.2029ZM112.047 29.4815C112.435 29.6908 112.875 29.796 113.366 29.796H113.462C113.954 29.796 114.395 29.6908 114.787 29.4815C115.179 29.2723 115.487 28.9648 115.711 28.5601C115.935 28.1549 116.048 27.6688 116.048 27.1006V26.7492C116.048 26.181 115.935 25.6966 115.711 25.2948C115.487 24.8937 115.179 24.5867 114.787 24.3735C114.395 24.1607 113.954 24.0538 113.462 24.0538H113.366C112.875 24.0538 112.435 24.1607 112.047 24.3735C111.658 24.5867 111.35 24.8937 111.123 25.2948C110.895 25.6966 110.781 26.1844 110.781 26.7596V27.1006C110.781 27.6688 110.895 28.1549 111.123 28.5601C111.35 28.9648 111.658 29.2723 112.047 29.4815ZM111.956 26.7278C111.956 26.1671 112.091 25.7498 112.362 25.4763C112.633 25.2029 112.967 25.0659 113.366 25.0659H113.452C113.858 25.0659 114.196 25.2029 114.466 25.4763C114.737 25.7498 114.873 26.1671 114.873 26.7278V27.122C114.873 27.6833 114.737 28.1018 114.466 28.3786C114.196 28.6561 113.858 28.7942 113.452 28.7942H113.366C112.967 28.7942 112.633 28.6561 112.362 28.3786C112.091 28.1018 111.956 27.6833 111.956 27.122V26.7278ZM122.138 26.2908V29.6572H120.962V26.4509C120.962 26.0035 120.866 25.6607 120.674 25.4226C120.481 25.185 120.189 25.0659 119.798 25.0659H119.723C119.495 25.0659 119.278 25.1226 119.071 25.2365C118.865 25.3503 118.697 25.5237 118.569 25.7584C118.441 25.9925 118.377 26.2908 118.377 26.6532V29.6572H117.201V24.2029H118.238V25.0232C118.409 24.7249 118.642 24.4891 118.938 24.3151C119.233 24.1411 119.584 24.0538 119.99 24.0538H120.097C120.717 24.0538 121.211 24.2457 121.582 24.629C121.952 25.0128 122.138 25.5665 122.138 26.2908ZM81.8931 33.467C81.4015 33.059 80.7319 32.8549 79.8844 32.8549H77.1493V40.3115H78.3783V37.6907H79.8844C80.7319 37.6907 81.4015 37.4901 81.8931 37.089C82.3847 36.6878 82.6299 36.1179 82.6299 35.3792V35.1555C82.6299 34.4381 82.3847 33.8757 81.8931 33.467ZM81.4015 35.4115C81.4015 35.8375 81.2606 36.1503 80.9795 36.3485C80.6983 36.5474 80.3227 36.6468 79.8525 36.6468H78.3783V33.9092H79.8525C80.3227 33.9092 80.6983 34.0087 80.9795 34.2075C81.2606 34.4063 81.4015 34.7156 81.4015 35.1341V35.4115ZM86.2409 34.7936H86.7969V35.8797H86.2519C85.9951 35.8797 85.7551 35.937 85.5308 36.0503C85.3064 36.1641 85.1244 36.3433 84.9858 36.5884C84.8467 36.8335 84.7777 37.1583 84.7777 37.563V40.3115H83.6021V34.8572H84.6386V35.8907C84.7737 35.5572 84.9644 35.2907 85.2102 35.0919C85.456 34.893 85.7992 34.7936 86.2409 34.7936ZM91.2519 35.0277C90.86 34.815 90.4189 34.7081 89.9273 34.7081H89.8311C89.3395 34.7081 88.9 34.815 88.5116 35.0277C88.1232 35.241 87.8154 35.5479 87.5876 35.9491C87.3597 36.3508 87.2455 36.8387 87.2455 37.4138V37.7549C87.2455 38.3231 87.3597 38.8092 87.5876 39.2144C87.8154 39.619 88.1232 39.9265 88.5116 40.1358C88.9 40.345 89.3395 40.4502 89.8311 40.4502H89.9273C90.4189 40.4502 90.86 40.345 91.2519 40.1358C91.6438 39.9265 91.9516 39.619 92.176 39.2144C92.4003 38.8092 92.5128 38.3231 92.5128 37.7549V37.4034C92.5128 36.8352 92.4003 36.3508 92.176 35.9491C91.9516 35.5479 91.6438 35.241 91.2519 35.0277ZM91.3377 37.7763C91.3377 38.3375 91.2021 38.756 90.9313 39.0329C90.6606 39.3103 90.3227 39.4485 89.9168 39.4485H89.8311C89.4322 39.4485 89.0977 39.3103 88.827 39.0329C88.5563 38.756 88.4212 38.3375 88.4212 37.7763V37.382C88.4212 36.8213 88.5563 36.404 88.827 36.1306C89.0977 35.8572 89.4322 35.7202 89.8311 35.7202H89.9168C90.3226 35.7202 90.6606 35.8572 90.9313 36.1306C91.2021 36.404 91.3377 36.8213 91.3377 37.382V37.7763ZM97.5551 35.667C97.1986 35.0277 96.6003 34.7081 95.7597 34.7081H95.685C95.2224 34.7081 94.816 34.8185 94.4676 35.0387C94.118 35.2589 93.8479 35.5676 93.6554 35.9653C93.4629 36.363 93.3667 36.8248 93.3667 37.3502V37.6375C93.3667 38.1635 93.4629 38.6248 93.6554 39.0225C93.8479 39.4202 94.118 39.7294 94.4676 39.9491C94.816 40.1693 95.2224 40.2797 95.685 40.2797H95.7597C96.4867 40.2797 97.0351 40.0202 97.4055 39.5017V40.0664C97.4055 41.0959 96.9493 41.6109 96.038 41.6109H95.8989C95.5499 41.6109 95.2705 41.5595 95.06 41.4566C94.8502 41.3537 94.674 41.1849 94.5313 40.9508L93.6873 41.5791C93.8867 41.9126 94.1626 42.1652 94.5151 42.3358C94.8681 42.5057 95.3145 42.5912 95.856 42.5912H96.0803C96.8856 42.5912 97.5047 42.3693 97.9395 41.9254C98.3737 41.4814 98.5911 40.8514 98.5911 40.0346V34.8572H97.5551L97.5551 35.667ZM97.4264 37.6271C97.4264 38.1242 97.3 38.5236 97.0473 38.8254C96.7945 39.1271 96.4577 39.278 96.038 39.278H95.9418C95.507 39.278 95.165 39.1311 94.9163 38.8364C94.6664 38.5416 94.5424 38.1421 94.5424 37.6375V37.3393C94.5424 36.8352 94.6664 36.4393 94.9163 36.1514C95.165 35.8641 95.507 35.7202 95.9418 35.7202H96.038C96.4577 35.7202 96.7945 35.8676 97.0473 36.1624C97.3 36.4572 97.4264 36.8566 97.4264 37.3606V37.6271ZM102.672 34.7936H103.228V35.8797H102.683C102.426 35.8797 102.186 35.937 101.962 36.0502C101.738 36.1641 101.556 36.3433 101.417 36.5884C101.278 36.8335 101.209 37.1583 101.209 37.563V40.3115H100.033V34.8572H101.07V35.8907C101.205 35.5572 101.396 35.2907 101.641 35.0919C101.887 34.893 102.23 34.7936 102.672 34.7936ZM106.177 34.7081H106.016C105.482 34.7081 105.028 34.8167 104.654 35.0329C104.28 35.2497 104.011 35.5462 103.847 35.9225L104.756 36.3913C104.884 36.1289 105.049 35.9422 105.252 35.8323C105.455 35.7219 105.71 35.667 106.016 35.667H106.134C106.86 35.667 107.223 36.0716 107.223 36.8815V36.9242L105.29 37.1797C104.748 37.2508 104.337 37.4283 104.056 37.7121C103.774 37.9965 103.634 38.3618 103.634 38.8092C103.634 39.3277 103.794 39.7312 104.115 40.0184C104.435 40.3063 104.887 40.4502 105.471 40.4502H105.546C105.952 40.4502 106.315 40.3629 106.636 40.189C106.956 40.015 107.199 39.7791 107.362 39.4809V40.3115H108.399V36.8601C108.399 36.1572 108.21 35.6225 107.832 35.2566C107.455 34.8913 106.903 34.7081 106.177 34.7081ZM107.224 38.0849C107.224 38.5184 107.099 38.8647 106.85 39.1236C106.6 39.3832 106.265 39.5127 105.845 39.5127H105.738C105.432 39.5127 105.195 39.4433 105.028 39.3046C104.861 39.1664 104.777 38.9762 104.777 38.7346C104.777 38.4936 104.85 38.3161 104.996 38.2023C105.142 38.089 105.4 38.0069 105.77 37.9572L107.224 37.7445V38.0849ZM117.485 35.2832C117.83 35.667 118.003 36.2208 118.003 36.9451V40.3115H116.828V37.1052C116.828 36.6578 116.744 36.315 116.577 36.0768C116.41 35.8393 116.144 35.7202 115.781 35.7202H115.695C115.496 35.7202 115.302 35.7768 115.113 35.8907C114.924 36.0046 114.771 36.178 114.654 36.4127C114.537 36.6468 114.477 36.9451 114.477 37.3075V40.3115H113.302V37.1052C113.302 36.6578 113.218 36.315 113.051 36.0768C112.884 35.8393 112.618 35.7202 112.255 35.7202H112.17C111.97 35.7202 111.776 35.7768 111.588 35.8907C111.399 36.0046 111.246 36.178 111.128 36.4127C111.011 36.6468 110.952 36.9451 110.952 37.3075V40.3115H109.777V34.8572H110.813V35.667C110.977 35.3688 111.196 35.1341 111.47 34.9641C111.744 34.7936 112.066 34.7081 112.437 34.7081H112.533C113.359 34.7081 113.929 35.0456 114.243 35.7202C114.414 35.4081 114.647 35.1607 114.942 34.9797C115.238 34.7988 115.581 34.7081 115.973 34.7081H116.069C116.668 34.7081 117.139 34.9 117.485 35.2832Z" fill="black"/> <path d="M34.3073 40.3888L34.308 47.9627H36.4532V40.389L34.3073 40.3888ZM17.4318 40.3785V47.9627H19.5961V42.2039L21.2727 42.2045C21.8281 42.2045 22.2237 42.3423 22.4913 42.6271C22.8306 42.9876 22.9691 43.5688 22.9691 44.6324V47.9627L25.0657 47.9623L25.0661 43.7725C25.0661 40.7818 23.1542 40.3785 21.2839 40.3785H17.4318ZM37.7613 40.3891V47.9627H41.2407C43.0946 47.9627 43.6996 47.6552 44.354 46.966C44.8166 46.4821 45.1154 45.4199 45.1154 44.2591C45.1154 43.1946 44.8624 42.2448 44.4211 41.6534C43.6264 40.5958 42.4814 40.3891 40.772 40.3891H37.7613ZM39.8893 42.0382H40.8116C42.1497 42.0382 43.0151 42.6374 43.0151 44.192C43.0151 45.747 42.1497 46.3461 40.8116 46.3461H39.8893V42.0382ZM31.2143 40.3891L29.4239 46.3916L27.7084 40.3895L25.3927 40.3891L27.8427 47.9627H30.9346L33.4038 40.3891H31.2143ZM46.1136 47.9627H48.2592V40.3895L46.1131 40.3891L46.1136 47.9627ZM52.1273 40.3918L49.1318 47.96H51.2471L51.721 46.6224H55.266L55.7147 47.96H58.0113L54.9929 40.3912L52.1273 40.3918ZM53.5198 41.7726L54.8193 45.3181H52.1793L53.5198 41.7726Z" fill="black"/> <path d="M31.4712 22.648V20.8284C31.6482 20.8159 31.8272 20.8065 32.0096 20.8007C37.0004 20.6443 40.2748 25.0767 40.2748 25.0767C40.2748 25.0767 36.7383 29.9744 32.9466 29.9744C32.4005 29.9744 31.9117 29.8866 31.4712 29.7391V24.2217C33.4141 24.4557 33.8047 25.3115 34.9732 27.2529L37.5711 25.0688C37.5711 25.0688 35.6747 22.5888 32.4778 22.5888C32.13 22.5888 31.7975 22.6132 31.4712 22.648ZM31.4712 16.6375V19.3553C31.6503 19.3411 31.8296 19.3298 32.0096 19.3233C38.9501 19.0902 43.4718 24.9988 43.4718 24.9988C43.4718 24.9988 38.278 31.2961 32.8674 31.2961C32.3716 31.2961 31.9073 31.2505 31.4712 31.1735V32.8535C31.8442 32.9007 32.2306 32.9286 32.6338 32.9286C37.6692 32.9286 41.3106 30.3648 44.8367 27.33C45.4208 27.7968 47.8144 28.9322 48.3066 29.4299C44.9537 32.2283 37.1407 34.4839 32.7113 34.4839C32.2844 34.4839 31.8739 34.4582 31.4712 34.4196V36.7806H50.6093V16.6375H31.4712ZM31.4712 29.7391V31.1735C26.814 30.3456 25.5214 25.5185 25.5214 25.5185C25.5214 25.5185 27.7574 23.0483 31.4712 22.648L31.4712 24.2217C31.4683 24.2217 31.4664 24.221 31.4639 24.221C29.5152 23.9876 27.9925 25.8032 27.9925 25.8032C27.9925 25.8032 28.8456 28.8595 31.4712 29.7391ZM23.1996 25.3094C23.1996 25.3094 25.9597 21.2483 31.4712 20.8284L31.4712 19.3553C25.3667 19.8437 20.0804 24.9988 20.0804 24.9988C20.0804 24.9988 23.0743 33.6295 31.4712 34.4196V32.8535C25.3094 32.0804 23.1996 25.3094 23.1996 25.3094Z" fill="#76B900"/> </svg>