<svg width="311" height="298" viewBox="0 0 311 298" fill="none" xmlns="http://www.w3.org/2000/svg">
<g opacity="0.5">
<path d="M254.665 159.205V185.747H252.972V159.205H254.665Z" stroke="white" stroke-width="0.5"/>
<path d="M249.184 159.571V179.901H247.491V159.571H249.184Z" stroke="white" stroke-width="0.5"/>
<path d="M260.146 152.993V164.917H258.454V152.993H260.146Z" stroke="white" stroke-width="0.5"/>
<path d="M189.567 125.536L189.567 131.844C189.567 131.844 189.471 132.453 189.92 132.709L248.933 166.701C249.382 166.958 250.087 166.958 250.535 166.701L309.223 132.856C309.806 132.565 309.806 131.983 309.806 131.983V126.143" stroke="white" stroke-width="0.5"/>
<path d="M249.796 91.5996C250.051 91.5996 250.294 91.6569 250.473 91.7588V91.7578L309.382 125.922L309.383 125.923C309.562 126.025 309.594 126.125 309.594 126.171C309.594 126.217 309.561 126.316 309.383 126.418L250.985 159.981C250.807 160.083 250.564 160.141 250.309 160.141C250.053 160.141 249.81 160.083 249.632 159.981L190.007 125.836H190.006C189.823 125.731 189.782 125.627 189.779 125.576C189.777 125.534 189.799 125.44 189.974 125.34L249.118 91.7588H249.119C249.298 91.6569 249.541 91.5996 249.796 91.5996Z" stroke="white" stroke-width="0.5"/>
<path d="M249.338 111.377C249.428 111.322 249.616 111.312 249.765 111.385L273.625 125.223L249.934 138.925L249.929 138.927C249.838 138.982 249.65 138.993 249.501 138.919L225.638 125.099L249.334 111.38L249.338 111.377Z" stroke="white" stroke-width="0.5"/>
<path d="M249.366 116.572C249.451 116.572 249.519 116.589 249.553 116.605C249.554 116.606 249.571 116.615 249.615 116.639C249.656 116.662 249.716 116.696 249.792 116.738C249.945 116.824 250.165 116.947 250.442 117.102C250.996 117.412 251.779 117.85 252.713 118.374C254.583 119.423 257.062 120.814 259.536 122.202C262.009 123.59 264.478 124.976 266.328 126.015C267.253 126.534 268.023 126.967 268.562 127.27C268.832 127.421 269.044 127.54 269.188 127.621C269.251 127.657 269.302 127.685 269.338 127.706L249.87 138.997C249.84 139.011 249.759 139.03 249.649 139.03C249.542 139.03 249.464 139.012 249.432 138.998L230.01 127.65C230.046 127.63 230.096 127.602 230.159 127.565C230.299 127.485 230.503 127.366 230.764 127.216C231.286 126.915 232.033 126.485 232.929 125.968C234.721 124.934 237.112 123.555 239.508 122.174C241.904 120.792 244.306 119.408 246.118 118.364C247.024 117.843 247.783 117.406 248.32 117.098C248.588 116.943 248.801 116.821 248.95 116.736C249.024 116.694 249.081 116.661 249.122 116.638C249.161 116.615 249.178 116.606 249.179 116.605C249.213 116.589 249.281 116.572 249.366 116.572Z" stroke="white" stroke-width="0.5"/>
<path d="M243.702 174.188V189.797H242.01V174.188H243.702Z" stroke="white" stroke-width="0.5"/>
<path d="M254.691 69.126V123.258H252.999V69.126H254.691Z" stroke="white" stroke-width="0.5"/>
<path d="M260.173 111.699V115.819H258.48V111.699H260.173Z" stroke="white" stroke-width="0.5"/>
<path d="M243.729 47.3823V51.5024H242.036V47.3823H243.729Z" stroke="white" stroke-width="0.5"/>
<path d="M243.729 165.052V169.172H242.036V165.052H243.729Z" stroke="white" stroke-width="0.5"/>
<path d="M260.173 88.311V103.92H258.48V88.311H260.173Z" stroke="white" stroke-width="0.5"/>
<path d="M260.173 170.534V174.654H258.48V170.534H260.173Z" stroke="white" stroke-width="0.5"/>
<path d="M260.173 62V66.1201H258.48V62H260.173Z" stroke="white" stroke-width="0.5"/>
<path d="M260.173 180.035V187.809H258.48V180.035H260.173Z" stroke="white" stroke-width="0.5"/>
<path d="M254.691 57.2495V59.5425H252.999V57.2495H254.691Z" stroke="white" stroke-width="0.5"/>
<path d="M254.691 128.509V132.629H252.999V128.509H254.691Z" stroke="white" stroke-width="0.5"/>
<path d="M249.184 50.3057V93.6572H247.491V50.3057H249.184Z" stroke="white" stroke-width="0.5"/>
<path d="M243.702 110.968V131.298H242.01V110.968H243.702Z" stroke="white" stroke-width="0.5"/>
<path d="M249.184 102.197V114.122H247.491V102.197H249.184Z" stroke="white" stroke-width="0.5"/>
<path d="M260.146 73.3281V82.6943H258.454V73.3281H260.146Z" stroke="white" stroke-width="0.5"/>
<path d="M260.146 121.931V133.048L258.454 134.035V121.931H260.146Z" stroke="white" stroke-width="0.5"/>
<path d="M249.183 125.22V138.837L247.49 137.848V125.22H249.183Z" stroke="white" stroke-width="0.5"/>
<path d="M243.702 61.634V98.0432H242.01V61.634H243.702Z" stroke="white" stroke-width="0.5"/>
</g>
<g opacity="0.5">
<path d="M66.1357 168.631V195.173H64.4434V168.631H66.1357Z" stroke="white" stroke-width="0.5"/>
<path d="M60.6543 168.997V189.327H58.9619V168.997H60.6543Z" stroke="white" stroke-width="0.5"/>
<path d="M71.6172 162.419V174.344H69.9248V162.419H71.6172Z" stroke="white" stroke-width="0.5"/>
<path d="M1.03795 134.963L1.03795 141.271C1.03795 141.271 0.941834 141.88 1.39036 142.136L60.4039 176.128C60.8524 176.384 61.5572 176.384 62.0058 176.128L120.694 142.283C121.276 141.992 121.276 141.409 121.276 141.409V135.57" stroke="white" stroke-width="0.5"/>
<path d="M61.2666 101.026C61.5217 101.026 61.765 101.083 61.9434 101.185V101.184L120.853 135.348L120.854 135.349C121.033 135.452 121.064 135.551 121.064 135.597C121.064 135.644 121.032 135.742 120.854 135.844L62.4561 169.408C62.2777 169.51 62.0345 169.567 61.7793 169.567C61.5241 169.567 61.281 169.51 61.1025 169.408L1.47754 135.262H1.47656C1.29379 135.158 1.25242 135.054 1.25 135.003C1.24804 134.96 1.26953 134.866 1.44434 134.766L60.5889 101.185H60.5898C60.7682 101.083 61.0115 101.026 61.2666 101.026Z" stroke="white" stroke-width="0.5"/>
<path d="M60.8086 120.804C60.899 120.749 61.0869 120.738 61.2354 120.812L85.0957 134.649L61.4043 148.352L61.3994 148.354C61.3087 148.408 61.1204 148.419 60.9717 148.346L37.1084 134.525L60.8047 120.807L60.8086 120.804Z" stroke="white" stroke-width="0.5"/>
<path d="M60.8369 125.999C60.9222 125.999 60.9903 126.015 61.0244 126.032C61.025 126.033 61.0427 126.041 61.0859 126.065C61.1276 126.089 61.1873 126.122 61.2637 126.165C61.4166 126.25 61.6363 126.373 61.9131 126.528C62.467 126.838 63.2499 127.277 64.1846 127.801C66.0546 128.849 68.5334 130.241 71.0068 131.629C73.4802 133.017 75.9487 134.403 77.7988 135.441C78.7237 135.961 79.494 136.394 80.0332 136.696C80.3028 136.848 80.5148 136.967 80.6592 137.048C80.7227 137.084 80.773 137.112 80.8096 137.133L61.3408 148.424C61.3115 148.438 61.2304 148.457 61.1201 148.457C61.0136 148.457 60.9348 148.439 60.9033 148.425L41.4814 137.077C41.5171 137.057 41.5672 137.028 41.6299 136.992C41.7697 136.912 41.9745 136.793 42.2354 136.643C42.7576 136.341 43.5044 135.911 44.4004 135.395C46.1924 134.361 48.5835 132.982 50.9795 131.601C53.3756 130.219 55.7769 128.834 57.5889 127.791C58.4948 127.269 59.2539 126.833 59.791 126.524C60.0595 126.37 60.2726 126.248 60.4209 126.163C60.4949 126.121 60.5524 126.087 60.5928 126.064C60.6323 126.042 60.6488 126.033 60.6504 126.032C60.6845 126.015 60.752 125.999 60.8369 125.999Z" stroke="white" stroke-width="0.5"/>
<path d="M55.1724 183.614V199.223H53.48V183.614H55.1724Z" stroke="white" stroke-width="0.5"/>
<path d="M66.1626 78.552V132.684H64.4702V78.552H66.1626Z" stroke="white" stroke-width="0.5"/>
<path d="M71.6436 121.125V125.245H69.9512V121.125H71.6436Z" stroke="white" stroke-width="0.5"/>
<path d="M55.1992 56.8086V60.9287H53.5068V56.8086H55.1992Z" stroke="white" stroke-width="0.5"/>
<path d="M55.1992 174.478V178.598H53.5068V174.478H55.1992Z" stroke="white" stroke-width="0.5"/>
<path d="M71.644 97.7373V113.347H69.9517V97.7373H71.644Z" stroke="white" stroke-width="0.5"/>
<path d="M71.644 179.96V184.08H69.9517V179.96H71.644Z" stroke="white" stroke-width="0.5"/>
<path d="M71.644 71.4263V75.5464H69.9517V71.4263H71.644Z" stroke="white" stroke-width="0.5"/>
<path d="M71.644 189.461V197.236H69.9517V189.461H71.644Z" stroke="white" stroke-width="0.5"/>
<path d="M66.1621 66.6758V68.9688H64.4697V66.6758H66.1621Z" stroke="white" stroke-width="0.5"/>
<path d="M66.1621 137.935V142.055H64.4697V137.935H66.1621Z" stroke="white" stroke-width="0.5"/>
<path d="M60.6543 59.7324V103.084H58.9619V59.7324H60.6543Z" stroke="white" stroke-width="0.5"/>
<path d="M55.1724 120.395V140.725H53.48V120.395H55.1724Z" stroke="white" stroke-width="0.5"/>
<path d="M60.6543 111.624V123.549H58.9619V111.624H60.6543Z" stroke="white" stroke-width="0.5"/>
<path d="M71.6172 82.7549V92.1211H69.9248V82.7549H71.6172Z" stroke="white" stroke-width="0.5"/>
<path d="M71.6172 131.357V142.474L69.9248 143.461V131.357H71.6172Z" stroke="white" stroke-width="0.5"/>
<path d="M60.6543 134.646V148.263L58.9619 147.274V134.646H60.6543Z" stroke="white" stroke-width="0.5"/>
<path d="M55.1724 71.0608V107.47H53.48V71.0608H55.1724Z" stroke="white" stroke-width="0.5"/>
</g>
<g opacity="0.5">
<path d="M159.846 112.073V138.615H158.153V112.073H159.846Z" stroke="white" stroke-width="0.5"/>
<path d="M154.364 112.438V132.768H152.672V112.438H154.364Z" stroke="white" stroke-width="0.5"/>
<path d="M165.327 105.86V117.785H163.635V105.86H165.327Z" stroke="white" stroke-width="0.5"/>
<path d="M94.7484 78.4041L94.7484 84.7122C94.7484 84.7122 94.6523 85.3209 95.1008 85.5772L154.114 119.569C154.563 119.826 155.268 119.826 155.716 119.569L214.405 85.7241C214.987 85.4329 214.987 84.8506 214.987 84.8506V79.0109" stroke="white" stroke-width="0.5"/>
<path d="M154.977 44.4673C155.232 44.4673 155.475 44.5246 155.653 44.6265V44.6255L214.562 78.7896L214.563 78.7905C214.743 78.8929 214.774 78.9923 214.774 79.0386C214.774 79.085 214.742 79.1836 214.563 79.2856L156.166 112.849C155.988 112.951 155.744 113.008 155.489 113.008C155.234 113.008 154.991 112.951 154.812 112.849L95.1875 78.7036H95.1865C95.0038 78.5991 94.9624 78.4947 94.96 78.4438C94.958 78.4016 94.9795 78.3074 95.1543 78.2075L154.299 44.6265H154.3C154.478 44.5246 154.721 44.4673 154.977 44.4673Z" stroke="white" stroke-width="0.5"/>
<path d="M154.519 64.2449C154.609 64.1902 154.797 64.1797 154.946 64.2527L178.806 78.0906L155.115 91.7927L155.11 91.7947C155.019 91.8496 154.831 91.8606 154.682 91.7869L130.819 77.9666L154.515 64.2478L154.519 64.2449Z" stroke="white" stroke-width="0.5"/>
<path d="M154.547 69.4404C154.632 69.4404 154.7 69.4567 154.734 69.4736C154.735 69.474 154.753 69.4828 154.796 69.5068C154.838 69.5299 154.897 69.5638 154.974 69.6064C155.127 69.6917 155.346 69.8148 155.623 69.9697C156.177 70.2798 156.96 70.718 157.895 71.2422C159.765 72.2908 162.243 73.682 164.717 75.0703C167.19 76.4585 169.659 77.8441 171.509 78.8828C172.434 79.4021 173.204 79.8349 173.743 80.1377C174.013 80.2891 174.225 80.4082 174.369 80.4893C174.433 80.5249 174.483 80.5537 174.52 80.5742L155.051 91.8652C155.021 91.8797 154.94 91.8984 154.83 91.8984C154.724 91.8984 154.645 91.8804 154.613 91.8662L135.191 80.5186C135.227 80.498 135.277 80.4697 135.34 80.4336C135.48 80.3529 135.684 80.2345 135.945 80.084C136.468 79.7827 137.214 79.3527 138.11 78.8359C139.902 77.8024 142.293 76.4234 144.689 75.042C147.086 73.6605 149.487 72.2759 151.299 71.2324C152.205 70.7107 152.964 70.2744 153.501 69.9658C153.769 69.8116 153.983 69.6893 154.131 69.6045C154.205 69.5621 154.262 69.5288 154.303 69.5059C154.342 69.4834 154.359 69.4746 154.36 69.4736C154.394 69.4568 154.462 69.4405 154.547 69.4404Z" stroke="white" stroke-width="0.5"/>
<path d="M148.883 127.055V142.665H147.19V127.055H148.883Z" stroke="white" stroke-width="0.5"/>
<path d="M159.873 21.9932V76.125H158.18V21.9932H159.873Z" stroke="white" stroke-width="0.5"/>
<path d="M165.354 64.5659V68.686H163.662V64.5659H165.354Z" stroke="white" stroke-width="0.5"/>
<path d="M148.91 0.25V4.37012H147.217V0.25H148.91Z" stroke="white" stroke-width="0.5"/>
<path d="M148.909 117.919V122.04H147.217V117.919H148.909Z" stroke="white" stroke-width="0.5"/>
<path d="M165.354 41.1785V56.7878H163.661V41.1785H165.354Z" stroke="white" stroke-width="0.5"/>
<path d="M165.354 123.401V127.521H163.661V123.401H165.354Z" stroke="white" stroke-width="0.5"/>
<path d="M165.354 14.8674V18.9875H163.661V14.8674H165.354Z" stroke="white" stroke-width="0.5"/>
<path d="M165.354 132.902V140.677H163.661V132.902H165.354Z" stroke="white" stroke-width="0.5"/>
<path d="M159.872 10.1167V12.4097H158.18V10.1167H159.872Z" stroke="white" stroke-width="0.5"/>
<path d="M159.872 81.376V85.4961H158.18V81.376H159.872Z" stroke="white" stroke-width="0.5"/>
<path d="M154.364 3.17383V46.5254H152.672V3.17383H154.364Z" stroke="white" stroke-width="0.5"/>
<path d="M148.883 63.8359V84.166H147.19V63.8359H148.883Z" stroke="white" stroke-width="0.5"/>
<path d="M154.364 55.0652V66.99H152.672V55.0652H154.364Z" stroke="white" stroke-width="0.5"/>
<path d="M165.327 26.1958V35.562H163.635V26.1958H165.327Z" stroke="white" stroke-width="0.5"/>
<path d="M165.327 74.7988V85.916L163.635 86.9033V74.7988H165.327Z" stroke="white" stroke-width="0.5"/>
<path d="M154.364 78.0874V91.7046L152.672 90.7153V78.0874H154.364Z" stroke="white" stroke-width="0.5"/>
<path d="M148.883 14.502V50.9111H147.19V14.502H148.883Z" stroke="white" stroke-width="0.5"/>
</g>
<path d="M178.703 251.073V291.606H175.876V251.073H178.703Z" stroke="white" stroke-width="0.5"/>
<path d="M170.386 251.627V282.733H167.559V251.627H170.386Z" stroke="white" stroke-width="0.5"/>
<path d="M187.021 241.646V259.999H184.194V241.646H187.021Z" stroke="white" stroke-width="0.5"/>
<path d="M79.7973 200.114L79.7973 209.686C79.7973 209.686 79.6515 210.609 80.3321 210.998L169.878 262.577C170.558 262.966 171.628 262.966 172.308 262.577L261.361 211.221C262.244 210.779 262.244 209.896 262.244 209.896V201.035" stroke="white" stroke-width="0.5"/>
<path d="M171.186 148.49C171.59 148.49 171.983 148.58 172.277 148.748L261.665 200.588L261.667 200.589C261.961 200.757 262.05 200.943 262.05 201.076C262.05 201.209 261.961 201.396 261.667 201.564H261.666L173.054 252.493C172.76 252.661 172.367 252.752 171.963 252.752C171.61 252.752 171.265 252.683 170.987 252.553L170.873 252.493L80.3979 200.681C80.0992 200.51 79.9953 200.319 79.9888 200.181C79.9835 200.068 80.0411 199.915 80.2505 199.768L80.3491 199.705L170.094 148.749C170.389 148.581 170.782 148.49 171.186 148.49Z" stroke="white" stroke-width="0.5"/>
<path d="M170.425 178.519C170.606 178.409 170.939 178.398 171.197 178.525L207.455 199.555H207.456C207.497 199.58 207.519 199.604 207.528 199.619C207.537 199.632 207.537 199.639 207.537 199.64C207.537 199.642 207.537 199.649 207.528 199.662C207.519 199.676 207.497 199.698 207.456 199.723L171.46 220.542L171.455 220.543C171.273 220.654 170.938 220.665 170.68 220.536L134.366 199.504C134.33 199.482 134.309 199.462 134.298 199.45C134.31 199.437 134.331 199.415 134.369 199.392L170.42 178.521L170.421 178.522L170.425 178.519Z" stroke="white" stroke-width="0.5"/>
<path opacity="0.7" fill-rule="evenodd" clip-rule="evenodd" d="M140.874 203.053C140.874 203.053 169.84 186.343 170.081 186.224C170.323 186.104 170.745 186.104 170.987 186.224C171.229 186.343 201.133 203.136 201.133 203.136C201.375 203.256 201.375 203.496 201.133 203.675L171.468 220.88C171.226 221 170.702 221 170.46 220.88L140.874 203.593C140.632 203.413 140.632 203.173 140.874 203.053Z" fill="url(#paint0_linear_183_1225)"/>
<path d="M162.068 273.807V297.75H159.241V273.807H162.068Z" stroke="white" stroke-width="0.5"/>
<path d="M178.744 114.388V196.786H175.917V114.388H178.744Z" stroke="white" stroke-width="0.5"/>
<path d="M187.062 178.988V185.499H184.234V178.988H187.062Z" stroke="white" stroke-width="0.5"/>
<path d="M162.109 81.396V87.9067H159.282V81.396H162.109Z" stroke="white" stroke-width="0.5"/>
<mask id="path-87-inside-1_183_1225" fill="white">
<path d="M162.358 266.705H159.031V259.695H162.358V266.705Z"/>
</mask>
<path d="M162.358 266.705V267.205H162.858V266.705H162.358ZM159.031 266.705H158.531V267.205H159.031V266.705ZM159.031 259.695V259.195H158.531V259.695H159.031ZM162.358 259.695H162.858V259.195H162.358V259.695ZM162.358 266.705V266.205H159.031V266.705V267.205H162.358V266.705ZM159.031 266.705H159.531V259.695H159.031H158.531V266.705H159.031ZM159.031 259.695V260.195H162.358V259.695V259.195H159.031V259.695ZM162.358 259.695H161.858V266.705H162.358H162.858V259.695H162.358Z" fill="white" mask="url(#path-87-inside-1_183_1225)"/>
<path d="M187.061 143.5V167.443H184.234V143.5H187.061Z" stroke="white" stroke-width="0.5"/>
<path d="M187.061 268.262V274.773H184.234V268.262H187.061Z" stroke="white" stroke-width="0.5"/>
<path d="M187.061 103.576V110.086H184.234V103.576H187.061Z" stroke="white" stroke-width="0.5"/>
<path d="M187.061 282.679V294.735H184.234V282.679H187.061Z" stroke="white" stroke-width="0.5"/>
<path d="M178.744 96.3672V100.105H175.917V96.3672H178.744Z" stroke="white" stroke-width="0.5"/>
<path d="M178.744 204.495V211.005H175.917V204.495H178.744Z" stroke="white" stroke-width="0.5"/>
<path d="M170.386 85.8315V151.872H167.559V85.8315H170.386Z" stroke="white" stroke-width="0.5"/>
<path d="M170.386 164.571V182.923H167.559V164.571H170.386Z" stroke="white" stroke-width="0.5"/>
<path d="M187.021 120.765V135.237H184.194V120.765H187.021Z" stroke="white" stroke-width="0.5"/>
<path d="M187.021 194.513V211.587L184.194 213.235V194.513H187.021Z" stroke="white" stroke-width="0.5"/>
<path d="M170.386 199.504V220.521L167.559 218.869V199.504H170.386Z" stroke="white" stroke-width="0.5"/>
<path d="M162.068 103.021V158.526H159.241V103.021H162.068Z" stroke="white" stroke-width="0.5"/>
<path opacity="0.7" d="M66.3711 135.37L83.5835 125.405L165.094 171.473L147.769 181.437L66.3711 135.37Z" fill="url(#paint1_linear_183_1225)"/>
<path opacity="0.7" d="M262.483 147.865L250.156 140.748L191.776 173.653L204.185 180.771L262.483 147.865Z" fill="url(#paint2_linear_183_1225)"/>
<defs>
<linearGradient id="paint0_linear_183_1225" x1="149.861" y1="190.572" x2="194.353" y2="217.42" gradientUnits="userSpaceOnUse">
<stop stop-color="#635F53"/>
<stop offset="1" stop-color="#35301B"/>
</linearGradient>
<linearGradient id="paint1_linear_183_1225" x1="81.3024" y1="132.544" x2="153.275" y2="176.517" gradientUnits="userSpaceOnUse">
<stop stop-color="#635F53"/>
<stop offset="1" stop-color="#35301B"/>
</linearGradient>
<linearGradient id="paint2_linear_183_1225" x1="251.789" y1="145.846" x2="200.317" y2="177.38" gradientUnits="userSpaceOnUse">
<stop stop-color="#A09D92"/>
<stop offset="1" stop-color="#F8F7F3"/>
</linearGradient>
</defs>
</svg>
