<svg width="207" height="233" viewBox="0 0 207 233" fill="none" xmlns="http://www.w3.org/2000/svg">
<g opacity="0.5">
<path d="M189.568 125.536L189.568 131.844C189.568 131.844 189.472 132.453 189.92 132.709L248.934 166.701C249.382 166.958 250.087 166.958 250.536 166.701L309.224 132.856C309.806 132.565 309.806 131.983 309.806 131.983V126.143" stroke="black" stroke-width="0.25"/>
<path d="M249.796 91.4746C250.067 91.4746 250.333 91.5347 250.534 91.6494V91.6504L309.444 125.814H309.445C309.647 125.93 309.719 126.064 309.719 126.171C309.719 126.278 309.647 126.411 309.445 126.526L251.048 160.09C250.847 160.205 250.58 160.266 250.309 160.266C250.037 160.266 249.771 160.205 249.569 160.09L189.944 125.944C189.741 125.828 189.66 125.692 189.654 125.582C189.65 125.49 189.698 125.378 189.844 125.275L189.912 125.232L249.057 91.6504C249.258 91.5353 249.524 91.4746 249.796 91.4746Z" stroke="black" stroke-width="0.25"/>
</g>
<g opacity="0.5">
<path d="M66.2607 168.506V195.298H64.3183V168.506H66.2607Z" stroke="black" stroke-width="0.25"/>
<path d="M60.7791 168.872V189.452H58.8367V168.872H60.7791Z" stroke="black" stroke-width="0.25"/>
<path d="M71.742 162.294V174.469H69.7996V162.294H71.742Z" stroke="black" stroke-width="0.25"/>
<path d="M1.0385 134.963L1.0385 141.271C1.0385 141.271 0.942383 141.88 1.39091 142.136L60.4044 176.128C60.853 176.384 61.5578 176.384 62.0063 176.128L120.695 142.283C121.277 141.992 121.277 141.409 121.277 141.409V135.57" stroke="black" stroke-width="0.25"/>
<path d="M61.2667 100.901C61.5381 100.901 61.8038 100.961 62.005 101.076V101.077L120.915 135.241H120.916C121.118 135.356 121.19 135.49 121.19 135.597C121.189 135.705 121.117 135.838 120.916 135.953L62.5187 169.516C62.3174 169.631 62.0512 169.692 61.7794 169.692C61.5077 169.692 61.2415 169.631 61.0402 169.516L1.41516 135.371C1.21159 135.255 1.13034 135.118 1.12512 135.009C1.12082 134.916 1.16877 134.805 1.31458 134.702L1.38293 134.659L60.5275 101.077C60.7288 100.962 60.995 100.901 61.2667 100.901Z" stroke="black" stroke-width="0.25"/>
<path d="M60.7994 120.67C60.9173 120.624 61.082 120.621 61.2261 120.672L61.2964 120.702L85.1929 134.562V134.562C85.2546 134.599 85.2632 134.635 85.2632 134.65C85.2632 134.665 85.2542 134.7 85.1929 134.738L61.4673 148.46L61.4654 148.461C61.3312 148.542 61.0935 148.547 60.9127 148.456L36.9839 134.597C36.9495 134.576 36.9294 134.557 36.9195 134.544C36.9107 134.532 36.9107 134.526 36.9107 134.525C36.9107 134.525 36.9104 134.519 36.9195 134.507C36.9293 134.493 36.9488 134.475 36.983 134.454L36.982 134.453L60.7427 120.698L60.7994 120.67Z" stroke="black" stroke-width="0.25"/>
<path d="M60.837 125.874C60.9343 125.874 61.0234 125.892 61.0802 125.92C61.0802 125.92 61.0852 125.923 61.0978 125.93C61.1094 125.936 61.1259 125.946 61.1466 125.957C61.1884 125.98 61.2481 126.013 61.3243 126.056C61.4773 126.141 61.6969 126.264 61.9738 126.419C62.5278 126.729 63.3112 127.168 64.2462 127.692C66.1162 128.741 68.5951 130.131 71.0685 131.52C73.5419 132.908 76.0104 134.294 77.8605 135.333C78.7852 135.852 79.5557 136.284 80.0948 136.587C80.3645 136.738 80.5764 136.857 80.7208 136.938C80.793 136.979 80.8486 137.01 80.8859 137.031C80.9043 137.042 80.9184 137.049 80.9279 137.055C80.9325 137.057 80.9362 137.059 80.9386 137.061C80.9398 137.061 80.9409 137.062 80.9415 137.062L81.0031 136.954L80.9415 137.063L80.9474 137.066C80.9967 137.091 80.9972 137.113 80.9972 137.117C80.9971 137.128 80.9895 137.161 80.9347 137.204L61.3966 148.536C61.3422 148.563 61.2384 148.582 61.1202 148.582C61.0038 148.582 60.9017 148.563 60.8468 148.537L41.3615 137.151C41.3042 137.107 41.296 137.073 41.296 137.062C41.296 137.06 41.2967 137.054 41.3029 137.045L41.3458 137.012L41.3527 137.008H41.3536C41.3542 137.007 41.3554 137.007 41.3566 137.006C41.3588 137.005 41.362 137.002 41.3663 137C41.3755 136.995 41.3894 136.987 41.4073 136.977C41.4435 136.956 41.4976 136.924 41.5675 136.884C41.7073 136.803 41.9121 136.685 42.173 136.534C42.6952 136.233 43.442 135.803 44.338 135.286C46.13 134.253 48.5211 132.874 50.9171 131.492C53.3132 130.111 55.7145 128.726 57.5265 127.683C58.4325 127.161 59.1915 126.725 59.7286 126.416C59.997 126.262 60.2101 126.14 60.3585 126.055C60.4327 126.012 60.4908 125.979 60.5314 125.956C60.5517 125.945 60.5679 125.935 60.5792 125.929C60.5906 125.922 60.5949 125.92 60.5948 125.92C60.6516 125.892 60.74 125.874 60.837 125.874Z" stroke="black" stroke-width="0.25"/>
<path d="M55.2975 183.489V199.348H53.3551V183.489H55.2975Z" stroke="black" stroke-width="0.25"/>
<path d="M66.2876 78.427V132.809H64.3452V78.427H66.2876Z" stroke="black" stroke-width="0.25"/>
<path d="M71.769 121V125.37H69.8266V121H71.769Z" stroke="black" stroke-width="0.25"/>
<path d="M55.3245 56.6836V61.0537H53.3821V56.6836H55.3245Z" stroke="black" stroke-width="0.25"/>
<path d="M55.3244 174.353V178.723H53.382V174.353H55.3244Z" stroke="black" stroke-width="0.25"/>
<path d="M71.7691 97.6123V113.472H69.8267V97.6123H71.7691Z" stroke="black" stroke-width="0.25"/>
<path d="M71.7691 179.835V184.205H69.8267V179.835H71.7691Z" stroke="black" stroke-width="0.25"/>
<path d="M71.7691 71.3013V75.6714H69.8267V71.3013H71.7691Z" stroke="black" stroke-width="0.25"/>
<path d="M71.7691 189.336V197.361H69.8267V189.336H71.7691Z" stroke="black" stroke-width="0.25"/>
<path d="M66.2874 66.5508V69.0938H64.3451V66.5508H66.2874Z" stroke="black" stroke-width="0.25"/>
<path d="M66.2874 137.81V142.18H64.3451V137.81H66.2874Z" stroke="black" stroke-width="0.25"/>
<path d="M60.7792 59.6074V103.209H58.8368V59.6074H60.7792Z" stroke="black" stroke-width="0.25"/>
<path d="M55.2975 120.27V140.85H53.3551V120.27H55.2975Z" stroke="black" stroke-width="0.25"/>
<path d="M60.7792 111.499V123.674H58.8368V111.499H60.7792Z" stroke="black" stroke-width="0.25"/>
<path d="M71.7419 82.6299V92.2461H69.7995V82.6299H71.7419Z" stroke="black" stroke-width="0.25"/>
<path d="M71.7419 131.232V142.546L69.7995 143.679V131.232H71.7419Z" stroke="black" stroke-width="0.25"/>
<path d="M60.7792 134.521V148.48L58.8368 147.345V134.521H60.7792Z" stroke="black" stroke-width="0.25"/>
<path d="M55.2975 70.9358V107.595H53.3551V70.9358H55.2975Z" stroke="black" stroke-width="0.25"/>
</g>
<g opacity="0.5">
<path d="M159.97 111.948V138.74H158.028V111.948H159.97Z" stroke="black" stroke-width="0.25"/>
<path d="M154.489 112.313V132.893H152.547V112.313H154.489Z" stroke="black" stroke-width="0.25"/>
<path d="M165.452 105.735V117.91H163.51V105.735H165.452Z" stroke="black" stroke-width="0.25"/>
<path d="M94.7486 78.4041L94.7486 84.7122C94.7486 84.7122 94.6525 85.3209 95.101 85.5772L154.115 119.569C154.563 119.826 155.268 119.826 155.716 119.569L214.405 85.7241C214.987 85.4329 214.987 84.8506 214.987 84.8506V79.0109" stroke="black" stroke-width="0.25"/>
<path d="M154.977 44.3423C155.248 44.3423 155.514 44.4024 155.715 44.5171V44.5181L214.625 78.6821H214.626C214.828 78.7974 214.9 78.9314 214.9 79.0386C214.9 79.1457 214.828 79.279 214.626 79.394L156.229 112.958C156.028 113.073 155.761 113.133 155.49 113.133C155.218 113.133 154.952 113.073 154.75 112.958L95.1254 78.812C94.9218 78.6957 94.8406 78.5593 94.8354 78.4497C94.8311 78.3577 94.879 78.2459 95.0248 78.1431L95.0932 78.1001L154.238 44.5181C154.439 44.403 154.705 44.3423 154.977 44.3423Z" stroke="black" stroke-width="0.25"/>
<path d="M154.51 64.1111C154.628 64.0647 154.792 64.0625 154.936 64.113L155.007 64.1433L178.903 78.0037V78.0027C178.965 78.0406 178.973 78.0766 178.973 78.0916C178.973 78.1064 178.964 78.1416 178.903 78.1794L155.178 91.9011L155.176 91.9021C155.041 91.9833 154.804 91.9884 154.623 91.8972L130.694 78.0378C130.66 78.017 130.64 77.9985 130.63 77.9851C130.621 77.9731 130.621 77.9672 130.621 77.9666C130.621 77.9663 130.621 77.9604 130.63 77.948C130.639 77.9346 130.659 77.916 130.693 77.8953L130.692 77.8943L154.453 64.1394L154.51 64.1111Z" stroke="black" stroke-width="0.25"/>
<path d="M154.547 69.3154C154.644 69.3154 154.734 69.3332 154.79 69.3613C154.79 69.3613 154.795 69.3642 154.808 69.3711C154.82 69.3775 154.836 69.387 154.857 69.3984C154.899 69.4216 154.958 69.4545 155.035 69.4971C155.187 69.5824 155.407 69.7054 155.684 69.8604C156.238 70.1705 157.021 70.6095 157.956 71.1338C159.826 72.1824 162.305 73.5727 164.779 74.9609C167.252 76.3492 169.721 77.7357 171.571 78.7744C172.495 79.2936 173.266 79.7256 173.805 80.0283C174.075 80.1797 174.287 80.2988 174.431 80.3799C174.503 80.4204 174.559 80.4517 174.596 80.4727C174.615 80.483 174.629 80.4908 174.638 80.4961C174.643 80.4987 174.646 80.5006 174.649 80.502C174.65 80.5026 174.651 80.5036 174.652 80.5039L174.713 80.3955L174.652 80.5049L174.658 80.5078C174.707 80.5323 174.707 80.5542 174.707 80.5586C174.707 80.5692 174.7 80.6026 174.645 80.6455L155.107 91.9775C155.052 92.0044 154.949 92.0234 154.83 92.0234C154.714 92.0234 154.612 92.0048 154.557 91.9785L135.072 80.5928C135.014 80.5488 135.006 80.5145 135.006 80.5039C135.006 80.5016 135.007 80.4953 135.013 80.4863L135.056 80.4531L135.063 80.4492H135.064C135.064 80.4489 135.066 80.4479 135.067 80.4473C135.069 80.446 135.072 80.4439 135.076 80.4414C135.086 80.4361 135.1 80.4283 135.118 80.418C135.154 80.3971 135.208 80.3655 135.278 80.3252C135.417 80.2445 135.622 80.1261 135.883 79.9756C136.405 79.6743 137.152 79.2443 138.048 78.7275C139.84 77.694 142.231 76.315 144.627 74.9336C147.023 73.5521 149.425 72.1675 151.237 71.124C152.143 70.6023 152.902 70.1661 153.439 69.8574C153.707 69.7032 153.92 69.581 154.069 69.4961C154.143 69.4537 154.201 69.4205 154.242 69.3975C154.262 69.3859 154.278 69.3764 154.289 69.3701C154.301 69.3637 154.305 69.3613 154.305 69.3613C154.362 69.3332 154.45 69.3155 154.547 69.3154Z" stroke="black" stroke-width="0.25"/>
<path d="M149.008 126.93V142.79H147.065V126.93H149.008Z" stroke="black" stroke-width="0.25"/>
<path d="M159.998 21.8682V76.25H158.055V21.8682H159.998Z" stroke="black" stroke-width="0.25"/>
<path d="M165.479 64.4409V68.811H163.537V64.4409H165.479Z" stroke="black" stroke-width="0.25"/>
<path d="M149.035 0.125V4.49512H147.092V0.125H149.035Z" stroke="black" stroke-width="0.25"/>
<path d="M149.035 117.794V122.165H147.092V117.794H149.035Z" stroke="black" stroke-width="0.25"/>
<path d="M165.479 41.0535V56.9128H163.537V41.0535H165.479Z" stroke="black" stroke-width="0.25"/>
<path d="M165.479 123.276V127.646H163.537V123.276H165.479Z" stroke="black" stroke-width="0.25"/>
<path d="M165.479 14.7424V19.1125H163.537V14.7424H165.479Z" stroke="black" stroke-width="0.25"/>
<path d="M165.479 132.777V140.802H163.537V132.777H165.479Z" stroke="black" stroke-width="0.25"/>
<path d="M159.998 9.9917V12.5347H158.055V9.9917H159.998Z" stroke="black" stroke-width="0.25"/>
<path d="M159.998 81.251V85.6211H158.055V81.251H159.998Z" stroke="black" stroke-width="0.25"/>
<path d="M154.489 3.04883V46.6504H152.547V3.04883H154.489Z" stroke="black" stroke-width="0.25"/>
<path d="M149.008 63.7109V84.291H147.065V63.7109H149.008Z" stroke="black" stroke-width="0.25"/>
<path d="M154.489 54.9402V67.115H152.547V54.9402H154.489Z" stroke="black" stroke-width="0.25"/>
<path d="M165.452 26.0708V35.687H163.51V26.0708H165.452Z" stroke="black" stroke-width="0.25"/>
<path d="M165.452 74.6738V85.9883L163.51 87.1211V74.6738H165.452Z" stroke="black" stroke-width="0.25"/>
<path d="M154.489 77.9624V91.9214L152.547 90.7866V77.9624H154.489Z" stroke="black" stroke-width="0.25"/>
<path d="M149.008 14.377V51.0361H147.065V14.377H149.008Z" stroke="black" stroke-width="0.25"/>
</g>
<path d="M79.7972 200.114L79.7972 209.686C79.7972 209.686 79.6514 210.609 80.3319 210.998L169.878 262.577C170.558 262.966 171.628 262.966 172.308 262.577L261.36 211.221C262.244 210.779 262.244 209.896 262.244 209.896V201.035" stroke="black" stroke-width="0.25"/>
<path d="M171.186 148.365C171.607 148.365 172.022 148.459 172.34 148.641V148.64L261.727 200.479L261.728 200.48C262.046 200.662 262.175 200.882 262.176 201.076C262.176 201.246 262.077 201.437 261.839 201.604L261.728 201.673L173.117 252.602C172.8 252.783 172.384 252.877 171.964 252.877C171.543 252.877 171.128 252.783 170.81 252.602L80.3366 200.789L80.2243 200.719C79.9833 200.551 79.8733 200.359 79.865 200.188C79.857 200.019 79.9449 199.831 80.1784 199.666L80.2878 199.597L170.032 148.641H170.033C170.35 148.459 170.765 148.365 171.186 148.365Z" stroke="black" stroke-width="0.25"/>
<path d="M170.36 178.412C170.585 178.276 170.966 178.27 171.256 178.415L207.522 199.448V199.449C207.631 199.515 207.662 199.588 207.662 199.64C207.662 199.692 207.63 199.765 207.521 199.831L171.523 220.649L171.521 220.651C171.296 220.787 170.916 220.792 170.626 220.648L134.305 199.614H134.306C134.187 199.542 134.164 199.48 134.164 199.45C134.164 199.419 134.188 199.357 134.306 199.286L134.305 199.285L170.359 178.414L170.36 178.412Z" stroke="black" stroke-width="0.25"/>
<path d="M170.534 186.259C170.688 186.259 170.833 186.287 170.931 186.336C170.931 186.336 170.934 186.337 170.939 186.34C170.944 186.342 170.951 186.346 170.96 186.35C170.977 186.36 171.002 186.375 171.034 186.392C171.097 186.428 171.188 186.478 171.304 186.543C171.537 186.672 171.87 186.858 172.291 187.094C173.131 187.564 174.319 188.231 175.738 189.026C178.575 190.617 182.336 192.727 186.09 194.834C189.843 196.94 193.589 199.043 196.396 200.619C197.8 201.407 198.969 202.064 199.787 202.523C200.196 202.753 200.517 202.933 200.736 203.056C200.846 203.118 200.929 203.165 200.986 203.197C201.014 203.213 201.036 203.224 201.05 203.232C201.058 203.236 201.063 203.24 201.067 203.242C201.069 203.243 201.07 203.243 201.071 203.244L201.072 203.245L201.078 203.248C201.168 203.293 201.189 203.346 201.189 203.384C201.189 203.427 201.16 203.498 201.059 203.573L171.412 220.767C171.316 220.815 171.148 220.844 170.965 220.844C170.781 220.844 170.611 220.815 170.515 220.767L140.945 203.49C140.846 203.415 140.818 203.344 140.818 203.301C140.818 203.263 140.839 203.21 140.929 203.165L140.93 203.166L140.936 203.162L140.937 203.161H140.938C140.939 203.16 140.94 203.159 140.942 203.158C140.946 203.156 140.951 203.153 140.958 203.149C140.972 203.141 140.993 203.129 141.02 203.113C141.075 203.081 141.157 203.034 141.262 202.973C141.475 202.851 141.785 202.671 142.181 202.443C142.974 201.986 144.107 201.333 145.467 200.549C148.186 198.98 151.814 196.888 155.45 194.792C159.086 192.696 162.729 190.596 165.478 189.012C166.853 188.221 168.004 187.558 168.819 187.09C169.227 186.855 169.551 186.67 169.776 186.541C169.888 186.477 169.976 186.426 170.038 186.391C170.068 186.374 170.093 186.36 170.11 186.35C170.119 186.346 170.126 186.341 170.131 186.339C170.135 186.336 170.137 186.336 170.137 186.336C170.235 186.287 170.38 186.259 170.534 186.259Z" fill="url(#paint0_linear_66_3371)" stroke="black" stroke-width="0.25"/>
<path d="M178.869 114.263V196.911H175.792V114.263H178.869Z" stroke="black" stroke-width="0.25"/>
<path d="M187.187 178.863V185.624H184.11V178.863H187.187Z" stroke="black" stroke-width="0.25"/>
<path d="M162.234 81.271V88.0317H159.157V81.271H162.234Z" stroke="black" stroke-width="0.25"/>
<path d="M187.187 143.375V167.568H184.11V143.375H187.187Z" stroke="black" stroke-width="0.25"/>
<path d="M187.187 103.451V110.211H184.11V103.451H187.187Z" stroke="black" stroke-width="0.25"/>
<path d="M178.869 96.2422V100.23H175.792V96.2422H178.869Z" stroke="black" stroke-width="0.25"/>
<path d="M178.869 204.37V211.13H175.792V204.37H178.869Z" stroke="black" stroke-width="0.25"/>
<path d="M170.511 85.7065V151.997H167.434V85.7065H170.511Z" stroke="black" stroke-width="0.25"/>
<path d="M170.511 164.446V183.048H167.434V164.446H170.511Z" stroke="black" stroke-width="0.25"/>
<path d="M187.146 120.64V135.362H184.069V120.64H187.146Z" stroke="black" stroke-width="0.25"/>
<path d="M187.146 194.388V211.657L184.069 213.453V194.388H187.146Z" stroke="black" stroke-width="0.25"/>
<path d="M170.511 199.379V220.738L167.434 218.941V199.379H170.511Z" stroke="black" stroke-width="0.25"/>
<path d="M162.194 102.896V158.651H159.116V102.896H162.194Z" stroke="black" stroke-width="0.25"/>
<path opacity="0.7" d="M66.3709 135.37L83.5833 125.405L165.094 171.473L147.769 181.437L66.3709 135.37Z" fill="url(#paint1_linear_66_3371)"/>
<path opacity="0.7" d="M262.484 147.865L250.156 140.748L191.776 173.653L204.185 180.771L262.484 147.865Z" fill="url(#paint2_linear_66_3371)"/>
<defs>
<linearGradient id="paint0_linear_66_3371" x1="149.862" y1="190.572" x2="194.353" y2="217.42" gradientUnits="userSpaceOnUse">
<stop stop-color="#A09D92"/>
<stop offset="1" stop-color="#F8F7F3"/>
</linearGradient>
<linearGradient id="paint1_linear_66_3371" x1="81.3022" y1="132.544" x2="153.275" y2="176.517" gradientUnits="userSpaceOnUse">
<stop stop-color="#A09D92"/>
<stop offset="1" stop-color="#F8F7F3"/>
</linearGradient>
<linearGradient id="paint2_linear_66_3371" x1="251.789" y1="145.846" x2="200.317" y2="177.38" gradientUnits="userSpaceOnUse">
<stop stop-color="#A09D92"/>
<stop offset="1" stop-color="#F8F7F3"/>
</linearGradient>
</defs>
</svg>
