<svg width="130" height="130" viewBox="0 0 130 130" fill="none" xmlns="http://www.w3.org/2000/svg">
<g filter="url(#filter0_d_183_1891)">
<path d="M33 65C33 47.3269 47.3269 33 65 33C82.6731 33 97 47.3269 97 65C97 82.6731 82.6731 97 65 97C47.3269 97 33 82.6731 33 65Z" fill="#0C0A09"/>
<g clip-path="url(#clip0_183_1891)">
<path d="M62.7704 67.917H64.0298V64.849H62.7704V63.8613H65.2884V65.2404H65.367C65.413 65.0652 65.4756 64.8948 65.554 64.7315C65.6346 64.5688 65.741 64.4202 65.8691 64.2915C66.0048 64.1578 66.1652 64.0516 66.3413 63.9788C66.5506 63.8955 66.7746 63.8556 66.9998 63.8613H67.5505V65.0354H66.5081C66.128 65.0354 65.8287 65.1461 65.6102 65.3676C65.5018 65.4806 65.4173 65.6142 65.3615 65.7605C65.3057 65.9067 65.2798 66.0627 65.2854 66.2192V67.9208H67.0461V68.9093H62.7674L62.7704 67.917Z" fill="#B5B09B"/>
<path d="M60.1678 69.023C59.8113 69.0287 59.4571 68.9654 59.1247 68.8367C58.8309 68.7183 58.566 68.5381 58.3479 68.3084C58.1298 68.0672 57.9626 67.7844 57.8563 67.4771C57.633 66.7638 57.633 65.9993 57.8563 65.286C57.9626 64.9785 58.1298 64.6955 58.3479 64.4539C58.5662 64.2244 58.831 64.0443 59.1247 63.9256C59.4573 63.7976 59.8114 63.7346 60.1678 63.74C60.5207 63.7352 60.8713 63.7982 61.2005 63.9256C61.4959 64.0409 61.7614 64.2215 61.9772 64.4539C62.1995 64.6923 62.3673 64.9763 62.4688 65.286C62.7053 65.9972 62.7053 66.7659 62.4688 67.4771C62.3672 67.7866 62.1994 68.0702 61.9772 68.3084C61.7616 68.541 61.496 68.7217 61.2005 68.8367C60.8714 68.9647 60.5208 69.028 60.1678 69.023ZM60.1678 68.0637C60.5285 68.0637 60.8136 67.9562 61.0231 67.7412C61.2326 67.5262 61.3376 67.2034 61.3381 66.7729V65.9902C61.3381 65.5656 61.2331 65.2461 61.0231 65.0316C60.8136 64.8096 60.5285 64.6986 60.1678 64.6986C59.8071 64.6986 59.5218 64.8096 59.3117 65.0316C59.1022 65.2461 58.9972 65.5656 58.9967 65.9902V66.7729C58.9967 67.1964 59.1017 67.5192 59.3117 67.7412C59.5218 67.9632 59.8071 68.0707 60.1678 68.0637Z" fill="#B5B09B"/>
<path d="M55.3323 69.023C54.8381 69.0342 54.3465 68.9478 53.8858 68.7686C53.5135 68.6178 53.1853 68.3753 52.9317 68.0637L53.6696 67.3985C53.8714 67.6208 54.1156 67.8004 54.3879 67.9268C54.689 68.0562 55.0143 68.1197 55.342 68.1131C55.6573 68.1131 55.9097 68.061 56.0993 67.9567C56.188 67.9128 56.2621 67.8441 56.3127 67.759C56.3633 67.6739 56.3882 67.576 56.3844 67.4771C56.3844 67.2945 56.3193 67.1703 56.1876 67.1029C56.0295 67.0267 55.8602 66.9762 55.6862 66.9532L54.8698 66.826C54.6605 66.794 54.4535 66.7482 54.2502 66.6891C54.0611 66.6277 53.882 66.5387 53.7189 66.4249C53.5675 66.314 53.4432 66.1702 53.3553 66.0044C53.2585 65.8067 53.2112 65.5884 53.2176 65.3683C53.2176 64.84 53.4141 64.4357 53.8072 64.1554C54.2003 63.875 54.7479 63.7348 55.4498 63.7348C55.8756 63.7236 56.2997 63.7934 56.6994 63.9406C57.0257 64.0634 57.3187 64.261 57.5547 64.5175L56.8962 65.2411C56.73 65.0692 56.533 64.9298 56.3155 64.8303C56.0801 64.7066 55.7785 64.6447 55.4108 64.6447C54.7683 64.6447 54.447 64.8443 54.447 65.2434C54.447 65.426 54.5121 65.5532 54.6438 65.625C54.8056 65.7005 54.978 65.751 55.1549 65.7747L55.9616 65.9019C56.172 65.9342 56.3792 65.9843 56.5812 66.0515C56.7719 66.1045 56.9517 66.1906 57.1125 66.306C57.2684 66.4149 57.3966 66.559 57.4866 66.7265C57.5841 66.9205 57.6314 67.1358 57.6243 67.3528C57.6328 67.5927 57.5815 67.8309 57.475 68.0461C57.3686 68.2612 57.2103 68.4465 57.0145 68.5853C56.6144 68.8766 56.0536 69.0225 55.3323 69.023Z" fill="#B5B09B"/>
<path d="M48.323 68.9056V63.8575H49.5816V64.748H49.631C49.7419 64.4752 49.9172 64.2333 50.1421 64.0431C50.3785 63.8411 50.7028 63.74 51.1149 63.74C51.6137 63.74 52.0168 63.9064 52.3241 64.2392C52.6314 64.5719 52.7891 65.0413 52.797 65.6475V68.9056H51.5391V65.8263C51.5391 65.096 51.2211 64.7305 50.5851 64.73C50.4587 64.7294 50.3328 64.746 50.2109 64.7794C50.0942 64.8112 49.9844 64.8642 49.8869 64.9358C49.7959 65.0009 49.7194 65.0843 49.6624 65.1805C49.6088 65.2898 49.583 65.4106 49.5876 65.5322V68.9078L48.323 68.9056Z" fill="#B5B09B"/>
<path d="M41.5434 63.1324V68.9041H40.2645V63.1324H38.1992V62.0773H43.6087V63.1324H41.5434Z" fill="#B5B09B"/>
<path d="M87.6296 61.6665H88.889V65.9116H88.9481L89.686 65.1094L90.9349 63.8575H92.4008L90.3804 65.8435L92.6133 68.9056H91.1085L89.4854 66.5574L88.8868 67.1246V68.9056H87.6274L87.6296 61.6665Z" fill="#B5B09B"/>
<path d="M85.2044 69.023C84.8482 69.0286 84.4943 68.9653 84.162 68.8367C83.8642 68.7201 83.5955 68.5398 83.3748 68.3084C83.1572 68.0668 82.9901 67.7841 82.8832 67.4771C82.6599 66.7638 82.6599 65.9993 82.8832 65.286C82.9901 64.9787 83.1572 64.6958 83.3748 64.4539C83.5932 64.2243 83.8583 64.0441 84.1523 63.9256C84.4846 63.7975 84.8385 63.7345 85.1947 63.74C85.7319 63.74 86.1647 63.851 86.493 64.073C86.8188 64.2918 87.0777 64.5963 87.2413 64.953L86.2685 65.4813C86.1848 65.2771 86.0491 65.0983 85.8749 64.9628C85.711 64.8258 85.4843 64.7577 85.1962 64.7577C84.822 64.7577 84.5334 64.8652 84.3304 65.0802C84.1273 65.2953 84.0291 65.5888 84.0356 65.961V66.7991C84.0356 67.1643 84.1338 67.4578 84.3304 67.6798C84.5269 67.9018 84.822 68.0093 85.2156 68.0024C85.5149 68.0024 85.7544 67.9338 85.934 67.7966C86.1233 67.6522 86.275 67.4643 86.3762 67.2488L87.3206 67.8063C87.1489 68.1666 86.8798 68.4717 86.5438 68.687C86.2016 68.9105 85.7551 69.0225 85.2044 69.023Z" fill="#B5B09B"/>
<path d="M80.1915 69.023C79.8353 69.0286 79.4814 68.9653 79.1492 68.8367C78.8552 68.7183 78.59 68.5381 78.3717 68.3084C78.1541 68.0668 77.9869 67.7841 77.88 67.477C77.6575 66.7637 77.6575 65.9994 77.88 65.286C77.9869 64.9787 78.1541 64.6958 78.3717 64.4539C78.5902 64.2244 78.8553 64.0443 79.1492 63.9256C79.8187 63.6782 80.5546 63.6782 81.2242 63.9256C81.5197 64.0411 81.7855 64.2217 82.0017 64.4539C82.224 64.6923 82.3918 64.9763 82.4933 65.286C82.7298 65.9972 82.7298 66.7659 82.4933 67.477C82.3917 67.7866 82.2239 68.0702 82.0017 68.3084C81.7857 68.5409 81.5199 68.7215 81.2242 68.8367C80.8952 68.9647 80.5445 69.028 80.1915 69.023ZM80.1915 68.0637C80.5522 68.0637 80.8376 67.9562 81.0476 67.7412C81.2576 67.5262 81.3624 67.2034 81.3619 66.7729V65.9902C81.3619 65.5656 81.2571 65.2461 81.0476 65.0316C80.8376 64.8096 80.5522 64.6986 80.1915 64.6986C79.8308 64.6986 79.5455 64.8096 79.3355 65.0316C79.126 65.2461 79.0212 65.5656 79.0212 65.9902V66.7729C79.0212 67.1964 79.126 67.5192 79.3355 67.7412C79.545 67.9632 79.8303 68.0707 80.1915 68.0637Z" fill="#B5B09B"/>
<path d="M73.1328 67.917H74.7461V63.0628H73.1328V62.0751H76.0055V67.917H77.6293V68.9056H73.1343L73.1328 67.917Z" fill="#B5B09B"/>
<path d="M68.3961 62.0773H70.7862C71.4347 62.0773 71.9335 62.2402 72.2828 62.566C72.632 62.8917 72.809 63.3287 72.814 63.877C72.814 64.2686 72.7143 64.5816 72.5147 64.8161C72.3015 65.0657 72.0164 65.2435 71.6983 65.3249V65.3736C72.1114 65.4733 72.4357 65.6527 72.6711 65.9116C72.9066 66.1705 73.0278 66.5324 73.0348 66.9974C73.0377 67.2657 72.9868 67.5318 72.8851 67.7801C72.7953 68.0063 72.6577 68.2105 72.4818 68.3787C72.3029 68.5533 72.0882 68.6869 71.8525 68.7701C71.5885 68.8647 71.3097 68.9111 71.0294 68.907H68.3931L68.3961 62.0773ZM70.641 67.9762C71.0017 67.9762 71.2705 67.9108 71.4476 67.7801C71.6247 67.6494 71.7165 67.4179 71.723 67.0857V66.7632C71.723 66.4439 71.6312 66.2194 71.4476 66.0897C71.2641 65.96 70.9952 65.8914 70.641 65.8839H69.657V67.9792L70.641 67.9762ZM70.4734 64.9919C70.8213 64.9919 71.0765 64.9306 71.2411 64.8064C71.4057 64.6821 71.4963 64.4674 71.4963 64.1606V63.8381C71.4963 63.5313 71.4112 63.316 71.2411 63.1923C71.0765 63.0681 70.8213 63.0067 70.4734 63.0067H69.657V64.9919H70.4734Z" fill="#B5B09B"/>
<path d="M48.1868 66.6846C48.195 66.5866 48.1987 66.4856 48.1987 66.3853C48.204 66.0126 48.144 65.6418 48.0214 65.2898C47.9199 64.98 47.7521 64.696 47.5298 64.4577C47.3136 64.2254 47.0478 64.0448 46.7523 63.9294C46.0827 63.6819 45.3468 63.6819 44.6772 63.9294C44.3834 64.048 44.1183 64.2282 43.8998 64.4577C43.6822 64.6996 43.515 64.9825 43.4081 65.2898C43.1856 66.0032 43.1856 66.7674 43.4081 67.4808C43.515 67.7879 43.6822 68.0705 43.8998 68.3121C44.1181 68.5419 44.3832 68.722 44.6772 68.8405C45.3466 69.0889 46.0829 69.0889 46.7523 68.8405C47.048 68.7253 47.3138 68.5446 47.5298 68.3121C47.752 68.074 47.9198 67.7903 48.0214 67.4808C48.0693 67.3487 48.1069 67.2131 48.1336 67.0752H46.8698C46.8443 67.3239 46.7412 67.5582 46.5749 67.7449C46.3649 67.9605 46.0796 68.068 45.7189 68.0675C45.3582 68.067 45.0728 67.9595 44.8628 67.7449C44.6533 67.5234 44.5485 67.2007 44.5485 66.7766V66.6883L48.1868 66.6846ZM44.8636 65.0316C45.0736 64.8096 45.3589 64.6986 45.7196 64.6986C46.0803 64.6986 46.3656 64.8096 46.5757 65.0316C46.777 65.2381 46.8802 65.542 46.8885 65.9415H44.55C44.559 65.542 44.6623 65.2381 44.8636 65.0316Z" fill="#B5B09B"/>
</g>
</g>
<defs>
<filter id="filter0_d_183_1891" x="0.0719986" y="0.0719986" width="129.856" height="129.856" filterUnits="userSpaceOnUse" color-interpolation-filters="sRGB">
<feFlood flood-opacity="0" result="BackgroundImageFix"/>
<feColorMatrix in="SourceAlpha" type="matrix" values="0 0 0 0 0 0 0 0 0 0 0 0 0 0 0 0 0 0 127 0" result="hardAlpha"/>
<feMorphology radius="1.92" operator="dilate" in="SourceAlpha" result="effect1_dropShadow_183_1891"/>
<feOffset/>
<feGaussianBlur stdDeviation="15.504"/>
<feComposite in2="hardAlpha" operator="out"/>
<feColorMatrix type="matrix" values="0 0 0 0 0.88375 0 0 0 0 0.798356 0 0 0 0 0.46625 0 0 0 0.5 0"/>
<feBlend mode="normal" in2="BackgroundImageFix" result="effect1_dropShadow_183_1891"/>
<feBlend mode="normal" in="SourceGraphic" in2="effect1_dropShadow_183_1891" result="shape"/>
</filter>
<clipPath id="clip0_183_1891">
<rect width="54.4014" height="7.33333" fill="white" transform="translate(38.1992 61.6665)"/>
</clipPath>
</defs>
</svg>
