<svg width="364" height="90" viewBox="0 0 364 90" fill="none" xmlns="http://www.w3.org/2000/svg">
<path d="M-2.38419e-06 45L198 45" stroke="url(#paint0_linear_0_1)"/>
<g filter="url(#filter0_d_0_1)">
<rect x="179" y="21" width="48" height="48" rx="24" fill="#0C0A09"/>
<path d="M203.179 48.2436H215.875C215.988 48.2436 216.096 48.1988 216.176 48.119C216.255 48.0392 216.3 47.9311 216.3 47.8183V45.0032C216.3 44.988 216.3 44.9734 216.3 44.9595C216.298 44.9389 216.293 44.9186 216.288 44.8987C216.288 44.8957 216.288 44.8926 216.288 44.8896C216.283 44.8688 216.276 44.8485 216.267 44.8288L216.263 44.8203C216.254 44.801 216.244 44.7826 216.232 44.765C216.22 44.7481 216.207 44.7321 216.193 44.717L216.185 44.7091C216.171 44.6946 216.156 44.681 216.14 44.6684L216.13 44.6617C216.113 44.6489 216.095 44.6375 216.076 44.6277L209.884 41.8151L209.874 41.8108L209.849 41.7993L209.833 41.7932L209.811 41.7859L209.79 41.7805L209.771 41.7768L209.745 41.7726H209.73H209.7H196.3L191.974 39.8106L215.875 39.8051C215.987 39.8051 216.095 39.7603 216.175 39.6805C216.255 39.6008 216.3 39.4926 216.3 39.3798V36.5678C216.299 36.5503 216.298 36.5329 216.296 36.5155V36.5052C216.29 36.4619 216.277 36.4199 216.258 36.3806L216.254 36.3734C216.244 36.3548 216.233 36.337 216.221 36.3199C216.219 36.3169 216.217 36.3141 216.215 36.3114C216.202 36.2943 216.188 36.2785 216.173 36.264L216.168 36.2585C216.152 36.2438 216.135 36.2302 216.117 36.2178C216.098 36.2052 216.078 36.1938 216.057 36.1838H216.053L209.851 33.3712C209.796 33.3462 209.737 33.3334 209.676 33.3335L190.006 33.339C189.983 33.3391 189.961 33.3412 189.939 33.3451H189.929C189.908 33.349 189.888 33.3545 189.868 33.3615L189.859 33.3651C189.838 33.3719 189.818 33.3808 189.798 33.3918H189.794C189.775 33.402 189.758 33.4138 189.741 33.4271L189.737 33.4301C189.721 33.4434 189.706 33.4578 189.692 33.4733L189.684 33.4818C189.67 33.4975 189.658 33.5141 189.647 33.5316C189.645 33.5345 189.643 33.5375 189.641 33.5407C189.63 33.5591 189.62 33.5784 189.612 33.5984V33.6027C189.604 33.624 189.597 33.6459 189.592 33.6683C189.587 33.6899 189.584 33.7119 189.583 33.7339C189.583 33.7382 189.583 33.7424 189.583 33.7467C189.583 33.7509 189.583 33.754 189.583 33.7576V36.5702C189.584 36.6519 189.607 36.7319 189.651 36.8005C189.696 36.8691 189.759 36.9236 189.833 36.9573L194.242 38.9551H190.006C189.983 38.9553 189.961 38.9573 189.939 38.9612H189.929C189.908 38.9654 189.888 38.9709 189.868 38.9776L189.859 38.9812C189.838 38.9885 189.818 38.9975 189.798 39.008L189.794 39.011C189.775 39.0213 189.758 39.0331 189.741 39.0462L189.737 39.0493C189.721 39.0626 189.705 39.0772 189.692 39.093L189.684 39.1015C189.67 39.1169 189.658 39.1334 189.647 39.1507L189.641 39.1599C189.63 39.1793 189.62 39.1996 189.612 39.2206V39.2249C189.604 39.2461 189.597 39.2681 189.592 39.2905C189.587 39.3121 189.584 39.334 189.583 39.3561C189.583 39.3604 189.583 39.3646 189.583 39.3689C189.583 39.3731 189.583 39.3756 189.583 39.3792V42.1918C189.583 42.2736 189.607 42.3537 189.651 42.4224C189.695 42.4912 189.759 42.5457 189.833 42.5795L194.242 44.5779H190.006C189.983 44.5781 189.961 44.58 189.939 44.5834H189.929C189.908 44.587 189.888 44.5925 189.868 44.5998L189.859 44.6034C189.838 44.6103 189.818 44.619 189.798 44.6295H189.794C189.775 44.6401 189.758 44.6521 189.741 44.6654C189.74 44.666 189.738 44.6671 189.737 44.6684C189.721 44.6817 189.706 44.6961 189.692 44.7116L189.684 44.7201C189.67 44.7358 189.658 44.7524 189.647 44.7699C189.645 44.7728 189.643 44.7758 189.641 44.779C189.63 44.7984 189.62 44.8187 189.612 44.8398V44.844C189.603 44.8653 189.597 44.8872 189.592 44.9096C189.587 44.9312 189.584 44.9532 189.583 44.9753C189.583 44.9795 189.583 44.9838 189.583 44.988C189.583 44.9923 189.583 44.9953 189.583 44.999V47.8116C189.584 47.8932 189.607 47.9732 189.651 48.0418C189.696 48.1105 189.759 48.1649 189.833 48.1986L194.242 50.2049H190.006C189.983 50.2051 189.961 50.2071 189.939 50.211H189.929C189.908 50.2152 189.888 50.2207 189.868 50.2274L189.859 50.2311C189.838 50.2381 189.818 50.2471 189.798 50.2578L189.794 50.2608C189.775 50.2712 189.758 50.283 189.741 50.2961H189.737C189.721 50.3094 189.705 50.324 189.692 50.3398L189.684 50.3477C189.67 50.3634 189.658 50.3801 189.647 50.3975L189.641 50.4067C189.63 50.4251 189.62 50.4444 189.612 50.4644V50.4686C189.604 50.4899 189.597 50.5119 189.592 50.5343C189.587 50.5557 189.584 50.5774 189.583 50.5993C189.583 50.6035 189.583 50.6078 189.583 50.6126C189.583 50.6175 189.583 50.6193 189.583 50.623V53.4356C189.583 53.5174 189.607 53.5974 189.651 53.6662C189.695 53.7349 189.759 53.7895 189.833 53.8232L196.035 56.6352C196.046 56.6401 196.056 56.6443 196.067 56.648L196.076 56.651C196.088 56.6547 196.1 56.6583 196.112 56.6608H196.119C196.131 56.6634 196.144 56.6654 196.157 56.6668H196.163C196.177 56.6668 196.192 56.6668 196.208 56.6668H207.596C207.709 56.6668 207.817 56.622 207.897 56.5423C207.976 56.4625 208.021 56.3543 208.021 56.2415V53.4429C208.021 53.4256 208.02 53.4084 208.018 53.3912V53.3803C208.011 53.338 207.998 53.297 207.979 53.2588L207.976 53.2509C207.966 53.2325 207.955 53.2148 207.943 53.198L207.936 53.1889C207.924 53.1721 207.91 53.1563 207.895 53.1415L207.889 53.136C207.874 53.1215 207.857 53.1079 207.84 53.0953C207.82 53.0827 207.8 53.0716 207.779 53.0619H207.775L201.573 50.2499C201.518 50.2248 201.458 50.2117 201.398 50.2116H196.633V48.2503L203.179 48.2436ZM196.633 38.9551V36.9937L215.45 36.9882V38.9496L196.633 38.9551ZM209.579 34.1756L213.905 36.1376L196.3 36.1431L191.974 34.1811L209.579 34.1756ZM190.429 34.4157L195.781 36.8424V38.7212L190.429 36.2907V34.4157ZM198.097 44.5779H196.633V42.6159H209.581L213.908 44.5779H198.097ZM190.431 40.0379L195.783 42.4646V44.3433L190.431 41.9166V40.0379ZM196.208 45.4285H215.45V47.3905H196.3L191.974 45.4285H196.208ZM190.431 45.6625L195.783 48.0929V49.9716L190.431 47.5412V45.6625ZM190.431 51.2877L195.783 53.7145V55.5932L190.431 53.1664V51.2877ZM196.633 55.8277V53.8682H207.172V55.8302L196.633 55.8277ZM201.304 51.0532L205.63 53.0175H196.3L191.974 51.0556H201.304V51.0532Z" fill="#B5B09B"/>
</g>
<g filter="url(#filter1_d_0_1)">
<rect x="237" y="21" width="48" height="48" rx="24" fill="#0C0A09"/>
<path d="M261.172 48.1257H273.415C273.524 48.1257 273.628 48.0824 273.705 48.0055C273.782 47.9286 273.825 47.8242 273.825 47.7154V45.0003C273.825 44.9856 273.825 44.9716 273.825 44.9581C273.822 44.9383 273.819 44.9187 273.813 44.8995C273.814 44.8966 273.814 44.8936 273.813 44.8907C273.808 44.8706 273.801 44.851 273.793 44.8321L273.789 44.8239C273.781 44.8053 273.77 44.7875 273.759 44.7706C273.748 44.7542 273.735 44.7388 273.721 44.7243L273.714 44.7166C273.701 44.7026 273.686 44.6895 273.67 44.6774L273.661 44.6709C273.645 44.6586 273.627 44.6476 273.609 44.6381L267.638 41.9253L267.628 41.9212L267.604 41.9101L267.589 41.9042L267.567 41.8972L267.547 41.8919L267.529 41.8884L267.504 41.8843H267.49H267.461H254.539L250.367 39.992H263.038C263.147 39.992 263.251 39.9487 263.328 39.8718C263.405 39.7949 263.448 39.6905 263.448 39.5817V36.8695C263.448 36.8527 263.447 36.8358 263.444 36.8191V36.8091C263.439 36.7674 263.426 36.7269 263.408 36.689L263.404 36.682C263.395 36.6641 263.384 36.6469 263.373 36.6304C263.371 36.6275 263.368 36.6248 263.366 36.6222C263.354 36.6058 263.341 36.5905 263.326 36.5765L263.321 36.5712C263.306 36.557 263.29 36.5439 263.272 36.532C263.254 36.5198 263.234 36.5088 263.214 36.4991H263.21L257.23 33.7863C257.177 33.7623 257.119 33.7499 257.061 33.75H248.47C248.448 33.7502 248.426 33.7521 248.405 33.7559H248.396C248.376 33.7597 248.356 33.765 248.337 33.7717L248.328 33.7752C248.308 33.7817 248.288 33.7904 248.27 33.801H248.265C248.247 33.8107 248.23 33.8221 248.215 33.835L248.211 33.8379C248.195 33.8507 248.18 33.8646 248.167 33.8795L248.159 33.8877C248.146 33.9028 248.134 33.9189 248.124 33.9358C248.122 33.9386 248.12 33.9415 248.118 33.9446C248.107 33.9623 248.098 33.9809 248.09 34.0002V34.0043C248.082 34.0249 248.075 34.046 248.071 34.0676C248.066 34.0885 248.063 34.1096 248.063 34.1309C248.063 34.135 248.063 34.1391 248.063 34.1432C248.063 34.1473 248.063 34.1503 248.063 34.1538V36.8666C248.063 36.9454 248.085 37.0225 248.128 37.0887C248.171 37.1549 248.231 37.2074 248.303 37.2399L252.554 39.1668H248.47C248.448 39.167 248.426 39.1689 248.405 39.1727H248.396C248.376 39.1767 248.356 39.182 248.337 39.1885L248.328 39.192C248.308 39.1991 248.289 39.2077 248.27 39.2178L248.265 39.2207C248.247 39.2307 248.231 39.2421 248.215 39.2547L248.211 39.2576C248.195 39.2705 248.18 39.2846 248.167 39.2998L248.159 39.3081C248.146 39.3229 248.134 39.3387 248.124 39.3555L248.118 39.3643C248.107 39.3831 248.098 39.4027 248.09 39.4229V39.427C248.082 39.4475 248.075 39.4687 248.071 39.4903C248.066 39.5111 248.063 39.5323 248.063 39.5536C248.063 39.5577 248.063 39.5618 248.063 39.5659C248.063 39.57 248.063 39.5723 248.063 39.5759V42.2887C248.062 42.3675 248.085 42.4448 248.128 42.5111C248.17 42.5774 248.231 42.63 248.303 42.6626L252.554 44.5901H248.47C248.448 44.5903 248.426 44.5921 248.405 44.5953H248.396C248.376 44.5989 248.356 44.6042 248.337 44.6112L248.328 44.6147C248.308 44.6213 248.288 44.6297 248.27 44.6399H248.265C248.247 44.65 248.231 44.6616 248.215 44.6744C248.213 44.6751 248.212 44.6761 248.211 44.6774C248.195 44.6902 248.18 44.7041 248.167 44.719L248.159 44.7272C248.146 44.7423 248.134 44.7584 248.124 44.7752C248.122 44.778 248.12 44.781 248.118 44.784C248.107 44.8027 248.098 44.8223 248.09 44.8427V44.8467C248.082 44.8672 248.075 44.8884 248.071 44.91C248.066 44.9309 248.063 44.952 248.063 44.9733C248.063 44.9774 248.063 44.9815 248.063 44.9856C248.063 44.9897 248.063 44.9927 248.063 44.9962V47.709C248.063 47.7878 248.085 47.8649 248.128 47.9311C248.171 47.9973 248.231 48.0498 248.303 48.0823L252.554 50.0174H248.47C248.448 50.0176 248.426 50.0195 248.405 50.0233H248.396C248.376 50.0274 248.356 50.0326 248.337 50.0391L248.328 50.0426C248.308 50.0494 248.288 50.058 248.27 50.0684L248.265 50.0713C248.247 50.0813 248.231 50.0927 248.215 50.1053H248.211C248.195 50.1182 248.18 50.1323 248.167 50.1475L248.159 50.1551C248.146 50.1703 248.134 50.1863 248.124 50.2032L248.118 50.212C248.107 50.2298 248.098 50.2484 248.09 50.2677V50.2718C248.082 50.2923 248.075 50.3135 248.071 50.3351C248.066 50.3557 248.063 50.3767 248.063 50.3978C248.063 50.4019 248.063 50.406 248.063 50.4107C248.063 50.4153 248.063 50.4171 248.063 50.4206V53.1334C248.062 53.2123 248.085 53.2895 248.128 53.3558C248.17 53.4222 248.231 53.4747 248.303 53.5073L254.284 56.2195C254.294 56.2242 254.304 56.2283 254.314 56.2318L254.323 56.2348C254.335 56.2383 254.346 56.2418 254.358 56.2441H254.365C254.377 56.2467 254.389 56.2487 254.401 56.25H254.407C254.421 56.25 254.435 56.25 254.45 56.25H273.414C273.523 56.25 273.627 56.2068 273.704 56.1298C273.781 56.0529 273.824 55.9486 273.824 55.8398V53.1404C273.824 53.1238 273.822 53.1072 273.82 53.0906V53.0801C273.814 53.0393 273.802 52.9998 273.783 52.9629L273.78 52.9553C273.771 52.9375 273.76 52.9205 273.748 52.9043L273.742 52.8955C273.73 52.8793 273.717 52.864 273.703 52.8498L273.697 52.8445C273.682 52.8305 273.666 52.8173 273.649 52.8052C273.63 52.7931 273.611 52.7823 273.59 52.773H273.587L267.606 50.0608C267.553 50.0366 267.495 50.024 267.437 50.0239H254.86V48.1321L261.172 48.1257ZM254.86 39.1668V37.2751H262.629V39.1668H254.86ZM256.967 34.5622L261.139 36.4546H254.539L250.367 34.5622H256.967ZM248.878 34.7885L254.039 37.1291V38.9412L248.878 36.597V34.7885ZM256.272 44.5901H254.86V42.6977H267.346L271.518 44.5901H256.272ZM248.88 40.2111L254.041 42.5518V44.3638L248.88 42.0232V40.2111ZM254.451 45.4105H273.005V47.3029H254.539L250.367 45.4105H254.451ZM248.88 45.6362L254.041 47.9803V49.7924L248.88 47.4482V45.6362ZM248.88 51.0617L254.041 53.4024V55.2145L248.88 52.8738V51.0617ZM254.86 55.4407V53.5507H273.005V55.443L254.86 55.4407ZM267.346 50.8355L271.518 52.7302H254.539L250.367 50.8379H267.346V50.8355Z" fill="#B5B09B"/>
</g>
<g filter="url(#filter2_d_0_1)">
<rect x="295" y="21" width="48" height="48" rx="24" fill="#0C0A09"/>
<path d="M315.759 45.1787V57.8755C315.759 57.9887 315.803 58.096 315.884 58.1753C315.963 58.2547 316.072 58.3002 316.185 58.3002H319.044C319.065 58.2978 319.085 58.2932 319.105 58.2885C319.109 58.2885 319.111 58.2885 319.114 58.2885C319.135 58.2827 319.155 58.2757 319.175 58.2675L319.183 58.264C319.203 58.2547 319.221 58.2442 319.238 58.2325C319.256 58.2208 319.271 58.208 319.286 58.194L319.294 58.187C319.308 58.173 319.322 58.1578 319.335 58.1415L319.342 58.1322C319.355 58.1147 319.366 58.0972 319.376 58.0785L322.189 51.8858L322.193 51.8765L322.205 51.852L322.211 51.8357L322.218 51.8135L322.224 51.7925L322.227 51.7738L322.232 51.7482V38.3L324.194 33.974V57.8755C324.194 57.9887 324.238 58.096 324.319 58.1753C324.398 58.2547 324.507 58.3002 324.62 58.3002H327.433C327.45 58.3002 327.468 58.299 327.485 58.2967H327.496C327.539 58.2908 327.581 58.278 327.621 58.2582L327.628 58.2547C327.646 58.2453 327.664 58.2337 327.681 58.222C327.685 58.2197 327.687 58.2173 327.689 58.215C327.707 58.2033 327.722 58.1893 327.737 58.1742L327.743 58.1683C327.758 58.152 327.771 58.1357 327.784 58.1182C327.797 58.0983 327.808 58.0785 327.818 58.0575V58.054L330.631 51.852C330.655 51.7972 330.668 51.7365 330.668 51.677V32.0058C330.668 31.9837 330.666 31.9603 330.662 31.9382V31.9288C330.659 31.9078 330.653 31.888 330.646 31.8682L330.642 31.8588C330.635 31.8378 330.627 31.8168 330.615 31.7982V31.7935C330.605 31.7748 330.593 31.7573 330.58 31.741L330.577 31.7363C330.564 31.72 330.549 31.7048 330.534 31.6908L330.526 31.6827C330.51 31.6698 330.493 31.657 330.475 31.6465C330.473 31.6442 330.47 31.6418 330.466 31.6407C330.447 31.629 330.429 31.6197 330.409 31.6115H330.404C330.383 31.6033 330.361 31.5963 330.339 31.5917C330.317 31.587 330.296 31.5847 330.274 31.5835H327.436C327.355 31.5835 327.274 31.6068 327.206 31.6512C327.138 31.6955 327.083 31.7585 327.05 31.8332L325.052 36.242V32.0058C325.052 31.9837 325.049 31.9603 325.046 31.9382V31.9288C325.041 31.9078 325.036 31.888 325.029 31.8682L325.026 31.8588C325.019 31.8378 325.01 31.818 324.999 31.7982L324.996 31.7935C324.985 31.7748 324.973 31.7573 324.961 31.741L324.957 31.7363C324.944 31.72 324.929 31.7048 324.913 31.6908L324.905 31.6827C324.889 31.6687 324.873 31.657 324.856 31.6465L324.846 31.6407C324.826 31.629 324.807 31.6197 324.786 31.6115H324.781C324.76 31.6033 324.738 31.5963 324.716 31.5917C324.693 31.587 324.672 31.5847 324.65 31.5835H321.814C321.732 31.5835 321.652 31.6068 321.583 31.6512C321.514 31.6955 321.459 31.7585 321.426 31.8332L319.427 36.242V32.0058C319.427 31.9837 319.425 31.9603 319.421 31.9382V31.9288C319.418 31.9078 319.412 31.888 319.405 31.8682L319.401 31.8588C319.394 31.8378 319.386 31.818 319.376 31.7982V31.7935C319.365 31.7748 319.354 31.7573 319.34 31.741C319.34 31.7398 319.338 31.7375 319.336 31.7363C319.323 31.72 319.308 31.7048 319.293 31.6908L319.285 31.6827C319.27 31.6698 319.252 31.657 319.235 31.6465C319.232 31.6442 319.229 31.6418 319.225 31.6407C319.205 31.629 319.186 31.6197 319.165 31.6115H319.16C319.139 31.6033 319.117 31.5963 319.095 31.5917C319.072 31.587 319.051 31.5847 319.029 31.5835H316.192C316.11 31.5835 316.03 31.6068 315.962 31.6512C315.893 31.6955 315.838 31.7585 315.806 31.8332L313.799 36.242V32.0058C313.799 31.9837 313.797 31.9603 313.793 31.9382V31.9288C313.789 31.9078 313.784 31.888 313.777 31.8682L313.773 31.8588C313.766 31.8378 313.757 31.818 313.747 31.7982L313.743 31.7935C313.733 31.7748 313.721 31.7573 313.708 31.741V31.7363C313.695 31.72 313.68 31.7048 313.664 31.6908L313.656 31.6827C313.64 31.6698 313.623 31.657 313.605 31.6465L313.596 31.6407C313.577 31.629 313.559 31.6197 313.538 31.6115H313.533C313.512 31.6033 313.49 31.5963 313.468 31.5917C313.447 31.587 313.425 31.5847 313.402 31.5835H310.565C310.483 31.5835 310.403 31.6068 310.334 31.6512C310.265 31.6955 310.21 31.7585 310.177 31.8332L307.365 38.0352C307.36 38.0457 307.356 38.0562 307.352 38.0667L307.349 38.076C307.345 38.0877 307.342 38.0993 307.339 38.1122V38.1192C307.337 38.132 307.335 38.1437 307.333 38.1565V57.8743C307.333 57.9875 307.378 58.0948 307.458 58.1742C307.538 58.2535 307.646 58.299 307.759 58.299H310.558C310.576 58.299 310.593 58.2978 310.609 58.2955H310.62C310.662 58.2897 310.703 58.2768 310.741 58.257L310.749 58.2535C310.768 58.2442 310.786 58.2325 310.802 58.2208L310.811 58.2138C310.828 58.201 310.844 58.1882 310.859 58.173L310.865 58.1672C310.879 58.1508 310.893 58.1345 310.906 58.117C310.919 58.0972 310.929 58.0773 310.94 58.0563V58.0528L313.752 51.8508C313.778 51.796 313.791 51.7353 313.791 51.6758V38.6325H315.753L315.76 45.1787H315.759ZM325.049 38.6325H327.012V57.4497H325.049V38.6325ZM329.824 51.5802L327.862 55.9062V38.3L329.824 33.974V51.5802ZM329.59 32.4293L327.162 37.782H325.283L327.714 32.4293H329.59ZM319.425 40.0967V38.6325H321.387V51.5813L319.425 55.9085V40.0967ZM323.967 32.4305L321.539 37.7832H319.659L322.087 32.4305H323.967ZM318.574 38.2078V57.4497H316.612V38.3L318.574 33.974V38.2078ZM318.341 32.4305L315.91 37.7832H314.03L316.461 32.4305H318.341ZM312.714 32.4305L310.286 37.7832H308.408L310.835 32.4305H312.714ZM308.172 38.6325H310.132V57.4497H308.17L308.172 38.6325ZM312.949 51.5813L310.984 55.9085V38.3L312.946 33.974V51.5813H312.949Z" fill="#B5B09B"/>
</g>
<defs>
<filter id="filter0_d_0_1" x="158.42" y="0.419999" width="89.16" height="89.16" filterUnits="userSpaceOnUse" color-interpolation-filters="sRGB">
<feFlood flood-opacity="0" result="BackgroundImageFix"/>
<feColorMatrix in="SourceAlpha" type="matrix" values="0 0 0 0 0 0 0 0 0 0 0 0 0 0 0 0 0 0 127 0" result="hardAlpha"/>
<feMorphology radius="1.2" operator="dilate" in="SourceAlpha" result="effect1_dropShadow_0_1"/>
<feOffset/>
<feGaussianBlur stdDeviation="9.69"/>
<feComposite in2="hardAlpha" operator="out"/>
<feColorMatrix type="matrix" values="0 0 0 0 0.682353 0 0 0 0 0.647059 0 0 0 0 0.509804 0 0 0 0.5 0"/>
<feBlend mode="normal" in2="BackgroundImageFix" result="effect1_dropShadow_0_1"/>
<feBlend mode="normal" in="SourceGraphic" in2="effect1_dropShadow_0_1" result="shape"/>
</filter>
<filter id="filter1_d_0_1" x="216.42" y="0.419999" width="89.16" height="89.16" filterUnits="userSpaceOnUse" color-interpolation-filters="sRGB">
<feFlood flood-opacity="0" result="BackgroundImageFix"/>
<feColorMatrix in="SourceAlpha" type="matrix" values="0 0 0 0 0 0 0 0 0 0 0 0 0 0 0 0 0 0 127 0" result="hardAlpha"/>
<feMorphology radius="1.2" operator="dilate" in="SourceAlpha" result="effect1_dropShadow_0_1"/>
<feOffset/>
<feGaussianBlur stdDeviation="9.69"/>
<feComposite in2="hardAlpha" operator="out"/>
<feColorMatrix type="matrix" values="0 0 0 0 0.682353 0 0 0 0 0.647059 0 0 0 0 0.509804 0 0 0 0.5 0"/>
<feBlend mode="normal" in2="BackgroundImageFix" result="effect1_dropShadow_0_1"/>
<feBlend mode="normal" in="SourceGraphic" in2="effect1_dropShadow_0_1" result="shape"/>
</filter>
<filter id="filter2_d_0_1" x="274.42" y="0.419999" width="89.16" height="89.16" filterUnits="userSpaceOnUse" color-interpolation-filters="sRGB">
<feFlood flood-opacity="0" result="BackgroundImageFix"/>
<feColorMatrix in="SourceAlpha" type="matrix" values="0 0 0 0 0 0 0 0 0 0 0 0 0 0 0 0 0 0 127 0" result="hardAlpha"/>
<feMorphology radius="1.2" operator="dilate" in="SourceAlpha" result="effect1_dropShadow_0_1"/>
<feOffset/>
<feGaussianBlur stdDeviation="9.69"/>
<feComposite in2="hardAlpha" operator="out"/>
<feColorMatrix type="matrix" values="0 0 0 0 0.682353 0 0 0 0 0.647059 0 0 0 0 0.509804 0 0 0 0.5 0"/>
<feBlend mode="normal" in2="BackgroundImageFix" result="effect1_dropShadow_0_1"/>
<feBlend mode="normal" in="SourceGraphic" in2="effect1_dropShadow_0_1" result="shape"/>
</filter>
<linearGradient id="paint0_linear_0_1" x1="1.07333e-06" y1="48.9998" x2="196.415" y2="48.9998" gradientUnits="userSpaceOnUse">
<stop stop-color="#696352"/>
<stop offset="1" stop-color="#F1EFE8"/>
</linearGradient>
</defs>
</svg>
