<svg width="387" height="305" viewBox="0 0 387 305" fill="none" xmlns="http://www.w3.org/2000/svg">
<g opacity="0.5">
<path d="M378.135 81.0723L378.135 93.6886C378.135 93.6886 377.943 94.906 378.84 95.4186L496.867 163.403C497.764 163.915 499.174 163.915 500.071 163.403L617.448 95.7123C618.612 95.13 618.612 93.9654 618.612 93.9654V82.286" stroke="black" stroke-width="0.5"/>
<path d="M498.592 12.949C499.135 12.949 499.667 13.0697 500.07 13.2996L617.889 81.6277L617.891 81.6287C618.294 81.8591 618.438 82.1262 618.438 82.3406C618.438 82.555 618.294 82.822 617.891 83.0525L617.89 83.0535L501.095 150.18C500.692 150.41 500.161 150.532 499.617 150.532C499.074 150.532 498.543 150.41 498.14 150.18L378.889 81.8884L378.747 81.7996C378.443 81.5886 378.319 81.3556 378.31 81.1638C378.3 80.9537 378.425 80.6915 378.823 80.4636L378.823 80.4646L497.114 13.3005H497.115C497.517 13.0705 498.049 12.949 498.592 12.949Z" stroke="black" stroke-width="0.5"/>
</g>
<g opacity="0.5">
<path d="M131.521 167.013V220.597H127.637V167.013H131.521Z" stroke="black" stroke-width="0.5"/>
<path d="M120.558 167.744V208.903H116.673V167.744H120.558Z" stroke="black" stroke-width="0.5"/>
<path d="M142.484 154.588V178.938H138.599V154.588H142.484Z" stroke="black" stroke-width="0.5"/>
<path d="M1.07657 99.9255L1.07657 112.542C1.07657 112.542 0.884339 113.759 1.7814 114.272L119.808 182.256C120.705 182.769 122.115 182.769 123.012 182.256L240.389 114.566C241.554 113.983 241.554 112.819 241.554 112.819V101.139" stroke="black" stroke-width="0.5"/>
<path d="M121.533 31.8022C122.076 31.8022 122.608 31.923 123.011 32.1528L240.83 100.481L240.832 100.482C241.235 100.712 241.379 100.979 241.379 101.194C241.379 101.408 241.235 101.675 240.832 101.906L240.831 101.907L124.036 169.034C123.634 169.264 123.102 169.385 122.559 169.385C122.015 169.385 121.484 169.264 121.081 169.034L1.83008 100.742L1.68848 100.653C1.38449 100.442 1.26011 100.209 1.25098 100.017C1.24114 99.807 1.36568 99.5447 1.76367 99.3169L1.76465 99.3179L120.055 32.1538H120.056C120.458 31.9238 120.99 31.8023 121.533 31.8022Z" stroke="black" stroke-width="0.5"/>
<path d="M120.489 71.3943C120.756 71.2325 121.228 71.2207 121.589 71.4011L169.382 99.1208V99.1218C169.508 99.1985 169.526 99.2704 169.526 99.3005C169.526 99.3303 169.508 99.4015 169.385 99.4773L121.933 126.919L121.929 126.922C121.662 127.084 121.19 127.094 120.829 126.913L72.9656 99.1931C72.8972 99.1516 72.8583 99.1144 72.8386 99.0876C72.821 99.0636 72.821 99.0517 72.821 99.0505C72.821 99.0501 72.8205 99.0383 72.8386 99.0134C72.8485 98.9999 72.8637 98.9836 72.8845 98.9656L72.9666 98.907L120.484 71.3962L120.489 71.3943Z" stroke="black" stroke-width="0.5"/>
<path d="M120.675 81.7478C120.869 81.7478 121.046 81.7842 121.16 81.8406C121.161 81.8411 121.17 81.8461 121.194 81.8591C121.217 81.8719 121.25 81.8897 121.292 81.9128C121.375 81.9592 121.495 82.0257 121.648 82.1111C121.954 82.2818 122.394 82.5275 122.948 82.8376C124.056 83.4579 125.622 84.3359 127.492 85.3845C131.232 87.4817 136.189 90.2633 141.136 93.0398C146.082 95.8162 151.019 98.5874 154.72 100.665C156.57 101.704 158.111 102.569 159.189 103.175C159.729 103.477 160.153 103.715 160.441 103.877C160.586 103.958 160.696 104.02 160.77 104.062C160.808 104.083 160.836 104.099 160.855 104.11C160.865 104.115 160.872 104.119 160.877 104.122C160.879 104.123 160.881 104.124 160.882 104.125L160.884 104.126L160.894 104.132C160.993 104.181 160.995 104.225 160.995 104.234C160.995 104.256 160.978 104.325 160.861 104.414L121.785 127.075C121.674 127.127 121.472 127.164 121.241 127.164C121.007 127.164 120.801 127.126 120.691 127.073L81.7206 104.302C81.6072 104.215 81.5917 104.146 81.5917 104.125C81.5917 104.115 81.5939 104.072 81.6913 104.023L81.705 104.015L81.58 103.799C81.7049 104.015 81.7056 104.016 81.7059 104.015L81.7069 104.014C81.7081 104.014 81.7105 104.013 81.7128 104.011C81.7174 104.009 81.7243 104.005 81.7333 104C81.7516 103.989 81.7792 103.973 81.8153 103.952C81.8875 103.91 81.9951 103.849 82.1346 103.768C82.4143 103.607 82.8245 103.37 83.3466 103.069C84.3911 102.467 85.8836 101.606 87.6757 100.572C91.2599 98.5048 96.0426 95.7461 100.835 92.9832C105.627 90.2204 110.429 87.4529 114.053 85.366C115.865 84.3225 117.383 83.4491 118.457 82.8318C118.994 82.5232 119.42 82.278 119.717 82.1082C119.865 82.0232 119.981 81.957 120.062 81.9109C120.103 81.888 120.135 81.8708 120.157 81.8582C120.176 81.8473 120.186 81.842 120.188 81.8406C120.302 81.7841 120.48 81.7478 120.675 81.7478Z" stroke="black" stroke-width="0.5"/>
<path d="M109.595 196.978V228.696H105.71V196.978H109.595Z" stroke="black" stroke-width="0.5"/>
<path d="M131.575 -13.146V95.6187H127.69V-13.146H131.575Z" stroke="black" stroke-width="0.5"/>
<path d="M142.538 71.9998V80.74H138.653V71.9998H142.538Z" stroke="black" stroke-width="0.5"/>
<path d="M109.649 178.706V187.447H105.764V178.706H109.649Z" stroke="black" stroke-width="0.5"/>
<path d="M142.538 25.2246V56.9424H138.653V25.2246H142.538Z" stroke="black" stroke-width="0.5"/>
<path d="M142.538 189.669V198.41H138.653V189.669H142.538Z" stroke="black" stroke-width="0.5"/>
<path d="M142.538 208.672V224.721H138.653V208.672H142.538Z" stroke="black" stroke-width="0.5"/>
<path d="M131.575 105.62V114.36H127.69V105.62H131.575Z" stroke="black" stroke-width="0.5"/>
<path d="M120.558 -50.7849V36.4192H116.674V-50.7849H120.558Z" stroke="black" stroke-width="0.5"/>
<path d="M109.595 70.5391V111.698H105.71V70.5391H109.595Z" stroke="black" stroke-width="0.5"/>
<path d="M120.558 52.9976V77.3472H116.674V52.9976H120.558Z" stroke="black" stroke-width="0.5"/>
<path d="M142.484 -4.74048V14.4929H138.599V-4.74048H142.484Z" stroke="black" stroke-width="0.5"/>
<path d="M142.484 92.4641V115.093L138.599 117.359V92.4641H142.484Z" stroke="black" stroke-width="0.5"/>
<path d="M120.558 99.0422V126.96L116.674 124.693V99.0422H120.558Z" stroke="black" stroke-width="0.5"/>
<path d="M109.595 -28.1284V45.189H105.71V-28.1284H109.595Z" stroke="black" stroke-width="0.5"/>
</g>
<g opacity="0.5">
<path d="M318.941 53.895V107.479H315.056V53.895H318.941Z" stroke="black" stroke-width="0.5"/>
<path d="M307.979 54.6255V95.7847H304.094V54.6255H307.979Z" stroke="black" stroke-width="0.5"/>
<path d="M329.904 41.4705V65.8201H326.02V41.4705H329.904Z" stroke="black" stroke-width="0.5"/>
<path d="M188.497 -13.1919L188.497 -0.57556C188.497 -0.57556 188.305 0.641871 189.202 1.15448L307.229 69.1386C308.126 69.6512 309.536 69.6512 310.433 69.1386L427.809 1.44817C428.974 0.865863 428.974 -0.298753 428.974 -0.298753V-11.9782" stroke="black" stroke-width="0.5"/>
<path d="M308.954 -81.3157C309.497 -81.3157 310.029 -81.1949 310.431 -80.9651L428.251 -12.637L428.253 -12.636C428.656 -12.4056 428.799 -12.1385 428.8 -11.9241C428.8 -11.7097 428.656 -11.4426 428.253 -11.2122L428.252 -11.2112L311.457 55.9158C311.054 56.1458 310.523 56.2673 309.979 56.2673C309.436 56.2673 308.904 56.1457 308.502 55.9158L189.251 -12.3762L189.109 -12.4651C188.805 -12.6761 188.681 -12.9091 188.672 -13.1008C188.662 -13.3109 188.786 -13.5732 189.184 -13.801L189.185 -13.8L307.475 -80.9641H307.476C307.879 -81.1941 308.41 -81.3157 308.954 -81.3157Z" stroke="black" stroke-width="0.5"/>
<path d="M307.91 -41.7231C308.177 -41.885 308.648 -41.8968 309.009 -41.7163L356.802 -13.9966V-13.9956C356.928 -13.919 356.947 -13.847 356.947 -13.8169C356.947 -13.7871 356.929 -13.7159 356.806 -13.6401L309.354 13.8013L309.35 13.8042C309.082 13.9661 308.611 13.9764 308.249 13.7954L260.386 -13.9243C260.318 -13.9658 260.279 -14.003 260.259 -14.0298C260.242 -14.0538 260.242 -14.0657 260.242 -14.0669C260.242 -14.0673 260.241 -14.0791 260.259 -14.104C260.269 -14.1175 260.284 -14.1338 260.305 -14.1519L260.387 -14.2104L307.905 -41.7212L307.91 -41.7231Z" stroke="black" stroke-width="0.5"/>
<path d="M308.095 -31.3694C308.29 -31.3694 308.467 -31.333 308.581 -31.2766C308.581 -31.2761 308.591 -31.2711 308.615 -31.2581C308.638 -31.2453 308.671 -31.2275 308.712 -31.2043C308.796 -31.158 308.916 -31.0915 309.069 -31.0061C309.375 -30.8354 309.815 -30.5897 310.369 -30.2795C311.477 -29.6593 313.043 -28.7813 314.913 -27.7327C318.653 -25.6355 323.609 -22.8539 328.556 -20.0774C333.503 -17.3009 338.44 -14.5298 342.14 -12.4524C343.99 -11.4137 345.531 -10.5481 346.61 -9.94263C347.149 -9.63987 347.573 -9.40263 347.862 -9.24048C348.006 -9.15949 348.116 -9.09681 348.191 -9.05493C348.228 -9.03399 348.257 -9.01772 348.276 -9.00708C348.285 -9.00185 348.293 -8.99801 348.297 -8.99536C348.3 -8.99415 348.301 -8.99308 348.302 -8.99243L348.304 -8.99146L348.315 -8.9856C348.414 -8.93658 348.416 -8.89194 348.416 -8.88306C348.415 -8.8613 348.398 -8.79202 348.282 -8.70337L309.206 13.9578C309.095 14.0096 308.892 14.0466 308.662 14.0466C308.427 14.0466 308.221 14.009 308.112 13.9558L269.141 -8.8147C269.028 -8.90219 269.012 -8.97124 269.012 -8.99243C269.012 -9.00188 269.014 -9.04553 269.112 -9.09399L269.125 -9.10181L269 -9.3186C269.125 -9.10205 269.126 -9.10164 269.126 -9.10181L269.127 -9.10278C269.129 -9.10345 269.131 -9.10438 269.133 -9.10571C269.138 -9.10838 269.145 -9.11227 269.154 -9.11743C269.172 -9.12802 269.2 -9.14448 269.236 -9.16528C269.308 -9.20696 269.416 -9.26839 269.555 -9.34888C269.835 -9.51022 270.245 -9.74693 270.767 -10.0481C271.812 -10.6506 273.304 -11.5116 275.096 -12.5452C278.68 -14.6124 283.463 -17.3711 288.255 -20.134C293.047 -22.8968 297.849 -25.6643 301.473 -27.7512C303.285 -28.7947 304.803 -29.6681 305.877 -30.2854C306.414 -30.594 306.84 -30.8392 307.137 -31.009C307.286 -31.094 307.402 -31.1602 307.483 -31.2063C307.523 -31.2292 307.555 -31.2464 307.578 -31.259C307.597 -31.2699 307.606 -31.2752 307.609 -31.2766C307.723 -31.333 307.9 -31.3694 308.095 -31.3694Z" stroke="black" stroke-width="0.5"/>
<path d="M297.016 83.8608V115.579H293.131V83.8608H297.016Z" stroke="black" stroke-width="0.5"/>
<path d="M297.069 65.5891V74.3293H293.184V65.5891H297.069Z" stroke="black" stroke-width="0.5"/>
<path d="M329.958 76.5522V85.2925H326.073V76.5522H329.958Z" stroke="black" stroke-width="0.5"/>
<path d="M329.958 95.5547V111.604H326.073V95.5547H329.958Z" stroke="black" stroke-width="0.5"/>
<path d="M318.995 -7.49805V1.24219H315.11V-7.49805H318.995Z" stroke="black" stroke-width="0.5"/>
<path d="M329.904 -20.6526V1.97632L326.02 4.24194V-20.6526H329.904Z" stroke="black" stroke-width="0.5"/>
<path d="M307.979 -14.0754V13.8425L304.094 11.575V-14.0754H307.979Z" stroke="black" stroke-width="0.5"/>
</g>
<path d="M158.594 230.228L158.594 249.371C158.594 249.371 158.302 251.219 159.664 251.997L338.755 355.154C340.116 355.932 342.255 355.932 343.616 355.154L521.721 252.442C523.488 251.559 523.488 249.792 523.488 249.792V232.069" stroke="black" stroke-width="0.5"/>
<path d="M341.372 126.73C342.213 126.731 343.043 126.917 343.677 127.279V127.28L522.455 230.96H522.456C523.092 231.323 523.352 231.765 523.352 232.153C523.352 232.542 523.092 232.983 522.456 233.346L345.234 335.203C344.599 335.566 343.77 335.754 342.928 335.754C342.086 335.754 341.256 335.566 340.621 335.203L159.673 231.579H159.672C159.033 231.214 158.747 230.767 158.729 230.374C158.71 229.99 158.943 229.553 159.574 229.192L339.065 127.281H339.066C339.7 126.919 340.531 126.73 341.372 126.73Z" stroke="black" stroke-width="0.5"/>
<path d="M339.72 186.824C340.17 186.551 340.934 186.539 341.515 186.83L414.042 228.896V228.897C414.26 229.029 414.325 229.175 414.325 229.279C414.325 229.382 414.262 229.527 414.047 229.659L342.045 271.299L342.04 271.301C341.589 271.573 340.825 271.585 340.244 271.294L267.605 229.225C267.373 229.083 267.328 228.961 267.328 228.9C267.328 228.839 267.372 228.715 267.605 228.573L267.606 228.574L339.716 186.826L339.72 186.824Z" stroke="black" stroke-width="0.5"/>
<path d="M340.068 202.517C340.376 202.517 340.667 202.574 340.863 202.671C340.865 202.672 340.87 202.675 340.878 202.679C340.888 202.685 340.903 202.692 340.92 202.702C340.956 202.721 341.005 202.749 341.068 202.784C341.196 202.854 341.377 202.955 341.609 203.084C342.074 203.343 342.741 203.717 343.581 204.187C345.263 205.128 347.639 206.46 350.477 208.051C356.152 211.233 363.673 215.455 371.179 219.667C378.685 223.88 386.177 228.086 391.791 231.238C394.598 232.814 396.937 234.127 398.573 235.045C399.392 235.505 400.035 235.866 400.473 236.112C400.692 236.235 400.86 236.33 400.973 236.393C401.029 236.425 401.072 236.449 401.101 236.465C401.115 236.473 401.126 236.479 401.133 236.483C401.137 236.485 401.14 236.487 401.142 236.488L401.144 236.489C401.145 236.487 401.157 236.467 401.267 236.271L401.144 236.49L401.155 236.496C401.336 236.585 401.379 236.691 401.379 236.766C401.379 236.853 401.323 236.993 401.127 237.142L341.819 271.537C341.628 271.63 341.293 271.689 340.928 271.689C340.565 271.689 340.231 271.631 340.039 271.539L280.894 236.982C280.693 236.831 280.636 236.689 280.636 236.601C280.636 236.526 280.678 236.42 280.859 236.331L280.873 236.323L280.748 236.106C280.873 236.323 280.874 236.323 280.874 236.323L280.876 236.322C280.878 236.321 280.88 236.319 280.884 236.317C280.891 236.313 280.901 236.306 280.915 236.298C280.943 236.282 280.985 236.259 281.039 236.227C281.149 236.164 281.311 236.07 281.524 235.948C281.948 235.703 282.571 235.343 283.363 234.886C284.948 233.972 287.214 232.666 289.933 231.097C295.371 227.96 302.628 223.776 309.9 219.583C317.171 215.391 324.457 211.191 329.956 208.024C332.706 206.441 335.009 205.116 336.639 204.179C337.454 203.711 338.1 203.339 338.551 203.082C338.776 202.953 338.953 202.852 339.076 202.782C339.138 202.747 339.186 202.72 339.221 202.701C339.238 202.691 339.251 202.684 339.261 202.678C339.268 202.674 339.272 202.672 339.274 202.671C339.47 202.574 339.76 202.517 340.068 202.517Z" fill="url(#paint0_linear_1_977)" stroke="black" stroke-width="0.5"/>
<path d="M356.738 58.5269V223.822H350.584V58.5269H356.738Z" stroke="black" stroke-width="0.5"/>
<path d="M373.373 187.725V201.246H367.219V187.725H373.373Z" stroke="black" stroke-width="0.5"/>
<path d="M323.468 -7.45825V6.06226H317.314V-7.45825H323.468Z" stroke="black" stroke-width="0.5"/>
<path d="M373.373 116.749V165.136H367.219V116.749H373.373Z" stroke="black" stroke-width="0.5"/>
<path d="M373.373 36.9016V50.4221H367.219V36.9016H373.373Z" stroke="black" stroke-width="0.5"/>
<path d="M356.738 22.4841V30.4597H350.584V22.4841H356.738Z" stroke="black" stroke-width="0.5"/>
<path d="M356.738 238.739V252.26H350.584V238.739H356.738Z" stroke="black" stroke-width="0.5"/>
<path d="M340.022 1.41333V133.993H333.868V1.41333H340.022Z" stroke="black" stroke-width="0.5"/>
<path d="M340.022 158.892V196.098H333.868V158.892H340.022Z" stroke="black" stroke-width="0.5"/>
<path d="M373.292 71.2803V100.724H367.138V71.2803H373.292Z" stroke="black" stroke-width="0.5"/>
<path d="M373.292 218.777V253.317L367.138 256.906V218.777H373.292Z" stroke="black" stroke-width="0.5"/>
<path d="M340.022 228.758V271.477L333.868 267.882V228.758H340.022Z" stroke="black" stroke-width="0.5"/>
<path d="M323.387 35.7925V147.301H317.233V35.7925H323.387Z" stroke="black" stroke-width="0.5"/>
<path opacity="0.7" d="M131.742 100.739L166.166 80.8105L329.188 172.946L294.537 192.875L131.742 100.739Z" fill="url(#paint1_linear_1_977)"/>
<path opacity="0.7" d="M523.967 125.73L499.311 111.495L382.552 177.306L407.37 191.541L523.967 125.73Z" fill="url(#paint2_linear_1_977)"/>
<defs>
<linearGradient id="paint0_linear_1_977" x1="298.723" y1="211.143" x2="387.706" y2="264.84" gradientUnits="userSpaceOnUse">
<stop stop-color="#A09D92"/>
<stop offset="1" stop-color="#F8F7F3"/>
</linearGradient>
<linearGradient id="paint1_linear_1_977" x1="161.604" y1="95.0874" x2="305.55" y2="183.034" gradientUnits="userSpaceOnUse">
<stop stop-color="#A09D92"/>
<stop offset="1" stop-color="#F8F7F3"/>
</linearGradient>
<linearGradient id="paint2_linear_1_977" x1="502.579" y1="121.693" x2="399.634" y2="184.759" gradientUnits="userSpaceOnUse">
<stop stop-color="#A09D92"/>
<stop offset="1" stop-color="#F8F7F3"/>
</linearGradient>
</defs>
</svg>
