<svg width="833" height="168" viewBox="0 0 833 168" fill="none" xmlns="http://www.w3.org/2000/svg">
<path d="M127 84L509 84" stroke="url(#paint0_linear_0_1)" stroke-width="2"/>
<g filter="url(#filter0_d_0_1)">
<path d="M42 84C42 57.4903 63.4903 36 90 36C116.51 36 138 57.4903 138 84C138 110.51 116.51 132 90 132C63.4903 132 42 110.51 42 84Z" fill="#0C0A09"/>
<g clip-path="url(#clip0_0_1)">
<path d="M86.1331 88.3758H87.9852V83.7738H86.1331V82.2921H89.836V84.3608H89.9516C90.0192 84.098 90.1113 83.8424 90.2267 83.5975C90.3452 83.3535 90.5016 83.1306 90.6899 82.9375C90.8896 82.737 91.1254 82.5776 91.3843 82.4684C91.6921 82.3435 92.0215 82.2836 92.3527 82.2921H93.1626V84.0533H91.6297C91.0707 84.0533 90.6305 84.2194 90.3092 84.5516C90.1499 84.7211 90.0255 84.9215 89.9435 85.1409C89.8615 85.3603 89.8235 85.5943 89.8316 85.829V88.3814H92.4209V89.8642H86.1287L86.1331 88.3758Z" fill="#B5B09B"/>
<path d="M82.3059 90.0348C81.7817 90.0432 81.2609 89.9483 80.772 89.7553C80.3399 89.5777 79.9504 89.3074 79.6297 88.9629C79.309 88.601 79.0631 88.1769 78.9068 87.7158C78.5784 86.6459 78.5784 85.4992 78.9068 84.4293C79.0631 83.9679 79.309 83.5434 79.6297 83.1811C79.9507 82.8369 80.3402 82.5667 80.772 82.3887C81.2611 82.1966 81.7818 82.1021 82.3059 82.1103C82.8249 82.103 83.3405 82.1975 83.8245 82.3887C84.2589 82.5616 84.6494 82.8325 84.9667 83.1811C85.2937 83.5387 85.5404 83.9646 85.6897 84.4293C86.0374 85.4961 86.0374 86.649 85.6897 87.7158C85.5403 88.1801 85.2936 88.6056 84.9667 88.9629C84.6497 89.3118 84.2591 89.5827 83.8245 89.7553C83.3407 89.9474 82.825 90.0423 82.3059 90.0348ZM82.3059 88.5958C82.8363 88.5958 83.2556 88.4346 83.5637 88.112C83.8718 87.7895 84.0263 87.3054 84.027 86.6596V85.4855C84.027 84.8487 83.8725 84.3694 83.5637 84.0477C83.2556 83.7147 82.8363 83.5482 82.3059 83.5482C81.7755 83.5482 81.3559 83.7147 81.0471 84.0477C80.7389 84.3694 80.5845 84.8487 80.5838 85.4855V86.6596C80.5838 87.2949 80.7382 87.779 81.0471 88.112C81.3559 88.445 81.7755 88.6063 82.3059 88.5958Z" fill="#B5B09B"/>
<path d="M75.1951 90.0348C74.4683 90.0516 73.7455 89.9219 73.068 89.6532C72.5204 89.4269 72.0378 89.0632 71.6649 88.5958L72.7499 87.598C73.0467 87.9314 73.4059 88.2008 73.8063 88.3904C74.2491 88.5845 74.7275 88.6798 75.2094 88.6699C75.673 88.6699 76.0442 88.5917 76.323 88.4353C76.4534 88.3694 76.5624 88.2664 76.6368 88.1387C76.7112 88.0111 76.7478 87.8642 76.7422 87.7158C76.7422 87.442 76.6465 87.2556 76.4528 87.1546C76.2203 87.0403 75.9714 86.9645 75.7156 86.9301L74.515 86.7393C74.2072 86.6912 73.9028 86.6226 73.6038 86.5339C73.3257 86.4419 73.0624 86.3083 72.8226 86.1377C72.5999 85.9713 72.417 85.7556 72.2878 85.5068C72.1454 85.2103 72.0759 84.8828 72.0853 84.5528C72.0853 83.7603 72.3743 83.1538 72.9524 82.7333C73.5305 82.3127 74.3356 82.1025 75.3678 82.1025C75.994 82.0856 76.6177 82.1903 77.2055 82.4111C77.6854 82.5953 78.1162 82.8917 78.4633 83.2765L77.4949 84.362C77.2504 84.104 76.9608 83.895 76.641 83.7457C76.2947 83.5601 75.8512 83.4673 75.3106 83.4673C74.3657 83.4673 73.8933 83.7667 73.8933 84.3653C73.8933 84.6392 73.989 84.83 74.1827 84.9378C74.4206 85.051 74.674 85.1267 74.9342 85.1623L76.1205 85.3531C76.4299 85.4016 76.7347 85.4767 77.0316 85.5776C77.312 85.6569 77.5765 85.7861 77.8129 85.9592C78.0422 86.1226 78.2307 86.3387 78.3631 86.59C78.5064 86.881 78.5761 87.204 78.5656 87.5295C78.5781 87.8893 78.5026 88.2467 78.3461 88.5694C78.1895 88.8921 77.9568 89.17 77.6688 89.3782C77.0804 89.8152 76.2559 90.0341 75.1951 90.0348Z" fill="#B5B09B"/>
<path d="M64.8875 89.8586V82.2865H66.7384V83.6222H66.811C66.974 83.213 67.2319 82.8502 67.5626 82.5649C67.9103 82.2618 68.3872 82.1103 68.9931 82.1103C69.7267 82.1103 70.3195 82.3599 70.7714 82.859C71.2233 83.3581 71.4551 84.0622 71.4668 84.9714V89.8586H69.617V85.2397C69.617 84.1442 69.1494 83.5961 68.214 83.5953C68.0282 83.5944 67.8431 83.6193 67.6638 83.6694C67.4922 83.7171 67.3307 83.7966 67.1873 83.904C67.0535 84.0016 66.9411 84.1266 66.8572 84.271C66.7783 84.4349 66.7405 84.6161 66.7472 84.7986V89.8619L64.8875 89.8586Z" fill="#B5B09B"/>
<path d="M54.9177 81.1989V89.8563H53.0371V81.1989H50V79.6162H57.9549V81.1989H54.9177Z" fill="#B5B09B"/>
<path d="M122.69 79H124.542V85.3677H124.629L125.714 84.1644L127.55 82.2865H129.706L126.735 85.2655L130.019 89.8586H127.806L125.419 86.3363L124.539 87.1871V89.8586H122.687L122.69 79Z" fill="#B5B09B"/>
<path d="M119.124 90.0348C118.6 90.0431 118.079 89.9482 117.591 89.7553C117.153 89.5804 116.758 89.31 116.433 88.9629C116.113 88.6004 115.867 88.1764 115.71 87.7158C115.382 86.6459 115.382 85.4992 115.71 84.4293C115.867 83.9683 116.113 83.544 116.433 83.1811C116.754 82.8366 117.144 82.5664 117.576 82.3887C118.065 82.1965 118.586 82.102 119.109 82.1103C119.899 82.1103 120.536 82.2768 121.018 82.6098C121.498 82.9379 121.878 83.3947 122.119 83.9298L120.688 84.7222C120.565 84.4158 120.366 84.1476 120.109 83.9444C119.868 83.739 119.535 83.6368 119.111 83.6368C118.561 83.6368 118.137 83.7981 117.838 84.1206C117.54 84.4431 117.395 84.8835 117.405 85.4417V86.6989C117.405 87.2466 117.549 87.687 117.838 88.02C118.127 88.353 118.561 88.5142 119.14 88.5038C119.58 88.5038 119.932 88.4009 120.196 88.1951C120.475 87.9786 120.698 87.6967 120.847 87.3735L122.235 88.2097C121.983 88.7501 121.587 89.2077 121.093 89.5308C120.59 89.8661 119.933 90.034 119.124 90.0348Z" fill="#B5B09B"/>
<path d="M111.752 90.0348C111.228 90.0431 110.708 89.9482 110.219 89.7553C109.787 89.5777 109.397 89.3075 109.076 88.9629C108.756 88.6004 108.51 88.1764 108.353 87.7158C108.025 86.6457 108.025 85.4994 108.353 84.4293C108.51 83.9683 108.756 83.544 109.076 83.1811C109.397 82.8369 109.787 82.5667 110.219 82.3887C111.204 82.0175 112.286 82.0175 113.27 82.3887C113.705 82.5619 114.096 82.8327 114.414 83.1811C114.741 83.5387 114.987 83.9646 115.137 84.4293C115.484 85.4961 115.484 86.649 115.137 87.7158C114.987 88.1801 114.741 88.6056 114.414 88.9629C114.096 89.3116 113.705 89.5825 113.27 89.7553C112.787 89.9473 112.271 90.0422 111.752 90.0348ZM111.752 88.5958C112.282 88.5958 112.702 88.4345 113.011 88.112C113.32 87.7895 113.474 87.3054 113.473 86.6596V85.4855C113.473 84.8487 113.319 84.3694 113.011 84.0476C112.702 83.7147 112.282 83.5482 111.752 83.5482C111.221 83.5482 110.802 83.7147 110.493 84.0476C110.185 84.3694 110.031 84.8487 110.031 85.4855V86.6596C110.031 87.2949 110.185 87.779 110.493 88.112C110.801 88.445 111.221 88.6063 111.752 88.5958Z" fill="#B5B09B"/>
<path d="M101.372 88.3758H103.744V81.0945H101.372V79.6129H105.596V88.3758H107.984V89.8586H101.374L101.372 88.3758Z" fill="#B5B09B"/>
<path d="M94.4061 79.6162H97.9208C98.8745 79.6162 99.6081 79.8605 100.122 80.3492C100.635 80.8378 100.896 81.4933 100.903 82.3157C100.903 82.9031 100.756 83.3727 100.463 83.7244C100.149 84.0989 99.7299 84.3654 99.2622 84.4877V84.5606C99.8696 84.7103 100.346 84.9793 100.693 85.3677C101.039 85.756 101.217 86.2989 101.228 86.9963C101.232 87.3987 101.157 87.7979 101.007 88.1704C100.875 88.5097 100.673 88.816 100.414 89.0684C100.151 89.3303 99.8355 89.5306 99.4889 89.6554C99.1007 89.7973 98.6907 89.8669 98.2784 89.8608H94.4017L94.4061 79.6162ZM97.7073 88.4645C98.2377 88.4645 98.6331 88.3665 98.8935 88.1704C99.1539 87.9743 99.289 87.6271 99.2985 87.1288V86.645C99.2985 86.1661 99.1635 85.8294 98.8935 85.6348C98.6236 85.4402 98.2282 85.3373 97.7073 85.3261H96.2602V88.469L97.7073 88.4645ZM97.4608 83.9882C97.9725 83.9882 98.3477 83.8961 98.5898 83.7098C98.8319 83.5235 98.9651 83.2013 98.9651 82.7411V82.2573C98.9651 81.7971 98.84 81.4743 98.5898 81.2887C98.3477 81.1023 97.9725 81.0103 97.4608 81.0103H96.2602V83.9882H97.4608Z" fill="#B5B09B"/>
<path d="M64.6872 86.5271C64.6993 86.3801 64.7048 86.2286 64.7048 86.0782C64.7126 85.5191 64.6243 84.9629 64.444 84.4349C64.2947 83.9702 64.048 83.5443 63.721 83.1867C63.4031 82.8383 63.0123 82.5675 62.5777 82.3943C61.5931 82.0232 60.5109 82.0232 59.5263 82.3943C59.0941 82.5723 58.7043 82.8425 58.3829 83.1867C58.063 83.5496 57.8172 83.9739 57.66 84.4349C57.3328 85.505 57.3328 86.6513 57.66 87.7214C57.8172 88.1821 58.063 88.606 58.3829 88.9685C58.704 89.3131 59.0939 89.5833 59.5263 89.7609C60.5106 90.1335 61.5934 90.1335 62.5777 89.7609C63.0126 89.5881 63.4034 89.3172 63.721 88.9685C64.0479 88.6112 64.2946 88.1857 64.444 87.7214C64.5145 87.5233 64.5697 87.3199 64.6091 87.1131H62.7505C62.7131 87.4861 62.5614 87.8376 62.3169 88.1177C62.0081 88.4409 61.5884 88.6022 61.058 88.6014C60.5276 88.6007 60.108 88.4394 59.7992 88.1177C59.4911 87.7854 59.337 87.3013 59.337 86.6652V86.5328L64.6872 86.5271ZM59.8003 84.0477C60.1091 83.7147 60.5287 83.5482 61.0591 83.5482C61.5895 83.5482 62.0092 83.7147 62.318 84.0477C62.614 84.3575 62.7659 84.8132 62.778 85.4126H59.3392C59.3524 84.8132 59.5043 84.3575 59.8003 84.0477Z" fill="#B5B09B"/>
</g>
</g>
<g filter="url(#filter1_d_0_1)">
<rect x="473" y="36" width="96" height="96" rx="48" fill="#0C0A09"/>
<path d="M521.357 90.4868H546.75C546.976 90.4868 547.192 90.3972 547.351 90.2376C547.511 90.0781 547.6 89.8618 547.6 89.6361V84.0061C547.6 83.9757 547.6 83.9465 547.6 83.9186C547.595 83.8775 547.587 83.8369 547.576 83.797C547.576 83.791 547.576 83.7849 547.576 83.7788C547.565 83.7372 547.551 83.6966 547.533 83.6573L547.526 83.6403C547.508 83.6017 547.487 83.5647 547.463 83.5297C547.439 83.4958 547.413 83.4637 547.385 83.4337L547.371 83.4179C547.342 83.3889 547.312 83.3617 547.28 83.3365L547.26 83.3231C547.226 83.2974 547.19 83.2747 547.152 83.2551L534.767 77.6298L534.748 77.6213L534.698 77.5982L534.665 77.5861L534.621 77.5715L534.579 77.5606L534.541 77.5533L534.49 77.5448H534.46H534.4H507.599L498.947 73.6209L546.749 73.6099C546.974 73.6099 547.191 73.5202 547.35 73.3607C547.509 73.2012 547.599 72.9848 547.599 72.7592V67.1352C547.598 67.1003 547.596 67.0654 547.592 67.0307V67.01C547.579 66.9235 547.553 66.8394 547.515 66.7609L547.508 66.7463C547.488 66.7093 547.466 66.6736 547.442 66.6394C547.438 66.6334 547.434 66.6278 547.429 66.6224C547.404 66.5883 547.377 66.5566 547.346 66.5276L547.335 66.5167C547.304 66.4872 547.27 66.46 547.235 66.4352C547.196 66.41 547.155 66.3872 547.113 66.3672H547.106L534.703 60.742C534.592 60.6921 534.473 60.6665 534.352 60.6666L495.012 60.6776C494.966 60.6779 494.921 60.682 494.877 60.6897H494.858C494.816 60.6977 494.776 60.7086 494.736 60.7226L494.718 60.7299C494.676 60.7434 494.635 60.7613 494.596 60.7833H494.587C494.55 60.8035 494.515 60.8271 494.482 60.8538L494.474 60.8599C494.442 60.8864 494.411 60.9153 494.383 60.9462L494.367 60.9632C494.34 60.9945 494.316 61.0279 494.294 61.0628C494.29 61.0686 494.286 61.0747 494.282 61.0811C494.26 61.1179 494.24 61.1565 494.224 61.1965V61.205C494.207 61.2476 494.193 61.2915 494.184 61.3362C494.174 61.3794 494.169 61.4233 494.167 61.4675C494.167 61.476 494.167 61.4845 494.167 61.493C494.167 61.5015 494.167 61.5076 494.167 61.5149V67.1401C494.167 67.3035 494.214 67.4633 494.302 67.6006C494.391 67.7379 494.517 67.8468 494.666 67.9142L503.483 71.9098H495.012C494.966 71.9101 494.921 71.9142 494.877 71.922H494.858C494.816 71.9304 494.776 71.9414 494.736 71.9548L494.718 71.9621C494.676 71.9767 494.636 71.9946 494.596 72.0156L494.587 72.0216C494.55 72.0423 494.515 72.0658 494.482 72.0921L494.474 72.0982C494.441 72.1248 494.411 72.1541 494.383 72.1857L494.367 72.2027C494.34 72.2334 494.316 72.2663 494.294 72.3011L494.282 72.3194C494.259 72.3583 494.24 72.3989 494.224 72.4409V72.4494C494.207 72.4919 494.193 72.5358 494.184 72.5806C494.174 72.6238 494.169 72.6677 494.167 72.7119C494.167 72.7204 494.167 72.7289 494.167 72.7374C494.167 72.7459 494.167 72.7507 494.167 72.758V78.3833C494.167 78.5468 494.214 78.707 494.302 78.8445C494.391 78.982 494.517 79.091 494.666 79.1586L503.483 83.1554H495.012C494.967 83.1559 494.922 83.1596 494.877 83.1664H494.858C494.816 83.1737 494.776 83.1847 494.736 83.1992L494.718 83.2064C494.676 83.2201 494.635 83.2376 494.596 83.2587H494.587C494.55 83.2798 494.515 83.3037 494.482 83.3304C494.479 83.3317 494.476 83.3338 494.474 83.3365C494.442 83.363 494.411 83.3918 494.383 83.4227L494.367 83.4398C494.34 83.4712 494.316 83.5044 494.294 83.5394C494.29 83.5452 494.286 83.5513 494.282 83.5576C494.259 83.5964 494.24 83.6371 494.224 83.6792V83.6877C494.207 83.7301 494.193 83.7741 494.184 83.8189C494.174 83.8621 494.169 83.906 494.167 83.9502C494.167 83.9587 494.167 83.9672 494.167 83.9757C494.167 83.9842 494.167 83.9902 494.167 83.9975V89.6228C494.167 89.7861 494.214 89.946 494.302 90.0833C494.391 90.2206 494.517 90.3294 494.666 90.3969L503.483 94.4095H495.012C494.966 94.4098 494.921 94.4139 494.877 94.4216H494.858C494.816 94.4301 494.776 94.4411 494.736 94.4545L494.718 94.4618C494.676 94.4759 494.635 94.4937 494.596 94.5152L494.587 94.5213C494.55 94.542 494.515 94.5655 494.482 94.5918H494.474C494.441 94.6184 494.411 94.6477 494.383 94.6793L494.367 94.6951C494.34 94.7264 494.316 94.7598 494.294 94.7947L494.282 94.8129C494.26 94.8499 494.24 94.8885 494.224 94.9284V94.9369C494.207 94.9795 494.193 95.0234 494.184 95.0681C494.174 95.1109 494.169 95.1544 494.167 95.1982C494.167 95.2067 494.167 95.2152 494.167 95.2249C494.167 95.2346 494.167 95.2383 494.167 95.2456V100.871C494.167 101.034 494.214 101.195 494.302 101.332C494.391 101.47 494.517 101.579 494.666 101.646L507.07 107.27C507.091 107.28 507.113 107.288 507.133 107.296L507.151 107.302C507.176 107.309 507.199 107.316 507.223 107.321H507.238C507.263 107.326 507.288 107.331 507.313 107.333H507.325C507.354 107.333 507.385 107.333 507.415 107.333H530.192C530.418 107.333 530.634 107.244 530.793 107.084C530.953 106.925 531.042 106.708 531.042 106.483V100.885C531.041 100.851 531.039 100.816 531.035 100.782V100.76C531.022 100.676 530.996 100.594 530.958 100.517L530.951 100.501C530.932 100.465 530.91 100.429 530.885 100.396L530.872 100.377C530.847 100.344 530.82 100.312 530.791 100.283L530.779 100.272C530.747 100.243 530.714 100.215 530.679 100.19C530.64 100.165 530.6 100.143 530.558 100.123H530.55L518.146 94.4994C518.036 94.4492 517.916 94.4231 517.795 94.4229H508.266V90.5002L521.357 90.4868ZM508.266 71.9098V67.9871L545.899 67.9761V71.8988L508.266 71.9098ZM534.158 62.3509L542.81 66.2748L507.599 66.2858L498.947 62.3619L534.158 62.3509ZM495.858 62.831L506.563 67.6845V71.442L495.858 66.5811V62.831ZM511.194 83.1554H508.266V79.2315H534.163L542.816 83.1554H511.194ZM495.861 74.0753L506.566 78.9289V82.6863L495.861 77.8328V74.0753ZM507.416 84.8567H545.899V88.7806H507.599L498.947 84.8567H507.416ZM495.861 85.3246L506.566 90.1854V93.9429L495.861 89.082V85.3246ZM495.861 96.575L506.566 101.429V105.186L495.861 100.332V96.575ZM508.266 105.655V101.736H529.344V105.66L508.266 105.655ZM517.607 96.1059L526.26 100.035H507.599L498.947 96.1108H517.607V96.1059Z" fill="#B5B09B"/>
</g>
<g filter="url(#filter2_d_0_1)">
<rect x="589" y="36" width="96" height="96" rx="48" fill="#0C0A09"/>
<path d="M637.345 90.2513H661.831C662.048 90.2513 662.256 90.1649 662.41 90.011C662.564 89.8572 662.65 89.6485 662.65 89.4309V84.0006C662.65 83.9713 662.65 83.9432 662.65 83.9162C662.645 83.8766 662.637 83.8375 662.627 83.799C662.627 83.7931 662.627 83.7872 662.627 83.7814C662.616 83.7413 662.602 83.7021 662.586 83.6642L662.579 83.6478C662.561 83.6106 662.541 83.5749 662.518 83.5411C662.495 83.5085 662.47 83.4775 662.443 83.4485L662.429 83.4333C662.401 83.4053 662.372 83.3791 662.341 83.3548L662.322 83.3419C662.289 83.3171 662.255 83.2952 662.218 83.2762L650.275 77.8506L650.257 77.8424L650.209 77.8202L650.177 77.8084L650.135 77.7944L650.094 77.7838L650.058 77.7768L650.008 77.7686H649.979H649.922H624.078L615.735 73.9839H641.077C641.294 73.9839 641.502 73.8975 641.656 73.7436C641.81 73.5897 641.896 73.3811 641.896 73.1635V67.739C641.895 67.7053 641.893 67.6717 641.889 67.6382V67.6183C641.877 67.5348 641.852 67.4538 641.815 67.378L641.808 67.364C641.789 67.3283 641.768 67.2938 641.745 67.2608C641.741 67.2551 641.737 67.2496 641.732 67.2444C641.708 67.2115 641.682 67.1809 641.653 67.153L641.642 67.1424C641.611 67.114 641.579 67.0878 641.545 67.0639C641.507 67.0395 641.468 67.0176 641.428 66.9983H641.421L629.46 61.5727C629.354 61.5246 629.239 61.4998 629.122 61.5H611.94C611.896 61.5003 611.853 61.5042 611.81 61.5117H611.791C611.751 61.5193 611.712 61.5299 611.674 61.5434L611.656 61.5504C611.616 61.5634 611.577 61.5807 611.539 61.602H611.53C611.494 61.6215 611.461 61.6442 611.429 61.6699L611.421 61.6758C611.39 61.7014 611.361 61.7292 611.333 61.759L611.318 61.7754C611.292 61.8057 611.269 61.8378 611.248 61.8715C611.244 61.8771 611.24 61.883 611.236 61.8891C611.214 61.9247 611.196 61.9619 611.18 62.0005V62.0087C611.164 62.0497 611.151 62.0921 611.141 62.1353C611.132 62.1769 611.127 62.2193 611.125 62.2619C611.125 62.2701 611.125 62.2783 611.125 62.2865C611.125 62.2947 611.125 62.3005 611.125 62.3076V67.7332C611.125 67.8907 611.171 68.0449 611.256 68.1773C611.341 68.3097 611.463 68.4147 611.606 68.4798L620.108 72.3336H611.94C611.896 72.3339 611.853 72.3379 611.81 72.3453H611.791C611.751 72.3535 611.712 72.3641 611.674 72.377L611.656 72.384C611.616 72.3981 611.577 72.4154 611.539 72.4356L611.53 72.4414C611.495 72.4614 611.461 72.4841 611.429 72.5094L611.421 72.5153C611.39 72.541 611.36 72.5692 611.333 72.5997L611.318 72.6161C611.292 72.6457 611.269 72.6775 611.248 72.711L611.236 72.7286C611.214 72.7661 611.196 72.8053 611.18 72.8458V72.854C611.164 72.895 611.151 72.9374 611.141 72.9806C611.132 73.0223 611.127 73.0646 611.125 73.1072C611.125 73.1154 611.125 73.1236 611.125 73.1318C611.125 73.14 611.125 73.1447 611.125 73.1517V78.5773C611.125 78.7351 611.17 78.8896 611.256 79.0222C611.341 79.1548 611.463 79.26 611.606 79.3251L620.108 83.1801H611.94C611.896 83.1806 611.853 83.1841 611.81 83.1907H611.791C611.751 83.1978 611.712 83.2084 611.674 83.2223L611.656 83.2293C611.616 83.2426 611.577 83.2594 611.539 83.2798H611.53C611.495 83.3001 611.461 83.3232 611.429 83.3489C611.426 83.3502 611.423 83.3522 611.421 83.3548C611.39 83.3804 611.361 83.4082 611.333 83.438L611.318 83.4544C611.292 83.4847 611.269 83.5168 611.248 83.5505C611.244 83.5561 611.24 83.562 611.236 83.5681C611.214 83.6055 611.195 83.6447 611.18 83.6853V83.6935C611.163 83.7345 611.151 83.7768 611.141 83.8201C611.132 83.8617 611.127 83.9041 611.125 83.9467C611.125 83.9549 611.125 83.9631 611.125 83.9713C611.125 83.9795 611.125 83.9853 611.125 83.9924V89.418C611.125 89.5755 611.171 89.7297 611.256 89.8621C611.341 89.9945 611.463 90.0996 611.606 90.1646L620.108 94.0349H611.94C611.896 94.0352 611.853 94.0391 611.81 94.0466H611.791C611.751 94.0547 611.712 94.0653 611.674 94.0782L611.656 94.0852C611.616 94.0988 611.577 94.1161 611.539 94.1368L611.53 94.1427C611.495 94.1626 611.461 94.1853 611.429 94.2107H611.421C611.39 94.2364 611.36 94.2646 611.333 94.2951L611.318 94.3103C611.292 94.3405 611.269 94.3727 611.248 94.4064L611.236 94.424C611.215 94.4596 611.196 94.4968 611.18 94.5353V94.5435C611.164 94.5846 611.151 94.6269 611.141 94.6701C611.132 94.7114 611.127 94.7533 611.125 94.7955C611.125 94.8037 611.125 94.8119 611.125 94.8213C611.125 94.8307 611.125 94.8342 611.125 94.8412V100.267C611.125 100.425 611.17 100.579 611.256 100.712C611.341 100.844 611.463 100.949 611.606 101.015L623.568 106.439C623.587 106.448 623.609 106.457 623.628 106.464L623.646 106.47C623.669 106.477 623.692 106.484 623.715 106.488H623.729C623.753 106.493 623.777 106.497 623.802 106.5H623.813C623.841 106.5 623.871 106.5 623.9 106.5H661.828C662.046 106.5 662.254 106.414 662.408 106.26C662.561 106.106 662.648 105.897 662.648 105.68V100.281C662.647 100.248 662.645 100.214 662.641 100.181V100.16C662.628 100.079 662.604 99.9996 662.567 99.9258L662.56 99.9105C662.541 99.875 662.52 99.841 662.497 99.8086L662.484 99.791C662.46 99.7586 662.434 99.7281 662.405 99.6995L662.394 99.689C662.363 99.6609 662.331 99.6347 662.298 99.6105C662.26 99.5862 662.221 99.5647 662.181 99.546H662.174L650.212 94.1216C650.106 94.0731 649.991 94.0479 649.874 94.0477H624.721V90.2642L637.345 90.2513ZM624.721 72.3336V68.5501H640.257V72.3336H624.721ZM628.935 63.1245L637.278 66.9092H624.078L615.735 63.1245H628.935ZM612.756 63.5769L623.078 68.2583V71.8824L612.756 67.194V63.5769ZM627.544 83.1801H624.721V79.3954H649.692L658.037 83.1801H627.544ZM612.759 74.4223L623.082 79.1036V82.7277L612.759 78.0464V74.4223ZM623.901 84.821H661.01V88.6057H624.078L615.735 84.821H623.901ZM612.759 85.2723L623.082 89.9607V93.5848L612.759 88.8964V85.2723ZM612.759 96.1235L623.082 100.805V104.429L612.759 99.7476V96.1235ZM624.721 104.881V101.101H661.01V104.886L624.721 104.881ZM649.692 95.6711L658.037 99.4604H624.078L615.735 95.6758H649.692V95.6711Z" fill="#B5B09B"/>
</g>
<g filter="url(#filter3_d_0_1)">
<rect x="705" y="36" width="96" height="96" rx="48" fill="#0C0A09"/>
<path d="M746.518 84.357V109.751C746.518 109.977 746.607 110.192 746.768 110.35C746.926 110.509 747.143 110.6 747.37 110.6H753.089C753.131 110.595 753.17 110.586 753.21 110.577C753.217 110.577 753.222 110.577 753.229 110.577C753.271 110.565 753.31 110.551 753.35 110.535L753.366 110.528C753.406 110.509 753.441 110.488 753.476 110.465C753.511 110.441 753.541 110.416 753.572 110.388L753.588 110.374C753.616 110.346 753.644 110.315 753.67 110.283L753.684 110.264C753.709 110.229 753.733 110.194 753.751 110.157L759.377 97.7713L759.386 97.7526L759.41 97.7036L759.421 97.671L759.435 97.6266L759.447 97.5846L759.454 97.5473L759.463 97.496V70.5996L763.388 61.9476V109.751C763.388 109.977 763.477 110.192 763.638 110.35C763.796 110.509 764.013 110.6 764.24 110.6H769.865C769.9 110.6 769.935 110.598 769.97 110.593H769.991C770.078 110.581 770.162 110.556 770.241 110.516L770.255 110.509C770.292 110.49 770.327 110.467 770.362 110.444C770.369 110.439 770.374 110.434 770.379 110.43C770.414 110.406 770.444 110.378 770.474 110.348L770.486 110.336C770.516 110.304 770.542 110.271 770.568 110.236C770.593 110.196 770.617 110.157 770.635 110.115V110.108L776.261 97.7036C776.31 97.594 776.336 97.4726 776.336 97.3536V58.0113C776.336 57.967 776.331 57.9203 776.324 57.876V57.8573C776.317 57.8153 776.305 57.7756 776.291 57.736L776.284 57.7173C776.27 57.6753 776.254 57.6333 776.231 57.596V57.5866C776.21 57.5493 776.186 57.5143 776.161 57.4816L776.154 57.4723C776.128 57.4396 776.098 57.4093 776.067 57.3813L776.051 57.365C776.021 57.3393 775.986 57.3136 775.951 57.2926C775.946 57.288 775.939 57.2833 775.932 57.281C775.895 57.2576 775.857 57.239 775.818 57.2226H775.808C775.766 57.2063 775.722 57.1923 775.678 57.183C775.633 57.1736 775.591 57.169 775.547 57.1666H769.872C769.709 57.1666 769.548 57.2133 769.413 57.302C769.275 57.3906 769.165 57.5166 769.1 57.666L765.103 66.4836V58.0113C765.103 57.967 765.098 57.9203 765.091 57.876V57.8573C765.082 57.8153 765.073 57.7756 765.059 57.736L765.052 57.7173C765.038 57.6753 765.019 57.6356 764.998 57.596L764.991 57.5866C764.97 57.5493 764.947 57.5143 764.921 57.4816L764.914 57.4723C764.888 57.4396 764.858 57.4093 764.825 57.3813L764.809 57.365C764.779 57.337 764.746 57.3136 764.711 57.2926L764.692 57.281C764.653 57.2576 764.613 57.239 764.571 57.2226H764.562C764.52 57.2063 764.475 57.1923 764.431 57.183C764.387 57.1736 764.345 57.169 764.3 57.1666H758.628C758.465 57.1666 758.304 57.2133 758.166 57.302C758.028 57.3906 757.919 57.5166 757.851 57.666L753.854 66.4836V58.0113C753.854 57.967 753.849 57.9203 753.842 57.876V57.8573C753.835 57.8153 753.824 57.7756 753.81 57.736L753.803 57.7173C753.789 57.6753 753.772 57.6356 753.751 57.596V57.5866C753.73 57.5493 753.707 57.5143 753.679 57.4816C753.679 57.4793 753.677 57.4746 753.672 57.4723C753.646 57.4396 753.616 57.4093 753.586 57.3813L753.569 57.365C753.539 57.3393 753.504 57.3136 753.469 57.2926C753.464 57.288 753.457 57.2833 753.45 57.281C753.411 57.2576 753.371 57.239 753.329 57.2226H753.32C753.278 57.2063 753.233 57.1923 753.189 57.183C753.145 57.1736 753.103 57.169 753.058 57.1666H747.384C747.22 57.1666 747.059 57.2133 746.924 57.302C746.786 57.3906 746.677 57.5166 746.611 57.666L742.598 66.4836V58.0113C742.598 57.967 742.593 57.9203 742.586 57.876V57.8573C742.577 57.8153 742.568 57.7756 742.554 57.736L742.547 57.7173C742.533 57.6753 742.514 57.6356 742.493 57.596L742.486 57.5866C742.465 57.5493 742.442 57.5143 742.416 57.4816V57.4723C742.39 57.4396 742.36 57.4093 742.327 57.3813L742.311 57.365C742.281 57.3393 742.246 57.3136 742.211 57.2926L742.192 57.281C742.155 57.2576 742.117 57.239 742.075 57.2226H742.066C742.024 57.2063 741.98 57.1923 741.935 57.183C741.893 57.1736 741.849 57.169 741.805 57.1666H736.13C735.967 57.1666 735.806 57.2133 735.668 57.302C735.53 57.3906 735.421 57.5166 735.353 57.666L729.73 70.07C729.72 70.091 729.711 70.112 729.704 70.133L729.697 70.1516C729.69 70.175 729.683 70.1983 729.678 70.224V70.238C729.674 70.2636 729.669 70.287 729.667 70.3126V109.748C729.667 109.975 729.755 110.189 729.916 110.348C730.075 110.507 730.292 110.598 730.518 110.598H736.116C736.151 110.598 736.186 110.595 736.219 110.591H736.24C736.324 110.579 736.405 110.553 736.482 110.514L736.499 110.507C736.536 110.488 736.571 110.465 736.604 110.441L736.622 110.427C736.655 110.402 736.688 110.376 736.718 110.346L736.73 110.334C736.758 110.301 736.786 110.269 736.811 110.234C736.837 110.194 736.858 110.154 736.879 110.112V110.105L742.505 97.7013C742.556 97.5916 742.582 97.4703 742.582 97.3513V71.2646H746.506L746.52 84.357H746.518ZM765.098 71.2646H769.023V108.899H765.098V71.2646ZM774.649 97.16L770.724 105.812V70.5996L774.649 61.9476V97.16ZM774.18 58.8583L769.324 69.5636H765.565L770.428 58.8583H774.18ZM753.849 74.193V71.2646H757.774V97.1623L753.849 105.817V74.193ZM762.933 58.8606L758.077 69.566H754.318L759.174 58.8606H762.933ZM752.148 70.4153V108.899H748.224V70.5996L752.148 61.9476V70.4153ZM751.682 58.8606L746.819 69.566H743.06L747.923 58.8606H751.682ZM740.428 58.8606L735.572 69.566H731.816L736.669 58.8606H740.428ZM731.344 71.2646H735.264V108.899H731.34L731.344 71.2646ZM740.897 97.1623L736.968 105.817V70.5996L740.892 61.9476V97.1623H740.897Z" fill="#B5B09B"/>
</g>
<defs>
<filter id="filter0_d_0_1" x="0.839998" y="-5.16" width="178.32" height="178.32" filterUnits="userSpaceOnUse" color-interpolation-filters="sRGB">
<feFlood flood-opacity="0" result="BackgroundImageFix"/>
<feColorMatrix in="SourceAlpha" type="matrix" values="0 0 0 0 0 0 0 0 0 0 0 0 0 0 0 0 0 0 127 0" result="hardAlpha"/>
<feMorphology radius="2.4" operator="dilate" in="SourceAlpha" result="effect1_dropShadow_0_1"/>
<feOffset/>
<feGaussianBlur stdDeviation="19.38"/>
<feComposite in2="hardAlpha" operator="out"/>
<feColorMatrix type="matrix" values="0 0 0 0 0.88375 0 0 0 0 0.798356 0 0 0 0 0.46625 0 0 0 0.5 0"/>
<feBlend mode="normal" in2="BackgroundImageFix" result="effect1_dropShadow_0_1"/>
<feBlend mode="normal" in="SourceGraphic" in2="effect1_dropShadow_0_1" result="shape"/>
</filter>
<filter id="filter1_d_0_1" x="431.84" y="-5.16" width="178.32" height="178.32" filterUnits="userSpaceOnUse" color-interpolation-filters="sRGB">
<feFlood flood-opacity="0" result="BackgroundImageFix"/>
<feColorMatrix in="SourceAlpha" type="matrix" values="0 0 0 0 0 0 0 0 0 0 0 0 0 0 0 0 0 0 127 0" result="hardAlpha"/>
<feMorphology radius="2.4" operator="dilate" in="SourceAlpha" result="effect1_dropShadow_0_1"/>
<feOffset/>
<feGaussianBlur stdDeviation="19.38"/>
<feComposite in2="hardAlpha" operator="out"/>
<feColorMatrix type="matrix" values="0 0 0 0 0.682353 0 0 0 0 0.647059 0 0 0 0 0.509804 0 0 0 0.5 0"/>
<feBlend mode="normal" in2="BackgroundImageFix" result="effect1_dropShadow_0_1"/>
<feBlend mode="normal" in="SourceGraphic" in2="effect1_dropShadow_0_1" result="shape"/>
</filter>
<filter id="filter2_d_0_1" x="547.84" y="-5.16" width="178.32" height="178.32" filterUnits="userSpaceOnUse" color-interpolation-filters="sRGB">
<feFlood flood-opacity="0" result="BackgroundImageFix"/>
<feColorMatrix in="SourceAlpha" type="matrix" values="0 0 0 0 0 0 0 0 0 0 0 0 0 0 0 0 0 0 127 0" result="hardAlpha"/>
<feMorphology radius="2.4" operator="dilate" in="SourceAlpha" result="effect1_dropShadow_0_1"/>
<feOffset/>
<feGaussianBlur stdDeviation="19.38"/>
<feComposite in2="hardAlpha" operator="out"/>
<feColorMatrix type="matrix" values="0 0 0 0 0.682353 0 0 0 0 0.647059 0 0 0 0 0.509804 0 0 0 0.5 0"/>
<feBlend mode="normal" in2="BackgroundImageFix" result="effect1_dropShadow_0_1"/>
<feBlend mode="normal" in="SourceGraphic" in2="effect1_dropShadow_0_1" result="shape"/>
</filter>
<filter id="filter3_d_0_1" x="663.84" y="-5.16" width="178.32" height="178.32" filterUnits="userSpaceOnUse" color-interpolation-filters="sRGB">
<feFlood flood-opacity="0" result="BackgroundImageFix"/>
<feColorMatrix in="SourceAlpha" type="matrix" values="0 0 0 0 0 0 0 0 0 0 0 0 0 0 0 0 0 0 127 0" result="hardAlpha"/>
<feMorphology radius="2.4" operator="dilate" in="SourceAlpha" result="effect1_dropShadow_0_1"/>
<feOffset/>
<feGaussianBlur stdDeviation="19.38"/>
<feComposite in2="hardAlpha" operator="out"/>
<feColorMatrix type="matrix" values="0 0 0 0 0.682353 0 0 0 0 0.647059 0 0 0 0 0.509804 0 0 0 0.5 0"/>
<feBlend mode="normal" in2="BackgroundImageFix" result="effect1_dropShadow_0_1"/>
<feBlend mode="normal" in="SourceGraphic" in2="effect1_dropShadow_0_1" result="shape"/>
</filter>
<linearGradient id="paint0_linear_0_1" x1="127" y1="87.9998" x2="505.942" y2="87.9997" gradientUnits="userSpaceOnUse">
<stop stop-color="#696352"/>
<stop offset="1" stop-color="#332E1E"/>
</linearGradient>
<clipPath id="clip0_0_1">
<rect width="80" height="11" fill="white" transform="translate(50 79)"/>
</clipPath>
</defs>
</svg>
