<svg width="421" height="305" viewBox="0 0 421 305" fill="none" xmlns="http://www.w3.org/2000/svg">
<g opacity="0.4">
<path fill-rule="evenodd" clip-rule="evenodd" d="M521.177 220.834L454.543 182.353L392.418 -117.61H654.828L588.993 181.426L521.177 220.834Z" fill="url(#paint0_linear_316_2888)" fill-opacity="0.8"/>
</g>
<g opacity="0.4">
<path d="M297.968 -32.8689V0.137993L326.024 16.6414V-17.1906L297.968 -32.8689Z" stroke="black" stroke-width="0.5" stroke-linejoin="bevel"/>
<path d="M326.024 -17.1902L354.08 -33.6936V-0.521691L326.024 16.6419V-17.1902Z" stroke="black" stroke-width="0.5" stroke-linejoin="bevel"/>
<path d="M253.669 -9.68747L281.725 -26.1909L309.781 -10.5126L281.725 5.9908L253.669 -9.68747Z" stroke="black" stroke-width="0.5" stroke-linejoin="bevel"/>
<path d="M258.62 -9.34958L281.725 -22.8909L304.83 -10.0266L281.725 3.51464L258.62 -9.34958Z" stroke="black" stroke-width="0.5" stroke-linejoin="bevel"/>
<path d="M281.725 -9.68811V-22.8909L304.83 -10.0266L281.725 3.51464V-9.68811Z" stroke="black" stroke-width="0.5" stroke-linejoin="bevel"/>
<path d="M253.669 -9.68799V23.3189L281.725 39.8223V5.99028L253.669 -9.68799Z" stroke="black" stroke-width="0.5" stroke-linejoin="bevel"/>
<path d="M281.725 5.99074L309.781 -10.5127V22.6592L281.725 39.8228V5.99074Z" stroke="black" stroke-width="0.5" stroke-linejoin="bevel"/>
<path d="M342.475 -9.68747L370.531 -26.1909L398.587 -10.5126L370.531 5.9908L342.475 -9.68747Z" stroke="black" stroke-width="0.5" stroke-linejoin="bevel"/>
<path d="M347.427 -9.34958L370.531 -22.8909L393.636 -10.0266L370.531 3.51464L347.427 -9.34958Z" stroke="black" stroke-width="0.5" stroke-linejoin="bevel"/>
<path d="M370.531 -9.68811V-22.8909L393.636 -10.0266L370.531 3.51464V-9.68811Z" stroke="black" stroke-width="0.5" stroke-linejoin="bevel"/>
<path d="M342.475 -9.68799V23.3189L370.531 39.8223V5.99028L342.475 -9.68799Z" stroke="black" stroke-width="0.5" stroke-linejoin="bevel"/>
<path d="M370.531 5.99074L398.587 -10.5127V22.6592L370.531 39.8228V5.99074Z" stroke="black" stroke-width="0.5" stroke-linejoin="bevel"/>
<path d="M297.968 16.2749L326.024 -0.228516L354.08 15.4498L326.024 31.9532L297.968 16.2749Z" stroke="black" stroke-width="0.5" stroke-linejoin="bevel"/>
<path d="M302.919 16.6136L326.024 3.07227L349.129 15.9365L326.024 29.4778L302.919 16.6136Z" stroke="black" stroke-width="0.5" stroke-linejoin="bevel"/>
<path d="M326.024 16.275V3.07227L349.129 15.9365L326.024 29.4778V16.275Z" stroke="black" stroke-width="0.5" stroke-linejoin="bevel"/>
<path d="M297.968 16.2751V49.282L326.024 65.7855V31.9534L297.968 16.2751Z" stroke="black" stroke-width="0.5" stroke-linejoin="bevel"/>
<path d="M326.024 31.9536L354.08 15.4502V48.6221L326.024 65.7857V31.9536Z" stroke="black" stroke-width="0.5" stroke-linejoin="bevel"/>
<path fill-rule="evenodd" clip-rule="evenodd" d="M325.657 29.4436L259.024 -9.03702L196.898 -309H459.308L393.474 -9.96426L325.657 29.4436Z" fill="url(#paint1_linear_316_2888)" fill-opacity="0.8"/>
</g>
<g opacity="0.4">
<path d="M295.214 73.1531L323.27 56.6497L351.326 72.3279L323.27 88.8314L295.214 73.1531Z" stroke="black" stroke-width="0.5" stroke-linejoin="bevel"/>
<path d="M300.165 73.4912L323.27 59.95L346.375 72.8142L323.27 86.3555L300.165 73.4912Z" stroke="black" stroke-width="0.5" stroke-linejoin="bevel"/>
<path d="M323.27 73.1527V59.95L346.375 72.8142L323.27 86.3555V73.1527Z" stroke="black" stroke-width="0.5" stroke-linejoin="bevel"/>
<path d="M295.214 73.1528V106.16L323.27 122.663V88.8311L295.214 73.1528Z" stroke="black" stroke-width="0.5" stroke-linejoin="bevel"/>
<path d="M323.27 88.8316L351.326 72.3281V105.5L323.27 122.664V88.8316Z" stroke="black" stroke-width="0.5" stroke-linejoin="bevel"/>
<path d="M250.916 96.334L278.972 79.8306L307.027 95.5088L278.972 112.012L250.916 96.334Z" stroke="black" stroke-width="0.5" stroke-linejoin="bevel"/>
<path d="M255.867 96.6724L278.972 83.1311L302.076 95.9953L278.972 109.537L255.867 96.6724Z" stroke="black" stroke-width="0.5" stroke-linejoin="bevel"/>
<path d="M278.972 96.3339V83.1311L302.077 95.9953L278.972 109.537V96.3339Z" stroke="black" stroke-width="0.5" stroke-linejoin="bevel"/>
<path d="M250.916 96.334V129.341L278.972 145.844V112.012L250.916 96.334Z" stroke="black" stroke-width="0.5" stroke-linejoin="bevel"/>
<path d="M278.972 112.012L307.028 95.509V128.681L278.972 145.845V112.012Z" stroke="black" stroke-width="0.5" stroke-linejoin="bevel"/>
<path d="M339.722 96.334L367.778 79.8306L395.834 95.5088L367.778 112.012L339.722 96.334Z" stroke="black" stroke-width="0.5" stroke-linejoin="bevel"/>
<path d="M344.673 96.6724L367.778 83.1311L390.883 95.9953L367.778 109.537L344.673 96.6724Z" stroke="black" stroke-width="0.5" stroke-linejoin="bevel"/>
<path d="M367.778 96.3339V83.1311L390.883 95.9953L367.778 109.537V96.3339Z" stroke="black" stroke-width="0.5" stroke-linejoin="bevel"/>
<path d="M339.722 96.334V129.341L367.778 145.844V112.012L339.722 96.334Z" stroke="black" stroke-width="0.5" stroke-linejoin="bevel"/>
<path d="M367.778 112.012L395.834 95.509V128.681L367.778 145.845V112.012Z" stroke="black" stroke-width="0.5" stroke-linejoin="bevel"/>
<path d="M295.214 122.297L323.27 105.793L351.326 121.472L323.27 137.975L295.214 122.297Z" stroke="black" stroke-width="0.5" stroke-linejoin="bevel"/>
<path d="M300.165 122.635L323.27 109.094L346.375 121.958L323.27 135.499L300.165 122.635Z" stroke="black" stroke-width="0.5" stroke-linejoin="bevel"/>
<path d="M323.27 122.297V109.094L346.375 121.958L323.27 135.499V122.297Z" stroke="black" stroke-width="0.5" stroke-linejoin="bevel"/>
<path d="M295.214 122.297V155.304L323.27 171.807V137.975L295.214 122.297Z" stroke="black" stroke-width="0.5" stroke-linejoin="bevel"/>
<path d="M323.27 137.975L351.326 121.472V154.644L323.27 171.807V137.975Z" stroke="black" stroke-width="0.5" stroke-linejoin="bevel"/>
<path fill-rule="evenodd" clip-rule="evenodd" d="M322.903 135.466L256.27 96.985L194.145 -202.978H456.554L390.72 96.0577L322.903 135.466Z" fill="url(#paint2_linear_316_2888)" fill-opacity="0.8"/>
</g>
<g opacity="0.4">
<path d="M112.085 29.0921L140.141 12.5886L168.197 28.2669L140.141 44.7703L112.085 29.0921Z" stroke="black" stroke-width="0.5" stroke-linejoin="bevel"/>
<path d="M117.036 29.43L140.141 15.8887L163.246 28.7529L140.141 42.2942L117.036 29.43Z" stroke="black" stroke-width="0.5" stroke-linejoin="bevel"/>
<path d="M140.141 29.0914V15.8887L163.246 28.7529L140.141 42.2942V29.0914Z" stroke="black" stroke-width="0.5" stroke-linejoin="bevel"/>
<path d="M112.085 29.0916V62.0984L140.141 78.6019V44.7698L112.085 29.0916Z" stroke="black" stroke-width="0.5" stroke-linejoin="bevel"/>
<path d="M140.141 44.7703L168.197 28.2668V61.4388L140.141 78.6023V44.7703Z" stroke="black" stroke-width="0.5" stroke-linejoin="bevel"/>
<path d="M67.7865 52.273L95.8424 35.7695L123.898 51.4478L95.8424 67.9512L67.7865 52.273Z" stroke="black" stroke-width="0.5" stroke-linejoin="bevel"/>
<path d="M72.7375 52.6116L95.8424 39.0703L118.947 51.9345L95.8424 65.4758L72.7375 52.6116Z" stroke="black" stroke-width="0.5" stroke-linejoin="bevel"/>
<path d="M95.8425 52.2731V39.0703L118.947 51.9345L95.8425 65.4758V52.2731Z" stroke="black" stroke-width="0.5" stroke-linejoin="bevel"/>
<path d="M67.7865 52.2732V85.2801L95.8424 101.784V67.9515L67.7865 52.2732Z" stroke="black" stroke-width="0.5" stroke-linejoin="bevel"/>
<path d="M95.8425 67.9514L123.898 51.448V84.6199L95.8425 101.784V67.9514Z" stroke="black" stroke-width="0.5" stroke-linejoin="bevel"/>
<path d="M156.593 52.273L184.649 35.7695L212.704 51.4478L184.649 67.9512L156.593 52.273Z" stroke="black" stroke-width="0.5" stroke-linejoin="bevel"/>
<path d="M161.544 52.6116L184.649 39.0703L207.753 51.9345L184.649 65.4758L161.544 52.6116Z" stroke="black" stroke-width="0.5" stroke-linejoin="bevel"/>
<path d="M184.649 52.2731V39.0703L207.753 51.9345L184.649 65.4758V52.2731Z" stroke="black" stroke-width="0.5" stroke-linejoin="bevel"/>
<path d="M156.593 52.2732V85.2801L184.649 101.784V67.9515L156.593 52.2732Z" stroke="black" stroke-width="0.5" stroke-linejoin="bevel"/>
<path d="M184.649 67.9514L212.704 51.448V84.6199L184.649 101.784V67.9514Z" stroke="black" stroke-width="0.5" stroke-linejoin="bevel"/>
<path d="M112.085 78.2359L140.141 61.7324L168.197 77.4107L140.141 93.9141L112.085 78.2359Z" stroke="black" stroke-width="0.5" stroke-linejoin="bevel"/>
<path d="M117.036 78.5742L140.141 65.033L163.246 77.8972L140.141 91.4385L117.036 78.5742Z" stroke="black" stroke-width="0.5" stroke-linejoin="bevel"/>
<path d="M140.141 78.2357V65.033L163.246 77.8972L140.141 91.4385V78.2357Z" stroke="black" stroke-width="0.5" stroke-linejoin="bevel"/>
<path d="M112.085 78.2361V111.243L140.141 127.746V93.9144L112.085 78.2361Z" stroke="black" stroke-width="0.5" stroke-linejoin="bevel"/>
<path d="M140.141 93.9146L168.197 77.4111V110.583L140.141 127.747V93.9146Z" stroke="black" stroke-width="0.5" stroke-linejoin="bevel"/>
<path fill-rule="evenodd" clip-rule="evenodd" d="M139.774 91.4045L73.1409 52.9239L11.0156 -247.039H273.425L207.591 51.9967L139.774 91.4045Z" fill="url(#paint3_linear_316_2888)" fill-opacity="0.8"/>
</g>
<g opacity="0.4">
<path fill-rule="evenodd" clip-rule="evenodd" d="M495.017 91.4045L428.383 52.9239L366.258 -247.039H628.668L562.833 51.9967L495.017 91.4045Z" fill="url(#paint4_linear_316_2888)" fill-opacity="0.8"/>
</g>
<g opacity="0.4">
<path d="M101.069 158.521L129.125 142.018L157.181 157.696L129.125 174.2L101.069 158.521Z" stroke="black" stroke-width="0.5" stroke-linejoin="bevel"/>
<path d="M106.021 158.86L129.125 145.318L152.23 158.183L129.125 171.724L106.021 158.86Z" stroke="black" stroke-width="0.5" stroke-linejoin="bevel"/>
<path d="M129.125 158.521V145.318L152.23 158.183L129.125 171.724V158.521Z" stroke="black" stroke-width="0.5" stroke-linejoin="bevel"/>
<path d="M101.069 158.521V191.528L129.125 208.032V174.2L101.069 158.521Z" stroke="black" stroke-width="0.5" stroke-linejoin="bevel"/>
<path d="M129.125 174.2L157.181 157.697V190.868L129.125 208.032V174.2Z" stroke="black" stroke-width="0.5" stroke-linejoin="bevel"/>
<path d="M56.7711 181.702L84.8269 165.199L112.883 180.877L84.8269 197.38L56.7711 181.702Z" stroke="black" stroke-width="0.5" stroke-linejoin="bevel"/>
<path d="M61.7219 182.04L84.8267 168.499L107.932 181.363L84.8267 194.905L61.7219 182.04Z" stroke="black" stroke-width="0.5" stroke-linejoin="bevel"/>
<path d="M84.8269 181.702V168.499L107.932 181.363L84.8269 194.905V181.702Z" stroke="black" stroke-width="0.5" stroke-linejoin="bevel"/>
<path d="M56.771 181.702V214.709L84.8269 231.212V197.38L56.771 181.702Z" stroke="black" stroke-width="0.5" stroke-linejoin="bevel"/>
<path d="M84.8269 197.381L112.883 180.877V214.049L84.8269 231.213V197.381Z" stroke="black" stroke-width="0.5" stroke-linejoin="bevel"/>
<path d="M145.577 181.702L173.633 165.199L201.689 180.877L173.633 197.38L145.577 181.702Z" stroke="black" stroke-width="0.5" stroke-linejoin="bevel"/>
<path d="M150.528 182.04L173.633 168.499L196.738 181.363L173.633 194.905L150.528 182.04Z" stroke="black" stroke-width="0.5" stroke-linejoin="bevel"/>
<path d="M173.633 181.702V168.499L196.738 181.363L173.633 194.905V181.702Z" stroke="black" stroke-width="0.5" stroke-linejoin="bevel"/>
<path d="M145.577 181.702V214.709L173.633 231.212V197.38L145.577 181.702Z" stroke="black" stroke-width="0.5" stroke-linejoin="bevel"/>
<path d="M173.633 197.381L201.689 180.877V214.049L173.633 231.213V197.381Z" stroke="black" stroke-width="0.5" stroke-linejoin="bevel"/>
<path d="M101.069 207.665L129.125 191.162L157.181 206.84L129.125 223.344L101.069 207.665Z" stroke="black" stroke-width="0.5" stroke-linejoin="bevel"/>
<path d="M106.021 208.003L129.125 194.462L152.23 207.326L129.125 220.868L106.021 208.003Z" stroke="black" stroke-width="0.5" stroke-linejoin="bevel"/>
<path d="M129.125 207.665V194.462L152.23 207.326L129.125 220.868V207.665Z" stroke="black" stroke-width="0.5" stroke-linejoin="bevel"/>
<path d="M101.069 207.665V240.672L129.125 257.176V223.344L101.069 207.665Z" stroke="black" stroke-width="0.5" stroke-linejoin="bevel"/>
<path d="M129.125 223.344L157.181 206.84V240.012L129.125 257.176V223.344Z" stroke="black" stroke-width="0.5" stroke-linejoin="bevel"/>
<path fill-rule="evenodd" clip-rule="evenodd" d="M128.759 220.834L62.1253 182.353L0 -117.61H262.41L196.575 181.426L128.759 220.834Z" fill="url(#paint5_linear_316_2888)" fill-opacity="0.8"/>
</g>
<path d="M282.268 190.54L323.929 166.033L365.591 189.315L323.929 213.822L282.268 190.54Z" stroke="black" stroke-width="0.5" stroke-linejoin="bevel"/>
<path d="M289.62 191.043L323.929 170.935L358.238 190.038L323.929 210.146L289.62 191.043Z" stroke="black" stroke-width="0.5" stroke-linejoin="bevel"/>
<path d="M323.929 190.54V170.935L358.239 190.038L323.929 210.146V190.54Z" stroke="black" stroke-width="0.5" stroke-linejoin="bevel"/>
<path d="M282.268 190.54V239.554L323.929 264.061V213.822L282.268 190.54Z" stroke="black" stroke-width="0.5" stroke-linejoin="bevel"/>
<path d="M323.929 213.822L365.591 189.315V238.574L323.929 264.061V213.822Z" stroke="black" stroke-width="0.5" stroke-linejoin="bevel"/>
<path d="M216.486 224.963L258.148 200.456L299.809 223.738L258.148 248.245L216.486 224.963Z" stroke="black" stroke-width="0.5" stroke-linejoin="bevel"/>
<path d="M223.838 225.466L258.148 205.358L292.457 224.46L258.148 244.569L223.838 225.466Z" stroke="black" stroke-width="0.5" stroke-linejoin="bevel"/>
<path d="M258.148 224.963V205.358L292.457 224.46L258.148 244.569V224.963Z" stroke="black" stroke-width="0.5" stroke-linejoin="bevel"/>
<path d="M216.486 224.963V273.977L258.148 298.483V248.245L216.486 224.963Z" stroke="black" stroke-width="0.5" stroke-linejoin="bevel"/>
<path d="M258.148 248.245L299.809 223.738V272.997L258.148 298.484V248.245Z" stroke="black" stroke-width="0.5" stroke-linejoin="bevel"/>
<path d="M348.359 224.963L390.021 200.456L431.682 223.738L390.021 248.245L348.359 224.963Z" stroke="black" stroke-width="0.5" stroke-linejoin="bevel"/>
<path d="M355.711 225.466L390.021 205.358L424.33 224.46L390.021 244.569L355.711 225.466Z" stroke="black" stroke-width="0.5" stroke-linejoin="bevel"/>
<path d="M390.021 224.963V205.358L424.33 224.46L390.021 244.569V224.963Z" stroke="black" stroke-width="0.5" stroke-linejoin="bevel"/>
<path d="M348.359 224.963V273.977L390.021 298.483V248.245L348.359 224.963Z" stroke="black" stroke-width="0.5" stroke-linejoin="bevel"/>
<path d="M390.021 248.245L431.682 223.738V272.997L390.021 298.484V248.245Z" stroke="black" stroke-width="0.5" stroke-linejoin="bevel"/>
<path d="M282.268 263.516L323.929 239.01L365.591 262.291L323.929 286.798L282.268 263.516Z" stroke="black" stroke-width="0.5" stroke-linejoin="bevel"/>
<path d="M289.62 264.019L323.929 243.91L358.238 263.013L323.929 283.121L289.62 264.019Z" stroke="black" stroke-width="0.5" stroke-linejoin="bevel"/>
<path d="M323.929 263.516V243.91L358.239 263.013L323.929 283.121V263.516Z" stroke="black" stroke-width="0.5" stroke-linejoin="bevel"/>
<path d="M282.268 263.516V312.529L323.929 337.036V286.797L282.268 263.516Z" stroke="black" stroke-width="0.5" stroke-linejoin="bevel"/>
<path d="M323.929 286.798L365.591 262.291V311.549L323.929 337.036V286.798Z" stroke="black" stroke-width="0.5" stroke-linejoin="bevel"/>
<path fill-rule="evenodd" clip-rule="evenodd" d="M323.103 282.882L224.155 225.74L131.902 -219.69H521.567L423.807 224.363L323.103 282.882Z" fill="url(#paint6_linear_316_2888)" fill-opacity="0.8"/>
<path d="M165.146 75.2057V65.4749C167.867 66.4992 170.731 67.5235 173.595 68.5478V78.2786C170.731 77.2543 168.01 76.23 165.146 75.2057ZM138.366 63.0165V44.9889C140.657 46.2181 142.949 47.4472 145.383 48.574V66.6016C142.949 65.3724 140.657 64.1433 138.366 63.0165ZM151.112 69.2648V48.0618C153.689 49.1885 156.267 50.3153 158.845 51.442V72.6449C156.267 71.5182 153.689 70.3915 151.112 69.2648ZM116.741 49.0861V25.5273C118.46 26.8589 120.322 28.2929 122.183 29.6245V53.1833C120.322 51.7493 118.603 50.4177 116.741 49.0861ZM126.909 56.2562V30.7512C128.914 32.0828 131.062 33.3119 133.21 34.5411V60.0461C130.919 58.8169 128.914 57.4853 126.909 56.2562ZM101.132 33.6192V5.96319C102.277 7.49964 103.566 8.93365 104.855 10.3677V38.0237C103.566 36.5897 102.42 35.1557 101.132 33.6192ZM108.149 41.5063V5.55347C109.581 6.98749 111.156 8.4215 112.731 9.85552V45.8084C111.156 44.3743 109.724 42.9403 108.149 41.5063ZM95.8328 25.5273V-15.1373C96.692 -13.6009 97.5513 -12.0644 98.6969 -10.528V30.0342C97.5513 28.6002 96.692 27.0637 95.8328 25.5273ZM190.781 34.5411C136.791 18.9718 99.5562 -5.61137 91.6797 -33.7795V23.9908C99.5562 52.159 136.791 76.7421 190.781 92.3115V34.5411Z" fill="#3F4658"/>
<path d="M165.146 75.2057V65.4749C167.867 66.4992 170.731 67.5235 173.595 68.5478V78.2786C170.731 77.2543 168.01 76.23 165.146 75.2057ZM138.366 63.0165V44.9889C140.657 46.2181 142.949 47.4472 145.383 48.574V66.6016C142.949 65.3724 140.657 64.1433 138.366 63.0165ZM151.112 69.2648V48.0618C153.689 49.1885 156.267 50.3153 158.845 51.442V72.6449C156.267 71.5182 153.689 70.3915 151.112 69.2648ZM116.741 49.0861V25.5273C118.46 26.8589 120.322 28.2929 122.183 29.6245V53.1833C120.322 51.7493 118.603 50.4177 116.741 49.0861ZM126.909 56.2562V30.7512C128.914 32.0828 131.062 33.3119 133.21 34.5411V60.0461C130.919 58.8169 128.914 57.4853 126.909 56.2562ZM101.132 33.6192V5.96319C102.277 7.49964 103.566 8.93365 104.855 10.3677V38.0237C103.566 36.5897 102.42 35.1557 101.132 33.6192ZM108.149 41.5063V5.55347C109.581 6.98749 111.156 8.4215 112.731 9.85552V45.8084C111.156 44.3743 109.724 42.9403 108.149 41.5063ZM95.8328 25.5273V-15.1373C96.692 -13.6009 97.5513 -12.0644 98.6969 -10.528V30.0342C97.5513 28.6002 96.692 27.0637 95.8328 25.5273ZM190.781 34.5411C136.791 18.9718 99.5562 -5.61137 91.6797 -33.7795V23.9908C99.5562 52.159 136.791 76.7421 190.781 92.3115V34.5411Z" fill="url(#paint7_linear_316_2888)"/>
<path d="M349.17 98.8662V85.8577C358.478 85.4479 367.644 84.9358 376.523 84.1163V97.1249C367.644 97.9444 358.478 98.4565 349.17 98.8662ZM305.491 98.9687V75.205C311.076 75.4098 316.661 75.5122 322.39 75.6147C326.256 75.6147 330.123 75.6147 333.99 75.6147V99.3784C330.123 99.3784 326.256 99.4808 322.39 99.3784C316.661 99.2759 311.076 99.1735 305.491 98.9687ZM263.387 95.7933V59.5332C272.123 60.5575 281.145 61.2745 290.454 61.8891V98.1492C281.289 97.6371 272.266 96.8176 263.387 95.7933ZM390.987 95.6909V57.2798C399.723 56.2555 408.315 55.0263 416.621 53.6947V92.0034C408.315 93.4375 399.723 94.6666 390.987 95.6909ZM438.103 40.7886C403.733 48.3684 364.207 52.568 322.39 52.2607C293.175 52.0558 265.392 49.7 239.758 45.5003V103.271C265.392 107.368 293.175 109.826 322.39 110.031C364.207 110.338 403.733 106.139 438.103 98.5589V40.7886Z" fill="#3F4658"/>
<path d="M349.17 98.8662V85.8577C358.478 85.4479 367.644 84.9358 376.523 84.1163V97.1249C367.644 97.9444 358.478 98.4565 349.17 98.8662ZM305.491 98.9687V75.205C311.076 75.4098 316.661 75.5122 322.39 75.6147C326.256 75.6147 330.123 75.6147 333.99 75.6147V99.3784C330.123 99.3784 326.256 99.4808 322.39 99.3784C316.661 99.2759 311.076 99.1735 305.491 98.9687ZM263.387 95.7933V59.5332C272.123 60.5575 281.145 61.2745 290.454 61.8891V98.1492C281.289 97.6371 272.266 96.8176 263.387 95.7933ZM390.987 95.6909V57.2798C399.723 56.2555 408.315 55.0263 416.621 53.6947V92.0034C408.315 93.4375 399.723 94.6666 390.987 95.6909ZM438.103 40.7886C403.733 48.3684 364.207 52.568 322.39 52.2607C293.175 52.0558 265.392 49.7 239.758 45.5003V103.271C265.392 107.368 293.175 109.826 322.39 110.031C364.207 110.338 403.733 106.139 438.103 98.5589V40.7886Z" fill="url(#paint8_linear_316_2888)"/>
<path d="M290.454 61.8881C281.289 61.2735 272.267 60.5565 263.388 59.5322V95.7924C272.123 96.8167 281.146 97.5337 290.454 98.1482V61.8881Z" fill="#F3F3F3"/>
<path d="M376.523 84.1162C367.5 84.9356 358.478 85.4478 349.17 85.8575V98.8661C358.478 98.4564 367.644 97.9442 376.523 97.1248V84.1162Z" fill="#F3F3F3"/>
<path d="M416.621 53.2847C408.314 54.7187 399.722 55.9478 390.986 56.8697V95.1784C399.722 94.1541 408.314 92.925 416.621 91.5934V53.2847Z" fill="#F3F3F3"/>
<path opacity="0.7529" d="M333.99 75.5115C330.123 75.5115 326.257 75.6139 322.39 75.5115C316.662 75.5115 311.076 75.3067 305.491 75.1018V98.8655C311.076 99.0704 316.662 99.1728 322.39 99.2752C326.257 99.2752 330.123 99.2752 333.99 99.2752V75.5115Z" fill="#F3F3F3"/>
<path d="M98.6962 -10.3243C97.6938 -11.8607 96.6913 -13.3971 95.832 -14.9336V25.6286C96.6913 27.165 97.5505 28.7015 98.6962 30.2379V-10.3243Z" fill="#F3F3F3"/>
<path d="M104.854 10.6738C103.565 9.23975 102.276 7.7033 101.131 6.26929V33.9253C102.276 35.4618 103.565 36.8958 104.854 38.3298V10.6738Z" fill="#F3F3F3"/>
<path opacity="0.7529" d="M112.874 10.0591C111.299 8.62511 109.723 7.1911 108.291 5.75708V41.7099C109.723 43.1439 111.299 44.5779 112.874 46.012V10.0591Z" fill="#F3F3F3"/>
<path d="M122.325 29.7259C120.464 28.3943 118.602 27.0627 116.883 25.6287V49.1875C118.602 50.5191 120.464 51.9531 122.325 53.2847V29.7259Z" fill="#F3F3F3"/>
<path d="M133.066 34.7447C130.918 33.5156 128.77 32.184 126.765 30.9548V56.4598C128.77 57.7914 130.918 59.0206 133.066 60.2497V34.7447Z" fill="#F3F3F3"/>
<path opacity="0.7529" d="M145.382 48.7774C142.948 47.6507 140.657 46.4215 138.365 45.1924V63.22C140.657 64.4492 142.948 65.6783 145.382 66.8051V48.7774Z" fill="#F3F3F3"/>
<path d="M158.843 51.6461C156.266 50.5193 153.688 49.3926 151.11 48.2659V69.4688C153.688 70.5956 156.266 71.7223 158.843 72.849V51.6461Z" fill="#F3F3F3"/>
<path opacity="0.7529" d="M173.595 68.6496C170.73 67.6253 168.009 66.601 165.145 65.5767V75.3075C167.866 76.3318 170.73 77.3561 173.595 78.3804V68.6496Z" fill="#F3F3F3"/>
<defs>
<linearGradient id="paint0_linear_316_2888" x1="514.063" y1="-23.0309" x2="514.063" y2="222.235" gradientUnits="userSpaceOnUse">
<stop stop-color="white" stop-opacity="0"/>
<stop offset="0.862563" stop-color="#C4C4C4" stop-opacity="0.43"/>
<stop offset="1" stop-color="#C4C4C4" stop-opacity="0"/>
</linearGradient>
<linearGradient id="paint1_linear_316_2888" x1="318.543" y1="-214.421" x2="318.543" y2="30.8445" gradientUnits="userSpaceOnUse">
<stop stop-color="white" stop-opacity="0"/>
<stop offset="0.862563" stop-color="#C4C4C4" stop-opacity="0.43"/>
<stop offset="1" stop-color="#C4C4C4" stop-opacity="0"/>
</linearGradient>
<linearGradient id="paint2_linear_316_2888" x1="315.789" y1="-108.399" x2="315.789" y2="136.867" gradientUnits="userSpaceOnUse">
<stop stop-color="white" stop-opacity="0"/>
<stop offset="0.862563" stop-color="#C4C4C4" stop-opacity="0.43"/>
<stop offset="1" stop-color="#C4C4C4" stop-opacity="0"/>
</linearGradient>
<linearGradient id="paint3_linear_316_2888" x1="132.66" y1="-152.46" x2="132.66" y2="92.8055" gradientUnits="userSpaceOnUse">
<stop stop-color="white" stop-opacity="0"/>
<stop offset="0.862563" stop-color="#C4C4C4" stop-opacity="0.43"/>
<stop offset="1" stop-color="#C4C4C4" stop-opacity="0"/>
</linearGradient>
<linearGradient id="paint4_linear_316_2888" x1="487.903" y1="-152.46" x2="487.903" y2="92.8055" gradientUnits="userSpaceOnUse">
<stop stop-color="white" stop-opacity="0"/>
<stop offset="0.862563" stop-color="#C4C4C4" stop-opacity="0.43"/>
<stop offset="1" stop-color="#C4C4C4" stop-opacity="0"/>
</linearGradient>
<linearGradient id="paint5_linear_316_2888" x1="121.645" y1="-23.0309" x2="121.645" y2="222.235" gradientUnits="userSpaceOnUse">
<stop stop-color="white" stop-opacity="0"/>
<stop offset="0.862563" stop-color="#C4C4C4" stop-opacity="0.43"/>
<stop offset="1" stop-color="#C4C4C4" stop-opacity="0"/>
</linearGradient>
<linearGradient id="paint6_linear_316_2888" x1="312.539" y1="-79.2451" x2="312.539" y2="284.962" gradientUnits="userSpaceOnUse">
<stop stop-color="white" stop-opacity="0"/>
<stop offset="0.862563" stop-color="#A09D92" stop-opacity="0.43"/>
<stop offset="1" stop-color="#A09D92" stop-opacity="0"/>
</linearGradient>
<linearGradient id="paint7_linear_316_2888" x1="106.668" y1="-17.7157" x2="199.025" y2="7.45553" gradientUnits="userSpaceOnUse">
<stop stop-color="#A09D92"/>
<stop offset="1" stop-color="#F8F7F3"/>
</linearGradient>
<linearGradient id="paint8_linear_316_2888" x1="269.756" y1="49.612" x2="369.734" y2="148.899" gradientUnits="userSpaceOnUse">
<stop stop-color="#A09D92"/>
<stop offset="1" stop-color="#F8F7F3"/>
</linearGradient>
</defs>
</svg>
