<svg width="256" height="220" viewBox="0 0 256 220" fill="none" xmlns="http://www.w3.org/2000/svg">
<path opacity="0.7" d="M186.43 92.0497L207.887 79.5813L309.5 137.226L287.901 149.694L186.43 92.0497Z" fill="url(#paint0_linear_66_4335)"/>
<g opacity="0.2">
<path d="M1.01904 96.4004L1.0246 99.3062C1.0246 99.3062 0.962816 99.6975 1.25116 99.8623L39.1892 121.715C39.4775 121.88 39.9307 121.88 40.219 121.715L77.948 99.9567C78.3224 99.7695 78.3224 99.3952 78.3224 99.3952V96.7747" stroke="black" stroke-width="0.25"/>
<path fill-rule="evenodd" clip-rule="evenodd" d="M1.20623 96.0258L39.2287 74.4371C39.5171 74.2723 39.9702 74.2723 40.2585 74.4371L78.1302 96.4001C78.4186 96.5649 78.4186 96.8327 78.1302 96.9974L40.5881 118.575C40.2997 118.739 39.8466 118.739 39.5583 118.575L1.22683 96.6231C0.938481 96.4583 0.917885 96.1906 1.20623 96.0258Z" stroke="black" stroke-width="0.25"/>
<g opacity="0.2">
<path d="M31.6966 88.2111L40.1915 83.3569L48.2009 87.7257L39.9488 92.8226L31.6966 88.2111Z" stroke="black" stroke-width="0.25"/>
<path d="M46.2964 97.1955L54.5486 92.3413L62.8008 96.9528L54.5486 101.807L46.2964 97.1955Z" stroke="black" stroke-width="0.25"/>
<path d="M16.7227 97.5698L25.2176 92.7156L33.227 97.0844L24.9749 102.181L16.7227 97.5698Z" stroke="black" stroke-width="0.25"/>
<path d="M31.3223 106.18L39.8172 101.326L47.8267 105.695L39.5745 110.792L31.3223 106.18Z" stroke="black" stroke-width="0.25"/>
</g>
<path d="M31.6968 73.237L40.1916 68.3828L48.2011 72.7516L39.9489 77.8485L31.6968 73.237Z" stroke="black" stroke-width="0.25"/>
<path d="M31.6967 73.2371V82.9455L39.9489 87.7997V77.8486L31.6967 73.2371Z" stroke="black" stroke-width="0.25"/>
<path d="M39.949 77.8486L48.2011 72.7517V82.7514L39.949 87.7998V77.8486Z" stroke="black" stroke-width="0.25"/>
<path d="M46.1537 82.2436L54.4058 77.3894L62.658 82.0009L54.4058 86.8551L46.1537 82.2436Z" stroke="black" stroke-width="0.25"/>
<path d="M46.1537 82.2437V91.9521L54.4058 96.8063V86.8552L46.1537 82.2437Z" stroke="black" stroke-width="0.25"/>
<path d="M54.4057 86.8554L62.6579 82.0012V91.7582L54.4057 96.8066V86.8554Z" stroke="black" stroke-width="0.25"/>
<path d="M16.7226 82.5959L25.2175 77.7417L33.2269 82.1105L24.9748 87.2074L16.7226 82.5959Z" stroke="black" stroke-width="0.25"/>
<path d="M16.7227 82.5959V92.3044L24.9749 97.1586V87.2074L16.7227 82.5959Z" stroke="black" stroke-width="0.25"/>
<path d="M24.975 87.2075L33.2271 82.1106V92.1103L24.975 97.1587V87.2075Z" stroke="black" stroke-width="0.25"/>
<path d="M31.3222 91.206L39.817 86.3518L47.8265 90.7206L39.5743 95.8175L31.3222 91.206Z" stroke="black" stroke-width="0.25"/>
<path d="M31.3223 91.2061V100.914L39.5745 105.769V95.8176L31.3223 91.2061Z" stroke="black" stroke-width="0.25"/>
<path d="M39.5746 95.8176L47.8267 90.7207V100.72L39.5746 105.769V95.8176Z" stroke="black" stroke-width="0.25"/>
<path d="M31.6967 59.0119L40.1915 54.1577L48.201 58.5265L39.9488 63.6234L31.6967 59.0119Z" stroke="black" stroke-width="0.25"/>
<path d="M31.6964 59.0117V68.7201L39.9486 73.5744V63.6232L31.6964 59.0117Z" stroke="black" stroke-width="0.25"/>
<path d="M39.9487 63.6233L48.2009 58.5264V68.526L39.9487 73.5744V63.6233Z" stroke="black" stroke-width="0.25"/>
<path d="M46.2961 67.2475L54.791 62.3933L62.8004 66.7621L54.5482 71.859L46.2961 67.2475Z" stroke="black" stroke-width="0.25"/>
<path d="M46.2962 67.2473V76.9557L54.5484 81.81V71.8588L46.2962 67.2473Z" stroke="black" stroke-width="0.25"/>
<path d="M54.5482 71.8589L62.8004 66.762V76.7616L54.5482 81.81V71.8589Z" stroke="black" stroke-width="0.25"/>
<path d="M16.7226 68.3706L25.2175 63.5164L33.2269 67.8851L24.9748 72.9821L16.7226 68.3706Z" stroke="black" stroke-width="0.25"/>
<path d="M16.7227 68.3706V78.079L24.9749 82.9332V72.9821L16.7227 68.3706Z" stroke="black" stroke-width="0.25"/>
<path d="M24.975 72.9819L33.2271 67.885V77.8847L24.975 82.9331V72.9819Z" stroke="black" stroke-width="0.25"/>
<path d="M31.6967 77.3549L39.9488 72.5007L48.201 77.1122L39.9488 81.9664L31.6967 77.3549Z" stroke="black" stroke-width="0.25"/>
<path d="M31.6964 77.3552V87.0637L39.9486 91.9179V81.9667L31.6964 77.3552Z" stroke="black" stroke-width="0.25"/>
<path d="M39.9487 81.9665L48.2009 77.1123V86.8693L39.9487 91.9177V81.9665Z" stroke="black" stroke-width="0.25"/>
<path d="M47.8265 44.4121L39.3316 39.5579L31.3222 43.9267L39.5743 49.0236L47.8265 44.4121Z" stroke="black" stroke-width="0.25"/>
<path d="M47.8265 44.4119V54.1203L39.5743 58.9745V49.0234L47.8265 44.4119Z" stroke="black" stroke-width="0.25"/>
<path d="M39.5742 49.0237L31.322 43.9268V53.9264L39.5742 58.9748V49.0237Z" stroke="black" stroke-width="0.25"/>
<path d="M33.2269 53.3964L24.9747 48.5422L16.7225 53.1537L24.9747 58.0079L33.2269 53.3964Z" stroke="black" stroke-width="0.25"/>
<path d="M33.2269 53.3965V63.1049L24.9747 67.9591V58.008L33.2269 53.3965Z" stroke="black" stroke-width="0.25"/>
<path d="M24.9749 58.0083L16.7227 53.1541V62.911L24.9749 67.9594V58.0083Z" stroke="black" stroke-width="0.25"/>
<path d="M62.8007 53.7707L54.3058 48.9165L46.2963 53.2853L54.5485 58.3822L62.8007 53.7707Z" stroke="black" stroke-width="0.25"/>
<path d="M62.8007 53.771V63.4794L54.5486 68.3336V58.3825L62.8007 53.771Z" stroke="black" stroke-width="0.25"/>
<path d="M54.5484 58.3823L46.2962 53.2854V63.2851L54.5484 68.3335V58.3823Z" stroke="black" stroke-width="0.25"/>
<path d="M48.201 62.3808L39.7062 57.5266L31.6967 61.8954L39.9489 66.9923L48.201 62.3808Z" stroke="black" stroke-width="0.25"/>
<path d="M48.2011 62.3809V72.0893L39.9489 76.9435V66.9924L48.2011 62.3809Z" stroke="black" stroke-width="0.25"/>
<path d="M39.9491 66.9924L31.6969 61.8955V71.8952L39.9491 76.9436V66.9924Z" stroke="black" stroke-width="0.25"/>
<path d="M47.8265 30.1867L39.3316 25.3325L31.3222 29.7013L39.5743 34.7982L47.8265 30.1867Z" stroke="black" stroke-width="0.25"/>
<path d="M47.8265 30.1868V39.8952L39.5743 44.7494V34.7983L47.8265 30.1868Z" stroke="black" stroke-width="0.25"/>
<path d="M39.5742 34.7983L31.322 29.7014V39.7011L39.5742 44.7495V34.7983Z" stroke="black" stroke-width="0.25"/>
<path d="M33.2269 38.4223L24.732 33.5681L16.7225 37.9369L24.9747 43.0338L33.2269 38.4223Z" stroke="black" stroke-width="0.25"/>
<path d="M33.2269 38.4224V48.1308L24.9747 52.985V43.0339L33.2269 38.4224Z" stroke="black" stroke-width="0.25"/>
<path d="M24.9746 43.0339L16.7224 37.937V47.9367L24.9746 52.9851V43.0339Z" stroke="black" stroke-width="0.25"/>
<path d="M62.8007 39.5456L54.3058 34.6914L46.2963 39.0602L54.5485 44.1571L62.8007 39.5456Z" stroke="black" stroke-width="0.25"/>
<path d="M62.8007 39.5457V49.2541L54.5486 54.1083V44.1572L62.8007 39.5457Z" stroke="black" stroke-width="0.25"/>
<path d="M54.5484 44.1572L46.2962 39.0603V49.06L54.5484 54.1084V44.1572Z" stroke="black" stroke-width="0.25"/>
<path d="M47.8265 48.53L39.5743 43.6758L31.3222 48.2873L39.5743 53.1415L47.8265 48.53Z" stroke="black" stroke-width="0.25"/>
<path d="M47.8265 48.53V58.2385L39.5743 63.0927V53.1415L47.8265 48.53Z" stroke="black" stroke-width="0.25"/>
<path d="M39.5742 53.1416L31.322 48.2874V58.0443L39.5742 63.0927V53.1416Z" stroke="black" stroke-width="0.25"/>
<path d="M1.01904 23.0867L1.0246 25.9925C1.0246 25.9925 0.962816 26.3838 1.25116 26.5486L39.1892 48.4011C39.4775 48.5658 39.9307 48.5658 40.219 48.4011L77.948 26.643C78.3224 26.4558 78.3224 26.0815 78.3224 26.0815V23.461" stroke="black" stroke-width="0.25"/>
<path fill-rule="evenodd" clip-rule="evenodd" d="M1.20623 22.7123L39.2287 1.12358C39.5171 0.958808 39.9702 0.958808 40.2585 1.12358L78.1302 23.0867C78.4186 23.2514 78.4186 23.5192 78.1302 23.684L40.5881 45.2611C40.2997 45.4258 39.8466 45.4258 39.5583 45.2611L1.22683 23.3096C0.938481 23.1448 0.917885 22.8771 1.20623 22.7123Z" stroke="black" stroke-width="0.25"/>
</g>
<g opacity="0.4">
<path d="M55.2303 124.767L55.2358 127.672C55.2358 127.672 55.174 128.064 55.4624 128.229L93.4004 150.081C93.6887 150.246 94.1419 150.246 94.4302 150.081L132.159 128.323C132.534 128.136 132.534 127.761 132.534 127.761V125.141" stroke="black" stroke-width="0.25"/>
<path fill-rule="evenodd" clip-rule="evenodd" d="M55.4172 124.392L93.4397 102.803C93.728 102.638 94.1811 102.638 94.4695 102.803L132.341 124.766C132.63 124.931 132.63 125.199 132.341 125.364L94.799 146.941C94.5107 147.106 94.0575 147.106 93.7692 146.941L55.4378 124.989C55.1494 124.825 55.1288 124.557 55.4172 124.392Z" stroke="black" stroke-width="0.25"/>
<g opacity="0.2">
<path d="M85.9075 116.577L94.4024 111.723L102.412 116.092L94.1597 121.189L85.9075 116.577Z" stroke="black" stroke-width="0.25"/>
<path d="M100.507 125.562L108.759 120.708L117.011 125.319L108.759 130.173L100.507 125.562Z" stroke="black" stroke-width="0.25"/>
<path d="M70.9337 125.936L79.4285 121.082L87.438 125.45L79.1858 130.547L70.9337 125.936Z" stroke="black" stroke-width="0.25"/>
<path d="M85.5332 134.546L94.0281 129.692L102.038 134.061L93.7854 139.158L85.5332 134.546Z" stroke="black" stroke-width="0.25"/>
</g>
<path d="M85.9075 101.603L94.4024 96.749L102.412 101.118L94.1597 106.215L85.9075 101.603Z" stroke="black" stroke-width="0.25"/>
<path d="M85.9076 101.603V111.312L94.1598 116.166V106.215L85.9076 101.603Z" stroke="black" stroke-width="0.25"/>
<path d="M94.1599 106.215L102.412 101.118V111.118L94.1599 116.166V106.215Z" stroke="black" stroke-width="0.25"/>
<path d="M100.365 110.61L108.617 105.756L116.869 110.367L108.617 115.222L100.365 110.61Z" stroke="black" stroke-width="0.25"/>
<path d="M100.365 110.61V120.319L108.617 125.173V115.222L100.365 110.61Z" stroke="black" stroke-width="0.25"/>
<path d="M108.617 115.222L116.869 110.368V120.125L108.617 125.173V115.222Z" stroke="black" stroke-width="0.25"/>
<path d="M70.9337 110.962L79.4285 106.108L87.438 110.477L79.1858 115.574L70.9337 110.962Z" stroke="black" stroke-width="0.25"/>
<path d="M70.9337 110.962V120.671L79.1858 125.525V115.574L70.9337 110.962Z" stroke="black" stroke-width="0.25"/>
<path d="M79.1857 115.573L87.4378 110.477V120.476L79.1857 125.525V115.573Z" stroke="black" stroke-width="0.25"/>
<path d="M85.5333 119.572L94.0281 114.718L102.038 119.087L93.7854 124.183L85.5333 119.572Z" stroke="black" stroke-width="0.25"/>
<path d="M85.5332 119.572V129.281L93.7854 134.135V124.184L85.5332 119.572Z" stroke="black" stroke-width="0.25"/>
<path d="M93.7852 124.183L102.037 119.086V129.086L93.7852 134.134V124.183Z" stroke="black" stroke-width="0.25"/>
<path d="M85.9075 87.3779L94.4024 82.5237L102.412 86.8925L94.1597 91.9894L85.9075 87.3779Z" stroke="black" stroke-width="0.25"/>
<path d="M85.9076 87.3779V97.0864L94.1598 101.941V91.9894L85.9076 87.3779Z" stroke="black" stroke-width="0.25"/>
<path d="M94.1599 91.9895L102.412 86.8926V96.8923L94.1599 101.941V91.9895Z" stroke="black" stroke-width="0.25"/>
<path d="M100.507 95.6137L109.002 90.7595L117.011 95.1283L108.759 100.225L100.507 95.6137Z" stroke="black" stroke-width="0.25"/>
<path d="M100.507 95.6135V105.322L108.759 110.176V100.225L100.507 95.6135Z" stroke="black" stroke-width="0.25"/>
<path d="M108.759 100.225L117.011 95.1284V105.128L108.759 110.176V100.225Z" stroke="black" stroke-width="0.25"/>
<path d="M70.9337 96.7365L79.4285 91.8823L87.438 96.2511L79.1858 101.348L70.9337 96.7365Z" stroke="black" stroke-width="0.25"/>
<path d="M70.9337 96.7366V106.445L79.1858 111.299V101.348L70.9337 96.7366Z" stroke="black" stroke-width="0.25"/>
<path d="M79.1857 101.348L87.4378 96.2512V106.251L79.1857 111.299V101.348Z" stroke="black" stroke-width="0.25"/>
<path d="M85.9075 105.721L94.1597 100.867L102.412 105.478L94.1597 110.333L85.9075 105.721Z" stroke="black" stroke-width="0.25"/>
<path d="M85.9076 105.721V115.43L94.1598 120.284V110.333L85.9076 105.721Z" stroke="black" stroke-width="0.25"/>
<path d="M94.1599 110.332L102.412 105.478V115.235L94.1599 120.283V110.332Z" stroke="black" stroke-width="0.25"/>
<path d="M102.037 72.7783L93.5424 67.9241L85.5329 72.2929L93.7851 77.3898L102.037 72.7783Z" stroke="black" stroke-width="0.25"/>
<path d="M102.037 72.7783V82.4867L93.7852 87.341V77.3898L102.037 72.7783Z" stroke="black" stroke-width="0.25"/>
<path d="M93.7851 77.3899L85.5329 72.293V82.2926L93.7851 87.341V77.3899Z" stroke="black" stroke-width="0.25"/>
<path d="M87.4378 81.7627L79.1856 76.9084L70.9335 81.5199L79.1856 86.3742L87.4378 81.7627Z" stroke="black" stroke-width="0.25"/>
<path d="M87.4378 81.7627V91.4711L79.1856 96.3253V86.3742L87.4378 81.7627Z" stroke="black" stroke-width="0.25"/>
<path d="M79.1855 86.3745L70.9334 81.5203V91.2772L79.1855 96.3256V86.3745Z" stroke="black" stroke-width="0.25"/>
<path d="M117.011 82.1369L108.517 77.2827L100.507 81.6515L108.759 86.7484L117.011 82.1369Z" stroke="black" stroke-width="0.25"/>
<path d="M117.011 82.1367V91.8451L108.759 96.6994V86.7482L117.011 82.1367Z" stroke="black" stroke-width="0.25"/>
<path d="M108.759 86.7483L100.507 81.6514V91.651L108.759 96.6994V86.7483Z" stroke="black" stroke-width="0.25"/>
<path d="M102.412 90.747L93.917 85.8928L85.9075 90.2616L94.1597 95.3585L102.412 90.747Z" stroke="black" stroke-width="0.25"/>
<path d="M102.412 90.7471V100.455L94.1596 105.31V95.3586L102.412 90.7471Z" stroke="black" stroke-width="0.25"/>
<path d="M94.1595 95.3584L85.9073 90.2615V100.261L94.1595 105.31V95.3584Z" stroke="black" stroke-width="0.25"/>
<path d="M102.037 58.5529L93.5424 53.6987L85.5329 58.0675L93.7851 63.1644L102.037 58.5529Z" stroke="black" stroke-width="0.25"/>
<path d="M102.037 58.553V68.2614L93.7852 73.1156V63.1645L102.037 58.553Z" stroke="black" stroke-width="0.25"/>
<path d="M93.7851 63.1643L85.5329 58.0674V68.0671L93.7851 73.1154V63.1643Z" stroke="black" stroke-width="0.25"/>
<path d="M87.4376 66.7885L78.9427 61.9343L70.9332 66.3031L79.1854 71.4L87.4376 66.7885Z" stroke="black" stroke-width="0.25"/>
<path d="M87.4377 66.7888V76.4972L79.1856 81.3515V71.4003L87.4377 66.7888Z" stroke="black" stroke-width="0.25"/>
<path d="M79.1858 71.4001L70.9336 66.3032V76.3029L79.1858 81.3513V71.4001Z" stroke="black" stroke-width="0.25"/>
<path d="M117.011 67.9118L108.517 63.0576L100.507 67.4264L108.759 72.5233L117.011 67.9118Z" stroke="black" stroke-width="0.25"/>
<path d="M117.011 67.9119V77.6203L108.759 82.4745V72.5234L117.011 67.9119Z" stroke="black" stroke-width="0.25"/>
<path d="M108.759 72.5232L100.507 67.4263V77.4259L108.759 82.4743V72.5232Z" stroke="black" stroke-width="0.25"/>
<path d="M102.037 76.8962L93.7851 72.042L85.5329 76.6535L93.7851 81.5077L102.037 76.8962Z" stroke="black" stroke-width="0.25"/>
<path d="M102.037 76.8962V86.6047L93.7852 91.4589V81.5077L102.037 76.8962Z" stroke="black" stroke-width="0.25"/>
<path d="M93.7851 81.5078L85.5329 76.6536V86.4105L93.7851 91.4589V81.5078Z" stroke="black" stroke-width="0.25"/>
<path d="M55.2301 51.4526L55.2357 54.3585C55.2357 54.3585 55.1739 54.7498 55.4622 54.9146L93.4003 76.767C93.6886 76.9318 94.1417 76.9318 94.4301 76.767L132.159 55.009C132.533 54.8218 132.533 54.4474 132.533 54.4474V51.827" stroke="black" stroke-width="0.25"/>
<path fill-rule="evenodd" clip-rule="evenodd" d="M55.4173 51.0783L93.4398 29.4895C93.7282 29.3248 94.1813 29.3248 94.4696 29.4895L132.341 51.4526C132.63 51.6174 132.63 51.8852 132.341 52.0499L94.7992 73.627C94.5108 73.7918 94.0577 73.7918 93.7694 73.627L55.4379 51.6756C55.1496 51.5108 55.129 51.2431 55.4173 51.0783Z" stroke="black" stroke-width="0.25"/>
</g>
<g opacity="0.6">
<path d="M108.81 155.023L108.816 157.929C108.816 157.929 108.754 158.321 109.042 158.485L146.98 180.338C147.269 180.503 147.722 180.503 148.01 180.338L185.739 158.58C186.114 158.393 186.114 158.018 186.114 158.018V155.398" stroke="black" stroke-width="0.25"/>
<path fill-rule="evenodd" clip-rule="evenodd" d="M108.998 154.649L147.02 133.06C147.308 132.895 147.762 132.895 148.05 133.06L185.922 155.023C186.21 155.188 186.21 155.456 185.922 155.62L148.379 177.198C148.091 177.362 147.638 177.362 147.35 177.198L109.018 155.246C108.73 155.081 108.709 154.814 108.998 154.649Z" stroke="black" stroke-width="0.25"/>
<g opacity="0.2">
<path d="M139.488 146.835L147.983 141.98L155.992 146.349L147.74 151.446L139.488 146.835Z" stroke="black" stroke-width="0.25"/>
<path d="M154.088 155.82L162.34 150.965L170.592 155.577L162.34 160.431L154.088 155.82Z" stroke="black" stroke-width="0.25"/>
<path d="M124.514 156.194L133.009 151.339L141.018 155.708L132.766 160.805L124.514 156.194Z" stroke="black" stroke-width="0.25"/>
<path d="M139.114 164.804L147.609 159.95L155.618 164.318L147.366 169.415L139.114 164.804Z" stroke="black" stroke-width="0.25"/>
</g>
<path d="M139.488 131.861L147.983 127.006L155.992 131.375L147.74 136.472L139.488 131.861Z" stroke="black" stroke-width="0.25"/>
<path d="M139.488 131.86V141.569L147.74 146.423V136.472L139.488 131.86Z" stroke="black" stroke-width="0.25"/>
<path d="M147.74 136.472L155.992 131.375V141.375L147.74 146.423V136.472Z" stroke="black" stroke-width="0.25"/>
<path d="M153.945 140.867L162.197 136.013L170.449 140.624L162.197 145.478L153.945 140.867Z" stroke="black" stroke-width="0.25"/>
<path d="M153.945 140.867V150.576L162.197 155.43V145.479L153.945 140.867Z" stroke="black" stroke-width="0.25"/>
<path d="M162.197 145.479L170.449 140.625V150.381L162.197 155.43V145.479Z" stroke="black" stroke-width="0.25"/>
<path d="M124.514 141.219L133.009 136.365L141.018 140.734L132.766 145.831L124.514 141.219Z" stroke="black" stroke-width="0.25"/>
<path d="M124.514 141.219V150.928L132.766 155.782V145.831L124.514 141.219Z" stroke="black" stroke-width="0.25"/>
<path d="M132.766 145.831L141.018 140.734V150.734L132.766 155.782V145.831Z" stroke="black" stroke-width="0.25"/>
<path d="M139.113 149.829L147.608 144.975L155.618 149.344L147.366 154.441L139.113 149.829Z" stroke="black" stroke-width="0.25"/>
<path d="M139.113 149.829V159.538L147.366 164.392V154.441L139.113 149.829Z" stroke="black" stroke-width="0.25"/>
<path d="M147.365 154.441L155.618 149.344V159.343L147.365 164.392V154.441Z" stroke="black" stroke-width="0.25"/>
<path d="M139.488 117.635L147.983 112.781L155.992 117.15L147.74 122.247L139.488 117.635Z" stroke="black" stroke-width="0.25"/>
<path d="M139.488 117.636V127.344L147.74 132.198V122.247L139.488 117.636Z" stroke="black" stroke-width="0.25"/>
<path d="M147.74 122.247L155.992 117.15V127.15L147.74 132.198V122.247Z" stroke="black" stroke-width="0.25"/>
<path d="M154.087 125.871L162.582 121.017L170.592 125.385L162.339 130.482L154.087 125.871Z" stroke="black" stroke-width="0.25"/>
<path d="M154.087 125.871V135.58L162.339 140.434V130.483L154.087 125.871Z" stroke="black" stroke-width="0.25"/>
<path d="M162.339 130.483L170.591 125.386V135.385L162.339 140.434V130.483Z" stroke="black" stroke-width="0.25"/>
<path d="M124.514 126.994L133.009 122.14L141.018 126.508L132.766 131.605L124.514 126.994Z" stroke="black" stroke-width="0.25"/>
<path d="M124.514 126.994V136.702L132.766 141.556V131.605L124.514 126.994Z" stroke="black" stroke-width="0.25"/>
<path d="M132.766 131.605L141.018 126.508V136.508L132.766 141.556V131.605Z" stroke="black" stroke-width="0.25"/>
<path d="M139.488 135.978L147.74 131.124L155.992 135.736L147.74 140.59L139.488 135.978Z" stroke="black" stroke-width="0.25"/>
<path d="M139.488 135.979V145.687L147.74 150.541V140.59L139.488 135.979Z" stroke="black" stroke-width="0.25"/>
<path d="M147.74 140.59L155.992 135.735V145.492L147.74 150.541V140.59Z" stroke="black" stroke-width="0.25"/>
<path d="M155.618 103.035L147.123 98.1812L139.113 102.55L147.365 107.647L155.618 103.035Z" stroke="black" stroke-width="0.25"/>
<path d="M155.618 103.035V112.744L147.366 117.598V107.647L155.618 103.035Z" stroke="black" stroke-width="0.25"/>
<path d="M147.366 107.647L139.113 102.55V112.549L147.366 117.598V107.647Z" stroke="black" stroke-width="0.25"/>
<path d="M141.018 112.02L132.766 107.166L124.514 111.777L132.766 116.631L141.018 112.02Z" stroke="black" stroke-width="0.25"/>
<path d="M141.018 112.02V121.728L132.766 126.583V116.632L141.018 112.02Z" stroke="black" stroke-width="0.25"/>
<path d="M132.766 116.632L124.514 111.777V121.534L132.766 126.583V116.632Z" stroke="black" stroke-width="0.25"/>
<path d="M170.592 112.394L162.097 107.54L154.087 111.909L162.34 117.006L170.592 112.394Z" stroke="black" stroke-width="0.25"/>
<path d="M170.592 112.395V122.103L162.34 126.957V117.006L170.592 112.395Z" stroke="black" stroke-width="0.25"/>
<path d="M162.34 117.006L154.087 111.909V121.908L162.34 126.957V117.006Z" stroke="black" stroke-width="0.25"/>
<path d="M155.992 121.004L147.497 116.15L139.488 120.519L147.74 125.616L155.992 121.004Z" stroke="black" stroke-width="0.25"/>
<path d="M155.992 121.004V130.712L147.74 135.567V125.615L155.992 121.004Z" stroke="black" stroke-width="0.25"/>
<path d="M147.74 125.615L139.487 120.519V130.518L147.74 135.567V125.615Z" stroke="black" stroke-width="0.25"/>
<path d="M155.618 88.8103L147.123 83.9561L139.113 88.3248L147.365 93.4218L155.618 88.8103Z" stroke="black" stroke-width="0.25"/>
<path d="M155.618 88.8101V98.5185L147.366 103.373V93.4216L155.618 88.8101Z" stroke="black" stroke-width="0.25"/>
<path d="M147.366 93.4219L139.113 88.325V98.3246L147.366 103.373V93.4219Z" stroke="black" stroke-width="0.25"/>
<path d="M141.018 97.0459L132.523 92.1917L124.514 96.5604L132.766 101.657L141.018 97.0459Z" stroke="black" stroke-width="0.25"/>
<path d="M141.018 97.0457V106.754L132.766 111.608V101.657L141.018 97.0457Z" stroke="black" stroke-width="0.25"/>
<path d="M132.766 101.657L124.514 96.5601V106.56L132.766 111.608V101.657Z" stroke="black" stroke-width="0.25"/>
<path d="M170.592 98.1689L162.097 93.3147L154.088 97.6835L162.34 102.78L170.592 98.1689Z" stroke="black" stroke-width="0.25"/>
<path d="M170.592 98.1689V107.877L162.34 112.732V102.78L170.592 98.1689Z" stroke="black" stroke-width="0.25"/>
<path d="M162.34 102.781L154.087 97.6836V107.683L162.34 112.732V102.781Z" stroke="black" stroke-width="0.25"/>
<path d="M155.618 107.154L147.365 102.299L139.113 106.911L147.365 111.765L155.618 107.154Z" stroke="black" stroke-width="0.25"/>
<path d="M155.618 107.154V116.862L147.366 121.716V111.765L155.618 107.154Z" stroke="black" stroke-width="0.25"/>
<path d="M147.366 111.765L139.113 106.911V116.668L147.366 121.716V111.765Z" stroke="black" stroke-width="0.25"/>
<path d="M108.81 81.7097L108.816 84.6155C108.816 84.6155 108.754 85.0069 109.043 85.1716L146.981 107.024C147.269 107.189 147.722 107.189 148.01 107.024L185.739 85.266C186.114 85.0789 186.114 84.7045 186.114 84.7045V82.0841" stroke="black" stroke-width="0.25"/>
<path fill-rule="evenodd" clip-rule="evenodd" d="M108.998 81.3354L147.02 59.7466C147.309 59.5819 147.762 59.5819 148.05 59.7466L185.922 81.7097C186.21 81.8745 186.21 82.1422 185.922 82.307L148.38 103.884C148.091 104.049 147.638 104.049 147.35 103.884L109.018 81.9327C108.73 81.7679 108.709 81.5001 108.998 81.3354Z" stroke="black" stroke-width="0.25"/>
</g>
<path d="M161.774 193.928L161.783 198.83C161.783 198.83 161.679 199.491 162.165 199.769L226.167 236.634C226.653 236.912 227.418 236.912 227.904 236.634L291.553 199.928C292.185 199.612 292.185 198.98 292.185 198.98V194.56" stroke="black" stroke-width="0.25"/>
<path fill-rule="evenodd" clip-rule="evenodd" d="M162.089 193.297L226.234 156.876C226.72 156.598 227.485 156.598 227.971 156.876L291.861 193.928C292.347 194.206 292.347 194.658 291.861 194.936L228.527 231.337C228.041 231.615 227.276 231.615 226.79 231.337L162.124 194.304C161.638 194.027 161.603 193.575 162.089 193.297Z" stroke="black" stroke-width="0.25"/>
<path d="M213.431 178.11L227.735 169.936L241.222 177.293L227.326 185.875L213.431 178.11Z" stroke="black" stroke-width="0.25"/>
<path d="M238.015 193.238L251.91 185.064L265.806 192.83L251.91 201.004L238.015 193.238Z" stroke="black" stroke-width="0.25"/>
<path d="M188.217 193.869L202.521 185.695L216.008 193.051L202.112 201.634L188.217 193.869Z" stroke="black" stroke-width="0.25"/>
<path d="M212.801 208.367L227.105 200.193L240.592 207.55L226.696 216.132L212.801 208.367Z" stroke="black" stroke-width="0.25"/>
<path d="M213.431 152.896L227.735 144.722L241.222 152.078L227.327 160.661L213.431 152.896Z" stroke="black" stroke-width="0.25"/>
<path d="M213.431 152.896V169.243L227.327 177.417V160.661L213.431 152.896Z" stroke="black" stroke-width="0.25"/>
<path d="M227.327 160.661L241.222 152.078V168.916L227.327 177.417V160.661Z" stroke="black" stroke-width="0.25"/>
<path d="M238.015 168.024L251.911 159.85L265.806 167.615L251.911 175.789L238.015 168.024Z" stroke="black" stroke-width="0.25"/>
<path d="M238.015 168.024V184.372L251.911 192.546V175.789L238.015 168.024Z" stroke="black" stroke-width="0.25"/>
<path d="M251.911 175.789L265.806 167.615V184.045L251.911 192.546V175.789Z" stroke="black" stroke-width="0.25"/>
<path d="M188.217 168.654L202.521 160.48L216.008 167.837L202.112 176.42L188.217 168.654Z" stroke="black" stroke-width="0.25"/>
<path d="M188.217 168.654V185.002L202.112 193.176V176.419L188.217 168.654Z" stroke="black" stroke-width="0.25"/>
<path d="M202.112 176.419L216.008 167.837V184.675L202.112 193.176V176.419Z" stroke="black" stroke-width="0.25"/>
<path d="M212.801 183.153L227.105 174.979L240.592 182.335L226.696 190.918L212.801 183.153Z" stroke="black" stroke-width="0.25"/>
<path d="M212.8 183.152V199.5L226.696 207.674V190.918L212.8 183.152Z" stroke="black" stroke-width="0.25"/>
<path d="M226.696 190.918L240.592 182.335V199.174L226.696 207.674V190.918Z" stroke="black" stroke-width="0.25"/>
<path d="M213.431 128.942L227.735 120.768L241.222 128.125L227.327 136.707L213.431 128.942Z" stroke="black" stroke-width="0.25"/>
<path d="M213.431 128.942V145.29L227.327 153.464V136.707L213.431 128.942Z" stroke="black" stroke-width="0.25"/>
<path d="M227.327 136.707L241.222 128.125V144.963L227.327 153.464V136.707Z" stroke="black" stroke-width="0.25"/>
<path d="M238.015 142.81L252.319 134.636L265.806 141.992L251.911 150.575L238.015 142.81Z" stroke="black" stroke-width="0.25"/>
<path d="M238.015 142.809V159.157L251.911 167.331V150.574L238.015 142.809Z" stroke="black" stroke-width="0.25"/>
<path d="M251.911 150.575L265.806 141.992V158.83L251.911 167.331V150.575Z" stroke="black" stroke-width="0.25"/>
<path d="M162.372 162.981L176.676 154.807L190.163 162.164L176.268 170.746L162.372 162.981Z" stroke="black" stroke-width="0.25"/>
<path d="M162.372 162.981V179.329L176.268 187.503V170.746L162.372 162.981Z" stroke="black" stroke-width="0.25"/>
<path d="M176.268 170.746L190.163 162.164V179.002L176.268 187.503V170.746Z" stroke="black" stroke-width="0.25"/>
<path d="M213.431 159.83L227.327 151.656L241.222 159.421L227.327 167.595L213.431 159.83Z" stroke="black" stroke-width="0.25"/>
<path d="M213.431 159.83V176.177L227.327 184.351V167.595L213.431 159.83Z" stroke="black" stroke-width="0.25"/>
<path d="M227.327 167.595L241.222 159.421V175.851L227.327 184.352V167.595Z" stroke="black" stroke-width="0.25"/>
<path d="M240.592 104.358L226.288 96.1838L212.801 103.54L226.696 112.123L240.592 104.358Z" stroke="black" stroke-width="0.25"/>
<path d="M240.592 104.357V120.705L226.696 128.879V112.123L240.592 104.357Z" stroke="black" stroke-width="0.25"/>
<path d="M226.696 112.123L212.801 103.541V120.379L226.696 128.88V112.123Z" stroke="black" stroke-width="0.25"/>
<path d="M216.008 119.486L202.112 111.312L188.217 119.078L202.112 127.252L216.008 119.486Z" stroke="black" stroke-width="0.25"/>
<path d="M216.008 119.486V135.834L202.112 144.007V127.251L216.008 119.486Z" stroke="black" stroke-width="0.25"/>
<path d="M202.112 127.252L188.216 119.078V135.507L202.112 144.008V127.252Z" stroke="black" stroke-width="0.25"/>
<path d="M271.479 155.417L257.175 147.243L243.688 154.6L257.584 163.182L271.479 155.417Z" stroke="black" stroke-width="0.25"/>
<path d="M257.584 163.182L243.688 154.6V171.438L257.584 179.939V163.182Z" stroke="black" stroke-width="0.25"/>
<path d="M240.592 80.4044L226.288 72.2305L212.801 79.587L226.696 88.1695L240.592 80.4044Z" stroke="black" stroke-width="0.25"/>
<path d="M240.592 80.4043V96.7521L226.696 104.926V88.1695L240.592 80.4043Z" stroke="black" stroke-width="0.25"/>
<path d="M226.696 88.1697L212.801 79.5872V96.4254L226.696 104.926V88.1697Z" stroke="black" stroke-width="0.25"/>
<path d="M216.008 94.272L201.704 86.0981L188.217 93.4546L202.112 102.037L216.008 94.272Z" stroke="black" stroke-width="0.25"/>
<path d="M216.008 94.272V110.62L202.112 118.794V102.037L216.008 94.272Z" stroke="black" stroke-width="0.25"/>
<path d="M202.112 102.037L188.216 93.4548V110.293L202.112 118.794V102.037Z" stroke="black" stroke-width="0.25"/>
<path d="M265.806 96.1631L251.502 87.9893L238.015 95.3458L251.911 103.928L265.806 96.1631Z" stroke="black" stroke-width="0.25"/>
<path d="M265.806 96.1633V112.511L251.911 120.685V103.929L265.806 96.1633Z" stroke="black" stroke-width="0.25"/>
<path d="M251.911 103.929L238.015 95.3459V112.184L251.911 120.685V103.929Z" stroke="black" stroke-width="0.25"/>
<path d="M240.592 111.292L226.696 103.118L212.801 110.883L226.696 119.057L240.592 111.292Z" stroke="black" stroke-width="0.25"/>
<path d="M240.592 111.291V127.639L226.696 135.813V119.056L240.592 111.291Z" stroke="black" stroke-width="0.25"/>
<path d="M226.696 119.057L212.801 110.883V127.312L226.696 135.813V119.057Z" stroke="black" stroke-width="0.25"/>
<path d="M161.774 68.5178L161.783 73.42C161.783 73.42 161.679 74.0802 162.165 74.3581L226.167 111.223C226.653 111.501 227.418 111.501 227.904 111.223L291.554 74.5174C292.185 74.2016 292.185 73.5701 292.185 73.5701V69.1494" stroke="black" stroke-width="0.25"/>
<path fill-rule="evenodd" clip-rule="evenodd" d="M162.09 67.886L226.234 31.4656C226.72 31.1876 227.485 31.1876 227.971 31.4656L291.861 68.5175C292.348 68.7955 292.348 69.2472 291.861 69.5251L228.527 105.926C228.041 106.204 227.276 106.204 226.79 105.926L162.124 68.8936C161.638 68.6156 161.603 68.1639 162.09 67.886Z" stroke="black" stroke-width="0.25"/>
<path opacity="0.7" d="M131.592 163.847L153.052 151.379L200.557 178.359L178.959 190.831L131.592 163.847Z" fill="url(#paint1_linear_66_4335)"/>
<path opacity="0.7" d="M47.9229 38.3432L69.3801 25.8748L170.993 83.5191L149.395 95.9875L47.9229 38.3432Z" fill="url(#paint2_linear_66_4335)"/>
<defs>
<linearGradient id="paint0_linear_66_4335" x1="205.043" y1="88.5136" x2="294.948" y2="143.238" gradientUnits="userSpaceOnUse">
<stop stop-color="#A09D92"/>
<stop offset="1" stop-color="#F8F7F3"/>
</linearGradient>
<linearGradient id="paint1_linear_66_4335" x1="143.899" y1="157.606" x2="190.35" y2="185.881" gradientUnits="userSpaceOnUse">
<stop stop-color="#A09D92"/>
<stop offset="1" stop-color="#F8F7F3"/>
</linearGradient>
<linearGradient id="paint2_linear_66_4335" x1="66.5365" y1="34.807" x2="156.442" y2="89.5314" gradientUnits="userSpaceOnUse">
<stop stop-color="#A09D92"/>
<stop offset="1" stop-color="#F8F7F3"/>
</linearGradient>
</defs>
</svg>
