<svg width="337" height="305" viewBox="0 0 337 305" fill="none" xmlns="http://www.w3.org/2000/svg">
<g clip-path="url(#clip0_15_1562)">
<g opacity="0.5">
<path d="M11.7686 219.323V246.652L254.644 389.755V362.426L11.7686 219.323Z" fill="#11100E" stroke="white" stroke-width="0.5" stroke-linejoin="round"/>
<path d="M11.7686 219.323L163.878 130.873L407.75 273.981L254.644 362.426L11.7686 219.323Z" fill="#11100E" stroke="white" stroke-width="0.5" stroke-linejoin="round"/>
<path d="M407.75 273.981V301.889L254.645 389.755V362.426L407.75 273.981Z" fill="#11100E" stroke="white" stroke-width="0.5" stroke-linejoin="round"/>
</g>
<path d="M148.154 66.9995V94.9611L220.454 137.563V109.595L148.154 66.9995Z" fill="#11100E" stroke="white" stroke-width="0.5" stroke-linejoin="round"/>
<path d="M148.154 66.9997L193.433 40.6675L266.031 83.2694L220.454 109.596L148.154 66.9997Z" fill="#11100E" stroke="white" stroke-width="0.5" stroke-linejoin="round"/>
<path d="M266.031 83.2693V111.404L220.454 137.563V109.596L266.031 83.2693Z" fill="#11100E" stroke="white" stroke-width="0.5" stroke-linejoin="round"/>
<path d="M220.454 109.596V137.563L292.754 180.165V152.198L220.454 109.596Z" fill="#11100E" stroke="white" stroke-width="0.5" stroke-linejoin="round"/>
<path d="M220.454 109.596L265.733 83.2693L338.331 125.871L292.754 152.198L220.454 109.596Z" fill="#11100E" stroke="white" stroke-width="0.5" stroke-linejoin="round"/>
<path d="M338.331 125.871V154.006L292.754 180.165V152.197L338.331 125.871Z" fill="#11100E" stroke="white" stroke-width="0.5" stroke-linejoin="round"/>
<path d="M102.923 93.3259V121.294L175.223 163.889V135.928L102.923 93.3259Z" fill="#11100E" stroke="white" stroke-width="0.5" stroke-linejoin="round"/>
<path d="M102.923 93.326L148.202 66.9998L220.8 109.596L175.223 135.928L102.923 93.326Z" fill="#11100E" stroke="white" stroke-width="0.5" stroke-linejoin="round"/>
<path d="M220.8 109.595V137.736L175.223 163.889V135.928L220.8 109.595Z" fill="#11100E" stroke="white" stroke-width="0.5" stroke-linejoin="round"/>
<path d="M11.7686 145.984V173.952L84.0682 216.554V188.586L11.7686 145.984Z" fill="#11100E" stroke="white" stroke-width="0.5" stroke-linejoin="round"/>
<path d="M11.7686 145.985L57.0476 119.658L129.645 162.26L84.0682 188.586L11.7686 145.985Z" fill="#11100E" stroke="white" stroke-width="0.5" stroke-linejoin="round"/>
<path d="M129.646 162.26V190.395L84.0684 216.554V188.586L129.646 162.26Z" fill="#11100E" stroke="white" stroke-width="0.5" stroke-linejoin="round"/>
<path d="M407.75 163.889V191.857L335.45 234.459V206.491L407.75 163.889Z" fill="#11100E" stroke="white" stroke-width="0.5" stroke-linejoin="round"/>
<path d="M407.75 163.89L362.471 137.563L289.873 180.165L335.45 206.491L407.75 163.89Z" fill="#11100E" stroke="white" stroke-width="0.5" stroke-linejoin="round"/>
<path d="M289.873 180.165V208.3L335.45 234.459V206.491L289.873 180.165Z" fill="#11100E" stroke="white" stroke-width="0.5" stroke-linejoin="round"/>
<path d="M222.059 40.5181V68.4856L294.359 111.088V83.12L222.059 40.5181Z" fill="#11100E" stroke="white" stroke-width="0.5" stroke-linejoin="round"/>
<path d="M222.059 40.5182L267.338 14.1919L339.936 56.7938L294.359 83.1201L222.059 40.5182Z" fill="#11100E" stroke="white" stroke-width="0.5" stroke-linejoin="round"/>
<path d="M339.936 56.7937V84.9284L294.358 111.088V83.12L339.936 56.7937Z" fill="#11100E" stroke="white" stroke-width="0.5" stroke-linejoin="round"/>
<path d="M243.246 165.203L288.525 138.876L361.123 181.472L315.546 207.804L243.246 165.203Z" fill="#11100E" stroke="white" stroke-width="0.5" stroke-linejoin="round"/>
<path d="M47.9216 203.418V231.379L120.221 273.981V246.014L47.9216 203.418Z" fill="#11100E" stroke="white" stroke-width="0.5" stroke-linejoin="round"/>
<path opacity="0.7" d="M84.0684 202.003L129.353 175.677L229.598 232.644L184.021 258.977L84.0684 202.003Z" fill="url(#paint0_linear_15_1562)"/>
<path opacity="0.7" d="M335.891 222.027L290.612 195.695L190.367 252.668L235.945 278.995L335.891 222.027Z" fill="url(#paint1_linear_15_1562)"/>
<path opacity="0.7" d="M294.496 93.6065L222.029 52.425L176.118 78.435L248.883 119.611L294.496 93.6065Z" fill="url(#paint2_linear_15_1562)"/>
<path d="M184.301 240.26V268.222L256.607 310.824V282.862L184.301 240.26Z" fill="#11100E" stroke="white" stroke-width="0.5" stroke-linejoin="round"/>
<path d="M184.301 240.26L229.586 213.928L302.184 256.53L256.607 282.862L184.301 240.26Z" fill="#11100E" stroke="white" stroke-width="0.5" stroke-linejoin="round"/>
<path d="M302.184 256.53V284.664L256.607 310.824V282.862L302.184 256.53Z" fill="#11100E" stroke="white" stroke-width="0.5" stroke-linejoin="round"/>
<path d="M59.1235 46.3672V74.3288L131.429 116.931V88.9691L59.1235 46.3672Z" fill="#11100E" stroke="white" stroke-width="0.5" stroke-linejoin="round"/>
<path d="M59.1235 46.3672L104.409 20.0349L177.006 62.6368L131.429 88.9691L59.1235 46.3672Z" fill="#11100E" stroke="white" stroke-width="0.5" stroke-linejoin="round"/>
<path d="M177.006 62.6367V90.7714L131.429 116.931V88.969L177.006 62.6367Z" fill="#11100E" stroke="white" stroke-width="0.5" stroke-linejoin="round"/>
<path d="M131.429 88.9688V116.93L203.729 159.532V131.571L131.429 88.9688Z" fill="#11100E" stroke="white" stroke-width="0.5" stroke-linejoin="round"/>
<path d="M131.429 88.969L176.708 62.6367L249.306 105.239L203.729 131.571L131.429 88.969Z" fill="#11100E" stroke="white" stroke-width="0.5" stroke-linejoin="round"/>
<path d="M249.306 105.239V133.373L203.729 159.532V131.571L249.306 105.239Z" fill="#11100E" stroke="white" stroke-width="0.5" stroke-linejoin="round"/>
<path d="M13.5461 72.6995V100.661L85.8518 143.263V115.295L13.5461 72.6995Z" fill="#11100E" stroke="white" stroke-width="0.5" stroke-linejoin="round"/>
<path d="M13.5461 72.6994L58.8311 46.3672L131.429 88.9691L85.8518 115.295L13.5461 72.6994Z" fill="#11100E" stroke="white" stroke-width="0.5" stroke-linejoin="round"/>
<path d="M131.429 88.969V117.104L85.8518 143.263V115.295L131.429 88.969Z" fill="#11100E" stroke="white" stroke-width="0.5" stroke-linejoin="round"/>
<path opacity="0.7" d="M85.8516 130.664L131.131 104.337L345.554 226.049L299.977 252.376L85.8516 130.664Z" fill="url(#paint3_linear_15_1562)"/>
<g opacity="0.5">
<path d="M11.7686 -18.2339V9.09509L254.644 152.198V124.869L11.7686 -18.2339Z" fill="#11100E" stroke="white" stroke-width="0.5" stroke-linejoin="round"/>
<path d="M11.7686 -18.234L163.878 -106.685L407.75 36.424L254.644 124.869L11.7686 -18.234Z" fill="#11100E" stroke="white" stroke-width="0.5" stroke-linejoin="round"/>
<path d="M407.75 36.4241V64.332L254.645 152.198V124.869L407.75 36.4241Z" fill="#11100E" stroke="white" stroke-width="0.5" stroke-linejoin="round"/>
</g>
<path d="M248.763 115.295H260.532" stroke="white" stroke-width="0.5" stroke-linejoin="round"/>
<path d="M254.645 121.186V109.41" stroke="white" stroke-width="0.5" stroke-linejoin="round"/>
<path d="M0 256.53H11.7686" stroke="white" stroke-width="0.5" stroke-linejoin="round"/>
<path d="M5.88745 262.421V250.639" stroke="white" stroke-width="0.5" stroke-linejoin="round"/>
<g opacity="0.7">
<path d="M5.88745 102.278V102.875" stroke="white" stroke-width="0.5" stroke-linejoin="round"/>
<path d="M5.88745 105.292V241.609" stroke="white" stroke-width="0.5" stroke-linejoin="round" stroke-dasharray="1.01 2.02"/>
<path d="M5.88745 242.814V243.411" stroke="white" stroke-width="0.5" stroke-linejoin="round"/>
</g>
<path d="M11.7686 262.421L190.367 367.081" stroke="white" stroke-width="0.5" stroke-linejoin="round" stroke-dasharray="1 2"/>
<path d="M173.296 -114.109L405.077 20.035" stroke="white" stroke-width="0.5" stroke-linejoin="round" stroke-dasharray="1 2"/>
</g>
<defs>
<linearGradient id="paint0_linear_15_1562" x1="106.079" y1="186.289" x2="212.662" y2="250.86" gradientUnits="userSpaceOnUse">
<stop stop-color="#635F53"/>
<stop offset="1" stop-color="#35301B"/>
</linearGradient>
<linearGradient id="paint1_linear_15_1562" x1="309.926" y1="208.843" x2="211.875" y2="268.493" gradientUnits="userSpaceOnUse">
<stop stop-color="#635F53"/>
<stop offset="1" stop-color="#35301B"/>
</linearGradient>
<linearGradient id="paint2_linear_15_1562" x1="266.419" y1="67.0713" x2="201.227" y2="106.727" gradientUnits="userSpaceOnUse">
<stop stop-color="#635F53"/>
<stop offset="1" stop-color="#35301B"/>
</linearGradient>
<linearGradient id="paint3_linear_15_1562" x1="125.13" y1="123.197" x2="314.907" y2="238.645" gradientUnits="userSpaceOnUse">
<stop stop-color="#635F53"/>
<stop offset="1" stop-color="#35301B"/>
</linearGradient>
<clipPath id="clip0_15_1562">
<rect width="425" height="528" fill="white" transform="translate(0 -120)"/>
</clipPath>
</defs>
</svg>
