<svg width="365" height="90" viewBox="0 0 365 90" fill="none" xmlns="http://www.w3.org/2000/svg">
<path d="M-2.38419e-06 45L198 45" stroke="url(#paint0_linear_0_1)"/>
<g filter="url(#filter0_d_0_1)">
<rect x="180" y="21" width="48" height="48" rx="24" fill="white"/>
<path d="M204.179 48.2436H216.875C216.988 48.2436 217.096 48.1988 217.176 48.119C217.255 48.0392 217.3 47.9311 217.3 47.8183V45.0032C217.3 44.988 217.3 44.9734 217.3 44.9595C217.297 44.9389 217.293 44.9186 217.288 44.8987C217.288 44.8957 217.288 44.8926 217.288 44.8896C217.282 44.8688 217.275 44.8485 217.267 44.8288L217.263 44.8203C217.254 44.801 217.243 44.7826 217.231 44.765C217.22 44.7481 217.207 44.7321 217.193 44.717L217.185 44.7091C217.171 44.6946 217.156 44.681 217.14 44.6684L217.13 44.6617C217.113 44.6489 217.095 44.6375 217.076 44.6277L210.883 41.8151L210.874 41.8108L210.849 41.7993L210.832 41.7932L210.811 41.7859L210.789 41.7805L210.771 41.7768L210.745 41.7726H210.73H210.7H197.3L192.974 39.8106L216.874 39.8051C216.987 39.8051 217.095 39.7603 217.175 39.6805C217.255 39.6008 217.299 39.4926 217.299 39.3798V36.5678C217.299 36.5503 217.298 36.5329 217.296 36.5155V36.5052C217.29 36.4619 217.277 36.4199 217.257 36.3806L217.254 36.3734C217.244 36.3548 217.233 36.337 217.221 36.3199C217.219 36.3169 217.217 36.3141 217.214 36.3114C217.202 36.2943 217.188 36.2785 217.173 36.264L217.168 36.2585C217.152 36.2438 217.135 36.2302 217.117 36.2178C217.098 36.2052 217.078 36.1938 217.057 36.1838H217.053L210.851 33.3712C210.796 33.3462 210.736 33.3334 210.676 33.3335L191.006 33.339C190.983 33.3391 190.961 33.3412 190.938 33.3451H190.929C190.908 33.349 190.888 33.3545 190.868 33.3615L190.859 33.3651C190.838 33.3719 190.817 33.3808 190.798 33.3918H190.793C190.775 33.402 190.757 33.4138 190.741 33.4271L190.737 33.4301C190.721 33.4434 190.705 33.4578 190.691 33.4733L190.683 33.4818C190.67 33.4975 190.658 33.5141 190.647 33.5316C190.645 33.5345 190.643 33.5375 190.641 33.5407C190.63 33.5591 190.62 33.5784 190.612 33.5984V33.6027C190.603 33.624 190.597 33.6459 190.592 33.6683C190.587 33.6899 190.584 33.7119 190.583 33.7339C190.583 33.7382 190.583 33.7424 190.583 33.7467C190.583 33.7509 190.583 33.754 190.583 33.7576V36.5702C190.583 36.6519 190.607 36.7319 190.651 36.8005C190.695 36.8691 190.758 36.9236 190.833 36.9573L195.241 38.9551H191.006C190.983 38.9553 190.961 38.9573 190.938 38.9612H190.929C190.908 38.9654 190.888 38.9709 190.868 38.9776L190.859 38.9812C190.838 38.9885 190.818 38.9975 190.798 39.008L190.793 39.011C190.775 39.0213 190.758 39.0331 190.741 39.0462L190.737 39.0493C190.721 39.0626 190.705 39.0772 190.691 39.093L190.683 39.1015C190.67 39.1169 190.658 39.1334 190.647 39.1507L190.641 39.1599C190.63 39.1793 190.62 39.1996 190.612 39.2206V39.2249C190.603 39.2461 190.597 39.2681 190.592 39.2905C190.587 39.3121 190.584 39.334 190.583 39.3561C190.583 39.3604 190.583 39.3646 190.583 39.3689C190.583 39.3731 190.583 39.3756 190.583 39.3792V42.1918C190.583 42.2736 190.607 42.3537 190.651 42.4224C190.695 42.4912 190.758 42.5457 190.833 42.5795L195.241 44.5779H191.006C190.983 44.5781 190.961 44.58 190.938 44.5834H190.929C190.908 44.587 190.888 44.5925 190.868 44.5998L190.859 44.6034C190.838 44.6103 190.818 44.619 190.798 44.6295H190.793C190.775 44.6401 190.758 44.6521 190.741 44.6654C190.739 44.666 190.738 44.6671 190.737 44.6684C190.721 44.6817 190.705 44.6961 190.691 44.7116L190.683 44.7201C190.67 44.7358 190.658 44.7524 190.647 44.7699C190.645 44.7728 190.643 44.7758 190.641 44.779C190.63 44.7984 190.62 44.8187 190.612 44.8398V44.844C190.603 44.8653 190.597 44.8872 190.592 44.9096C190.587 44.9312 190.584 44.9532 190.583 44.9753C190.583 44.9795 190.583 44.9838 190.583 44.988C190.583 44.9923 190.583 44.9953 190.583 44.999V47.8116C190.583 47.8932 190.607 47.9732 190.651 48.0418C190.695 48.1105 190.758 48.1649 190.833 48.1986L195.241 50.2049H191.006C190.983 50.2051 190.961 50.2071 190.938 50.211H190.929C190.908 50.2152 190.888 50.2207 190.868 50.2274L190.859 50.2311C190.838 50.2381 190.818 50.2471 190.798 50.2578L190.793 50.2608C190.775 50.2712 190.758 50.283 190.741 50.2961H190.737C190.721 50.3094 190.705 50.324 190.691 50.3398L190.683 50.3477C190.67 50.3634 190.658 50.3801 190.647 50.3975L190.641 50.4067C190.63 50.4251 190.62 50.4444 190.612 50.4644V50.4686C190.603 50.4899 190.597 50.5119 190.592 50.5343C190.587 50.5557 190.584 50.5774 190.583 50.5993C190.583 50.6035 190.583 50.6078 190.583 50.6126C190.583 50.6175 190.583 50.6193 190.583 50.623V53.4356C190.583 53.5174 190.607 53.5974 190.651 53.6662C190.695 53.7349 190.758 53.7895 190.833 53.8232L197.035 56.6352C197.045 56.6401 197.056 56.6443 197.067 56.648L197.076 56.651C197.088 56.6547 197.099 56.6583 197.111 56.6608H197.119C197.131 56.6634 197.144 56.6654 197.156 56.6668H197.162C197.177 56.6668 197.192 56.6668 197.207 56.6668H208.596C208.709 56.6668 208.817 56.622 208.897 56.5423C208.976 56.4625 209.021 56.3543 209.021 56.2415V53.4429C209.021 53.4256 209.019 53.4084 209.017 53.3912V53.3803C209.011 53.338 208.998 53.297 208.979 53.2588L208.975 53.2509C208.966 53.2325 208.955 53.2148 208.943 53.198L208.936 53.1889C208.924 53.1721 208.91 53.1563 208.895 53.1415L208.889 53.136C208.873 53.1215 208.857 53.1079 208.839 53.0953C208.82 53.0827 208.8 53.0716 208.779 53.0619H208.775L202.573 50.2499C202.518 50.2248 202.458 50.2117 202.397 50.2116H197.633V48.2503L204.179 48.2436ZM197.633 38.9551V36.9937L216.45 36.9882V38.9496L197.633 38.9551ZM210.579 34.1756L214.905 36.1376L197.3 36.1431L192.974 34.1811L210.579 34.1756ZM191.429 34.4157L196.781 36.8424V38.7212L191.429 36.2907V34.4157ZM199.097 44.5779H197.633V42.6159H210.581L214.908 44.5779H199.097ZM191.431 40.0379L196.783 42.4646V44.3433L191.431 41.9166V40.0379ZM197.208 45.4285H216.45V47.3905H197.3L192.974 45.4285H197.208ZM191.431 45.6625L196.783 48.0929V49.9716L191.431 47.5412V45.6625ZM191.431 51.2877L196.783 53.7145V55.5932L191.431 53.1664V51.2877ZM197.633 55.8277V53.8682H208.172V55.8302L197.633 55.8277ZM202.303 51.0532L206.63 53.0175H197.3L192.974 51.0556H202.303V51.0532Z" fill="#78716C"/>
</g>
<g filter="url(#filter1_d_0_1)">
<rect x="238" y="21" width="48" height="48" rx="24" fill="white"/>
<path d="M262.172 48.1257H274.415C274.524 48.1257 274.628 48.0824 274.705 48.0055C274.782 47.9286 274.825 47.8242 274.825 47.7154V45.0003C274.825 44.9856 274.825 44.9716 274.825 44.9581C274.822 44.9383 274.819 44.9187 274.813 44.8995C274.814 44.8966 274.814 44.8936 274.813 44.8907C274.808 44.8706 274.801 44.851 274.793 44.8321L274.789 44.8239C274.781 44.8053 274.77 44.7875 274.759 44.7706C274.748 44.7542 274.735 44.7388 274.721 44.7243L274.714 44.7166C274.701 44.7026 274.686 44.6895 274.67 44.6774L274.661 44.6709C274.645 44.6586 274.627 44.6476 274.609 44.6381L268.638 41.9253L268.628 41.9212L268.604 41.9101L268.589 41.9042L268.567 41.8972L268.547 41.8919L268.529 41.8884L268.504 41.8843H268.49H268.461H255.539L251.367 39.992H264.038C264.147 39.992 264.251 39.9487 264.328 39.8718C264.405 39.7949 264.448 39.6905 264.448 39.5817V36.8695C264.448 36.8527 264.447 36.8358 264.444 36.8191V36.8091C264.439 36.7674 264.426 36.7269 264.408 36.689L264.404 36.682C264.395 36.6641 264.384 36.6469 264.373 36.6304C264.371 36.6275 264.368 36.6248 264.366 36.6222C264.354 36.6058 264.341 36.5905 264.326 36.5765L264.321 36.5712C264.306 36.557 264.29 36.5439 264.272 36.532C264.254 36.5198 264.234 36.5088 264.214 36.4991H264.21L258.23 33.7863C258.177 33.7623 258.119 33.7499 258.061 33.75H249.47C249.448 33.7502 249.426 33.7521 249.405 33.7559H249.396C249.376 33.7597 249.356 33.765 249.337 33.7717L249.328 33.7752C249.308 33.7817 249.288 33.7904 249.27 33.801H249.265C249.247 33.8107 249.23 33.8221 249.215 33.835L249.211 33.8379C249.195 33.8507 249.18 33.8646 249.167 33.8795L249.159 33.8877C249.146 33.9028 249.134 33.9189 249.124 33.9358C249.122 33.9386 249.12 33.9415 249.118 33.9446C249.107 33.9623 249.098 33.9809 249.09 34.0002V34.0043C249.082 34.0249 249.075 34.046 249.071 34.0676C249.066 34.0885 249.063 34.1096 249.063 34.1309C249.063 34.135 249.063 34.1391 249.063 34.1432C249.063 34.1473 249.063 34.1503 249.063 34.1538V36.8666C249.063 36.9454 249.085 37.0225 249.128 37.0887C249.171 37.1549 249.231 37.2074 249.303 37.2399L253.554 39.1668H249.47C249.448 39.167 249.426 39.1689 249.405 39.1727H249.396C249.376 39.1767 249.356 39.182 249.337 39.1885L249.328 39.192C249.308 39.1991 249.289 39.2077 249.27 39.2178L249.265 39.2207C249.247 39.2307 249.231 39.2421 249.215 39.2547L249.211 39.2576C249.195 39.2705 249.18 39.2846 249.167 39.2998L249.159 39.3081C249.146 39.3229 249.134 39.3387 249.124 39.3555L249.118 39.3643C249.107 39.3831 249.098 39.4027 249.09 39.4229V39.427C249.082 39.4475 249.075 39.4687 249.071 39.4903C249.066 39.5111 249.063 39.5323 249.063 39.5536C249.063 39.5577 249.063 39.5618 249.063 39.5659C249.063 39.57 249.063 39.5723 249.063 39.5759V42.2887C249.062 42.3675 249.085 42.4448 249.128 42.5111C249.17 42.5774 249.231 42.63 249.303 42.6626L253.554 44.5901H249.47C249.448 44.5903 249.426 44.5921 249.405 44.5953H249.396C249.376 44.5989 249.356 44.6042 249.337 44.6112L249.328 44.6147C249.308 44.6213 249.288 44.6297 249.27 44.6399H249.265C249.247 44.65 249.231 44.6616 249.215 44.6744C249.213 44.6751 249.212 44.6761 249.211 44.6774C249.195 44.6902 249.18 44.7041 249.167 44.719L249.159 44.7272C249.146 44.7423 249.134 44.7584 249.124 44.7752C249.122 44.778 249.12 44.781 249.118 44.784C249.107 44.8027 249.098 44.8223 249.09 44.8427V44.8467C249.082 44.8672 249.075 44.8884 249.071 44.91C249.066 44.9309 249.063 44.952 249.063 44.9733C249.063 44.9774 249.063 44.9815 249.063 44.9856C249.063 44.9897 249.063 44.9927 249.063 44.9962V47.709C249.063 47.7878 249.085 47.8649 249.128 47.9311C249.171 47.9973 249.231 48.0498 249.303 48.0823L253.554 50.0174H249.47C249.448 50.0176 249.426 50.0195 249.405 50.0233H249.396C249.376 50.0274 249.356 50.0326 249.337 50.0391L249.328 50.0426C249.308 50.0494 249.288 50.058 249.27 50.0684L249.265 50.0713C249.247 50.0813 249.231 50.0927 249.215 50.1053H249.211C249.195 50.1182 249.18 50.1323 249.167 50.1475L249.159 50.1551C249.146 50.1703 249.134 50.1863 249.124 50.2032L249.118 50.212C249.107 50.2298 249.098 50.2484 249.09 50.2677V50.2718C249.082 50.2923 249.075 50.3135 249.071 50.3351C249.066 50.3557 249.063 50.3767 249.063 50.3978C249.063 50.4019 249.063 50.406 249.063 50.4107C249.063 50.4153 249.063 50.4171 249.063 50.4206V53.1334C249.062 53.2123 249.085 53.2895 249.128 53.3558C249.17 53.4222 249.231 53.4747 249.303 53.5073L255.284 56.2195C255.294 56.2242 255.304 56.2283 255.314 56.2318L255.323 56.2348C255.335 56.2383 255.346 56.2418 255.358 56.2441H255.365C255.377 56.2467 255.389 56.2487 255.401 56.25H255.407C255.421 56.25 255.435 56.25 255.45 56.25H274.414C274.523 56.25 274.627 56.2068 274.704 56.1298C274.781 56.0529 274.824 55.9486 274.824 55.8398V53.1404C274.824 53.1238 274.822 53.1072 274.82 53.0906V53.0801C274.814 53.0393 274.802 52.9998 274.783 52.9629L274.78 52.9553C274.771 52.9375 274.76 52.9205 274.748 52.9043L274.742 52.8955C274.73 52.8793 274.717 52.864 274.703 52.8498L274.697 52.8445C274.682 52.8305 274.666 52.8173 274.649 52.8052C274.63 52.7931 274.611 52.7823 274.59 52.773H274.587L268.606 50.0608C268.553 50.0366 268.495 50.024 268.437 50.0239H255.86V48.1321L262.172 48.1257ZM255.86 39.1668V37.2751H263.629V39.1668H255.86ZM257.967 34.5622L262.139 36.4546H255.539L251.367 34.5622H257.967ZM249.878 34.7885L255.039 37.1291V38.9412L249.878 36.597V34.7885ZM257.272 44.5901H255.86V42.6977H268.346L272.518 44.5901H257.272ZM249.88 40.2111L255.041 42.5518V44.3638L249.88 42.0232V40.2111ZM255.451 45.4105H274.005V47.3029H255.539L251.367 45.4105H255.451ZM249.88 45.6362L255.041 47.9803V49.7924L249.88 47.4482V45.6362ZM249.88 51.0617L255.041 53.4024V55.2145L249.88 52.8738V51.0617ZM255.86 55.4407V53.5507H274.005V55.443L255.86 55.4407ZM268.346 50.8355L272.518 52.7302H255.539L251.367 50.8379H268.346V50.8355Z" fill="#78716C"/>
</g>
<g filter="url(#filter2_d_0_1)">
<rect x="296" y="21" width="48" height="48" rx="24" fill="white"/>
<path d="M316.759 45.1787V57.8755C316.759 57.9887 316.803 58.096 316.884 58.1753C316.963 58.2547 317.072 58.3002 317.185 58.3002H320.044C320.065 58.2978 320.085 58.2932 320.105 58.2885C320.108 58.2885 320.111 58.2885 320.114 58.2885C320.135 58.2827 320.155 58.2757 320.175 58.2675L320.183 58.264C320.203 58.2547 320.22 58.2442 320.238 58.2325C320.255 58.2208 320.271 58.208 320.286 58.194L320.294 58.187C320.308 58.173 320.322 58.1578 320.335 58.1415L320.342 58.1322C320.355 58.1147 320.366 58.0972 320.376 58.0785L323.188 51.8858L323.193 51.8765L323.205 51.852L323.211 51.8357L323.218 51.8135L323.223 51.7925L323.227 51.7738L323.232 51.7482V38.3L325.194 33.974V57.8755C325.194 57.9887 325.238 58.096 325.319 58.1753C325.398 58.2547 325.507 58.3002 325.62 58.3002H328.433C328.45 58.3002 328.468 58.299 328.485 58.2967H328.496C328.539 58.2908 328.581 58.278 328.62 58.2582L328.627 58.2547C328.646 58.2453 328.664 58.2337 328.681 58.222C328.685 58.2197 328.687 58.2173 328.689 58.215C328.707 58.2033 328.722 58.1893 328.737 58.1742L328.743 58.1683C328.758 58.152 328.771 58.1357 328.784 58.1182C328.797 58.0983 328.808 58.0785 328.818 58.0575V58.054L331.63 51.852C331.655 51.7972 331.668 51.7365 331.668 51.677V32.0058C331.668 31.9837 331.665 31.9603 331.662 31.9382V31.9288C331.658 31.9078 331.653 31.888 331.646 31.8682L331.642 31.8588C331.635 31.8378 331.627 31.8168 331.615 31.7982V31.7935C331.605 31.7748 331.593 31.7573 331.58 31.741L331.577 31.7363C331.564 31.72 331.549 31.7048 331.534 31.6908L331.525 31.6827C331.51 31.6698 331.493 31.657 331.475 31.6465C331.473 31.6442 331.469 31.6418 331.466 31.6407C331.447 31.629 331.429 31.6197 331.409 31.6115H331.404C331.383 31.6033 331.361 31.5963 331.339 31.5917C331.317 31.587 331.296 31.5847 331.273 31.5835H328.436C328.354 31.5835 328.274 31.6068 328.206 31.6512C328.137 31.6955 328.083 31.7585 328.05 31.8332L326.051 36.242V32.0058C326.051 31.9837 326.049 31.9603 326.046 31.9382V31.9288C326.041 31.9078 326.036 31.888 326.029 31.8682L326.026 31.8588C326.019 31.8378 326.009 31.818 325.999 31.7982L325.995 31.7935C325.985 31.7748 325.973 31.7573 325.96 31.741L325.957 31.7363C325.944 31.72 325.929 31.7048 325.913 31.6908L325.904 31.6827C325.889 31.6687 325.873 31.657 325.855 31.6465L325.846 31.6407C325.826 31.629 325.806 31.6197 325.785 31.6115H325.781C325.76 31.6033 325.738 31.5963 325.715 31.5917C325.693 31.587 325.672 31.5847 325.65 31.5835H322.814C322.732 31.5835 322.652 31.6068 322.583 31.6512C322.514 31.6955 322.459 31.7585 322.425 31.8332L320.427 36.242V32.0058C320.427 31.9837 320.425 31.9603 320.421 31.9382V31.9288C320.418 31.9078 320.412 31.888 320.405 31.8682L320.401 31.8588C320.394 31.8378 320.386 31.818 320.376 31.7982V31.7935C320.365 31.7748 320.353 31.7573 320.339 31.741C320.339 31.7398 320.338 31.7375 320.336 31.7363C320.323 31.72 320.308 31.7048 320.293 31.6908L320.285 31.6827C320.269 31.6698 320.252 31.657 320.234 31.6465C320.232 31.6442 320.229 31.6418 320.225 31.6407C320.205 31.629 320.185 31.6197 320.164 31.6115H320.16C320.139 31.6033 320.117 31.5963 320.094 31.5917C320.072 31.587 320.051 31.5847 320.029 31.5835H317.192C317.11 31.5835 317.03 31.6068 316.962 31.6512C316.893 31.6955 316.838 31.7585 316.806 31.8332L314.799 36.242V32.0058C314.799 31.9837 314.797 31.9603 314.793 31.9382V31.9288C314.788 31.9078 314.784 31.888 314.777 31.8682L314.773 31.8588C314.766 31.8378 314.757 31.818 314.746 31.7982L314.743 31.7935C314.732 31.7748 314.721 31.7573 314.708 31.741V31.7363C314.695 31.72 314.68 31.7048 314.664 31.6908L314.655 31.6827C314.64 31.6698 314.623 31.657 314.605 31.6465L314.596 31.6407C314.577 31.629 314.559 31.6197 314.538 31.6115H314.533C314.512 31.6033 314.49 31.5963 314.468 31.5917C314.447 31.587 314.424 31.5847 314.402 31.5835H311.565C311.483 31.5835 311.403 31.6068 311.334 31.6512C311.265 31.6955 311.21 31.7585 311.176 31.8332L308.365 38.0352C308.36 38.0457 308.355 38.0562 308.352 38.0667L308.348 38.076C308.345 38.0877 308.341 38.0993 308.339 38.1122V38.1192C308.337 38.132 308.334 38.1437 308.333 38.1565V57.8743C308.333 57.9875 308.378 58.0948 308.458 58.1742C308.537 58.2535 308.646 58.299 308.759 58.299H311.558C311.575 58.299 311.593 58.2978 311.609 58.2955H311.62C311.662 58.2897 311.703 58.2768 311.741 58.257L311.749 58.2535C311.768 58.2442 311.785 58.2325 311.802 58.2208L311.811 58.2138C311.827 58.201 311.844 58.1882 311.859 58.173L311.865 58.1672C311.879 58.1508 311.893 58.1345 311.906 58.117C311.918 58.0972 311.929 58.0773 311.939 58.0563V58.0528L314.752 51.8508C314.778 51.796 314.791 51.7353 314.791 51.6758V38.6325H316.753L316.76 45.1787H316.759ZM326.049 38.6325H328.011V57.4497H326.049V38.6325ZM330.824 51.5802L328.862 55.9062V38.3L330.824 33.974V51.5802ZM330.59 32.4293L328.162 37.782H326.282L328.714 32.4293H330.59ZM320.425 40.0967V38.6325H322.387V51.5813L320.425 55.9085V40.0967ZM324.966 32.4305L322.539 37.7832H320.659L323.087 32.4305H324.966ZM319.574 38.2078V57.4497H317.612V38.3L319.574 33.974V38.2078ZM319.341 32.4305L316.909 37.7832H315.03L317.461 32.4305H319.341ZM313.714 32.4305L311.286 37.7832H309.408L311.834 32.4305H313.714ZM309.172 38.6325H311.132V57.4497H309.17L309.172 38.6325ZM313.948 51.5813L311.984 55.9085V38.3L313.946 33.974V51.5813H313.948Z" fill="#78716C"/>
</g>
<defs>
<filter id="filter0_d_0_1" x="159.42" y="0.419999" width="89.16" height="89.16" filterUnits="userSpaceOnUse" color-interpolation-filters="sRGB">
<feFlood flood-opacity="0" result="BackgroundImageFix"/>
<feColorMatrix in="SourceAlpha" type="matrix" values="0 0 0 0 0 0 0 0 0 0 0 0 0 0 0 0 0 0 127 0" result="hardAlpha"/>
<feMorphology radius="1.2" operator="dilate" in="SourceAlpha" result="effect1_dropShadow_0_1"/>
<feOffset/>
<feGaussianBlur stdDeviation="9.69"/>
<feComposite in2="hardAlpha" operator="out"/>
<feColorMatrix type="matrix" values="0 0 0 0 0.682353 0 0 0 0 0.647059 0 0 0 0 0.509804 0 0 0 0.5 0"/>
<feBlend mode="normal" in2="BackgroundImageFix" result="effect1_dropShadow_0_1"/>
<feBlend mode="normal" in="SourceGraphic" in2="effect1_dropShadow_0_1" result="shape"/>
</filter>
<filter id="filter1_d_0_1" x="217.42" y="0.419999" width="89.16" height="89.16" filterUnits="userSpaceOnUse" color-interpolation-filters="sRGB">
<feFlood flood-opacity="0" result="BackgroundImageFix"/>
<feColorMatrix in="SourceAlpha" type="matrix" values="0 0 0 0 0 0 0 0 0 0 0 0 0 0 0 0 0 0 127 0" result="hardAlpha"/>
<feMorphology radius="1.2" operator="dilate" in="SourceAlpha" result="effect1_dropShadow_0_1"/>
<feOffset/>
<feGaussianBlur stdDeviation="9.69"/>
<feComposite in2="hardAlpha" operator="out"/>
<feColorMatrix type="matrix" values="0 0 0 0 0.682353 0 0 0 0 0.647059 0 0 0 0 0.509804 0 0 0 0.5 0"/>
<feBlend mode="normal" in2="BackgroundImageFix" result="effect1_dropShadow_0_1"/>
<feBlend mode="normal" in="SourceGraphic" in2="effect1_dropShadow_0_1" result="shape"/>
</filter>
<filter id="filter2_d_0_1" x="275.42" y="0.419999" width="89.16" height="89.16" filterUnits="userSpaceOnUse" color-interpolation-filters="sRGB">
<feFlood flood-opacity="0" result="BackgroundImageFix"/>
<feColorMatrix in="SourceAlpha" type="matrix" values="0 0 0 0 0 0 0 0 0 0 0 0 0 0 0 0 0 0 127 0" result="hardAlpha"/>
<feMorphology radius="1.2" operator="dilate" in="SourceAlpha" result="effect1_dropShadow_0_1"/>
<feOffset/>
<feGaussianBlur stdDeviation="9.69"/>
<feComposite in2="hardAlpha" operator="out"/>
<feColorMatrix type="matrix" values="0 0 0 0 0.682353 0 0 0 0 0.647059 0 0 0 0 0.509804 0 0 0 0.5 0"/>
<feBlend mode="normal" in2="BackgroundImageFix" result="effect1_dropShadow_0_1"/>
<feBlend mode="normal" in="SourceGraphic" in2="effect1_dropShadow_0_1" result="shape"/>
</filter>
<linearGradient id="paint0_linear_0_1" x1="1.07333e-06" y1="48.9998" x2="196.415" y2="48.9998" gradientUnits="userSpaceOnUse">
<stop stop-color="#696352"/>
<stop offset="1" stop-color="#F1EFE8"/>
</linearGradient>
</defs>
</svg>
