<svg width="177" height="224" viewBox="0 0 177 224" fill="none" xmlns="http://www.w3.org/2000/svg">
<g clip-path="url(#clip0_66_4153)">
<g opacity="0.5">
<path d="M5.8844 169.662V183.326L127.322 254.877V241.213L5.8844 169.662Z" fill="#F8F7F3" stroke="black" stroke-width="0.25" stroke-linejoin="round"/>
<path d="M5.88434 169.662L81.9389 125.437L203.875 196.991L127.322 241.213L5.88434 169.662Z" fill="#F8F7F3" stroke="black" stroke-width="0.25" stroke-linejoin="round"/>
<path d="M203.875 196.991V210.945L127.322 254.878V241.213L203.875 196.991Z" fill="#F8F7F3" stroke="black" stroke-width="0.25" stroke-linejoin="round"/>
</g>
<path d="M74.0772 93.4998V107.481L110.227 128.782V114.798L74.0772 93.4998Z" fill="#F8F7F3" stroke="black" stroke-width="0.25" stroke-linejoin="round"/>
<path d="M74.0772 93.4999L96.7167 80.3337L133.016 101.635L110.227 114.798L74.0772 93.4999Z" fill="#F8F7F3" stroke="black" stroke-width="0.25" stroke-linejoin="round"/>
<path d="M133.016 101.635V115.702L110.227 128.782V114.798L133.016 101.635Z" fill="#F8F7F3" stroke="black" stroke-width="0.25" stroke-linejoin="round"/>
<path d="M110.227 114.798V128.782L146.377 150.083V136.099L110.227 114.798Z" fill="#F8F7F3" stroke="black" stroke-width="0.25" stroke-linejoin="round"/>
<path d="M110.227 114.798L132.867 101.635L169.166 122.936L146.377 136.099L110.227 114.798Z" fill="#F8F7F3" stroke="black" stroke-width="0.25" stroke-linejoin="round"/>
<path d="M169.166 122.936V137.003L146.377 150.082V136.099L169.166 122.936Z" fill="#F8F7F3" stroke="black" stroke-width="0.25" stroke-linejoin="round"/>
<path d="M51.4616 106.663V120.647L87.6114 141.945V127.964L51.4616 106.663Z" fill="#F8F7F3" stroke="black" stroke-width="0.25" stroke-linejoin="round"/>
<path d="M51.4616 106.663L74.1011 93.5L110.4 114.798L87.6115 127.964L51.4616 106.663Z" fill="#F8F7F3" stroke="black" stroke-width="0.25" stroke-linejoin="round"/>
<path d="M110.4 114.798V128.868L87.6114 141.945V127.964L110.4 114.798Z" fill="#F8F7F3" stroke="black" stroke-width="0.25" stroke-linejoin="round"/>
<path d="M5.8844 132.992V146.976L42.0342 168.277V154.293L5.8844 132.992Z" fill="#F8F7F3" stroke="black" stroke-width="0.25" stroke-linejoin="round"/>
<path d="M5.88434 132.992L28.5238 119.829L64.8228 141.13L42.0342 154.293L5.88434 132.992Z" fill="#F8F7F3" stroke="black" stroke-width="0.25" stroke-linejoin="round"/>
<path d="M64.8228 141.13V155.197L42.0342 168.277V154.293L64.8228 141.13Z" fill="#F8F7F3" stroke="black" stroke-width="0.25" stroke-linejoin="round"/>
<path d="M203.875 141.945V155.929L167.725 177.23V163.246L203.875 141.945Z" fill="#F8F7F3" stroke="black" stroke-width="0.25" stroke-linejoin="round"/>
<path d="M203.875 141.945L181.235 128.782L144.936 150.083L167.725 163.246L203.875 141.945Z" fill="#F8F7F3" stroke="black" stroke-width="0.25" stroke-linejoin="round"/>
<path d="M144.936 150.083V164.15L167.725 177.229V163.246L144.936 150.083Z" fill="#F8F7F3" stroke="black" stroke-width="0.25" stroke-linejoin="round"/>
<path d="M111.029 80.259V94.2428L147.179 115.544V101.56L111.029 80.259Z" fill="#F8F7F3" stroke="black" stroke-width="0.25" stroke-linejoin="round"/>
<path d="M111.029 80.2591L133.669 67.0959L169.968 88.3969L147.179 101.56L111.029 80.2591Z" fill="#F8F7F3" stroke="black" stroke-width="0.25" stroke-linejoin="round"/>
<path d="M169.968 88.397V102.464L147.179 115.544V101.56L169.968 88.397Z" fill="#F8F7F3" stroke="black" stroke-width="0.25" stroke-linejoin="round"/>
<path d="M121.623 142.601L144.262 129.438L180.561 150.736L157.773 163.902L121.623 142.601Z" fill="#F8F7F3" stroke="black" stroke-width="0.25" stroke-linejoin="round"/>
<path d="M23.9608 161.709V175.69L60.1106 196.991V183.007L23.9608 161.709Z" fill="#F8F7F3" stroke="black" stroke-width="0.25" stroke-linejoin="round"/>
<path opacity="0.7" d="M42.0342 161.002L64.6767 147.838L114.799 176.322L92.0105 189.488L42.0342 161.002Z" fill="url(#paint0_linear_66_4153)"/>
<path opacity="0.7" d="M167.946 171.013L145.306 157.847L95.1838 186.334L117.972 199.497L167.946 171.013Z" fill="url(#paint1_linear_66_4153)"/>
<path opacity="0.7" d="M147.248 106.803L111.014 86.2124L88.0588 99.2174L124.441 119.805L147.248 106.803Z" fill="url(#paint2_linear_66_4153)"/>
<path d="M92.1507 180.13V194.111L128.304 215.412V201.431L92.1507 180.13Z" fill="#F8F7F3" stroke="black" stroke-width="0.25" stroke-linejoin="round"/>
<path d="M92.1507 180.13L114.793 166.964L151.092 188.265L128.303 201.431L92.1507 180.13Z" fill="#F8F7F3" stroke="black" stroke-width="0.25" stroke-linejoin="round"/>
<path d="M151.092 188.265V202.332L128.304 215.412V201.431L151.092 188.265Z" fill="#F8F7F3" stroke="black" stroke-width="0.25" stroke-linejoin="round"/>
<path d="M29.5618 83.1836V97.1644L65.7146 118.465V104.485L29.5618 83.1836Z" fill="#F8F7F3" stroke="black" stroke-width="0.25" stroke-linejoin="round"/>
<path d="M29.5618 83.1837L52.2043 70.0176L88.5032 91.3185L65.7146 104.485L29.5618 83.1837Z" fill="#F8F7F3" stroke="black" stroke-width="0.25" stroke-linejoin="round"/>
<path d="M88.5033 91.3184V105.386L65.7146 118.465V104.484L88.5033 91.3184Z" fill="#F8F7F3" stroke="black" stroke-width="0.25" stroke-linejoin="round"/>
<path d="M65.7145 104.484V118.465L101.864 139.766V125.785L65.7145 104.484Z" fill="#F8F7F3" stroke="black" stroke-width="0.25" stroke-linejoin="round"/>
<path d="M65.7146 104.484L88.3541 91.3184L124.653 112.619L101.864 125.785L65.7146 104.484Z" fill="#F8F7F3" stroke="black" stroke-width="0.25" stroke-linejoin="round"/>
<path d="M124.653 112.619V126.686L101.864 139.766V125.785L124.653 112.619Z" fill="#F8F7F3" stroke="black" stroke-width="0.25" stroke-linejoin="round"/>
<path d="M6.77313 96.3496V110.33L42.926 131.631V117.648L6.77313 96.3496Z" fill="#F8F7F3" stroke="black" stroke-width="0.25" stroke-linejoin="round"/>
<path d="M6.77307 96.3497L29.4156 83.1836L65.7145 104.485L42.9259 117.648L6.77307 96.3497Z" fill="#F8F7F3" stroke="black" stroke-width="0.25" stroke-linejoin="round"/>
<path d="M65.7146 104.484V118.552L42.9259 131.631V117.648L65.7146 104.484Z" fill="#F8F7F3" stroke="black" stroke-width="0.25" stroke-linejoin="round"/>
<path opacity="0.7" d="M42.9258 125.332L65.5653 112.169L172.777 173.025L149.988 186.188L42.9258 125.332Z" fill="url(#paint3_linear_66_4153)"/>
<g opacity="0.5">
<path d="M5.8844 50.8831V64.5475L127.322 136.099V122.434L5.8844 50.8831Z" fill="#F8F7F3" stroke="black" stroke-width="0.25" stroke-linejoin="round"/>
<path d="M5.88434 50.883L81.9389 6.65771L203.875 78.212L127.322 122.434L5.88434 50.883Z" fill="#F8F7F3" stroke="black" stroke-width="0.25" stroke-linejoin="round"/>
<path d="M203.875 78.2119V92.1659L127.322 136.099V122.434L203.875 78.2119Z" fill="#F8F7F3" stroke="black" stroke-width="0.25" stroke-linejoin="round"/>
</g>
<path d="M6.10352e-05 47.9375H5.88436" stroke="black" stroke-width="0.25" stroke-linejoin="round"/>
<path d="M2.94373 50.8829V44.9951" stroke="black" stroke-width="0.25" stroke-linejoin="round"/>
<path d="M77.9902 2.94531H83.8745" stroke="black" stroke-width="0.25" stroke-linejoin="round"/>
<path d="M80.9307 5.88775V0" stroke="black" stroke-width="0.25" stroke-linejoin="round"/>
<path d="M124.382 117.648H130.266" stroke="black" stroke-width="0.25" stroke-linejoin="round"/>
<path d="M127.322 120.593V114.705" stroke="black" stroke-width="0.25" stroke-linejoin="round"/>
<path d="M6.10352e-05 188.265H5.88436" stroke="black" stroke-width="0.25" stroke-linejoin="round"/>
<path d="M2.94373 191.21V185.32" stroke="black" stroke-width="0.25" stroke-linejoin="round"/>
<g opacity="0.7">
<path d="M2.94373 111.139V111.438" stroke="black" stroke-width="0.25" stroke-linejoin="round"/>
<path d="M2.94379 112.646V180.804" stroke="black" stroke-width="0.25" stroke-linejoin="round" stroke-dasharray="0.5 1.01"/>
<path d="M2.94379 181.407V181.706" stroke="black" stroke-width="0.25" stroke-linejoin="round"/>
</g>
<path d="M5.88434 191.21L95.1838 243.541" stroke="black" stroke-width="0.25" stroke-linejoin="round" stroke-dasharray="0.5 1"/>
<path d="M169.968 238.148L203.875 218.357" stroke="black" stroke-width="0.25" stroke-linejoin="round" stroke-dasharray="0.5 1"/>
<path d="M33.0303 27.2901L75.5565 2.94531" stroke="black" stroke-width="0.25" stroke-linejoin="round" stroke-dasharray="0.5 1"/>
<path d="M86.6481 2.94531L202.539 70.0174" stroke="black" stroke-width="0.25" stroke-linejoin="round" stroke-dasharray="0.5 1"/>
</g>
<defs>
<linearGradient id="paint0_linear_66_4153" x1="55.0196" y1="154.412" x2="104.045" y2="184.238" gradientUnits="userSpaceOnUse">
<stop stop-color="#A09D92"/>
<stop offset="1" stop-color="#F8F7F3"/>
</linearGradient>
<linearGradient id="paint1_linear_66_4153" x1="154.963" y1="164.421" x2="105.938" y2="194.246" gradientUnits="userSpaceOnUse">
<stop stop-color="#A09D92"/>
<stop offset="1" stop-color="#F8F7F3"/>
</linearGradient>
<linearGradient id="paint2_linear_66_4153" x1="133.21" y1="93.5355" x2="100.613" y2="113.363" gradientUnits="userSpaceOnUse">
<stop stop-color="#A09D92"/>
<stop offset="1" stop-color="#F8F7F3"/>
</linearGradient>
<linearGradient id="paint3_linear_66_4153" x1="62.565" y1="121.599" x2="157.454" y2="179.323" gradientUnits="userSpaceOnUse">
<stop stop-color="#A09D92"/>
<stop offset="1" stop-color="#F8F7F3"/>
</linearGradient>
<clipPath id="clip0_66_4153">
<rect width="212.5" height="264" fill="white"/>
</clipPath>
</defs>
</svg>
