<svg width="422" height="305" viewBox="0 0 422 305" fill="none" xmlns="http://www.w3.org/2000/svg">
<path opacity="0.7" d="M371.859 74.0997L414.774 49.1628L618 164.451L574.803 189.388L371.859 74.0997Z" fill="url(#paint0_linear_15_1647)"/>
<g opacity="0.2">
<path d="M1.03809 82.8008L1.04921 88.6124C1.04921 88.6124 0.925631 89.3951 1.50232 89.7246L77.3784 133.43C77.9551 133.759 78.8613 133.759 79.438 133.43L154.896 89.9134C155.645 89.5391 155.645 88.7904 155.645 88.7904V83.5495" stroke="white" stroke-width="0.5"/>
<path fill-rule="evenodd" clip-rule="evenodd" d="M1.41246 82.0518L77.4574 38.8744C78.0341 38.5448 78.9404 38.5448 79.5171 38.8744L155.26 82.8005C155.837 83.1301 155.837 83.6656 155.26 83.9951L80.1761 127.149C79.5994 127.479 78.6932 127.479 78.1165 127.149L1.45365 83.2464C0.876963 82.9169 0.83577 82.3814 1.41246 82.0518Z" stroke="white" stroke-width="0.5"/>
<g opacity="0.2">
<path d="M62.3931 66.4225L79.3828 56.7141L95.4017 65.4517L78.8974 75.6455L62.3931 66.4225Z" stroke="white" stroke-width="0.5"/>
<path d="M91.5928 84.3913L108.097 74.6829L124.601 83.9059L108.097 93.6143L91.5928 84.3913Z" stroke="white" stroke-width="0.5"/>
<path d="M32.4453 85.1398L49.4351 75.4314L65.454 84.169L48.9496 94.3628L32.4453 85.1398Z" stroke="white" stroke-width="0.5"/>
<path d="M61.6445 102.36L78.6343 92.6519L94.6532 101.389L78.1489 111.583L61.6445 102.36Z" stroke="white" stroke-width="0.5"/>
</g>
<path d="M62.3936 36.474L79.3833 26.7656L95.4022 35.5032L78.8979 45.6971L62.3936 36.474Z" stroke="white" stroke-width="0.5"/>
<path d="M62.3933 36.4744V55.8912L78.8976 65.5996V45.6974L62.3933 36.4744Z" stroke="white" stroke-width="0.5"/>
<path d="M78.8979 45.6973L95.4023 35.5034V55.5028L78.8979 65.5995V45.6973Z" stroke="white" stroke-width="0.5"/>
<path d="M91.3071 54.4875L107.811 44.7791L124.316 54.0021L107.811 63.7105L91.3071 54.4875Z" stroke="white" stroke-width="0.5"/>
<path d="M91.3071 54.4875V73.9044L107.811 83.6128V63.7106L91.3071 54.4875Z" stroke="white" stroke-width="0.5"/>
<path d="M107.811 63.7109L124.315 54.0024V73.5164L107.811 83.6131V63.7109Z" stroke="white" stroke-width="0.5"/>
<path d="M32.4451 55.1918L49.4348 45.4834L65.4537 54.221L48.9494 64.4148L32.4451 55.1918Z" stroke="white" stroke-width="0.5"/>
<path d="M32.4453 55.1919V74.6087L48.9496 84.3172V64.4149L32.4453 55.1919Z" stroke="white" stroke-width="0.5"/>
<path d="M48.95 64.4153L65.4543 54.2214V74.2208L48.95 84.3176V64.4153Z" stroke="white" stroke-width="0.5"/>
<path d="M61.6443 72.412L78.634 62.7036L94.6529 71.4412L78.1486 81.635L61.6443 72.412Z" stroke="white" stroke-width="0.5"/>
<path d="M61.6445 72.4124V91.8292L78.1489 101.538V81.6354L61.6445 72.4124Z" stroke="white" stroke-width="0.5"/>
<path d="M78.1489 81.6353L94.6532 71.4414V91.4408L78.1489 101.538V81.6353Z" stroke="white" stroke-width="0.5"/>
<path d="M62.3928 8.02385L79.3826 -1.68457L95.4015 7.05301L78.8971 17.2469L62.3928 8.02385Z" stroke="white" stroke-width="0.5"/>
<path d="M62.3926 8.02368V27.4405L78.8969 37.149V17.2467L62.3926 8.02368Z" stroke="white" stroke-width="0.5"/>
<path d="M78.8972 17.2468L95.4015 7.05298V27.0523L78.8972 37.1491V17.2468Z" stroke="white" stroke-width="0.5"/>
<path d="M91.592 24.4953L108.582 14.7869L124.601 23.5244L108.096 33.7183L91.592 24.4953Z" stroke="white" stroke-width="0.5"/>
<path d="M91.5923 24.4946V43.9115L108.097 53.6199V33.7176L91.5923 24.4946Z" stroke="white" stroke-width="0.5"/>
<path d="M108.096 33.718L124.601 23.5242V43.5235L108.096 53.6203V33.718Z" stroke="white" stroke-width="0.5"/>
<path d="M32.4451 26.7411L49.4348 17.0327L65.4537 25.7703L48.9494 35.9641L32.4451 26.7411Z" stroke="white" stroke-width="0.5"/>
<path d="M32.4453 26.7412V46.1581L48.9496 55.8665V35.9642L32.4453 26.7412Z" stroke="white" stroke-width="0.5"/>
<path d="M48.95 35.9641L65.4543 25.7703V45.7696L48.95 55.8664V35.9641Z" stroke="white" stroke-width="0.5"/>
<path d="M62.3928 44.7101L78.8971 35.0017L95.4015 44.2247L78.8971 53.9331L62.3928 44.7101Z" stroke="white" stroke-width="0.5"/>
<path d="M62.3926 44.7107V64.1275L78.8969 73.836V53.9337L62.3926 44.7107Z" stroke="white" stroke-width="0.5"/>
<path d="M78.8972 53.933L95.4015 44.2246V63.7385L78.8972 73.8353V53.933Z" stroke="white" stroke-width="0.5"/>
<path d="M94.6528 -21.176V-1.75917L78.1485 7.94925V-11.953L94.6528 -21.176Z" stroke="white" stroke-width="0.5"/>
<path d="M78.1482 -11.9526L61.6439 -22.1465V-2.14713L78.1482 7.94964V-11.9526Z" stroke="white" stroke-width="0.5"/>
<path d="M65.4536 -3.20686L48.9493 -12.9153L32.445 -3.69228L48.9493 6.01614L65.4536 -3.20686Z" stroke="white" stroke-width="0.5"/>
<path d="M65.4536 -3.20679V16.2101L48.9493 25.9185V6.01622L65.4536 -3.20679Z" stroke="white" stroke-width="0.5"/>
<path d="M48.9497 6.01677L32.4454 -3.69165V15.8223L48.9497 25.919V6.01677Z" stroke="white" stroke-width="0.5"/>
<path d="M124.601 -2.45832L107.611 -12.1667L91.5924 -3.42917L108.097 6.76468L124.601 -2.45832Z" stroke="white" stroke-width="0.5"/>
<path d="M124.601 -2.45801V16.9588L108.097 26.6673V6.765L124.601 -2.45801Z" stroke="white" stroke-width="0.5"/>
<path d="M108.097 6.76489L91.5924 -3.42896V16.5704L108.097 26.6672V6.76489Z" stroke="white" stroke-width="0.5"/>
<path d="M95.4021 14.7619L78.4124 5.05347L62.3935 13.791L78.8978 23.9849L95.4021 14.7619Z" stroke="white" stroke-width="0.5"/>
<path d="M95.4021 14.762V34.1788L78.8978 43.8872V23.985L95.4021 14.762Z" stroke="white" stroke-width="0.5"/>
<path d="M78.8982 23.9849L62.3939 13.791V33.7904L78.8982 43.8871V23.9849Z" stroke="white" stroke-width="0.5"/>
<path d="M94.6528 -12.9397V6.47715L78.1485 16.1856V-3.71669L94.6528 -12.9397Z" stroke="white" stroke-width="0.5"/>
<path d="M78.1482 -3.71663L61.6439 -13.425V6.08888L78.1482 16.1856V-3.71663Z" stroke="white" stroke-width="0.5"/>
</g>
<g opacity="0.4">
<path d="M109.46 139.533L109.472 145.345C109.472 145.345 109.348 146.128 109.925 146.457L185.801 190.162C186.377 190.492 187.284 190.492 187.86 190.162L263.318 146.646C264.067 146.272 264.067 145.523 264.067 145.523V140.282" stroke="white" stroke-width="0.5"/>
<path fill-rule="evenodd" clip-rule="evenodd" d="M109.834 138.784L185.879 95.6065C186.456 95.277 187.362 95.277 187.939 95.6065L263.682 139.533C264.259 139.862 264.259 140.398 263.682 140.727L188.598 183.881C188.021 184.211 187.115 184.211 186.538 183.881L109.876 139.979C109.299 139.649 109.258 139.114 109.834 138.784Z" stroke="white" stroke-width="0.5"/>
<g opacity="0.2">
<path d="M170.815 123.155L187.805 113.446L203.824 122.184L187.32 132.378L170.815 123.155Z" stroke="white" stroke-width="0.5"/>
<path d="M200.014 141.123L216.519 131.415L233.023 140.638L216.519 150.346L200.014 141.123Z" stroke="white" stroke-width="0.5"/>
<path d="M140.867 141.872L157.857 132.164L173.876 140.901L157.372 151.095L140.867 141.872Z" stroke="white" stroke-width="0.5"/>
<path d="M170.067 159.092L187.056 149.384L203.075 158.122L186.571 168.315L170.067 159.092Z" stroke="white" stroke-width="0.5"/>
</g>
<path d="M170.815 93.2065L187.805 83.498L203.824 92.2356L187.32 102.429L170.815 93.2065Z" stroke="white" stroke-width="0.5"/>
<path d="M170.815 93.2065V112.623L187.32 122.332V102.43L170.815 93.2065Z" stroke="white" stroke-width="0.5"/>
<path d="M187.32 102.43L203.824 92.2358V112.235L187.32 122.332V102.43Z" stroke="white" stroke-width="0.5"/>
<path d="M199.73 111.22L216.234 101.511L232.738 110.734L216.234 120.443L199.73 111.22Z" stroke="white" stroke-width="0.5"/>
<path d="M199.729 111.22V130.637L216.234 140.345V120.443L199.729 111.22Z" stroke="white" stroke-width="0.5"/>
<path d="M216.234 120.443L232.738 110.735V130.249L216.234 140.346V120.443Z" stroke="white" stroke-width="0.5"/>
<path d="M140.867 111.924L157.857 102.216L173.876 110.953L157.372 121.147L140.867 111.924Z" stroke="white" stroke-width="0.5"/>
<path d="M140.867 111.924V131.341L157.372 141.049V121.147L140.867 111.924Z" stroke="white" stroke-width="0.5"/>
<path d="M157.371 121.147L173.876 110.953V130.952L157.371 141.049V121.147Z" stroke="white" stroke-width="0.5"/>
<path d="M170.067 129.144L187.056 119.436L203.075 128.174L186.571 138.367L170.067 129.144Z" stroke="white" stroke-width="0.5"/>
<path d="M170.067 129.145V148.562L186.571 158.27V138.368L170.067 129.145Z" stroke="white" stroke-width="0.5"/>
<path d="M186.571 138.368L203.075 128.174V148.173L186.571 158.27V138.368Z" stroke="white" stroke-width="0.5"/>
<path d="M170.815 64.756L187.805 55.0476L203.824 63.7852L187.32 73.979L170.815 64.756Z" stroke="white" stroke-width="0.5"/>
<path d="M170.815 64.7559V84.1727L187.32 93.8811V73.9789L170.815 64.7559Z" stroke="white" stroke-width="0.5"/>
<path d="M187.32 73.979L203.824 63.7852V83.7845L187.32 93.8813V73.979Z" stroke="white" stroke-width="0.5"/>
<path d="M200.014 81.2275L217.004 71.519L233.023 80.2566L216.519 90.4505L200.014 81.2275Z" stroke="white" stroke-width="0.5"/>
<path d="M200.014 81.2273V100.644L216.519 110.353V90.4503L200.014 81.2273Z" stroke="white" stroke-width="0.5"/>
<path d="M216.518 90.4507L233.023 80.2568V100.256L216.518 110.353V90.4507Z" stroke="white" stroke-width="0.5"/>
<path d="M140.867 83.4733L157.857 73.7649L173.876 82.5025L157.372 92.6963L140.867 83.4733Z" stroke="white" stroke-width="0.5"/>
<path d="M140.867 83.4731V102.89L157.372 112.598V92.6961L140.867 83.4731Z" stroke="white" stroke-width="0.5"/>
<path d="M157.371 92.6963L173.876 82.5024V102.502L157.371 112.599V92.6963Z" stroke="white" stroke-width="0.5"/>
<path d="M170.815 101.443L187.32 91.7341L203.824 100.957L187.32 110.666L170.815 101.443Z" stroke="white" stroke-width="0.5"/>
<path d="M170.815 101.443V120.86L187.32 130.568V110.666L170.815 101.443Z" stroke="white" stroke-width="0.5"/>
<path d="M187.32 110.665L203.824 100.957V120.47L187.32 130.567V110.665Z" stroke="white" stroke-width="0.5"/>
<path d="M203.075 35.5566L186.085 25.8481L170.066 34.5857L186.57 44.7796L203.075 35.5566Z" stroke="white" stroke-width="0.5"/>
<path d="M203.075 35.5569V54.9737L186.571 64.6822V44.7799L203.075 35.5569Z" stroke="white" stroke-width="0.5"/>
<path d="M186.57 44.7798L170.066 34.5859V54.5853L186.57 64.6821V44.7798Z" stroke="white" stroke-width="0.5"/>
<path d="M173.876 53.5256L157.371 43.8171L140.867 53.0401L157.371 62.7486L173.876 53.5256Z" stroke="white" stroke-width="0.5"/>
<path d="M173.876 53.5254V72.9422L157.371 82.6507V62.7484L173.876 53.5254Z" stroke="white" stroke-width="0.5"/>
<path d="M157.371 62.7489L140.867 53.0405V72.5545L157.371 82.6512V62.7489Z" stroke="white" stroke-width="0.5"/>
<path d="M233.023 54.2741L216.033 44.5657L200.014 53.3033L216.519 63.4971L233.023 54.2741Z" stroke="white" stroke-width="0.5"/>
<path d="M233.023 54.2737V73.6905L216.518 83.399V63.4967L233.023 54.2737Z" stroke="white" stroke-width="0.5"/>
<path d="M216.518 63.4968L200.014 53.303V73.3023L216.518 83.3991V63.4968Z" stroke="white" stroke-width="0.5"/>
<path d="M203.824 71.4941L186.834 61.7856L170.815 70.5232L187.319 80.7171L203.824 71.4941Z" stroke="white" stroke-width="0.5"/>
<path d="M203.823 71.4941V90.911L187.319 100.619V80.7171L203.823 71.4941Z" stroke="white" stroke-width="0.5"/>
<path d="M187.319 80.717L170.815 70.5232V90.5225L187.319 100.619V80.717Z" stroke="white" stroke-width="0.5"/>
<path d="M203.075 7.10589L186.085 -2.60254L170.066 6.13504L186.57 16.3289L203.075 7.10589Z" stroke="white" stroke-width="0.5"/>
<path d="M203.075 7.10596V26.5228L186.571 36.2312V16.329L203.075 7.10596Z" stroke="white" stroke-width="0.5"/>
<path d="M186.57 16.3289L170.066 6.13501V26.1344L186.57 36.2311V16.3289Z" stroke="white" stroke-width="0.5"/>
<path d="M173.875 23.5773L156.886 13.8689L140.867 22.6065L157.371 32.8003L173.875 23.5773Z" stroke="white" stroke-width="0.5"/>
<path d="M173.876 23.5776V42.9945L157.371 52.7029V32.8006L173.876 23.5776Z" stroke="white" stroke-width="0.5"/>
<path d="M157.372 32.8005L140.867 22.6067V42.606L157.372 52.7028V32.8005Z" stroke="white" stroke-width="0.5"/>
<path d="M233.023 25.8237L216.033 16.1152L200.014 24.8528L216.519 35.0467L233.023 25.8237Z" stroke="white" stroke-width="0.5"/>
<path d="M233.023 25.8237V45.2406L216.518 54.949V35.0467L233.023 25.8237Z" stroke="white" stroke-width="0.5"/>
<path d="M216.518 35.0466L200.014 24.8528V44.8521L216.518 54.9489V35.0466Z" stroke="white" stroke-width="0.5"/>
<path d="M203.075 43.7924L186.57 34.084L170.066 43.307L186.57 53.0154L203.075 43.7924Z" stroke="white" stroke-width="0.5"/>
<path d="M203.075 43.7925V63.2093L186.571 72.9178V53.0155L203.075 43.7925Z" stroke="white" stroke-width="0.5"/>
<path d="M186.57 53.0158L170.066 43.3074V62.8213L186.57 72.9181V53.0158Z" stroke="white" stroke-width="0.5"/>
<path d="M109.46 -7.09448L109.471 -1.28282C109.471 -1.28282 109.348 -0.50017 109.924 -0.170632L185.801 43.5343C186.377 43.8639 187.283 43.8639 187.86 43.5343L263.318 0.0181762C264.067 -0.356174 264.067 -1.10487 264.067 -1.10487V-6.34578" stroke="white" stroke-width="0.5"/>
<path fill-rule="evenodd" clip-rule="evenodd" d="M109.835 -7.84343L185.88 -51.0209C186.456 -51.3505 187.362 -51.3505 187.939 -51.0209L263.683 -7.09473C264.259 -6.76519 264.259 -6.22969 263.683 -5.90015L188.598 37.254C188.022 37.5836 187.115 37.5836 186.539 37.254L109.876 -6.64885C109.299 -6.97839 109.258 -7.51389 109.835 -7.84343Z" stroke="white" stroke-width="0.5"/>
</g>
<g opacity="0.6">
<path d="M216.621 200.047L216.632 205.859C216.632 205.859 216.508 206.641 217.085 206.971L292.961 250.676C293.538 251.005 294.444 251.005 295.021 250.676L370.479 207.16C371.227 206.785 371.227 206.037 371.227 206.037V200.796" stroke="white" stroke-width="0.5"/>
<path fill-rule="evenodd" clip-rule="evenodd" d="M216.995 199.298L293.04 156.121C293.617 155.791 294.523 155.791 295.1 156.121L370.843 200.047C371.42 200.376 371.42 200.912 370.843 201.241L295.759 244.396C295.182 244.725 294.276 244.725 293.699 244.396L217.036 200.493C216.46 200.163 216.419 199.628 216.995 199.298Z" stroke="white" stroke-width="0.5"/>
<g opacity="0.2">
<path d="M277.975 183.669L294.965 173.961L310.984 182.698L294.48 192.892L277.975 183.669Z" stroke="white" stroke-width="0.5"/>
<path d="M307.175 201.638L323.679 191.93L340.184 201.153L323.679 210.861L307.175 201.638Z" stroke="white" stroke-width="0.5"/>
<path d="M248.028 202.387L265.017 192.678L281.036 201.416L264.532 211.61L248.028 202.387Z" stroke="white" stroke-width="0.5"/>
<path d="M277.227 219.607L294.217 209.899L310.236 218.636L293.732 228.83L277.227 219.607Z" stroke="white" stroke-width="0.5"/>
</g>
<path d="M277.976 153.721L294.966 144.013L310.985 152.75L294.48 162.944L277.976 153.721Z" stroke="white" stroke-width="0.5"/>
<path d="M277.976 153.721V173.138L294.48 182.846V162.944L277.976 153.721Z" stroke="white" stroke-width="0.5"/>
<path d="M294.481 162.944L310.985 152.75V172.749L294.481 182.846V162.944Z" stroke="white" stroke-width="0.5"/>
<path d="M306.89 171.734L323.394 162.026L339.899 171.249L323.394 180.957L306.89 171.734Z" stroke="white" stroke-width="0.5"/>
<path d="M306.89 171.734V191.151L323.394 200.86V180.957L306.89 171.734Z" stroke="white" stroke-width="0.5"/>
<path d="M323.394 180.957L339.899 171.249V190.763L323.394 200.86V180.957Z" stroke="white" stroke-width="0.5"/>
<path d="M248.028 172.439L265.018 162.73L281.037 171.468L264.532 181.662L248.028 172.439Z" stroke="white" stroke-width="0.5"/>
<path d="M248.028 172.438V191.855L264.532 201.564V181.661L248.028 172.438Z" stroke="white" stroke-width="0.5"/>
<path d="M264.532 181.662L281.037 171.468V191.467L264.532 201.564V181.662Z" stroke="white" stroke-width="0.5"/>
<path d="M277.227 189.659L294.217 179.951L310.235 188.688L293.731 198.882L277.227 189.659Z" stroke="white" stroke-width="0.5"/>
<path d="M277.227 189.659V209.076L293.731 218.784V198.882L277.227 189.659Z" stroke="white" stroke-width="0.5"/>
<path d="M293.731 198.882L310.235 188.688V208.687L293.731 218.784V198.882Z" stroke="white" stroke-width="0.5"/>
<path d="M277.976 125.271L294.966 115.562L310.985 124.3L294.48 134.494L277.976 125.271Z" stroke="white" stroke-width="0.5"/>
<path d="M277.976 125.271V144.688L294.48 154.396V134.494L277.976 125.271Z" stroke="white" stroke-width="0.5"/>
<path d="M294.481 134.494L310.985 124.3V144.299L294.481 154.396V134.494Z" stroke="white" stroke-width="0.5"/>
<path d="M307.175 141.742L324.164 132.033L340.183 140.771L323.679 150.965L307.175 141.742Z" stroke="white" stroke-width="0.5"/>
<path d="M307.175 141.742V161.159L323.679 170.867V150.965L307.175 141.742Z" stroke="white" stroke-width="0.5"/>
<path d="M323.678 150.965L340.183 140.771V160.771L323.678 170.867V150.965Z" stroke="white" stroke-width="0.5"/>
<path d="M248.028 143.988L265.018 134.28L281.037 143.017L264.532 153.211L248.028 143.988Z" stroke="white" stroke-width="0.5"/>
<path d="M248.028 143.988V163.405L264.532 173.113V153.211L248.028 143.988Z" stroke="white" stroke-width="0.5"/>
<path d="M264.532 153.211L281.037 143.017V163.016L264.532 173.113V153.211Z" stroke="white" stroke-width="0.5"/>
<path d="M277.976 161.957L294.48 152.248L310.985 161.471L294.48 171.18L277.976 161.957Z" stroke="white" stroke-width="0.5"/>
<path d="M277.976 161.957V181.374L294.48 191.082V171.18L277.976 161.957Z" stroke="white" stroke-width="0.5"/>
<path d="M294.481 171.18L310.985 161.471V180.985L294.481 191.082V171.18Z" stroke="white" stroke-width="0.5"/>
<path d="M310.235 96.071L293.246 86.3625L277.227 95.1001L293.731 105.294L310.235 96.071Z" stroke="white" stroke-width="0.5"/>
<path d="M310.236 96.0708V115.488L293.731 125.196V105.294L310.236 96.0708Z" stroke="white" stroke-width="0.5"/>
<path d="M293.731 105.294L277.227 95.1001V115.099L293.731 125.196V105.294Z" stroke="white" stroke-width="0.5"/>
<path d="M281.036 114.04L264.532 104.331L248.027 113.554L264.532 123.263L281.036 114.04Z" stroke="white" stroke-width="0.5"/>
<path d="M281.036 114.04V133.457L264.532 143.165V123.263L281.036 114.04Z" stroke="white" stroke-width="0.5"/>
<path d="M264.532 123.263L248.028 113.555V133.069L264.532 143.165V123.263Z" stroke="white" stroke-width="0.5"/>
<path d="M340.184 114.788L323.194 105.08L307.175 113.817L323.68 124.011L340.184 114.788Z" stroke="white" stroke-width="0.5"/>
<path d="M340.184 114.788V134.205L323.679 143.914V124.011L340.184 114.788Z" stroke="white" stroke-width="0.5"/>
<path d="M323.679 124.011L307.175 113.817V133.817L323.679 143.914V124.011Z" stroke="white" stroke-width="0.5"/>
<path d="M310.984 132.009L293.994 122.3L277.975 131.038L294.48 141.232L310.984 132.009Z" stroke="white" stroke-width="0.5"/>
<path d="M310.984 132.009V151.426L294.48 161.134V141.232L310.984 132.009Z" stroke="white" stroke-width="0.5"/>
<path d="M294.479 141.232L277.975 131.038V151.037L294.479 161.134V141.232Z" stroke="white" stroke-width="0.5"/>
<path d="M310.235 67.6205L293.246 57.9121L277.227 66.6497L293.731 76.8435L310.235 67.6205Z" stroke="white" stroke-width="0.5"/>
<path d="M310.236 67.6204V87.0372L293.731 96.7456V76.8434L310.236 67.6204Z" stroke="white" stroke-width="0.5"/>
<path d="M293.731 76.8438L277.227 66.6499V86.6493L293.731 96.746V76.8438Z" stroke="white" stroke-width="0.5"/>
<path d="M281.036 84.0917L264.046 74.3833L248.027 83.1209L264.532 93.3147L281.036 84.0917Z" stroke="white" stroke-width="0.5"/>
<path d="M281.036 84.0913V103.508L264.532 113.217V93.3143L281.036 84.0913Z" stroke="white" stroke-width="0.5"/>
<path d="M264.532 93.3142L248.027 83.1204V103.12L264.532 113.216V93.3142Z" stroke="white" stroke-width="0.5"/>
<path d="M340.184 86.3381L323.194 76.6296L307.175 85.3672L323.68 95.5611L340.184 86.3381Z" stroke="white" stroke-width="0.5"/>
<path d="M340.184 86.3381V105.755L323.679 115.463V95.5611L340.184 86.3381Z" stroke="white" stroke-width="0.5"/>
<path d="M323.679 95.561L307.175 85.3672V105.367L323.679 115.463V95.561Z" stroke="white" stroke-width="0.5"/>
<path d="M310.235 104.307L293.731 94.5984L277.227 103.821L293.731 113.53L310.235 104.307Z" stroke="white" stroke-width="0.5"/>
<path d="M310.236 104.307V123.724L293.731 133.432V113.53L310.236 104.307Z" stroke="white" stroke-width="0.5"/>
<path d="M293.731 113.53L277.227 103.822V123.336L293.731 133.433V113.53Z" stroke="white" stroke-width="0.5"/>
<path d="M216.621 53.4197L216.632 59.2313C216.632 59.2313 216.508 60.014 217.085 60.3435L292.961 104.048C293.538 104.378 294.444 104.378 295.021 104.048L370.479 60.5323C371.227 60.158 371.227 59.4093 371.227 59.4093V54.1684" stroke="white" stroke-width="0.5"/>
<path fill-rule="evenodd" clip-rule="evenodd" d="M216.995 52.671L293.04 9.49349C293.617 9.16395 294.523 9.16395 295.1 9.49349L370.843 53.4197C371.42 53.7492 371.42 54.2847 370.843 54.6143L295.759 97.7684C295.182 98.098 294.276 98.098 293.7 97.7684L217.037 53.8656C216.46 53.536 216.419 53.0005 216.995 52.671Z" stroke="white" stroke-width="0.5"/>
</g>
<path d="M322.547 277.857L322.566 287.662C322.566 287.662 322.357 288.982 323.33 289.538L451.334 363.269C452.307 363.825 453.836 363.825 454.808 363.269L582.107 289.857C583.37 289.225 583.37 287.962 583.37 287.962V279.12" stroke="white" stroke-width="0.5"/>
<path fill-rule="evenodd" clip-rule="evenodd" d="M323.179 276.594L451.467 203.753C452.44 203.197 453.969 203.197 454.942 203.753L582.722 277.857C583.695 278.413 583.695 279.317 582.722 279.873L456.054 352.674C455.081 353.23 453.552 353.23 452.579 352.674L323.248 278.609C322.275 278.054 322.206 277.15 323.179 276.594Z" stroke="white" stroke-width="0.5"/>
<path d="M375.433 277.738L404.042 261.39L431.015 276.103L403.224 293.268L375.433 277.738Z" stroke="white" stroke-width="0.5"/>
<path d="M375.433 227.309L404.042 210.961L431.015 225.674L403.224 242.839L375.433 227.309Z" stroke="white" stroke-width="0.5"/>
<path d="M375.433 227.309V260.004L403.224 276.352V242.839L375.433 227.309Z" stroke="white" stroke-width="0.5"/>
<path d="M403.224 242.839L431.016 225.674V259.351L403.224 276.352V242.839Z" stroke="white" stroke-width="0.5"/>
<path d="M323.744 215.963L352.352 199.615L379.326 214.328L351.535 231.493L323.744 215.963Z" stroke="white" stroke-width="0.5"/>
<path d="M323.744 215.962V248.658L351.535 265.006V231.493L323.744 215.962Z" stroke="white" stroke-width="0.5"/>
<path d="M351.535 231.493L379.326 214.328V248.004L351.535 265.006V231.493Z" stroke="white" stroke-width="0.5"/>
<path d="M431.016 128.973L403.224 112.625L375.433 128.156L403.224 144.504L431.016 128.973Z" stroke="white" stroke-width="0.5"/>
<path d="M431.016 128.973V161.668L403.224 178.016V144.503L431.016 128.973Z" stroke="white" stroke-width="0.5"/>
<path d="M403.224 144.504L375.433 128.156V161.015L403.224 178.017V144.504Z" stroke="white" stroke-width="0.5"/>
<path d="M431.016 78.5443L402.407 62.1965L375.433 76.9095L403.224 94.0747L431.016 78.5443Z" stroke="white" stroke-width="0.5"/>
<path d="M431.016 78.5442V111.24L403.224 127.587V94.0746L431.016 78.5442Z" stroke="white" stroke-width="0.5"/>
<path d="M403.224 94.0751L375.433 76.9099V110.586L403.224 127.588V94.0751Z" stroke="white" stroke-width="0.5"/>
<path d="M322.547 27.0356L322.566 36.84C322.566 36.84 322.358 38.1603 323.331 38.7162L451.334 112.447C452.307 113.003 453.836 113.003 454.809 112.447L582.107 39.0348C583.37 38.4032 583.37 37.1402 583.37 37.1402V28.2987" stroke="white" stroke-width="0.5"/>
<path fill-rule="evenodd" clip-rule="evenodd" d="M323.179 25.7719L451.468 -47.0689C452.44 -47.6248 453.969 -47.6248 454.942 -47.0689L582.722 27.035C583.695 27.5909 583.695 28.4943 582.722 29.0502L456.054 101.852C455.081 102.408 453.552 102.408 452.579 101.852L323.248 27.7872C322.276 27.2312 322.206 26.3279 323.179 25.7719Z" stroke="white" stroke-width="0.5"/>
<path opacity="0.7" d="M262.184 217.695L305.104 192.758L400.115 246.719L356.917 271.661L262.184 217.695Z" fill="url(#paint1_linear_15_1647)"/>
<path opacity="0.7" d="M94.8457 -33.3136L137.76 -58.2505L340.987 57.0381L297.789 81.975L94.8457 -33.3136Z" fill="url(#paint2_linear_15_1647)"/>
<defs>
<linearGradient id="paint0_linear_15_1647" x1="409.086" y1="67.0274" x2="588.897" y2="176.476" gradientUnits="userSpaceOnUse">
<stop stop-color="#635F53"/>
<stop offset="1" stop-color="#35301B"/>
</linearGradient>
<linearGradient id="paint1_linear_15_1647" x1="283.045" y1="202.81" x2="384.031" y2="264.025" gradientUnits="userSpaceOnUse">
<stop stop-color="#635F53"/>
<stop offset="1" stop-color="#35301B"/>
</linearGradient>
<linearGradient id="paint2_linear_15_1647" x1="132.073" y1="-40.3859" x2="311.883" y2="69.0628" gradientUnits="userSpaceOnUse">
<stop stop-color="#635F53"/>
<stop offset="1" stop-color="#35301B"/>
</linearGradient>
</defs>
</svg>
