<svg width="213" height="264" viewBox="0 0 213 264" fill="none" xmlns="http://www.w3.org/2000/svg">
<g clip-path="url(#clip0_183_1469)">
<g opacity="0.5">
<path d="M5.89795 169.662V183.326L127.622 254.877V241.213L5.89795 169.662Z" fill="#11100E" stroke="white" stroke-width="0.5" stroke-linejoin="round"/>
<path d="M5.89795 169.662L82.1315 125.436L204.354 196.991L127.622 241.213L5.89795 169.662Z" fill="#11100E" stroke="white" stroke-width="0.5" stroke-linejoin="round"/>
<path d="M204.354 196.99V210.944L127.622 254.877V241.213L204.354 196.99Z" fill="#11100E" stroke="white" stroke-width="0.5" stroke-linejoin="round"/>
</g>
<path d="M74.2515 93.4998V107.481L110.486 128.782V114.798L74.2515 93.4998Z" fill="#11100E" stroke="white" stroke-width="0.5" stroke-linejoin="round"/>
<path d="M74.2515 93.4999L96.9442 80.3337L133.329 101.635L110.486 114.798L74.2515 93.4999Z" fill="#11100E" stroke="white" stroke-width="0.5" stroke-linejoin="round"/>
<path d="M133.329 101.635V115.702L110.486 128.781V114.798L133.329 101.635Z" fill="#11100E" stroke="white" stroke-width="0.5" stroke-linejoin="round"/>
<path d="M110.486 114.798V128.782L146.721 150.083V136.099L110.486 114.798Z" fill="#11100E" stroke="white" stroke-width="0.5" stroke-linejoin="round"/>
<path d="M110.486 114.798L133.179 101.635L169.563 122.936L146.721 136.099L110.486 114.798Z" fill="#11100E" stroke="white" stroke-width="0.5" stroke-linejoin="round"/>
<path d="M169.563 122.936V137.003L146.721 150.083V136.099L169.563 122.936Z" fill="#11100E" stroke="white" stroke-width="0.5" stroke-linejoin="round"/>
<path d="M51.5825 106.663V120.647L87.8174 141.945V127.964L51.5825 106.663Z" fill="#11100E" stroke="white" stroke-width="0.5" stroke-linejoin="round"/>
<path d="M51.5825 106.663L74.2753 93.4998L110.66 114.798L87.8174 127.964L51.5825 106.663Z" fill="#11100E" stroke="white" stroke-width="0.5" stroke-linejoin="round"/>
<path d="M110.66 114.798V128.868L87.8174 141.945V127.964L110.66 114.798Z" fill="#11100E" stroke="white" stroke-width="0.5" stroke-linejoin="round"/>
<path d="M5.89795 132.992V146.976L42.1329 168.277V154.293L5.89795 132.992Z" fill="#11100E" stroke="white" stroke-width="0.5" stroke-linejoin="round"/>
<path d="M5.89795 132.992L28.5907 119.829L64.9751 141.13L42.1329 154.293L5.89795 132.992Z" fill="#11100E" stroke="white" stroke-width="0.5" stroke-linejoin="round"/>
<path d="M64.9751 141.13V155.197L42.1328 168.277V154.293L64.9751 141.13Z" fill="#11100E" stroke="white" stroke-width="0.5" stroke-linejoin="round"/>
<path d="M204.355 141.945V155.928L168.12 177.229V163.246L204.355 141.945Z" fill="#11100E" stroke="white" stroke-width="0.5" stroke-linejoin="round"/>
<path d="M204.354 141.945L181.662 128.781L145.277 150.082L168.12 163.246L204.354 141.945Z" fill="#11100E" stroke="white" stroke-width="0.5" stroke-linejoin="round"/>
<path d="M145.277 150.083V164.15L168.12 177.229V163.246L145.277 150.083Z" fill="#11100E" stroke="white" stroke-width="0.5" stroke-linejoin="round"/>
<path d="M111.291 80.259V94.2428L147.525 115.544V101.56L111.291 80.259Z" fill="#11100E" stroke="white" stroke-width="0.5" stroke-linejoin="round"/>
<path d="M111.291 80.2591L133.983 67.0959L170.368 88.3969L147.525 101.56L111.291 80.2591Z" fill="#11100E" stroke="white" stroke-width="0.5" stroke-linejoin="round"/>
<path d="M170.368 88.397V102.464L147.525 115.544V101.56L170.368 88.397Z" fill="#11100E" stroke="white" stroke-width="0.5" stroke-linejoin="round"/>
<path d="M121.909 142.601L144.602 129.438L180.986 150.736L158.144 163.902L121.909 142.601Z" fill="#11100E" stroke="white" stroke-width="0.5" stroke-linejoin="round"/>
<path d="M24.0171 161.709V175.69L60.252 196.991V183.007L24.0171 161.709Z" fill="#11100E" stroke="white" stroke-width="0.5" stroke-linejoin="round"/>
<path d="M204.354 173.812V187.88L181.512 200.959V186.976L204.354 173.812Z" fill="#11100E" stroke="white" stroke-width="0.5" stroke-linejoin="round"/>
<path opacity="0.7" d="M42.1333 161.002L64.8291 147.838L115.069 176.322L92.2272 189.488L42.1333 161.002Z" fill="url(#paint0_linear_183_1469)"/>
<path opacity="0.7" d="M168.341 171.014L145.648 157.847L95.4077 186.334L118.25 199.497L168.341 171.014Z" fill="url(#paint1_linear_183_1469)"/>
<path opacity="0.7" d="M147.594 106.803L111.276 86.2124L88.2661 99.2174L124.734 119.805L147.594 106.803Z" fill="url(#paint2_linear_183_1469)"/>
<path d="M92.3677 180.13V194.111L128.606 215.412V201.431L92.3677 180.13Z" fill="#11100E" stroke="white" stroke-width="0.5" stroke-linejoin="round"/>
<path d="M92.3677 180.13L115.063 166.964L151.448 188.265L128.606 201.431L92.3677 180.13Z" fill="#11100E" stroke="white" stroke-width="0.5" stroke-linejoin="round"/>
<path d="M151.448 188.265V202.332L128.605 215.412V201.431L151.448 188.265Z" fill="#11100E" stroke="white" stroke-width="0.5" stroke-linejoin="round"/>
<path d="M29.6313 83.1836V97.1644L65.8692 118.465V104.485L29.6313 83.1836Z" fill="#11100E" stroke="white" stroke-width="0.5" stroke-linejoin="round"/>
<path d="M29.6313 83.1835L52.3271 70.0173L88.7115 91.3183L65.8692 104.484L29.6313 83.1835Z" fill="#11100E" stroke="white" stroke-width="0.5" stroke-linejoin="round"/>
<path d="M88.7114 91.3184V105.386L65.8691 118.465V104.484L88.7114 91.3184Z" fill="#11100E" stroke="white" stroke-width="0.5" stroke-linejoin="round"/>
<path d="M65.8691 104.484V118.465L102.104 139.766V125.785L65.8691 104.484Z" fill="#11100E" stroke="white" stroke-width="0.5" stroke-linejoin="round"/>
<path d="M65.8691 104.484L88.5619 91.3184L124.946 112.619L102.104 125.785L65.8691 104.484Z" fill="#11100E" stroke="white" stroke-width="0.5" stroke-linejoin="round"/>
<path d="M124.946 112.619V126.687L102.104 139.766V125.786L124.946 112.619Z" fill="#11100E" stroke="white" stroke-width="0.5" stroke-linejoin="round"/>
<path d="M6.78906 96.3499V110.331L43.027 131.632V117.648L6.78906 96.3499Z" fill="#11100E" stroke="white" stroke-width="0.5" stroke-linejoin="round"/>
<path d="M6.78906 96.3497L29.4848 83.1836L65.8692 104.485L43.027 117.648L6.78906 96.3497Z" fill="#11100E" stroke="white" stroke-width="0.5" stroke-linejoin="round"/>
<path d="M65.8691 104.485V118.552L43.0269 131.632V117.648L65.8691 104.485Z" fill="#11100E" stroke="white" stroke-width="0.5" stroke-linejoin="round"/>
<path opacity="0.7" d="M43.0269 125.332L65.7196 112.169L173.184 173.025L150.341 186.188L43.0269 125.332Z" fill="url(#paint3_linear_183_1469)"/>
<g opacity="0.5">
<path d="M5.89795 50.8831V64.5475L127.622 136.099V122.434L5.89795 50.8831Z" fill="#11100E" stroke="white" stroke-width="0.5" stroke-linejoin="round"/>
<path d="M5.89795 50.883L82.1315 6.65771L204.354 78.212L127.622 122.434L5.89795 50.883Z" fill="#11100E" stroke="white" stroke-width="0.5" stroke-linejoin="round"/>
<path d="M204.354 78.2119V92.1659L127.622 136.099V122.434L204.354 78.2119Z" fill="#11100E" stroke="white" stroke-width="0.5" stroke-linejoin="round"/>
</g>
<path d="M207.102 73.5237H213" stroke="white" stroke-width="0.5" stroke-linejoin="round"/>
<path d="M210.049 76.4661V70.5784" stroke="white" stroke-width="0.5" stroke-linejoin="round"/>
<path d="M0 47.9375H5.89815" stroke="white" stroke-width="0.5" stroke-linejoin="round"/>
<path d="M2.95068 50.8829V44.9951" stroke="white" stroke-width="0.5" stroke-linejoin="round"/>
<path d="M78.1738 2.94531H84.072" stroke="white" stroke-width="0.5" stroke-linejoin="round"/>
<path d="M81.1211 5.88775V0" stroke="white" stroke-width="0.5" stroke-linejoin="round"/>
<path d="M124.674 117.648H130.572" stroke="white" stroke-width="0.5" stroke-linejoin="round"/>
<path d="M127.622 120.593V114.705" stroke="white" stroke-width="0.5" stroke-linejoin="round"/>
<path d="M124.674 261.055H130.572" stroke="white" stroke-width="0.5" stroke-linejoin="round"/>
<path d="M127.622 264V258.112" stroke="white" stroke-width="0.5" stroke-linejoin="round"/>
<path d="M207.102 215.412H213" stroke="white" stroke-width="0.5" stroke-linejoin="round"/>
<path d="M210.049 218.357V212.467" stroke="white" stroke-width="0.5" stroke-linejoin="round"/>
<path d="M0 188.265H5.89815" stroke="white" stroke-width="0.5" stroke-linejoin="round"/>
<path d="M2.95068 191.21V185.32" stroke="white" stroke-width="0.5" stroke-linejoin="round"/>
<g opacity="0.7">
<path d="M2.95068 111.139V111.438" stroke="white" stroke-width="0.5" stroke-linejoin="round"/>
<path d="M2.95068 112.646V180.804" stroke="white" stroke-width="0.5" stroke-linejoin="round" stroke-dasharray="1.01 2.02"/>
<path d="M2.95068 181.407V181.706" stroke="white" stroke-width="0.5" stroke-linejoin="round"/>
</g>
<path d="M5.89795 191.21L95.4075 243.54" stroke="white" stroke-width="0.5" stroke-linejoin="round" stroke-dasharray="1 2"/>
<path d="M170.368 238.148L204.355 218.357" stroke="white" stroke-width="0.5" stroke-linejoin="round" stroke-dasharray="1 2"/>
<path d="M33.1079 27.2901L75.7342 2.94531" stroke="white" stroke-width="0.5" stroke-linejoin="round" stroke-dasharray="1 2"/>
<path d="M86.8521 2.94531L203.015 70.0174" stroke="white" stroke-width="0.5" stroke-linejoin="round" stroke-dasharray="1 2"/>
<path d="M210.049 83.1836V147.838" stroke="white" stroke-width="0.5" stroke-linejoin="round" stroke-dasharray="1 2"/>
</g>
<defs>
<linearGradient id="paint0_linear_183_1469" x1="53.1644" y1="153.145" x2="106.514" y2="185.541" gradientUnits="userSpaceOnUse">
<stop stop-color="#635F53"/>
<stop offset="1" stop-color="#35301B"/>
</linearGradient>
<linearGradient id="paint1_linear_183_1469" x1="155.328" y1="164.422" x2="106.249" y2="194.349" gradientUnits="userSpaceOnUse">
<stop stop-color="#635F53"/>
<stop offset="1" stop-color="#35301B"/>
</linearGradient>
<linearGradient id="paint2_linear_183_1469" x1="133.523" y1="93.5355" x2="100.892" y2="113.431" gradientUnits="userSpaceOnUse">
<stop stop-color="#635F53"/>
<stop offset="1" stop-color="#35301B"/>
</linearGradient>
<linearGradient id="paint3_linear_183_1469" x1="62.7123" y1="121.599" x2="157.703" y2="179.521" gradientUnits="userSpaceOnUse">
<stop stop-color="#635F53"/>
<stop offset="1" stop-color="#35301B"/>
</linearGradient>
<clipPath id="clip0_183_1469">
<rect width="213" height="264" fill="white"/>
</clipPath>
</defs>
</svg>
