<svg width="130" height="130" viewBox="0 0 130 130" fill="none" xmlns="http://www.w3.org/2000/svg">
<g filter="url(#filter0_d_66_3347)">
<path d="M33 65C33 47.3269 47.3269 33 65 33C82.6731 33 97 47.3269 97 65C97 82.6731 82.6731 97 65 97C47.3269 97 33 82.6731 33 65Z" fill="white"/>
<g clip-path="url(#clip0_66_3347)">
<path d="M62.7705 67.917H64.0299V64.849H62.7705V63.8613H65.2885V65.2404H65.3671C65.4131 65.0652 65.4757 64.8948 65.5542 64.7315C65.6347 64.5688 65.7411 64.4202 65.8692 64.2915C66.005 64.1578 66.1653 64.0516 66.3414 63.9788C66.5507 63.8955 66.7747 63.8556 66.9999 63.8613H67.5506V65.0354H66.5082C66.1281 65.0354 65.8288 65.1461 65.6103 65.3676C65.502 65.4806 65.4174 65.6142 65.3616 65.7605C65.3058 65.9067 65.28 66.0627 65.2855 66.2192V67.9208H67.0463V68.9093H62.7675L62.7705 67.917Z" fill="#78716C"/>
<path d="M60.1679 69.023C59.8115 69.0287 59.4573 68.9654 59.1248 68.8367C58.831 68.7183 58.5661 68.5381 58.348 68.3084C58.1299 68.0672 57.9627 67.7844 57.8564 67.4771C57.6331 66.7638 57.6331 65.9993 57.8564 65.286C57.9627 64.9785 58.1299 64.6955 58.348 64.4539C58.5663 64.2244 58.8312 64.0443 59.1248 63.9256C59.4574 63.7976 59.8115 63.7346 60.1679 63.74C60.5208 63.7352 60.8714 63.7982 61.2006 63.9256C61.496 64.0409 61.7615 64.2215 61.9773 64.4539C62.1996 64.6923 62.3674 64.9763 62.4689 65.286C62.7054 65.9972 62.7054 66.7659 62.4689 67.4771C62.3673 67.7866 62.1996 68.0702 61.9773 68.3084C61.7617 68.541 61.4961 68.7217 61.2006 68.8367C60.8716 68.9647 60.5209 69.028 60.1679 69.023ZM60.1679 68.0637C60.5286 68.0637 60.8137 67.9562 61.0232 67.7412C61.2327 67.5262 61.3378 67.2034 61.3383 66.7729V65.9902C61.3383 65.5656 61.2332 65.2461 61.0232 65.0316C60.8137 64.8096 60.5286 64.6986 60.1679 64.6986C59.8072 64.6986 59.5219 64.8096 59.3119 65.0316C59.1023 65.2461 58.9973 65.5656 58.9968 65.9902V66.7729C58.9968 67.1964 59.1018 67.5192 59.3119 67.7412C59.5219 67.9632 59.8072 68.0707 60.1679 68.0637Z" fill="#78716C"/>
<path d="M55.3324 69.023C54.8382 69.0342 54.3467 68.9478 53.8859 68.7686C53.5136 68.6178 53.1854 68.3753 52.9319 68.0637L53.6697 67.3985C53.8715 67.6208 54.1157 67.8004 54.388 67.9268C54.6892 68.0562 55.0145 68.1197 55.3421 68.1131C55.6574 68.1131 55.9098 68.061 56.0994 67.9567C56.1881 67.9128 56.2622 67.8441 56.3128 67.759C56.3634 67.6739 56.3883 67.576 56.3845 67.4771C56.3845 67.2945 56.3194 67.1703 56.1877 67.1029C56.0296 67.0267 55.8604 66.9762 55.6864 66.9532L54.8699 66.826C54.6606 66.794 54.4537 66.7482 54.2504 66.6891C54.0612 66.6277 53.8822 66.5387 53.7191 66.4249C53.5676 66.314 53.4433 66.1702 53.3554 66.0044C53.2586 65.8067 53.2114 65.5884 53.2177 65.3683C53.2177 64.84 53.4143 64.4357 53.8074 64.1554C54.2005 63.875 54.748 63.7348 55.4499 63.7348C55.8757 63.7236 56.2998 63.7934 56.6996 63.9406C57.0259 64.0634 57.3188 64.261 57.5549 64.5175L56.8963 65.2411C56.7301 65.0692 56.5331 64.9298 56.3157 64.8303C56.0802 64.7066 55.7786 64.6447 55.411 64.6447C54.7684 64.6447 54.4472 64.8443 54.4472 65.2434C54.4472 65.426 54.5123 65.5532 54.644 65.625C54.8058 65.7005 54.9781 65.751 55.1551 65.7747L55.9617 65.9019C56.1721 65.9342 56.3794 65.9843 56.5813 66.0515C56.772 66.1045 56.9518 66.1906 57.1126 66.306C57.2685 66.4149 57.3967 66.559 57.4867 66.7265C57.5842 66.9205 57.6315 67.1358 57.6244 67.3528C57.6329 67.5927 57.5816 67.8309 57.4751 68.0461C57.3687 68.2612 57.2104 68.4465 57.0146 68.5853C56.6145 68.8766 56.0538 69.0225 55.3324 69.023Z" fill="#78716C"/>
<path d="M48.3231 68.9056V63.8575H49.5817V64.748H49.6311C49.742 64.4752 49.9174 64.2333 50.1422 64.0431C50.3787 63.8411 50.7029 63.74 51.115 63.74C51.6139 63.74 52.0169 63.9064 52.3242 64.2392C52.6315 64.5719 52.7892 65.0413 52.7972 65.6475V68.9056H51.5393V65.8263C51.5393 65.096 51.2212 64.7305 50.5852 64.73C50.4588 64.7294 50.3329 64.746 50.211 64.7794C50.0943 64.8112 49.9845 64.8642 49.887 64.9358C49.796 65.0009 49.7196 65.0843 49.6625 65.1805C49.6089 65.2898 49.5832 65.4106 49.5877 65.5322V68.9078L48.3231 68.9056Z" fill="#78716C"/>
<path d="M41.5435 63.1324V68.9041H40.2646V63.1324H38.1993V62.0773H43.6088V63.1324H41.5435Z" fill="#78716C"/>
<path d="M87.6297 61.6665H88.8891V65.9116H88.9482L89.6861 65.1094L90.935 63.8575H92.4009L90.3805 65.8435L92.6134 68.9056H91.1086L89.4855 66.5574L88.8869 67.1246V68.9056H87.6275L87.6297 61.6665Z" fill="#78716C"/>
<path d="M85.2045 69.023C84.8483 69.0286 84.4944 68.9653 84.1621 68.8367C83.8643 68.7201 83.5957 68.5398 83.3749 68.3084C83.1573 68.0668 82.9902 67.7841 82.8833 67.4771C82.66 66.7638 82.66 65.9993 82.8833 65.286C82.9902 64.9787 83.1573 64.6958 83.3749 64.4539C83.5933 64.2243 83.8584 64.0441 84.1524 63.9256C84.4848 63.7975 84.8386 63.7345 85.1948 63.74C85.7321 63.74 86.1648 63.851 86.4931 64.073C86.8189 64.2918 87.0778 64.5963 87.2414 64.953L86.2686 65.4813C86.185 65.2771 86.0492 65.0983 85.875 64.9628C85.7111 64.8258 85.4844 64.7577 85.1963 64.7577C84.8221 64.7577 84.5335 64.8652 84.3305 65.0802C84.1275 65.2953 84.0292 65.5888 84.0357 65.961V66.7991C84.0357 67.1643 84.1339 67.4578 84.3305 67.6798C84.5271 67.9018 84.8221 68.0093 85.2157 68.0024C85.515 68.0024 85.7545 67.9338 85.9341 67.7966C86.1234 67.6522 86.2752 67.4643 86.3763 67.2488L87.3207 67.8063C87.149 68.1666 86.88 68.4717 86.544 68.687C86.2017 68.9105 85.7553 69.0225 85.2045 69.023Z" fill="#78716C"/>
<path d="M80.1917 69.023C79.8354 69.0286 79.4815 68.9653 79.1493 68.8367C78.8553 68.7183 78.5901 68.5381 78.3718 68.3084C78.1542 68.0668 77.9871 67.7841 77.8802 67.477C77.6577 66.7637 77.6577 65.9994 77.8802 65.286C77.9871 64.9787 78.1542 64.6958 78.3718 64.4539C78.5903 64.2244 78.8554 64.0443 79.1493 63.9256C79.8188 63.6782 80.5548 63.6782 81.2243 63.9256C81.5199 64.0411 81.7856 64.2217 82.0018 64.4539C82.2241 64.6923 82.3919 64.9763 82.4934 65.286C82.7299 65.9972 82.7299 66.7659 82.4934 67.477C82.3918 67.7866 82.224 68.0702 82.0018 68.3084C81.7858 68.5409 81.52 68.7215 81.2243 68.8367C80.8953 68.9647 80.5447 69.028 80.1917 69.023ZM80.1917 68.0637C80.5523 68.0637 80.8377 67.9562 81.0477 67.7412C81.2577 67.5262 81.3625 67.2034 81.362 66.7729V65.9902C81.362 65.5656 81.2572 65.2461 81.0477 65.0316C80.8377 64.8096 80.5523 64.6986 80.1917 64.6986C79.831 64.6986 79.5456 64.8096 79.3356 65.0316C79.1261 65.2461 79.0213 65.5656 79.0213 65.9902V66.7729C79.0213 67.1964 79.1261 67.5192 79.3356 67.7412C79.5451 67.9632 79.8305 68.0707 80.1917 68.0637Z" fill="#78716C"/>
<path d="M73.1329 67.917H74.7463V63.0628H73.1329V62.0751H76.0057V67.917H77.6295V68.9056H73.1344L73.1329 67.917Z" fill="#78716C"/>
<path d="M68.3962 62.0773H70.7863C71.4348 62.0773 71.9337 62.2402 72.2829 62.566C72.6321 62.8917 72.8092 63.3287 72.8142 63.877C72.8142 64.2686 72.7144 64.5816 72.5148 64.8161C72.3016 65.0657 72.0165 65.2435 71.6984 65.3249V65.3736C72.1115 65.4733 72.4358 65.6527 72.6712 65.9116C72.9067 66.1705 73.0279 66.5324 73.0349 66.9974C73.0378 67.2657 72.9869 67.5318 72.8853 67.7801C72.7954 68.0063 72.6578 68.2105 72.4819 68.3787C72.3031 68.5533 72.0883 68.6869 71.8526 68.7701C71.5887 68.8647 71.3098 68.9111 71.0295 68.907H68.3932L68.3962 62.0773ZM70.6411 67.9762C71.0018 67.9762 71.2707 67.9108 71.4478 67.7801C71.6249 67.6494 71.7167 67.4179 71.7231 67.0857V66.7632C71.7231 66.4439 71.6313 66.2194 71.4478 66.0897C71.2642 65.96 70.9953 65.8914 70.6411 65.8839H69.6571V67.9792L70.6411 67.9762ZM70.4735 64.9919C70.8215 64.9919 71.0766 64.9306 71.2412 64.8064C71.4059 64.6821 71.4964 64.4674 71.4964 64.1606V63.8381C71.4964 63.5313 71.4113 63.316 71.2412 63.1923C71.0766 63.0681 70.8215 63.0067 70.4735 63.0067H69.6571V64.9919H70.4735Z" fill="#78716C"/>
<path d="M48.1869 66.6846C48.1951 66.5866 48.1989 66.4856 48.1989 66.3853C48.2042 66.0126 48.1441 65.6418 48.0215 65.2898C47.92 64.98 47.7522 64.696 47.5299 64.4577C47.3137 64.2254 47.048 64.0448 46.7524 63.9294C46.0828 63.6819 45.3469 63.6819 44.6774 63.9294C44.3835 64.048 44.1184 64.2282 43.8999 64.4577C43.6823 64.6996 43.5152 64.9825 43.4082 65.2898C43.1857 66.0032 43.1857 66.7674 43.4082 67.4808C43.5152 67.7879 43.6823 68.0705 43.8999 68.3121C44.1182 68.5419 44.3834 68.722 44.6774 68.8405C45.3467 69.0889 46.083 69.0889 46.7524 68.8405C47.0481 68.7253 47.3139 68.5446 47.5299 68.3121C47.7521 68.074 47.9199 67.7903 48.0215 67.4808C48.0694 67.3487 48.107 67.2131 48.1338 67.0752H46.8699C46.8444 67.3239 46.7413 67.5582 46.5751 67.7449C46.365 67.9605 46.0797 68.068 45.719 68.0675C45.3583 68.067 45.073 67.9595 44.8629 67.7449C44.6534 67.5234 44.5487 67.2007 44.5487 66.7766V66.6883L48.1869 66.6846ZM44.8637 65.0316C45.0737 64.8096 45.3591 64.6986 45.7197 64.6986C46.0804 64.6986 46.3658 64.8096 46.5758 65.0316C46.7771 65.2381 46.8804 65.542 46.8886 65.9415H44.5502C44.5591 65.542 44.6624 65.2381 44.8637 65.0316Z" fill="#78716C"/>
</g>
</g>
<defs>
<filter id="filter0_d_66_3347" x="0.0719986" y="0.0719986" width="129.856" height="129.856" filterUnits="userSpaceOnUse" color-interpolation-filters="sRGB">
<feFlood flood-opacity="0" result="BackgroundImageFix"/>
<feColorMatrix in="SourceAlpha" type="matrix" values="0 0 0 0 0 0 0 0 0 0 0 0 0 0 0 0 0 0 127 0" result="hardAlpha"/>
<feMorphology radius="1.92" operator="dilate" in="SourceAlpha" result="effect1_dropShadow_66_3347"/>
<feOffset/>
<feGaussianBlur stdDeviation="15.504"/>
<feComposite in2="hardAlpha" operator="out"/>
<feColorMatrix type="matrix" values="0 0 0 0 0.88375 0 0 0 0 0.798356 0 0 0 0 0.46625 0 0 0 0.5 0"/>
<feBlend mode="normal" in2="BackgroundImageFix" result="effect1_dropShadow_66_3347"/>
<feBlend mode="normal" in="SourceGraphic" in2="effect1_dropShadow_66_3347" result="shape"/>
</filter>
<clipPath id="clip0_66_3347">
<rect width="54.4014" height="7.33333" fill="white" transform="translate(38.1993 61.6665)"/>
</clipPath>
</defs>
</svg>
