<svg width="149" height="263" viewBox="0 0 149 263" fill="none" xmlns="http://www.w3.org/2000/svg">
<mask id="path-1-inside-1_66_3325" fill="white">
<path d="M276 125C276 152.294 267.906 178.975 252.743 201.669C237.579 224.363 216.027 242.05 190.81 252.495C165.594 262.94 137.847 265.673 111.078 260.348C84.3082 255.024 59.7189 241.88 40.4193 222.581C21.1196 203.281 7.97639 178.692 2.65163 151.922C-2.67313 125.153 0.0597314 97.4059 10.5046 72.1897C20.9495 46.9735 38.6373 25.4208 61.3313 10.2572C84.0253 -4.90644 110.706 -13 138 -13V32.9267C119.79 32.9267 101.988 38.3267 86.8468 48.4438C71.7054 58.561 59.9042 72.9409 52.9353 89.7651C45.9665 106.589 44.1432 125.102 47.6958 142.963C51.2485 160.823 60.0176 177.229 72.8943 190.106C85.771 202.982 102.177 211.751 120.037 215.304C137.898 218.857 156.411 217.033 173.235 210.065C190.059 203.096 204.439 191.295 214.556 176.153C224.673 161.012 230.073 143.21 230.073 125H276Z"/>
</mask>
<path d="M276 125C276 152.294 267.906 178.975 252.743 201.669C237.579 224.363 216.027 242.05 190.81 252.495C165.594 262.94 137.847 265.673 111.078 260.348C84.3082 255.024 59.7189 241.88 40.4193 222.581C21.1196 203.281 7.97639 178.692 2.65163 151.922C-2.67313 125.153 0.0597314 97.4059 10.5046 72.1897C20.9495 46.9735 38.6373 25.4208 61.3313 10.2572C84.0253 -4.90644 110.706 -13 138 -13V32.9267C119.79 32.9267 101.988 38.3267 86.8468 48.4438C71.7054 58.561 59.9042 72.9409 52.9353 89.7651C45.9665 106.589 44.1432 125.102 47.6958 142.963C51.2485 160.823 60.0176 177.229 72.8943 190.106C85.771 202.982 102.177 211.751 120.037 215.304C137.898 218.857 156.411 217.033 173.235 210.065C190.059 203.096 204.439 191.295 214.556 176.153C224.673 161.012 230.073 143.21 230.073 125H276Z" stroke="url(#paint0_linear_66_3325)" mask="url(#path-1-inside-1_66_3325)"/>
<mask id="path-2-inside-2_66_3325" fill="white">
<path d="M49.3773 66.8448C58.2976 53.2512 70.2255 41.8918 84.2381 33.6454C98.2508 25.399 113.973 20.4866 130.188 19.2883C146.402 18.09 162.676 20.6378 177.748 26.7347C192.821 32.8316 206.289 42.3141 217.111 54.4487L190.783 77.9283C183.562 69.8321 174.576 63.5054 164.52 59.4376C154.464 55.3697 143.606 53.6698 132.788 54.4694C121.969 55.2689 111.479 58.5464 102.13 64.0484C92.781 69.5504 84.8227 77.1293 78.8711 86.199L49.3773 66.8448Z"/>
</mask>
<path d="M49.3773 66.8448C58.2976 53.2512 70.2255 41.8918 84.2381 33.6454C98.2508 25.399 113.973 20.4866 130.188 19.2883C146.402 18.09 162.676 20.6378 177.748 26.7347C192.821 32.8316 206.289 42.3141 217.111 54.4487L190.783 77.9283C183.562 69.8321 174.576 63.5054 164.52 59.4376C154.464 55.3697 143.606 53.6698 132.788 54.4694C121.969 55.2689 111.479 58.5464 102.13 64.0484C92.781 69.5504 84.8227 77.1293 78.8711 86.199L49.3773 66.8448Z" stroke="url(#paint1_linear_66_3325)" mask="url(#path-2-inside-2_66_3325)"/>
<mask id="path-3-inside-3_66_3325" fill="white">
<path d="M189.723 16.7191C211.139 26.949 229.04 43.2996 241.164 63.7034C253.287 84.1073 259.088 107.648 257.832 131.348C256.576 155.049 248.321 177.845 234.11 196.854C219.898 215.862 200.369 230.23 177.993 238.14C155.616 246.049 131.396 247.146 108.396 241.291C85.3953 235.436 64.648 222.892 48.777 205.245C32.906 187.598 22.6243 165.642 19.2321 142.152C15.8398 118.662 19.4893 94.6931 29.7191 73.2771L65.7552 90.4906C58.9299 104.779 56.495 120.771 58.7583 136.444C61.0216 152.116 67.8815 166.765 78.4706 178.539C89.0597 190.313 102.902 198.682 118.248 202.589C133.594 206.496 149.753 205.764 164.683 200.487C179.613 195.209 192.642 185.623 202.124 172.941C211.606 160.258 217.114 145.049 217.952 129.236C218.789 113.423 214.919 97.7165 206.831 84.1031C198.742 70.4897 186.798 59.5805 172.509 52.7552L189.723 16.7191Z"/>
</mask>
<path d="M189.723 16.7191C211.139 26.949 229.04 43.2996 241.164 63.7034C253.287 84.1073 259.088 107.648 257.832 131.348C256.576 155.049 248.321 177.845 234.11 196.854C219.898 215.862 200.369 230.23 177.993 238.14C155.616 246.049 131.396 247.146 108.396 241.291C85.3953 235.436 64.648 222.892 48.777 205.245C32.906 187.598 22.6243 165.642 19.2321 142.152C15.8398 118.662 19.4893 94.6931 29.7191 73.2771L65.7552 90.4906C58.9299 104.779 56.495 120.771 58.7583 136.444C61.0216 152.116 67.8815 166.765 78.4706 178.539C89.0597 190.313 102.902 198.682 118.248 202.589C133.594 206.496 149.753 205.764 164.683 200.487C179.613 195.209 192.642 185.623 202.124 172.941C211.606 160.258 217.114 145.049 217.952 129.236C218.789 113.423 214.919 97.7165 206.831 84.1031C198.742 70.4897 186.798 59.5805 172.509 52.7552L189.723 16.7191Z" fill="url(#paint2_linear_66_3325)" fill-opacity="0.3" stroke="url(#paint3_linear_66_3325)" mask="url(#path-3-inside-3_66_3325)"/>
<mask id="path-4-inside-4_66_3325" fill="white">
<path d="M185 125C185 114.126 181.23 103.589 174.331 95.1835C167.433 86.778 157.834 81.0244 147.169 78.9031C136.504 76.7817 125.434 78.4239 115.844 83.5497C106.255 88.6755 98.7388 96.9679 94.5777 107.014C90.4165 117.06 89.8673 128.238 93.0238 138.643C96.1803 149.049 102.847 158.038 111.888 164.079C120.929 170.12 131.785 172.839 142.607 171.774C153.428 170.708 163.545 165.923 171.234 158.234L138 125H185Z"/>
</mask>
<path d="M185 125C185 114.126 181.23 103.589 174.331 95.1835C167.433 86.778 157.834 81.0244 147.169 78.9031C136.504 76.7817 125.434 78.4239 115.844 83.5497C106.255 88.6755 98.7388 96.9679 94.5777 107.014C90.4165 117.06 89.8673 128.238 93.0238 138.643C96.1803 149.049 102.847 158.038 111.888 164.079C120.929 170.12 131.785 172.839 142.607 171.774C153.428 170.708 163.545 165.923 171.234 158.234L138 125H185Z" fill="#E6E3DB" stroke="url(#paint4_linear_66_3325)" mask="url(#path-4-inside-4_66_3325)"/>
<g filter="url(#filter0_di_66_3325)">
<circle cx="138" cy="125" r="17.5" fill="#22201C" shape-rendering="crispEdges"/>
<circle cx="138" cy="125" r="21.1" stroke="#D9D5C3" stroke-opacity="0.2" stroke-width="7.2" shape-rendering="crispEdges"/>
</g>
<circle cx="124.75" cy="111.75" r="8.75" fill="white"/>
<defs>
<filter id="filter0_di_66_3325" x="85.86" y="72.86" width="104.28" height="104.28" filterUnits="userSpaceOnUse" color-interpolation-filters="sRGB">
<feFlood flood-opacity="0" result="BackgroundImageFix"/>
<feColorMatrix in="SourceAlpha" type="matrix" values="0 0 0 0 0 0 0 0 0 0 0 0 0 0 0 0 0 0 127 0" result="hardAlpha"/>
<feMorphology radius="1.6" operator="dilate" in="SourceAlpha" result="effect1_dropShadow_66_3325"/>
<feOffset/>
<feGaussianBlur stdDeviation="12.92"/>
<feComposite in2="hardAlpha" operator="out"/>
<feColorMatrix type="matrix" values="0 0 0 0 0.682353 0 0 0 0 0.647059 0 0 0 0 0.509804 0 0 0 1 0"/>
<feBlend mode="normal" in2="BackgroundImageFix" result="effect1_dropShadow_66_3325"/>
<feBlend mode="normal" in="SourceGraphic" in2="effect1_dropShadow_66_3325" result="shape"/>
<feColorMatrix in="SourceAlpha" type="matrix" values="0 0 0 0 0 0 0 0 0 0 0 0 0 0 0 0 0 0 127 0" result="hardAlpha"/>
<feOffset/>
<feGaussianBlur stdDeviation="3.2"/>
<feComposite in2="hardAlpha" operator="arithmetic" k2="-1" k3="1"/>
<feColorMatrix type="matrix" values="0 0 0 0 0.713726 0 0 0 0 0.678431 0 0 0 0 0.552941 0 0 0 1 0"/>
<feBlend mode="normal" in2="shape" result="effect2_innerShadow_66_3325"/>
</filter>
<linearGradient id="paint0_linear_66_3325" x1="7.58107e-07" y1="5.64005" x2="276" y2="5.63851" gradientUnits="userSpaceOnUse">
<stop stop-color="#696352"/>
<stop offset="1" stop-color="#F1EFE8"/>
</linearGradient>
<linearGradient id="paint1_linear_66_3325" x1="223" y1="56.25" x2="13.4999" y2="39.0012" gradientUnits="userSpaceOnUse">
<stop stop-color="#696352"/>
<stop offset="1" stop-color="#F1EFE8"/>
</linearGradient>
<linearGradient id="paint2_linear_66_3325" x1="217.5" y1="23" x2="138" y2="245" gradientUnits="userSpaceOnUse">
<stop stop-color="#C7B7A4"/>
<stop offset="1" stop-color="#F0EDEA"/>
</linearGradient>
<linearGradient id="paint3_linear_66_3325" x1="213.75" y1="222.5" x2="67.4988" y2="20.0009" gradientUnits="userSpaceOnUse">
<stop stop-color="#696352"/>
<stop offset="1" stop-color="#F1EFE8"/>
</linearGradient>
<linearGradient id="paint4_linear_66_3325" x1="91" y1="84.3484" x2="185" y2="84.3479" gradientUnits="userSpaceOnUse">
<stop stop-color="#696352"/>
<stop offset="1" stop-color="#F1EFE8"/>
</linearGradient>
</defs>
</svg>
