<svg width="488" height="457" viewBox="0 0 488 457" fill="none" xmlns="http://www.w3.org/2000/svg">
<mask id="path-1-inside-1_1_942" fill="white">
<path d="M552 181C552 235.588 535.813 288.949 505.486 334.337C475.158 379.725 432.053 415.101 381.621 435.991C331.188 456.881 275.694 462.346 222.155 451.697C168.616 441.047 119.438 414.761 80.8385 376.161C42.2392 337.562 15.9528 288.384 5.30326 234.845C-5.34626 181.306 0.119463 125.812 21.0093 75.3794C41.899 24.947 77.2747 -18.1583 122.663 -48.4856C168.051 -78.8129 221.412 -95 276 -95V-3.14665C239.579 -3.14665 203.976 7.65336 173.694 27.8877C143.411 48.1219 119.808 76.8817 105.871 110.53C91.9331 144.179 88.2863 181.204 95.3917 216.925C102.497 252.646 120.035 285.458 145.789 311.211C171.542 336.965 204.354 354.503 240.075 361.608C275.796 368.714 312.821 365.067 346.47 351.129C380.118 337.192 408.878 313.589 429.112 283.306C449.347 253.024 460.147 217.421 460.147 181H552Z"/>
</mask>
<path d="M552 181C552 235.588 535.813 288.949 505.486 334.337C475.158 379.725 432.053 415.101 381.621 435.991C331.188 456.881 275.694 462.346 222.155 451.697C168.616 441.047 119.438 414.761 80.8385 376.161C42.2392 337.562 15.9528 288.384 5.30326 234.845C-5.34626 181.306 0.119463 125.812 21.0093 75.3794C41.899 24.947 77.2747 -18.1583 122.663 -48.4856C168.051 -78.8129 221.412 -95 276 -95V-3.14665C239.579 -3.14665 203.976 7.65336 173.694 27.8877C143.411 48.1219 119.808 76.8817 105.871 110.53C91.9331 144.179 88.2863 181.204 95.3917 216.925C102.497 252.646 120.035 285.458 145.789 311.211C171.542 336.965 204.354 354.503 240.075 361.608C275.796 368.714 312.821 365.067 346.47 351.129C380.118 337.192 408.878 313.589 429.112 283.306C449.347 253.024 460.147 217.421 460.147 181H552Z" stroke="url(#paint0_linear_1_942)" stroke-width="2" mask="url(#path-1-inside-1_1_942)"/>
<mask id="path-2-inside-2_1_942" fill="white">
<path d="M98.7547 64.6897C116.595 37.5024 140.451 14.7836 168.476 -1.70917C196.502 -18.202 227.945 -28.0267 260.375 -30.4234C292.805 -32.8201 325.351 -27.7244 355.497 -15.5306C385.642 -3.33684 412.578 15.6282 434.222 39.8975L381.565 86.8567C367.125 70.6643 349.153 58.0108 329.04 49.8751C308.927 41.7395 287.212 38.3397 265.575 39.9387C243.938 41.5378 222.959 48.0928 204.26 59.0968C185.562 70.1008 169.645 85.2587 157.742 103.398L98.7547 64.6897Z"/>
</mask>
<path d="M98.7547 64.6897C116.595 37.5024 140.451 14.7836 168.476 -1.70917C196.502 -18.202 227.945 -28.0267 260.375 -30.4234C292.805 -32.8201 325.351 -27.7244 355.497 -15.5306C385.642 -3.33684 412.578 15.6282 434.222 39.8975L381.565 86.8567C367.125 70.6643 349.153 58.0108 329.04 49.8751C308.927 41.7395 287.212 38.3397 265.575 39.9387C243.938 41.5378 222.959 48.0928 204.26 59.0968C185.562 70.1008 169.645 85.2587 157.742 103.398L98.7547 64.6897Z" stroke="url(#paint1_linear_1_942)" stroke-width="2" mask="url(#path-2-inside-2_1_942)"/>
<mask id="path-3-inside-3_1_942" fill="white">
<path d="M379.446 -35.5617C422.278 -15.1021 458.081 17.5992 482.327 58.4069C506.574 99.2146 518.175 146.296 515.664 193.697C513.153 241.098 496.642 286.69 468.219 324.707C439.797 362.725 400.739 391.46 355.985 407.279C311.231 423.099 262.791 425.292 216.791 413.582C170.791 401.871 129.296 376.783 97.554 341.49C65.8121 306.197 45.2487 262.283 38.4641 215.303C31.6796 168.323 38.9786 120.386 59.4383 77.5543L131.51 111.981C117.86 140.559 112.99 172.542 117.517 203.887C122.043 235.232 135.763 264.531 156.941 288.079C178.119 311.626 205.805 328.365 236.496 336.178C267.187 343.991 299.506 342.528 329.366 331.973C359.226 321.418 385.285 302.246 404.248 276.881C423.212 251.516 434.228 221.097 435.903 189.471C437.579 157.845 429.838 126.433 413.661 99.2061C397.484 71.9793 373.596 50.1611 345.019 36.5105L379.446 -35.5617Z"/>
</mask>
<path d="M379.446 -35.5617C422.278 -15.1021 458.081 17.5992 482.327 58.4069C506.574 99.2146 518.175 146.296 515.664 193.697C513.153 241.098 496.642 286.69 468.219 324.707C439.797 362.725 400.739 391.46 355.985 407.279C311.231 423.099 262.791 425.292 216.791 413.582C170.791 401.871 129.296 376.783 97.554 341.49C65.8121 306.197 45.2487 262.283 38.4641 215.303C31.6796 168.323 38.9786 120.386 59.4383 77.5543L131.51 111.981C117.86 140.559 112.99 172.542 117.517 203.887C122.043 235.232 135.763 264.531 156.941 288.079C178.119 311.626 205.805 328.365 236.496 336.178C267.187 343.991 299.506 342.528 329.366 331.973C359.226 321.418 385.285 302.246 404.248 276.881C423.212 251.516 434.228 221.097 435.903 189.471C437.579 157.845 429.838 126.433 413.661 99.2061C397.484 71.9793 373.596 50.1611 345.019 36.5105L379.446 -35.5617Z" fill="url(#paint2_linear_1_942)" fill-opacity="0.3" stroke="url(#paint3_linear_1_942)" stroke-width="2" mask="url(#path-3-inside-3_1_942)"/>
<mask id="path-4-inside-4_1_942" fill="white">
<path d="M370 181C370 159.253 362.459 138.178 348.663 121.367C334.867 104.556 315.668 93.0489 294.338 88.8062C273.009 84.5635 250.868 87.8477 231.689 98.0994C212.509 108.351 197.478 124.936 189.155 145.028C180.833 165.12 179.735 187.476 186.048 208.287C192.361 229.098 205.694 247.076 223.776 259.158C241.859 271.24 263.571 276.679 285.214 274.547C306.856 272.416 327.09 262.846 342.468 247.468L276 181H370Z"/>
</mask>
<path d="M370 181C370 159.253 362.459 138.178 348.663 121.367C334.867 104.556 315.668 93.0489 294.338 88.8062C273.009 84.5635 250.868 87.8477 231.689 98.0994C212.509 108.351 197.478 124.936 189.155 145.028C180.833 165.12 179.735 187.476 186.048 208.287C192.361 229.098 205.694 247.076 223.776 259.158C241.859 271.24 263.571 276.679 285.214 274.547C306.856 272.416 327.09 262.846 342.468 247.468L276 181H370Z" fill="#E6E3DB" stroke="url(#paint4_linear_1_942)" stroke-width="2" mask="url(#path-4-inside-4_1_942)"/>
<g filter="url(#filter0_di_1_942)">
<circle cx="276" cy="181" r="35" fill="#22201C" shape-rendering="crispEdges"/>
<circle cx="276" cy="181" r="42.2" stroke="#D9D5C3" stroke-opacity="0.2" stroke-width="14.4" shape-rendering="crispEdges"/>
</g>
<circle cx="249.5" cy="154.5" r="17.5" fill="white"/>
<defs>
<filter id="filter0_di_1_942" x="171.72" y="76.72" width="208.56" height="208.56" filterUnits="userSpaceOnUse" color-interpolation-filters="sRGB">
<feFlood flood-opacity="0" result="BackgroundImageFix"/>
<feColorMatrix in="SourceAlpha" type="matrix" values="0 0 0 0 0 0 0 0 0 0 0 0 0 0 0 0 0 0 127 0" result="hardAlpha"/>
<feMorphology radius="3.2" operator="dilate" in="SourceAlpha" result="effect1_dropShadow_1_942"/>
<feOffset/>
<feGaussianBlur stdDeviation="25.84"/>
<feComposite in2="hardAlpha" operator="out"/>
<feColorMatrix type="matrix" values="0 0 0 0 0.682353 0 0 0 0 0.647059 0 0 0 0 0.509804 0 0 0 1 0"/>
<feBlend mode="normal" in2="BackgroundImageFix" result="effect1_dropShadow_1_942"/>
<feBlend mode="normal" in="SourceGraphic" in2="effect1_dropShadow_1_942" result="shape"/>
<feColorMatrix in="SourceAlpha" type="matrix" values="0 0 0 0 0 0 0 0 0 0 0 0 0 0 0 0 0 0 127 0" result="hardAlpha"/>
<feOffset/>
<feGaussianBlur stdDeviation="6.4"/>
<feComposite in2="hardAlpha" operator="arithmetic" k2="-1" k3="1"/>
<feColorMatrix type="matrix" values="0 0 0 0 0.713726 0 0 0 0 0.678431 0 0 0 0 0.552941 0 0 0 1 0"/>
<feBlend mode="normal" in2="shape" result="effect2_innerShadow_1_942"/>
</filter>
<linearGradient id="paint0_linear_1_942" x1="1.51621e-06" y1="-57.7199" x2="552" y2="-57.723" gradientUnits="userSpaceOnUse">
<stop stop-color="#696352"/>
<stop offset="1" stop-color="#F1EFE8"/>
</linearGradient>
<linearGradient id="paint1_linear_1_942" x1="446" y1="43.5" x2="26.9998" y2="9.00232" gradientUnits="userSpaceOnUse">
<stop stop-color="#696352"/>
<stop offset="1" stop-color="#F1EFE8"/>
</linearGradient>
<linearGradient id="paint2_linear_1_942" x1="435" y1="-23" x2="276" y2="421" gradientUnits="userSpaceOnUse">
<stop stop-color="#C7B7A4"/>
<stop offset="1" stop-color="#F0EDEA"/>
</linearGradient>
<linearGradient id="paint3_linear_1_942" x1="427.5" y1="376" x2="134.998" y2="-28.9982" gradientUnits="userSpaceOnUse">
<stop stop-color="#696352"/>
<stop offset="1" stop-color="#F1EFE8"/>
</linearGradient>
<linearGradient id="paint4_linear_1_942" x1="182" y1="99.6968" x2="370" y2="99.6958" gradientUnits="userSpaceOnUse">
<stop stop-color="#696352"/>
<stop offset="1" stop-color="#F1EFE8"/>
</linearGradient>
</defs>
</svg>
