<svg width="332" height="177" viewBox="0 0 332 177" fill="none" xmlns="http://www.w3.org/2000/svg">
<path d="M13.856 1V175.842" stroke="url(#paint0_linear_1548_914)" stroke-width="1.2" stroke-linecap="round" stroke-linejoin="round"/>
<path d="M331.4 11.2842L0.999996 11.2842" stroke="url(#paint1_linear_1548_914)" stroke-width="1.2" stroke-linecap="round" stroke-linejoin="round"/>
<path d="M33.1401 1V175.842" stroke="url(#paint2_linear_1548_914)" stroke-width="1.2" stroke-linecap="round" stroke-linejoin="round"/>
<path d="M331.4 30.5684L0.999996 30.5684" stroke="url(#paint3_linear_1548_914)" stroke-width="1.2" stroke-linecap="round" stroke-linejoin="round"/>
<path d="M52.4243 1V175.842" stroke="url(#paint4_linear_1548_914)" stroke-width="1.2" stroke-linecap="round" stroke-linejoin="round"/>
<path d="M331.4 49.8525L0.999996 49.8525" stroke="url(#paint5_linear_1548_914)" stroke-width="1.2" stroke-linecap="round" stroke-linejoin="round"/>
<path d="M71.7085 1V175.842" stroke="url(#paint6_linear_1548_914)" stroke-width="1.2" stroke-linecap="round" stroke-linejoin="round"/>
<path d="M331.4 69.1367L0.999996 69.1367" stroke="url(#paint7_linear_1548_914)" stroke-width="1.2" stroke-linecap="round" stroke-linejoin="round"/>
<path d="M90.9922 1V175.842" stroke="url(#paint8_linear_1548_914)" stroke-width="1.2" stroke-linecap="round" stroke-linejoin="round"/>
<path d="M331.4 88.4209L0.999996 88.4209" stroke="url(#paint9_linear_1548_914)" stroke-width="1.2" stroke-linecap="round" stroke-linejoin="round"/>
<path d="M110.276 1V175.842" stroke="url(#paint10_linear_1548_914)" stroke-width="1.2" stroke-linecap="round" stroke-linejoin="round"/>
<path d="M331.4 107.704L0.999996 107.704" stroke="url(#paint11_linear_1548_914)" stroke-width="1.2" stroke-linecap="round" stroke-linejoin="round"/>
<path d="M129.561 1V175.842" stroke="url(#paint12_linear_1548_914)" stroke-width="1.2" stroke-linecap="round" stroke-linejoin="round"/>
<path d="M331.4 126.988L0.999996 126.988" stroke="url(#paint13_linear_1548_914)" stroke-width="1.2" stroke-linecap="round" stroke-linejoin="round"/>
<path d="M148.845 1V175.842" stroke="url(#paint14_linear_1548_914)" stroke-width="1.2" stroke-linecap="round" stroke-linejoin="round"/>
<path d="M331.4 146.272L0.999996 146.272" stroke="url(#paint15_linear_1548_914)" stroke-width="1.2" stroke-linecap="round" stroke-linejoin="round"/>
<path d="M168.129 1V175.842" stroke="url(#paint16_linear_1548_914)" stroke-width="1.2" stroke-linecap="round" stroke-linejoin="round"/>
<path d="M331.4 165.557L0.999996 165.557" stroke="url(#paint17_linear_1548_914)" stroke-width="1.2" stroke-linecap="round" stroke-linejoin="round"/>
<path d="M187.413 1V175.842" stroke="url(#paint18_linear_1548_914)" stroke-width="1.2" stroke-linecap="round" stroke-linejoin="round"/>
<path d="M206.696 1V175.842" stroke="url(#paint19_linear_1548_914)" stroke-width="1.2" stroke-linecap="round" stroke-linejoin="round"/>
<path d="M225.98 1V175.842" stroke="url(#paint20_linear_1548_914)" stroke-width="1.2" stroke-linecap="round" stroke-linejoin="round"/>
<path d="M245.265 1V175.842" stroke="url(#paint21_linear_1548_914)" stroke-width="1.2" stroke-linecap="round" stroke-linejoin="round"/>
<path d="M264.548 1V175.842" stroke="url(#paint22_linear_1548_914)" stroke-width="1.2" stroke-linecap="round" stroke-linejoin="round"/>
<path d="M283.833 1V175.842" stroke="url(#paint23_linear_1548_914)" stroke-width="1.2" stroke-linecap="round" stroke-linejoin="round"/>
<path d="M303.117 1V175.842" stroke="url(#paint24_linear_1548_914)" stroke-width="1.2" stroke-linecap="round" stroke-linejoin="round"/>
<path d="M322.401 1V175.842" stroke="url(#paint25_linear_1548_914)" stroke-width="1.2" stroke-linecap="round" stroke-linejoin="round"/>
<path d="M131.5 21.3984C133 34.5984 140.5 47.7984 157.6 54.9984" stroke="#7C765F" stroke-width="0.6" stroke-linejoin="round" stroke-dasharray="1.2 2.4"/>
<path d="M94.3003 46.8984C100.6 53.3984 121.42 66.6384 154.3 67.5984" stroke="#7C765F" stroke-width="0.6" stroke-linecap="round" stroke-linejoin="round" stroke-dasharray="1.2 2.4"/>
<path d="M122.2 85.9008C127 86.0008 140.2 85.7208 154.6 83.8008" stroke="#7C765F" stroke-width="0.6" stroke-linecap="round" stroke-linejoin="round" stroke-dasharray="1.2 2.4"/>
<path d="M87.1006 124.301C96.7006 117.901 124.121 102.641 157.001 92.8008" stroke="#7C765F" stroke-width="0.6" stroke-linecap="round" stroke-linejoin="round" stroke-dasharray="1.2 2.4"/>
<path d="M125.2 150.4C128.9 140.5 142.18 116.68 165.7 100.6" stroke="#7C765F" stroke-width="0.6" stroke-linecap="round" stroke-linejoin="round" stroke-dasharray="1.2 2.4"/>
<g filter="url(#filter0_di_1548_914)">
<path d="M148.601 76.0008C148.601 57.1126 163.912 41.8008 182.801 41.8008V41.8008C201.689 41.8008 217.001 57.1126 217.001 76.0008V76.0008C217.001 94.8889 201.689 110.201 182.801 110.201V110.201C163.912 110.201 148.601 94.8889 148.601 76.0008V76.0008Z" fill="#FAFAF9"/>
<g clip-path="url(#clip0_1548_914)">
<path d="M198.536 63.7435C198.536 63.0367 197.959 62.4601 197.252 62.4415L195.82 62.4229C195.727 62.4229 192.77 62.3299 189.756 61.1023C186.576 59.8003 184.511 58.3309 184.437 58.2937L183.581 57.6613C183.116 57.3265 182.502 57.3265 182.056 57.6613L181.2 58.2751C181.182 58.2937 179.08 59.8003 175.881 61.1023C172.868 62.3299 169.892 62.4229 169.817 62.4229H168.348C167.641 62.4415 167.064 63.0181 167.064 63.7249V78.2701C167.064 81.9157 169.148 85.9891 172.793 89.4673C176.104 92.6293 179.936 94.6009 182.8 94.6009C185.664 94.6009 189.496 92.6293 192.807 89.4673C196.452 85.9891 198.536 81.9157 198.536 78.2701V63.7435ZM191.003 87.5887C188.25 90.2113 184.939 91.9969 182.8 91.9969C180.661 91.9969 177.35 90.2299 174.597 87.5887C171.473 84.6127 169.687 81.2089 169.687 78.2887V65.0269H169.836C170.133 65.0269 173.444 64.8967 176.848 63.5203C180.326 62.0881 182.614 60.4513 182.707 60.3769L182.8 60.3025L182.893 60.3769C183.172 60.5815 185.385 62.1253 188.771 63.5017C192.174 64.8781 195.485 65.0083 195.783 65.0083H195.932V78.2701C195.932 81.2089 194.127 84.5941 191.003 87.5887Z" fill="#3E3B32"/>
<path d="M188.51 70.1992L181.07 77.6392L177.927 74.5144C177.276 73.8634 176.234 73.8634 175.583 74.5144C174.932 75.1654 174.932 76.207 175.583 76.858L179.88 81.1546C180.196 81.4708 180.605 81.6382 181.052 81.6382C181.498 81.6382 181.907 81.4708 182.224 81.1546L190.835 72.5428C191.486 71.8918 191.486 70.8502 190.835 70.1992C190.203 69.5482 189.161 69.5482 188.51 70.1992Z" fill="#3E3B32"/>
</g>
</g>
<path d="M167.905 128.001V119.274H173.496V120.599H169.486V122.968H173.112V124.294H169.486V128.001H167.905ZM176.883 128.129C176.243 128.129 175.689 127.988 175.221 127.707C174.752 127.426 174.388 127.032 174.13 126.527C173.874 126.021 173.746 125.43 173.746 124.754C173.746 124.078 173.874 123.485 174.13 122.977C174.388 122.468 174.752 122.073 175.221 121.792C175.689 121.511 176.243 121.37 176.883 121.37C177.522 121.37 178.076 121.511 178.544 121.792C179.013 122.073 179.375 122.468 179.631 122.977C179.89 123.485 180.019 124.078 180.019 124.754C180.019 125.43 179.89 126.021 179.631 126.527C179.375 127.032 179.013 127.426 178.544 127.707C178.076 127.988 177.522 128.129 176.883 128.129ZM176.891 126.893C177.238 126.893 177.527 126.798 177.76 126.608C177.993 126.414 178.167 126.156 178.28 125.832C178.397 125.508 178.455 125.147 178.455 124.75C178.455 124.349 178.397 123.987 178.28 123.663C178.167 123.336 177.993 123.076 177.76 122.883C177.527 122.69 177.238 122.593 176.891 122.593C176.536 122.593 176.24 122.69 176.005 122.883C175.772 123.076 175.597 123.336 175.481 123.663C175.367 123.987 175.31 124.349 175.31 124.75C175.31 125.147 175.367 125.508 175.481 125.832C175.597 126.156 175.772 126.414 176.005 126.608C176.24 126.798 176.536 126.893 176.891 126.893ZM180.968 128.001V121.456H182.464V122.546H182.532C182.651 122.169 182.856 121.877 183.146 121.673C183.438 121.465 183.772 121.362 184.147 121.362C184.232 121.362 184.328 121.366 184.433 121.375C184.541 121.38 184.63 121.39 184.701 121.404V122.823C184.636 122.801 184.532 122.781 184.39 122.764C184.251 122.744 184.116 122.734 183.985 122.734C183.704 122.734 183.451 122.795 183.227 122.917C183.005 123.036 182.83 123.203 182.703 123.416C182.575 123.629 182.511 123.875 182.511 124.153V128.001H180.968ZM187.943 130.592C187.389 130.592 186.913 130.517 186.516 130.366C186.118 130.218 185.798 130.019 185.557 129.769C185.315 129.519 185.148 129.242 185.054 128.938L186.443 128.602C186.506 128.73 186.596 128.856 186.716 128.981C186.835 129.109 186.996 129.214 187.197 129.296C187.402 129.382 187.659 129.424 187.969 129.424C188.406 129.424 188.768 129.318 189.055 129.105C189.342 128.894 189.486 128.548 189.486 128.065V126.825H189.409C189.329 126.984 189.213 127.147 189.06 127.315C188.909 127.483 188.709 127.623 188.459 127.737C188.212 127.85 187.9 127.907 187.525 127.907C187.023 127.907 186.567 127.789 186.158 127.554C185.751 127.315 185.427 126.96 185.186 126.488C184.947 126.014 184.828 125.42 184.828 124.707C184.828 123.988 184.947 123.382 185.186 122.887C185.427 122.39 185.753 122.014 186.162 121.758C186.571 121.5 187.027 121.37 187.53 121.37C187.913 121.37 188.229 121.436 188.476 121.566C188.726 121.694 188.925 121.849 189.072 122.031C189.22 122.21 189.332 122.379 189.409 122.538H189.494V121.456H191.016V128.108C191.016 128.667 190.882 129.13 190.615 129.497C190.348 129.863 189.983 130.137 189.52 130.319C189.057 130.501 188.531 130.592 187.943 130.592ZM187.956 126.697C188.283 126.697 188.561 126.617 188.791 126.458C189.021 126.299 189.196 126.071 189.315 125.772C189.435 125.474 189.494 125.116 189.494 124.698C189.494 124.286 189.435 123.926 189.315 123.616C189.199 123.306 189.025 123.066 188.795 122.896C188.568 122.723 188.288 122.636 187.956 122.636C187.612 122.636 187.325 122.725 187.095 122.904C186.865 123.083 186.692 123.329 186.575 123.642C186.459 123.951 186.4 124.304 186.4 124.698C186.4 125.099 186.459 125.45 186.575 125.751C186.694 126.049 186.869 126.282 187.099 126.45C187.332 126.615 187.618 126.697 187.956 126.697ZM195.134 128.129C194.478 128.129 193.911 127.992 193.434 127.72C192.959 127.444 192.594 127.055 192.339 126.552C192.083 126.046 191.955 125.451 191.955 124.767C191.955 124.093 192.083 123.502 192.339 122.994C192.597 122.483 192.958 122.085 193.421 121.801C193.884 121.514 194.428 121.37 195.053 121.37C195.457 121.37 195.837 121.436 196.195 121.566C196.556 121.694 196.874 121.893 197.15 122.163C197.428 122.433 197.647 122.777 197.806 123.194C197.965 123.609 198.045 124.103 198.045 124.677V125.15H192.68V124.11H196.566C196.563 123.815 196.499 123.552 196.374 123.322C196.249 123.089 196.075 122.906 195.85 122.772C195.629 122.639 195.37 122.572 195.075 122.572C194.759 122.572 194.482 122.649 194.244 122.802C194.005 122.953 193.819 123.152 193.685 123.399C193.555 123.643 193.488 123.911 193.485 124.204V125.112C193.485 125.492 193.555 125.819 193.694 126.092C193.833 126.362 194.028 126.569 194.278 126.714C194.528 126.856 194.82 126.927 195.156 126.927C195.38 126.927 195.583 126.896 195.765 126.833C195.947 126.768 196.104 126.673 196.238 126.548C196.371 126.423 196.472 126.268 196.54 126.083L197.981 126.245C197.89 126.626 197.717 126.958 197.461 127.242C197.208 127.524 196.884 127.742 196.489 127.899C196.094 128.052 195.643 128.129 195.134 128.129Z" fill="#FAFAF9"/>
<g filter="url(#filter1_d_1548_914)">
<path d="M266.2 75.9992C266.2 65.064 275.065 56.1992 286 56.1992V56.1992C296.935 56.1992 305.8 65.064 305.8 75.9992V75.9992C305.8 86.9345 296.935 95.7992 286 95.7992V95.7992C275.065 95.7992 266.2 86.9345 266.2 75.9992V75.9992Z" fill="#0C0A09"/>
<path d="M283.223 75.2805H278.948C277.77 75.2805 276.811 74.3214 276.811 73.143V68.868C276.811 67.6895 277.77 66.7305 278.948 66.7305H283.223C284.402 66.7305 285.361 67.6895 285.361 68.868V73.143C285.361 74.3222 284.402 75.2805 283.223 75.2805ZM278.948 68.1555C278.555 68.1555 278.236 68.4754 278.236 68.868V73.143C278.236 73.5356 278.555 73.8555 278.948 73.8555H283.223C283.616 73.8555 283.936 73.5356 283.936 73.143V68.868C283.936 68.4754 283.616 68.1555 283.223 68.1555H278.948Z" fill="#9B9378"/>
<path d="M283.223 85.2551H278.948C277.77 85.2551 276.811 84.2961 276.811 83.1176V78.8426C276.811 77.6641 277.77 76.7051 278.948 76.7051H283.223C284.402 76.7051 285.361 77.6641 285.361 78.8426V83.1176C285.361 84.2968 284.402 85.2551 283.223 85.2551ZM278.948 78.1301C278.555 78.1301 278.236 78.4493 278.236 78.8426V83.1176C278.236 83.5109 278.555 83.8301 278.948 83.8301H283.223C283.616 83.8301 283.936 83.5109 283.936 83.1176V78.8426C283.936 78.4493 283.616 78.1301 283.223 78.1301H278.948Z" fill="#9B9378"/>
<path d="M293.128 75.2805H288.853C287.675 75.2805 286.716 74.3214 286.716 73.143V68.868C286.716 67.6895 287.675 66.7305 288.853 66.7305H293.128C294.307 66.7305 295.266 67.6895 295.266 68.868V73.143C295.266 74.3222 294.307 75.2805 293.128 75.2805ZM288.853 68.1555C288.46 68.1555 288.141 68.4754 288.141 68.868V73.143C288.141 73.5356 288.46 73.8555 288.853 73.8555H293.128C293.522 73.8555 293.841 73.5356 293.841 73.143V68.868C293.841 68.4754 293.522 68.1555 293.128 68.1555H288.853Z" fill="#9B9378"/>
<path d="M293.128 85.2551H288.853C287.675 85.2551 286.716 84.2961 286.716 83.1176V78.8426C286.716 77.6641 287.675 76.7051 288.853 76.7051H293.128C294.307 76.7051 295.266 77.6641 295.266 78.8426V83.1176C295.266 84.2968 294.307 85.2551 293.128 85.2551ZM288.853 78.1301C288.46 78.1301 288.141 78.4493 288.141 78.8426V83.1176C288.141 83.5109 288.46 83.8301 288.853 83.8301H293.128C293.522 83.8301 293.841 83.5109 293.841 83.1176V78.8426C293.841 78.4493 293.522 78.1301 293.128 78.1301H288.853Z" fill="#9B9378"/>
</g>
<rect x="43" y="114.398" width="47.6" height="19.2" rx="9.6" fill="#0C0A09"/>
<path d="M48.95 122.388L53.8235 129.5H55.9898L51.1157 122.388H48.95ZM51.1141 126.338L48.9473 129.5H51.1152L52.1977 127.919L51.1141 126.338ZM56.4853 118.5L52.7398 123.965L53.8235 125.547L58.6532 118.5H56.4853ZM56.8776 121.882V129.5H58.6532V119.291L56.8776 121.882Z" fill="white"/>
<path d="M69.5313 122.416L70.5425 124.2L71.5627 122.416H72.5381L71.1093 124.707L72.55 126.998H71.5746L70.5425 125.286L69.5134 126.998H68.535L69.9608 124.707L68.5529 122.416H69.5313ZM74.0415 126.998H73.0631L75.2615 120.889H76.3265L78.5249 126.998H77.5465L75.8194 121.999H75.7716L74.0415 126.998ZM74.2056 124.606H77.3794V125.381H74.2056V124.606ZM80.3288 120.889V126.998H79.4071V120.889H80.3288Z" fill="#FAFAF9"/>
<rect x="101.8" y="4.59961" width="63.6" height="19.2" rx="9.6" fill="#0C0A09"/>
<g clip-path="url(#clip1_1548_914)">
<path fill-rule="evenodd" clip-rule="evenodd" d="M116.176 13.2013C116.301 12.8311 116.344 12.4383 116.303 12.0499C116.261 11.6614 116.137 11.2865 115.937 10.9508C115.328 9.9058 114.106 9.3678 112.912 9.6208C112.647 9.328 112.324 9.09451 111.963 8.93568C111.602 8.77685 111.211 8.69629 110.816 8.6993C109.596 8.6968 108.513 9.4723 108.137 10.6183C107.751 10.6956 107.386 10.854 107.066 11.0831C106.746 11.3123 106.478 11.6068 106.281 11.9473C105.982 12.4544 105.855 13.0441 105.917 13.6294C105.979 14.2146 106.228 14.7643 106.626 15.1973C106.501 15.5675 106.458 15.9604 106.499 16.3489C106.54 16.7375 106.665 17.1125 106.865 17.4483C107.473 18.4933 108.696 19.0308 109.89 18.7783C110.154 19.071 110.478 19.3045 110.839 19.4632C111.2 19.622 111.59 19.7024 111.985 19.6993C113.206 19.7023 114.29 18.9263 114.665 17.7793C115.051 17.7021 115.417 17.5435 115.737 17.3142C116.057 17.0849 116.325 16.7901 116.523 16.4493C116.821 15.9422 116.948 15.3527 116.886 14.7679C116.823 14.183 116.575 13.6336 116.176 13.2008L116.176 13.2013ZM111.985 18.9803C111.498 18.9815 111.025 18.8128 110.648 18.5033C110.665 18.4943 110.694 18.4783 110.714 18.4663L112.934 17.2013C112.989 17.1704 113.035 17.1252 113.067 17.0704C113.099 17.0156 113.116 16.9532 113.116 16.8898V13.8018L114.054 14.3363C114.064 14.3413 114.071 14.3508 114.072 14.3613V16.9188C114.071 18.0558 113.137 18.9778 111.985 18.9803ZM107.497 17.0893C107.252 16.6731 107.164 16.1833 107.248 15.7078C107.264 15.7178 107.293 15.7353 107.313 15.7468L109.533 17.0118C109.646 17.0768 109.785 17.0768 109.898 17.0118L112.608 15.4678V16.5368C112.608 16.5423 112.607 16.5477 112.605 16.5527C112.603 16.5577 112.599 16.562 112.595 16.5653L110.351 17.8433C109.351 18.4113 108.075 18.0733 107.497 17.0883L107.497 17.0893ZM106.912 12.3073C107.158 11.8883 107.543 11.5687 108 11.4043L107.999 11.4798V14.0098C107.998 14.0733 108.015 14.1358 108.047 14.1906C108.079 14.2455 108.125 14.2908 108.181 14.3218L110.891 15.8653L109.953 16.4003C109.948 16.4033 109.943 16.4051 109.937 16.4055C109.932 16.4059 109.926 16.405 109.921 16.4028L107.677 15.1233C106.679 14.5533 106.337 13.2943 106.912 12.3083L106.912 12.3073ZM114.621 14.0773L111.911 12.5333L112.849 11.9993C112.853 11.9962 112.859 11.9944 112.864 11.9938C112.87 11.9933 112.875 11.9942 112.88 11.9963L115.125 13.2748C116.124 13.8448 116.466 15.1058 115.889 16.0913C115.643 16.51 115.259 16.8296 114.802 16.9948V14.3893C114.803 14.3259 114.786 14.2636 114.754 14.2088C114.722 14.154 114.676 14.1088 114.621 14.0778V14.0773ZM115.554 12.6908C115.532 12.6775 115.51 12.6645 115.488 12.6518L113.268 11.3868C113.213 11.3549 113.15 11.3381 113.086 11.3381C113.022 11.3381 112.959 11.3549 112.904 11.3868L110.194 12.9308V11.8618C110.194 11.8563 110.195 11.8509 110.197 11.8459C110.199 11.8409 110.203 11.8366 110.207 11.8333L112.451 10.5558C113.451 9.9873 114.728 10.3258 115.304 11.3123C115.548 11.7288 115.637 12.2168 115.554 12.6908ZM109.684 14.5958L108.745 14.0618C108.74 14.0594 108.736 14.0558 108.733 14.0514C108.73 14.0469 108.728 14.0417 108.727 14.0363V11.4788C108.728 10.3403 109.664 9.4178 110.818 9.4188C111.306 9.4188 111.778 9.5878 112.153 9.8958C112.136 9.9048 112.107 9.9208 112.088 9.9323L109.868 11.1973C109.812 11.2282 109.766 11.2733 109.734 11.3281C109.702 11.3829 109.685 11.4453 109.685 11.5088L109.684 14.5953V14.5958ZM110.194 13.5118L111.401 12.8243L112.608 13.5118V14.8868L111.401 15.5743L110.193 14.8868V13.5118H110.194Z" fill="white"/>
</g>
<path d="M132.042 14.1447C132.042 14.7969 131.922 15.3577 131.684 15.8271C131.445 16.2944 131.118 16.6543 130.702 16.9069C130.289 17.1575 129.819 17.2827 129.292 17.2827C128.763 17.2827 128.29 17.1575 127.875 16.9069C127.461 16.6543 127.135 16.2934 126.896 15.8241C126.658 15.3548 126.538 14.795 126.538 14.1447C126.538 13.4924 126.658 12.9326 126.896 12.4653C127.135 11.996 127.461 11.636 127.875 11.3854C128.29 11.1329 128.763 11.0066 129.292 11.0066C129.819 11.0066 130.289 11.1329 130.702 11.3854C131.118 11.636 131.445 11.996 131.684 12.4653C131.922 12.9326 132.042 13.4924 132.042 14.1447ZM131.129 14.1447C131.129 13.6475 131.048 13.2289 130.887 12.8888C130.728 12.5468 130.51 12.2883 130.231 12.1133C129.955 11.9363 129.642 11.8478 129.292 11.8478C128.94 11.8478 128.625 11.9363 128.349 12.1133C128.072 12.2883 127.854 12.5468 127.693 12.8888C127.534 13.2289 127.454 13.6475 127.454 14.1447C127.454 14.6418 127.534 15.0614 127.693 15.4035C127.854 15.7435 128.072 16.0021 128.349 16.179C128.625 16.354 128.94 16.4415 129.292 16.4415C129.642 16.4415 129.955 16.354 130.231 16.179C130.51 16.0021 130.728 15.7435 130.887 15.4035C131.048 15.0614 131.129 14.6418 131.129 14.1447ZM133.119 18.9174V12.6174H133.99V13.3602H134.065C134.117 13.2647 134.191 13.1543 134.289 13.029C134.386 12.9038 134.521 12.7944 134.694 12.7009C134.867 12.6055 135.096 12.5577 135.38 12.5577C135.75 12.5577 136.08 12.6512 136.371 12.8381C136.661 13.0251 136.889 13.2945 137.054 13.6465C137.221 13.9985 137.304 14.4221 137.304 14.9173C137.304 15.4124 137.222 15.837 137.057 16.191C136.892 16.543 136.665 16.8144 136.377 17.0053C136.088 17.1942 135.759 17.2887 135.389 17.2887C135.111 17.2887 134.883 17.242 134.706 17.1485C134.531 17.055 134.394 16.9457 134.295 16.8204C134.195 16.6951 134.119 16.5837 134.065 16.4863H134.011V18.9174H133.119ZM133.993 14.9083C133.993 15.2305 134.04 15.5129 134.134 15.7555C134.227 15.9981 134.362 16.188 134.539 16.3252C134.716 16.4604 134.933 16.5281 135.19 16.5281C135.456 16.5281 135.679 16.4575 135.858 16.3163C136.037 16.1731 136.172 15.9792 136.263 15.7346C136.357 15.49 136.404 15.2146 136.404 14.9083C136.404 14.606 136.358 14.3346 136.266 14.094C136.177 13.8533 136.042 13.6634 135.861 13.5242C135.682 13.385 135.458 13.3154 135.19 13.3154C134.931 13.3154 134.712 13.382 134.533 13.5153C134.356 13.6485 134.222 13.8344 134.131 14.0731C134.039 14.3117 133.993 14.5901 133.993 14.9083ZM140.278 17.2917C139.827 17.2917 139.438 17.1952 139.112 17.0023C138.788 16.8075 138.537 16.534 138.36 16.182C138.185 15.8281 138.098 15.4134 138.098 14.9381C138.098 14.4688 138.185 14.0552 138.36 13.6972C138.537 13.3393 138.784 13.0599 139.1 12.859C139.418 12.6582 139.79 12.5577 140.216 12.5577C140.474 12.5577 140.725 12.6005 140.968 12.686C141.21 12.7715 141.428 12.9058 141.621 13.0887C141.814 13.2717 141.966 13.5093 142.077 13.8016C142.189 14.092 142.244 14.445 142.244 14.8606V15.1768H138.602V14.5086H141.37C141.37 14.2739 141.323 14.0661 141.227 13.8852C141.132 13.7022 140.997 13.558 140.824 13.4526C140.653 13.3472 140.452 13.2945 140.222 13.2945C139.971 13.2945 139.752 13.3562 139.566 13.4795C139.381 13.6008 139.237 13.7599 139.136 13.9567C139.037 14.1516 138.987 14.3634 138.987 14.5921V15.1141C138.987 15.4204 139.041 15.6809 139.148 15.8957C139.257 16.1104 139.409 16.2745 139.604 16.3879C139.799 16.4992 140.027 16.5549 140.287 16.5549C140.456 16.5549 140.611 16.531 140.75 16.4833C140.889 16.4336 141.009 16.36 141.111 16.2626C141.212 16.1651 141.29 16.0448 141.343 15.9016L142.188 16.0538C142.12 16.3023 141.999 16.5201 141.824 16.707C141.651 16.892 141.433 17.0362 141.17 17.1396C140.91 17.241 140.613 17.2917 140.278 17.2917ZM144.126 14.4788V17.1992H143.234V12.6174H144.09V13.3631H144.147C144.252 13.1205 144.417 12.9256 144.642 12.7785C144.869 12.6313 145.154 12.5577 145.498 12.5577C145.81 12.5577 146.084 12.6234 146.318 12.7546C146.553 12.8839 146.735 13.0768 146.864 13.3333C146.993 13.5898 147.058 13.907 147.058 14.2849V17.1992H146.166V14.3923C146.166 14.0602 146.08 13.8006 145.907 13.6137C145.734 13.4248 145.496 13.3303 145.194 13.3303C144.987 13.3303 144.803 13.3751 144.642 13.4646C144.483 13.554 144.356 13.6853 144.263 13.8583C144.171 14.0293 144.126 14.2362 144.126 14.4788ZM148.842 17.1992H147.863L150.062 11.0901H151.127L153.325 17.1992H152.347L150.62 12.1998H150.572L148.842 17.1992ZM149.006 14.8069H152.18V15.5825H149.006V14.8069ZM155.129 11.0901V17.1992H154.207V11.0901H155.129Z" fill="#FAFAF9"/>
<rect x="85" y="147.398" width="73.6" height="19.2" rx="9.6" fill="#0C0A09"/>
<g clip-path="url(#clip2_1548_914)">
<path fill-rule="evenodd" clip-rule="evenodd" d="M95.5136 152.76H97.3151L100.6 161H98.7986L95.5136 152.76ZM91.8846 152.76H93.7681L97.0531 161H95.2161L94.5446 159.269H91.1086L90.4366 160.999H88.6001L91.8851 152.761L91.8846 152.76ZM93.9506 157.739L92.8266 154.843L91.7026 157.74H93.9501L93.9506 157.739Z" fill="white"/>
</g>
<path d="M110.845 159.998H109.867L112.065 153.889H113.13L115.328 159.998H114.35L112.623 154.999H112.575L110.845 159.998ZM111.009 157.606H114.183V158.381H111.009V157.606ZM117.031 157.278V159.998H116.139V155.416H116.995V156.162H117.052C117.157 155.919 117.322 155.724 117.547 155.577C117.774 155.43 118.059 155.357 118.403 155.357C118.715 155.357 118.989 155.422 119.223 155.553C119.458 155.683 119.64 155.876 119.769 156.132C119.899 156.389 119.963 156.706 119.963 157.084V159.998H119.071V157.191C119.071 156.859 118.985 156.599 118.812 156.413C118.639 156.224 118.401 156.129 118.099 156.129C117.892 156.129 117.708 156.174 117.547 156.263C117.388 156.353 117.262 156.484 117.168 156.657C117.077 156.828 117.031 157.035 117.031 157.278ZM123.298 155.416V156.132H120.795V155.416H123.298ZM121.467 154.319H122.358V158.653C122.358 158.826 122.384 158.956 122.436 159.044C122.488 159.129 122.554 159.188 122.636 159.219C122.719 159.249 122.81 159.264 122.907 159.264C122.979 159.264 123.042 159.259 123.095 159.249C123.149 159.239 123.191 159.231 123.221 159.225L123.382 159.962C123.33 159.982 123.256 160.002 123.161 160.022C123.065 160.044 122.946 160.056 122.803 160.058C122.568 160.062 122.35 160.02 122.147 159.932C121.944 159.845 121.78 159.71 121.655 159.527C121.529 159.344 121.467 159.114 121.467 158.838V154.319ZM125.275 157.278V159.998H124.383V153.889H125.263V156.162H125.32C125.427 155.915 125.591 155.719 125.812 155.574C126.033 155.429 126.321 155.357 126.677 155.357C126.991 155.357 127.266 155.421 127.5 155.55C127.737 155.68 127.92 155.873 128.049 156.129C128.18 156.384 128.246 156.702 128.246 157.084V159.998H127.354V157.191C127.354 156.855 127.268 156.594 127.095 156.41C126.922 156.223 126.681 156.129 126.373 156.129C126.162 156.129 125.973 156.174 125.806 156.263C125.641 156.353 125.511 156.484 125.415 156.657C125.322 156.828 125.275 157.035 125.275 157.278ZM129.436 159.998V155.416H130.298V156.144H130.346C130.43 155.897 130.577 155.704 130.788 155.562C131 155.419 131.241 155.348 131.509 155.348C131.565 155.348 131.631 155.35 131.706 155.354C131.784 155.358 131.845 155.363 131.888 155.369V156.222C131.852 156.212 131.789 156.201 131.697 156.189C131.606 156.175 131.514 156.168 131.423 156.168C131.212 156.168 131.024 156.213 130.859 156.302C130.696 156.39 130.567 156.512 130.471 156.669C130.376 156.824 130.328 157.001 130.328 157.2V159.998H129.436ZM134.426 160.091C133.996 160.091 133.622 159.992 133.301 159.795C132.981 159.598 132.733 159.323 132.556 158.969C132.379 158.615 132.29 158.201 132.29 157.728C132.29 157.253 132.379 156.837 132.556 156.481C132.733 156.125 132.981 155.849 133.301 155.652C133.622 155.455 133.996 155.357 134.426 155.357C134.856 155.357 135.23 155.455 135.551 155.652C135.871 155.849 136.119 156.125 136.296 156.481C136.473 156.837 136.562 157.253 136.562 157.728C136.562 158.201 136.473 158.615 136.296 158.969C136.119 159.323 135.871 159.598 135.551 159.795C135.23 159.992 134.856 160.091 134.426 160.091ZM134.429 159.342C134.707 159.342 134.938 159.268 135.121 159.121C135.304 158.974 135.439 158.778 135.527 158.533C135.616 158.289 135.661 158.019 135.661 157.725C135.661 157.433 135.616 157.164 135.527 156.92C135.439 156.673 135.304 156.475 135.121 156.326C134.938 156.177 134.707 156.102 134.429 156.102C134.149 156.102 133.916 156.177 133.731 156.326C133.548 156.475 133.412 156.673 133.322 156.92C133.235 157.164 133.191 157.433 133.191 157.725C133.191 158.019 133.235 158.289 133.322 158.533C133.412 158.778 133.548 158.974 133.731 159.121C133.916 159.268 134.149 159.342 134.429 159.342ZM137.557 161.716V155.416H138.428V156.159H138.503C138.555 156.064 138.629 155.953 138.727 155.828C138.824 155.703 138.959 155.593 139.132 155.5C139.305 155.404 139.534 155.357 139.818 155.357C140.188 155.357 140.518 155.45 140.809 155.637C141.099 155.824 141.327 156.093 141.492 156.445C141.659 156.797 141.742 157.221 141.742 157.716C141.742 158.211 141.66 158.636 141.495 158.99C141.33 159.342 141.103 159.613 140.815 159.804C140.526 159.993 140.197 160.088 139.827 160.088C139.549 160.088 139.321 160.041 139.144 159.947C138.969 159.854 138.832 159.744 138.733 159.619C138.633 159.494 138.557 159.383 138.503 159.285H138.449V161.716H137.557ZM138.431 157.707C138.431 158.029 138.478 158.312 138.572 158.554C138.665 158.797 138.8 158.987 138.977 159.124C139.154 159.259 139.371 159.327 139.628 159.327C139.894 159.327 140.117 159.256 140.296 159.115C140.475 158.972 140.61 158.778 140.701 158.533C140.795 158.289 140.842 158.013 140.842 157.707C140.842 157.405 140.796 157.133 140.704 156.893C140.615 156.652 140.48 156.462 140.299 156.323C140.12 156.184 139.896 156.114 139.628 156.114C139.369 156.114 139.15 156.181 138.971 156.314C138.794 156.447 138.66 156.633 138.569 156.872C138.477 157.111 138.431 157.389 138.431 157.707ZM142.742 159.998V155.416H143.634V159.998H142.742ZM143.192 154.709C143.037 154.709 142.904 154.658 142.792 154.554C142.683 154.449 142.628 154.323 142.628 154.178C142.628 154.031 142.683 153.906 142.792 153.802C142.904 153.697 143.037 153.644 143.192 153.644C143.347 153.644 143.48 153.697 143.589 153.802C143.7 153.906 143.756 154.031 143.756 154.178C143.756 154.323 143.7 154.449 143.589 154.554C143.48 154.658 143.347 154.709 143.192 154.709ZM146.764 160.091C146.32 160.091 145.938 159.99 145.618 159.789C145.3 159.586 145.055 159.307 144.884 158.951C144.713 158.595 144.628 158.187 144.628 157.728C144.628 157.263 144.715 156.852 144.89 156.496C145.065 156.138 145.312 155.859 145.63 155.658C145.948 155.457 146.323 155.357 146.755 155.357C147.103 155.357 147.413 155.421 147.685 155.55C147.958 155.678 148.177 155.857 148.344 156.087C148.514 156.318 148.614 156.588 148.646 156.896H147.778C147.73 156.681 147.621 156.496 147.45 156.341C147.281 156.186 147.054 156.108 146.769 156.108C146.521 156.108 146.303 156.174 146.116 156.305C145.931 156.434 145.787 156.619 145.684 156.86C145.58 157.099 145.529 157.381 145.529 157.707C145.529 158.041 145.579 158.33 145.681 158.572C145.782 158.815 145.925 159.003 146.11 159.136C146.297 159.269 146.517 159.336 146.769 159.336C146.939 159.336 147.092 159.305 147.229 159.243C147.368 159.18 147.484 159.089 147.578 158.972C147.673 158.855 147.74 158.713 147.778 158.548H148.646C148.614 158.845 148.518 159.109 148.356 159.342C148.195 159.574 147.98 159.757 147.709 159.891C147.441 160.024 147.125 160.091 146.764 160.091Z" fill="#FAFAF9"/>
<rect x="35.2002" y="37.5996" width="61.6" height="19.2" rx="9.6" fill="#0C0A09"/>
<g clip-path="url(#clip3_1548_914)">
<path d="M44.8003 53.1992C44.5716 51.6897 43.8658 50.2929 42.7862 49.2133C41.7066 48.1337 40.3099 47.4279 38.8003 47.1992C40.3099 46.9705 41.7066 46.2647 42.7862 45.1851C43.8658 44.1055 44.5716 42.7088 44.8003 41.1992C45.0291 42.7087 45.7349 44.1055 46.8145 45.1851C47.894 46.2646 49.2908 46.9704 50.8003 47.1992C49.2908 47.428 47.894 48.1338 46.8145 49.2134C45.7349 50.293 45.0291 51.6897 44.8003 53.1992Z" fill="url(#paint26_linear_1548_914)"/>
</g>
<path d="M64.1561 46.0201C64.0985 45.8391 64.0209 45.6771 63.9235 45.5339C63.828 45.3887 63.7137 45.2654 63.5804 45.164C63.4472 45.0606 63.295 44.982 63.124 44.9283C62.955 44.8746 62.7691 44.8478 62.5662 44.8478C62.2222 44.8478 61.9119 44.9363 61.6355 45.1133C61.3591 45.2903 61.1404 45.5498 60.9793 45.8918C60.8202 46.2319 60.7406 46.6485 60.7406 47.1417C60.7406 47.6369 60.8212 48.0555 60.9823 48.3975C61.1433 48.7396 61.3641 48.9991 61.6445 49.1761C61.9249 49.3531 62.2441 49.4415 62.602 49.4415C62.9341 49.4415 63.2235 49.3739 63.47 49.2387C63.7186 49.1035 63.9105 48.9126 64.0458 48.666C64.183 48.4174 64.2516 48.1251 64.2516 47.789L64.4902 47.8337H62.7422V47.0731H65.1435V47.7681C65.1435 48.2812 65.0341 48.7266 64.8154 49.1045C64.5986 49.4803 64.2983 49.7707 63.9145 49.9755C63.5327 50.1803 63.0952 50.2827 62.602 50.2827C62.0492 50.2827 61.5639 50.1555 61.1463 49.9009C60.7307 49.6464 60.4066 49.2854 60.1739 48.8181C59.9412 48.3488 59.8249 47.792 59.8249 47.1477C59.8249 46.6604 59.8925 46.2229 60.0277 45.8352C60.1629 45.4474 60.3529 45.1183 60.5975 44.8478C60.8441 44.5754 61.1334 44.3675 61.4655 44.2244C61.7996 44.0792 62.1645 44.0066 62.5602 44.0066C62.8904 44.0066 63.1976 44.0553 63.482 44.1528C63.7683 44.2502 64.0229 44.3884 64.2456 44.5674C64.4703 44.7464 64.6563 44.9592 64.8034 45.2058C64.9506 45.4504 65.05 45.7218 65.1017 46.0201H64.1561ZM68.2167 50.2917C67.7653 50.2917 67.3765 50.1952 67.0503 50.0023C66.7262 49.8075 66.4756 49.534 66.2986 49.182C66.1236 48.8281 66.0361 48.4134 66.0361 47.9381C66.0361 47.4688 66.1236 47.0552 66.2986 46.6972C66.4756 46.3393 66.7222 46.0599 67.0384 45.859C67.3566 45.6582 67.7285 45.5577 68.154 45.5577C68.4126 45.5577 68.6631 45.6005 68.9057 45.686C69.1483 45.7715 69.3661 45.9058 69.559 46.0887C69.7519 46.2717 69.904 46.5093 70.0154 46.8016C70.1268 47.092 70.1824 47.445 70.1824 47.8606V48.1768H66.5403V47.5086H69.3084C69.3084 47.2739 69.2607 47.0661 69.1653 46.8852C69.0698 46.7022 68.9356 46.558 68.7626 46.4526C68.5915 46.3472 68.3907 46.2945 68.16 46.2945C67.9094 46.2945 67.6907 46.3562 67.5037 46.4795C67.3188 46.6008 67.1756 46.7599 67.0742 46.9567C66.9748 47.1516 66.9251 47.3634 66.9251 47.5921V48.1141C66.9251 48.4204 66.9787 48.6809 67.0861 48.8957C67.1955 49.1104 67.3476 49.2745 67.5425 49.3879C67.7374 49.4992 67.9651 49.5549 68.2256 49.5549C68.3947 49.5549 68.5488 49.531 68.688 49.4833C68.8272 49.4336 68.9475 49.36 69.0489 49.2626C69.1503 49.1651 69.2279 49.0448 69.2816 48.9016L70.1258 49.0538C70.0581 49.3023 69.9368 49.5201 69.7618 49.707C69.5888 49.892 69.3711 50.0362 69.1086 50.1396C68.8481 50.241 68.5508 50.2917 68.2167 50.2917ZM71.172 50.1992V45.6174H72.0281V46.3631H72.0848C72.1803 46.1106 72.3364 45.9137 72.5531 45.7725C72.7699 45.6293 73.0294 45.5577 73.3317 45.5577C73.6379 45.5577 73.8945 45.6293 74.1013 45.7725C74.3101 45.9157 74.4642 46.1126 74.5637 46.3631H74.6114C74.7208 46.1185 74.8948 45.9237 75.1334 45.7785C75.372 45.6313 75.6564 45.5577 75.9865 45.5577C76.4021 45.5577 76.7412 45.688 77.0037 45.9485C77.2682 46.209 77.4004 46.6018 77.4004 47.1268V50.1992H76.5085V47.2103C76.5085 46.9001 76.424 46.6754 76.255 46.5362C76.086 46.3969 75.8841 46.3273 75.6494 46.3273C75.3591 46.3273 75.1334 46.4168 74.9723 46.5958C74.8112 46.7728 74.7307 47.0005 74.7307 47.2789V50.1992H73.8418V47.1536C73.8418 46.905 73.7642 46.7052 73.6091 46.554C73.454 46.4029 73.2521 46.3273 73.0036 46.3273C72.8345 46.3273 72.6784 46.3721 72.5352 46.4616C72.3941 46.5491 72.2797 46.6714 72.1922 46.8285C72.1067 46.9856 72.0639 47.1675 72.0639 47.3744V50.1992H71.172ZM78.5959 50.1992V45.6174H79.4878V50.1992H78.5959ZM79.0463 44.9104C78.8912 44.9104 78.7579 44.8587 78.6466 44.7553C78.5372 44.6499 78.4825 44.5246 78.4825 44.3795C78.4825 44.2323 78.5372 44.107 78.6466 44.0036C78.7579 43.8982 78.8912 43.8455 79.0463 43.8455C79.2014 43.8455 79.3336 43.8982 79.443 44.0036C79.5544 44.107 79.6101 44.2323 79.6101 44.3795C79.6101 44.5246 79.5544 44.6499 79.443 44.7553C79.3336 44.8587 79.2014 44.9104 79.0463 44.9104ZM81.5796 47.4788V50.1992H80.6877V45.6174H81.5438V46.3631H81.6004C81.7058 46.1205 81.8709 45.9256 82.0956 45.7785C82.3223 45.6313 82.6077 45.5577 82.9517 45.5577C83.2639 45.5577 83.5374 45.6234 83.772 45.7546C84.0067 45.8839 84.1887 46.0768 84.3179 46.3333C84.4472 46.5898 84.5118 46.907 84.5118 47.2849V50.1992H83.6199V47.3923C83.6199 47.0602 83.5334 46.8006 83.3604 46.6137C83.1874 46.4248 82.9497 46.3303 82.6475 46.3303C82.4406 46.3303 82.2567 46.3751 82.0956 46.4646C81.9365 46.554 81.8102 46.6853 81.7168 46.8583C81.6253 47.0293 81.5796 47.2362 81.5796 47.4788ZM85.708 50.1992V45.6174H86.5999V50.1992H85.708ZM86.1584 44.9104C86.0033 44.9104 85.87 44.8587 85.7587 44.7553C85.6493 44.6499 85.5946 44.5246 85.5946 44.3795C85.5946 44.2323 85.6493 44.107 85.7587 44.0036C85.87 43.8982 86.0033 43.8455 86.1584 43.8455C86.3135 43.8455 86.4458 43.8982 86.5551 44.0036C86.6665 44.107 86.7222 44.2323 86.7222 44.3795C86.7222 44.5246 86.6665 44.6499 86.5551 44.7553C86.4458 44.8587 86.3135 44.9104 86.1584 44.9104Z" fill="#FAFAF9"/>
<rect x="54.4004" y="76" width="70.6" height="19.2" rx="9.6" fill="#0C0A09"/>
<path opacity="0.2" fill-rule="evenodd" clip-rule="evenodd" d="M66.693 85.2166C67.305 85.2166 67.8919 84.9735 68.3246 84.5407C68.7574 84.108 69.0005 83.521 69.0005 82.9091C69.0005 82.2971 68.7574 81.7102 68.3246 81.2774C67.8919 80.8447 67.305 80.6016 66.693 80.6016C66.081 80.6016 65.4941 80.8447 65.0613 81.2774C64.6286 81.7102 64.3855 82.2971 64.3855 82.9091C64.3855 83.521 64.6286 84.108 65.0613 84.5407C65.4941 84.9735 66.081 85.2166 66.693 85.2166ZM66.693 90.6016C67.305 90.6016 67.8919 90.3585 68.3246 89.9257C68.7574 89.493 69.0005 88.9061 69.0005 88.2941C69.0005 87.6821 68.7574 87.0952 68.3246 86.6624C67.8919 86.2297 67.305 85.9866 66.693 85.9866C66.081 85.9866 65.4941 86.2297 65.0613 86.6624C64.6286 87.0952 64.3855 87.6821 64.3855 88.2941C64.3855 88.9061 64.6286 89.493 65.0613 89.9257C65.4941 90.3585 66.081 90.6016 66.693 90.6016ZM61.308 90.6016C61.92 90.6016 62.5069 90.3585 62.9396 89.9257C63.3724 89.493 63.6155 88.9061 63.6155 88.2941C63.6155 87.6821 63.3724 87.0952 62.9396 86.6624C62.5069 86.2297 61.92 85.9866 61.308 85.9866C60.696 85.9866 60.1091 86.2297 59.6763 86.6624C59.2436 87.0952 59.0005 87.6821 59.0005 88.2941C59.0005 88.9061 59.2436 89.493 59.6763 89.9257C60.1091 90.3585 60.696 90.6016 61.308 90.6016Z" fill="black"/>
<path d="M61.308 85.2166C62.5824 85.2166 63.6155 84.1835 63.6155 82.9091C63.6155 81.6347 62.5824 80.6016 61.308 80.6016C60.0336 80.6016 59.0005 81.6347 59.0005 82.9091C59.0005 84.1835 60.0336 85.2166 61.308 85.2166Z" fill="#0F6FFF"/>
<path d="M79.3566 83.284V82.4905H84.0846V83.284H82.1785V88.5996H81.2597V83.284H79.3566ZM86.3233 88.6921C85.8937 88.6921 85.5189 88.5936 85.1987 88.3968C84.8786 88.1999 84.63 87.9245 84.453 87.5705C84.276 87.2165 84.1875 86.8029 84.1875 86.3296C84.1875 85.8543 84.276 85.4387 84.453 85.0827C84.63 84.7267 84.8786 84.4503 85.1987 84.2534C85.5189 84.0566 85.8937 83.9581 86.3233 83.9581C86.7528 83.9581 87.1277 84.0566 87.4479 84.2534C87.768 84.4503 88.0166 84.7267 88.1936 85.0827C88.3706 85.4387 88.4591 85.8543 88.4591 86.3296C88.4591 86.8029 88.3706 87.2165 88.1936 87.5705C88.0166 87.9245 87.768 88.1999 87.4479 88.3968C87.1277 88.5936 86.7528 88.6921 86.3233 88.6921ZM86.3263 87.9434C86.6047 87.9434 86.8354 87.8698 87.0183 87.7226C87.2013 87.5755 87.3365 87.3796 87.424 87.135C87.5135 86.8904 87.5582 86.6209 87.5582 86.3266C87.5582 86.0343 87.5135 85.7658 87.424 85.5212C87.3365 85.2746 87.2013 85.0767 87.0183 84.9276C86.8354 84.7784 86.6047 84.7039 86.3263 84.7039C86.0459 84.7039 85.8132 84.7784 85.6283 84.9276C85.4453 85.0767 85.3091 85.2746 85.2196 85.5212C85.1321 85.7658 85.0884 86.0343 85.0884 86.3266C85.0884 86.6209 85.1321 86.8904 85.2196 87.135C85.3091 87.3796 85.4453 87.5755 85.6283 87.7226C85.8132 87.8698 86.0459 87.9434 86.3263 87.9434ZM91.3757 90.4132C91.0118 90.4132 90.6985 90.3655 90.436 90.2701C90.1755 90.1746 89.9627 90.0483 89.7977 89.8912C89.6326 89.7341 89.5093 89.5621 89.4278 89.3752L90.1944 89.059C90.2481 89.1465 90.3197 89.239 90.4092 89.3364C90.5007 89.4358 90.624 89.5203 90.7791 89.59C90.9362 89.6596 91.138 89.6944 91.3846 89.6944C91.7227 89.6944 92.0021 89.6118 92.2228 89.4468C92.4436 89.2837 92.5539 89.0232 92.5539 88.6652V87.7644H92.4973C92.4436 87.8618 92.366 87.9702 92.2646 88.0895C92.1652 88.2088 92.0279 88.3123 91.8529 88.3998C91.6779 88.4873 91.4502 88.531 91.1699 88.531C90.8079 88.531 90.4818 88.4465 90.1914 88.2775C89.9031 88.1064 89.6744 87.8549 89.5054 87.5228C89.3383 87.1887 89.2548 86.778 89.2548 86.2908C89.2548 85.8036 89.3373 85.386 89.5024 85.038C89.6694 84.6899 89.8981 84.4235 90.1885 84.2385C90.4788 84.0516 90.8079 83.9581 91.1758 83.9581C91.4602 83.9581 91.6899 84.0059 91.8649 84.1013C92.0399 84.1948 92.1761 84.3042 92.2735 84.4294C92.373 84.5547 92.4495 84.6651 92.5032 84.7605H92.5689V84.0178H93.4429V88.701C93.4429 89.0948 93.3514 89.4179 93.1684 89.6705C92.9855 89.923 92.7379 90.11 92.4257 90.2313C92.1154 90.3526 91.7654 90.4132 91.3757 90.4132ZM91.3667 87.7912C91.6233 87.7912 91.84 87.7316 92.017 87.6123C92.196 87.4909 92.3312 87.3179 92.4227 87.0932C92.5162 86.8665 92.5629 86.5951 92.5629 86.2789C92.5629 85.9706 92.5172 85.6992 92.4257 85.4645C92.3342 85.2299 92.2 85.0469 92.023 84.9157C91.846 84.7824 91.6272 84.7158 91.3667 84.7158C91.0983 84.7158 90.8745 84.7854 90.6956 84.9246C90.5166 85.0618 90.3814 85.2488 90.2899 85.4854C90.2004 85.7221 90.1556 85.9865 90.1556 86.2789C90.1556 86.5792 90.2014 86.8426 90.2929 87.0694C90.3843 87.2961 90.5196 87.473 90.6985 87.6003C90.8795 87.7276 91.1022 87.7912 91.3667 87.7912ZM96.6137 88.6921C96.1623 88.6921 95.7735 88.5956 95.4474 88.4027C95.1233 88.2078 94.8727 87.9344 94.6957 87.5824C94.5207 87.2284 94.4332 86.8138 94.4332 86.3385C94.4332 85.8692 94.5207 85.4556 94.6957 85.0976C94.8727 84.7397 95.1193 84.4603 95.4355 84.2594C95.7537 84.0586 96.1255 83.9581 96.5511 83.9581C96.8096 83.9581 97.0602 84.0009 97.3028 84.0864C97.5454 84.1719 97.7632 84.3061 97.9561 84.4891C98.149 84.6721 98.3011 84.9097 98.4125 85.202C98.5238 85.4924 98.5795 85.8453 98.5795 86.261V86.5772H94.9373V85.909H97.7055C97.7055 85.6743 97.6578 85.4665 97.5623 85.2855C97.4669 85.1026 97.3326 84.9584 97.1596 84.853C96.9886 84.7476 96.7877 84.6949 96.5571 84.6949C96.3065 84.6949 96.0877 84.7566 95.9008 84.8799C95.7159 85.0012 95.5727 85.1603 95.4713 85.3571C95.3718 85.552 95.3221 85.7638 95.3221 85.9925V86.5145C95.3221 86.8208 95.3758 87.0813 95.4832 87.2961C95.5926 87.5108 95.7447 87.6749 95.9396 87.7882C96.1345 87.8996 96.3622 87.9553 96.6227 87.9553C96.7917 87.9553 96.9458 87.9314 97.085 87.8837C97.2243 87.834 97.3446 87.7604 97.446 87.663C97.5474 87.5655 97.625 87.4452 97.6787 87.302L98.5228 87.4542C98.4552 87.7027 98.3339 87.9205 98.1589 88.1074C97.9859 88.2924 97.7681 88.4365 97.5056 88.54C97.2451 88.6414 96.9478 88.6921 96.6137 88.6921ZM101.708 84.0178V84.7337H99.2052V84.0178H101.708ZM99.8764 82.9201H100.768V87.2543C100.768 87.4273 100.794 87.5576 100.846 87.6451C100.898 87.7306 100.964 87.7892 101.046 87.8211C101.129 87.8509 101.22 87.8658 101.317 87.8658C101.389 87.8658 101.451 87.8608 101.505 87.8509C101.559 87.8409 101.6 87.833 101.63 87.827L101.791 88.5638C101.74 88.5837 101.666 88.6036 101.571 88.6235C101.475 88.6453 101.356 88.6573 101.213 88.6593C100.978 88.6632 100.759 88.6215 100.556 88.534C100.354 88.4465 100.19 88.3113 100.064 88.1283C99.939 87.9453 99.8764 87.7157 99.8764 87.4392V82.9201ZM103.685 85.8792V88.5996H102.793V82.4905H103.673V84.7635H103.73C103.837 84.5169 104.001 84.3211 104.222 84.1759C104.443 84.0307 104.731 83.9581 105.087 83.9581C105.401 83.9581 105.675 84.0228 105.91 84.152C106.147 84.2813 106.33 84.4742 106.459 84.7307C106.59 84.9853 106.656 85.3034 106.656 85.6853V88.5996H105.764V85.7926C105.764 85.4566 105.677 85.1961 105.504 85.0111C105.331 84.8242 105.091 84.7307 104.783 84.7307C104.572 84.7307 104.383 84.7755 104.216 84.8649C104.051 84.9544 103.92 85.0857 103.825 85.2587C103.732 85.4297 103.685 85.6365 103.685 85.8792ZM109.821 88.6921C109.369 88.6921 108.981 88.5956 108.654 88.4027C108.33 88.2078 108.08 87.9344 107.903 87.5824C107.728 87.2284 107.64 86.8138 107.64 86.3385C107.64 85.8692 107.728 85.4556 107.903 85.0976C108.08 84.7397 108.326 84.4603 108.643 84.2594C108.961 84.0586 109.333 83.9581 109.758 83.9581C110.017 83.9581 110.267 84.0009 110.51 84.0864C110.752 84.1719 110.97 84.3061 111.163 84.4891C111.356 84.6721 111.508 84.9097 111.619 85.202C111.731 85.4924 111.787 85.8453 111.787 86.261V86.5772H108.144V85.909H110.913C110.913 85.6743 110.865 85.4665 110.769 85.2855C110.674 85.1026 110.54 84.9584 110.367 84.853C110.196 84.7476 109.995 84.6949 109.764 84.6949C109.514 84.6949 109.295 84.7566 109.108 84.8799C108.923 85.0012 108.78 85.1603 108.678 85.3571C108.579 85.552 108.529 85.7638 108.529 85.9925V86.5145C108.529 86.8208 108.583 87.0813 108.69 87.2961C108.8 87.5108 108.952 87.6749 109.147 87.7882C109.342 87.8996 109.569 87.9553 109.83 87.9553C109.999 87.9553 110.153 87.9314 110.292 87.8837C110.431 87.834 110.552 87.7604 110.653 87.663C110.754 87.5655 110.832 87.4452 110.886 87.302L111.73 87.4542C111.662 87.7027 111.541 87.9205 111.366 88.1074C111.193 88.2924 110.975 88.4365 110.713 88.54C110.452 88.6414 110.155 88.6921 109.821 88.6921ZM112.776 88.5996V84.0178H113.638V84.7456H113.686C113.769 84.499 113.917 84.3051 114.127 84.164C114.34 84.0208 114.581 83.9492 114.849 83.9492C114.905 83.9492 114.971 83.9512 115.046 83.9551C115.124 83.9591 115.184 83.9641 115.228 83.9701V84.8232C115.192 84.8132 115.129 84.8023 115.037 84.7904C114.946 84.7765 114.854 84.7695 114.763 84.7695C114.552 84.7695 114.364 84.8142 114.199 84.9037C114.036 84.9912 113.907 85.1135 113.811 85.2706C113.716 85.4257 113.668 85.6027 113.668 85.8016V88.5996H112.776Z" fill="#FAFAF9"/>
<path d="M264.013 76.5129C264.13 76.3958 264.13 76.2058 264.013 76.0886L262.103 74.1795C261.986 74.0623 261.796 74.0623 261.679 74.1795C261.562 74.2966 261.562 74.4866 261.679 74.6037L263.376 76.3008L261.679 77.9978C261.562 78.115 261.562 78.3049 261.679 78.4221C261.796 78.5393 261.986 78.5393 262.103 78.4221L264.013 76.5129ZM220.017 76.6008C220.183 76.6008 220.317 76.4665 220.317 76.3008C220.317 76.1351 220.183 76.0008 220.017 76.0008V76.6008ZM222.484 76.0008C222.318 76.0008 222.184 76.1351 222.184 76.3008C222.184 76.4665 222.318 76.6008 222.484 76.6008V76.0008ZM223.717 76.6008C223.883 76.6008 224.017 76.4665 224.017 76.3008C224.017 76.1351 223.883 76.0008 223.717 76.0008V76.6008ZM226.184 76.0008C226.018 76.0008 225.884 76.1351 225.884 76.3008C225.884 76.4665 226.018 76.6008 226.184 76.6008V76.0008ZM227.417 76.6008C227.583 76.6008 227.717 76.4665 227.717 76.3008C227.717 76.1351 227.583 76.0008 227.417 76.0008V76.6008ZM229.884 76.0008C229.718 76.0008 229.584 76.1351 229.584 76.3008C229.584 76.4665 229.718 76.6008 229.884 76.6008V76.0008ZM231.117 76.6008C231.283 76.6008 231.417 76.4665 231.417 76.3008C231.417 76.1351 231.283 76.0008 231.117 76.0008V76.6008ZM233.584 76.0008C233.418 76.0008 233.284 76.1351 233.284 76.3008C233.284 76.4665 233.418 76.6008 233.584 76.6008V76.0008ZM234.817 76.6008C234.983 76.6008 235.117 76.4665 235.117 76.3008C235.117 76.1351 234.983 76.0008 234.817 76.0008V76.6008ZM237.284 76.0008C237.118 76.0008 236.984 76.1351 236.984 76.3008C236.984 76.4665 237.118 76.6008 237.284 76.6008V76.0008ZM238.517 76.6008C238.683 76.6008 238.817 76.4665 238.817 76.3008C238.817 76.1351 238.683 76.0008 238.517 76.0008V76.6008ZM240.984 76.0008C240.818 76.0008 240.684 76.1351 240.684 76.3008C240.684 76.4665 240.818 76.6008 240.984 76.6008V76.0008ZM242.217 76.6008C242.383 76.6008 242.517 76.4665 242.517 76.3008C242.517 76.1351 242.383 76.0008 242.217 76.0008V76.6008ZM244.684 76.0008C244.518 76.0008 244.384 76.1351 244.384 76.3008C244.384 76.4665 244.518 76.6008 244.684 76.6008V76.0008ZM245.917 76.6008C246.083 76.6008 246.217 76.4665 246.217 76.3008C246.217 76.1351 246.083 76.0008 245.917 76.0008V76.6008ZM248.384 76.0008C248.218 76.0008 248.084 76.1351 248.084 76.3008C248.084 76.4665 248.218 76.6008 248.384 76.6008V76.0008ZM249.617 76.6008C249.783 76.6008 249.917 76.4665 249.917 76.3008C249.917 76.1351 249.783 76.0008 249.617 76.0008V76.6008ZM252.084 76.0008C251.918 76.0008 251.784 76.1351 251.784 76.3008C251.784 76.4665 251.918 76.6008 252.084 76.6008V76.0008ZM253.317 76.6008C253.483 76.6008 253.617 76.4665 253.617 76.3008C253.617 76.1351 253.483 76.0008 253.317 76.0008V76.6008ZM255.784 76.0008C255.618 76.0008 255.484 76.1351 255.484 76.3008C255.484 76.4665 255.618 76.6008 255.784 76.6008V76.0008ZM257.017 76.6008C257.183 76.6008 257.317 76.4665 257.317 76.3008C257.317 76.1351 257.183 76.0008 257.017 76.0008V76.6008ZM259.484 76.0008C259.318 76.0008 259.184 76.1351 259.184 76.3008C259.184 76.4665 259.318 76.6008 259.484 76.6008V76.0008ZM260.717 76.6008C260.883 76.6008 261.017 76.4665 261.017 76.3008C261.017 76.1351 260.883 76.0008 260.717 76.0008V76.6008ZM263.184 76.0008C263.018 76.0008 262.884 76.1351 262.884 76.3008C262.884 76.4665 263.018 76.6008 263.184 76.6008V76.0008ZM219.4 76.3008V76.6008H220.017V76.3008V76.0008H219.4V76.3008ZM222.484 76.3008V76.6008H223.717V76.3008V76.0008H222.484V76.3008ZM226.184 76.3008V76.6008H227.417V76.3008V76.0008H226.184V76.3008ZM229.884 76.3008V76.6008H231.117V76.3008V76.0008H229.884V76.3008ZM233.584 76.3008V76.6008H234.817V76.3008V76.0008H233.584V76.3008ZM237.284 76.3008V76.6008H238.517V76.3008V76.0008H237.284V76.3008ZM240.984 76.3008V76.6008H242.217V76.3008V76.0008H240.984V76.3008ZM244.684 76.3008V76.6008H245.917V76.3008V76.0008H244.684V76.3008ZM248.384 76.3008V76.6008H249.617V76.3008V76.0008H248.384V76.3008ZM252.084 76.3008V76.6008H253.317V76.3008V76.0008H252.084V76.3008ZM255.784 76.3008V76.6008H257.017V76.3008V76.0008H255.784V76.3008ZM259.484 76.3008V76.6008H260.717V76.3008V76.0008H259.484V76.3008ZM263.184 76.3008V76.6008H263.8V76.3008V76.0008H263.184V76.3008Z" fill="#7C765F"/>
<defs>
<filter id="filter0_di_1548_914" x="128.021" y="21.2208" width="109.56" height="109.56" filterUnits="userSpaceOnUse" color-interpolation-filters="sRGB">
<feFlood flood-opacity="0" result="BackgroundImageFix"/>
<feColorMatrix in="SourceAlpha" type="matrix" values="0 0 0 0 0 0 0 0 0 0 0 0 0 0 0 0 0 0 127 0" result="hardAlpha"/>
<feMorphology radius="1.2" operator="dilate" in="SourceAlpha" result="effect1_dropShadow_1548_914"/>
<feOffset/>
<feGaussianBlur stdDeviation="9.69"/>
<feComposite in2="hardAlpha" operator="out"/>
<feColorMatrix type="matrix" values="0 0 0 0 0.682353 0 0 0 0 0.647059 0 0 0 0 0.509804 0 0 0 1 0"/>
<feBlend mode="normal" in2="BackgroundImageFix" result="effect1_dropShadow_1548_914"/>
<feBlend mode="normal" in="SourceGraphic" in2="effect1_dropShadow_1548_914" result="shape"/>
<feColorMatrix in="SourceAlpha" type="matrix" values="0 0 0 0 0 0 0 0 0 0 0 0 0 0 0 0 0 0 127 0" result="hardAlpha"/>
<feOffset/>
<feGaussianBlur stdDeviation="2.4"/>
<feComposite in2="hardAlpha" operator="arithmetic" k2="-1" k3="1"/>
<feColorMatrix type="matrix" values="0 0 0 0 0.713726 0 0 0 0 0.678431 0 0 0 0 0.552941 0 0 0 1 0"/>
<feBlend mode="normal" in2="shape" result="effect2_innerShadow_1548_914"/>
</filter>
<filter id="filter1_d_1548_914" x="245.62" y="35.6192" width="80.7601" height="80.7596" filterUnits="userSpaceOnUse" color-interpolation-filters="sRGB">
<feFlood flood-opacity="0" result="BackgroundImageFix"/>
<feColorMatrix in="SourceAlpha" type="matrix" values="0 0 0 0 0 0 0 0 0 0 0 0 0 0 0 0 0 0 127 0" result="hardAlpha"/>
<feMorphology radius="1.2" operator="dilate" in="SourceAlpha" result="effect1_dropShadow_1548_914"/>
<feOffset/>
<feGaussianBlur stdDeviation="9.69"/>
<feComposite in2="hardAlpha" operator="out"/>
<feColorMatrix type="matrix" values="0 0 0 0 0.682353 0 0 0 0 0.647059 0 0 0 0 0.509804 0 0 0 0.5 0"/>
<feBlend mode="normal" in2="BackgroundImageFix" result="effect1_dropShadow_1548_914"/>
<feBlend mode="normal" in="SourceGraphic" in2="effect1_dropShadow_1548_914" result="shape"/>
</filter>
<linearGradient id="paint0_linear_1548_914" x1="14.356" y1="1" x2="14.356" y2="175.842" gradientUnits="userSpaceOnUse">
<stop stop-color="#11100E"/>
<stop offset="0.480769" stop-color="#383423"/>
<stop offset="1" stop-color="#11100E"/>
</linearGradient>
<linearGradient id="paint1_linear_1548_914" x1="331.4" y1="11.7842" x2="1" y2="11.7842" gradientUnits="userSpaceOnUse">
<stop stop-color="#11100E"/>
<stop offset="0.480769" stop-color="#383423"/>
<stop offset="1" stop-color="#11100E"/>
</linearGradient>
<linearGradient id="paint2_linear_1548_914" x1="33.6401" y1="1" x2="33.6401" y2="175.842" gradientUnits="userSpaceOnUse">
<stop stop-color="#11100E"/>
<stop offset="0.480769" stop-color="#383423"/>
<stop offset="1" stop-color="#11100E"/>
</linearGradient>
<linearGradient id="paint3_linear_1548_914" x1="331.4" y1="31.0684" x2="1" y2="31.0683" gradientUnits="userSpaceOnUse">
<stop stop-color="#11100E"/>
<stop offset="0.480769" stop-color="#383423"/>
<stop offset="1" stop-color="#11100E"/>
</linearGradient>
<linearGradient id="paint4_linear_1548_914" x1="52.9243" y1="1" x2="52.9243" y2="175.842" gradientUnits="userSpaceOnUse">
<stop stop-color="#11100E"/>
<stop offset="0.480769" stop-color="#383423"/>
<stop offset="1" stop-color="#11100E"/>
</linearGradient>
<linearGradient id="paint5_linear_1548_914" x1="331.4" y1="50.3525" x2="1" y2="50.3525" gradientUnits="userSpaceOnUse">
<stop stop-color="#11100E"/>
<stop offset="0.480769" stop-color="#383423"/>
<stop offset="1" stop-color="#11100E"/>
</linearGradient>
<linearGradient id="paint6_linear_1548_914" x1="72.2085" y1="1" x2="72.2085" y2="175.842" gradientUnits="userSpaceOnUse">
<stop stop-color="#11100E"/>
<stop offset="0.480769" stop-color="#383423"/>
<stop offset="1" stop-color="#11100E"/>
</linearGradient>
<linearGradient id="paint7_linear_1548_914" x1="331.4" y1="69.6367" x2="1" y2="69.6367" gradientUnits="userSpaceOnUse">
<stop stop-color="#11100E"/>
<stop offset="0.480769" stop-color="#383423"/>
<stop offset="1" stop-color="#11100E"/>
</linearGradient>
<linearGradient id="paint8_linear_1548_914" x1="91.4922" y1="1" x2="91.4922" y2="175.842" gradientUnits="userSpaceOnUse">
<stop stop-color="#11100E"/>
<stop offset="0.480769" stop-color="#383423"/>
<stop offset="1" stop-color="#11100E"/>
</linearGradient>
<linearGradient id="paint9_linear_1548_914" x1="331.4" y1="88.9209" x2="1" y2="88.9209" gradientUnits="userSpaceOnUse">
<stop stop-color="#11100E"/>
<stop offset="0.480769" stop-color="#383423"/>
<stop offset="1" stop-color="#11100E"/>
</linearGradient>
<linearGradient id="paint10_linear_1548_914" x1="110.776" y1="1" x2="110.776" y2="175.842" gradientUnits="userSpaceOnUse">
<stop stop-color="#11100E"/>
<stop offset="0.480769" stop-color="#383423"/>
<stop offset="1" stop-color="#11100E"/>
</linearGradient>
<linearGradient id="paint11_linear_1548_914" x1="331.4" y1="108.204" x2="1" y2="108.204" gradientUnits="userSpaceOnUse">
<stop stop-color="#11100E"/>
<stop offset="0.480769" stop-color="#383423"/>
<stop offset="1" stop-color="#11100E"/>
</linearGradient>
<linearGradient id="paint12_linear_1548_914" x1="130.061" y1="1" x2="130.061" y2="175.842" gradientUnits="userSpaceOnUse">
<stop stop-color="#11100E"/>
<stop offset="0.480769" stop-color="#383423"/>
<stop offset="1" stop-color="#11100E"/>
</linearGradient>
<linearGradient id="paint13_linear_1548_914" x1="331.4" y1="127.488" x2="1" y2="127.488" gradientUnits="userSpaceOnUse">
<stop stop-color="#11100E"/>
<stop offset="0.480769" stop-color="#383423"/>
<stop offset="1" stop-color="#11100E"/>
</linearGradient>
<linearGradient id="paint14_linear_1548_914" x1="149.345" y1="1" x2="149.345" y2="175.842" gradientUnits="userSpaceOnUse">
<stop stop-color="#11100E"/>
<stop offset="0.480769" stop-color="#383423"/>
<stop offset="1" stop-color="#11100E"/>
</linearGradient>
<linearGradient id="paint15_linear_1548_914" x1="331.4" y1="146.772" x2="1" y2="146.772" gradientUnits="userSpaceOnUse">
<stop stop-color="#11100E"/>
<stop offset="0.480769" stop-color="#383423"/>
<stop offset="1" stop-color="#11100E"/>
</linearGradient>
<linearGradient id="paint16_linear_1548_914" x1="168.629" y1="1" x2="168.629" y2="175.842" gradientUnits="userSpaceOnUse">
<stop stop-color="#11100E"/>
<stop offset="0.480769" stop-color="#383423"/>
<stop offset="1" stop-color="#11100E"/>
</linearGradient>
<linearGradient id="paint17_linear_1548_914" x1="331.4" y1="166.057" x2="1" y2="166.057" gradientUnits="userSpaceOnUse">
<stop stop-color="#11100E"/>
<stop offset="0.480769" stop-color="#383423"/>
<stop offset="1" stop-color="#11100E"/>
</linearGradient>
<linearGradient id="paint18_linear_1548_914" x1="187.913" y1="1" x2="187.913" y2="175.842" gradientUnits="userSpaceOnUse">
<stop stop-color="#11100E"/>
<stop offset="0.480769" stop-color="#383423"/>
<stop offset="1" stop-color="#11100E"/>
</linearGradient>
<linearGradient id="paint19_linear_1548_914" x1="207.196" y1="1" x2="207.196" y2="175.842" gradientUnits="userSpaceOnUse">
<stop stop-color="#11100E"/>
<stop offset="0.480769" stop-color="#383423"/>
<stop offset="1" stop-color="#11100E"/>
</linearGradient>
<linearGradient id="paint20_linear_1548_914" x1="226.48" y1="1" x2="226.48" y2="175.842" gradientUnits="userSpaceOnUse">
<stop stop-color="#11100E"/>
<stop offset="0.480769" stop-color="#383423"/>
<stop offset="1" stop-color="#11100E"/>
</linearGradient>
<linearGradient id="paint21_linear_1548_914" x1="245.765" y1="1" x2="245.765" y2="175.842" gradientUnits="userSpaceOnUse">
<stop stop-color="#11100E"/>
<stop offset="0.480769" stop-color="#383423"/>
<stop offset="1" stop-color="#11100E"/>
</linearGradient>
<linearGradient id="paint22_linear_1548_914" x1="265.048" y1="1" x2="265.048" y2="175.842" gradientUnits="userSpaceOnUse">
<stop stop-color="#11100E"/>
<stop offset="0.480769" stop-color="#383423"/>
<stop offset="1" stop-color="#11100E"/>
</linearGradient>
<linearGradient id="paint23_linear_1548_914" x1="284.333" y1="1" x2="284.333" y2="175.842" gradientUnits="userSpaceOnUse">
<stop stop-color="#11100E"/>
<stop offset="0.480769" stop-color="#383423"/>
<stop offset="1" stop-color="#11100E"/>
</linearGradient>
<linearGradient id="paint24_linear_1548_914" x1="303.617" y1="1" x2="303.617" y2="175.842" gradientUnits="userSpaceOnUse">
<stop stop-color="#11100E"/>
<stop offset="0.480769" stop-color="#383423"/>
<stop offset="1" stop-color="#11100E"/>
</linearGradient>
<linearGradient id="paint25_linear_1548_914" x1="322.901" y1="1" x2="322.901" y2="175.842" gradientUnits="userSpaceOnUse">
<stop stop-color="#11100E"/>
<stop offset="0.480769" stop-color="#383423"/>
<stop offset="1" stop-color="#11100E"/>
</linearGradient>
<linearGradient id="paint26_linear_1548_914" x1="38.8003" y1="1241.2" x2="863.56" y2="405.939" gradientUnits="userSpaceOnUse">
<stop stop-color="#1C7DFF"/>
<stop offset="0.52021" stop-color="#1C69FF"/>
<stop offset="1" stop-color="#F0DCD6"/>
</linearGradient>
<clipPath id="clip0_1548_914">
<rect width="37.2" height="37.2" fill="white" transform="translate(164.2 57.4004)"/>
</clipPath>
<clipPath id="clip1_1548_914">
<rect width="12" height="12" fill="white" transform="translate(105.4 8.19922)"/>
</clipPath>
<clipPath id="clip2_1548_914">
<rect width="12" height="12" fill="white" transform="translate(88.6001 151)"/>
</clipPath>
<clipPath id="clip3_1548_914">
<rect width="12" height="12" fill="white" transform="translate(38.8003 41.1992)"/>
</clipPath>
</defs>
</svg>
