<svg width="243" height="189" viewBox="0 0 243 189" fill="none" xmlns="http://www.w3.org/2000/svg">
<rect y="66.6211" width="169" height="17" rx="8.5" fill="#D6D3D1"/>
<rect y="89.6211" width="169" height="17" rx="8.5" fill="#D6D3D1"/>
<rect y="112.621" width="169" height="17" rx="8.5" fill="#D6D3D1"/>
<rect x="64" y="135.621" width="105" height="17" rx="8.5" fill="#D6D3D1"/>
<path d="M15.828 42.9774H30.6093C30.7405 42.9774 30.8663 42.9282 30.9591 42.8407C31.0519 42.7532 31.104 42.6345 31.104 42.5107V39.4214C31.104 39.4048 31.104 39.3888 31.104 39.3734C31.101 39.3509 31.0962 39.3286 31.0899 39.3067C31.0902 39.3034 31.0902 39.3001 31.0899 39.2967C31.0836 39.2739 31.0753 39.2516 31.0651 39.2301L31.0609 39.2207C31.0505 39.1996 31.0382 39.1793 31.0241 39.1601C31.0105 39.1415 30.9953 39.1239 30.9789 39.1074L30.9704 39.0987C30.9538 39.0828 30.9361 39.0679 30.9174 39.054L30.9061 39.0467C30.8863 39.0326 30.8653 39.0201 30.8432 39.0094L23.6338 35.9228L23.6225 35.9181L23.5935 35.9055L23.5744 35.8988L23.549 35.8908L23.5243 35.8848L23.5024 35.8808L23.4727 35.8761H23.455H23.4204H7.81928L2.78286 33.7231H18.0808C18.212 33.7231 18.3378 33.6739 18.4306 33.5863C18.5234 33.4988 18.5755 33.3801 18.5755 33.2563V30.1704C18.5751 30.1512 18.5737 30.1321 18.5712 30.1131V30.1017C18.5641 30.0542 18.549 30.0081 18.5267 29.965L18.5225 29.957C18.5111 29.9367 18.4984 29.9171 18.4843 29.8984C18.4819 29.8951 18.4793 29.892 18.4765 29.889C18.4623 29.8703 18.4462 29.8529 18.4285 29.837L18.4221 29.831C18.4037 29.8148 18.3841 29.7999 18.3635 29.7863C18.3408 29.7725 18.3172 29.76 18.2928 29.749H18.2886L11.0685 26.6624C11.0044 26.6351 10.9347 26.621 10.8643 26.6211H0.491838C0.465541 26.6213 0.439306 26.6235 0.413399 26.6278H0.402094C0.3781 26.6321 0.35448 26.6381 0.331428 26.6458L0.320826 26.6498C0.296249 26.6572 0.272565 26.667 0.250159 26.6791H0.244504C0.223029 26.6902 0.202685 26.7031 0.183732 26.7178L0.178785 26.7211C0.159943 26.7357 0.142231 26.7515 0.125785 26.7685L0.116598 26.7778C0.101057 26.795 0.0868873 26.8133 0.0741994 26.8325C0.0716014 26.8356 0.0692419 26.839 0.0671344 26.8425C0.0540115 26.8627 0.0426638 26.8839 0.0332114 26.9058V26.9105C0.0233168 26.9338 0.0155191 26.9579 0.00989449 26.9825C0.00442751 27.0062 0.00111664 27.0303 9.90444e-08 27.0545C9.90444e-08 27.0592 9.90444e-08 27.0638 9.90444e-08 27.0685C9.90444e-08 27.0732 9.90444e-08 27.0765 9.90444e-08 27.0805V30.1671C7.57128e-05 30.2567 0.0275039 30.3444 0.0790086 30.4198C0.130513 30.4951 0.203914 30.5548 0.29044 30.5918L5.42297 32.7842H0.491838C0.465541 32.7844 0.439306 32.7866 0.413399 32.7909H0.402094C0.378172 32.7955 0.354572 32.8015 0.331428 32.8089L0.320826 32.8129C0.296496 32.8209 0.272869 32.8307 0.250159 32.8422L0.244504 32.8456C0.223182 32.8569 0.20286 32.8698 0.183732 32.8842L0.178785 32.8876C0.159763 32.9022 0.142038 32.9182 0.125785 32.9356L0.116598 32.9449C0.100899 32.9618 0.0867186 32.9798 0.0741994 32.9989L0.0671344 33.0089C0.0539763 33.0303 0.042631 33.0526 0.0332114 33.0756V33.0803C0.0233168 33.1036 0.0155191 33.1277 0.00989449 33.1523C0.00442751 33.176 0.00111664 33.2001 9.90444e-08 33.2243C9.90444e-08 33.229 9.90444e-08 33.2336 9.90444e-08 33.2383C9.90444e-08 33.243 9.90444e-08 33.2456 9.90444e-08 33.2496V36.3362C-6.00819e-05 36.4259 0.0273061 36.5138 0.0788188 36.5893C0.130331 36.6647 0.203805 36.7246 0.29044 36.7616L5.42297 38.9547H0.491838C0.465576 38.955 0.439366 38.957 0.413399 38.9607H0.402094C0.378024 38.9647 0.354377 38.9707 0.331428 38.9787L0.320826 38.9827C0.296398 38.9902 0.272745 38.9998 0.250159 39.0114H0.244504C0.223167 39.0229 0.202846 39.0361 0.183732 39.0507C0.181822 39.0514 0.180124 39.0526 0.178785 39.054C0.159943 39.0686 0.142231 39.0844 0.125785 39.1014L0.116598 39.1107C0.101057 39.1279 0.0868873 39.1462 0.0741994 39.1654C0.0716014 39.1686 0.0692419 39.1719 0.0671344 39.1754C0.0538348 39.1967 0.0424839 39.219 0.0332114 39.2421V39.2467C0.0232182 39.27 0.015418 39.2941 0.00989449 39.3187C0.00442751 39.3424 0.00111664 39.3665 9.90444e-08 39.3908C9.90444e-08 39.3954 9.90444e-08 39.4001 9.90444e-08 39.4048C9.90444e-08 39.4094 9.90444e-08 39.4128 9.90444e-08 39.4168V42.5033C7.57128e-05 42.593 0.0275039 42.6807 0.0790086 42.756C0.130513 42.8313 0.203914 42.8911 0.29044 42.9281L5.42297 45.1298H0.491838C0.465541 45.13 0.439306 45.1322 0.413399 45.1365H0.402094C0.378172 45.1411 0.354572 45.1471 0.331428 45.1545L0.320826 45.1585C0.296374 45.1662 0.27272 45.176 0.250159 45.1878L0.244504 45.1911C0.223182 45.2025 0.20286 45.2154 0.183732 45.2298H0.178785C0.159763 45.2444 0.142038 45.2605 0.125785 45.2778L0.116598 45.2865C0.101057 45.3037 0.0868873 45.322 0.0741994 45.3412L0.0671344 45.3512C0.0541403 45.3714 0.0427979 45.3926 0.0332114 45.4145V45.4192C0.0233168 45.4425 0.0155191 45.4666 0.00989449 45.4912C0.0044739 45.5147 0.00116332 45.5386 9.90444e-08 45.5626C9.90444e-08 45.5672 9.90444e-08 45.5719 9.90444e-08 45.5772C9.90444e-08 45.5826 9.90444e-08 45.5846 9.90444e-08 45.5886V48.6751C-6.00819e-05 48.7649 0.0273061 48.8527 0.0788188 48.9282C0.130331 49.0036 0.203805 49.0635 0.29044 49.1005L7.51117 52.1864C7.52319 52.1918 7.53591 52.1964 7.54792 52.2004L7.55852 52.2038C7.57265 52.2078 7.58608 52.2118 7.60021 52.2144H7.60869C7.62317 52.2174 7.63779 52.2196 7.65251 52.2211H7.65958C7.67654 52.2211 7.6942 52.2211 7.71187 52.2211H30.6079C30.7391 52.2211 30.8649 52.1719 30.9577 52.0844C31.0505 51.9969 31.1026 51.8781 31.1026 51.7543V48.6831C31.1022 48.6642 31.1008 48.6453 31.0983 48.6264V48.6144C31.091 48.5681 31.076 48.5231 31.0538 48.4811L31.0496 48.4724C31.0384 48.4522 31.0256 48.4328 31.0114 48.4144L31.0036 48.4044C30.9892 48.386 30.9734 48.3686 30.9563 48.3524L30.9492 48.3464C30.9309 48.3304 30.9115 48.3155 30.8913 48.3017C30.8687 48.2879 30.8451 48.2757 30.8206 48.265H30.8164L23.5956 45.1792C23.5315 45.1516 23.4619 45.1373 23.3914 45.1371H8.20724V42.9847L15.828 42.9774ZM8.20724 32.7842V30.6318H17.5861V32.7842H8.20724ZM10.7513 27.5453L15.7877 29.6983H7.81928L2.78286 27.5453H10.7513ZM0.984388 27.8026L7.21579 30.4658V32.5275L0.984388 29.8604V27.8026ZM9.91173 38.9547H8.20724V36.8016H23.2819L28.319 38.9547H9.91173ZM0.986506 33.9724L7.21791 36.6356V38.6973L0.986506 36.0341V33.9724ZM7.71258 39.8882H30.114V42.0412H7.81928L2.78286 39.8882H7.71258ZM0.986506 40.1449L7.21791 42.8121V44.8738L0.986506 42.2066V40.1449ZM0.986506 46.318L7.21791 48.9812V51.0429L0.986506 48.3797V46.318ZM8.20724 51.3003V49.1499H30.114V51.3029L8.20724 51.3003ZM23.2819 46.0606L28.319 48.2164H7.81928L2.78286 46.0633H23.2819V46.0606Z" fill="#A8A29E"/>
<g clip-path="url(#clip0_1548_1047)">
<path d="M71.7082 43.111H73.5508V38.7295H71.7082V37.3189H75.3922V39.2884H75.5072C75.5745 39.0382 75.6661 38.7949 75.7809 38.5617C75.8988 38.3294 76.0544 38.1172 76.2418 37.9334C76.4404 37.7424 76.675 37.5907 76.9326 37.4867C77.2389 37.3678 77.5666 37.3108 77.8961 37.3189H78.7019V38.9956H77.1768C76.6206 38.9956 76.1827 39.1538 75.863 39.4701C75.7045 39.6315 75.5808 39.8223 75.4992 40.0312C75.4175 40.24 75.3797 40.4628 75.3879 40.6862V43.1163H77.9639V44.528H71.7038L71.7082 43.111Z" fill="#A8A29E"/>
<path d="M67.9004 44.6904C67.3789 44.6985 66.8607 44.6081 66.3742 44.4243C65.9444 44.2552 65.5569 43.9979 65.2378 43.6699C64.9187 43.3254 64.6741 42.9216 64.5185 42.4826C64.1918 41.464 64.1918 40.3722 64.5185 39.3536C64.6741 38.9144 64.9187 38.5102 65.2378 38.1653C65.5572 37.8376 65.9446 37.5803 66.3742 37.4108C66.8609 37.2279 67.379 37.1379 67.9004 37.1458C68.4168 37.1389 68.9297 37.2288 69.4113 37.4108C69.8435 37.5755 70.232 37.8334 70.5477 38.1653C70.873 38.5057 71.1184 38.9112 71.267 39.3536C71.613 40.3693 71.613 41.467 71.267 42.4826C71.1183 42.9246 70.8729 43.3298 70.5477 43.6699C70.2323 44.0021 69.8437 44.26 69.4113 44.4243C68.9299 44.6072 68.4169 44.6975 67.9004 44.6904ZM67.9004 43.3204C68.4281 43.3204 68.8452 43.1669 69.1518 42.8598C69.4583 42.5528 69.612 42.0918 69.6127 41.477V40.3592C69.6127 39.7529 69.4591 39.2966 69.1518 38.9903C68.8452 38.6732 68.4281 38.5147 67.9004 38.5147C67.3727 38.5147 66.9552 38.6732 66.648 38.9903C66.3414 39.2966 66.1878 39.7529 66.187 40.3592V41.477C66.187 42.0819 66.3407 42.5428 66.648 42.8598C66.9552 43.1769 67.3727 43.3304 67.9004 43.3204Z" fill="#A8A29E"/>
<path d="M60.8257 44.6904C60.1027 44.7064 59.3835 44.583 58.7094 44.3271C58.1647 44.1116 57.6845 43.7654 57.3135 43.3204L58.393 42.3704C58.6883 42.6878 59.0456 42.9444 59.444 43.1249C59.8846 43.3096 60.3605 43.4004 60.8399 43.391C61.3012 43.391 61.6705 43.3165 61.9479 43.1676C62.0777 43.1049 62.1861 43.0068 62.2601 42.8853C62.3341 42.7637 62.3706 42.6239 62.365 42.4826C62.365 42.2219 62.2698 42.0445 62.0771 41.9483C61.8458 41.8395 61.5981 41.7673 61.3436 41.7346L60.1491 41.5529C59.8429 41.5071 59.54 41.4418 59.2426 41.3573C58.9658 41.2697 58.7039 41.1426 58.4653 40.9801C58.2437 40.8217 58.0618 40.6164 57.9332 40.3795C57.7916 40.0972 57.7225 39.7854 57.7318 39.4712C57.7318 38.7167 58.0193 38.1393 58.5945 37.7389C59.1696 37.3385 59.9706 37.1383 60.9976 37.1383C61.6206 37.1223 62.2411 37.222 62.8259 37.4322C63.3034 37.6075 63.732 37.8897 64.0773 38.2561L63.1139 39.2895C62.8706 39.0439 62.5825 38.8449 62.2643 38.7028C61.9198 38.5261 61.4786 38.4378 60.9406 38.4378C60.0006 38.4378 59.5305 38.7228 59.5305 39.2927C59.5305 39.5534 59.6258 39.7351 59.8185 39.8377C60.0552 39.9455 60.3073 40.0176 60.5662 40.0514L61.7464 40.2331C62.0542 40.2793 62.3575 40.3508 62.653 40.4468C62.9319 40.5224 63.1951 40.6454 63.4303 40.8102C63.6584 40.9658 63.8459 41.1715 63.9777 41.4108C64.1203 41.6878 64.1895 41.9953 64.1791 42.3052C64.1915 42.6478 64.1164 42.988 63.9607 43.2952C63.8049 43.6025 63.5734 43.8671 63.2869 44.0653C62.7015 44.4813 61.8811 44.6897 60.8257 44.6904Z" fill="#A8A29E"/>
<path d="M50.5706 44.5227V37.3136H52.412V38.5853H52.4843C52.6465 38.1956 52.9031 37.8502 53.2321 37.5786C53.578 37.2901 54.0524 37.1458 54.6553 37.1458C55.3852 37.1458 55.9749 37.3834 56.4245 37.8586C56.8741 38.3338 57.1048 39.0042 57.1165 39.8698V44.5227H55.2761V40.1252C55.2761 39.0822 54.8108 38.5603 53.8802 38.5596C53.6953 38.5587 53.5111 38.5824 53.3328 38.6301C53.1621 38.6755 53.0013 38.7513 52.8587 38.8535C52.7256 38.9464 52.6137 39.0655 52.5303 39.2029C52.4518 39.3589 52.4142 39.5315 52.4208 39.7052V44.5259L50.5706 44.5227Z" fill="#A8A29E"/>
<path d="M40.6515 36.2781V44.5205H38.7805V36.2781H35.7588V34.7713H43.6732V36.2781H40.6515Z" fill="#A8A29E"/>
<path d="M108.079 34.1846H109.922V40.247H110.008L111.088 39.1014L112.915 37.3136H115.06L112.104 40.1497L115.371 44.5226H113.169L110.794 41.1692L109.918 41.9793V44.5226H108.076L108.079 34.1846Z" fill="#A8A29E"/>
<path d="M104.531 44.6904C104.01 44.6983 103.492 44.608 103.006 44.4243C102.57 44.2578 102.177 44.0003 101.854 43.6699C101.536 43.3248 101.291 42.9212 101.135 42.4826C100.808 41.464 100.808 40.3722 101.135 39.3536C101.291 38.9148 101.536 38.5108 101.854 38.1653C102.174 37.8373 102.561 37.58 102.991 37.4108C103.478 37.2279 103.995 37.1379 104.517 37.1458C105.303 37.1458 105.936 37.3043 106.416 37.6213C106.893 37.9337 107.272 38.3686 107.511 38.8781L106.088 39.6325C105.965 39.3408 105.767 39.0855 105.512 38.892C105.272 38.6964 104.94 38.5991 104.519 38.5991C103.971 38.5991 103.549 38.7527 103.252 39.0597C102.955 39.3668 102.811 39.7861 102.821 40.3175V41.5144C102.821 42.0359 102.964 42.4552 103.252 42.7722C103.54 43.0892 103.971 43.2428 104.547 43.2328C104.985 43.2328 105.335 43.1348 105.598 42.9389C105.875 42.7328 106.097 42.4644 106.245 42.1567L107.627 42.9528C107.376 43.4673 106.982 43.903 106.49 44.2106C105.99 44.5298 105.337 44.6897 104.531 44.6904Z" fill="#A8A29E"/>
<path d="M97.1966 44.6904C96.6754 44.6983 96.1576 44.608 95.6715 44.4243C95.2414 44.2552 94.8535 43.9979 94.534 43.6699C94.2157 43.3248 93.9711 42.9211 93.8147 42.4826C93.4892 41.4638 93.4892 40.3724 93.8147 39.3536C93.9711 38.9147 94.2156 38.5107 94.534 38.1653C94.8537 37.8375 95.2416 37.5803 95.6715 37.4108C96.6511 37.0575 97.7278 37.0575 98.7074 37.4108C99.1399 37.5757 99.5286 37.8336 99.8449 38.1653C100.17 38.5057 100.416 38.9112 100.564 39.3536C100.91 40.3693 100.91 41.4669 100.564 42.4826C100.416 42.9246 100.17 43.3297 99.8449 43.6699C99.5289 44.0019 99.1401 44.2598 98.7074 44.4243C98.2261 44.6072 97.7131 44.6975 97.1966 44.6904ZM97.1966 43.3204C97.7243 43.3204 98.1418 43.1669 98.4491 42.8598C98.7563 42.5528 98.9096 42.0918 98.9089 41.477V40.3592C98.9089 39.7529 98.7556 39.2966 98.4491 38.9903C98.1418 38.6732 97.7243 38.5147 97.1966 38.5147C96.6689 38.5147 96.2514 38.6732 95.9441 38.9903C95.6376 39.2966 95.4843 39.7529 95.4843 40.3592V41.477C95.4843 42.0819 95.6376 42.5428 95.9441 42.8598C96.2507 43.1769 96.6682 43.3304 97.1966 43.3204Z" fill="#A8A29E"/>
<path d="M86.8692 43.111H89.2296V36.1787H86.8692V34.768H91.0722V43.111H93.4479V44.5226H86.8714L86.8692 43.111Z" fill="#A8A29E"/>
<path d="M79.939 34.7713H83.4358C84.3847 34.7713 85.1146 35.0039 85.6255 35.4691C86.1364 35.9343 86.3955 36.5584 86.4028 37.3413C86.4028 37.9006 86.2568 38.3477 85.9649 38.6825C85.6529 39.039 85.2357 39.2928 84.7704 39.4092V39.4786C85.3748 39.6211 85.8492 39.8772 86.1937 40.247C86.5382 40.6167 86.7156 41.1336 86.7258 41.7976C86.73 42.1807 86.6555 42.5608 86.5068 42.9154C86.3753 43.2384 86.174 43.53 85.9167 43.7703C85.655 44.0197 85.3408 44.2104 84.996 44.3292C84.6098 44.4644 84.2019 44.5306 83.7917 44.5248H79.9346L79.939 34.7713ZM83.2235 43.1954C83.7512 43.1954 84.1445 43.1021 84.4036 42.9154C84.6628 42.7287 84.7971 42.3982 84.8066 41.9237V41.4631C84.8066 41.0072 84.6722 40.6866 84.4036 40.5013C84.1351 40.3161 83.7417 40.2181 83.2235 40.2075H81.7838V43.1997L83.2235 43.1954ZM82.9782 38.9336C83.4873 38.9336 83.8606 38.846 84.1015 38.6686C84.3423 38.4912 84.4748 38.1845 84.4748 37.7464V37.2858C84.4748 36.8476 84.3504 36.5402 84.1015 36.3635C83.8606 36.1861 83.4873 36.0985 82.9782 36.0985H81.7838V38.9336H82.9782Z" fill="#A8A29E"/>
<path d="M50.3713 41.3509C50.3833 41.2109 50.3888 41.0666 50.3888 40.9234C50.3966 40.3912 50.3088 39.8617 50.1293 39.359C49.9808 38.9166 49.7354 38.5111 49.41 38.1706C49.0937 37.8389 48.7049 37.5811 48.2725 37.4162C47.2929 37.0628 46.2162 37.0628 45.2366 37.4162C44.8067 37.5856 44.4188 37.8429 44.0991 38.1706C43.7808 38.5161 43.5362 38.9201 43.3798 39.359C43.0543 40.3777 43.0543 41.4692 43.3798 42.4879C43.5362 42.9265 43.7808 43.3301 44.0991 43.6752C44.4186 44.0033 44.8065 44.2606 45.2366 44.4297C46.2159 44.7844 47.2932 44.7844 48.2725 44.4297C48.7052 44.2652 49.094 44.0072 49.41 43.6752C49.7352 43.3351 49.9807 42.93 50.1293 42.4879C50.1995 42.2994 50.2544 42.1057 50.2936 41.9087H48.4444C48.4072 42.2639 48.2563 42.5986 48.0131 42.8652C47.7058 43.173 47.2883 43.3265 46.7606 43.3258C46.2329 43.3251 45.8154 43.1715 45.5081 42.8652C45.2016 42.5489 45.0483 42.0879 45.0483 41.4823V41.3563L50.3713 41.3509ZM45.5092 38.9903C45.8165 38.6732 46.234 38.5147 46.7617 38.5147C47.2894 38.5147 47.7069 38.6732 48.0142 38.9903C48.3087 39.2852 48.4597 39.7191 48.4718 40.2897H45.0505C45.0636 39.7191 45.2147 39.2852 45.5092 38.9903Z" fill="#A8A29E"/>
</g>
<path d="M97.036 145.608C103.63 152.202 111.31 157.379 119.863 160.997C128.722 164.744 138.129 166.644 147.822 166.644C157.515 166.644 166.921 164.744 175.78 160.997C180.789 158.878 185.497 156.22 189.864 153.06L220.401 183.623C221.705 184.929 223.415 185.582 225.125 185.582C226.833 185.582 228.541 184.93 229.845 183.628C232.454 181.021 232.456 176.793 229.849 174.184L199.935 144.243C205.898 137.962 210.626 130.751 213.997 122.78C217.744 113.922 219.644 104.515 219.644 94.822C219.644 85.129 217.744 75.7224 213.997 66.8636C210.379 58.3104 205.201 50.6302 198.608 44.0362C192.014 37.4424 184.333 32.2646 175.78 28.6468C166.921 24.8998 157.515 23 147.822 23C138.129 23 128.722 24.9 119.863 28.6468C111.31 32.2646 103.63 37.4424 97.036 44.0362C90.4422 50.63 85.2646 58.3104 81.6468 66.8636C77.9 75.7224 76 85.129 76 94.822C76 104.515 77.9 113.922 81.6468 122.78C85.2644 131.334 90.4422 139.014 97.036 145.608ZM106.48 53.4802C117.523 42.4374 132.205 36.3558 147.822 36.3558C163.439 36.3558 178.121 42.4374 189.164 53.4802C200.206 64.523 206.288 79.205 206.288 94.822C206.288 110.439 200.206 125.121 189.164 136.164C178.121 147.207 163.439 153.288 147.822 153.288C132.205 153.288 117.523 147.207 106.48 136.164C95.4372 125.121 89.3558 110.439 89.3558 94.8222C89.3558 79.2054 95.4372 64.523 106.48 53.4802Z" fill="black"/>
<g filter="url(#filter0_di_1548_1047)">
<g clip-path="url(#clip1_1548_1047)">
<path d="M88 94.6211C88 61.484 114.863 34.6211 148 34.6211V34.6211C181.137 34.6211 208 61.484 208 94.6211V94.6211C208 127.758 181.137 154.621 148 154.621V154.621C114.863 154.621 88 127.758 88 94.6211V94.6211Z" fill="#FAFAF9"/>
<path d="M159.163 56.9912C161.388 55.6873 163.921 55 166.5 55C169.079 55 171.612 55.6873 173.837 56.9912L210.924 78.7358C213.109 80.0156 214.92 81.8446 216.179 84.0411C217.438 86.2376 218.1 88.7252 218.1 91.2568V134.996C218.098 137.526 217.435 140.012 216.177 142.207C214.918 144.402 213.107 146.23 210.924 147.509L173.837 169.253C171.612 170.557 169.079 171.245 166.5 171.245C163.921 171.245 161.388 170.557 159.163 169.253L122.076 147.509C119.891 146.229 118.08 144.4 116.821 142.204C115.562 140.007 114.9 137.519 114.9 134.988V91.2568C114.9 88.7252 115.562 86.2376 116.821 84.0411C118.08 81.8446 119.891 80.0156 122.076 78.7358L159.163 56.9912ZM168.943 65.3359C168.202 64.9023 167.359 64.6737 166.5 64.6737C165.641 64.6737 164.798 64.9023 164.057 65.3359L126.969 87.0805C126.24 87.507 125.636 88.1169 125.216 88.8496C124.796 89.5823 124.575 90.4122 124.575 91.2568V134.996C124.576 135.839 124.798 136.667 125.218 137.399C125.638 138.13 126.242 138.738 126.969 139.164L164.057 160.909C164.798 161.342 165.641 161.571 166.5 161.571C167.359 161.571 168.202 161.342 168.943 160.909L206.03 139.164C206.759 138.738 207.364 138.128 207.784 137.395C208.204 136.662 208.425 135.832 208.425 134.988V91.2568C208.425 90.4122 208.204 89.5823 207.784 88.8496C207.364 88.1169 206.759 87.507 206.03 87.0805L168.943 65.3359Z" fill="#9B9378"/>
<path d="M164.138 117.337L116.569 90.7305L121.293 82.2891L166.476 107.565L210.868 82.3052L215.657 90.7144L168.894 117.321C168.17 117.733 167.352 117.951 166.518 117.954C165.685 117.957 164.865 117.744 164.138 117.337Z" fill="#9B9378"/>
<path d="M161.663 168.406V113.121H171.338V168.406H161.663Z" fill="#9B9378"/>
</g>
</g>
<defs>
<filter id="filter0_di_1548_1047" x="53.7" y="0.321095" width="188.6" height="188.6" filterUnits="userSpaceOnUse" color-interpolation-filters="sRGB">
<feFlood flood-opacity="0" result="BackgroundImageFix"/>
<feColorMatrix in="SourceAlpha" type="matrix" values="0 0 0 0 0 0 0 0 0 0 0 0 0 0 0 0 0 0 127 0" result="hardAlpha"/>
<feMorphology radius="2" operator="dilate" in="SourceAlpha" result="effect1_dropShadow_1548_1047"/>
<feOffset/>
<feGaussianBlur stdDeviation="16.15"/>
<feComposite in2="hardAlpha" operator="out"/>
<feColorMatrix type="matrix" values="0 0 0 0 0.682353 0 0 0 0 0.647059 0 0 0 0 0.509804 0 0 0 1 0"/>
<feBlend mode="normal" in2="BackgroundImageFix" result="effect1_dropShadow_1548_1047"/>
<feBlend mode="normal" in="SourceGraphic" in2="effect1_dropShadow_1548_1047" result="shape"/>
<feColorMatrix in="SourceAlpha" type="matrix" values="0 0 0 0 0 0 0 0 0 0 0 0 0 0 0 0 0 0 127 0" result="hardAlpha"/>
<feOffset/>
<feGaussianBlur stdDeviation="4"/>
<feComposite in2="hardAlpha" operator="arithmetic" k2="-1" k3="1"/>
<feColorMatrix type="matrix" values="0 0 0 0 0.713726 0 0 0 0 0.678431 0 0 0 0 0.552941 0 0 0 1 0"/>
<feBlend mode="normal" in2="shape" result="effect2_innerShadow_1548_1047"/>
</filter>
<clipPath id="clip0_1548_1047">
<rect width="79.5931" height="10.4727" fill="white" transform="translate(35.7588 34.1846)"/>
</clipPath>
<clipPath id="clip1_1548_1047">
<path d="M88 94.6211C88 61.484 114.863 34.6211 148 34.6211V34.6211C181.137 34.6211 208 61.484 208 94.6211V94.6211C208 127.758 181.137 154.621 148 154.621V154.621C114.863 154.621 88 127.758 88 94.6211V94.6211Z" fill="white"/>
</clipPath>
</defs>
</svg>
