<svg width="342" height="288" viewBox="0 0 342 288" fill="none" xmlns="http://www.w3.org/2000/svg">
<g clip-path="url(#clip0_1548_750)">
<rect width="342" height="288" rx="16" fill="#3E3B32"/>
<g opacity="0.2">
<path d="M15.9414 0V216.8" stroke="url(#paint0_linear_1548_750)" stroke-width="0.6" stroke-linecap="round" stroke-linejoin="round"/>
<path d="M409.688 12.7539L0.000234246 12.7539" stroke="url(#paint1_linear_1548_750)" stroke-width="0.6" stroke-linecap="round" stroke-linejoin="round"/>
<path d="M39.853 0V216.8" stroke="url(#paint2_linear_1548_750)" stroke-width="0.6" stroke-linecap="round" stroke-linejoin="round"/>
<path d="M409.688 36.6641L0.000234246 36.6641" stroke="url(#paint3_linear_1548_750)" stroke-width="0.6" stroke-linecap="round" stroke-linejoin="round"/>
<path d="M63.7646 0V216.8" stroke="url(#paint4_linear_1548_750)" stroke-width="0.6" stroke-linecap="round" stroke-linejoin="round"/>
<path d="M409.688 60.5762L0.000234246 60.5762" stroke="url(#paint5_linear_1548_750)" stroke-width="0.6" stroke-linecap="round" stroke-linejoin="round"/>
<path d="M87.6768 0V216.8" stroke="url(#paint6_linear_1548_750)" stroke-width="0.6" stroke-linecap="round" stroke-linejoin="round"/>
<path d="M409.688 84.4885L0.000234246 84.4885" stroke="url(#paint7_linear_1548_750)" stroke-width="0.6" stroke-linecap="round" stroke-linejoin="round"/>
<path d="M111.588 0V216.8" stroke="url(#paint8_linear_1548_750)" stroke-width="0.6" stroke-linecap="round" stroke-linejoin="round"/>
<path d="M409.688 108.4L0.000234246 108.4" stroke="url(#paint9_linear_1548_750)" stroke-width="0.6" stroke-linecap="round" stroke-linejoin="round"/>
<path d="M135.5 0V216.8" stroke="url(#paint10_linear_1548_750)" stroke-width="0.6" stroke-linecap="round" stroke-linejoin="round"/>
<path d="M409.688 132.312L0.000234246 132.312" stroke="url(#paint11_linear_1548_750)" stroke-width="0.6" stroke-linecap="round" stroke-linejoin="round"/>
<path d="M159.412 0V216.8" stroke="url(#paint12_linear_1548_750)" stroke-width="0.6" stroke-linecap="round" stroke-linejoin="round"/>
<path d="M409.688 156.225L0.000234246 156.225" stroke="url(#paint13_linear_1548_750)" stroke-width="0.6" stroke-linecap="round" stroke-linejoin="round"/>
<path d="M183.324 0V216.8" stroke="url(#paint14_linear_1548_750)" stroke-width="0.6" stroke-linecap="round" stroke-linejoin="round"/>
<path d="M409.688 180.135L0.000234246 180.135" stroke="url(#paint15_linear_1548_750)" stroke-width="0.6" stroke-linecap="round" stroke-linejoin="round"/>
<path d="M207.235 0V216.8" stroke="url(#paint16_linear_1548_750)" stroke-width="0.6" stroke-linecap="round" stroke-linejoin="round"/>
<path d="M409.688 204.047L0.000234246 204.047" stroke="url(#paint17_linear_1548_750)" stroke-width="0.6" stroke-linecap="round" stroke-linejoin="round"/>
<path d="M231.147 0V216.8" stroke="url(#paint18_linear_1548_750)" stroke-width="0.6" stroke-linecap="round" stroke-linejoin="round"/>
<path d="M255.059 0V216.8" stroke="url(#paint19_linear_1548_750)" stroke-width="0.6" stroke-linecap="round" stroke-linejoin="round"/>
<path d="M278.971 0V216.8" stroke="url(#paint20_linear_1548_750)" stroke-width="0.6" stroke-linecap="round" stroke-linejoin="round"/>
<path d="M302.882 0V216.8" stroke="url(#paint21_linear_1548_750)" stroke-width="0.6" stroke-linecap="round" stroke-linejoin="round"/>
<path d="M326.794 0V216.8" stroke="url(#paint22_linear_1548_750)" stroke-width="0.6" stroke-linecap="round" stroke-linejoin="round"/>
</g>
<path d="M24.3169 89.2337C22.0881 86.941 19.422 85.1123 16.4742 83.8543C13.5264 82.5962 10.3559 81.934 7.14775 81.9063C3.9396 81.8786 0.75802 82.486 -2.21134 83.6929C-5.1807 84.8999 -7.87839 86.6823 -10.147 88.9362C-12.4156 91.19 -14.2096 93.8702 -15.4245 96.8203C-16.6394 99.7703 -17.2507 102.931 -17.2228 106.119C-17.1949 109.306 -16.5284 112.456 -15.2621 115.384C-13.9958 118.313 -12.1552 120.962 -9.84749 123.176C-5.29058 127.549 0.812679 129.968 7.14775 129.914C13.4828 129.859 19.5428 127.334 24.0226 122.884C28.5023 118.433 31.0433 112.412 31.0984 106.119C31.1535 99.8246 28.7181 93.761 24.3169 89.2337ZM-18.3886 80.7421C-13.6846 76.0702 -7.77735 72.7744 -1.31368 71.2158C5.14999 69.6572 11.9207 69.8959 18.257 71.9056C24.5932 73.9154 30.2506 77.6187 34.6095 82.61C38.9684 87.6014 41.8607 93.6882 42.9696 100.204H91.8V112.206H82.7394V124.208H70.6587V112.206H64.6183V130.198H52.5375V112.206H42.9756C42.0233 117.792 39.7578 123.076 36.3631 127.628C32.9685 132.18 28.5406 135.872 23.4393 138.404C18.338 140.936 12.7073 142.236 7.00503 142.199C1.30272 142.162 -4.31032 140.789 -9.37781 138.191C-14.4453 135.593 -18.8242 131.843 -22.1586 127.247C-25.4929 122.651 -27.6886 117.339 -28.5672 111.741C-29.4458 106.143 -28.9825 100.418 -27.2149 95.032C-25.4473 89.6456 -22.4253 84.7497 -18.3946 80.7421H-18.3886Z" fill="#F1F0EE"/>
<rect x="109.4" y="100.6" width="220.8" height="11.2" fill="url(#paint23_linear_1548_750)"/>
<g filter="url(#filter0_f_1548_750)">
<circle cx="100.2" cy="105.8" r="18.8" fill="#9B9378"/>
</g>
<g filter="url(#filter1_f_1548_750)">
<ellipse cx="99.8001" cy="105.8" rx="11.2" ry="10.8" fill="#FAFAF9"/>
</g>
<g opacity="0.6">
<rect x="167.8" y="131" width="69.2" height="32" rx="16" fill="#0C0A09"/>
<path d="M175.717 144.314L183.839 156.167H187.45L179.326 144.314H175.717ZM179.324 150.897L175.712 156.167H179.326L181.13 153.532L179.324 150.897ZM188.276 137.833L182.033 146.942L183.839 149.579L191.889 137.833H188.276ZM188.93 143.47V156.167H191.889V139.151L188.93 143.47Z" fill="white"/>
<path d="M208.908 144.891L210.256 147.269L211.617 144.891H212.917L211.012 147.945L212.933 151H211.633L210.256 148.717L208.884 151H207.58L209.481 147.945L207.604 144.891H208.908ZM214.922 151H213.617L216.548 142.855H217.968L220.9 151H219.595L217.292 144.334H217.229L214.922 151ZM215.14 147.81H219.372V148.844H215.14V147.81ZM223.305 142.855V151H222.076V142.855H223.305Z" fill="#FAFAF9"/>
</g>
<g opacity="0.8">
<rect x="268.6" y="31" width="84.8" height="25.6" rx="12.8" fill="#0C0A09"/>
<g clip-path="url(#clip1_1548_750)">
<path fill-rule="evenodd" clip-rule="evenodd" d="M287.767 42.4701C287.933 41.9765 287.991 41.4528 287.936 40.9348C287.881 40.4169 287.714 39.917 287.448 39.4694C286.637 38.0761 285.007 37.3587 283.415 37.6961C283.062 37.3057 282.631 36.9943 282.149 36.7826C281.668 36.5708 281.147 36.4634 280.621 36.4674C278.993 36.4641 277.549 37.4981 277.049 39.0261C276.534 39.1291 276.047 39.3403 275.62 39.6458C275.194 39.9514 274.837 40.3441 274.573 40.7981C274.175 41.4742 274.005 42.2605 274.088 43.0408C274.171 43.8211 274.503 44.554 275.034 45.1314C274.867 45.625 274.809 46.1488 274.864 46.6669C274.919 47.185 275.086 47.685 275.352 48.1327C276.163 49.5261 277.793 50.2427 279.385 49.9061C279.738 50.2964 280.169 50.6076 280.65 50.8193C281.132 51.0309 281.653 51.1382 282.179 51.1341C283.807 51.1381 285.252 50.1034 285.753 48.5741C286.268 48.4711 286.755 48.2597 287.182 47.9539C287.609 47.6482 287.966 47.2551 288.229 46.8007C288.627 46.1246 288.796 45.3387 288.713 44.5588C288.63 43.779 288.298 43.0465 287.767 42.4694L287.767 42.4701ZM282.179 50.1754C281.529 50.177 280.898 49.9521 280.396 49.5394C280.419 49.5274 280.458 49.5061 280.484 49.4901L283.444 47.8034C283.518 47.7622 283.579 47.7019 283.622 47.6288C283.665 47.5558 283.687 47.4727 283.687 47.3881V43.2707L284.938 43.9834C284.951 43.9901 284.96 44.0027 284.962 44.0167V47.4267C284.96 48.9427 283.715 50.1721 282.179 50.1754ZM276.195 47.6541C275.868 47.0991 275.751 46.446 275.863 45.8121C275.884 45.8254 275.923 45.8487 275.95 45.8641L278.91 47.5507C279.06 47.6374 279.246 47.6374 279.397 47.5507L283.01 45.4921V46.9174C283.01 46.9247 283.009 46.932 283.006 46.9386C283.002 46.9452 282.998 46.951 282.992 46.9554L280 48.6594C278.667 49.4167 276.965 48.9661 276.195 47.6527L276.195 47.6541ZM275.415 41.2781C275.743 40.7194 276.256 40.2933 276.865 40.0741L276.864 40.1747V43.5481C276.864 43.6328 276.886 43.716 276.928 43.7892C276.971 43.8623 277.033 43.9227 277.107 43.9641L280.72 46.0221L279.469 46.7354C279.463 46.7394 279.456 46.7417 279.449 46.7423C279.441 46.7429 279.434 46.7417 279.427 46.7387L276.435 45.0327C275.105 44.2727 274.649 42.5941 275.415 41.2794L275.415 41.2781ZM285.693 43.6381L282.08 41.5794L283.331 40.8674C283.337 40.8633 283.344 40.8608 283.351 40.8601C283.358 40.8594 283.366 40.8605 283.373 40.8634L286.365 42.5681C287.697 43.3281 288.154 45.0094 287.385 46.3234C287.057 46.8817 286.544 47.3078 285.935 47.5281V44.0541C285.936 43.9695 285.913 43.8864 285.871 43.8134C285.828 43.7403 285.767 43.68 285.693 43.6387V43.6381ZM286.938 41.7894C286.909 41.7717 286.879 41.7544 286.85 41.7374L283.89 40.0507C283.816 40.0082 283.732 39.9858 283.647 39.9858C283.562 39.9858 283.478 40.0082 283.404 40.0507L279.791 42.1094V40.6841C279.79 40.6767 279.792 40.6695 279.795 40.6628C279.798 40.6562 279.803 40.6505 279.809 40.6461L282.8 38.9427C284.133 38.1847 285.837 38.6361 286.605 39.9514C286.929 40.5067 287.048 41.1574 286.938 41.7894ZM279.111 44.3294L277.859 43.6174C277.853 43.6142 277.847 43.6094 277.843 43.6035C277.839 43.5975 277.836 43.5906 277.835 43.5834V40.1734C277.836 38.6554 279.084 37.4254 280.623 37.4267C281.273 37.4267 281.903 37.6521 282.403 38.0627C282.381 38.0747 282.342 38.0961 282.316 38.1114L279.356 39.7981C279.282 39.8392 279.22 39.8994 279.178 39.9725C279.135 40.0455 279.112 40.1287 279.113 40.2134L279.111 44.3287V44.3294ZM279.791 42.8841L281.4 41.9674L283.009 42.8841V44.7174L281.4 45.6341L279.79 44.7174V42.8841H279.791Z" fill="white"/>
</g>
<path d="M308.922 43.7273C308.922 44.597 308.763 45.3447 308.445 45.9705C308.127 46.5936 307.69 47.0735 307.136 47.4103C306.585 47.7444 305.958 47.9114 305.255 47.9114C304.55 47.9114 303.92 47.7444 303.366 47.4103C302.814 47.0735 302.38 46.5923 302.061 45.9665C301.743 45.3408 301.584 44.5944 301.584 43.7273C301.584 42.8576 301.743 42.1112 302.061 41.4881C302.38 40.8624 302.814 40.3824 303.366 40.0483C303.92 39.7116 304.55 39.5432 305.255 39.5432C305.958 39.5432 306.585 39.7116 307.136 40.0483C307.69 40.3824 308.127 40.8624 308.445 41.4881C308.763 42.1112 308.922 42.8576 308.922 43.7273ZM307.705 43.7273C307.705 43.0644 307.598 42.5063 307.383 42.0529C307.171 41.5968 306.879 41.2521 306.508 41.0188C306.139 40.7828 305.722 40.6648 305.255 40.6648C304.786 40.6648 304.367 40.7828 303.998 41.0188C303.63 41.2521 303.338 41.5968 303.123 42.0529C302.911 42.5063 302.805 43.0644 302.805 43.7273C302.805 44.3902 302.911 44.9497 303.123 45.4057C303.338 45.8591 303.63 46.2038 303.998 46.4398C304.367 46.6732 304.786 46.7898 305.255 46.7898C305.722 46.7898 306.139 46.6732 306.508 46.4398C306.879 46.2038 307.171 45.8591 307.383 45.4057C307.598 44.9497 307.705 44.3902 307.705 43.7273ZM310.359 50.091V41.691H311.52V42.6813H311.62C311.689 42.554 311.788 42.4069 311.918 42.2398C312.048 42.0728 312.228 41.9269 312.459 41.8023C312.69 41.675 312.995 41.6114 313.374 41.6114C313.867 41.6114 314.307 41.736 314.694 41.9853C315.081 42.2345 315.385 42.5938 315.605 43.0631C315.828 43.5324 315.939 44.0972 315.939 44.7574C315.939 45.4177 315.829 45.9838 315.609 46.4557C315.389 46.925 315.087 47.287 314.702 47.5415C314.318 47.7934 313.879 47.9194 313.386 47.9194C313.014 47.9194 312.711 47.8571 312.475 47.7324C312.241 47.6078 312.059 47.462 311.926 47.2949C311.793 47.1279 311.691 46.9794 311.62 46.8495H311.548V50.091H310.359ZM311.524 44.7455C311.524 45.175 311.587 45.5516 311.711 45.875C311.836 46.1985 312.016 46.4518 312.252 46.6347C312.488 46.815 312.777 46.9052 313.119 46.9052C313.474 46.9052 313.771 46.811 314.01 46.6228C314.249 46.4319 314.429 46.1733 314.551 45.8472C314.676 45.5211 314.738 45.1538 314.738 44.7455C314.738 44.3425 314.677 43.9805 314.555 43.6597C314.436 43.3389 314.255 43.0857 314.014 42.9C313.775 42.7144 313.477 42.6216 313.119 42.6216C312.774 42.6216 312.483 42.7105 312.244 42.8881C312.008 43.0658 311.829 43.3137 311.707 43.6319C311.585 43.95 311.524 44.3213 311.524 44.7455ZM319.904 47.9233C319.302 47.9233 318.784 47.7947 318.349 47.5375C317.917 47.2777 317.583 46.9131 317.347 46.4438C317.114 45.9718 316.997 45.419 316.997 44.7853C316.997 44.1595 317.114 43.608 317.347 43.1307C317.583 42.6535 317.912 42.2809 318.333 42.0131C318.758 41.7453 319.253 41.6114 319.821 41.6114C320.166 41.6114 320.5 41.6684 320.823 41.7824C321.147 41.8965 321.437 42.0754 321.694 42.3194C321.951 42.5633 322.154 42.8802 322.303 43.2699C322.451 43.6571 322.525 44.1277 322.525 44.6819V45.1035H317.669V44.2125H321.36C321.36 43.8997 321.296 43.6226 321.169 43.3813C321.042 43.1374 320.863 42.9451 320.632 42.8046C320.404 42.6641 320.136 42.5938 319.829 42.5938C319.495 42.5938 319.203 42.676 318.954 42.8404C318.707 43.0021 318.516 43.2143 318.381 43.4768C318.248 43.7366 318.182 44.019 318.182 44.3239V45.0199C318.182 45.4283 318.254 45.7756 318.397 46.062C318.543 46.3483 318.746 46.5671 319.005 46.7182C319.265 46.8667 319.569 46.941 319.916 46.941C320.142 46.941 320.347 46.9091 320.533 46.8455C320.718 46.7792 320.879 46.6811 321.014 46.5512C321.149 46.4213 321.253 46.2608 321.324 46.0699L322.45 46.2728C322.36 46.6042 322.198 46.8946 321.965 47.1438C321.734 47.3904 321.444 47.5826 321.094 47.7205C320.746 47.8557 320.35 47.9233 319.904 47.9233ZM325.034 44.1728V47.8H323.845V41.691H324.986V42.6853H325.062C325.202 42.3618 325.422 42.1019 325.722 41.9057C326.024 41.7095 326.405 41.6114 326.864 41.6114C327.28 41.6114 327.644 41.6989 327.957 41.8739C328.27 42.0463 328.513 42.3035 328.685 42.6455C328.858 42.9875 328.944 43.4105 328.944 43.9143V47.8H327.755V44.0574C327.755 43.6146 327.639 43.2686 327.408 43.0194C327.178 42.7675 326.861 42.6415 326.458 42.6415C326.182 42.6415 325.937 42.7012 325.722 42.8205C325.51 42.9398 325.342 43.1148 325.217 43.3455C325.095 43.5735 325.034 43.8493 325.034 44.1728ZM331.322 47.8H330.018L332.949 39.6546H334.369L337.3 47.8H335.995L333.693 41.1341H333.629L331.322 47.8ZM331.541 44.6103H335.773V45.6444H331.541V44.6103ZM339.705 39.6546V47.8H338.476V39.6546H339.705Z" fill="#FAFAF9"/>
</g>
<g opacity="0.4">
<rect x="289.4" y="141.4" width="97.8" height="25.6" rx="12.8" fill="#0C0A09"/>
<g clip-path="url(#clip2_1548_750)">
<path fill-rule="evenodd" clip-rule="evenodd" d="M303.418 148.547H305.82L310.2 159.534H307.798L303.418 148.547ZM298.58 148.547H301.091L305.471 159.534H303.022L302.126 157.226H297.545L296.649 159.533H294.2L298.58 148.548L298.58 148.547ZM301.334 155.186L299.836 151.325L298.337 155.187H301.334L301.334 155.186Z" fill="white"/>
</g>
<path d="M323.527 158.2H322.222L325.153 150.054H326.573L329.504 158.2H328.2L325.897 151.534H325.833L323.527 158.2ZM323.745 155.01H327.977V156.044H323.745V155.01ZM331.774 154.573V158.2H330.585V152.091H331.727V153.085H331.802C331.943 152.762 332.163 152.502 332.463 152.306C332.765 152.109 333.145 152.011 333.604 152.011C334.02 152.011 334.385 152.099 334.698 152.274C335.011 152.446 335.253 152.703 335.426 153.045C335.598 153.387 335.684 153.81 335.684 154.314V158.2H334.495V154.457C334.495 154.015 334.38 153.669 334.149 153.419C333.918 153.167 333.601 153.041 333.198 153.041C332.923 153.041 332.677 153.101 332.463 153.22C332.25 153.34 332.082 153.515 331.957 153.745C331.835 153.973 331.774 154.249 331.774 154.573ZM340.131 152.091V153.045H336.794V152.091H340.131ZM337.689 150.627H338.878V156.406C338.878 156.637 338.912 156.811 338.981 156.927C339.05 157.041 339.139 157.119 339.248 157.162C339.359 157.202 339.48 157.222 339.61 157.222C339.705 157.222 339.789 157.215 339.86 157.202C339.932 157.188 339.988 157.178 340.027 157.17L340.242 158.152C340.173 158.179 340.075 158.205 339.948 158.232C339.82 158.261 339.661 158.277 339.47 158.279C339.158 158.285 338.866 158.229 338.595 158.112C338.325 157.996 338.106 157.815 337.939 157.572C337.772 157.328 337.689 157.021 337.689 156.653V150.627ZM342.767 154.573V158.2H341.577V150.054H342.751V153.085H342.826C342.97 152.756 343.188 152.495 343.483 152.302C343.777 152.108 344.161 152.011 344.636 152.011C345.055 152.011 345.421 152.097 345.734 152.27C346.049 152.442 346.293 152.699 346.466 153.041C346.641 153.381 346.728 153.805 346.728 154.314V158.2H345.539V154.457C345.539 154.009 345.423 153.662 345.193 153.415C344.962 153.166 344.641 153.041 344.23 153.041C343.949 153.041 343.697 153.101 343.475 153.22C343.255 153.34 343.081 153.515 342.954 153.745C342.829 153.973 342.767 154.249 342.767 154.573ZM348.315 158.2V152.091H349.464V153.061H349.528C349.639 152.733 349.836 152.474 350.117 152.286C350.4 152.095 350.721 151.999 351.079 151.999C351.153 151.999 351.241 152.002 351.342 152.007C351.445 152.013 351.526 152.019 351.584 152.027V153.165C351.537 153.151 351.452 153.137 351.33 153.121C351.208 153.102 351.086 153.093 350.964 153.093C350.683 153.093 350.432 153.153 350.212 153.272C349.995 153.389 349.822 153.552 349.695 153.761C349.568 153.968 349.504 154.204 349.504 154.469V158.2H348.315ZM354.968 158.323C354.395 158.323 353.895 158.192 353.469 157.929C353.042 157.667 352.71 157.3 352.474 156.828C352.238 156.356 352.12 155.804 352.12 155.173C352.12 154.54 352.238 153.985 352.474 153.511C352.71 153.036 353.042 152.668 353.469 152.405C353.895 152.143 354.395 152.011 354.968 152.011C355.541 152.011 356.04 152.143 356.467 152.405C356.894 152.668 357.226 153.036 357.462 153.511C357.698 153.985 357.816 154.54 357.816 155.173C357.816 155.804 357.698 156.356 357.462 156.828C357.226 157.3 356.894 157.667 356.467 157.929C356.04 158.192 355.541 158.323 354.968 158.323ZM354.972 157.325C355.343 157.325 355.651 157.227 355.895 157.031C356.139 156.834 356.319 156.573 356.436 156.247C356.555 155.921 356.615 155.562 356.615 155.169C356.615 154.779 356.555 154.422 356.436 154.095C356.319 153.767 356.139 153.503 355.895 153.304C355.651 153.105 355.343 153.006 354.972 153.006C354.598 153.006 354.288 153.105 354.041 153.304C353.797 153.503 353.616 153.767 353.496 154.095C353.38 154.422 353.321 154.779 353.321 155.169C353.321 155.562 353.38 155.921 353.496 156.247C353.616 156.573 353.797 156.834 354.041 157.031C354.288 157.227 354.598 157.325 354.972 157.325ZM359.143 160.491V152.091H360.304V153.081H360.404C360.473 152.954 360.572 152.807 360.702 152.64C360.832 152.473 361.012 152.327 361.243 152.202C361.474 152.075 361.779 152.011 362.158 152.011C362.651 152.011 363.091 152.136 363.478 152.385C363.865 152.634 364.169 152.994 364.389 153.463C364.612 153.932 364.723 154.497 364.723 155.157C364.723 155.818 364.613 156.384 364.393 156.856C364.173 157.325 363.871 157.687 363.486 157.941C363.102 158.193 362.663 158.319 362.17 158.319C361.799 158.319 361.495 158.257 361.259 158.132C361.026 158.008 360.843 157.862 360.71 157.695C360.578 157.528 360.475 157.379 360.404 157.249H360.332V160.491H359.143ZM360.308 155.145C360.308 155.575 360.371 155.951 360.495 156.275C360.62 156.598 360.8 156.852 361.036 157.035C361.272 157.215 361.561 157.305 361.903 157.305C362.259 157.305 362.556 157.211 362.794 157.023C363.033 156.832 363.213 156.573 363.335 156.247C363.46 155.921 363.522 155.554 363.522 155.145C363.522 154.742 363.461 154.38 363.339 154.06C363.22 153.739 363.039 153.486 362.798 153.3C362.56 153.114 362.261 153.022 361.903 153.022C361.559 153.022 361.267 153.11 361.028 153.288C360.792 153.466 360.613 153.714 360.491 154.032C360.369 154.35 360.308 154.721 360.308 155.145ZM366.056 158.2V152.091H367.245V158.2H366.056ZM366.656 151.148C366.449 151.148 366.272 151.079 366.123 150.941C365.977 150.801 365.904 150.634 365.904 150.44C365.904 150.244 365.977 150.077 366.123 149.939C366.272 149.799 366.449 149.728 366.656 149.728C366.863 149.728 367.039 149.799 367.185 149.939C367.334 150.077 367.408 150.244 367.408 150.44C367.408 150.634 367.334 150.801 367.185 150.941C367.039 151.079 366.863 151.148 366.656 151.148ZM371.418 158.323C370.827 158.323 370.318 158.189 369.891 157.922C369.466 157.651 369.14 157.279 368.912 156.804C368.684 156.329 368.57 155.786 368.57 155.173C368.57 154.553 368.687 154.005 368.92 153.531C369.154 153.053 369.482 152.681 369.907 152.413C370.331 152.145 370.831 152.011 371.406 152.011C371.87 152.011 372.284 152.097 372.647 152.27C373.01 152.44 373.303 152.678 373.526 152.986C373.751 153.293 373.885 153.653 373.928 154.064H372.77C372.707 153.777 372.561 153.531 372.333 153.324C372.107 153.117 371.805 153.014 371.426 153.014C371.094 153.014 370.804 153.101 370.555 153.276C370.308 153.448 370.116 153.695 369.978 154.016C369.84 154.334 369.771 154.711 369.771 155.145C369.771 155.591 369.839 155.975 369.974 156.299C370.109 156.622 370.3 156.873 370.547 157.051C370.796 157.228 371.089 157.317 371.426 157.317C371.651 157.317 371.855 157.276 372.038 157.194C372.224 157.109 372.379 156.988 372.504 156.832C372.631 156.675 372.72 156.487 372.77 156.267H373.928C373.885 156.662 373.757 157.015 373.542 157.325C373.327 157.635 373.039 157.879 372.679 158.057C372.321 158.234 371.901 158.323 371.418 158.323Z" fill="#FAFAF9"/>
</g>
<g opacity="0.4">
<rect x="179" y="52.6001" width="82.8" height="25.6" rx="12.8" fill="#0C0A09"/>
<g clip-path="url(#clip3_1548_750)">
<path d="M191.8 73.3999C191.495 71.3872 190.554 69.5248 189.114 68.0853C187.675 66.6459 185.813 65.7048 183.8 65.3999C185.813 65.095 187.675 64.1539 189.114 62.7145C190.554 61.275 191.495 59.4126 191.8 57.3999C192.105 59.4126 193.046 61.2749 194.485 62.7143C195.925 64.1538 197.787 65.0949 199.8 65.3999C197.787 65.7049 195.925 66.646 194.485 68.0855C193.046 69.5249 192.105 71.3872 191.8 73.3999Z" fill="url(#paint24_linear_1548_750)"/>
</g>
<path d="M218.275 63.8277C218.198 63.5865 218.094 63.3704 217.964 63.1794C217.837 62.9859 217.685 62.8215 217.507 62.6863C217.329 62.5484 217.126 62.4437 216.898 62.3721C216.673 62.3005 216.425 62.2647 216.155 62.2647C215.696 62.2647 215.282 62.3827 214.914 62.6187C214.545 62.8546 214.254 63.2007 214.039 63.6567C213.827 64.1101 213.721 64.6656 213.721 65.3232C213.721 65.9834 213.828 66.5416 214.043 66.9976C214.258 67.4537 214.552 67.7997 214.926 68.0357C215.3 68.2717 215.725 68.3897 216.202 68.3897C216.645 68.3897 217.031 68.2995 217.36 68.1192C217.691 67.9389 217.947 67.6844 218.127 67.3556C218.31 67.0241 218.402 66.6344 218.402 66.1863L218.72 66.2459H216.389V65.2317H219.591V66.1584C219.591 66.8425 219.445 67.4365 219.154 67.9402C218.865 68.4414 218.464 68.8285 217.952 69.1016C217.443 69.3747 216.86 69.5113 216.202 69.5113C215.465 69.5113 214.818 69.3416 214.262 69.0022C213.707 68.6628 213.275 68.1815 212.965 67.5584C212.655 66.9327 212.5 66.1902 212.5 65.3312C212.5 64.6815 212.59 64.0982 212.77 63.5812C212.95 63.0641 213.204 62.6253 213.53 62.2647C213.858 61.9014 214.244 61.6243 214.687 61.4334C215.133 61.2399 215.619 61.1431 216.147 61.1431C216.587 61.1431 216.997 61.208 217.376 61.338C217.758 61.4679 218.097 61.6522 218.394 61.8908C218.694 62.1294 218.941 62.4132 219.138 62.7419C219.334 63.0681 219.466 63.43 219.535 63.8277H218.275ZM223.689 69.5232C223.087 69.5232 222.568 69.3946 222.134 69.1374C221.701 68.8776 221.367 68.513 221.131 68.0437C220.898 67.5717 220.781 67.0188 220.781 66.3851C220.781 65.7594 220.898 65.2079 221.131 64.7306C221.367 64.2533 221.696 63.8808 222.118 63.613C222.542 63.3452 223.038 63.2113 223.605 63.2113C223.95 63.2113 224.284 63.2683 224.607 63.3823C224.931 63.4963 225.221 63.6753 225.478 63.9192C225.736 64.1632 225.938 64.48 226.087 64.8698C226.235 65.2569 226.31 65.7276 226.31 66.2817V66.7033H221.453V65.8124H225.144C225.144 65.4995 225.081 65.2224 224.953 64.9812C224.826 64.7372 224.647 64.545 224.416 64.4044C224.188 64.2639 223.921 64.1937 223.613 64.1937C223.279 64.1937 222.987 64.2758 222.738 64.4402C222.491 64.602 222.301 64.8141 222.165 65.0766C222.033 65.3365 221.966 65.6188 221.966 65.9238V66.6198C221.966 67.0281 222.038 67.3755 222.181 67.6618C222.327 67.9482 222.53 68.1669 222.79 68.3181C223.05 68.4666 223.353 68.5408 223.701 68.5408C223.926 68.5408 224.131 68.509 224.317 68.4454C224.503 68.3791 224.663 68.281 224.798 68.151C224.934 68.0211 225.037 67.8607 225.109 67.6698L226.234 67.8726C226.144 68.2041 225.982 68.4944 225.749 68.7437C225.518 68.9902 225.228 69.1825 224.878 69.3204C224.53 69.4556 224.134 69.5232 223.689 69.5232ZM227.629 69.3999V63.2908H228.771V64.2851H228.846C228.973 63.9484 229.182 63.6859 229.471 63.4976C229.76 63.3067 230.106 63.2113 230.509 63.2113C230.917 63.2113 231.259 63.3067 231.535 63.4976C231.813 63.6885 232.019 63.951 232.151 64.2851H232.215C232.361 63.959 232.593 63.6991 232.911 63.5056C233.229 63.3094 233.608 63.2113 234.048 63.2113C234.603 63.2113 235.055 63.3849 235.405 63.7323C235.757 64.0796 235.934 64.6033 235.934 65.3033V69.3999H234.744V65.4147C234.744 65.001 234.632 64.7014 234.406 64.5158C234.181 64.3302 233.912 64.2374 233.599 64.2374C233.212 64.2374 232.911 64.3567 232.696 64.5954C232.481 64.8313 232.374 65.1349 232.374 65.5062V69.3999H231.189V65.3391C231.189 65.0077 231.085 64.7412 230.879 64.5397C230.672 64.3382 230.403 64.2374 230.071 64.2374C229.846 64.2374 229.638 64.2971 229.447 64.4164C229.258 64.533 229.106 64.6961 228.989 64.9056C228.875 65.1151 228.818 65.3577 228.818 65.6334V69.3999H227.629ZM237.528 69.3999V63.2908H238.717V69.3999H237.528ZM238.128 62.3482C237.921 62.3482 237.744 62.2793 237.595 62.1414C237.449 62.0008 237.376 61.8338 237.376 61.6402C237.376 61.444 237.449 61.277 237.595 61.1391C237.744 60.9986 237.921 60.9283 238.128 60.9283C238.335 60.9283 238.511 60.9986 238.657 61.1391C238.806 61.277 238.88 61.444 238.88 61.6402C238.88 61.8338 238.806 62.0008 238.657 62.1414C238.511 62.2793 238.335 62.3482 238.128 62.3482ZM241.506 65.7726V69.3999H240.317V63.2908H241.458V64.2851H241.534C241.674 63.9616 241.894 63.7018 242.194 63.5056C242.496 63.3094 242.877 63.2113 243.335 63.2113C243.752 63.2113 244.116 63.2988 244.429 63.4738C244.742 63.6461 244.985 63.9033 245.157 64.2454C245.329 64.5874 245.415 65.0103 245.415 65.5141V69.3999H244.226V65.6573C244.226 65.2145 244.111 64.8685 243.88 64.6192C243.65 64.3673 243.333 64.2414 242.93 64.2414C242.654 64.2414 242.409 64.301 242.194 64.4204C241.982 64.5397 241.813 64.7147 241.689 64.9454C241.567 65.1734 241.506 65.4491 241.506 65.7726ZM247.01 69.3999V63.2908H248.2V69.3999H247.01ZM247.611 62.3482C247.404 62.3482 247.226 62.2793 247.078 62.1414C246.932 62.0008 246.859 61.8338 246.859 61.6402C246.859 61.444 246.932 61.277 247.078 61.1391C247.226 60.9986 247.404 60.9283 247.611 60.9283C247.818 60.9283 247.994 60.9986 248.14 61.1391C248.288 61.277 248.363 61.444 248.363 61.6402C248.363 61.8338 248.288 62.0008 248.14 62.1414C247.994 62.2793 247.818 62.3482 247.611 62.3482Z" fill="#FAFAF9"/>
</g>
<rect x="216.6" y="88.6001" width="136.6" height="33.6" rx="16.8" fill="#0C0A09"/>
<path d="M239.17 107.623H248.295C248.376 107.623 248.453 107.592 248.51 107.537C248.568 107.482 248.6 107.408 248.6 107.331V105.4C248.6 105.39 248.6 105.38 248.6 105.37C248.598 105.356 248.595 105.342 248.591 105.328C248.591 105.326 248.591 105.324 248.591 105.322C248.587 105.308 248.582 105.294 248.576 105.281L248.573 105.275C248.567 105.261 248.559 105.249 248.551 105.237C248.542 105.225 248.533 105.214 248.523 105.204L248.517 105.198C248.507 105.188 248.496 105.179 248.485 105.17L248.478 105.166C248.466 105.157 248.453 105.149 248.439 105.143L243.989 103.213L243.982 103.211L243.964 103.203L243.952 103.198L243.936 103.193L243.921 103.19L243.908 103.187L243.889 103.184H243.878H243.857H234.227L231.118 101.839H240.561C240.642 101.839 240.72 101.808 240.777 101.753C240.834 101.698 240.866 101.624 240.866 101.547V99.6182C240.866 99.6062 240.865 99.5943 240.864 99.5824V99.5753C240.859 99.5456 240.85 99.5168 240.836 99.4899L240.834 99.4849C240.827 99.4722 240.819 99.4599 240.81 99.4482C240.809 99.4461 240.807 99.4442 240.805 99.4424C240.796 99.4307 240.786 99.4198 240.776 99.4099L240.772 99.4061C240.76 99.396 240.748 99.3867 240.735 99.3782C240.721 99.3695 240.707 99.3617 240.692 99.3548H240.689L236.232 97.4257C236.193 97.4086 236.15 97.3998 236.106 97.3999H229.704C229.687 97.4 229.671 97.4014 229.655 97.4041H229.648C229.633 97.4068 229.619 97.4105 229.604 97.4153L229.598 97.4178C229.583 97.4225 229.568 97.4286 229.554 97.4362H229.551C229.538 97.4431 229.525 97.4512 229.513 97.4603L229.51 97.4624C229.499 97.4715 229.488 97.4814 229.478 97.492L229.472 97.4978C229.462 97.5086 229.454 97.52 229.446 97.532C229.444 97.534 229.443 97.5361 229.441 97.5383C229.433 97.5509 229.426 97.5641 229.42 97.5779V97.5808C229.414 97.5954 229.409 97.6104 229.406 97.6258C229.403 97.6406 229.401 97.6556 229.4 97.6708C229.4 97.6737 229.4 97.6766 229.4 97.6795C229.4 97.6825 229.4 97.6845 229.4 97.687V99.6161C229.4 99.6722 229.417 99.727 229.449 99.7741C229.48 99.8211 229.526 99.8585 229.579 99.8816L232.747 101.252H229.704C229.687 101.252 229.671 101.253 229.655 101.256H229.648C229.633 101.259 229.619 101.263 229.604 101.267L229.598 101.27C229.583 101.275 229.568 101.281 229.554 101.288L229.551 101.29C229.538 101.297 229.525 101.305 229.513 101.314L229.51 101.316C229.499 101.326 229.488 101.336 229.478 101.346L229.472 101.352C229.462 101.363 229.453 101.374 229.446 101.386L229.441 101.392C229.433 101.406 229.426 101.42 229.42 101.434V101.437C229.414 101.451 229.409 101.467 229.406 101.482C229.403 101.497 229.401 101.512 229.4 101.527C229.4 101.53 229.4 101.533 229.4 101.536C229.4 101.539 229.4 101.54 229.4 101.543V103.472C229.4 103.528 229.417 103.583 229.449 103.63C229.48 103.677 229.526 103.715 229.579 103.738L232.747 105.108H229.704C229.687 105.109 229.671 105.11 229.655 105.112H229.648C229.633 105.115 229.619 105.118 229.604 105.123L229.598 105.126C229.583 105.131 229.568 105.137 229.554 105.144H229.551C229.538 105.151 229.525 105.159 229.513 105.168C229.512 105.169 229.511 105.17 229.51 105.17C229.499 105.18 229.488 105.189 229.478 105.2L229.472 105.206C229.462 105.217 229.454 105.228 229.446 105.24C229.444 105.242 229.443 105.244 229.441 105.246C229.433 105.26 229.426 105.274 229.42 105.288V105.291C229.414 105.305 229.409 105.321 229.406 105.336C229.403 105.351 229.401 105.366 229.4 105.381C229.4 105.384 229.4 105.387 229.4 105.39C229.4 105.393 229.4 105.395 229.4 105.397V107.326C229.4 107.382 229.417 107.437 229.449 107.484C229.48 107.531 229.526 107.569 229.579 107.592L232.747 108.968H229.704C229.687 108.968 229.671 108.969 229.655 108.972H229.648C229.633 108.975 229.619 108.979 229.604 108.983L229.598 108.986C229.583 108.991 229.568 108.997 229.554 109.004L229.551 109.006C229.538 109.013 229.525 109.021 229.513 109.03H229.51C229.499 109.039 229.488 109.05 229.478 109.06L229.472 109.066C229.462 109.077 229.454 109.088 229.446 109.1L229.441 109.106C229.433 109.119 229.426 109.132 229.42 109.146V109.149C229.414 109.163 229.409 109.178 229.406 109.194C229.403 109.208 229.401 109.223 229.4 109.238C229.4 109.241 229.4 109.244 229.4 109.247C229.4 109.251 229.4 109.252 229.4 109.255V111.184C229.4 111.24 229.417 111.295 229.449 111.342C229.48 111.389 229.526 111.426 229.579 111.45L234.036 113.378C234.044 113.382 234.052 113.384 234.059 113.387L234.066 113.389C234.074 113.392 234.083 113.394 234.091 113.396H234.097C234.106 113.398 234.115 113.399 234.124 113.4H234.128C234.139 113.4 234.149 113.4 234.16 113.4H248.294C248.375 113.4 248.452 113.369 248.51 113.314C248.567 113.26 248.599 113.186 248.599 113.108V111.189C248.599 111.177 248.598 111.165 248.596 111.153V111.146C248.592 111.117 248.583 111.089 248.569 111.062L248.566 111.057C248.559 111.044 248.552 111.032 248.543 111.021L248.538 111.014C248.529 111.003 248.519 110.992 248.509 110.982L248.504 110.978C248.493 110.968 248.481 110.959 248.469 110.95C248.455 110.942 248.44 110.934 248.425 110.927H248.422L243.965 108.999C243.926 108.981 243.883 108.973 243.839 108.972H234.466V107.627L239.17 107.623ZM234.466 101.252V99.9066H240.256V101.252H234.466ZM236.036 97.9775L239.145 99.3232H234.227L231.118 97.9775H236.036ZM230.008 98.1384L233.854 99.8028V101.091L230.008 99.4244V98.1384ZM235.518 105.108H234.466V103.763H243.771L246.881 105.108H235.518ZM230.009 101.994L233.855 103.659V104.948L230.009 103.283V101.994ZM234.161 105.692H247.989V107.037H234.227L231.118 105.692H234.161ZM230.009 105.852L233.855 107.519V108.808L230.009 107.141V105.852ZM230.009 109.71L233.855 111.375V112.664L230.009 110.999V109.71ZM234.466 112.824V111.48H247.989V112.826L234.466 112.824ZM243.771 109.55L246.881 110.897H234.227L231.118 109.551H243.771V109.55Z" fill="white"/>
<path d="M254.432 101.518V99.9272H262.788V101.518H259.551V110.4H257.669V101.518H254.432ZM266.655 110.553C265.867 110.553 265.187 110.39 264.615 110.062C264.045 109.732 263.607 109.265 263.3 108.661C262.994 108.054 262.84 107.34 262.84 106.519C262.84 105.711 262.994 105.002 263.3 104.391C263.611 103.778 264.044 103.3 264.599 102.96C265.155 102.615 265.808 102.443 266.558 102.443C267.042 102.443 267.499 102.521 267.928 102.678C268.361 102.832 268.743 103.07 269.074 103.394C269.408 103.718 269.67 104.131 269.861 104.632C270.052 105.129 270.147 105.723 270.147 106.411V106.979H263.709V105.731H268.373C268.37 105.377 268.293 105.061 268.143 104.785C267.993 104.506 267.783 104.286 267.514 104.125C267.248 103.965 266.938 103.885 266.583 103.885C266.205 103.885 265.872 103.977 265.586 104.161C265.3 104.342 265.076 104.581 264.916 104.877C264.759 105.17 264.679 105.493 264.676 105.844V106.933C264.676 107.39 264.759 107.782 264.926 108.109C265.094 108.433 265.327 108.682 265.627 108.856C265.927 109.026 266.278 109.111 266.68 109.111C266.95 109.111 267.194 109.074 267.412 108.999C267.63 108.92 267.819 108.806 267.979 108.656C268.14 108.506 268.261 108.32 268.342 108.099L270.071 108.293C269.962 108.75 269.754 109.149 269.447 109.49C269.144 109.827 268.755 110.09 268.281 110.277C267.807 110.461 267.265 110.553 266.655 110.553ZM273.565 105.798V110.4H271.714V102.545H273.483V103.88H273.575C273.756 103.44 274.044 103.091 274.439 102.832C274.838 102.573 275.331 102.443 275.917 102.443C276.459 102.443 276.931 102.559 277.333 102.791C277.739 103.023 278.053 103.358 278.274 103.798C278.499 104.238 278.61 104.771 278.607 105.399V110.4H276.756V105.685C276.756 105.16 276.619 104.749 276.346 104.453C276.077 104.156 275.704 104.008 275.227 104.008C274.903 104.008 274.615 104.079 274.362 104.223C274.114 104.362 273.918 104.565 273.774 104.831C273.635 105.097 273.565 105.419 273.565 105.798ZM286.696 104.621L285.009 104.806C284.961 104.635 284.878 104.475 284.758 104.325C284.643 104.175 284.486 104.054 284.288 103.962C284.09 103.87 283.848 103.824 283.562 103.824C283.177 103.824 282.853 103.907 282.59 104.074C282.331 104.241 282.203 104.458 282.207 104.724C282.203 104.952 282.287 105.138 282.457 105.281C282.631 105.424 282.918 105.542 283.316 105.634L284.656 105.92C285.399 106.081 285.952 106.335 286.313 106.682C286.678 107.03 286.862 107.485 286.865 108.048C286.862 108.542 286.717 108.978 286.431 109.357C286.148 109.732 285.754 110.025 285.249 110.236C284.745 110.448 284.165 110.553 283.511 110.553C282.549 110.553 281.775 110.352 281.189 109.95C280.603 109.544 280.253 108.98 280.141 108.257L281.946 108.083C282.028 108.438 282.202 108.706 282.468 108.886C282.733 109.067 283.079 109.157 283.506 109.157C283.945 109.157 284.298 109.067 284.564 108.886C284.833 108.706 284.968 108.482 284.968 108.216C284.968 107.991 284.881 107.806 284.707 107.659C284.537 107.512 284.271 107.4 283.91 107.321L282.57 107.04C281.816 106.883 281.259 106.619 280.898 106.248C280.536 105.873 280.357 105.399 280.361 104.826C280.357 104.342 280.489 103.923 280.754 103.568C281.024 103.21 281.397 102.934 281.874 102.74C282.355 102.542 282.909 102.443 283.536 102.443C284.457 102.443 285.181 102.639 285.71 103.031C286.241 103.423 286.57 103.953 286.696 104.621ZM291.818 110.553C291.051 110.553 290.386 110.385 289.823 110.047C289.261 109.71 288.825 109.237 288.514 108.631C288.208 108.024 288.054 107.315 288.054 106.503C288.054 105.692 288.208 104.981 288.514 104.371C288.825 103.761 289.261 103.287 289.823 102.949C290.386 102.612 291.051 102.443 291.818 102.443C292.585 102.443 293.25 102.612 293.812 102.949C294.375 103.287 294.809 103.761 295.116 104.371C295.426 104.981 295.581 105.692 295.581 106.503C295.581 107.315 295.426 108.024 295.116 108.631C294.809 109.237 294.375 109.71 293.812 110.047C293.25 110.385 292.585 110.553 291.818 110.553ZM291.828 109.07C292.244 109.07 292.592 108.956 292.871 108.728C293.151 108.496 293.359 108.186 293.495 107.797C293.635 107.408 293.705 106.975 293.705 106.498C293.705 106.018 293.635 105.583 293.495 105.194C293.359 104.802 293.151 104.49 292.871 104.258C292.592 104.027 292.244 103.911 291.828 103.911C291.402 103.911 291.047 104.027 290.764 104.258C290.485 104.49 290.275 104.802 290.135 105.194C289.999 105.583 289.931 106.018 289.931 106.498C289.931 106.975 289.999 107.408 290.135 107.797C290.275 108.186 290.485 108.496 290.764 108.728C291.047 108.956 291.402 109.07 291.828 109.07ZM297.153 110.4V102.545H298.947V103.854H299.029C299.172 103.401 299.418 103.052 299.766 102.806C300.117 102.557 300.517 102.433 300.967 102.433C301.07 102.433 301.184 102.438 301.31 102.448C301.44 102.455 301.547 102.467 301.632 102.484V104.187C301.554 104.16 301.429 104.136 301.259 104.115C301.092 104.091 300.93 104.079 300.773 104.079C300.436 104.079 300.132 104.153 299.863 104.299C299.597 104.443 299.387 104.642 299.234 104.898C299.08 105.153 299.004 105.448 299.004 105.782V110.4H297.153ZM302.944 110.4V99.9272H306.953C307.71 99.9272 308.339 100.046 308.84 100.285C309.344 100.52 309.721 100.843 309.97 101.252C310.222 101.661 310.348 102.124 310.348 102.643C310.348 103.069 310.267 103.433 310.103 103.737C309.939 104.037 309.719 104.281 309.443 104.468C309.167 104.656 308.859 104.79 308.518 104.872V104.974C308.889 104.995 309.245 105.109 309.586 105.317C309.931 105.521 310.212 105.811 310.43 106.186C310.648 106.561 310.757 107.015 310.757 107.546C310.757 108.089 310.626 108.576 310.364 109.009C310.101 109.439 309.706 109.778 309.177 110.027C308.649 110.275 307.984 110.4 307.183 110.4H302.944ZM304.841 108.815H306.881C307.57 108.815 308.066 108.683 308.369 108.421C308.676 108.155 308.83 107.814 308.83 107.398C308.83 107.088 308.753 106.808 308.599 106.56C308.446 106.307 308.228 106.11 307.945 105.966C307.662 105.82 307.324 105.746 306.932 105.746H304.841V108.815ZM304.841 104.381H306.718C307.045 104.381 307.34 104.321 307.602 104.202C307.865 104.079 308.071 103.907 308.221 103.686C308.374 103.461 308.451 103.195 308.451 102.888C308.451 102.482 308.308 102.148 308.022 101.886C307.739 101.623 307.318 101.492 306.759 101.492H304.841V104.381ZM314.177 99.9272V110.4H312.326V99.9272H314.177ZM319.507 110.553C318.74 110.553 318.075 110.385 317.513 110.047C316.95 109.71 316.514 109.237 316.203 108.631C315.897 108.024 315.743 107.315 315.743 106.503C315.743 105.692 315.897 104.981 316.203 104.371C316.514 103.761 316.95 103.287 317.513 102.949C318.075 102.612 318.74 102.443 319.507 102.443C320.274 102.443 320.939 102.612 321.501 102.949C322.064 103.287 322.498 103.761 322.805 104.371C323.115 104.981 323.27 105.692 323.27 106.503C323.27 107.315 323.115 108.024 322.805 108.631C322.498 109.237 322.064 109.71 321.501 110.047C320.939 110.385 320.274 110.553 319.507 110.553ZM319.517 109.07C319.933 109.07 320.281 108.956 320.56 108.728C320.84 108.496 321.048 108.186 321.184 107.797C321.324 107.408 321.394 106.975 321.394 106.498C321.394 106.018 321.324 105.583 321.184 105.194C321.048 104.802 320.84 104.49 320.56 104.258C320.281 104.027 319.933 103.911 319.517 103.911C319.091 103.911 318.736 104.027 318.453 104.258C318.174 104.49 317.964 104.802 317.824 105.194C317.688 105.583 317.62 106.018 317.62 106.498C317.62 106.975 317.688 107.408 317.824 107.797C317.964 108.186 318.174 108.496 318.453 108.728C318.736 108.956 319.091 109.07 319.517 109.07ZM328.268 110.553C327.484 110.553 326.81 110.381 326.248 110.037C325.689 109.693 325.258 109.217 324.954 108.61C324.654 108 324.504 107.298 324.504 106.503C324.504 105.706 324.658 105.002 324.964 104.391C325.271 103.778 325.704 103.3 326.263 102.96C326.826 102.615 327.491 102.443 328.258 102.443C328.895 102.443 329.459 102.561 329.95 102.796C330.445 103.028 330.838 103.357 331.131 103.783C331.425 104.206 331.592 104.7 331.633 105.266H329.863C329.792 104.887 329.621 104.572 329.352 104.32C329.086 104.064 328.73 103.936 328.283 103.936C327.905 103.936 327.572 104.039 327.286 104.243C327 104.444 326.776 104.734 326.616 105.112C326.459 105.491 326.381 105.944 326.381 106.473C326.381 107.008 326.459 107.468 326.616 107.853C326.773 108.235 326.993 108.53 327.276 108.738C327.562 108.943 327.898 109.045 328.283 109.045C328.556 109.045 328.8 108.994 329.014 108.891C329.233 108.786 329.415 108.634 329.562 108.436C329.708 108.239 329.809 107.998 329.863 107.715H331.633C331.588 108.271 331.425 108.764 331.142 109.193C330.859 109.619 330.473 109.953 329.986 110.195C329.498 110.434 328.926 110.553 328.268 110.553ZM334.84 107.935L334.835 105.7H335.132L337.954 102.545H340.117L336.645 106.411H336.262L334.84 107.935ZM333.153 110.4V99.9272H335.004V110.4H333.153ZM338.082 110.4L335.525 106.825L336.773 105.521L340.296 110.4H338.082Z" fill="#FAFAF9"/>
</g>
<defs>
<filter id="filter0_f_1548_750" x="74.5999" y="80.2" width="51.2001" height="51.2001" filterUnits="userSpaceOnUse" color-interpolation-filters="sRGB">
<feFlood flood-opacity="0" result="BackgroundImageFix"/>
<feBlend mode="normal" in="SourceGraphic" in2="BackgroundImageFix" result="shape"/>
<feGaussianBlur stdDeviation="3.4" result="effect1_foregroundBlur_1548_750"/>
</filter>
<filter id="filter1_f_1548_750" x="82.5201" y="88.92" width="34.5599" height="33.7601" filterUnits="userSpaceOnUse" color-interpolation-filters="sRGB">
<feFlood flood-opacity="0" result="BackgroundImageFix"/>
<feBlend mode="normal" in="SourceGraphic" in2="BackgroundImageFix" result="shape"/>
<feGaussianBlur stdDeviation="3.04" result="effect1_foregroundBlur_1548_750"/>
</filter>
<linearGradient id="paint0_linear_1548_750" x1="16.4414" y1="0" x2="16.4414" y2="216.8" gradientUnits="userSpaceOnUse">
<stop stop-color="#F8F7F3" stop-opacity="0"/>
<stop offset="0.480769" stop-color="#D9D2B6"/>
<stop offset="1" stop-color="#F8F7F3" stop-opacity="0"/>
</linearGradient>
<linearGradient id="paint1_linear_1548_750" x1="409.688" y1="13.2539" x2="0.000244099" y2="13.2539" gradientUnits="userSpaceOnUse">
<stop stop-color="#F8F7F3" stop-opacity="0"/>
<stop offset="0.480769" stop-color="#D9D2B6"/>
<stop offset="1" stop-color="#F8F7F3" stop-opacity="0"/>
</linearGradient>
<linearGradient id="paint2_linear_1548_750" x1="40.353" y1="0" x2="40.353" y2="216.8" gradientUnits="userSpaceOnUse">
<stop stop-color="#F8F7F3" stop-opacity="0"/>
<stop offset="0.480769" stop-color="#D9D2B6"/>
<stop offset="1" stop-color="#F8F7F3" stop-opacity="0"/>
</linearGradient>
<linearGradient id="paint3_linear_1548_750" x1="409.688" y1="37.1641" x2="0.000244099" y2="37.164" gradientUnits="userSpaceOnUse">
<stop stop-color="#F8F7F3" stop-opacity="0"/>
<stop offset="0.480769" stop-color="#D9D2B6"/>
<stop offset="1" stop-color="#F8F7F3" stop-opacity="0"/>
</linearGradient>
<linearGradient id="paint4_linear_1548_750" x1="64.2646" y1="0" x2="64.2646" y2="216.8" gradientUnits="userSpaceOnUse">
<stop stop-color="#F8F7F3" stop-opacity="0"/>
<stop offset="0.480769" stop-color="#D9D2B6"/>
<stop offset="1" stop-color="#F8F7F3" stop-opacity="0"/>
</linearGradient>
<linearGradient id="paint5_linear_1548_750" x1="409.688" y1="61.0762" x2="0.000244099" y2="61.0761" gradientUnits="userSpaceOnUse">
<stop stop-color="#F8F7F3" stop-opacity="0"/>
<stop offset="0.480769" stop-color="#D9D2B6"/>
<stop offset="1" stop-color="#F8F7F3" stop-opacity="0"/>
</linearGradient>
<linearGradient id="paint6_linear_1548_750" x1="88.1768" y1="0" x2="88.1768" y2="216.8" gradientUnits="userSpaceOnUse">
<stop stop-color="#F8F7F3" stop-opacity="0"/>
<stop offset="0.480769" stop-color="#D9D2B6"/>
<stop offset="1" stop-color="#F8F7F3" stop-opacity="0"/>
</linearGradient>
<linearGradient id="paint7_linear_1548_750" x1="409.688" y1="84.9885" x2="0.000244099" y2="84.9885" gradientUnits="userSpaceOnUse">
<stop stop-color="#F8F7F3" stop-opacity="0"/>
<stop offset="0.480769" stop-color="#D9D2B6"/>
<stop offset="1" stop-color="#F8F7F3" stop-opacity="0"/>
</linearGradient>
<linearGradient id="paint8_linear_1548_750" x1="112.088" y1="0" x2="112.088" y2="216.8" gradientUnits="userSpaceOnUse">
<stop stop-color="#F8F7F3" stop-opacity="0"/>
<stop offset="0.480769" stop-color="#D9D2B6"/>
<stop offset="1" stop-color="#F8F7F3" stop-opacity="0"/>
</linearGradient>
<linearGradient id="paint9_linear_1548_750" x1="409.688" y1="108.9" x2="0.000244099" y2="108.9" gradientUnits="userSpaceOnUse">
<stop stop-color="#F8F7F3" stop-opacity="0"/>
<stop offset="0.480769" stop-color="#D9D2B6"/>
<stop offset="1" stop-color="#F8F7F3" stop-opacity="0"/>
</linearGradient>
<linearGradient id="paint10_linear_1548_750" x1="136" y1="0" x2="136" y2="216.8" gradientUnits="userSpaceOnUse">
<stop stop-color="#F8F7F3" stop-opacity="0"/>
<stop offset="0.480769" stop-color="#D9D2B6"/>
<stop offset="1" stop-color="#F8F7F3" stop-opacity="0"/>
</linearGradient>
<linearGradient id="paint11_linear_1548_750" x1="409.688" y1="132.812" x2="0.000244099" y2="132.812" gradientUnits="userSpaceOnUse">
<stop stop-color="#F8F7F3" stop-opacity="0"/>
<stop offset="0.480769" stop-color="#D9D2B6"/>
<stop offset="1" stop-color="#F8F7F3" stop-opacity="0"/>
</linearGradient>
<linearGradient id="paint12_linear_1548_750" x1="159.912" y1="0" x2="159.912" y2="216.8" gradientUnits="userSpaceOnUse">
<stop stop-color="#F8F7F3" stop-opacity="0"/>
<stop offset="0.480769" stop-color="#D9D2B6"/>
<stop offset="1" stop-color="#F8F7F3" stop-opacity="0"/>
</linearGradient>
<linearGradient id="paint13_linear_1548_750" x1="409.688" y1="156.725" x2="0.000244099" y2="156.725" gradientUnits="userSpaceOnUse">
<stop stop-color="#F8F7F3" stop-opacity="0"/>
<stop offset="0.480769" stop-color="#D9D2B6"/>
<stop offset="1" stop-color="#F8F7F3" stop-opacity="0"/>
</linearGradient>
<linearGradient id="paint14_linear_1548_750" x1="183.824" y1="0" x2="183.824" y2="216.8" gradientUnits="userSpaceOnUse">
<stop stop-color="#F8F7F3" stop-opacity="0"/>
<stop offset="0.480769" stop-color="#D9D2B6"/>
<stop offset="1" stop-color="#F8F7F3" stop-opacity="0"/>
</linearGradient>
<linearGradient id="paint15_linear_1548_750" x1="409.688" y1="180.635" x2="0.000244099" y2="180.635" gradientUnits="userSpaceOnUse">
<stop stop-color="#F8F7F3" stop-opacity="0"/>
<stop offset="0.480769" stop-color="#D9D2B6"/>
<stop offset="1" stop-color="#F8F7F3" stop-opacity="0"/>
</linearGradient>
<linearGradient id="paint16_linear_1548_750" x1="207.735" y1="0" x2="207.735" y2="216.8" gradientUnits="userSpaceOnUse">
<stop stop-color="#F8F7F3" stop-opacity="0"/>
<stop offset="0.480769" stop-color="#D9D2B6"/>
<stop offset="1" stop-color="#F8F7F3" stop-opacity="0"/>
</linearGradient>
<linearGradient id="paint17_linear_1548_750" x1="409.688" y1="204.547" x2="0.000244099" y2="204.547" gradientUnits="userSpaceOnUse">
<stop stop-color="#F8F7F3" stop-opacity="0"/>
<stop offset="0.480769" stop-color="#D9D2B6"/>
<stop offset="1" stop-color="#F8F7F3" stop-opacity="0"/>
</linearGradient>
<linearGradient id="paint18_linear_1548_750" x1="231.647" y1="0" x2="231.647" y2="216.8" gradientUnits="userSpaceOnUse">
<stop stop-color="#F8F7F3" stop-opacity="0"/>
<stop offset="0.480769" stop-color="#D9D2B6"/>
<stop offset="1" stop-color="#F8F7F3" stop-opacity="0"/>
</linearGradient>
<linearGradient id="paint19_linear_1548_750" x1="255.559" y1="0" x2="255.559" y2="216.8" gradientUnits="userSpaceOnUse">
<stop stop-color="#F8F7F3" stop-opacity="0"/>
<stop offset="0.480769" stop-color="#D9D2B6"/>
<stop offset="1" stop-color="#F8F7F3" stop-opacity="0"/>
</linearGradient>
<linearGradient id="paint20_linear_1548_750" x1="279.471" y1="0" x2="279.471" y2="216.8" gradientUnits="userSpaceOnUse">
<stop stop-color="#F8F7F3" stop-opacity="0"/>
<stop offset="0.480769" stop-color="#D9D2B6"/>
<stop offset="1" stop-color="#F8F7F3" stop-opacity="0"/>
</linearGradient>
<linearGradient id="paint21_linear_1548_750" x1="303.382" y1="0" x2="303.382" y2="216.8" gradientUnits="userSpaceOnUse">
<stop stop-color="#F8F7F3" stop-opacity="0"/>
<stop offset="0.480769" stop-color="#D9D2B6"/>
<stop offset="1" stop-color="#F8F7F3" stop-opacity="0"/>
</linearGradient>
<linearGradient id="paint22_linear_1548_750" x1="327.294" y1="0" x2="327.294" y2="216.8" gradientUnits="userSpaceOnUse">
<stop stop-color="#F8F7F3" stop-opacity="0"/>
<stop offset="0.480769" stop-color="#D9D2B6"/>
<stop offset="1" stop-color="#F8F7F3" stop-opacity="0"/>
</linearGradient>
<linearGradient id="paint23_linear_1548_750" x1="109.4" y1="106.2" x2="330.2" y2="106.2" gradientUnits="userSpaceOnUse">
<stop stop-color="#B5B09B"/>
<stop offset="1" stop-color="white" stop-opacity="0"/>
</linearGradient>
<linearGradient id="paint24_linear_1548_750" x1="183.8" y1="1657.4" x2="1283.48" y2="543.72" gradientUnits="userSpaceOnUse">
<stop stop-color="#1C7DFF"/>
<stop offset="0.52021" stop-color="#1C69FF"/>
<stop offset="1" stop-color="#F0DCD6"/>
</linearGradient>
<clipPath id="clip0_1548_750">
<rect width="342" height="288" rx="16" fill="white"/>
</clipPath>
<clipPath id="clip1_1548_750">
<rect width="16" height="16" fill="white" transform="translate(273.4 35.8)"/>
</clipPath>
<clipPath id="clip2_1548_750">
<rect width="16" height="16" fill="white" transform="translate(294.2 146.2)"/>
</clipPath>
<clipPath id="clip3_1548_750">
<rect width="16" height="16" fill="white" transform="translate(183.8 57.3999)"/>
</clipPath>
</defs>
</svg>
