<svg width="342" height="288" viewBox="0 0 342 288" fill="none" xmlns="http://www.w3.org/2000/svg">
<g clip-path="url(#clip0_1548_601)">
<rect width="342" height="288" rx="16" fill="#3E3B32"/>
<g opacity="0.2">
<path d="M16.8525 -15V201.8" stroke="url(#paint0_linear_1548_601)" stroke-width="0.6" stroke-linecap="round" stroke-linejoin="round"/>
<path d="M386.688 21.6641L-23.0003 21.6641" stroke="url(#paint1_linear_1548_601)" stroke-width="0.6" stroke-linecap="round" stroke-linejoin="round"/>
<path d="M40.7646 -15V201.8" stroke="url(#paint2_linear_1548_601)" stroke-width="0.6" stroke-linecap="round" stroke-linejoin="round"/>
<path d="M386.688 45.5762L-23.0003 45.5762" stroke="url(#paint3_linear_1548_601)" stroke-width="0.6" stroke-linecap="round" stroke-linejoin="round"/>
<path d="M64.6763 -15V201.8" stroke="url(#paint4_linear_1548_601)" stroke-width="0.6" stroke-linecap="round" stroke-linejoin="round"/>
<path d="M386.688 69.4885L-23.0003 69.4885" stroke="url(#paint5_linear_1548_601)" stroke-width="0.6" stroke-linecap="round" stroke-linejoin="round"/>
<path d="M88.5879 -15V201.8" stroke="url(#paint6_linear_1548_601)" stroke-width="0.6" stroke-linecap="round" stroke-linejoin="round"/>
<path d="M386.688 93.4003L-23.0003 93.4003" stroke="url(#paint7_linear_1548_601)" stroke-width="0.6" stroke-linecap="round" stroke-linejoin="round"/>
<path d="M112.5 -15V201.8" stroke="url(#paint8_linear_1548_601)" stroke-width="0.6" stroke-linecap="round" stroke-linejoin="round"/>
<path d="M386.688 117.312L-23.0003 117.312" stroke="url(#paint9_linear_1548_601)" stroke-width="0.6" stroke-linecap="round" stroke-linejoin="round"/>
<path d="M136.412 -15V201.8" stroke="url(#paint10_linear_1548_601)" stroke-width="0.6" stroke-linecap="round" stroke-linejoin="round"/>
<path d="M386.688 141.225L-23.0003 141.225" stroke="url(#paint11_linear_1548_601)" stroke-width="0.6" stroke-linecap="round" stroke-linejoin="round"/>
<path d="M160.323 -15V201.8" stroke="url(#paint12_linear_1548_601)" stroke-width="0.6" stroke-linecap="round" stroke-linejoin="round"/>
<path d="M386.688 165.135L-23.0003 165.135" stroke="url(#paint13_linear_1548_601)" stroke-width="0.6" stroke-linecap="round" stroke-linejoin="round"/>
<path d="M184.235 -15V201.8" stroke="url(#paint14_linear_1548_601)" stroke-width="0.6" stroke-linecap="round" stroke-linejoin="round"/>
<path d="M386.688 189.047L-23.0003 189.047" stroke="url(#paint15_linear_1548_601)" stroke-width="0.6" stroke-linecap="round" stroke-linejoin="round"/>
<path d="M208.147 -15V201.8" stroke="url(#paint16_linear_1548_601)" stroke-width="0.6" stroke-linecap="round" stroke-linejoin="round"/>
<path d="M232.059 -15V201.8" stroke="url(#paint17_linear_1548_601)" stroke-width="0.6" stroke-linecap="round" stroke-linejoin="round"/>
<path d="M255.971 -15V201.8" stroke="url(#paint18_linear_1548_601)" stroke-width="0.6" stroke-linecap="round" stroke-linejoin="round"/>
<path d="M279.882 -15V201.8" stroke="url(#paint19_linear_1548_601)" stroke-width="0.6" stroke-linecap="round" stroke-linejoin="round"/>
<path d="M303.794 -15V201.8" stroke="url(#paint20_linear_1548_601)" stroke-width="0.6" stroke-linecap="round" stroke-linejoin="round"/>
<path d="M327.706 -15V201.8" stroke="url(#paint21_linear_1548_601)" stroke-width="0.6" stroke-linecap="round" stroke-linejoin="round"/>
</g>
<g filter="url(#filter0_f_1548_601)">
<circle cx="172" cy="407" r="318" fill="#36332C" fill-opacity="0.5"/>
</g>
<path d="M267 153C246.167 141.5 202.8 105 196 51" stroke="url(#paint22_linear_1548_601)" stroke-width="4"/>
<path d="M232 178C216.167 163.167 184.5 117.7 184.5 54.5" stroke="url(#paint23_linear_1548_601)" stroke-width="4"/>
<path d="M75 153C95.8333 141.5 139.2 105 146 51" stroke="url(#paint24_linear_1548_601)" stroke-width="4"/>
<path d="M110 178C125.833 163.167 157.5 117.7 157.5 54.5" stroke="url(#paint25_linear_1548_601)" stroke-width="4"/>
<g filter="url(#filter1_di_1548_601)">
<path d="M111 -0.5C111 -33.9132 138.087 -61 171.5 -61V-61C204.913 -61 232 -33.9132 232 -0.5V-0.5C232 32.9132 204.913 60 171.5 60V60C138.087 60 111 32.9132 111 -0.5V-0.5Z" fill="#F1EFE8"/>
<path d="M172.532 16.3112H201.046C201.299 16.3112 201.542 16.2171 201.721 16.0496C201.899 15.8821 202 15.6549 202 15.418V9.5064C202 9.4745 202 9.44388 202 9.41453C201.994 9.37145 201.985 9.32881 201.973 9.28694C201.973 9.28057 201.973 9.27414 201.973 9.26778C201.961 9.2241 201.945 9.18142 201.925 9.14018L201.917 9.12233C201.897 9.08185 201.873 9.04302 201.846 9.00623C201.82 8.97067 201.79 8.93697 201.759 8.90542L201.742 8.88882C201.71 8.85834 201.676 8.8298 201.64 8.80334L201.618 8.78929C201.58 8.76236 201.539 8.73848 201.497 8.71785L187.59 2.81137L187.568 2.80243L187.512 2.77819L187.475 2.76542L187.426 2.75012L187.379 2.73863L187.336 2.73096L187.279 2.72205H187.245H187.178H157.083L147.368 -1.39806L201.044 -1.4096C201.297 -1.4096 201.54 -1.5037 201.719 -1.67121C201.898 -1.83871 201.999 -2.06589 201.999 -2.30278V-8.20799C201.998 -8.24468 201.995 -8.28132 201.99 -8.31774V-8.33942C201.977 -8.43028 201.948 -8.51855 201.905 -8.601L201.896 -8.6163C201.874 -8.65517 201.85 -8.69269 201.823 -8.7286C201.818 -8.73486 201.813 -8.74081 201.808 -8.74645C201.78 -8.78223 201.749 -8.81556 201.715 -8.84598L201.703 -8.85747C201.667 -8.88841 201.629 -8.91697 201.59 -8.94295C201.546 -8.96951 201.5 -8.99338 201.453 -9.01442H201.445L187.518 -14.9209C187.394 -14.9732 187.26 -15.0002 187.124 -15L142.949 -14.9885C142.898 -14.9881 142.847 -14.9839 142.797 -14.9757H142.776C142.729 -14.9674 142.684 -14.9559 142.639 -14.9413L142.619 -14.9336C142.571 -14.9194 142.526 -14.9006 142.483 -14.8775H142.472C142.43 -14.8562 142.391 -14.8315 142.354 -14.8035L142.345 -14.7971C142.309 -14.7692 142.274 -14.7389 142.243 -14.7065L142.225 -14.6886C142.195 -14.6557 142.168 -14.6207 142.143 -14.584C142.138 -14.5779 142.134 -14.5715 142.13 -14.5648C142.104 -14.5262 142.082 -14.4856 142.064 -14.4436V-14.4347C142.045 -14.39 142.03 -14.3439 142.019 -14.2969C142.009 -14.2516 142.002 -14.2054 142 -14.1591C142 -14.1502 142 -14.1412 142 -14.1323C142 -14.1234 142 -14.117 142 -14.1093V-8.20285C142 -8.03131 142.053 -7.86345 142.152 -7.71931C142.252 -7.57518 142.393 -7.46086 142.56 -7.39004L152.461 -3.19465H142.949C142.898 -3.19431 142.847 -3.19003 142.797 -3.18187H142.776C142.729 -3.173 142.684 -3.16149 142.639 -3.14742L142.619 -3.13979C142.572 -3.12443 142.526 -3.10563 142.483 -3.08362L142.472 -3.07727C142.431 -3.05557 142.391 -3.03082 142.354 -3.00325L142.345 -2.99686C142.308 -2.9689 142.274 -2.93817 142.243 -2.905L142.225 -2.88712C142.195 -2.85485 142.167 -2.8203 142.143 -2.78379L142.13 -2.76463C142.104 -2.72378 142.082 -2.68112 142.064 -2.63703V-2.62812C142.045 -2.58345 142.03 -2.53734 142.019 -2.49031C142.009 -2.44496 142.002 -2.39885 142 -2.35249C142 -2.34356 142 -2.33463 142 -2.3257C142 -2.31677 142 -2.31167 142 -2.30402V3.60246C142 3.77421 142.053 3.94236 142.152 4.08675C142.251 4.23113 142.393 4.34564 142.56 4.41655L152.461 8.61322H142.949C142.898 8.61375 142.848 8.6176 142.797 8.62471H142.776C142.729 8.63243 142.684 8.64396 142.639 8.65917L142.619 8.6668C142.572 8.68118 142.526 8.69957 142.483 8.72169H142.472C142.43 8.74382 142.391 8.76897 142.354 8.79695C142.351 8.79832 142.347 8.80052 142.345 8.80334C142.309 8.83121 142.274 8.86148 142.243 8.89392L142.225 8.91181C142.195 8.94475 142.168 8.9797 142.143 9.01641C142.138 9.02249 142.134 9.0289 142.13 9.03557C142.104 9.07628 142.082 9.11897 142.064 9.16317V9.17208C142.045 9.21669 142.03 9.26281 142.019 9.30989C142.009 9.35524 142.002 9.40135 142 9.44771C142 9.45664 142 9.46557 142 9.4745C142 9.48343 142 9.4898 142 9.49746V15.4039C142 15.5755 142.053 15.7433 142.152 15.8875C142.252 16.0316 142.393 16.1459 142.56 16.2168L152.461 20.43H142.949C142.898 20.4304 142.847 20.4346 142.797 20.4428H142.776C142.729 20.4516 142.684 20.4632 142.639 20.4772L142.619 20.4849C142.572 20.4997 142.526 20.5185 142.483 20.541L142.472 20.5474C142.431 20.5691 142.391 20.5939 142.354 20.6214H142.345C142.308 20.6494 142.274 20.6801 142.243 20.7133L142.225 20.7299C142.195 20.7628 142.168 20.7978 142.143 20.8345L142.13 20.8536C142.104 20.8924 142.083 20.9329 142.064 20.9748V20.9838C142.045 21.0285 142.03 21.0746 142.019 21.1216C142.009 21.1665 142.002 21.2122 142 21.2581C142 21.2671 142 21.276 142 21.2862C142 21.2964 142 21.3002 142 21.3079V27.2144C142 27.3861 142.053 27.5543 142.152 27.6987C142.251 27.843 142.393 27.9575 142.56 28.0284L156.489 33.9336C156.512 33.9439 156.537 33.9528 156.56 33.9604L156.58 33.9668C156.608 33.9745 156.634 33.9822 156.661 33.9873H156.677C156.705 33.9929 156.733 33.9971 156.762 34H156.775C156.808 34 156.842 34 156.876 34H182.453C182.706 34 182.949 33.9059 183.128 33.7384C183.307 33.5709 183.407 33.3437 183.407 33.1068V27.2297C183.406 27.1934 183.404 27.1572 183.399 27.1212V27.0983C183.385 27.0095 183.356 26.9234 183.313 26.8431L183.305 26.8265C183.283 26.7878 183.259 26.7508 183.231 26.7155L183.216 26.6963C183.188 26.6611 183.158 26.6279 183.125 26.5968L183.111 26.5853C183.076 26.5548 183.039 26.5262 182.999 26.4998C182.956 26.4734 182.91 26.45 182.863 26.4296H182.855L168.926 20.5245C168.802 20.4717 168.668 20.4443 168.532 20.4441H157.832V16.3252L172.532 16.3112ZM157.832 -3.19465V-7.3135L200.09 -7.32503V-3.20618L157.832 -3.19465ZM186.906 -13.2315L196.621 -9.11139L157.083 -9.09986L147.368 -13.22L186.906 -13.2315ZM143.899 -12.7274L155.919 -7.63121V-3.68588L143.899 -8.78978V-12.7274ZM161.12 8.61322H157.832V4.49309H186.911L196.628 8.61322H161.12ZM143.903 -0.920852L155.923 4.17537V8.12068L143.903 3.02444V-0.920852ZM156.878 10.3996H200.09V14.5197H157.083L147.368 10.3996H156.878ZM143.903 10.8908L155.923 15.9947V19.94L143.903 14.8361V10.8908ZM143.903 22.7038L155.923 27.8001V31.7454L143.903 26.6491V22.7038ZM157.832 32.2379V28.1229H181.5V32.243L157.832 32.2379ZM168.321 22.2113L178.038 26.3365H157.083L147.368 22.2164H168.321V22.2113Z" fill="#0C0A09"/>
</g>
<path d="M171 60L171 188" stroke="url(#paint26_linear_1548_601)" stroke-width="4"/>
</g>
<defs>
<filter id="filter0_f_1548_601" x="-210.6" y="24.4" width="765.2" height="765.2" filterUnits="userSpaceOnUse" color-interpolation-filters="sRGB">
<feFlood flood-opacity="0" result="BackgroundImageFix"/>
<feBlend mode="normal" in="SourceGraphic" in2="BackgroundImageFix" result="shape"/>
<feGaussianBlur stdDeviation="32.3" result="effect1_foregroundBlur_1548_601"/>
</filter>
<filter id="filter1_di_1548_601" x="76.7" y="-95.3" width="189.6" height="189.6" filterUnits="userSpaceOnUse" color-interpolation-filters="sRGB">
<feFlood flood-opacity="0" result="BackgroundImageFix"/>
<feColorMatrix in="SourceAlpha" type="matrix" values="0 0 0 0 0 0 0 0 0 0 0 0 0 0 0 0 0 0 127 0" result="hardAlpha"/>
<feMorphology radius="2" operator="dilate" in="SourceAlpha" result="effect1_dropShadow_1548_601"/>
<feOffset/>
<feGaussianBlur stdDeviation="16.15"/>
<feComposite in2="hardAlpha" operator="out"/>
<feColorMatrix type="matrix" values="0 0 0 0 0.682353 0 0 0 0 0.647059 0 0 0 0 0.509804 0 0 0 1 0"/>
<feBlend mode="normal" in2="BackgroundImageFix" result="effect1_dropShadow_1548_601"/>
<feBlend mode="normal" in="SourceGraphic" in2="effect1_dropShadow_1548_601" result="shape"/>
<feColorMatrix in="SourceAlpha" type="matrix" values="0 0 0 0 0 0 0 0 0 0 0 0 0 0 0 0 0 0 127 0" result="hardAlpha"/>
<feOffset/>
<feGaussianBlur stdDeviation="4"/>
<feComposite in2="hardAlpha" operator="arithmetic" k2="-1" k3="1"/>
<feColorMatrix type="matrix" values="0 0 0 0 0.713726 0 0 0 0 0.678431 0 0 0 0 0.552941 0 0 0 1 0"/>
<feBlend mode="normal" in2="shape" result="effect2_innerShadow_1548_601"/>
</filter>
<linearGradient id="paint0_linear_1548_601" x1="17.3525" y1="-15" x2="17.3525" y2="201.8" gradientUnits="userSpaceOnUse">
<stop stop-color="#F8F7F3" stop-opacity="0"/>
<stop offset="0.480769" stop-color="#D9D2B6"/>
<stop offset="1" stop-color="#F8F7F3" stop-opacity="0"/>
</linearGradient>
<linearGradient id="paint1_linear_1548_601" x1="386.688" y1="22.1641" x2="-23.0002" y2="22.164" gradientUnits="userSpaceOnUse">
<stop stop-color="#F8F7F3" stop-opacity="0"/>
<stop offset="0.480769" stop-color="#D9D2B6"/>
<stop offset="1" stop-color="#F8F7F3" stop-opacity="0"/>
</linearGradient>
<linearGradient id="paint2_linear_1548_601" x1="41.2646" y1="-15" x2="41.2646" y2="201.8" gradientUnits="userSpaceOnUse">
<stop stop-color="#F8F7F3" stop-opacity="0"/>
<stop offset="0.480769" stop-color="#D9D2B6"/>
<stop offset="1" stop-color="#F8F7F3" stop-opacity="0"/>
</linearGradient>
<linearGradient id="paint3_linear_1548_601" x1="386.688" y1="46.0762" x2="-23.0002" y2="46.0761" gradientUnits="userSpaceOnUse">
<stop stop-color="#F8F7F3" stop-opacity="0"/>
<stop offset="0.480769" stop-color="#D9D2B6"/>
<stop offset="1" stop-color="#F8F7F3" stop-opacity="0"/>
</linearGradient>
<linearGradient id="paint4_linear_1548_601" x1="65.1763" y1="-15" x2="65.1763" y2="201.8" gradientUnits="userSpaceOnUse">
<stop stop-color="#F8F7F3" stop-opacity="0"/>
<stop offset="0.480769" stop-color="#D9D2B6"/>
<stop offset="1" stop-color="#F8F7F3" stop-opacity="0"/>
</linearGradient>
<linearGradient id="paint5_linear_1548_601" x1="386.688" y1="69.9885" x2="-23.0002" y2="69.9885" gradientUnits="userSpaceOnUse">
<stop stop-color="#F8F7F3" stop-opacity="0"/>
<stop offset="0.480769" stop-color="#D9D2B6"/>
<stop offset="1" stop-color="#F8F7F3" stop-opacity="0"/>
</linearGradient>
<linearGradient id="paint6_linear_1548_601" x1="89.0879" y1="-15" x2="89.0879" y2="201.8" gradientUnits="userSpaceOnUse">
<stop stop-color="#F8F7F3" stop-opacity="0"/>
<stop offset="0.480769" stop-color="#D9D2B6"/>
<stop offset="1" stop-color="#F8F7F3" stop-opacity="0"/>
</linearGradient>
<linearGradient id="paint7_linear_1548_601" x1="386.688" y1="93.9003" x2="-23.0002" y2="93.9002" gradientUnits="userSpaceOnUse">
<stop stop-color="#F8F7F3" stop-opacity="0"/>
<stop offset="0.480769" stop-color="#D9D2B6"/>
<stop offset="1" stop-color="#F8F7F3" stop-opacity="0"/>
</linearGradient>
<linearGradient id="paint8_linear_1548_601" x1="113" y1="-15" x2="113" y2="201.8" gradientUnits="userSpaceOnUse">
<stop stop-color="#F8F7F3" stop-opacity="0"/>
<stop offset="0.480769" stop-color="#D9D2B6"/>
<stop offset="1" stop-color="#F8F7F3" stop-opacity="0"/>
</linearGradient>
<linearGradient id="paint9_linear_1548_601" x1="386.688" y1="117.812" x2="-23.0002" y2="117.812" gradientUnits="userSpaceOnUse">
<stop stop-color="#F8F7F3" stop-opacity="0"/>
<stop offset="0.480769" stop-color="#D9D2B6"/>
<stop offset="1" stop-color="#F8F7F3" stop-opacity="0"/>
</linearGradient>
<linearGradient id="paint10_linear_1548_601" x1="136.912" y1="-15" x2="136.912" y2="201.8" gradientUnits="userSpaceOnUse">
<stop stop-color="#F8F7F3" stop-opacity="0"/>
<stop offset="0.480769" stop-color="#D9D2B6"/>
<stop offset="1" stop-color="#F8F7F3" stop-opacity="0"/>
</linearGradient>
<linearGradient id="paint11_linear_1548_601" x1="386.688" y1="141.725" x2="-23.0002" y2="141.725" gradientUnits="userSpaceOnUse">
<stop stop-color="#F8F7F3" stop-opacity="0"/>
<stop offset="0.480769" stop-color="#D9D2B6"/>
<stop offset="1" stop-color="#F8F7F3" stop-opacity="0"/>
</linearGradient>
<linearGradient id="paint12_linear_1548_601" x1="160.823" y1="-15" x2="160.823" y2="201.8" gradientUnits="userSpaceOnUse">
<stop stop-color="#F8F7F3" stop-opacity="0"/>
<stop offset="0.480769" stop-color="#D9D2B6"/>
<stop offset="1" stop-color="#F8F7F3" stop-opacity="0"/>
</linearGradient>
<linearGradient id="paint13_linear_1548_601" x1="386.688" y1="165.635" x2="-23.0002" y2="165.635" gradientUnits="userSpaceOnUse">
<stop stop-color="#F8F7F3" stop-opacity="0"/>
<stop offset="0.480769" stop-color="#D9D2B6"/>
<stop offset="1" stop-color="#F8F7F3" stop-opacity="0"/>
</linearGradient>
<linearGradient id="paint14_linear_1548_601" x1="184.735" y1="-15" x2="184.735" y2="201.8" gradientUnits="userSpaceOnUse">
<stop stop-color="#F8F7F3" stop-opacity="0"/>
<stop offset="0.480769" stop-color="#D9D2B6"/>
<stop offset="1" stop-color="#F8F7F3" stop-opacity="0"/>
</linearGradient>
<linearGradient id="paint15_linear_1548_601" x1="386.688" y1="189.547" x2="-23.0002" y2="189.547" gradientUnits="userSpaceOnUse">
<stop stop-color="#F8F7F3" stop-opacity="0"/>
<stop offset="0.480769" stop-color="#D9D2B6"/>
<stop offset="1" stop-color="#F8F7F3" stop-opacity="0"/>
</linearGradient>
<linearGradient id="paint16_linear_1548_601" x1="208.647" y1="-15" x2="208.647" y2="201.8" gradientUnits="userSpaceOnUse">
<stop stop-color="#F8F7F3" stop-opacity="0"/>
<stop offset="0.480769" stop-color="#D9D2B6"/>
<stop offset="1" stop-color="#F8F7F3" stop-opacity="0"/>
</linearGradient>
<linearGradient id="paint17_linear_1548_601" x1="232.559" y1="-15" x2="232.559" y2="201.8" gradientUnits="userSpaceOnUse">
<stop stop-color="#F8F7F3" stop-opacity="0"/>
<stop offset="0.480769" stop-color="#D9D2B6"/>
<stop offset="1" stop-color="#F8F7F3" stop-opacity="0"/>
</linearGradient>
<linearGradient id="paint18_linear_1548_601" x1="256.471" y1="-15" x2="256.471" y2="201.8" gradientUnits="userSpaceOnUse">
<stop stop-color="#F8F7F3" stop-opacity="0"/>
<stop offset="0.480769" stop-color="#D9D2B6"/>
<stop offset="1" stop-color="#F8F7F3" stop-opacity="0"/>
</linearGradient>
<linearGradient id="paint19_linear_1548_601" x1="280.382" y1="-15" x2="280.382" y2="201.8" gradientUnits="userSpaceOnUse">
<stop stop-color="#F8F7F3" stop-opacity="0"/>
<stop offset="0.480769" stop-color="#D9D2B6"/>
<stop offset="1" stop-color="#F8F7F3" stop-opacity="0"/>
</linearGradient>
<linearGradient id="paint20_linear_1548_601" x1="304.294" y1="-15" x2="304.294" y2="201.8" gradientUnits="userSpaceOnUse">
<stop stop-color="#F8F7F3" stop-opacity="0"/>
<stop offset="0.480769" stop-color="#D9D2B6"/>
<stop offset="1" stop-color="#F8F7F3" stop-opacity="0"/>
</linearGradient>
<linearGradient id="paint21_linear_1548_601" x1="328.206" y1="-15" x2="328.206" y2="201.8" gradientUnits="userSpaceOnUse">
<stop stop-color="#F8F7F3" stop-opacity="0"/>
<stop offset="0.480769" stop-color="#D9D2B6"/>
<stop offset="1" stop-color="#F8F7F3" stop-opacity="0"/>
</linearGradient>
<linearGradient id="paint22_linear_1548_601" x1="231.5" y1="48.2109" x2="231.5" y2="153" gradientUnits="userSpaceOnUse">
<stop stop-color="#F7F7F5"/>
<stop offset="1" stop-color="#F7F7F5" stop-opacity="0"/>
</linearGradient>
<linearGradient id="paint23_linear_1548_601" x1="208.25" y1="51.123" x2="208.25" y2="178" gradientUnits="userSpaceOnUse">
<stop stop-color="#F7F7F5"/>
<stop offset="1" stop-color="#F7F7F5" stop-opacity="0"/>
</linearGradient>
<linearGradient id="paint24_linear_1548_601" x1="110.5" y1="48.2109" x2="110.5" y2="153" gradientUnits="userSpaceOnUse">
<stop stop-color="#F7F7F5"/>
<stop offset="1" stop-color="#F7F7F5" stop-opacity="0"/>
</linearGradient>
<linearGradient id="paint25_linear_1548_601" x1="133.75" y1="51.123" x2="133.75" y2="178" gradientUnits="userSpaceOnUse">
<stop stop-color="#F7F7F5"/>
<stop offset="1" stop-color="#F7F7F5" stop-opacity="0"/>
</linearGradient>
<linearGradient id="paint26_linear_1548_601" x1="171.5" y1="56.5" x2="171.5" y2="188" gradientUnits="userSpaceOnUse">
<stop stop-color="#F7F7F5"/>
<stop offset="1" stop-color="#F7F7F5" stop-opacity="0"/>
</linearGradient>
<clipPath id="clip0_1548_601">
<rect width="342" height="288" rx="16" fill="white"/>
</clipPath>
</defs>
</svg>
