<svg width="341" height="288" viewBox="0 0 341 288" fill="none" xmlns="http://www.w3.org/2000/svg">
<g clip-path="url(#clip0_1548_716)">
<rect width="341" height="288" rx="16" fill="#3E3B32"/>
<g filter="url(#filter0_f_1548_716)">
<circle cx="171.5" cy="263.5" r="159.5" fill="#36332C" fill-opacity="0.5"/>
</g>
<g opacity="0.2">
<path d="M12.7646 -47V169.8" stroke="url(#paint0_linear_1548_716)" stroke-width="0.6" stroke-linecap="round" stroke-linejoin="round"/>
<path d="M358.688 13.5762L-50.9998 13.5762" stroke="url(#paint1_linear_1548_716)" stroke-width="0.6" stroke-linecap="round" stroke-linejoin="round"/>
<path d="M36.6768 -47V169.8" stroke="url(#paint2_linear_1548_716)" stroke-width="0.6" stroke-linecap="round" stroke-linejoin="round"/>
<path d="M358.688 37.4885L-50.9998 37.4885" stroke="url(#paint3_linear_1548_716)" stroke-width="0.6" stroke-linecap="round" stroke-linejoin="round"/>
<path d="M60.5884 -47V169.8" stroke="url(#paint4_linear_1548_716)" stroke-width="0.6" stroke-linecap="round" stroke-linejoin="round"/>
<path d="M358.688 61.4003L-50.9998 61.4003" stroke="url(#paint5_linear_1548_716)" stroke-width="0.6" stroke-linecap="round" stroke-linejoin="round"/>
<path d="M84.5 -47V169.8" stroke="url(#paint6_linear_1548_716)" stroke-width="0.6" stroke-linecap="round" stroke-linejoin="round"/>
<path d="M358.688 85.3125L-50.9998 85.3125" stroke="url(#paint7_linear_1548_716)" stroke-width="0.6" stroke-linecap="round" stroke-linejoin="round"/>
<path d="M108.412 -47V169.8" stroke="url(#paint8_linear_1548_716)" stroke-width="0.6" stroke-linecap="round" stroke-linejoin="round"/>
<path d="M358.688 109.225L-50.9998 109.225" stroke="url(#paint9_linear_1548_716)" stroke-width="0.6" stroke-linecap="round" stroke-linejoin="round"/>
<path d="M132.324 -47V169.8" stroke="url(#paint10_linear_1548_716)" stroke-width="0.6" stroke-linecap="round" stroke-linejoin="round"/>
<path d="M358.688 133.135L-50.9998 133.135" stroke="url(#paint11_linear_1548_716)" stroke-width="0.6" stroke-linecap="round" stroke-linejoin="round"/>
<path d="M156.235 -47V169.8" stroke="url(#paint12_linear_1548_716)" stroke-width="0.6" stroke-linecap="round" stroke-linejoin="round"/>
<path d="M358.688 157.047L-50.9998 157.047" stroke="url(#paint13_linear_1548_716)" stroke-width="0.6" stroke-linecap="round" stroke-linejoin="round"/>
<path d="M180.147 -47V169.8" stroke="url(#paint14_linear_1548_716)" stroke-width="0.6" stroke-linecap="round" stroke-linejoin="round"/>
<path d="M204.059 -47V169.8" stroke="url(#paint15_linear_1548_716)" stroke-width="0.6" stroke-linecap="round" stroke-linejoin="round"/>
<path d="M227.971 -47V169.8" stroke="url(#paint16_linear_1548_716)" stroke-width="0.6" stroke-linecap="round" stroke-linejoin="round"/>
<path d="M251.883 -47V169.8" stroke="url(#paint17_linear_1548_716)" stroke-width="0.6" stroke-linecap="round" stroke-linejoin="round"/>
<path d="M275.794 -47V169.8" stroke="url(#paint18_linear_1548_716)" stroke-width="0.6" stroke-linecap="round" stroke-linejoin="round"/>
<path d="M299.706 -47V169.8" stroke="url(#paint19_linear_1548_716)" stroke-width="0.6" stroke-linecap="round" stroke-linejoin="round"/>
<path d="M323.618 -47V169.8" stroke="url(#paint20_linear_1548_716)" stroke-width="0.6" stroke-linecap="round" stroke-linejoin="round"/>
</g>
<path d="M176.565 174.745C176.824 178.071 174.335 181 171 181V181V181C167.665 181 165.176 178.071 165.435 174.745L166.641 159.214C166.814 156.984 168.763 155.333 171 155.333V155.333V155.333C173.236 155.333 175.186 156.984 175.359 159.214L176.565 174.745ZM149.812 155.16C150.663 153.107 152.998 152.144 155.111 152.831V152.831C157.225 153.518 158.581 155.678 158.064 157.839L154.437 173C153.658 176.252 150.356 178.274 147.176 177.24V177.24C143.996 176.206 142.56 172.648 143.841 169.559L149.812 155.16ZM198.159 169.559C199.44 172.648 198.004 176.206 194.824 177.24V177.24C191.644 178.274 188.342 176.252 187.563 173L183.936 157.839C183.419 155.678 184.775 153.518 186.889 152.831V152.831C189.002 152.144 191.337 153.107 192.188 155.16L198.159 169.559ZM135.044 146.107C136.492 144.413 139.028 144.226 140.83 145.537V145.537C142.632 146.848 143.239 149.323 142.073 151.222L133.917 164.504C132.17 167.349 128.424 168.253 125.725 166.288V166.288C123.025 164.323 122.746 160.491 124.916 157.953L135.044 146.107ZM217.084 157.953C219.254 160.491 218.975 164.323 216.275 166.288V166.288C213.576 168.253 209.83 167.349 208.083 164.504L199.927 151.222C198.761 149.323 199.369 146.849 201.17 145.537V145.537C202.972 144.226 205.508 144.413 206.956 146.107L217.084 157.953ZM123.778 132.927C125.677 131.761 128.151 132.369 129.463 134.17V134.17C130.774 135.972 130.587 138.508 128.893 139.956L117.047 150.084C114.509 152.254 110.677 151.975 108.712 149.275V149.275C106.747 146.576 107.651 142.83 110.496 141.083L123.778 132.927ZM231.504 141.083C234.349 142.83 235.253 146.576 233.288 149.275V149.275C231.323 151.975 227.491 152.254 224.953 150.084L213.107 139.956C211.413 138.508 211.226 135.972 212.537 134.17V134.17C213.848 132.368 216.323 131.761 218.222 132.927L231.504 141.083ZM117.161 116.936C119.322 116.419 121.482 117.775 122.169 119.889V119.889C122.856 122.002 121.893 124.337 119.84 125.188L105.441 131.159C102.352 132.44 98.794 131.004 97.7602 127.824V127.824C96.7263 124.644 98.7482 121.342 102 120.563L117.161 116.936ZM240 120.563C243.252 121.342 245.274 124.644 244.24 127.824V127.824C243.206 131.004 239.648 132.44 236.559 131.159L222.16 125.188C220.107 124.337 219.144 122.002 219.831 119.889V119.889C220.518 117.775 222.678 116.419 224.839 116.936L240 120.563ZM94 104V104C94 100.665 96.9294 98.1762 100.255 98.4345L115.786 99.6409C118.016 99.8141 119.667 101.763 119.667 104V104V104C119.667 106.236 118.016 108.186 115.786 108.359L100.255 109.565C96.9294 109.824 94 107.335 94 104V104ZM222.333 104V104C222.333 101.763 223.984 99.8141 226.214 99.6409L241.745 98.4345C245.071 98.1762 248 100.665 248 104V104V104C248 107.335 245.071 109.824 241.745 109.565L226.214 108.359C223.984 108.186 222.333 106.236 222.333 104V104ZM119.84 82.812C121.893 83.6632 122.856 85.9975 122.169 88.1111V88.1111C121.482 90.2246 119.322 91.5809 117.161 91.0637L102 87.4366C98.7482 86.6585 96.7263 83.3558 97.7602 80.1757V80.1757C98.794 76.9956 102.352 75.5605 105.441 76.8413L119.84 82.812ZM236.559 76.8413C239.648 75.5605 243.206 76.9956 244.24 80.1757V80.1757C245.274 83.3558 243.252 86.6585 240 87.4366L224.839 91.0637C222.678 91.5809 220.518 90.2246 219.831 88.1111V88.1111C219.144 85.9975 220.107 83.6632 222.16 82.812L236.559 76.8413ZM128.893 68.0438C130.587 69.492 130.774 72.0278 129.463 73.8297V73.8297C128.152 75.6315 125.677 76.2394 123.778 75.0732L110.496 66.917C107.651 65.1699 106.747 61.4238 108.712 58.7246V58.7246C110.677 56.0253 114.509 55.7464 117.047 57.916L128.893 68.0438ZM224.953 57.916C227.491 55.7464 231.323 56.0253 233.288 58.7246V58.7246C235.253 61.4238 234.349 65.1699 231.504 66.9171L218.222 75.073C216.323 76.2393 213.849 75.6315 212.537 73.8297V73.8297C211.226 72.0279 211.413 69.4919 213.107 68.0437L224.953 57.916ZM142.073 56.7775C143.239 58.6767 142.631 61.1511 140.83 62.4627V62.4627C139.028 63.7744 136.492 63.5873 135.044 61.8933L124.916 50.0467C122.746 47.509 123.025 43.6768 125.725 41.7118V41.7118C128.424 39.7468 132.17 40.6509 133.917 43.496L142.073 56.7775ZM208.083 43.4961C209.83 40.6509 213.576 39.7468 216.275 41.7118V41.7118C218.975 43.6768 219.254 47.509 217.084 50.0467L206.956 61.8934C205.508 63.5873 202.972 63.7744 201.17 62.463V62.463C199.368 61.1516 198.761 58.6774 199.927 56.7783L208.083 43.4961ZM158.064 50.1605C158.581 52.3219 157.225 54.4824 155.111 55.1694V55.1694C152.998 55.8564 150.663 54.8925 149.812 52.8396L143.841 38.4406C142.56 35.3517 143.996 31.794 147.176 30.7602V30.7602C150.356 29.7263 153.658 31.7482 154.437 35.0003L158.064 50.1605ZM187.563 35.0003C188.342 31.7482 191.644 29.7263 194.824 30.7602V30.7602C198.004 31.794 199.44 35.3517 198.159 38.4406L192.188 52.8396C191.337 54.8925 189.002 55.8564 186.889 55.1694V55.1694C184.775 54.4824 183.419 52.3219 183.936 50.1605L187.563 35.0003ZM171 27V27C174.335 27 176.824 29.9294 176.565 33.2548L175.359 48.7859C175.186 51.0157 173.236 52.6667 171 52.6667V52.6667V52.6667C168.763 52.6667 166.814 51.0157 166.641 48.7859L165.435 33.2548C165.176 29.9294 167.665 27 171 27V27Z" fill="#A19875"/>
<path d="M176.512 174.741C176.771 178.069 174.281 181 170.943 181V181V181C167.606 181 165.116 178.069 165.374 174.741L166.581 159.227C166.754 156.996 168.705 155.344 170.943 155.344V155.344V155.344C173.182 155.344 175.132 156.996 175.306 159.227L176.512 174.741ZM149.739 155.171C150.592 153.118 152.926 152.155 155.04 152.841V152.841C157.156 153.528 158.514 155.691 157.996 157.855L154.368 173.001C153.589 176.253 150.286 178.275 147.105 177.243V177.243C143.921 176.209 142.485 172.647 143.768 169.555L149.739 155.171ZM198.118 169.555C199.402 172.647 197.965 176.209 194.781 177.243V177.243C191.601 178.275 188.298 176.253 187.519 173.001L183.891 157.855C183.372 155.691 184.73 153.528 186.846 152.841V152.841C188.961 152.155 191.295 153.118 192.147 155.171L198.118 169.555ZM134.963 146.118C136.411 144.426 138.946 144.239 140.747 145.549V145.549C142.552 146.861 143.161 149.338 141.992 151.239L133.831 164.514C132.083 167.357 128.339 168.26 125.64 166.298V166.298C122.936 164.332 122.657 160.496 124.831 157.956L134.963 146.118ZM217.056 157.956C219.229 160.496 218.95 164.332 216.247 166.298V166.298C213.548 168.26 209.803 167.357 208.056 164.514L199.895 151.24C198.726 149.339 199.335 146.861 201.139 145.549V145.549C202.941 144.239 205.475 144.426 206.924 146.118L217.056 157.956ZM123.691 132.943C125.59 131.779 128.062 132.386 129.373 134.186V134.186C130.686 135.988 130.499 138.526 128.803 139.975L116.944 150.102C114.407 152.268 110.578 151.989 108.613 149.293V149.293C106.645 146.593 107.55 142.844 110.398 141.097L123.691 132.943ZM231.489 141.097C234.337 142.844 235.242 146.593 233.274 149.293V149.293C231.308 151.989 227.48 152.268 224.942 150.102L213.083 139.975C211.387 138.526 211.2 135.988 212.513 134.186V134.186C213.825 132.386 216.296 131.779 218.195 132.943L231.489 141.097ZM117.071 116.96C119.23 116.444 121.389 117.799 122.076 119.911V119.911C122.764 122.024 121.8 124.359 119.746 125.21L105.327 131.182C102.24 132.461 98.6852 131.027 97.6509 127.849V127.849C96.6156 124.669 98.638 121.365 101.891 120.588L117.071 116.96ZM239.996 120.588C243.249 121.365 245.271 124.669 244.236 127.849V127.849C243.201 131.027 239.647 132.461 236.559 131.182L222.141 125.21C220.087 124.359 219.123 122.024 219.811 119.911V119.911C220.498 117.799 222.656 116.444 224.816 116.96L239.996 120.588ZM222.314 104.031V104.031C222.314 101.795 223.965 99.8467 226.193 99.6737L241.747 98.467C245.072 98.2091 248 100.697 248 104.031V104.031V104.031C248 107.365 245.072 109.852 241.747 109.595L226.194 108.388C223.965 108.215 222.314 106.266 222.314 104.031V104.031Z" fill="#E7E5E1"/>
<g clip-path="url(#clip1_1548_716)">
<path d="M155.189 137.013C154.835 136.869 154.508 136.665 154.224 136.409C153.676 135.915 153.311 135.25 153.186 134.523C153.061 133.795 153.183 133.047 153.534 132.398L164.645 111.681L146.644 104.406C146.089 104.182 145.604 103.812 145.244 103.334C144.883 102.856 144.659 102.289 144.596 101.693C144.534 101.097 144.634 100.496 144.888 99.9535C145.141 99.4109 145.537 98.9475 146.034 98.6132L184.722 72.2962C185.331 71.886 186.06 71.6912 186.793 71.7426C187.526 71.794 188.221 72.0887 188.767 72.58C189.29 73.0573 189.645 73.6902 189.781 74.3852C189.916 75.0803 189.824 75.8004 189.518 76.439L178.346 97.3086L196.347 104.584C196.902 104.807 197.386 105.178 197.747 105.656C198.108 106.134 198.331 106.701 198.394 107.297C198.457 107.892 198.356 108.493 198.103 109.036C197.849 109.579 197.453 110.042 196.956 110.376L158.269 136.693C157.821 136.995 157.306 137.182 156.769 137.237C156.232 137.293 155.689 137.216 155.189 137.013Z" fill="#A19875"/>
</g>
</g>
<defs>
<filter id="filter0_f_1548_716" x="-52.6" y="39.4" width="448.2" height="448.2" filterUnits="userSpaceOnUse" color-interpolation-filters="sRGB">
<feFlood flood-opacity="0" result="BackgroundImageFix"/>
<feBlend mode="normal" in="SourceGraphic" in2="BackgroundImageFix" result="shape"/>
<feGaussianBlur stdDeviation="32.3" result="effect1_foregroundBlur_1548_716"/>
</filter>
<linearGradient id="paint0_linear_1548_716" x1="13.2646" y1="-47" x2="13.2646" y2="169.8" gradientUnits="userSpaceOnUse">
<stop stop-color="#F8F7F3" stop-opacity="0"/>
<stop offset="0.480769" stop-color="#D9D2B6"/>
<stop offset="1" stop-color="#F8F7F3" stop-opacity="0"/>
</linearGradient>
<linearGradient id="paint1_linear_1548_716" x1="358.688" y1="14.0762" x2="-50.9998" y2="14.0761" gradientUnits="userSpaceOnUse">
<stop stop-color="#F8F7F3" stop-opacity="0"/>
<stop offset="0.480769" stop-color="#D9D2B6"/>
<stop offset="1" stop-color="#F8F7F3" stop-opacity="0"/>
</linearGradient>
<linearGradient id="paint2_linear_1548_716" x1="37.1768" y1="-47" x2="37.1768" y2="169.8" gradientUnits="userSpaceOnUse">
<stop stop-color="#F8F7F3" stop-opacity="0"/>
<stop offset="0.480769" stop-color="#D9D2B6"/>
<stop offset="1" stop-color="#F8F7F3" stop-opacity="0"/>
</linearGradient>
<linearGradient id="paint3_linear_1548_716" x1="358.688" y1="37.9885" x2="-50.9998" y2="37.9885" gradientUnits="userSpaceOnUse">
<stop stop-color="#F8F7F3" stop-opacity="0"/>
<stop offset="0.480769" stop-color="#D9D2B6"/>
<stop offset="1" stop-color="#F8F7F3" stop-opacity="0"/>
</linearGradient>
<linearGradient id="paint4_linear_1548_716" x1="61.0884" y1="-47" x2="61.0884" y2="169.8" gradientUnits="userSpaceOnUse">
<stop stop-color="#F8F7F3" stop-opacity="0"/>
<stop offset="0.480769" stop-color="#D9D2B6"/>
<stop offset="1" stop-color="#F8F7F3" stop-opacity="0"/>
</linearGradient>
<linearGradient id="paint5_linear_1548_716" x1="358.688" y1="61.9003" x2="-50.9998" y2="61.9002" gradientUnits="userSpaceOnUse">
<stop stop-color="#F8F7F3" stop-opacity="0"/>
<stop offset="0.480769" stop-color="#D9D2B6"/>
<stop offset="1" stop-color="#F8F7F3" stop-opacity="0"/>
</linearGradient>
<linearGradient id="paint6_linear_1548_716" x1="85" y1="-47" x2="85" y2="169.8" gradientUnits="userSpaceOnUse">
<stop stop-color="#F8F7F3" stop-opacity="0"/>
<stop offset="0.480769" stop-color="#D9D2B6"/>
<stop offset="1" stop-color="#F8F7F3" stop-opacity="0"/>
</linearGradient>
<linearGradient id="paint7_linear_1548_716" x1="358.688" y1="85.8125" x2="-50.9998" y2="85.8125" gradientUnits="userSpaceOnUse">
<stop stop-color="#F8F7F3" stop-opacity="0"/>
<stop offset="0.480769" stop-color="#D9D2B6"/>
<stop offset="1" stop-color="#F8F7F3" stop-opacity="0"/>
</linearGradient>
<linearGradient id="paint8_linear_1548_716" x1="108.912" y1="-47" x2="108.912" y2="169.8" gradientUnits="userSpaceOnUse">
<stop stop-color="#F8F7F3" stop-opacity="0"/>
<stop offset="0.480769" stop-color="#D9D2B6"/>
<stop offset="1" stop-color="#F8F7F3" stop-opacity="0"/>
</linearGradient>
<linearGradient id="paint9_linear_1548_716" x1="358.688" y1="109.725" x2="-50.9998" y2="109.725" gradientUnits="userSpaceOnUse">
<stop stop-color="#F8F7F3" stop-opacity="0"/>
<stop offset="0.480769" stop-color="#D9D2B6"/>
<stop offset="1" stop-color="#F8F7F3" stop-opacity="0"/>
</linearGradient>
<linearGradient id="paint10_linear_1548_716" x1="132.824" y1="-47" x2="132.824" y2="169.8" gradientUnits="userSpaceOnUse">
<stop stop-color="#F8F7F3" stop-opacity="0"/>
<stop offset="0.480769" stop-color="#D9D2B6"/>
<stop offset="1" stop-color="#F8F7F3" stop-opacity="0"/>
</linearGradient>
<linearGradient id="paint11_linear_1548_716" x1="358.688" y1="133.635" x2="-50.9998" y2="133.635" gradientUnits="userSpaceOnUse">
<stop stop-color="#F8F7F3" stop-opacity="0"/>
<stop offset="0.480769" stop-color="#D9D2B6"/>
<stop offset="1" stop-color="#F8F7F3" stop-opacity="0"/>
</linearGradient>
<linearGradient id="paint12_linear_1548_716" x1="156.735" y1="-47" x2="156.735" y2="169.8" gradientUnits="userSpaceOnUse">
<stop stop-color="#F8F7F3" stop-opacity="0"/>
<stop offset="0.480769" stop-color="#D9D2B6"/>
<stop offset="1" stop-color="#F8F7F3" stop-opacity="0"/>
</linearGradient>
<linearGradient id="paint13_linear_1548_716" x1="358.688" y1="157.547" x2="-50.9998" y2="157.547" gradientUnits="userSpaceOnUse">
<stop stop-color="#F8F7F3" stop-opacity="0"/>
<stop offset="0.480769" stop-color="#D9D2B6"/>
<stop offset="1" stop-color="#F8F7F3" stop-opacity="0"/>
</linearGradient>
<linearGradient id="paint14_linear_1548_716" x1="180.647" y1="-47" x2="180.647" y2="169.8" gradientUnits="userSpaceOnUse">
<stop stop-color="#F8F7F3" stop-opacity="0"/>
<stop offset="0.480769" stop-color="#D9D2B6"/>
<stop offset="1" stop-color="#F8F7F3" stop-opacity="0"/>
</linearGradient>
<linearGradient id="paint15_linear_1548_716" x1="204.559" y1="-47" x2="204.559" y2="169.8" gradientUnits="userSpaceOnUse">
<stop stop-color="#F8F7F3" stop-opacity="0"/>
<stop offset="0.480769" stop-color="#D9D2B6"/>
<stop offset="1" stop-color="#F8F7F3" stop-opacity="0"/>
</linearGradient>
<linearGradient id="paint16_linear_1548_716" x1="228.471" y1="-47" x2="228.471" y2="169.8" gradientUnits="userSpaceOnUse">
<stop stop-color="#F8F7F3" stop-opacity="0"/>
<stop offset="0.480769" stop-color="#D9D2B6"/>
<stop offset="1" stop-color="#F8F7F3" stop-opacity="0"/>
</linearGradient>
<linearGradient id="paint17_linear_1548_716" x1="252.383" y1="-47" x2="252.383" y2="169.8" gradientUnits="userSpaceOnUse">
<stop stop-color="#F8F7F3" stop-opacity="0"/>
<stop offset="0.480769" stop-color="#D9D2B6"/>
<stop offset="1" stop-color="#F8F7F3" stop-opacity="0"/>
</linearGradient>
<linearGradient id="paint18_linear_1548_716" x1="276.294" y1="-47" x2="276.294" y2="169.8" gradientUnits="userSpaceOnUse">
<stop stop-color="#F8F7F3" stop-opacity="0"/>
<stop offset="0.480769" stop-color="#D9D2B6"/>
<stop offset="1" stop-color="#F8F7F3" stop-opacity="0"/>
</linearGradient>
<linearGradient id="paint19_linear_1548_716" x1="300.206" y1="-47" x2="300.206" y2="169.8" gradientUnits="userSpaceOnUse">
<stop stop-color="#F8F7F3" stop-opacity="0"/>
<stop offset="0.480769" stop-color="#D9D2B6"/>
<stop offset="1" stop-color="#F8F7F3" stop-opacity="0"/>
</linearGradient>
<linearGradient id="paint20_linear_1548_716" x1="324.118" y1="-47" x2="324.118" y2="169.8" gradientUnits="userSpaceOnUse">
<stop stop-color="#F8F7F3" stop-opacity="0"/>
<stop offset="0.480769" stop-color="#D9D2B6"/>
<stop offset="1" stop-color="#F8F7F3" stop-opacity="0"/>
</linearGradient>
<clipPath id="clip0_1548_716">
<rect width="341" height="288" rx="16" fill="white"/>
</clipPath>
<clipPath id="clip1_1548_716">
<rect width="79.1107" height="79.1107" fill="white" transform="translate(149.644 53) rotate(22.0063)"/>
</clipPath>
</defs>
</svg>
