<svg width="343" height="320" viewBox="0 0 343 320" fill="none" xmlns="http://www.w3.org/2000/svg">
<g clip-path="url(#clip0_1548_888)">
<path d="M0 16C0 7.16345 7.16344 0 16 0H327C335.837 0 343 7.16344 343 16V304C343 312.837 335.837 320 327 320H16C7.16345 320 0 312.837 0 304V16Z" fill="#3E3B32"/>
<g clip-path="url(#clip1_1548_888)">
<g filter="url(#filter0_di_1548_888)">
<path d="M130.915 242.116C133.175 235.895 133.745 229.675 133.175 223.463C132.615 217.242 130.354 211.031 127.524 205.38C122.443 196.899 115.092 190.117 106.62 186.166C97.5782 182.206 87.9669 181.076 78.3647 183.336C73.8438 178.815 68.7534 174.864 63.1023 172.034C57.4513 169.222 50.67 168.083 44.4584 168.083C34.7557 168.026 25.2757 170.99 17.3334 176.564C9.42195 182.206 3.7709 190.126 0.940861 199.168C-5.84039 200.859 -11.4914 203.689 -17.1425 207.08C-22.2239 211.031 -26.1841 216.121 -29.5748 221.203C-34.6562 229.684 -36.356 239.286 -35.2258 248.897C-34.0902 258.481 -30.1596 267.518 -23.9237 274.883C-26.061 280.854 -26.8334 287.228 -26.1841 293.536C-25.6145 299.757 -23.3541 305.968 -20.5331 311.619C-15.4426 320.1 -8.1008 326.882 0.38028 330.833C9.42195 334.793 19.0242 335.923 28.6355 333.663C33.1563 338.184 38.2377 342.135 43.8888 344.965C49.5398 347.786 56.3211 348.916 62.5417 348.916C72.2445 348.973 81.7244 346.009 89.6667 340.435C97.5782 334.784 103.229 326.873 106.05 317.831C112.435 316.617 118.44 313.906 123.573 309.919C128.654 305.968 133.175 301.447 136.005 295.796C141.087 287.315 142.787 277.713 141.656 268.102C140.526 258.499 137.135 249.458 130.915 242.116ZM63.1023 337.053C54.0607 337.053 47.2794 334.223 41.0678 329.142C41.0678 329.142 41.6284 328.572 42.198 328.572L78.3647 307.659C79.3742 307.215 80.1806 306.408 80.6251 305.399C81.1857 304.268 81.1857 303.708 81.1857 302.578V251.718L96.448 260.76V302.578C96.6035 307.052 95.8558 311.511 94.2494 315.69C92.643 319.869 90.211 323.681 87.0986 326.899C83.9862 330.117 80.2572 332.675 76.1343 334.419C72.0114 336.164 67.5792 337.06 63.1023 337.053ZM-9.7916 305.968C-13.7518 299.187 -15.4426 291.276 -13.7518 283.364C-13.7518 283.364 -13.1822 283.934 -12.6216 283.934L23.545 304.838C24.4136 305.297 25.3965 305.495 26.3751 305.408C27.5053 305.408 28.6355 305.408 29.1961 304.838L73.2742 279.404V296.927L36.5469 318.401C28.8533 322.857 19.7051 324.076 11.1127 321.791C2.07107 319.531 -5.27076 313.88 -9.7916 305.968ZM-19.4029 227.414C-15.4054 220.666 -9.22335 215.486 -1.88014 212.731V255.678C-1.88014 256.8 -1.88014 257.939 -1.31956 258.499C-0.875109 259.509 -0.0686622 260.315 0.940861 260.76L45.019 286.194L29.7657 295.236L-6.40097 274.322C-10.2534 272.147 -13.6358 269.229 -16.3519 265.737C-19.0681 262.245 -21.064 258.248 -22.2239 253.979C-24.4843 245.498 -23.9237 235.326 -19.4029 227.414ZM105.49 256.239L61.4115 230.805L76.6648 221.763L112.831 242.677C118.483 246.067 123.003 250.588 125.833 256.239C128.654 261.89 130.354 268.111 129.785 274.892C129.234 281.256 126.882 287.331 123.003 292.406C119.052 297.496 113.962 301.447 107.75 303.708V260.76C107.75 259.63 107.75 258.499 107.18 257.93C107.18 257.93 106.62 256.809 105.49 256.239ZM120.743 233.635C120.743 233.635 120.182 233.065 119.613 233.065L83.4461 212.161C82.3159 211.591 81.7553 211.591 80.6251 211.591C79.4949 211.591 78.3647 211.591 77.795 212.161L33.7169 237.595V220.072L70.4532 198.598C76.1042 195.208 82.3159 194.078 89.0971 194.078C95.3178 194.078 101.529 196.338 107.18 200.298C112.271 204.249 116.792 209.34 119.052 214.991C121.313 220.642 121.873 227.423 120.743 233.635ZM25.8055 265.281L10.5522 256.239V213.852C10.5522 207.64 12.2429 200.859 15.6336 195.768C19.0242 190.126 24.1147 186.166 29.7657 183.345C35.5248 180.454 42.053 179.466 48.4096 180.524C54.6303 181.094 60.8419 183.915 65.9324 187.875C65.9324 187.875 65.3627 188.436 64.8022 188.436L28.6355 209.349C27.626 209.793 26.8195 210.6 26.3751 211.609C25.8054 212.74 25.8055 213.3 25.8055 214.43V265.29V265.281ZM33.7169 247.197L53.5001 235.895L73.2742 247.197V269.802L53.5001 281.104L33.7169 269.802V247.197Z" fill="#F1EFE8"/>
</g>
</g>
</g>
<path d="M16 0.5H327C335.56 0.500004 342.5 7.43959 342.5 16V304C342.5 312.56 335.56 319.5 327 319.5H16C7.43959 319.5 0.5 312.56 0.5 304V16C0.500002 7.43959 7.43959 0.5 16 0.5Z" stroke="#3E3B32"/>
<defs>
<filter id="filter0_di_1548_888" x="-55.5601" y="148.082" width="217.551" height="220.835" filterUnits="userSpaceOnUse" color-interpolation-filters="sRGB">
<feFlood flood-opacity="0" result="BackgroundImageFix"/>
<feColorMatrix in="SourceAlpha" type="matrix" values="0 0 0 0 0 0 0 0 0 0 0 0 0 0 0 0 0 0 127 0" result="hardAlpha"/>
<feMorphology radius="2" operator="dilate" in="SourceAlpha" result="effect1_dropShadow_1548_888"/>
<feOffset/>
<feGaussianBlur stdDeviation="9"/>
<feComposite in2="hardAlpha" operator="out"/>
<feColorMatrix type="matrix" values="0 0 0 0 0.682353 0 0 0 0 0.647059 0 0 0 0 0.509804 0 0 0 1 0"/>
<feBlend mode="normal" in2="BackgroundImageFix" result="effect1_dropShadow_1548_888"/>
<feBlend mode="normal" in="SourceGraphic" in2="effect1_dropShadow_1548_888" result="shape"/>
<feColorMatrix in="SourceAlpha" type="matrix" values="0 0 0 0 0 0 0 0 0 0 0 0 0 0 0 0 0 0 127 0" result="hardAlpha"/>
<feOffset/>
<feGaussianBlur stdDeviation="4"/>
<feComposite in2="hardAlpha" operator="arithmetic" k2="-1" k3="1"/>
<feColorMatrix type="matrix" values="0 0 0 0 0.713726 0 0 0 0 0.678431 0 0 0 0 0.552941 0 0 0 1 0"/>
<feBlend mode="normal" in2="shape" result="effect2_innerShadow_1548_888"/>
</filter>
<clipPath id="clip0_1548_888">
<path d="M0 16C0 7.16345 7.16344 0 16 0H327C335.837 0 343 7.16344 343 16V304C343 312.837 335.837 320 327 320H16C7.16345 320 0 312.837 0 304V16Z" fill="white"/>
</clipPath>
<clipPath id="clip1_1548_888">
<rect width="217" height="217" fill="white" transform="translate(-55 150)"/>
</clipPath>
</defs>
</svg>
