<svg width="342" height="320" viewBox="0 0 342 320" fill="none" xmlns="http://www.w3.org/2000/svg">
<g clip-path="url(#clip0_1548_894)">
<path d="M0 16C0 7.16345 7.16344 0 16 0H326C334.837 0 342 7.16344 342 16V304C342 312.837 334.837 320 326 320H16C7.16344 320 0 312.837 0 304V16Z" fill="#3E3B32"/>
<g filter="url(#filter0_di_1548_894)">
<path d="M69.5792 273.56H154.169C154.92 273.56 155.64 273.276 156.171 272.77C156.702 272.264 157 271.577 157 270.862V253.002C157 252.906 157 252.813 157 252.724C156.983 252.594 156.956 252.465 156.919 252.339C156.921 252.32 156.921 252.3 156.919 252.281C156.883 252.149 156.836 252.02 156.778 251.896L156.753 251.842C156.694 251.719 156.623 251.602 156.543 251.491C156.465 251.383 156.378 251.282 156.284 251.186L156.236 251.136C156.14 251.044 156.039 250.958 155.932 250.878L155.868 250.835C155.754 250.754 155.634 250.682 155.508 250.62L114.25 232.775L114.185 232.748L114.02 232.675L113.91 232.637L113.765 232.59L113.623 232.556L113.498 232.533L113.328 232.506H113.227H113.029H23.7477L-5.07443 220.058H82.4717C83.2225 220.058 83.9425 219.774 84.4734 219.268C85.0043 218.762 85.3026 218.075 85.3026 217.36V199.519C85.3007 199.409 85.2925 199.298 85.2783 199.188V199.122C85.2372 198.848 85.1513 198.581 85.0235 198.332L84.9993 198.286C84.9342 198.168 84.8613 198.055 84.7809 197.947C84.7673 197.928 84.7525 197.91 84.7364 197.893C84.6547 197.785 84.5626 197.684 84.4614 197.592L84.425 197.557C84.3196 197.464 84.2074 197.378 84.0893 197.299C83.9596 197.219 83.8245 197.147 83.6849 197.083H83.6607L42.3424 179.239C41.9751 179.081 41.5766 178.999 41.1736 179H-18.1853C-18.3358 179.001 -18.486 179.014 -18.6342 179.038H-18.6989C-18.8362 179.064 -18.9714 179.098 -19.1033 179.143L-19.164 179.166C-19.3046 179.209 -19.4402 179.265 -19.5684 179.335H-19.6008C-19.7237 179.399 -19.8401 179.474 -19.9485 179.559L-19.9769 179.578C-20.0847 179.662 -20.186 179.754 -20.2802 179.852L-20.3327 179.906C-20.4217 180.005 -20.5028 180.111 -20.5754 180.222C-20.5902 180.24 -20.6037 180.26 -20.6158 180.28C-20.6909 180.397 -20.7558 180.519 -20.8099 180.646V180.673C-20.8666 180.808 -20.9112 180.947 -20.9434 181.089C-20.9747 181.226 -20.9936 181.366 -21 181.506C-21 181.533 -21 181.56 -21 181.587C-21 181.614 -21 181.633 -21 181.656V199.5C-20.9996 200.018 -20.8426 200.526 -20.5479 200.961C-20.2531 201.396 -19.8331 201.742 -19.3379 201.956L10.0342 214.631H-18.1853C-18.3358 214.632 -18.486 214.644 -18.6342 214.669H-18.6989C-18.8358 214.696 -18.9709 214.731 -19.1033 214.773L-19.164 214.796C-19.3032 214.843 -19.4384 214.899 -19.5684 214.966L-19.6008 214.985C-19.7228 215.051 -19.8391 215.125 -19.9485 215.209L-19.9769 215.228C-20.0857 215.313 -20.1872 215.405 -20.2802 215.506L-20.3327 215.56C-20.4226 215.657 -20.5037 215.761 -20.5754 215.872L-20.6158 215.93C-20.6911 216.053 -20.756 216.182 -20.8099 216.315V216.342C-20.8666 216.477 -20.9112 216.616 -20.9434 216.758C-20.9747 216.895 -20.9936 217.035 -21 217.175C-21 217.202 -21 217.229 -21 217.256C-21 217.283 -21 217.298 -21 217.321V235.165C-21.0003 235.684 -20.8437 236.192 -20.5489 236.629C-20.2541 237.065 -19.8337 237.411 -19.3379 237.625L10.0342 250.304H-18.1853C-18.3356 250.305 -18.4856 250.317 -18.6342 250.338H-18.6989C-18.8367 250.362 -18.972 250.396 -19.1033 250.442L-19.164 250.465C-19.3038 250.509 -19.4392 250.564 -19.5684 250.631H-19.6008C-19.7229 250.698 -19.8392 250.774 -19.9485 250.859C-19.9595 250.863 -19.9692 250.869 -19.9769 250.878C-20.0847 250.962 -20.186 251.054 -20.2802 251.152L-20.3327 251.206C-20.4217 251.305 -20.5028 251.411 -20.5754 251.522C-20.5902 251.54 -20.6037 251.559 -20.6158 251.58C-20.6919 251.702 -20.7569 251.831 -20.8099 251.965V251.992C-20.8671 252.127 -20.9118 252.266 -20.9434 252.408C-20.9747 252.545 -20.9936 252.685 -21 252.825C-21 252.852 -21 252.879 -21 252.906C-21 252.933 -21 252.952 -21 252.975V270.819C-20.9996 271.337 -20.8426 271.845 -20.5479 272.28C-20.2531 272.715 -19.8331 273.061 -19.3379 273.275L10.0342 286.004H-18.1853C-18.3358 286.005 -18.486 286.017 -18.6342 286.042H-18.6989C-18.8358 286.069 -18.9709 286.104 -19.1033 286.146L-19.164 286.169C-19.3039 286.214 -19.4393 286.271 -19.5684 286.339L-19.6008 286.358C-19.7228 286.424 -19.8391 286.498 -19.9485 286.582H-19.9769C-20.0857 286.666 -20.1872 286.759 -20.2802 286.859L-20.3327 286.909C-20.4217 287.009 -20.5028 287.115 -20.5754 287.225L-20.6158 287.283C-20.6902 287.4 -20.7551 287.523 -20.8099 287.649V287.676C-20.8666 287.811 -20.9112 287.951 -20.9434 288.093C-20.9744 288.229 -20.9933 288.367 -21 288.505C-21 288.532 -21 288.559 -21 288.59C-21 288.621 -21 288.632 -21 288.656V306.5C-21.0003 307.019 -20.8437 307.527 -20.5489 307.963C-20.2541 308.399 -19.8337 308.745 -19.3379 308.959L21.9845 326.8C22.0532 326.83 22.126 326.857 22.1948 326.88L22.2554 326.9C22.3363 326.923 22.4131 326.946 22.494 326.962H22.5426C22.6254 326.978 22.7091 326.991 22.7933 327H22.8337C22.9308 327 23.0319 327 23.133 327H154.161C154.912 327 155.632 326.716 156.163 326.21C156.694 325.704 156.992 325.017 156.992 324.302V306.546C156.99 306.436 156.982 306.327 156.968 306.218V306.149C156.925 305.881 156.839 305.621 156.713 305.378L156.689 305.328C156.624 305.211 156.551 305.099 156.47 304.993L156.426 304.935C156.343 304.828 156.253 304.728 156.155 304.634L156.114 304.599C156.009 304.507 155.899 304.421 155.783 304.341C155.653 304.261 155.518 304.19 155.378 304.129H155.354L114.032 286.289C113.665 286.129 113.266 286.047 112.863 286.046H25.9679V273.602L69.5792 273.56ZM25.9679 214.631V202.187H79.6409V214.631H25.9679ZM40.5266 184.343L69.3487 196.79H23.7477L-5.07443 184.343H40.5266ZM-15.3666 185.831L20.294 201.227V213.146L-15.3666 197.727V185.831ZM35.7222 250.304H25.9679V237.856H112.236L141.062 250.304H35.7222ZM-15.3545 221.5L20.3062 236.896V248.815L-15.3545 233.419V221.5ZM23.137 255.7H151.334V268.148H23.7477L-5.07443 255.7H23.137ZM-15.3545 257.185L20.3062 272.604V284.523L-15.3545 269.104V257.185ZM-15.3545 292.873L20.3062 308.269V320.188L-15.3545 304.792V292.873ZM25.9679 321.676V309.244H151.334V321.692L25.9679 321.676ZM112.236 291.385L141.062 303.848H23.7477L-5.07443 291.4H112.236V291.385Z" fill="#F1EFE8"/>
</g>
</g>
<path d="M16 0.5H326C334.56 0.5 341.5 7.43959 341.5 16V304C341.5 312.56 334.56 319.5 326 319.5H16C7.43959 319.5 0.5 312.56 0.5 304V16C0.500002 7.43959 7.43959 0.5 16 0.5Z" stroke="#3E3B32"/>
<defs>
<filter id="filter0_di_1548_894" x="-55.3" y="144.7" width="246.6" height="216.6" filterUnits="userSpaceOnUse" color-interpolation-filters="sRGB">
<feFlood flood-opacity="0" result="BackgroundImageFix"/>
<feColorMatrix in="SourceAlpha" type="matrix" values="0 0 0 0 0 0 0 0 0 0 0 0 0 0 0 0 0 0 127 0" result="hardAlpha"/>
<feMorphology radius="2" operator="dilate" in="SourceAlpha" result="effect1_dropShadow_1548_894"/>
<feOffset/>
<feGaussianBlur stdDeviation="16.15"/>
<feComposite in2="hardAlpha" operator="out"/>
<feColorMatrix type="matrix" values="0 0 0 0 0.682353 0 0 0 0 0.647059 0 0 0 0 0.509804 0 0 0 1 0"/>
<feBlend mode="normal" in2="BackgroundImageFix" result="effect1_dropShadow_1548_894"/>
<feBlend mode="normal" in="SourceGraphic" in2="effect1_dropShadow_1548_894" result="shape"/>
<feColorMatrix in="SourceAlpha" type="matrix" values="0 0 0 0 0 0 0 0 0 0 0 0 0 0 0 0 0 0 127 0" result="hardAlpha"/>
<feOffset/>
<feGaussianBlur stdDeviation="4"/>
<feComposite in2="hardAlpha" operator="arithmetic" k2="-1" k3="1"/>
<feColorMatrix type="matrix" values="0 0 0 0 0.713726 0 0 0 0 0.678431 0 0 0 0 0.552941 0 0 0 1 0"/>
<feBlend mode="normal" in2="shape" result="effect2_innerShadow_1548_894"/>
</filter>
<clipPath id="clip0_1548_894">
<path d="M0 16C0 7.16345 7.16344 0 16 0H326C334.837 0 342 7.16344 342 16V304C342 312.837 334.837 320 326 320H16C7.16344 320 0 312.837 0 304V16Z" fill="white"/>
</clipPath>
</defs>
</svg>
