<svg width="342" height="320" viewBox="0 0 342 320" fill="none" xmlns="http://www.w3.org/2000/svg">
<g clip-path="url(#clip0_1548_899)">
<path d="M0 16C0 7.16345 7.16344 0 16 0H326C334.837 0 342 7.16344 342 16V304C342 312.837 334.837 320 326 320H16C7.16344 320 0 312.837 0 304V16Z" fill="#3E3B32"/>
<g filter="url(#filter0_di_1548_899)">
<g clip-path="url(#clip1_1548_899)">
<path d="M178.286 265.609C175.706 260.953 167.193 251.783 161.961 250.045C154.978 248.97 159.16 255.2 159.16 257.871C157.358 259.222 154.557 260.737 153.201 262.543C152.385 263.243 155.192 269.671 160.603 267.606C166.014 265.541 162.897 269.707 166.634 277.96C170.372 286.213 177.855 286.377 181.222 283.878C185.491 280.71 180.635 269.848 178.286 265.609Z" fill="#F1EFE8"/>
<path d="M199.923 318.258C199.922 318.265 199.918 318.271 199.917 318.278C199.917 318.292 199.919 318.292 199.923 318.258Z" fill="#F1EFE8"/>
<path d="M60 156.375C-84.4777 156.375 -201.625 273.522 -201.625 418C-201.625 562.479 -84.4777 679.625 60 679.625C204.479 679.625 321.625 562.479 321.625 418C321.625 273.522 204.479 156.375 60 156.375ZM-36.4754 620.554C-42.9167 616.895 -47.4239 611.724 -49.2775 601.949C-53.8875 577.646 -49.6314 564.496 -28.2984 550.272C-18.2492 543.573 -16.5931 535.472 -8.55976 527.439C-6.59173 524.939 -1.30551 515.322 2.18555 514.825C6.43345 513.915 18.1972 511.873 20.5227 507.233C24.9493 501.222 34.6866 475.233 38.9766 472.659C45.9809 468.074 55.8175 454.018 48.6707 445.679C40.4704 435.584 29.05 435.44 18.4203 430.143C9.05904 425.462 4.90224 404.12 -2.25274 396.738C-16.1656 382.564 -37.2906 374.314 -54.8113 365.554C-64.2906 361.758 -63.3889 360.583 -70.8125 368.006C-80.3455 377.539 -94.2805 365.592 -95.6902 355.743C-95.7954 352.47 -99.5399 334.467 -97.3254 333.084C-76.3533 319.974 -107.052 322.993 -109.589 316.966C-115.844 299.455 -94.3961 285.594 -79.9227 284.146C-63.7054 282.116 -60.3195 309.719 -54.1105 307.389C-51.1252 305.898 -51.1135 292.913 -50.7234 290.103C-49.2436 280.725 -46.5328 279.272 -37.4086 275.883C-26.7824 271.936 -18.6475 266.986 -7.39179 265.108C5.46287 261.377 16.3378 263.318 26.2457 255.064C30.7868 251.659 34.0758 256.909 38.3926 257.867C47.7352 259.734 49.7219 244.902 49.7219 239.296C49.6822 233.848 51.1994 229.217 44.2324 223.412C35.1153 216.323 22.0071 222.397 14.6828 229.719C5.83661 237.935 -4.42166 237.369 -1.43516 223.178C-0.694671 218.001 10.4886 211.981 14.9164 209.163C19.2379 206.567 21.8121 212.108 27.0633 210.798C34.7474 209.089 37.6147 216.328 46.6852 216.404C50.4612 215.55 63.9664 208.367 56.746 193.785C57.8311 193.775 58.9138 193.75 60 193.75C62.1666 193.75 64.3297 193.79 66.4881 193.85C69.7642 204.223 59.5211 213.055 64.6719 226.103C74.9383 251.185 83.35 229.623 93.5207 217.927C96.8483 214.599 98.9319 215.345 104.383 214.306C107.765 213.742 112.623 203.479 114.186 200.312C137.613 206.1 159.878 215.644 180.254 228.641C171.556 229.566 169.336 227.01 169.469 237.257C169.518 241.131 169.816 252.813 175.629 253.784C185.296 254.922 183.549 261.763 192.624 262.952C201.317 264.092 195.913 271.774 199.458 279.362C203.421 291.307 176.325 294.898 171.074 296.648C155.143 301.967 178.479 325.158 188.827 322.694C192.117 321.871 203.094 320.472 203.855 316.776C203.842 316.398 201.711 303.914 202.843 302.488C204.633 300.229 208.826 299.047 215.429 302.786C231.049 311.631 238.958 332.803 257.355 337.001C259.862 337.572 264.199 336.826 267.276 339.376C269.882 342.897 276.526 349.205 268.597 349.205C258.065 346.866 252.502 350.209 243.838 343.513C234.806 336.532 229.188 330.792 217.267 330.576C207.001 330.391 197.785 326.116 187.206 327.832C181.308 328.788 175.482 331.115 169.789 332.854C164.397 334.65 163.354 344.259 157.876 345.351C135.139 350.702 140.051 372.412 135.95 389.632C134.372 396.245 128.913 414.163 134.868 420.101C145.52 430.442 157.974 444.669 173.617 446.921C182.033 448.132 200.426 441.577 206.113 450.118C208.521 454.911 214.811 446.579 216.508 450.82C220.786 463.654 211.529 472.061 211.442 484.167C211.314 501.923 222.162 508.192 207.631 524.05C191.698 539.943 202.57 560.01 193.732 578.945C189.011 588.682 188.117 602.18 181.034 606.716C165.476 616.681 148.682 624.701 131.146 630.524C100.046 640.846 66.7263 644.156 34.1844 640.4C17.1099 638.428 0.265404 634.494 -15.8981 628.644C-20.3002 627.052 -24.4009 625.719 -28.1291 624.318C-30.9345 623.118 -33.719 621.869 -36.4754 620.554ZM-85.1797 588.908C-85.7263 588.444 -86.2717 587.978 -86.8137 587.508C-90.8362 584.014 -94.7582 580.369 -98.5634 576.563C-102.521 572.606 -106.312 568.527 -109.932 564.334C-109.973 564.286 -110.014 564.238 -110.055 564.19C-110.799 563.328 -111.523 562.454 -112.253 561.581C-172.62 488.628 -181.467 381.798 -130.846 300.152C-123.747 307.251 -135.636 321.203 -122.086 330.519C-116.102 334.731 -110.382 333.041 -111.575 340.797C-112.734 348.329 -105.32 348.196 -104.216 354.813C-100.897 369.33 -81.7832 376.586 -92.6535 392.889C-103.303 407.634 -112.5 424.107 -104.45 442.878C-101.817 449.722 -95.2009 456.728 -90.1751 461.85C-81.0497 471.154 -81.559 465.574 -81.559 477.333C-81.7412 482.44 -75.4143 487.724 -76.0695 490.998C-77.2387 500.355 -79.4613 509.604 -80.6246 518.912C-82.7176 552.361 -80.7753 585.092 -55.7469 610.131C-65.0544 604.518 -74.0092 598.16 -82.5728 591.105C-83.4464 590.382 -84.3142 589.646 -85.1797 588.908Z" fill="#F1EFE8"/>
</g>
</g>
</g>
<path d="M16 0.5H326C334.56 0.5 341.5 7.43959 341.5 16V304C341.5 312.56 334.56 319.5 326 319.5H16C7.43959 319.5 0.5 312.56 0.5 304V16C0.500002 7.43959 7.43959 0.5 16 0.5Z" stroke="#3E3B32"/>
<defs>
<filter id="filter0_di_1548_899" x="-224.3" y="133.7" width="568.6" height="568.6" filterUnits="userSpaceOnUse" color-interpolation-filters="sRGB">
<feFlood flood-opacity="0" result="BackgroundImageFix"/>
<feColorMatrix in="SourceAlpha" type="matrix" values="0 0 0 0 0 0 0 0 0 0 0 0 0 0 0 0 0 0 127 0" result="hardAlpha"/>
<feMorphology radius="2" operator="dilate" in="SourceAlpha" result="effect1_dropShadow_1548_899"/>
<feOffset/>
<feGaussianBlur stdDeviation="16.15"/>
<feComposite in2="hardAlpha" operator="out"/>
<feColorMatrix type="matrix" values="0 0 0 0 0.682353 0 0 0 0 0.647059 0 0 0 0 0.509804 0 0 0 1 0"/>
<feBlend mode="normal" in2="BackgroundImageFix" result="effect1_dropShadow_1548_899"/>
<feBlend mode="normal" in="SourceGraphic" in2="effect1_dropShadow_1548_899" result="shape"/>
<feColorMatrix in="SourceAlpha" type="matrix" values="0 0 0 0 0 0 0 0 0 0 0 0 0 0 0 0 0 0 127 0" result="hardAlpha"/>
<feOffset/>
<feGaussianBlur stdDeviation="4"/>
<feComposite in2="hardAlpha" operator="arithmetic" k2="-1" k3="1"/>
<feColorMatrix type="matrix" values="0 0 0 0 0.713726 0 0 0 0 0.678431 0 0 0 0 0.552941 0 0 0 1 0"/>
<feBlend mode="normal" in2="shape" result="effect2_innerShadow_1548_899"/>
</filter>
<clipPath id="clip0_1548_899">
<path d="M0 16C0 7.16345 7.16344 0 16 0H326C334.837 0 342 7.16344 342 16V304C342 312.837 334.837 320 326 320H16C7.16344 320 0 312.837 0 304V16Z" fill="white"/>
</clipPath>
<clipPath id="clip1_1548_899">
<path d="M-190 418C-190 279.929 -78.0712 168 60 168V168C198.071 168 310 279.929 310 418V418C310 556.071 198.071 668 60 668V668C-78.0712 668 -190 556.071 -190 418V418Z" fill="white"/>
</clipPath>
</defs>
</svg>
