<svg width="18" height="17" viewBox="0 0 18 17" fill="none" xmlns="http://www.w3.org/2000/svg">
<path d="M8.99913 0.640869C4.42713 0.640869 0.719849 4.34743 0.719849 8.92087C0.719849 12.5799 3.09153 15.6831 6.38265 16.7789C6.79593 16.8531 6.92697 16.609 6.92697 16.3894C6.92697 16.1922 6.93129 15.6428 6.92697 14.9516C4.62441 15.4513 4.14705 13.8608 4.14705 13.8608C3.77049 12.9039 3.22905 12.6497 3.22905 12.6497C2.47665 12.1357 3.28449 12.1465 3.28449 12.1465C4.11465 12.2041 4.55313 12.999 4.55313 12.999C5.29185 14.2647 6.49065 13.8989 6.96225 13.6873C7.03857 13.153 7.25169 12.7866 7.48857 12.5814C5.64969 12.3711 3.71721 11.6619 3.71721 8.48743C3.71721 7.58383 4.03977 6.84511 4.56969 6.26551C4.48473 6.05743 4.19961 5.21431 4.65033 4.07455C4.65033 4.07455 5.34657 3.85207 6.92697 4.92415C7.60279 4.73983 8.30006 4.64589 9.00057 4.64479C9.70329 4.64839 10.4118 4.73983 11.0742 4.92415C12.6546 3.85279 13.3486 4.07455 13.3486 4.07455C13.8001 5.21431 13.5157 6.05743 13.4307 6.26551C13.9606 6.84511 14.2825 7.58383 14.2825 8.48743C14.2825 11.6698 12.3464 12.3689 10.5018 12.5727C10.7984 12.8298 11.0684 13.3265 11.0684 14.0991V16.3916C11.0684 16.6134 11.2023 16.8574 11.6228 16.7775C14.9103 15.681 17.2799 12.5785 17.2799 8.92087C17.2799 4.34743 13.5733 0.640869 8.99913 0.640869Z" fill="#1A1A1A"/>
</svg>
