<svg width="20" height="18" viewBox="0 0 20 18" fill="none" xmlns="http://www.w3.org/2000/svg">
<path d="M9.93666 15.9141C11.4032 15.9158 12.8374 15.4824 14.0576 14.6688C15.2778 13.8553 16.2294 12.6981 16.7918 11.3436C17.3542 9.98915 17.5022 8.49831 17.2171 7.0597C16.932 5.62109 16.2267 4.29937 15.1902 3.26174C14.1538 2.22411 12.8329 1.51721 11.3946 1.23048C9.95633 0.943739 8.46531 1.09005 7.11021 1.65089C5.7551 2.21174 4.59679 3.16192 3.78183 4.38122C2.96686 5.60052 2.53186 7.03415 2.53186 8.50073C2.53186 10.4654 3.31173 12.3497 4.70016 13.7397C6.08858 15.1298 7.972 15.9118 9.93666 15.9141Z" fill="white"/>
<path d="M17.3498 8.5008C17.3498 7.03458 16.915 5.60129 16.1004 4.38217C15.2859 3.16305 14.128 2.21287 12.7734 1.65177C11.4188 1.09067 9.92826 0.943864 8.49021 1.22991C7.05216 1.51595 5.73123 2.22201 4.69446 3.25878C3.65769 4.29555 2.95163 5.61648 2.66559 7.05453C2.37954 8.49257 2.52635 9.98315 3.08745 11.3378C3.64855 12.6924 4.59873 13.8502 5.81785 14.6648C7.03697 15.4793 8.47026 15.9141 9.93648 15.9141C10.91 15.9141 11.874 15.7224 12.7734 15.3498C13.6729 14.9773 14.4901 14.4312 15.1785 13.7428C15.8669 13.0544 16.413 12.2372 16.7855 11.3378C17.1581 10.4383 17.3498 9.47433 17.3498 8.5008ZM1.67834 8.5008C1.67835 6.86544 2.16339 5.26683 3.07212 3.9072C3.98085 2.54757 5.27244 1.48801 6.78347 0.86258C8.2945 0.237147 9.95709 0.0739383 11.5609 0.393602C13.1647 0.713265 14.6377 1.50144 15.7934 2.6584C16.9492 3.81537 17.7359 5.28915 18.0539 6.89329C18.3719 8.49743 18.207 10.1598 17.58 11.6702C16.953 13.1806 15.8921 14.4711 14.5315 15.3784C13.1709 16.2858 11.5718 16.7692 9.93648 16.7675C7.7455 16.7652 5.64503 15.8933 4.09658 14.3432C2.54812 12.7931 1.67834 10.6918 1.67834 8.5008Z" fill="#1A1A1A"/>
<path d="M12.3451 6.48256C12.6182 6.57856 12.7249 7.13749 13.0001 6.99243C13.1864 6.89349 13.3392 6.74152 13.4392 6.55572C13.5392 6.36993 13.5818 6.15866 13.5617 5.94863C13.5416 5.73861 13.4596 5.53927 13.3262 5.37582C13.1928 5.21238 13.0139 5.09216 12.8122 5.03039C12.6105 4.96861 12.3949 4.96805 12.1929 5.02878C11.9908 5.0895 11.8113 5.20878 11.6771 5.37153C11.5428 5.53429 11.4598 5.7332 11.4386 5.94311C11.4174 6.15303 11.4589 6.36452 11.5579 6.55083C11.6881 6.79616 12.1019 6.39723 12.3451 6.48256ZM7.32114 6.48256C7.04808 6.57856 6.93928 7.13749 6.66621 6.99243C6.47986 6.89349 6.32704 6.74152 6.22707 6.55572C6.1271 6.36993 6.08448 6.15866 6.10459 5.94863C6.1247 5.73861 6.20664 5.53927 6.34005 5.37582C6.47346 5.21238 6.65235 5.09216 6.85409 5.03039C7.05582 4.96861 7.27135 4.96805 7.4734 5.02878C7.67546 5.0895 7.85497 5.20878 7.98922 5.37153C8.12348 5.53429 8.20646 5.7332 8.22767 5.94311C8.24887 6.15303 8.20734 6.36452 8.10834 6.55083C7.97821 6.79616 7.56221 6.39723 7.32114 6.48256ZM9.88328 11.6026C11.9803 11.6026 12.6566 9.73376 12.6566 8.77376C12.6566 8.27456 12.3217 8.43029 11.7841 8.69696C11.287 8.94229 10.6193 9.28149 9.88328 9.28149C8.35154 9.28149 7.10994 7.81376 7.10994 8.77376C7.10994 9.73376 7.78621 11.6026 9.88328 11.6026Z" fill="#1A1A1A"/>
<path d="M9.93667 13.7809C10.3699 13.7789 10.7887 13.625 11.1202 13.3461C11.4516 13.0673 11.6749 12.681 11.751 12.2545C11.8271 11.828 11.7513 11.3884 11.5367 11.012C11.3221 10.6357 10.9824 10.3465 10.5767 10.1948L10.4999 10.167C10.3207 10.1116 10.1308 10.7217 9.93453 10.7217C9.73827 10.7217 9.57187 10.1073 9.4076 10.1564C8.98104 10.2832 8.61442 10.5594 8.37484 10.9344C8.13527 11.3095 8.03878 11.7582 8.10302 12.1986C8.16726 12.639 8.38794 13.0415 8.72467 13.3324C9.06139 13.6234 9.49165 13.7833 9.93667 13.783V13.7809Z" fill="#CCCCCC"/>
<path d="M14.9501 7.4875C15.0876 7.48919 15.2225 7.44997 15.3376 7.37482C15.4527 7.29967 15.5429 7.19199 15.5967 7.06546C15.6505 6.93893 15.6654 6.79926 15.6397 6.66421C15.6139 6.52916 15.5485 6.40482 15.4519 6.307C15.3553 6.20918 15.2318 6.14229 15.0971 6.11484C14.9623 6.08739 14.8225 6.10062 14.6953 6.15283C14.5681 6.20505 14.4593 6.2939 14.3828 6.4081C14.3062 6.52229 14.2653 6.65667 14.2653 6.79416C14.2653 6.97658 14.3372 7.15165 14.4653 7.28143C14.5935 7.41121 14.7677 7.48525 14.9501 7.4875ZM5.0301 7.4875C5.16723 7.4875 5.30127 7.44683 5.41529 7.37065C5.52931 7.29447 5.61818 7.18618 5.67065 7.05949C5.72313 6.9328 5.73686 6.79339 5.71011 6.6589C5.68336 6.52441 5.61732 6.40087 5.52036 6.3039C5.42339 6.20694 5.29985 6.14091 5.16536 6.11415C5.03087 6.0874 4.89146 6.10113 4.76477 6.15361C4.63808 6.20608 4.5298 6.29495 4.45361 6.40897C4.37743 6.52299 4.33676 6.65704 4.33676 6.79416C4.33676 6.97805 4.40981 7.1544 4.53984 7.28442C4.66986 7.41445 4.84621 7.4875 5.0301 7.4875ZM3.59863 9.83416C3.43588 9.83427 3.27514 9.87004 3.12771 9.93896C2.98027 10.0079 2.84974 10.1083 2.7453 10.2331C2.56125 10.459 2.46101 10.7417 2.46156 11.0331C2.32713 10.9932 2.18791 10.9716 2.0477 10.9691C1.88858 10.9656 1.73052 10.9957 1.58383 11.0574C1.43715 11.1192 1.30516 11.2112 1.1965 11.3275C1.06662 11.4613 0.968658 11.6227 0.909921 11.7996C0.851185 11.9766 0.833195 12.1645 0.857298 12.3494C0.879416 12.5167 0.936865 12.6774 1.02583 12.8208C0.838385 12.9762 0.704748 13.1867 0.643964 13.4224C0.599266 13.5933 0.591174 13.7718 0.620217 13.946C0.64926 14.1203 0.714784 14.2865 0.812498 14.4336C0.795431 14.4592 0.780498 14.4891 0.765564 14.5168C0.684593 14.668 0.639756 14.8358 0.634574 15.0072C0.629392 15.1786 0.664006 15.3488 0.735698 15.5046C0.949031 15.9995 1.4973 16.3878 2.5533 16.808C3.20823 17.0662 3.80983 17.2347 3.8141 17.2347C4.57407 17.445 5.35745 17.5589 6.14583 17.5739C7.39596 17.5739 8.28983 17.192 8.80396 16.4368C9.6317 15.2208 9.51436 14.1008 8.44343 13.0342C7.99703 12.5457 7.6364 11.9852 7.37676 11.3766C7.2125 10.8091 6.77303 10.1776 6.04556 10.1776C5.9841 10.1774 5.92272 10.1824 5.8621 10.1926C5.70224 10.2197 5.54944 10.2785 5.41276 10.3658C5.27608 10.453 5.15829 10.5667 5.06636 10.7003C4.89285 10.4726 4.68568 10.2726 4.45196 10.1072C4.19981 9.93582 3.90346 9.84099 3.59863 9.83416ZM3.59863 10.6875C3.73827 10.6975 3.87253 10.7454 3.9869 10.8262C4.45196 11.1142 5.3245 12.6246 5.64663 13.2112C5.6901 13.2949 5.75559 13.3652 5.83604 13.4144C5.91648 13.4637 6.00884 13.4901 6.10316 13.4907C6.43383 13.4907 6.68983 13.1643 6.13516 12.7483C5.2989 12.1232 5.59116 11.1014 5.9901 11.0416C6.0071 11.0396 6.02429 11.0396 6.0413 11.0416C6.40396 11.0416 6.56396 11.6667 6.56396 11.6667C6.87062 12.3975 7.30394 13.0685 7.84396 13.6486C8.64823 14.4528 8.6973 15.0992 8.10423 15.9611C7.70316 16.5478 6.9373 16.7248 6.1501 16.7248C5.43156 16.7055 4.71804 16.5988 4.0253 16.407C4.00183 16.407 1.15596 15.5963 1.5165 14.9136C1.54285 14.8614 1.58405 14.8182 1.63492 14.7893C1.68578 14.7605 1.74404 14.7473 1.80236 14.7515C2.3101 14.7515 3.23383 15.5067 3.63063 15.5067C3.67109 15.512 3.71207 15.502 3.74559 15.4788C3.77911 15.4555 3.80277 15.4206 3.81196 15.3808C3.9805 14.775 1.23916 14.5275 1.4653 13.64C1.48109 13.5728 1.52122 13.5138 1.57795 13.4744C1.63468 13.435 1.70398 13.418 1.7725 13.4267C2.44236 13.4267 3.9485 14.6064 4.26423 14.6064C4.27404 14.607 4.28384 14.6052 4.29277 14.6011C4.3017 14.597 4.30948 14.5908 4.31543 14.583C4.4733 14.3291 4.38583 14.1563 3.27223 13.4758C2.15863 12.7952 1.37996 12.3942 1.8237 11.9035C1.85147 11.8756 1.88486 11.854 1.92164 11.84C1.95842 11.826 1.99776 11.82 2.03703 11.8224C2.7133 11.8224 4.31116 13.2774 4.31116 13.2774C4.31116 13.2774 4.73783 13.7254 5.0045 13.7254C5.03382 13.7267 5.06294 13.7198 5.08856 13.7055C5.11419 13.6911 5.13531 13.67 5.14956 13.6443C5.33303 13.3328 3.4301 11.8907 3.32343 11.2976C3.2509 10.9008 3.3853 10.6875 3.59863 10.6875Z" fill="#1A1A1A"/>
<path d="M8.09969 15.9546C8.68636 15.1012 8.64369 14.4463 7.83943 13.642C7.2994 13.0619 6.86608 12.391 6.55943 11.6602C6.55943 11.6602 6.38449 10.9754 5.98556 11.0394C5.58663 11.1034 5.29436 12.1231 6.13063 12.746C6.96689 13.369 5.96423 13.7956 5.64209 13.209C5.31996 12.6223 4.45169 11.114 3.99089 10.826C3.53009 10.538 3.21649 10.7002 3.32316 11.2954C3.42983 11.8906 5.33489 13.3327 5.14929 13.642C4.96369 13.9514 4.31089 13.2751 4.31089 13.2751C4.31089 13.2751 2.26929 11.4191 1.82343 11.9034C1.37756 12.3876 2.16263 12.793 3.27623 13.4607C4.38983 14.1284 4.47729 14.314 4.31943 14.5679C4.16156 14.8218 1.69969 12.7567 1.46503 13.6356C1.23036 14.5146 3.98023 14.7706 3.81169 15.3807C3.64316 15.9908 1.87889 14.2287 1.52049 14.9114C1.16209 15.594 4.00583 16.4047 4.02929 16.4047C4.94876 16.6458 7.28263 17.1514 8.09969 15.9546Z" fill="white"/>
<path d="M16.3771 9.83419C16.5434 9.83098 16.7084 9.86516 16.8597 9.9342C17.0111 10.0032 17.1451 10.1054 17.2517 10.2331C17.4358 10.4591 17.536 10.7417 17.5354 11.0331C17.674 10.9922 17.8176 10.9707 17.9621 10.9691C18.1166 10.9694 18.2693 11.0014 18.411 11.0631C18.5526 11.1247 18.6801 11.2147 18.7856 11.3275C18.9151 11.4616 19.0128 11.623 19.0715 11.7999C19.1302 11.9767 19.1484 12.1645 19.1248 12.3494C19.1023 12.5163 19.0456 12.6768 18.9584 12.8209C19.1472 12.975 19.2811 13.186 19.3403 13.4225C19.3846 13.5931 19.3926 13.7711 19.3635 13.945C19.3345 14.1188 19.2691 14.2846 19.1717 14.4315C19.1888 14.4571 19.2059 14.487 19.2208 14.5147C19.3008 14.6662 19.3451 14.8339 19.3503 15.0051C19.3555 15.1763 19.3214 15.3465 19.2507 15.5025C19.0373 15.9974 18.4869 16.3857 17.4331 16.8059C16.776 17.0641 16.1765 17.2326 16.1701 17.2326C15.4101 17.4429 14.6268 17.5568 13.8384 17.5718C12.5882 17.5718 11.7051 17.1899 11.1803 16.4347C10.3483 15.2209 10.4656 14.1009 11.5387 13.0342C11.9862 12.5466 12.3469 11.9859 12.6053 11.3766C12.7717 10.8091 13.209 10.1777 13.9365 10.1777C13.998 10.1772 14.0594 10.1822 14.12 10.1926C14.2801 10.2196 14.4333 10.2785 14.5703 10.3657C14.7073 10.4529 14.8255 10.5667 14.9179 10.7003C15.0893 10.4703 15.2959 10.2687 15.5301 10.103C15.7806 9.9336 16.0747 9.84025 16.3771 9.83419ZM16.3771 10.6875C16.2375 10.6978 16.1033 10.7457 15.9888 10.8262C15.5451 11.1142 14.6555 12.6246 14.3333 13.2113C14.29 13.2951 14.2246 13.3655 14.1441 13.4148C14.0636 13.4641 13.9712 13.4903 13.8768 13.4907C13.5483 13.4907 13.2901 13.1643 13.8469 12.7483C14.6811 12.1233 14.3888 11.1014 13.9899 11.0417C13.9728 11.0396 13.9557 11.0396 13.9387 11.0417C13.576 11.0417 13.416 11.6667 13.416 11.6667C13.1089 12.3973 12.6757 13.0682 12.136 13.6486C11.3296 14.4529 11.2827 15.0993 11.8757 15.9611C12.2747 16.5478 13.0427 16.7249 13.8277 16.7249C14.5438 16.7069 15.2551 16.6023 15.9461 16.4134C15.9675 16.4134 18.8155 15.6027 18.4549 14.9201C18.4283 14.868 18.3871 14.825 18.3363 14.7961C18.2855 14.7673 18.2273 14.754 18.169 14.7579C17.6613 14.7579 16.7376 15.5131 16.3408 15.5131C16.3003 15.5176 16.2596 15.5067 16.2268 15.4826C16.194 15.4585 16.1715 15.423 16.1637 15.383C15.993 14.7771 18.7237 14.5297 18.5104 13.6422C18.4946 13.575 18.4545 13.516 18.3977 13.4766C18.341 13.4372 18.2717 13.4202 18.2032 13.4289C17.5333 13.4289 16.0272 14.6086 15.7115 14.6086C15.7019 14.6094 15.6923 14.6077 15.6837 14.6036C15.6751 14.5995 15.6677 14.5931 15.6624 14.5851C15.5045 14.3313 15.5899 14.1585 16.7035 13.4779C17.8171 12.7974 18.6 12.3942 18.1563 11.9035C18.1286 11.8755 18.0952 11.8538 18.0584 11.8398C18.0216 11.8259 17.9822 11.8199 17.9429 11.8225C17.2645 11.8225 15.6667 13.2774 15.6667 13.2774C15.6667 13.2774 15.24 13.7254 14.9755 13.7254C14.9461 13.7267 14.917 13.7198 14.8914 13.7055C14.8658 13.6912 14.8446 13.67 14.8304 13.6443C14.6448 13.3329 16.5371 11.8907 16.6544 11.2977C16.7291 10.9009 16.6117 10.6875 16.3771 10.6875Z" fill="#1A1A1A"/>
<path d="M11.8824 15.9546C11.2957 15.1012 11.3363 14.4463 12.1427 13.642C12.6823 13.0616 13.1156 12.3908 13.4227 11.6602C13.4227 11.6602 13.5976 10.9754 13.9965 11.0394C14.3955 11.1034 14.6877 12.1231 13.8536 12.746C13.0195 13.369 14.02 13.7956 14.34 13.209C14.66 12.6223 15.5453 11.114 15.9891 10.826C16.4328 10.538 16.7656 10.7002 16.6568 11.2954C16.548 11.8906 14.6472 13.3327 14.8328 13.642C15.0184 13.9514 15.6691 13.2751 15.6691 13.2751C15.6691 13.2751 17.7128 11.417 18.1565 11.9012C18.6003 12.3855 17.8195 12.7908 16.7059 13.465C15.5923 14.1391 15.5048 14.3183 15.6627 14.5722C15.8205 14.826 18.2803 12.7546 18.5107 13.6335C18.7411 14.5124 16.0019 14.7684 16.164 15.3743C16.3261 15.9802 18.084 14.2266 18.4552 14.9092C18.8264 15.5919 15.9699 16.4026 15.9464 16.4026C15.0333 16.6458 12.6973 17.1514 11.8824 15.9546Z" fill="white"/>
</svg>
