<svg width="237" height="32" viewBox="0 0 237 32" fill="none" xmlns="http://www.w3.org/2000/svg">
<g clip-path="url(#clip0_1_1820)">
<path d="M107.044 27.2751H112.531V13.8873H107.044V9.57714H118.014V15.5951H118.357C118.557 14.8306 118.83 14.0871 119.172 13.3747C119.523 12.6647 119.986 12.0163 120.544 11.4547C121.135 10.8711 121.834 10.4077 122.601 10.0898C123.513 9.72665 124.489 9.55224 125.47 9.57714H127.869V14.7004H123.328C121.672 14.7004 120.368 15.1837 119.416 16.1502C118.944 16.6433 118.576 17.2263 118.333 17.8646C118.09 18.5028 117.977 19.1834 118.001 19.8661V27.2914H125.672V31.6049H107.031L107.044 27.2751Z" fill="white"/>
<path d="M95.7063 32.1012C94.1534 32.1258 92.6103 31.8497 91.1619 31.2882C89.8821 30.7715 88.7281 29.9853 87.778 28.9829C86.8278 27.9302 86.0994 26.6963 85.6363 25.3551C84.6634 22.2427 84.6634 18.9068 85.6363 15.7943C86.0994 14.4522 86.8278 13.2172 87.778 12.1633C88.7289 11.1619 89.8827 10.3759 91.1619 9.85797C92.611 9.29912 94.1537 9.02421 95.7063 9.04818C97.2438 9.02699 98.7711 9.3019 100.205 9.85797C101.492 10.3611 102.649 11.1492 103.589 12.1633C104.558 13.2035 105.288 14.4426 105.731 15.7943C106.761 18.8977 106.761 22.2517 105.731 25.3551C105.288 26.7057 104.557 27.9436 103.589 28.9829C102.65 29.998 101.493 30.7862 100.205 31.2882C98.7718 31.8469 97.2442 32.1229 95.7063 32.1012ZM95.7063 27.9151C97.2776 27.9151 98.5196 27.446 99.4324 26.5078C100.345 25.5695 100.803 24.1611 100.805 22.2825V18.8669C100.805 17.0144 100.347 15.6202 99.4324 14.6841C98.5196 13.7154 97.2776 13.2311 95.7063 13.2311C94.135 13.2311 92.8919 13.7154 91.9769 14.6841C91.0641 15.6202 90.6067 17.0144 90.6045 18.8669V22.2825C90.6045 24.1306 91.0619 25.5391 91.9769 26.5078C92.8919 27.4765 94.135 27.9456 95.7063 27.9151Z" fill="white"/>
<path d="M74.6404 32.1012C72.4874 32.1502 70.3459 31.7729 68.3388 30.991C66.7168 30.3327 65.2871 29.2747 64.1823 27.9151L67.3967 25.0123C68.2759 25.9822 69.3399 26.766 70.5262 27.3176C71.8381 27.8822 73.2552 28.1594 74.6827 28.1307C76.0562 28.1307 77.156 27.9031 77.9818 27.4482C78.3683 27.2564 78.6911 26.9568 78.9115 26.5855C79.1319 26.2141 79.2403 25.7868 79.2238 25.3551C79.2238 24.5584 78.9402 24.0164 78.3665 23.7225C77.6777 23.3899 76.9404 23.1695 76.1823 23.0694L72.6256 22.5143C71.7138 22.3745 70.8121 22.1749 69.9264 21.9168C69.1023 21.649 68.3224 21.2606 67.6118 20.7641C66.9522 20.2801 66.4105 19.6527 66.0275 18.929C65.6058 18.0662 65.4 17.1137 65.4277 16.1535C65.4277 13.8482 66.2839 12.0838 67.9965 10.8604C69.7091 9.63704 72.0943 9.02534 75.1521 9.02534C77.0073 8.97627 78.8549 9.281 80.5963 9.9233C82.0179 10.459 83.2941 11.3213 84.3225 12.4408L81.4537 15.5984C80.7294 14.8481 79.8714 14.24 78.9239 13.8057C77.8981 13.2659 76.5843 12.9959 74.9826 12.9959C72.1834 12.9959 70.7838 13.8667 70.7838 15.6082C70.7838 16.4049 71.0674 16.96 71.6411 17.2735C72.346 17.6029 73.0968 17.8231 73.8677 17.9266L77.382 18.4817C78.2985 18.6229 79.2014 18.8413 80.0812 19.1347C80.9119 19.3656 81.6954 19.7414 82.3958 20.2449C83.0751 20.7203 83.6334 21.3489 84.0258 22.08C84.4503 22.9266 84.6566 23.8662 84.6256 24.8131C84.6625 25.8598 84.439 26.8994 83.9752 27.8381C83.5114 28.7769 82.822 29.5854 81.9688 30.191C80.2258 31.4623 77.783 32.0991 74.6404 32.1012Z" fill="white"/>
<path d="M44.1042 31.5886V9.56081H49.5874V13.4465H49.8026C50.2856 12.256 51.0496 11.2006 52.0292 10.3706C53.0593 9.48901 54.472 9.04817 56.2671 9.04817C58.4404 9.04817 60.1964 9.77417 61.5352 11.2261C62.874 12.6781 63.5608 14.7265 63.5955 17.3714V31.5886H58.1155V18.1518C58.1155 14.9649 56.73 13.3703 53.959 13.3682C53.4085 13.3654 52.8601 13.4379 52.3291 13.5837C51.8207 13.7224 51.3422 13.9537 50.9175 14.2661C50.521 14.5502 50.188 14.9138 49.9395 15.3339C49.7058 15.8106 49.5937 16.3379 49.6135 16.8686V31.5984L44.1042 31.5886Z" fill="white"/>
<path d="M14.5688 6.39675V31.5821H8.99752V6.39675H7.62939e-06V1.79267H23.5664V6.39675H14.5688Z" fill="white"/>
<path d="M215.344 0H220.83V18.5241H221.088L224.302 15.0237L229.743 9.56079H236.13L227.328 18.2269L237.055 31.5886H230.5L223.429 21.342L220.821 23.8171V31.5886H215.334L215.344 0Z" fill="white"/>
<path d="M204.778 32.1012C203.227 32.1254 201.685 31.8493 200.237 31.2882C198.94 30.7794 197.769 29.9926 196.808 28.9829C195.86 27.9285 195.132 26.6951 194.666 25.3551C193.693 22.2427 193.693 18.9068 194.666 15.7943C195.132 14.4533 195.86 13.2189 196.808 12.1633C197.759 11.1611 198.914 10.375 200.195 9.85796C201.643 9.29904 203.185 9.02413 204.736 9.04817C207.077 9.04817 208.962 9.53251 210.392 10.5012C211.811 11.4557 212.94 12.7847 213.652 14.3412L209.414 16.6465C209.05 15.7551 208.459 14.9749 207.699 14.3837C206.985 13.7861 205.998 13.489 204.743 13.489C203.113 13.489 201.855 13.9581 200.971 14.8963C200.086 15.8346 199.658 17.1157 199.686 18.7396V22.3967C199.686 23.9902 200.115 25.2713 200.971 26.24C201.827 27.2087 203.113 27.6778 204.827 27.6473C206.131 27.6473 207.175 27.348 207.957 26.7494C208.782 26.1195 209.443 25.2996 209.884 24.3592L213.998 26.7918C213.25 28.364 212.078 29.6952 210.614 30.6351C209.123 31.6103 207.178 32.099 204.778 32.1012Z" fill="white"/>
<path d="M182.94 32.1012C181.388 32.1253 179.846 31.8493 178.399 31.2881C177.118 30.7715 175.963 29.9853 175.012 28.9829C174.064 27.9285 173.336 26.6951 172.87 25.3551C171.901 22.2421 171.901 18.9073 172.87 15.7943C173.336 14.4533 174.064 13.2189 175.012 12.1633C175.964 11.1618 177.119 10.3758 178.399 9.85794C181.316 8.77828 184.522 8.77828 187.439 9.85794C188.726 10.3618 189.884 11.1498 190.826 12.1633C191.794 13.2035 192.525 14.4425 192.968 15.7943C193.998 18.8977 193.998 22.2517 192.968 25.3551C192.525 26.7057 191.794 27.9436 190.826 28.9829C189.885 29.9974 188.727 30.7855 187.439 31.2881C186.005 31.8468 184.478 32.1229 182.94 32.1012ZM182.94 27.9151C184.511 27.9151 185.754 27.446 186.669 26.5077C187.584 25.5695 188.041 24.1611 188.038 22.2824V18.8669C188.038 17.0144 187.582 15.6201 186.669 14.6841C185.754 13.7154 184.511 13.231 182.94 13.231C181.369 13.231 180.125 13.7154 179.21 14.6841C178.298 15.6201 177.841 17.0144 177.841 18.8669V22.2824C177.841 24.1306 178.298 25.539 179.21 26.5077C180.123 27.4764 181.366 27.9456 182.94 27.9151Z" fill="white"/>
<path d="M152.188 27.2751H159.217V6.09303H152.188V1.78284H164.704V27.2751H171.778V31.5886H152.195L152.188 27.2751Z" fill="white"/>
<path d="M131.553 1.79265H141.965C144.791 1.79265 146.964 2.50341 148.485 3.9249C150.007 5.3464 150.778 7.25331 150.8 9.64569C150.8 11.3545 150.365 12.7205 149.496 13.7437C148.567 14.833 147.325 15.6085 145.939 15.9641V16.1763C147.739 16.6117 149.151 17.3943 150.177 18.5241C151.203 19.6539 151.731 21.2332 151.762 23.262C151.774 24.4327 151.552 25.594 151.11 26.6775C150.718 27.6646 150.119 28.5556 149.352 29.2898C148.573 30.0517 147.638 30.6344 146.611 30.9975C145.461 31.4104 144.246 31.6129 143.025 31.5951H131.54L131.553 1.79265ZM141.333 27.533C142.904 27.533 144.076 27.2479 144.847 26.6775C145.619 26.1072 146.019 25.0971 146.047 23.6473V22.24C146.047 20.8468 145.647 19.8672 144.847 19.3012C144.047 18.7352 142.876 18.4359 141.333 18.4033H137.046V27.5461L141.333 27.533ZM140.603 14.511C142.119 14.511 143.23 14.2433 143.947 13.7012C144.664 13.1592 145.059 12.222 145.059 10.8833V9.47593C145.059 8.13715 144.688 7.19783 143.947 6.65796C143.23 6.11592 142.119 5.84813 140.603 5.84813H137.046V14.511H140.603Z" fill="white"/>
<path d="M43.5108 21.8971C43.5467 21.4694 43.563 21.0286 43.563 20.591C43.5861 18.9646 43.3246 17.3467 42.7904 15.8106C42.3481 14.4589 41.6172 13.2198 40.6486 12.1796C39.7067 11.1661 38.5491 10.3782 37.2615 9.8743C34.3446 8.79464 31.1385 8.79464 28.2216 9.8743C26.9414 10.3921 25.7866 11.1781 24.8345 12.1796C23.8866 13.2352 23.1584 14.4696 22.6927 15.8106C21.7233 18.9236 21.7233 22.2584 22.6927 25.3714C23.1584 26.7114 23.8866 27.9448 24.8345 28.9992C25.7857 30.0017 26.9408 30.7878 28.2216 31.3045C31.1377 32.3885 34.3454 32.3885 37.2615 31.3045C38.5497 30.8018 39.7076 30.0137 40.6486 28.9992C41.6168 27.9599 42.3477 26.722 42.7904 25.3714C42.9992 24.7952 43.1627 24.2034 43.2794 23.6016H37.7733C37.6625 24.6868 37.2131 25.7094 36.4889 26.5241C35.5739 27.4645 34.3308 27.9336 32.7594 27.9314C31.1881 27.9292 29.945 27.4602 29.0301 26.5241C28.1173 25.5576 27.6608 24.1491 27.6608 22.2988V21.9135L43.5108 21.8971ZM29.0333 14.6841C29.9482 13.7154 31.1914 13.231 32.7627 13.231C34.334 13.231 35.5771 13.7154 36.4921 14.6841C37.369 15.5853 37.8189 16.911 37.8548 18.6547H27.6674C27.7065 16.911 28.1564 15.5853 29.0333 14.6841Z" fill="white"/>
</g>
<defs>
<clipPath id="clip0_1_1820">
<rect width="237" height="32" fill="white"/>
</clipPath>
</defs>
</svg>
