<svg width="145" height="32" viewBox="0 0 145 32" fill="none" xmlns="http://www.w3.org/2000/svg">
<path d="M19.7849 20.4454H38.2617C38.4257 20.4454 38.5829 20.3839 38.6989 20.2745C38.8148 20.1651 38.88 20.0167 38.88 19.862V16.0004C38.88 15.9796 38.88 15.9596 38.88 15.9404C38.8762 15.9123 38.8703 15.8844 38.8623 15.8571C38.8627 15.8529 38.8627 15.8487 38.8623 15.8445C38.8544 15.816 38.8441 15.7881 38.8314 15.7612L38.8261 15.7495C38.8131 15.7231 38.7977 15.6977 38.7802 15.6737C38.7631 15.6505 38.7442 15.6285 38.7236 15.6078L38.713 15.597C38.6922 15.5771 38.6701 15.5585 38.6468 15.5412L38.6327 15.532C38.6079 15.5144 38.5816 15.4988 38.554 15.4853L29.5423 11.6271L29.5281 11.6213L29.4919 11.6055L29.4681 11.5971L29.4363 11.5871L29.4053 11.5796L29.378 11.5746L29.3408 11.5688H29.3188H29.2755H9.7741L3.47857 8.87745H22.601C22.765 8.87745 22.9223 8.81598 23.0382 8.70656C23.1542 8.59715 23.2193 8.44875 23.2193 8.29401V4.43664C23.2189 4.41268 23.2172 4.38874 23.214 4.36495V4.35079C23.2051 4.29144 23.1863 4.23378 23.1584 4.17992L23.1531 4.16993C23.1389 4.14454 23.123 4.12003 23.1054 4.09657C23.1024 4.09248 23.0992 4.0886 23.0957 4.08491C23.0778 4.06154 23.0577 4.03977 23.0356 4.0199L23.0277 4.01239C23.0046 3.99218 22.9801 3.97352 22.9543 3.95655C22.926 3.93921 22.8965 3.92361 22.866 3.90987H22.8607L13.8357 0.0516661C13.7555 0.0174921 13.6684 -0.00011543 13.5804 5.69448e-07H0.614798C0.581927 0.000220024 0.549132 0.00299563 0.516749 0.00832321H0.502618C0.472625 0.0137559 0.4431 0.0212795 0.414284 0.0308289L0.401032 0.0358347C0.370312 0.0451159 0.340706 0.0574025 0.312699 0.0725032H0.305631C0.278786 0.0863771 0.253357 0.102566 0.229665 0.120852L0.223481 0.125023C0.199929 0.143232 0.177789 0.163005 0.157231 0.184198L0.145747 0.195857C0.126322 0.217377 0.108609 0.240227 0.0927492 0.264209C0.0895017 0.268178 0.0865523 0.272368 0.083918 0.276723C0.0675143 0.301979 0.0533298 0.328457 0.0415143 0.3559V0.361741C0.029146 0.390924 0.0193989 0.421021 0.0123681 0.451743C0.00553439 0.481361 0.0013958 0.511483 1.23805e-07 0.541766C1.23805e-07 0.5476 1.23805e-07 0.553432 1.23805e-07 0.559266C1.23805e-07 0.5651 1.23805e-07 0.569262 1.23805e-07 0.574263V4.43247C9.4641e-05 4.54452 0.0343799 4.65417 0.0987607 4.74832C0.163141 4.84248 0.254893 4.91715 0.36305 4.96341L6.77871 7.7039H0.614798C0.581927 7.70412 0.549132 7.70692 0.516749 7.71224H0.502618C0.472715 7.71804 0.443215 7.72556 0.414284 7.73475L0.401032 7.73973C0.37062 7.74977 0.341086 7.76205 0.312699 7.77642L0.305631 7.78057C0.278978 7.79474 0.253575 7.81092 0.229665 7.82892L0.223481 7.8331C0.199704 7.85136 0.177547 7.87143 0.157231 7.8931L0.145747 7.90478C0.126124 7.92586 0.108398 7.94843 0.0927492 7.97228L0.083918 7.98479C0.0674703 8.01148 0.0532888 8.03935 0.0415143 8.06814V8.07396C0.029146 8.10315 0.0193989 8.13326 0.0123681 8.16399C0.00553439 8.1936 0.0013958 8.22373 1.23805e-07 8.25401C1.23805e-07 8.25984 1.23805e-07 8.26567 1.23805e-07 8.27151C1.23805e-07 8.27734 1.23805e-07 8.28067 1.23805e-07 8.28567V12.1439C-7.51023e-05 12.2561 0.0341326 12.3659 0.0985235 12.4602C0.162914 12.5545 0.254756 12.6293 0.36305 12.6757L6.77871 15.417H0.614798C0.581969 15.4173 0.549208 15.4198 0.516749 15.4245H0.502618C0.47253 15.4295 0.442971 15.4371 0.414284 15.447L0.401032 15.452C0.370498 15.4614 0.340932 15.4734 0.312699 15.4878H0.305631C0.278959 15.5023 0.253557 15.5187 0.229665 15.537C0.227277 15.5379 0.225155 15.5393 0.223481 15.5412C0.199929 15.5594 0.177789 15.5791 0.157231 15.6003L0.145747 15.612C0.126322 15.6335 0.108609 15.6564 0.0927492 15.6804C0.0895017 15.6843 0.0865523 15.6885 0.083918 15.6929C0.0672935 15.7195 0.0531049 15.7473 0.0415143 15.7762V15.782C0.0290228 15.8112 0.0192725 15.8413 0.0123681 15.8721C0.00553439 15.9017 0.0013958 15.9318 1.23805e-07 15.9621C1.23805e-07 15.9679 1.23805e-07 15.9737 1.23805e-07 15.9796C1.23805e-07 15.9854 1.23805e-07 15.9896 1.23805e-07 15.9946V19.8528C9.4641e-05 19.9648 0.0343799 20.0745 0.0987607 20.1686C0.163141 20.2628 0.254893 20.3375 0.36305 20.3837L6.77871 23.1359H0.614798C0.581927 23.1361 0.549132 23.1389 0.516749 23.1442H0.502618C0.472715 23.15 0.443215 23.1575 0.414284 23.1667L0.401032 23.1717C0.370467 23.1814 0.3409 23.1937 0.312699 23.2084L0.305631 23.2126C0.278978 23.2267 0.253575 23.2429 0.229665 23.2609H0.223481C0.199704 23.2792 0.177547 23.2993 0.157231 23.3209L0.145747 23.3318C0.126322 23.3533 0.108609 23.3761 0.0927492 23.4001L0.083918 23.4126C0.0676754 23.4379 0.0534974 23.4644 0.0415143 23.4918V23.4976C0.029146 23.5268 0.0193989 23.5569 0.0123681 23.5876C0.00559237 23.617 0.00145415 23.6468 1.23805e-07 23.6768C1.23805e-07 23.6827 1.23805e-07 23.6885 1.23805e-07 23.6952C1.23805e-07 23.7018 1.23805e-07 23.7043 1.23805e-07 23.7093V27.5675C-7.51023e-05 27.6797 0.0341326 27.7896 0.0985235 27.8839C0.162914 27.9782 0.254756 28.053 0.36305 28.0993L9.38897 31.9567C9.40398 31.9633 9.41988 31.9692 9.4349 31.9742L9.44815 31.9783C9.46581 31.9833 9.4826 31.9883 9.50027 31.9917H9.51087C9.52896 31.9953 9.54724 31.9981 9.56563 32H9.57447C9.59567 32 9.61775 32 9.63984 32H38.2599C38.4239 32 38.5812 31.9385 38.6971 31.8291C38.8131 31.7197 38.8782 31.5713 38.8782 31.4166V27.5775C38.8778 27.5538 38.876 27.5302 38.8729 27.5067V27.4917C38.8637 27.4337 38.8449 27.3775 38.8173 27.325L38.812 27.3141C38.798 27.2889 38.782 27.2647 38.7643 27.2416L38.7546 27.2291C38.7365 27.2061 38.7167 27.1844 38.6954 27.1641L38.6865 27.1566C38.6636 27.1367 38.6394 27.118 38.6141 27.1008C38.5859 27.0835 38.5563 27.0682 38.5258 27.0549H38.5205L29.4946 23.1976C29.4144 23.1631 29.3274 23.1452 29.2393 23.1451H10.2591V20.4546L19.7849 20.4454ZM10.2591 7.7039V5.01341H21.9827V7.7039H10.2591ZM13.4391 1.1552L19.7346 3.84653H9.7741L3.47857 1.1552H13.4391ZM1.23049 1.47693L9.01973 4.80587V7.38302L1.23049 4.04908V1.47693ZM12.3897 15.417H10.2591V12.7256H29.1024L35.3988 15.417H12.3897ZM1.23313 9.18918L9.02238 12.5181V15.0952L1.23313 11.7663V9.18918ZM9.64072 16.5839H37.6424V19.2752H9.7741L3.47857 16.5839H9.64072ZM1.23313 16.9048L9.02238 20.2387V22.8158L1.23313 19.4819V16.9048ZM1.23313 24.6211L9.02238 27.9501V30.5272L1.23313 27.1983V24.6211ZM10.2591 30.849V28.161H37.6424V30.8523L10.2591 30.849ZM29.1024 24.2994L35.3988 26.9941H9.7741L3.47857 24.3028H29.1024V24.2994Z" fill="white"/>
<g clip-path="url(#clip0_431_6706)">
<path d="M89.635 20.6131H91.9382V15.1363H89.635V13.373H94.24V15.8349H94.3837C94.4678 15.5222 94.5824 15.218 94.7259 14.9265C94.8732 14.6361 95.0678 14.3708 95.302 14.1411C95.5503 13.9024 95.8435 13.7128 96.1656 13.5827C96.5484 13.4342 96.958 13.3628 97.3699 13.373H98.3771V15.4689H96.4707C95.7755 15.4689 95.2281 15.6666 94.8285 16.062C94.6304 16.2637 94.4757 16.5022 94.3737 16.7633C94.2717 17.0244 94.2244 17.3028 94.2346 17.5821V20.6198H97.4547V22.3843H89.6295L89.635 20.6131Z" fill="white"/>
<path d="M84.8753 22.5874C84.2234 22.5974 83.5756 22.4845 82.9676 22.2548C82.4303 22.0434 81.9458 21.7218 81.547 21.3117C81.1481 20.8811 80.8424 20.3763 80.6479 19.8276C80.2395 18.5544 80.2395 17.1897 80.6479 15.9164C80.8424 15.3673 81.1481 14.8621 81.547 14.431C81.9462 14.0213 82.4306 13.6998 82.9676 13.4879C83.5759 13.2593 84.2235 13.1468 84.8753 13.1566C85.5207 13.1479 86.1619 13.2604 86.7638 13.4879C87.3041 13.6937 87.7897 14.0161 88.1843 14.431C88.591 14.8565 88.8978 15.3634 89.0835 15.9164C89.5159 17.186 89.5159 18.5581 89.0835 19.8276C88.8976 20.3801 88.5908 20.8866 88.1843 21.3117C87.7901 21.727 87.3044 22.0494 86.7638 22.2548C86.1621 22.4833 85.5209 22.5963 84.8753 22.5874ZM84.8753 20.8749C85.5349 20.8749 86.0563 20.683 86.4395 20.2992C86.8227 19.9153 87.0147 19.3392 87.0157 18.5706V17.1734C87.0157 16.4155 86.8236 15.8451 86.4395 15.4622C86.0563 15.0659 85.5349 14.8678 84.8753 14.8678C84.2156 14.8678 83.6938 15.0659 83.3097 15.4622C82.9265 15.8451 82.7345 16.4155 82.7336 17.1734V18.5706C82.7336 19.3267 82.9256 19.9029 83.3097 20.2992C83.6938 20.6955 84.2156 20.8874 84.8753 20.8749Z" fill="white"/>
<path d="M76.0319 22.5874C75.1281 22.6074 74.2291 22.4531 73.3865 22.1332C72.7056 21.8639 72.1054 21.4311 71.6417 20.8749L72.991 19.6874C73.3601 20.0842 73.8068 20.4048 74.3048 20.6304C74.8555 20.8614 75.4504 20.9748 76.0497 20.9631C76.6263 20.9631 77.0879 20.87 77.4346 20.6839C77.5969 20.6054 77.7324 20.4829 77.8249 20.3309C77.9174 20.179 77.9629 20.0042 77.956 19.8276C77.956 19.5017 77.837 19.28 77.5961 19.1597C77.307 19.0237 76.9974 18.9335 76.6792 18.8926L75.1861 18.6655C74.8033 18.6083 74.4248 18.5266 74.053 18.421C73.707 18.3115 73.3796 18.1526 73.0814 17.9495C72.8044 17.7515 72.577 17.4948 72.4162 17.1988C72.2392 16.8458 72.1528 16.4561 72.1645 16.0633C72.1645 15.1202 72.5239 14.3985 73.2428 13.898C73.9618 13.3975 74.9631 13.1473 76.2467 13.1473C77.0255 13.1272 77.8011 13.2519 78.5322 13.5146C79.129 13.7338 79.6647 14.0865 80.0964 14.5445L78.8921 15.8362C78.588 15.5293 78.2279 15.2805 77.8301 15.1029C77.3995 14.882 76.848 14.7716 76.1756 14.7716C75.0005 14.7716 74.4129 15.1278 74.4129 15.8402C74.4129 16.1662 74.532 16.3933 74.7728 16.5215C75.0687 16.6563 75.3839 16.7464 75.7075 16.7887L77.1828 17.0158C77.5676 17.0735 77.9466 17.1629 78.3159 17.2829C78.6647 17.3774 78.9936 17.5311 79.2876 17.7371C79.5728 17.9316 79.8071 18.1887 79.9718 18.4878C80.1501 18.8341 80.2366 19.2185 80.2237 19.6059C80.2391 20.0341 80.1453 20.4594 79.9506 20.8434C79.7559 21.2274 79.4665 21.5582 79.1083 21.806C78.3766 22.326 77.3512 22.5865 76.0319 22.5874Z" fill="white"/>
<path d="M63.213 22.3777V13.3663H65.5148V14.9559H65.6051C65.8079 14.4689 66.1286 14.0371 66.5398 13.6976C66.9723 13.3369 67.5653 13.1566 68.3189 13.1566C69.2312 13.1566 69.9684 13.4536 70.5304 14.0476C71.0924 14.6416 71.3807 15.4796 71.3953 16.5616V22.3777H69.0948V16.8808C69.0948 15.5771 68.5132 14.9248 67.35 14.9239C67.1188 14.9228 66.8887 14.9524 66.6657 15.012C66.4523 15.0688 66.2514 15.1634 66.0732 15.2912C65.9067 15.4074 65.7669 15.5562 65.6626 15.728C65.5645 15.923 65.5175 16.1388 65.5257 16.3559V22.3817L63.213 22.3777Z" fill="white"/>
<path d="M50.8142 12.0719V22.375H48.4754V12.0719H44.6982V10.1884H54.5913V12.0719H50.8142Z" fill="white"/>
<path d="M135.099 9.45508H137.402V17.0331H137.51L138.859 15.6011L141.143 13.3663H143.824L140.129 16.9115L144.213 22.3777H141.461L138.493 18.1859L137.398 19.1984V22.3777H135.094L135.099 9.45508Z" fill="white"/>
<path d="M130.663 22.5874C130.012 22.5973 129.364 22.4843 128.757 22.2548C128.212 22.0467 127.721 21.7248 127.317 21.3117C126.919 20.8804 126.614 20.3758 126.418 19.8276C126.01 18.5544 126.01 17.1897 126.418 15.9164C126.614 15.3678 126.919 14.8628 127.317 14.431C127.717 14.021 128.201 13.6994 128.739 13.4879C129.347 13.2592 129.994 13.1468 130.645 13.1566C131.628 13.1566 132.419 13.3547 133.02 13.751C133.616 14.1415 134.089 14.6852 134.388 15.3219L132.609 16.265C132.456 15.9004 132.208 15.5812 131.889 15.3393C131.59 15.0949 131.175 14.9733 130.648 14.9733C129.964 14.9733 129.436 15.1652 129.065 15.549C128.693 15.9329 128.514 16.4569 128.526 17.1213V18.6174C128.526 19.2693 128.705 19.7933 129.065 20.1896C129.424 20.5859 129.964 20.7778 130.684 20.7654C131.231 20.7654 131.669 20.6429 131.998 20.398C132.344 20.1403 132.621 19.8049 132.806 19.4202L134.533 20.4154C134.219 21.0585 133.727 21.6031 133.113 21.9876C132.487 22.3866 131.67 22.5865 130.663 22.5874Z" fill="white"/>
<path d="M121.495 22.5874C120.844 22.5973 120.197 22.4843 119.589 22.2548C119.051 22.0434 118.567 21.7218 118.167 21.3117C117.769 20.8804 117.464 20.3758 117.268 19.8276C116.861 18.5541 116.861 17.1899 117.268 15.9164C117.464 15.3678 117.769 14.8628 118.167 14.431C118.567 14.0213 119.052 13.6997 119.589 13.4879C120.814 13.0462 122.16 13.0462 123.384 13.4879C123.925 13.694 124.411 14.0164 124.806 14.431C125.213 14.8565 125.519 15.3634 125.705 15.9164C126.138 17.186 126.138 18.558 125.705 19.8276C125.519 20.3801 125.212 20.8865 124.806 21.3117C124.411 21.7267 123.925 22.0491 123.384 22.2548C122.782 22.4833 122.141 22.5963 121.495 22.5874ZM121.495 20.8749C122.155 20.8749 122.677 20.683 123.061 20.2991C123.445 19.9153 123.637 19.3392 123.636 18.5706V17.1734C123.636 16.4155 123.444 15.8451 123.061 15.4622C122.677 15.0659 122.155 14.8678 121.495 14.8678C120.836 14.8678 120.314 15.0659 119.93 15.4622C119.547 15.8451 119.355 16.4155 119.355 17.1734V18.5706C119.355 19.3267 119.547 19.9029 119.93 20.2991C120.313 20.6954 120.835 20.8874 121.495 20.8749Z" fill="white"/>
<path d="M108.586 20.6131H111.537V11.9477H108.586V10.1844H113.84V20.6131H116.81V22.3777H108.589L108.586 20.6131Z" fill="white"/>
<path d="M99.9235 10.1884H104.295C105.481 10.1884 106.393 10.4792 107.032 11.0607C107.67 11.6422 107.994 12.4223 108.003 13.401C108.003 14.1001 107.821 14.6589 107.456 15.0775C107.066 15.5231 106.544 15.8404 105.963 15.9858V16.0727C106.718 16.2508 107.311 16.5709 107.742 17.0331C108.172 17.4953 108.394 18.1414 108.407 18.9714C108.412 19.4503 108.319 19.9254 108.133 20.3686C107.969 20.7724 107.717 21.1369 107.396 21.4373C107.069 21.749 106.676 21.9874 106.245 22.1359C105.762 22.3048 105.252 22.3876 104.739 22.3803H99.918L99.9235 10.1884ZM104.029 20.7186C104.689 20.7186 105.18 20.6019 105.504 20.3686C105.828 20.1353 105.996 19.7221 106.008 19.129V18.5533C106.008 17.9833 105.84 17.5826 105.504 17.351C105.169 17.1195 104.677 16.997 104.029 16.9837H102.229V20.7239L104.029 20.7186ZM103.723 15.3914C104.359 15.3914 104.826 15.2819 105.127 15.0601C105.428 14.8384 105.593 14.455 105.593 13.9073V13.3316C105.593 12.7839 105.438 12.3996 105.127 12.1788C104.826 11.957 104.359 11.8475 103.723 11.8475H102.229V15.3914H103.723Z" fill="white"/>
<path d="M62.9639 18.413C62.9789 18.238 62.9858 18.0577 62.9858 17.8787C62.9955 17.2133 62.8857 16.5514 62.6614 15.9231C62.4758 15.3701 62.169 14.8632 61.7623 14.4376C61.3669 14.023 60.8809 13.7007 60.3404 13.4946C59.1159 13.0529 57.77 13.0529 56.5455 13.4946C56.0081 13.7064 55.5233 14.0279 55.1236 14.4376C54.7257 14.8695 54.42 15.3745 54.2245 15.9231C53.8176 17.1965 53.8176 18.5608 54.2245 19.8343C54.42 20.3825 54.7257 20.887 55.1236 21.3184C55.523 21.7285 56.0078 22.0501 56.5455 22.2615C57.7697 22.7049 59.1163 22.7049 60.3404 22.2615C60.8812 22.0558 61.3673 21.7334 61.7623 21.3184C62.1688 20.8932 62.4756 20.3868 62.6614 19.8343C62.7491 19.5986 62.8177 19.3565 62.8667 19.1103H60.5553C60.5088 19.5542 60.3201 19.9726 60.0161 20.3058C59.632 20.6906 59.1101 20.8825 58.4505 20.8816C57.7909 20.8807 57.269 20.6888 56.8849 20.3058C56.5017 19.9104 56.3101 19.3343 56.3101 18.5773V18.4197L62.9639 18.413ZM56.8863 15.4622C57.2704 15.0659 57.7922 14.8678 58.4519 14.8678C59.1115 14.8678 59.6333 15.0659 60.0174 15.4622C60.3856 15.8309 60.5744 16.3732 60.5895 17.0866H56.3129C56.3293 16.3732 56.5181 15.8309 56.8863 15.4622Z" fill="white"/>
</g>
<defs>
<clipPath id="clip0_431_6706">
<rect width="99.4914" height="13.0909" fill="white" transform="translate(44.6982 9.45508)"/>
</clipPath>
</defs>
</svg>
