<svg width="43" height="36" viewBox="0 0 43 36" fill="none" xmlns="http://www.w3.org/2000/svg">
<rect width="43" height="36" fill="white"/>
<path d="M21.7849 22.4454H40.2617C40.4257 22.4454 40.5829 22.3839 40.6989 22.2745C40.8148 22.1651 40.88 22.0167 40.88 21.862V18.0004C40.88 17.9796 40.88 17.9596 40.88 17.9404C40.8762 17.9123 40.8703 17.8844 40.8623 17.8571C40.8627 17.8529 40.8627 17.8487 40.8623 17.8445C40.8544 17.816 40.8441 17.7881 40.8314 17.7612L40.8261 17.7495C40.8131 17.7231 40.7977 17.6977 40.7802 17.6737C40.7631 17.6505 40.7442 17.6285 40.7236 17.6078L40.713 17.597C40.6922 17.5771 40.6701 17.5585 40.6468 17.5412L40.6327 17.532C40.6079 17.5144 40.5816 17.4988 40.554 17.4853L31.5423 13.6271L31.5281 13.6213L31.4919 13.6055L31.4681 13.5971L31.4363 13.5871L31.4053 13.5796L31.378 13.5746L31.3409 13.5688H31.3188H31.2755H11.7741L5.47857 10.8775H24.601C24.765 10.8775 24.9223 10.816 25.0382 10.7066C25.1542 10.5971 25.2193 10.4488 25.2193 10.294V6.43664C25.2189 6.41268 25.2172 6.38874 25.214 6.36495V6.35079C25.2051 6.29144 25.1863 6.23378 25.1584 6.17992L25.1531 6.16993C25.1389 6.14454 25.123 6.12003 25.1054 6.09657C25.1024 6.09248 25.0992 6.0886 25.0957 6.08491C25.0778 6.06154 25.0577 6.03977 25.0356 6.0199L25.0277 6.01239C25.0046 5.99218 24.9801 5.97352 24.9543 5.95655C24.926 5.93921 24.8965 5.92361 24.866 5.90987H24.8607L15.8357 2.05167C15.7555 2.01749 15.6684 1.99988 15.5804 2H2.6148C2.58193 2.00022 2.54913 2.003 2.51675 2.00832H2.50262C2.47262 2.01376 2.4431 2.02128 2.41428 2.03083L2.40103 2.03583C2.37031 2.04512 2.34071 2.0574 2.3127 2.0725H2.30563C2.27879 2.08638 2.25336 2.10257 2.22967 2.12085L2.22348 2.12502C2.19993 2.14323 2.17779 2.163 2.15723 2.1842L2.14575 2.19586C2.12632 2.21738 2.10861 2.24023 2.09275 2.26421C2.0895 2.26818 2.08655 2.27237 2.08392 2.27672C2.06751 2.30198 2.05333 2.32846 2.04151 2.3559V2.36174C2.02915 2.39092 2.0194 2.42102 2.01237 2.45174C2.00553 2.48136 2.0014 2.51148 2 2.54177C2 2.5476 2 2.55343 2 2.55927C2 2.5651 2 2.56926 2 2.57426V6.43247C2.00009 6.54452 2.03438 6.65417 2.09876 6.74832C2.16314 6.84248 2.25489 6.91715 2.36305 6.96341L8.77871 9.7039H2.6148C2.58193 9.70412 2.54913 9.70692 2.51675 9.71224H2.50262C2.47271 9.71804 2.44322 9.72556 2.41428 9.73475L2.40103 9.73973C2.37062 9.74977 2.34109 9.76205 2.3127 9.77642L2.30563 9.78057C2.27898 9.79474 2.25358 9.81092 2.22967 9.82892L2.22348 9.83309C2.1997 9.85136 2.17755 9.87143 2.15723 9.8931L2.14575 9.90478C2.12612 9.92586 2.1084 9.94843 2.09275 9.97228L2.08392 9.98479C2.06747 10.0115 2.05329 10.0393 2.04151 10.0681V10.074C2.02915 10.1031 2.0194 10.1333 2.01237 10.164C2.00553 10.1936 2.0014 10.2237 2 10.254C2 10.2598 2 10.2657 2 10.2715C2 10.2773 2 10.2807 2 10.2857V14.1439C1.99992 14.2561 2.03413 14.3659 2.09852 14.4602C2.16291 14.5545 2.25476 14.6293 2.36305 14.6757L8.77871 17.417H2.6148C2.58197 17.4173 2.54921 17.4198 2.51675 17.4245H2.50262C2.47253 17.4295 2.44297 17.4371 2.41428 17.447L2.40103 17.452C2.3705 17.4614 2.34093 17.4734 2.3127 17.4878H2.30563C2.27896 17.5023 2.25356 17.5187 2.22967 17.537C2.22728 17.5379 2.22515 17.5393 2.22348 17.5412C2.19993 17.5594 2.17779 17.5791 2.15723 17.6003L2.14575 17.612C2.12632 17.6335 2.10861 17.6564 2.09275 17.6804C2.0895 17.6843 2.08655 17.6885 2.08392 17.6929C2.06729 17.7195 2.0531 17.7473 2.04151 17.7762V17.782C2.02902 17.8112 2.01927 17.8413 2.01237 17.8721C2.00553 17.9017 2.0014 17.9318 2 17.9621C2 17.9679 2 17.9737 2 17.9796C2 17.9854 2 17.9896 2 17.9946V21.8528C2.00009 21.9648 2.03438 22.0745 2.09876 22.1686C2.16314 22.2628 2.25489 22.3375 2.36305 22.3837L8.77871 25.1359H2.6148C2.58193 25.1361 2.54913 25.1389 2.51675 25.1442H2.50262C2.47271 25.15 2.44322 25.1575 2.41428 25.1667L2.40103 25.1717C2.37047 25.1814 2.3409 25.1937 2.3127 25.2084L2.30563 25.2126C2.27898 25.2267 2.25358 25.2429 2.22967 25.2609H2.22348C2.1997 25.2792 2.17755 25.2993 2.15723 25.3209L2.14575 25.3317C2.12632 25.3533 2.10861 25.3761 2.09275 25.4001L2.08392 25.4126C2.06768 25.4379 2.0535 25.4644 2.04151 25.4918V25.4976C2.02915 25.5268 2.0194 25.5569 2.01237 25.5876C2.00559 25.617 2.00145 25.6468 2 25.6768C2 25.6827 2 25.6885 2 25.6952C2 25.7018 2 25.7043 2 25.7093V29.5675C1.99992 29.6797 2.03413 29.7896 2.09852 29.8839C2.16291 29.9782 2.25476 30.053 2.36305 30.0993L11.389 33.9567C11.404 33.9633 11.4199 33.9692 11.4349 33.9742L11.4481 33.9783C11.4658 33.9833 11.4826 33.9883 11.5003 33.9917H11.5109C11.529 33.9953 11.5472 33.9981 11.5656 34H11.5745C11.5957 34 11.6178 34 11.6398 34H40.2599C40.4239 34 40.5812 33.9385 40.6971 33.8291C40.8131 33.7197 40.8782 33.5713 40.8782 33.4166V29.5775C40.8778 29.5538 40.876 29.5302 40.8729 29.5067V29.4917C40.8637 29.4337 40.8449 29.3775 40.8173 29.325L40.812 29.3141C40.798 29.2889 40.782 29.2647 40.7643 29.2416L40.7546 29.2291C40.7365 29.2061 40.7167 29.1844 40.6954 29.1641L40.6865 29.1566C40.6636 29.1367 40.6394 29.118 40.6141 29.1008C40.5859 29.0835 40.5563 29.0682 40.5258 29.0549H40.5205L31.4946 25.1976C31.4144 25.1631 31.3274 25.1452 31.2393 25.1451H12.2591V22.4546L21.7849 22.4454ZM12.2591 9.7039V7.01341H23.9827V9.7039H12.2591ZM15.4391 3.1552L21.7346 5.84653H11.7741L5.47857 3.1552H15.4391ZM3.23049 3.47693L11.0197 6.80587V9.38302L3.23049 6.04908V3.47693ZM14.3897 17.417H12.2591V14.7256H31.1024L37.3988 17.417H14.3897ZM3.23313 11.1892L11.0224 14.5181V17.0952L3.23313 13.7663V11.1892ZM11.6407 18.5839H39.6424V21.2752H11.7741L5.47857 18.5839H11.6407ZM3.23313 18.9048L11.0224 22.2387V24.8158L3.23313 21.4819V18.9048ZM3.23313 26.6211L11.0224 29.9501V32.5272L3.23313 29.1983V26.6211ZM12.2591 32.849V30.161H39.6424V32.8523L12.2591 32.849ZM31.1024 26.2994L37.3988 28.9941H11.7741L5.47857 26.3028H31.1024V26.2994Z" fill="#1A1A1A"/>
</svg>
