<svg width="96" height="96" viewBox="0 0 96 96" fill="none" xmlns="http://www.w3.org/2000/svg">
<rect width="96" height="96" rx="48" fill="#F1EFE8"/>
<path d="M62.606 34.674C59.8426 33.4056 56.9241 32.5065 53.926 32C53.544 32.658 53.12 33.55 52.822 34.25C49.6337 33.7831 46.3943 33.7831 43.206 34.25C42.908 33.55 42.46 32.658 42.1 32C39.0991 32.5005 36.1786 33.3998 33.416 34.674C27.922 42.782 26.436 50.7 27.18 58.51C30.3992 60.8736 33.9953 62.675 37.816 63.838C38.6743 62.6794 39.4343 61.4512 40.088 60.166C38.834 59.698 37.648 59.126 36.5 58.446C36.798 58.234 37.094 58 37.37 57.766C44.29 60.93 51.784 60.93 58.618 57.766C58.916 58 59.192 58.234 59.488 58.446C58.342 59.126 57.154 59.698 55.902 60.166C56.5551 61.4511 57.3144 62.6794 58.172 63.838C61.994 62.6785 65.5907 60.8767 68.808 58.51C69.722 49.47 67.364 41.614 62.608 34.674H62.606ZM41.04 53.692C38.96 53.692 37.262 51.802 37.262 49.49C37.262 47.176 38.918 45.286 41.042 45.286C43.142 45.286 44.862 47.176 44.818 49.49C44.818 51.802 43.142 53.69 41.04 53.69V53.692ZM54.988 53.692C52.908 53.692 51.208 51.802 51.208 49.49C51.208 47.176 52.864 45.286 54.988 45.286C57.088 45.286 58.808 47.176 58.766 49.49C58.766 51.802 57.11 53.69 54.986 53.69L54.988 53.692Z" fill="#78716C"/>
</svg>
