<svg width="96" height="96" viewBox="0 0 96 96" fill="none" xmlns="http://www.w3.org/2000/svg">
<rect width="96" height="96" rx="48" fill="#F1EFE8"/>
<path d="M48 26.0001C42.2269 25.9415 36.6668 28.1774 32.5415 32.2164C28.4162 36.2554 26.0633 41.7671 26 47.5401C26.0222 52.1025 27.4899 56.5404 30.1921 60.2164C32.8944 63.8925 36.6922 66.6175 41.04 68.0002C42.14 68.2001 42.54 67.5401 42.54 66.9601V63.3002C36.42 64.6002 35.12 60.4202 35.12 60.4202C34.7126 59.108 33.8465 57.9862 32.68 57.2602C30.68 55.9402 32.84 55.9602 32.84 55.9602C33.5313 56.0526 34.1927 56.3003 34.7746 56.6848C35.3565 57.0693 35.8438 57.5805 36.2 58.1801C36.8207 59.2564 37.8391 60.0459 39.036 60.3788C40.233 60.7117 41.5128 60.5614 42.6 59.9602C42.7118 58.8649 43.2078 57.8446 44 57.0802C39.12 56.5401 34 54.7001 34 46.4401C33.9564 44.2855 34.7525 42.1984 36.22 40.6201C35.5517 38.7703 35.6306 36.7328 36.44 34.9401C36.44 34.9401 38.3 34.3601 42.44 37.1401C46.0438 36.1798 49.8362 36.1798 53.44 37.1401C57.64 34.3601 59.44 34.9401 59.44 34.9401C60.2494 36.7328 60.3283 38.7703 59.66 40.6201C61.1616 42.1694 62.0009 44.2426 62 46.4002C62 54.6801 56.84 56.5002 52 57.0401C52.53 57.5547 52.9393 58.1803 53.1987 58.8719C53.4581 59.5635 53.561 60.304 53.5 61.0401V66.9402C53.5 67.6402 53.9 68.2001 55 67.9801C59.3355 66.589 63.1205 63.8633 65.8144 60.1924C68.5083 56.5216 69.9732 52.0933 70 47.5401C69.9367 41.7671 67.5838 36.2554 63.4585 32.2164C59.3332 28.1774 53.7731 25.9415 48 26.0001Z" fill="#78716C"/>
</svg>
