<svg width="96" height="96" viewBox="0 0 96 96" fill="none" xmlns="http://www.w3.org/2000/svg">
<rect width="96" height="96" rx="48" fill="#F1EFE8"/>
<path fill-rule="evenodd" clip-rule="evenodd" d="M57.562 30.5541C63.556 33.9621 67.25 40.2561 67.25 47.0701C67.25 49.0601 66.94 50.9801 66.364 52.7841C66.7754 52.7332 67.193 52.779 67.5836 52.9178C67.9742 53.0567 68.327 53.2849 68.614 53.5841C69.0551 54.0317 69.3341 54.614 69.4065 55.2383C69.479 55.8626 69.3408 56.4933 69.014 57.0301C69.422 57.3601 69.718 57.8001 69.87 58.2941L69.904 58.4181C70.024 58.8621 70.144 59.7981 69.504 60.7501C69.992 61.4901 70.062 62.4221 69.69 63.2221C69.18 64.3621 67.904 65.2581 65.434 66.2221L65.03 66.3781L64.768 66.4741C63.812 66.8201 62.988 67.0641 62.646 67.1641L62.474 67.2121C60.694 67.6981 58.858 67.9621 57.01 68.0001C54.37 68.0001 52.41 67.2801 51.164 65.8661C49.0599 66.2224 46.9119 66.2346 44.804 65.9021C43.556 67.2941 41.604 68.0001 38.988 68.0001C37.2733 67.9659 35.5683 67.7357 33.906 67.3141L33.464 67.1941L32.918 67.0341C32.1248 66.7936 31.3409 66.5234 30.568 66.2241C28.094 65.2581 26.818 64.3641 26.308 63.2221C25.936 62.4221 26.006 61.4881 26.494 60.7501C26.2636 60.413 26.1086 60.0302 26.0395 59.6277C25.9705 59.2253 25.9891 58.8127 26.094 58.4181C26.232 57.8721 26.546 57.3861 26.988 57.0301C26.6616 56.4935 26.5237 55.8632 26.5961 55.2393C26.6686 54.6155 26.9473 54.0336 27.388 53.5861C27.854 53.0901 28.502 52.8041 29.222 52.7721L29.378 52.7701C28.7927 50.9268 28.4959 49.0041 28.498 47.0701C28.498 40.2561 32.192 33.9621 38.186 30.5541C41.1399 28.8797 44.4774 27.9995 47.873 27.9995C51.2685 27.9995 54.608 28.8797 57.562 30.5541ZM32.376 53.5161C32.626 54.8901 37.09 58.2161 36.656 58.9301C36.276 59.5601 35.064 58.4521 34.76 58.1581L34.678 58.0781L34.342 57.7841C33.22 56.8261 29.734 53.9841 28.862 54.9201C28.002 55.8401 29.1 56.6381 30.972 57.7601L32.54 58.6941L32.812 58.8601C34.902 60.1461 35.052 60.5401 34.712 61.0861C34.336 61.6761 28.572 56.8861 28.032 58.9201C27.492 60.9421 33.916 61.5281 33.52 62.9321C33.12 64.3321 28.99 60.2841 28.15 61.8581C27.3 63.4381 33.976 65.2941 34.03 65.3081L34.35 65.3881L34.7 65.4721C37.154 66.0401 41.83 66.7721 43.57 64.2641C44.916 62.3181 44.85 60.8461 43.074 59.0441L42.96 58.9301C41.07 57.0741 39.97 54.3541 39.97 54.3541L39.936 54.2381L39.886 54.0941C39.722 53.6541 39.318 52.8161 38.626 52.9261C37.706 53.0721 37.03 55.3461 38.866 56.7921L38.966 56.8681C40.92 58.3101 38.576 59.2881 37.82 57.9361L37.704 57.7281L37.418 57.2281C36.492 55.6301 34.854 53.0061 33.94 52.4341C32.876 51.7701 32.126 52.1381 32.376 53.5161ZM62.06 52.4341C60.994 53.1041 58.934 56.5821 58.18 57.9361C58.0502 58.1748 57.8449 58.3636 57.5962 58.4729C57.3475 58.5822 57.0695 58.6059 56.806 58.5401C56.6749 58.5031 56.5544 58.436 56.454 58.3441C56.4163 58.3084 56.3834 58.2681 56.356 58.2241L56.328 58.1681L56.312 58.1281L56.298 58.0901L56.292 58.0641L56.286 58.0301C56.2806 57.9984 56.2779 57.9662 56.278 57.9341C56.278 57.6941 56.42 57.4021 56.778 57.0801C56.83 57.0321 56.886 56.9861 56.946 56.9401L57.04 56.8681C57.084 56.8361 57.126 56.8041 57.166 56.7701C58.932 55.3501 58.312 53.1501 57.428 52.9361L57.366 52.9241L57.254 52.9161C57.2124 52.9166 57.1709 52.9206 57.13 52.9281L57.074 52.9381L56.99 52.9661L56.912 53.0001L56.856 53.0301L56.8 53.0681L56.728 53.1221L56.682 53.1621C56.336 53.4781 56.136 54.0181 56.062 54.2461L56.03 54.3541C56.03 54.3541 54.97 56.9721 53.152 58.8221L53.044 58.9301C52.314 59.6461 51.852 60.3101 51.64 60.9661C51.354 61.8401 51.508 62.7021 52.06 63.6721C52.17 63.8661 52.294 64.0621 52.434 64.2641C54.198 66.8141 58.998 66.0161 61.422 65.4441L61.994 65.3041L62.494 65.1561C63.046 64.9881 63.966 64.6901 64.894 64.3161L65.27 64.1621L65.4 64.1061L65.528 64.0501L65.776 63.9381L65.938 63.8621C66.996 63.3581 67.866 62.7761 67.926 62.2081L67.928 62.1361C67.9263 62.0388 67.9009 61.9433 67.854 61.8581C67.666 61.5061 67.312 61.4341 66.872 61.5221L66.782 61.5421C66.694 61.5621 66.602 61.5901 66.51 61.6221L66.316 61.6921L66.208 61.7361C65.09 62.1961 63.732 63.1461 62.994 63.2261H63.006C62.9728 63.2299 62.9394 63.2319 62.906 63.2321H62.858L62.81 63.2261L62.764 63.2161C62.628 63.1841 62.532 63.0961 62.484 62.9321C62.4653 62.8671 62.4619 62.7986 62.474 62.7321C62.598 62.0421 64.39 61.5421 65.9 60.9121L66.032 60.8561C67.088 60.4081 67.972 59.8901 68.002 59.1921V59.1121C67.9982 59.0458 67.9875 58.9801 67.97 58.9161C67.874 58.5561 67.62 58.4141 67.25 58.4141C65.68 58.4141 62.15 61.1341 61.41 61.1341C61.36 61.1341 61.314 61.1201 61.294 61.0861C61.2585 61.0301 61.2277 60.9712 61.202 60.9101C61.002 60.4341 61.338 59.9861 63.322 58.7781L63.74 58.5261C64.816 57.8861 65.76 57.3501 66.422 56.8641C67.002 56.4401 67.372 56.0521 67.428 55.6641L67.434 55.6081C67.45 55.3821 67.358 55.1541 67.14 54.9201C67.0996 54.8765 67.0523 54.84 67 54.8121L66.932 54.7821L66.906 54.7721C66.8221 54.7446 66.7342 54.7311 66.646 54.7321C66.322 54.7321 65.908 54.8721 65.456 55.0921C64.182 55.7181 62.594 56.9961 61.804 57.6621L61.306 58.0921L61.24 58.1581C61.08 58.3141 60.664 58.6981 60.254 58.9301L60.112 59.0041L60.03 59.0421C59.9518 59.0757 59.8699 59.0999 59.786 59.1141H59.796C59.7754 59.117 59.7547 59.119 59.734 59.1201L59.754 59.1181L59.728 59.1201C59.57 59.1301 59.438 59.0781 59.348 58.9301C59.3258 58.8905 59.316 58.8452 59.32 58.8001C59.374 57.8701 63.388 54.8181 63.624 53.5161L63.642 53.4201C63.842 52.1201 63.1 51.7861 62.06 52.4341ZM47.876 29.9681C38.28 29.9681 30.5 37.6261 30.5 47.0681C30.5 48.4521 30.666 49.7961 30.98 51.0841L30.996 51.0661C31.5 50.4701 32.22 50.1461 33.03 50.1461C33.74 50.1621 34.428 50.3801 35.016 50.7701C35.456 51.0501 35.946 51.5381 36.446 52.1581C36.968 51.4141 37.826 50.9621 38.746 50.9481C40.45 50.9481 41.48 52.4041 41.87 53.7141L41.964 53.9241L42.084 54.1781C42.468 54.9701 43.274 56.4561 44.37 57.5381C46.49 59.6181 47.018 61.7681 45.97 64.0701C47.3159 64.2153 48.6741 64.2059 50.018 64.0421C49.008 61.8021 49.498 59.7021 51.498 57.6701L51.63 57.5381C53.02 56.1701 53.944 54.1581 54.134 53.7141C54.524 52.4041 55.55 50.9481 57.254 50.9481C58.174 50.9621 59.032 51.4141 59.554 52.1581C60.054 51.5381 60.544 51.0521 60.99 50.7701C61.5778 50.3794 62.2643 50.1631 62.97 50.1461C63.684 50.1461 64.334 50.3981 64.82 50.8661C65.1 49.6461 65.25 48.3761 65.25 47.0701C65.25 37.6261 57.47 29.9681 47.876 29.9681ZM51.59 47.8201L52.468 47.3961C53.574 46.8681 54.248 46.6301 54.248 47.7001C54.248 49.8861 52.706 54.1161 47.938 54.2241H47.57C42.92 54.1201 41.338 50.1041 41.258 47.8741L41.256 47.7001C41.256 45.4861 44.16 48.8721 47.756 48.8721C49.188 48.8721 50.514 48.3281 51.59 47.8201ZM59.624 41.5341C60.524 41.5341 61.25 42.2501 61.25 43.1341C61.25 44.0161 60.522 44.7341 59.624 44.7341C59.4123 44.7357 59.2023 44.6955 59.0061 44.616C58.81 44.5364 58.6314 44.419 58.4806 44.2704C58.3298 44.1219 58.2097 43.945 58.1272 43.7501C58.0448 43.5551 58.0015 43.3458 58 43.1341C58 42.2501 58.728 41.5341 59.624 41.5341ZM36.376 41.5341C37.272 41.5341 38 42.2501 38 43.1341C38 44.0161 37.272 44.7341 36.376 44.7341C36.1641 44.7359 35.9539 44.696 35.7575 44.6166C35.5611 44.5371 35.3823 44.4197 35.2313 44.2711C35.0803 44.1225 34.96 43.9456 34.8774 43.7505C34.7948 43.5554 34.7515 43.3459 34.75 43.1341C34.75 42.2501 35.478 41.5341 36.376 41.5341ZM51.956 39.8521C52.596 39.0841 53.648 38.7721 54.616 39.0641C55.582 39.3561 56.276 40.1921 56.372 41.1841C56.468 42.1741 55.948 43.1241 55.054 43.5901C54.41 43.9261 54.16 42.6361 53.52 42.4201L53.524 42.4141C52.95 42.2181 51.98 43.1381 51.674 42.5721C51.4423 42.143 51.3451 41.6541 51.3951 41.169C51.445 40.6839 51.6417 40.225 51.956 39.8521ZM43.31 39.8521C43.954 40.6201 44.064 41.6921 43.59 42.5721C43.286 43.1381 42.31 42.2181 41.74 42.4141L41.746 42.4201C41.53 42.4921 41.358 42.6881 41.2 42.9001L40.964 43.2301C40.744 43.5301 40.524 43.7541 40.21 43.5901C39.7755 43.3657 39.4181 43.0165 39.1836 42.5874C38.949 42.1583 38.8482 41.6689 38.894 41.1821C38.99 40.1921 39.684 39.3561 40.65 39.0641C41.1218 38.9213 41.6252 38.9198 42.0979 39.0598C42.5706 39.1999 42.992 39.4753 43.31 39.8521Z" fill="#78716C"/>
</svg>
