<svg width="64" height="64" viewBox="0 0 64 64" fill="none" xmlns="http://www.w3.org/2000/svg">
<g opacity="0.4" clip-path="url(#clip0_15_2058)">
<path fill-rule="evenodd" clip-rule="evenodd" d="M50.8427 0.349331C50.672 0.0666648 50.2773 -0.104002 49.936 0.0666648L43.5627 3.62133C40.3467 5.42933 38.3147 7.34667 37.072 11.0133C36.523 12.6503 36.32 14.3834 36.4756 16.1029C36.6312 17.8224 37.1421 19.4909 37.976 21.0027C38.144 21.2853 38.5413 21.456 38.8773 21.2853L45.256 17.7307C48.472 15.9227 50.504 14.0053 51.744 10.3387C52.2937 8.70152 52.4975 6.96804 52.3423 5.24804C52.1872 3.52804 51.6765 1.85901 50.8427 0.346665V0.349331ZM5.136 14.456C4.91259 14.4608 4.69965 14.5516 4.54164 14.7096C4.38363 14.8677 4.29276 15.0806 4.288 15.304C4.288 19.8747 6.26133 23.992 9.368 26.8133C12.9787 30.088 16.3627 30.9333 20.992 30.9333H30.1333C30.584 30.9333 30.9787 30.5387 30.9787 30.088C30.9787 25.5173 29.0053 21.3947 25.9013 18.576C22.288 15.304 18.904 14.4533 14.2747 14.4533H5.13867L5.136 14.456ZM63.536 28.112C63.5306 27.8895 63.4398 27.6776 63.2824 27.5202C63.125 27.3629 62.9132 27.2721 62.6907 27.2667V27.32H53.4373C48.752 27.32 45.312 28.2267 41.6427 31.4987C38.4827 34.2613 36.4533 38.4933 36.4533 43.1227C36.4533 43.5733 36.848 43.968 37.2987 43.968H46.552C51.2373 43.968 54.6773 43.064 58.3467 39.792C59.9821 38.3175 61.2894 36.5159 62.1838 34.5037C63.0783 32.4916 63.5372 30.314 63.536 28.112ZM0 42.1067C0 41.4853 0.506667 40.92 1.184 40.92H13.9947C20.4827 40.92 25.2213 42.1627 30.3013 46.7333C34.648 50.6267 37.3547 56.44 37.4107 62.8133C37.4107 63.4347 36.904 64 36.2267 64H23.4187C16.928 64 12.1893 62.816 7.10933 58.2453C2.76267 54.2933 0.056 48.48 0 42.1067Z" fill="white"/>
</g>
<defs>
<clipPath id="clip0_15_2058">
<rect width="64" height="64" fill="white"/>
</clipPath>
</defs>
</svg>
