<svg width="64" height="64" viewBox="0 0 64 64" fill="none" xmlns="http://www.w3.org/2000/svg">
<g opacity="0.4" clip-path="url(#clip0_1_1702)">
<path fill-rule="evenodd" clip-rule="evenodd" d="M63.328 11.9521C62.6507 11.6214 62.3573 12.2534 61.9627 12.5761C61.8267 12.6801 61.712 12.8161 61.5973 12.9387C60.6053 13.9974 59.448 14.6907 57.936 14.6081C55.7253 14.4854 53.8373 15.1787 52.168 16.8694C51.8133 14.7841 50.6347 13.5414 48.8427 12.7414C47.904 12.3254 46.9547 11.9121 46.296 11.0081C45.8373 10.3654 45.712 9.64808 45.4827 8.94408C45.336 8.51742 45.1893 8.08275 44.7013 8.01075C44.168 7.92808 43.96 8.37342 43.752 8.74675C42.9173 10.2721 42.5947 11.9521 42.6267 13.6534C42.6987 17.4827 44.3147 20.5334 47.528 22.7014C47.8933 22.9494 47.9867 23.2001 47.872 23.5627C47.6533 24.3094 47.392 25.0347 47.1627 25.7841C47.016 26.2614 46.7973 26.3627 46.2853 26.1574C44.5553 25.4139 42.9839 24.3458 41.656 23.0107C39.3707 20.8027 37.3067 18.3654 34.7307 16.4561C34.1338 16.0151 33.5209 15.5961 32.8933 15.2001C30.2667 12.6481 33.24 10.5521 33.928 10.3041C34.648 10.0427 34.176 9.15208 31.8507 9.16275C29.5253 9.17342 27.3973 9.94942 24.6853 10.9867C24.2823 11.1412 23.8677 11.2633 23.4453 11.3521C20.911 10.8746 18.3191 10.7829 15.7573 11.0801C10.7307 11.6401 6.71732 14.0187 3.76532 18.0747C0.218654 22.9494 -0.616012 28.4907 0.405321 34.2668C1.47999 40.3574 4.58932 45.4001 9.36532 49.3414C14.32 53.4294 20.024 55.4321 26.5333 55.0481C30.4853 54.8214 34.888 54.2908 39.8507 50.0881C41.104 50.7121 42.416 50.9601 44.5973 51.1468C46.2773 51.3041 47.8933 51.0667 49.144 50.8054C51.104 50.3894 50.968 48.5734 50.2613 48.2427C44.5147 45.5654 45.776 46.6561 44.6267 45.7734C47.5493 42.3174 51.9493 38.7281 53.672 27.0987C53.8053 26.1734 53.6907 25.5921 53.672 24.8454C53.6613 24.3921 53.7653 24.2134 54.2853 24.1627C55.7281 24.0131 57.1277 23.5828 58.4053 22.8961C62.128 20.8614 63.632 17.5227 63.9867 13.5174C64.04 12.9041 63.976 12.2747 63.328 11.9521ZM30.8827 48.0001C25.312 43.6214 22.6107 42.1787 21.496 42.2401C20.4507 42.3041 20.64 43.4961 20.8693 44.2747C21.1093 45.0428 21.4213 45.5707 21.8587 46.2454C22.1627 46.6907 22.3707 47.3547 21.5573 47.8534C19.7627 48.9627 16.6453 47.4801 16.4987 47.4081C12.8693 45.2694 9.83199 42.4481 7.69599 38.5894C5.63199 34.8747 4.43199 30.8907 4.23465 26.6374C4.18132 25.6081 4.48266 25.2454 5.50665 25.0588C6.85095 24.8015 8.22833 24.7664 9.58399 24.9547C15.2693 25.7867 20.1067 28.3281 24.1653 32.3521C26.48 34.6454 28.232 37.3841 30.0373 40.0614C31.9573 42.9041 34.0213 45.6134 36.6507 47.8321C37.5787 48.6107 38.3173 49.2028 39.0267 49.6374C36.888 49.8774 33.32 49.9307 30.8827 48.0001ZM33.5493 30.8267C33.5489 30.6943 33.5807 30.5637 33.642 30.4463C33.7033 30.3288 33.7922 30.2281 33.9012 30.1527C34.0101 30.0774 34.1358 30.0297 34.2673 30.0138C34.3988 29.9979 34.5322 30.0142 34.656 30.0614C34.8138 30.118 34.9499 30.2224 35.0455 30.3601C35.1411 30.4978 35.1914 30.6618 35.1893 30.8294C35.1897 30.9377 35.1685 31.045 35.127 31.145C35.0855 31.245 35.0245 31.3358 34.9475 31.4119C34.8706 31.4881 34.7792 31.5483 34.6788 31.5888C34.5784 31.6294 34.4709 31.6495 34.3627 31.6481C34.2552 31.6485 34.1487 31.6274 34.0495 31.5861C33.9503 31.5448 33.8603 31.4842 33.7848 31.4077C33.7093 31.3312 33.6498 31.2404 33.6099 31.1407C33.5699 31.0409 33.5476 30.9342 33.5493 30.8267ZM41.8427 35.0827C41.3093 35.2987 40.7787 35.4854 40.2693 35.5094C39.5031 35.5361 38.7512 35.2968 38.1413 34.8321C37.4107 34.2188 36.888 33.8774 36.6693 32.8107C36.5939 32.2895 36.6084 31.7591 36.712 31.2427C36.8987 30.3707 36.6907 29.8107 36.0747 29.3041C35.576 28.8881 34.9387 28.7734 34.24 28.7734C34.0008 28.7595 33.7684 28.6882 33.5627 28.5654C33.2693 28.4214 33.0293 28.0587 33.2587 27.6107C33.3333 27.4667 33.6853 27.1147 33.7707 27.0507C34.72 26.5121 35.816 26.6881 36.8267 27.0934C37.7653 27.4774 38.4747 28.1814 39.496 29.1787C40.5387 30.3814 40.728 30.7147 41.3227 31.6161C41.792 32.3227 42.2187 33.0481 42.5093 33.8774C42.688 34.3974 42.4587 34.8214 41.8427 35.0827Z" fill="black"/>
</g>
<defs>
<clipPath id="clip0_1_1702">
<rect width="64" height="64" fill="white"/>
</clipPath>
</defs>
</svg>
