<svg width="64" height="64" viewBox="0 0 64 64" fill="none" xmlns="http://www.w3.org/2000/svg">
<g opacity="0.4" clip-path="url(#clip0_15_2040)">
<path fill-rule="evenodd" clip-rule="evenodd" d="M63.3281 11.9521C62.6508 11.6214 62.3574 12.2534 61.9628 12.5761C61.8268 12.6801 61.7121 12.8161 61.5975 12.9387C60.6054 13.9974 59.4481 14.6907 57.9361 14.6081C55.7254 14.4854 53.8374 15.1787 52.1681 16.8694C51.8134 14.7841 50.6348 13.5414 48.8428 12.7414C47.9041 12.3254 46.9548 11.9121 46.2961 11.0081C45.8374 10.3654 45.7121 9.64808 45.4828 8.94408C45.3361 8.51742 45.1894 8.08275 44.7014 8.01075C44.1681 7.92808 43.9601 8.37342 43.7521 8.74675C42.9174 10.2721 42.5948 11.9521 42.6268 13.6534C42.6988 17.4827 44.3148 20.5334 47.5281 22.7014C47.8934 22.9494 47.9868 23.2001 47.8721 23.5627C47.6534 24.3094 47.3921 25.0347 47.1628 25.7841C47.0161 26.2614 46.7974 26.3627 46.2854 26.1574C44.5555 25.4139 42.984 24.3458 41.6561 23.0107C39.3708 20.8027 37.3068 18.3654 34.7308 16.4561C34.1339 16.0151 33.5211 15.5961 32.8934 15.2001C30.2668 12.6481 33.2401 10.5521 33.9281 10.3041C34.6481 10.0427 34.1761 9.15208 31.8508 9.16275C29.5254 9.17342 27.3974 9.94942 24.6854 10.9867C24.2824 11.1412 23.8678 11.2633 23.4454 11.3521C20.9111 10.8746 18.3192 10.7829 15.7574 11.0801C10.7308 11.6401 6.71744 14.0187 3.76544 18.0747C0.218776 22.9494 -0.61589 28.4907 0.405443 34.2668C1.48011 40.3574 4.58944 45.4001 9.36544 49.3414C14.3201 53.4294 20.0241 55.4321 26.5334 55.0481C30.4854 54.8214 34.8881 54.2908 39.8508 50.0881C41.1041 50.7121 42.4161 50.9601 44.5975 51.1468C46.2775 51.3041 47.8934 51.0667 49.1441 50.8054C51.1041 50.3894 50.9681 48.5734 50.2614 48.2427C44.5148 45.5654 45.7761 46.6561 44.6268 45.7734C47.5494 42.3174 51.9494 38.7281 53.6721 27.0987C53.8055 26.1734 53.6908 25.5921 53.6721 24.8454C53.6614 24.3921 53.7654 24.2134 54.2854 24.1627C55.7282 24.0131 57.1278 23.5828 58.4054 22.8961C62.1281 20.8614 63.6321 17.5227 63.9868 13.5174C64.0401 12.9041 63.9761 12.2747 63.3281 11.9521ZM30.8828 48.0001C25.3121 43.6214 22.6108 42.1787 21.4961 42.2401C20.4508 42.3041 20.6401 43.4961 20.8694 44.2747C21.1094 45.0428 21.4214 45.5707 21.8588 46.2454C22.1628 46.6907 22.3708 47.3547 21.5574 47.8534C19.7628 48.9627 16.6454 47.4801 16.4988 47.4081C12.8694 45.2694 9.83211 42.4481 7.69611 38.5894C5.63211 34.8747 4.43211 30.8907 4.23478 26.6374C4.18144 25.6081 4.48278 25.2454 5.50678 25.0588C6.85107 24.8015 8.22845 24.7664 9.58411 24.9547C15.2694 25.7867 20.1068 28.3281 24.1654 32.3521C26.4801 34.6454 28.2321 37.3841 30.0374 40.0614C31.9574 42.9041 34.0214 45.6134 36.6508 47.8321C37.5788 48.6107 38.3174 49.2028 39.0268 49.6374C36.8881 49.8774 33.3201 49.9307 30.8828 48.0001ZM33.5494 30.8267C33.549 30.6943 33.5808 30.5637 33.6421 30.4463C33.7034 30.3288 33.7923 30.2281 33.9013 30.1527C34.0103 30.0774 34.1359 30.0297 34.2674 30.0138C34.3989 29.9979 34.5323 30.0142 34.6561 30.0614C34.8139 30.118 34.95 30.2224 35.0456 30.3601C35.1413 30.4978 35.1915 30.6618 35.1894 30.8294C35.1898 30.9377 35.1686 31.045 35.1271 31.145C35.0856 31.245 35.0246 31.3358 34.9476 31.4119C34.8707 31.4881 34.7794 31.5483 34.6789 31.5888C34.5785 31.6294 34.4711 31.6495 34.3628 31.6481C34.2553 31.6485 34.1489 31.6274 34.0496 31.5861C33.9504 31.5448 33.8604 31.4842 33.7849 31.4077C33.7094 31.3312 33.65 31.2404 33.61 31.1407C33.57 31.0409 33.5477 30.9342 33.5494 30.8267ZM41.8428 35.0827C41.3094 35.2987 40.7788 35.4854 40.2694 35.5094C39.5032 35.5361 38.7513 35.2968 38.1414 34.8321C37.4108 34.2188 36.8881 33.8774 36.6694 32.8107C36.5941 32.2895 36.6085 31.7591 36.7121 31.2427C36.8988 30.3707 36.6908 29.8107 36.0748 29.3041C35.5761 28.8881 34.9388 28.7734 34.2401 28.7734C34.0009 28.7595 33.7686 28.6882 33.5628 28.5654C33.2694 28.4214 33.0294 28.0587 33.2588 27.6107C33.3334 27.4667 33.6854 27.1147 33.7708 27.0507C34.7201 26.5121 35.8161 26.6881 36.8268 27.0934C37.7654 27.4774 38.4748 28.1814 39.4961 29.1787C40.5388 30.3814 40.7281 30.7147 41.3228 31.6161C41.7921 32.3227 42.2188 33.0481 42.5094 33.8774C42.6881 34.3974 42.4588 34.8214 41.8428 35.0827Z" fill="white"/>
</g>
<defs>
<clipPath id="clip0_15_2040">
<rect width="64" height="64" fill="white"/>
</clipPath>
</defs>
</svg>
