<svg width="64" height="64" viewBox="0 0 64 64" fill="none" xmlns="http://www.w3.org/2000/svg">
<g opacity="0.4" clip-path="url(#clip0_15_2009)">
<path fill-rule="evenodd" clip-rule="evenodd" d="M32.9067 15.8747C32.6173 14.8913 32.3973 13.8888 32.248 12.8747V9.92C37.7633 9.9746 43.0569 12.0989 47.08 15.872L32.9067 15.8747ZM31.0667 15.8747C31.368 14.88 31.5973 13.8613 31.752 12.8213V9.92C26.2367 9.9746 20.9431 12.0989 16.92 15.872H31.064L31.0667 15.8747ZM16.5787 16.3733H30.9067C30.6984 17.0028 30.4608 17.6221 30.1947 18.2293C29.094 20.862 27.5011 23.2605 25.5013 25.296L16.5787 16.3733ZM15.8747 15.8747H7.93867V16.3733H15.712C11.7314 20.5098 9.48281 26.0116 9.42667 31.752H0V32.248H9.42667C9.48281 37.9884 11.7314 43.4902 15.712 47.6267H7.93867V48.1227H15.8747V56.0613H16.3733V48.288C20.5098 52.2686 26.0116 54.5172 31.752 54.5733V64H32.248V54.5733C37.9884 54.5172 43.4902 52.2686 47.6267 48.288V56.0613H48.1227V48.1227H56.0613V47.6267H48.288C52.2686 43.4902 54.5172 37.9884 54.5733 32.248H64V31.752H54.5733C54.5172 26.0116 52.2686 20.5098 48.288 16.3733H56.0613V15.8747H48.1227V7.93867H47.6267V15.712C43.4902 11.7314 37.9884 9.48281 32.248 9.42667V0H31.752V9.42667C26.0116 9.48281 20.5098 11.7314 16.3733 15.712V7.93867H15.8747V15.8747ZM32.248 54.0773C37.7637 54.022 43.0573 51.8967 47.08 48.1227H32.9067C32.6187 49.1013 32.4 50.104 32.248 51.1253V54.0773ZM31.752 51.1787C31.5977 50.1445 31.3678 49.1231 31.064 48.1227H16.92C20.9427 51.8967 26.2363 54.022 31.752 54.0773V51.1787ZM9.92267 31.752H12.8747C13.8888 31.6028 14.8913 31.3827 15.8747 31.0933V16.92C12.1016 20.9431 9.97727 26.2367 9.92267 31.752ZM12.8213 32.248H9.92C9.9746 37.7633 12.0989 43.0569 15.872 47.08V32.936C14.8724 32.6323 13.8546 32.4024 12.8213 32.248ZM54.0747 31.752C54.0201 26.2367 51.8958 20.9431 48.1227 16.92V31.0933C49.1013 31.3813 50.104 31.6 51.1253 31.752H54.0747ZM51.1787 32.248C50.1387 32.4027 49.12 32.632 48.1227 32.936V47.08C51.8967 43.0573 54.022 37.7637 54.0773 32.248H51.1787ZM47.6267 47.4213V33.0933C46.9972 33.3016 46.3779 33.5392 45.7707 33.8053C43.138 34.9059 40.7395 36.4989 38.704 38.4987L47.6267 47.4213ZM47.6267 30.9413V16.408L47.5947 16.3733H33.0587C33.2613 17 33.4907 17.6213 33.752 18.2293C34.9048 20.9018 36.5504 23.3335 38.6027 25.3973C40.6663 27.4506 43.0979 29.097 45.7707 30.2507C46.3787 30.5093 46.9973 30.7387 47.6267 30.9413ZM16.3733 47.5947V33.0933C17 33.3013 17.6213 33.5387 18.2293 33.8053C20.9068 34.9252 23.3412 36.5545 25.3973 38.6027C27.4455 40.6588 29.0748 43.0932 30.1947 45.7707C30.4613 46.3787 30.7013 46.9973 30.9067 47.6267H16.4053L16.3733 47.5947ZM16.3733 30.9413V16.8693L25.1467 25.6427C23.1365 27.5818 20.7933 29.1428 18.2293 30.2507C17.6215 30.509 17.0022 30.7395 16.3733 30.9413ZM33.0587 47.6267H47.1307L38.3573 38.8533C36.4182 40.8635 34.8572 43.2067 33.7493 45.7707C33.491 46.3785 33.2605 46.9978 33.0587 47.6267ZM26.8 26.8C24.5866 29.0038 21.9822 30.7763 19.12 32.0267C21.9871 33.2445 24.5941 35.0006 26.8 37.2C28.9994 39.4059 30.7555 42.0129 31.9733 44.88C33.2237 42.0178 34.9962 39.4134 37.2 37.2C39.4059 35.0006 42.0129 33.2445 44.88 32.0267C42.0178 30.7763 39.4134 29.0038 37.2 26.8C34.9961 24.5867 33.2237 21.9823 31.9733 19.12C30.7555 21.9871 28.9994 24.5941 26.8 26.8Z" fill="white"/>
</g>
<defs>
<clipPath id="clip0_15_2009">
<rect width="64" height="64" fill="white"/>
</clipPath>
</defs>
</svg>
