<svg width="60" height="60" viewBox="0 0 60 60" fill="none" xmlns="http://www.w3.org/2000/svg">
<g opacity="0.4">
<path fill-rule="evenodd" clip-rule="evenodd" d="M49.345 14.44C49.7525 13.9175 50.11 13.44 50.4875 12.9775C50.6625 12.76 50.6475 12.595 50.4775 12.3675C48.84 10.215 48.685 7.82502 49.6275 5.40002C50.335 3.57502 51.9 2.72002 53.8125 2.53752C55.005 2.42502 56.175 2.54752 57.26 3.12752C58.685 3.89002 59.515 5.05252 59.785 6.65752C60 7.93752 59.96 9.18752 59.5975 10.4275C58.955 12.6225 57.3775 13.76 55.215 14.0475C53.42 14.2875 51.6 14.3175 49.79 14.44C49.65 14.45 49.5075 14.44 49.345 14.44Z" fill="black"/>
<path fill-rule="evenodd" clip-rule="evenodd" d="M44.905 4.61011H34.09L25.5275 24.1351H13.4225V4.69511H3.75V55.0001H13.425V33.8076H30.485C31.9261 33.8075 33.3372 33.3957 34.5521 32.6206C35.767 31.8455 36.7351 30.7394 37.3425 29.4326V55.0001H47.0175V33.8076C47.0177 31.3636 46.0929 29.01 44.4289 27.2199C42.7649 25.4297 40.4851 24.3357 38.0475 24.1576V24.1326H32.735C34.0151 23.6953 35.1913 22.999 36.1905 22.0872C37.1897 21.1753 37.9903 20.0675 38.5425 18.8326L44.905 4.61011Z" fill="black"/>
</g>
</svg>
