<svg width="60" height="60" viewBox="0 0 60 60" fill="none" xmlns="http://www.w3.org/2000/svg">
<g opacity="0.4">
<path fill-rule="evenodd" clip-rule="evenodd" d="M49.3449 14.44C49.7524 13.9175 50.1099 13.44 50.4874 12.9775C50.6624 12.76 50.6474 12.595 50.4774 12.3675C48.8399 10.215 48.6849 7.82502 49.6274 5.40002C50.3349 3.57502 51.8999 2.72002 53.8124 2.53752C55.0049 2.42502 56.1749 2.54752 57.2599 3.12752C58.6849 3.89002 59.5149 5.05252 59.7849 6.65752C59.9999 7.93752 59.9599 9.18752 59.5974 10.4275C58.9549 12.6225 57.3774 13.76 55.2149 14.0475C53.4199 14.2875 51.5999 14.3175 49.7899 14.44C49.6499 14.45 49.5074 14.44 49.3449 14.44Z" fill="white"/>
<path fill-rule="evenodd" clip-rule="evenodd" d="M44.905 4.61011H34.09L25.5275 24.1351H13.4225V4.69511H3.75V55.0001H13.425V33.8076H30.485C31.9261 33.8075 33.3372 33.3957 34.5521 32.6206C35.767 31.8455 36.7351 30.7394 37.3425 29.4326V55.0001H47.0175V33.8076C47.0177 31.3636 46.0929 29.01 44.4289 27.2199C42.7649 25.4297 40.4851 24.3357 38.0475 24.1576V24.1326H32.735C34.0151 23.6953 35.1913 22.999 36.1905 22.0872C37.1897 21.1753 37.9903 20.0675 38.5425 18.8326L44.905 4.61011Z" fill="white"/>
</g>
</svg>
