<svg width="64" height="64" viewBox="0 0 64 64" fill="none" xmlns="http://www.w3.org/2000/svg">
<g opacity="0.4">
<path fill-rule="evenodd" clip-rule="evenodd" d="M18.392 10.6667C23.4987 10.6667 27.768 13.1521 32.872 19.6694L33.624 18.6747C34.1307 18.0187 34.6453 17.3841 35.1707 16.7814L36.0053 15.8481C38.9013 12.7681 42.112 10.6667 45.9333 10.6667C49.328 10.6667 52.5173 12.1521 55.2427 14.7094L55.824 15.2774C60.4373 19.9841 63.6027 27.8374 63.9653 36.6801L63.9947 37.7254L64 38.3921C64 42.3948 63.2533 45.7494 61.8187 48.2588L61.4453 48.8721L61.1573 49.2801C60.3547 50.4001 59.3867 51.3014 58.2613 51.9707L57.5547 52.3494L57.3227 52.4561C57.0592 52.5734 56.7905 52.6784 56.5173 52.7707C55.3736 53.149 54.1753 53.3364 52.9707 53.3254C51.5733 53.3254 50.3147 53.1467 49.136 52.7521C47.4987 52.2081 46.0347 51.2588 44.5333 49.7761L43.928 49.1494C41.92 46.9841 39.8373 43.8801 37.28 39.5868L33.4667 33.1601L32.016 30.7734L27.3067 39.1201L26.392 40.6987C20.2587 51.0827 16.6053 53.3334 11.616 53.3334C8.38933 53.3334 5.736 52.2134 3.78667 50.1814L3.33867 49.6908C2.048 48.1628 1.10667 46.1947 0.557333 43.8534L0.378667 43.0001C0.17251 41.8658 0.0512845 40.7177 0.016 39.5654L0 38.5814C0.00533333 36.5947 0.16 34.6081 0.464 32.6347L0.730667 31.1067C1.52533 27.0267 2.93867 23.2187 4.82667 20.0214L5.384 19.1147C8.52267 14.2347 12.8213 10.9734 17.6907 10.6881L18.392 10.6667ZM18.304 17.6401L17.768 17.6667C15.5547 17.8881 13.4853 19.4614 11.7627 21.8721L11.3947 22.4027L11.368 22.4507C9.58133 25.1627 8.208 28.7921 7.48533 32.7041L7.47467 32.7627C7.11059 34.7457 6.92584 36.7574 6.92267 38.7734L6.928 39.2747C6.93867 39.7547 6.97333 40.2347 7.03467 40.7147L7.14933 41.4907C7.39467 42.8321 7.83467 43.9121 8.44533 44.7121L8.75733 45.0774C9.56533 45.9387 10.6187 46.3894 11.8773 46.3894C14.8107 46.3894 16.6667 44.5868 21.7333 36.6801L27.5333 27.6134L28.744 25.7441L28.3733 25.2161C24.2933 19.4667 21.5573 17.6427 18.304 17.6427V17.6401ZM45.4933 16.1681L45.024 16.1867C43.3307 16.3147 41.7627 17.1441 40.1707 18.6747L39.648 19.2027C38.4773 20.4347 37.2827 22.0401 36.0027 24.0214L36.712 25.0827C37.192 25.8134 37.6773 26.5761 38.1787 27.3707L38.96 28.6374L42.6827 34.8641L44.536 37.8347C46.0907 40.3041 47.2827 42.1014 48.2907 43.3867L48.8587 44.0854C49.6107 44.9547 50.2693 45.5254 50.9307 45.8801L51.2027 46.0134C51.808 46.2801 52.4213 46.3814 53.1173 46.3814C53.5867 46.3867 54.0507 46.3201 54.4987 46.1867C55.4 45.9094 56.1253 45.3334 56.6667 44.4881L56.92 44.0534L57.1253 43.6214C57.6427 42.3974 57.8987 40.7947 57.8987 38.8614L57.8827 37.6641C57.6693 30.0081 55.3813 23.3387 52.016 19.5361L51.5467 19.0321C49.76 17.2107 47.696 16.1681 45.4933 16.1681Z" fill="black"/>
</g>
</svg>
