<svg width="64" height="64" viewBox="0 0 64 64" fill="none" xmlns="http://www.w3.org/2000/svg">
<g opacity="0.4">
<path fill-rule="evenodd" clip-rule="evenodd" d="M43.408 5.33325C46.4907 5.33325 48.9893 7.80525 48.9893 10.8533V44.1893C49.0107 44.7 49.2295 45.1825 49.5996 45.5352C49.9697 45.8878 50.4621 46.0831 50.9733 46.0799C51.4841 46.0824 51.9759 45.8868 52.3454 45.5343C52.7149 45.1817 52.9333 44.6995 52.9547 44.1893V24.2639C52.9585 23.5425 53.1044 22.8289 53.384 22.1639C53.6637 21.4989 54.0715 20.8955 54.5843 20.3881C55.0972 19.8807 55.7049 19.4793 56.3729 19.2068C57.0408 18.9343 57.7559 18.7961 58.4773 18.7999C59.199 18.7961 59.9143 18.9344 60.5824 19.2071C61.2505 19.4798 61.8584 19.8814 62.3713 20.3891C62.8841 20.8967 63.2919 21.5005 63.5714 22.1658C63.8509 22.8311 63.9965 23.545 64 24.2666V41.7626C63.9972 42.2211 63.8125 42.6598 63.4865 42.9823C63.1605 43.3048 62.7199 43.4847 62.2613 43.4826C62.0341 43.484 61.8087 43.4406 61.5982 43.3549C61.3877 43.2693 61.1961 43.143 61.0344 42.9832C60.8727 42.8235 60.7441 42.6335 60.6558 42.4241C60.5675 42.2146 60.5214 41.9899 60.52 41.7626V24.2666C60.5186 23.9997 60.4647 23.7358 60.3612 23.4898C60.2578 23.2438 60.107 23.0206 59.9173 22.8329C59.7276 22.6452 59.5028 22.4967 59.2558 22.3958C59.0087 22.295 58.7442 22.2438 58.4773 22.2453C58.2105 22.2438 57.946 22.295 57.6989 22.3958C57.4518 22.4967 57.227 22.6452 57.0374 22.8329C56.8477 23.0206 56.6968 23.2438 56.5934 23.4898C56.49 23.7358 56.4361 23.9997 56.4347 24.2666V44.1919C56.4308 44.9053 56.2865 45.6109 56.01 46.2684C55.7334 46.926 55.3301 47.5227 54.823 48.0244C54.3158 48.526 53.7148 48.9229 53.0543 49.1923C52.3938 49.4618 51.6867 49.5984 50.9733 49.5946C50.26 49.5984 49.5529 49.4618 48.8924 49.1923C48.2318 48.9229 47.6308 48.526 47.1237 48.0244C46.6166 47.5227 46.2132 46.926 45.9367 46.2684C45.6602 45.6109 45.5158 44.9053 45.512 44.1919V10.8586C45.4899 10.3169 45.2586 9.80498 44.8666 9.43046C44.4747 9.05594 43.9528 8.84806 43.4107 8.85059C42.8686 8.84734 42.3463 9.05454 41.9539 9.42857C41.5615 9.80259 41.3294 10.3143 41.3067 10.8559L41.304 53.2666C41.2955 54.7068 40.7155 56.0847 39.6913 57.0973C38.6672 58.1099 37.2829 58.6744 35.8427 58.6666C35.1293 58.6704 34.4222 58.5338 33.7617 58.2643C33.1012 57.9949 32.5002 57.598 31.993 57.0964C31.4859 56.5947 31.0826 55.998 30.806 55.3404C30.5295 54.6829 30.3852 53.9773 30.3813 53.2639V48.1066C30.3813 47.1573 31.16 46.3866 32.12 46.3866C33.08 46.3866 33.8587 47.1573 33.8587 48.1066V53.2639C33.8587 53.9653 34.2373 54.6133 34.8507 54.9653C35.464 55.3146 36.2213 55.3146 36.8347 54.9653C37.1356 54.7946 37.386 54.5473 37.5602 54.2484C37.7345 53.9496 37.8264 53.6099 37.8267 53.2639V10.8533C37.8267 7.80525 40.3253 5.33325 43.408 5.33325ZM28.2773 5.33325C31.36 5.33325 33.8587 7.80525 33.8587 10.8533V41.5813C33.8576 41.8084 33.8118 42.0331 33.7238 42.2425C33.6358 42.452 33.5074 42.642 33.346 42.8017C33.1845 42.9615 32.9931 43.0878 32.7827 43.1736C32.5723 43.2593 32.3471 43.3027 32.12 43.3013C31.8929 43.3027 31.6677 43.2593 31.4573 43.1736C31.2469 43.0878 31.0555 42.9615 30.894 42.8017C30.7326 42.642 30.6042 42.452 30.5162 42.2425C30.4282 42.0331 30.3824 41.8084 30.3813 41.5813V10.8533C30.3778 10.2985 30.1542 9.76788 29.7597 9.37788C29.3652 8.98788 28.8321 8.77041 28.2773 8.77325C27.7226 8.77041 27.1894 8.98788 26.7949 9.37788C26.4004 9.76788 26.1769 10.2985 26.1733 10.8533V48.2213C26.1649 49.6773 25.5787 51.0703 24.5437 52.0944C23.5086 53.1184 22.1093 53.6897 20.6533 53.6826C19.1969 53.6904 17.7969 53.1195 16.7613 52.0953C15.7257 51.0712 15.1391 49.6777 15.1307 48.2213V24.2666C15.1293 23.9997 15.0753 23.7358 14.9719 23.4898C14.8685 23.2438 14.7177 23.0206 14.528 22.8329C14.3383 22.6452 14.1135 22.4967 13.8664 22.3958C13.6194 22.295 13.3548 22.2438 13.088 22.2453C12.8212 22.2438 12.5566 22.295 12.3096 22.3958C12.0625 22.4967 11.8377 22.6452 11.648 22.8329C11.4583 23.0206 11.3075 23.2438 11.2041 23.4898C11.1007 23.7358 11.0467 23.9997 11.0453 24.2666V34.3999C11.0415 35.1213 10.8956 35.8349 10.616 36.4999C10.3364 37.1649 9.92848 37.7683 9.41566 38.2757C8.90283 38.7831 8.29508 39.1845 7.62712 39.457C6.95916 39.7295 6.24406 39.8678 5.52267 39.8639C4.80127 39.8678 4.08617 39.7295 3.41821 39.457C2.75025 39.1845 2.14251 38.7831 1.62968 38.2757C1.11685 37.7683 0.708981 37.1649 0.42936 36.4999C0.149738 35.8349 0.00384184 35.1213 0 34.3999L0 30.7253C0 29.7733 0.778667 29.0026 1.73867 29.0026C2.69867 29.0026 3.48 29.7759 3.48 30.7253V34.3999C3.48 35.5146 4.39467 36.4186 5.52267 36.4186C6.65067 36.4186 7.56533 35.5146 7.56533 34.3999V24.2639C7.5738 22.8079 8.15996 21.4148 9.19501 20.3908C10.2301 19.3667 11.6293 18.7955 13.0853 18.8026C14.5418 18.7948 15.9418 19.3657 16.9774 20.3898C18.013 21.414 18.5995 22.8075 18.608 24.2639V48.2213C18.608 49.3386 19.5227 50.2426 20.6533 50.2426C21.7813 50.2426 22.696 49.3386 22.696 48.2213V10.8533C22.696 7.80525 25.1947 5.33325 28.2773 5.33325Z" fill="black"/>
</g>
</svg>
