<svg width="64" height="64" viewBox="0 0 64 64" fill="none" xmlns="http://www.w3.org/2000/svg">
<g opacity="0.4">
<path fill-rule="evenodd" clip-rule="evenodd" d="M15.8347 34.2268C16.1733 34.1228 16.5947 34.2801 16.8293 34.6081C16.904 34.7094 16.9253 34.8535 16.952 34.9815C16.96 35.0188 16.8987 35.0695 16.8453 35.1148C16.5147 34.8535 16.2053 34.5975 15.9013 34.3388C15.872 34.3121 15.8587 34.2668 15.8347 34.2268ZM22.3893 25.0988C22.9093 25.0134 23.4293 24.9388 23.9573 24.9655C24.0915 24.9701 24.2243 24.9934 24.352 25.0348C24.8907 25.2241 25.424 25.4268 25.9547 25.6321C26.0293 25.6588 26.088 25.7281 26.1547 25.7788L26.12 25.8508C25.8877 25.7751 25.6566 25.696 25.4267 25.6134C25.12 25.5121 24.8587 25.4081 24.5867 25.3521C23.92 25.2188 23.92 25.2295 23.808 25.3148L25.3387 25.6988C26.072 26.0695 26.8053 26.4348 27.5333 26.8108C27.6453 26.8694 27.7733 26.9628 27.8187 27.0721C27.888 27.2321 27.9867 27.2748 28.1307 27.2641C28.3067 27.2481 28.4827 27.2188 28.6987 27.1921L28.592 27.4215C28.728 27.6348 28.9707 27.4748 29.168 27.5921C28.9707 27.9388 28.5093 27.8321 28.2773 28.1228L28.44 28.3201L28.12 28.5521C28.12 28.8348 28.0187 29.0001 27.304 29.2001L27.3733 29.4268L26.8507 29.5388L27.0373 29.8695H26.3707L26.352 30.2348C26.136 30.2081 25.9227 30.1868 25.7013 30.1628L25.56 30.4908C25.488 30.4695 25.4213 30.4615 25.3653 30.4295C25.1867 30.3281 25.024 30.2801 24.8453 30.4454C24.7947 30.4908 24.6773 30.4828 24.5973 30.4668C24.528 30.4508 24.464 30.3895 24.4107 30.3548C24.1173 30.6081 24.1173 30.6081 23.856 30.3628C23.704 30.4854 23.536 30.5601 23.36 30.3921C23.192 30.4641 23.032 30.3388 22.8853 30.3548C22.6987 30.3735 22.6267 30.2614 22.5307 30.1681L22.184 30.2561C22.1493 29.6268 21.6667 29.7494 21.2773 29.7148C21.2907 29.5228 21.4107 29.4694 21.5307 29.4641C21.6743 29.4594 21.8177 29.4793 21.9547 29.5228C22.392 29.6561 22.808 29.8428 23.2773 29.8908C23.8187 29.9468 24.3573 29.9681 24.88 29.8508C25.5867 29.6935 26.2667 29.4535 26.7653 28.8775C26.896 28.7281 26.9867 28.5388 27.0773 28.3575C27.128 28.2561 27.1307 28.1334 27.024 28.0481C26.7171 27.8027 26.3733 27.6074 26.0053 27.4694C26.0693 27.7894 25.9227 27.9548 25.6987 28.0588C25.6987 28.0961 25.688 28.1255 25.6987 28.1388C25.912 28.4455 25.9227 28.5655 25.68 28.8508C25.5073 29.059 25.3124 29.2477 25.0987 29.4134C24.8484 29.6083 24.5344 29.7027 24.2181 29.6781C23.9019 29.6534 23.6063 29.5115 23.3893 29.2801C23.2612 29.154 23.1427 29.0185 23.0347 28.8748C22.8267 28.5895 22.832 28.5868 22.9467 28.2455C22.5067 28.0321 22.6053 27.6428 22.6693 27.2748C22.6907 27.1414 22.744 27.0188 22.8 26.8401C22.6933 26.8774 22.6213 26.8855 22.568 26.9255C22.2064 27.161 21.9152 27.4899 21.7253 27.8775C21.7067 27.9201 21.6987 27.9681 21.672 28.0028C21.64 28.0428 21.5813 28.1041 21.552 28.0961C21.4987 28.0801 21.4533 28.0241 21.4187 27.9761C21.3973 27.9441 21.4 27.8908 21.3867 27.8241H21.0507L21.192 27.3655C21.1574 27.3218 21.1227 27.2783 21.088 27.2348L21.3813 26.4774C21.2213 26.5468 21.1387 26.5948 21.0507 26.6134C20.9707 26.6321 20.88 26.6134 20.7973 26.6134C20.7973 26.5308 20.7707 26.4268 20.808 26.3681C21.2053 25.7814 21.6213 25.2268 22.3893 25.0988Z" fill="black"/>
<path fill-rule="evenodd" clip-rule="evenodd" d="M21.4933 28.7681C21.4853 28.6668 21.4826 28.5681 21.592 28.6028C21.6346 28.6188 21.6826 28.7308 21.6666 28.7814C21.64 28.8881 21.5626 28.8668 21.4933 28.7681Z" fill="black"/>
<path fill-rule="evenodd" clip-rule="evenodd" d="M31.9493 0.0239874C32.552 -0.00801258 33.1573 -0.00534591 33.76 0.0239874C34.4187 0.0506541 35.08 0.0879874 35.7333 0.189321C36.8027 0.359987 37.8613 0.607988 38.9067 0.917321C40.1413 1.28532 41.36 1.71465 42.5227 2.27999C45.7412 3.86069 48.4614 6.29853 50.384 9.32532C51.1627 10.576 51.8133 11.8933 52.3547 13.2693C52.9387 14.752 53.544 16.2293 54.016 17.7573C54.56 19.5013 54.8933 21.2933 55.2373 23.0827C55.496 24.4267 55.7227 25.776 56.0107 27.112C56.4267 29.0373 56.888 30.952 57.328 32.872C57.824 35.0373 58.3947 37.1787 59.008 39.312C59.28 40.2587 59.5227 41.2133 59.76 42.1707C60.0533 43.3333 60.2987 44.5067 60.4373 45.6987C60.52 46.44 60.6133 47.184 60.632 47.9307C60.6625 48.7131 60.6473 49.4966 60.5867 50.2773C60.488 51.3787 60.32 52.4587 59.984 53.5093C59.4559 55.1162 58.628 56.6083 57.544 57.9067L57.1973 58.3227L57.2453 58.384C57.36 58.3227 57.48 58.2747 57.584 58.2027C58.1173 57.8347 58.5787 57.384 59 56.896C60.0667 55.6693 60.9227 54.3013 61.6 52.8187C62.2629 51.3847 62.5606 49.809 62.4667 48.232C62.4027 47.1013 62.208 46.008 61.6667 44.9973C61.632 44.9253 61.6267 44.8373 61.5867 44.6747C61.72 44.768 61.8053 44.8027 61.856 44.8667C62.1413 45.2133 62.4427 45.5547 62.696 45.928C63.576 47.2453 63.9227 48.7333 63.992 50.3013C64.0639 52.1342 63.6303 53.9516 62.7387 55.5547C61.7787 57.3013 60.3733 58.5947 58.6693 59.5707C58.1547 59.8667 57.6187 60.1307 57.0827 60.392C56.664 60.6 56.4213 60.9547 56.2347 61.3653C56.1482 61.5307 56.0958 61.7117 56.0807 61.8977C56.0656 62.0837 56.088 62.2708 56.1467 62.448C56.1824 62.5681 56.1941 62.694 56.1813 62.8187C56.168 63.024 55.976 63.232 55.808 63.2507C55.664 63.2667 55.4747 63.136 55.408 62.9413C55.3341 62.7401 55.2805 62.5319 55.248 62.32C55.1413 61.4827 54.8347 60.72 54.4267 60C53.9029 59.0982 53.2467 58.2802 52.48 57.5733C51.8103 56.9172 50.9885 56.4371 50.088 56.176C49.4841 56.0067 48.8667 55.8899 48.2427 55.8267C48.0427 55.8053 47.8427 55.72 47.656 55.8533C48.136 56.0133 48.624 56.1467 49.0907 56.3333C50.248 56.7947 51.2773 57.48 52.2373 58.2747C53.0587 58.9547 53.784 59.7227 54.3547 60.632C54.616 61.0453 54.8507 61.472 54.96 61.9547C55.032 62.2827 55.072 62.6213 55.1387 62.9547C55.1733 63.12 55.1333 63.2453 54.9973 63.3387C54.872 63.4267 54.672 63.4293 54.5627 63.312C54.4699 63.2012 54.3976 63.0748 54.3493 62.9387C54.2693 62.744 54.248 62.5147 54.1413 62.3387C53.1062 60.6775 51.827 59.1817 50.3467 57.9013C49.92 57.536 49.4693 57.208 48.9147 57.04C47.912 56.736 46.9067 56.4987 45.848 56.6293C45.28 56.696 44.7093 56.7147 44.1413 56.7707C43.4356 56.8506 42.761 57.1054 42.1787 57.512C41.3707 58.0705 40.6251 58.7142 39.9547 59.432C39.0773 60.344 38.2427 61.296 37.408 62.2453C37.0453 62.6587 36.704 63.096 36.5707 63.6613C36.5598 63.7066 36.5491 63.7519 36.5387 63.7973C36.5269 63.853 36.4969 63.9031 36.4534 63.9398C36.4099 63.9765 36.3555 63.9977 36.2987 64H35.472C35.3493 64 35.2533 63.872 35.28 63.7493C35.3413 63.4613 35.4 63.1733 35.4667 62.8853C35.6667 62.0187 35.9733 61.192 36.448 60.44C36.512 60.336 36.5547 60.2053 36.7253 60.2267L36.752 60.3573L36.824 60.5627C37.5707 59.4027 38.3467 58.3387 39.48 57.536C40.2347 56.992 41.0373 56.528 41.8533 56.0693C41.7681 56.0454 41.6781 56.0436 41.592 56.064C41.16 56.1787 40.7253 56.288 40.2987 56.4213C39.2267 56.752 38.2613 57.3013 37.3387 57.9307C36.9467 58.1973 36.544 58.4453 36.2347 58.8187C35.0654 60.2464 34.1047 61.8329 33.3813 63.5307C33.3378 63.6345 33.3022 63.7415 33.2747 63.8507C33.2635 63.8932 33.2387 63.9309 33.204 63.9579C33.1693 63.9849 33.1266 63.9997 33.0827 64H31.7653C31.6587 64 31.6 63.864 31.6693 63.7813C31.9973 63.408 32.3253 63.0293 32.6747 62.6747C33.408 61.9253 34.2213 61.256 34.7467 60.3173C34.8187 60.1893 34.9147 60.0773 35 59.9573C35.6347 59.0693 36.44 58.3387 37.1813 57.552C37.4 57.3227 37.648 57.1253 37.8747 56.912C37.952 56.84 38.016 56.76 38.0853 56.6853L38.0373 56.6187L37.6773 56.728C37.5867 56.7733 37.4907 56.8107 37.4053 56.8613C36.744 57.2453 36.088 57.64 35.424 58.016C34.336 58.6293 33.224 59.1867 32.2 59.912C31.4507 60.4453 30.624 60.8667 29.8293 61.3333C29.776 61.3653 29.712 61.3733 29.616 61.408C29.576 61.048 29.9973 60.872 29.904 60.512C29.816 60.5493 29.7333 60.5653 29.6773 60.6133C29.3813 60.8693 29.072 61.12 28.8027 61.4027C28.408 61.8213 28.0453 62.2693 27.6693 62.704C27.336 63.0853 27.0027 63.4667 26.6747 63.8533C26.6377 63.8977 26.5917 63.9337 26.5397 63.959C26.4878 63.9843 26.4311 63.9983 26.3733 64H23.3653C23.3822 63.9637 23.3964 63.9263 23.408 63.888C23.4827 63.648 23.6347 63.4293 23.6293 63.1413C23.3867 63.0933 23.1973 63.144 23.064 63.3467C22.9377 63.5343 22.8167 63.7255 22.7013 63.92C22.6747 63.9627 22.6373 64 22.5893 64H22.3413C22.2907 64 22.264 63.9413 22.296 63.9013C22.4853 63.6667 22.6693 63.4267 22.8533 63.1867C22.856 63.1813 22.8373 63.1547 22.8213 63.1227C22.784 63.1333 22.7413 63.1387 22.7013 63.1573C22.232 63.3973 21.7627 63.64 21.296 63.888C21.1579 63.9609 21.0042 63.9993 20.848 64H13.872C13.8027 64 13.768 63.904 13.8213 63.8587C14.3813 63.384 14.8933 62.8613 15.3093 62.2453C16.2027 60.9227 16.744 59.4533 17.088 57.9013C17.0987 57.848 17.08 57.7867 17.072 57.6587C16.9733 57.7867 16.9147 57.8507 16.8693 57.9253C16.6247 58.3334 16.3249 58.7057 15.9787 59.032C15.232 59.72 14.4053 60.2267 13.3573 60.2693C12.5653 60.3013 11.7893 60.2693 11.0507 59.9307C9.82399 59.3707 9.12532 58.4107 8.93332 57.072C8.86665 56.6187 8.88799 56.616 8.44799 56.488C7.29368 56.1783 6.20929 55.6506 5.25332 54.9333C4.23991 54.1767 3.48691 53.1236 3.09865 51.92C2.76141 50.8472 2.61695 49.7232 2.67199 48.6C2.67732 48.5093 2.71465 48.4213 2.73599 48.3333C2.82132 48.3947 2.85865 48.448 2.86932 48.5093C2.95732 48.9173 3.02665 49.3307 3.12532 49.736C3.35465 50.6827 3.81065 51.5067 4.50132 52.1893C5.18932 52.872 6.02399 53.3067 6.92799 53.608C7.88265 53.9227 8.83999 53.976 9.78132 53.5653C10.41 53.2811 10.9736 52.8709 11.4373 52.36C12.312 51.432 12.8587 50.3333 13.1653 49.0987C13.1893 49.008 13.1787 48.9093 13.184 48.8053C13.144 48.8213 13.1147 48.8213 13.104 48.8347C13.0213 48.968 12.9333 49.1013 12.856 49.24C12.0987 50.5787 11.0453 51.6053 9.66665 52.2667C8.73065 52.72 7.75199 52.9467 6.70666 52.6907C5.66075 52.465 4.7371 51.8562 4.11732 50.984C3.58856 50.2581 3.25107 49.4107 3.13599 48.52C3.03274 47.7343 3.05073 46.9375 3.18932 46.1573C3.32265 44.9867 4.43199 43.0373 5.16799 42.768C5.11465 42.936 5.07465 43.0667 5.02665 43.1947C4.91199 43.504 4.76799 43.8 4.67999 44.1147C4.4767 44.8251 4.43119 45.5714 4.54665 46.3013C4.63465 46.8667 4.78665 47.4107 5.09065 47.9013C5.48265 48.5307 6.01332 48.9867 6.74399 49.1413C7.03732 49.2027 7.34399 49.1787 7.64532 49.1893C8.01954 49.2022 8.38559 49.078 8.67465 48.84C9.11199 48.4987 9.42665 48.0613 9.65065 47.5573C10.0987 46.5573 10.2907 45.4853 10.4747 44.4133C10.608 43.624 10.7227 42.8293 10.8293 42.032C10.9333 41.2827 11.0187 40.5307 11.1067 39.7787C11.176 39.16 11.2347 38.5413 11.304 37.9227C11.368 37.3147 11.4427 36.7093 11.5067 36.1013C11.5707 35.496 11.632 34.888 11.6907 34.28C11.7253 33.9067 11.7493 33.5333 11.7813 33.16L11.88 32.048C11.9387 31.3813 11.9893 30.7147 12.0533 30.0533C12.0747 29.8347 12 29.7013 11.8133 29.5813C11.3289 29.269 10.8878 28.8942 10.5013 28.4667C10.2347 28.176 9.99999 27.8587 9.74932 27.5547C9.65599 27.4427 9.59999 27.296 9.43999 27.24C9.59868 27.8061 9.8462 28.3435 10.1733 28.832C10.3333 29.0773 10.5227 29.3013 10.696 29.5387C10.864 29.768 11.1813 29.8453 11.32 30.1413C11.2453 30.1493 11.1973 30.168 11.16 30.1573C10.9632 30.1114 10.7676 30.0607 10.5733 30.0053C9.24379 29.621 8.05259 28.8629 7.14132 27.8213C5.98132 26.5227 5.39199 24.952 5.24799 23.2267C5.16422 22.2856 5.17673 21.3385 5.28532 20.4C5.47732 18.7947 5.87199 17.2373 6.48532 15.7467C6.89865 14.744 7.38665 13.7707 7.88799 12.808C8.43465 11.76 9.13065 10.808 9.92799 9.93865C11.2933 8.44799 12.872 7.20799 14.5307 6.07732C16.4427 4.77065 18.472 3.68265 20.6027 2.78932C21.984 2.20799 23.3787 1.68532 24.8267 1.31732C26.5733 0.874654 28.32 0.437321 30.112 0.210654C30.7227 0.130654 31.3333 0.0559874 31.9467 0.0239874H31.9493ZM27.024 60.8773C26.8373 61.0373 26.632 61.1733 26.472 61.3573C25.8373 62.0773 25.2347 62.8213 24.6907 63.6747L24.5733 63.9627C24.6699 63.9394 24.7567 63.8862 24.8213 63.8107C25.2853 63.304 25.7573 62.8027 26.2053 62.28C26.4827 61.9547 26.7253 61.6 26.9733 61.2507C27.0373 61.16 27.0533 61.0373 27.096 60.9307L27.024 60.8773ZM31.424 51.024C30.8022 51.5037 30.2199 52.0325 29.6827 52.6053L28.696 53.6347C28.4186 53.9336 28.0739 54.1621 27.6907 54.3013C27.2927 54.4532 26.8712 54.5344 26.4453 54.5413C26.328 54.5413 26.2133 54.5573 26.0427 54.5733C26.1173 54.728 26.1573 54.832 26.2133 54.9227C26.6133 55.568 27.016 56.208 27.4133 56.8533C27.776 57.44 28.1493 58.0213 28.4773 58.6293C28.6587 58.9627 28.7573 59.3413 28.8933 59.7067C29.0987 59.7787 29.2667 59.6587 29.432 59.5787C30.2053 59.2187 30.976 58.848 31.744 58.48C32.312 58.2107 32.9093 57.984 33.44 57.6533C34.3653 57.08 35.2533 56.44 36.1547 55.8267C36.1947 55.8 36.224 55.752 36.2667 55.704C36.2053 55.6533 36.1653 55.6053 36.1173 55.5867C35.352 55.2907 34.712 54.7867 34.064 54.3013C33.5915 53.9562 33.1409 53.5821 32.7147 53.1813C32.2258 52.689 31.8523 52.0942 31.6213 51.44C31.5707 51.3093 31.5013 51.1867 31.4213 51.024H31.424ZM15.832 51.728C15.672 51.984 15.5733 52.2453 15.48 52.5093C15.1445 53.4852 14.6439 54.3962 14 55.2027C13.4667 55.8693 12.7867 56.3013 11.968 56.5173C11.3547 56.6773 10.7307 56.72 10.1013 56.704C9.97332 56.6987 9.84266 56.7093 9.67999 56.7173C9.72266 56.824 9.73599 56.8933 9.77332 56.944C10.04 57.3307 10.3867 57.6 10.84 57.7307C11.2587 57.8533 11.6827 57.8213 12.168 57.792C12.6507 57.6933 13.0827 57.4853 13.4613 57.168C14.096 56.6373 14.5333 55.9573 14.8907 55.216C15.3573 54.248 15.5947 53.2133 15.8027 52.1653C15.8293 52.024 15.824 51.872 15.832 51.728ZM55.6853 39.4987C55.7067 39.576 55.728 39.6507 55.7573 39.784C55.8213 40.1973 55.8933 40.6107 55.9493 41.0213C56.0293 41.6053 56.128 42.1867 56.1573 42.7733C56.2027 43.6907 56.2293 44.6107 56.12 45.528C56.0213 46.368 55.952 47.216 55.8107 48.0507C55.5781 49.4473 55.1658 50.8079 54.584 52.0987C54.5627 52.1467 54.5573 52.2027 54.5307 52.3173C54.656 52.2373 54.736 52.2053 54.792 52.1467C55.0187 51.9253 55.2453 51.7013 55.4533 51.4667C56.176 50.6533 56.6747 49.7067 57.0427 48.6853C57.5227 47.3573 57.6507 45.9893 57.4293 44.6027C57.1547 42.8693 56.5493 41.2347 55.8373 39.5867C55.8162 39.5377 55.7948 39.4888 55.7733 39.44L55.6853 39.4987ZM15.4587 22.1067C15.4331 22.2444 15.4498 22.3866 15.5067 22.5147C15.8373 23.184 16.1733 23.8507 16.5173 24.5147C16.584 24.6453 16.6933 24.7547 16.5973 24.9493C15.84 25.1093 15.056 25.2667 14.2507 25.6293C14.408 25.7307 14.5093 25.7893 14.6027 25.8613C14.7147 25.9467 14.9013 26.016 14.8427 26.1813C14.816 26.2693 14.6427 26.3093 14.5307 26.3733C14.576 26.4 14.6453 26.4293 14.7093 26.4693C15.152 26.7413 15.5893 27.0213 15.9013 27.4507C16.2693 27.9627 16.512 28.528 16.4027 29.168C16.192 30.4187 15.5867 31.4347 14.5627 32.1867C14.4187 32.2933 14.28 32.408 14.1333 32.512C14.029 32.5825 13.9475 32.6818 13.8988 32.7978C13.85 32.9138 13.836 33.0415 13.8587 33.1653C13.8844 33.3444 13.9337 33.5192 14.0053 33.6853C14.2267 34.208 14.592 34.6187 15.0053 34.9973C15.2267 35.2 15.4293 35.4347 15.5973 35.6827C15.6977 35.8288 15.7569 35.9993 15.7687 36.1762C15.7804 36.3531 15.7442 36.5299 15.664 36.688C15.6027 36.8213 15.5307 36.952 15.4613 37.0827C15.3813 37.2427 15.3867 37.3787 15.52 37.5147C15.6293 37.6267 15.7333 37.752 15.8187 37.8827C15.92 38.0373 16.0267 38.0933 16.2107 38.016C16.4955 37.9062 16.81 37.9006 17.0987 38C17.5253 38.1227 17.904 38.336 18.2827 38.56C18.6293 38.7653 18.9867 38.9573 19.3493 39.144C19.528 39.2373 19.7227 39.2773 19.9333 39.2133C20.1227 39.1547 20.264 39.24 20.32 39.416C20.3733 39.5867 20.312 39.704 20.1227 39.7867C19.936 39.8667 19.7573 39.9547 19.5653 40.0213C19.2987 40.1147 19.0293 40.216 18.728 40.2267C18.6933 39.9413 19.0213 39.992 19.0667 39.8027C18.5173 39.4667 17.352 39.416 16.9307 39.712C17.0987 40.0107 17.024 40.272 16.6747 40.5467C16.328 40.28 16.608 40.008 16.68 39.7467C16.6065 39.7313 16.5306 39.7309 16.457 39.7455C16.3833 39.7601 16.3134 39.7895 16.2514 39.8318C16.1894 39.8742 16.1366 39.9286 16.0961 39.9919C16.0557 40.0551 16.0284 40.1259 16.016 40.2C15.976 40.4693 16.1947 40.776 16.4907 40.7973C16.7787 40.816 17.072 40.784 17.36 40.7653C17.52 40.752 17.68 40.6933 17.8907 40.7653C17.616 41.0933 17.2293 41.104 16.9387 41.272C16.944 41.4053 17.1253 41.5013 16.9893 41.6213C16.848 41.7493 16.736 41.6187 16.6373 41.5413C16.424 41.3733 16.2107 41.2053 16.0213 41.016C15.7816 40.8027 15.6319 40.5062 15.6027 40.1867C15.591 40.0283 15.5522 39.8732 15.488 39.728C15.4027 39.5307 15.4027 39.3627 15.576 39.2213C15.528 39.1413 15.5013 39.08 15.456 39.0293C15.2266 38.7338 15.0498 38.4009 14.9333 38.0453C14.792 37.68 14.8107 37.3413 15.0613 37.0293C15.1253 36.9493 15.1947 36.8693 15.232 36.776C15.2933 36.6328 15.3354 36.4822 15.3573 36.328C15.4027 35.888 15.1867 35.5627 14.872 35.296C14.376 34.88 13.912 34.4373 13.6453 33.8267C13.632 33.7973 13.5813 33.7813 13.5467 33.7573C13.5173 33.8027 13.4827 33.8293 13.48 33.8587C13.4293 34.352 13.36 34.8453 13.3413 35.344C13.304 36.3493 13.496 37.3253 13.7733 38.288C14.088 39.3813 14.544 40.416 15.0747 41.416C15.7867 42.7547 16.5067 44.088 17.24 45.416C17.3867 45.6773 17.5867 45.92 17.7947 46.136C18.3227 46.6747 19 46.8613 19.7253 46.864C20.264 46.864 20.8027 46.848 21.3387 46.7947C22.1253 46.7147 22.912 46.6 23.696 46.4933C24.184 46.4267 24.6693 46.3413 25.1573 46.28C25.7173 46.2107 26.1707 46.4747 26.5493 46.84C26.976 47.256 27.3627 47.712 27.7413 48.1733C28.328 48.88 28.8 49.6667 29.2187 50.4853C29.352 50.7467 29.4053 50.752 29.6107 50.5653C29.9573 50.2427 30.304 49.92 30.6613 49.6053C30.84 49.448 30.896 49.2853 30.84 49.0373C30.6843 48.3406 30.6083 47.6285 30.6133 46.9147C30.6187 46.496 30.6293 46.0773 30.6613 45.6587C30.7013 45.0613 30.7413 44.4587 30.8213 43.8667C31.1029 41.8179 31.4247 39.7748 31.7867 37.7387C32.0187 36.424 32.272 35.1147 32.5013 33.8C32.6613 32.8747 32.816 31.9493 32.9333 31.0187C33.024 30.2907 33.08 29.552 33.1013 28.8187C33.1307 27.9333 33.1093 27.0453 33.1067 26.1573C33.1067 25.952 33.1173 25.744 33.08 25.544C33.0053 25.1653 33.0533 25.1307 32.648 25.0373C32.1138 24.9137 31.5735 24.8185 31.0293 24.752C30.64 24.704 30.4773 24.6107 30.44 24.2453C30.424 24.1147 30.3733 23.984 30.3307 23.856C30.3067 23.7893 30.2667 23.728 30.208 23.616L30.1413 24.32C30.1173 24.576 30.064 24.6293 29.8027 24.6267C29.656 24.6267 29.5093 24.6053 29.3653 24.6053C28.096 24.6053 26.8267 24.584 25.5627 24.6907C25.3093 24.712 25.1013 24.6507 24.96 24.416C24.8533 24.24 24.7253 24.08 24.6027 23.92C24.4347 23.696 24.3733 23.672 24.1173 23.76C23.5973 23.9413 23.0827 24.128 22.5653 24.32C21.9177 24.5814 21.3114 24.9353 20.7653 25.3707C20.5085 25.5722 20.2164 25.7241 19.904 25.8187C19.816 25.8453 19.7173 25.84 19.5653 25.8533C19.6187 25.6773 19.6293 25.5493 19.6907 25.4533C19.8613 25.1733 20.0507 24.9067 20.2373 24.6373C20.2987 24.5493 20.368 24.4693 20.432 24.384L20.392 24.3227L19.856 24.4213C19.4667 24.528 19.0667 24.608 18.6907 24.7467C18.296 24.888 17.9813 24.808 17.6613 24.5547C16.9092 23.9571 16.2504 23.2506 15.7067 22.4587L15.4587 22.1067ZM38.3707 46.008L37.9787 46.248C37.392 46.6053 36.8053 46.9573 36.2213 47.32C35.9733 47.4747 35.7307 47.64 35.5013 47.8213C35.2747 48.008 35.1707 48.2507 35.3093 48.5467C35.4347 48.8133 35.5573 49.08 35.7013 49.3307C35.8267 49.544 36.032 49.6987 36.2693 49.7227C36.5627 49.7493 36.8773 49.7547 37.1653 49.6907C37.744 49.5573 38.1573 49.144 38.5733 48.7387C38.688 48.6394 38.7711 48.5087 38.8124 48.3627C38.8536 48.2168 38.8512 48.0619 38.8053 47.9173C38.6827 47.4373 38.5947 46.944 38.4907 46.4587C38.4613 46.32 38.4187 46.184 38.3707 46.008ZM37.6853 39.584C37.3653 40.36 37.1387 41.176 36.8187 42.0107C36.416 43.1653 36.0347 44.3307 35.6587 45.5387C35.7547 45.512 35.8027 45.512 35.8373 45.4907C36.5333 45.064 37.2293 44.6267 37.9307 44.2C38.0747 44.112 38.12 43.992 38.104 43.832C38.072 43.4853 38.04 43.1333 38.0133 42.784L37.832 40.4213C37.8107 40.1467 37.7787 39.872 37.7547 39.5947C37.7307 39.5947 37.7093 39.5893 37.6853 39.584ZM45.9013 17.904L46.1653 18.664C46.3787 19.28 46.5893 19.8987 46.8053 20.568L48.352 25.7733C48.8507 27.4533 49.344 29.1387 49.84 30.8213C50.144 31.84 50.4667 32.8533 50.7547 33.8773C50.9467 34.5627 51.0907 35.2613 51.2507 36.008C51.368 36.5573 51.4827 37.1093 51.5893 37.7147C51.68 37.9973 51.6507 38.3173 51.7947 38.5813L51.8613 38.5653L51.68 37.6C51.5787 37.0507 51.4747 36.5013 51.3787 35.8987C51.3387 35.712 51.3013 35.5227 51.256 35.336C51.0027 34.28 50.784 33.2133 50.4827 32.1707C49.96 30.344 49.3813 28.5333 48.8347 26.7147C48.3947 25.2507 47.976 23.7813 47.5333 22.32C47.3493 21.7147 47.1333 21.12 46.9307 20.4667L46.6187 19.5707C46.52 19.2853 46.4187 18.9947 46.312 18.712C46.2053 18.4293 46.088 18.152 45.9733 17.8747C45.9493 17.8836 45.9253 17.8925 45.9013 17.9013V17.904ZM16.6 38.144C16.432 38.1413 16.2933 38.1813 16.2427 38.3653C16.3984 38.485 16.5878 38.5525 16.7841 38.5583C16.9804 38.564 17.1736 38.5077 17.336 38.3973C17.0934 38.305 16.848 38.2205 16.6 38.144ZM13.9467 31.9467C13.8773 31.8747 13.7947 31.8187 13.7467 31.952C13.7147 32.0373 13.728 32.1387 13.72 32.2533C13.9387 32.1547 13.9387 32.1547 13.9467 31.9467ZM14.112 28.776C14.0649 28.7841 14.0199 28.8014 13.9796 28.8271C13.9394 28.8527 13.9046 28.8861 13.8773 28.9253C13.827 29.0145 13.8038 29.1165 13.8107 29.2187C13.824 29.624 13.8373 30.0347 13.88 30.4373C13.9088 30.6389 13.9681 30.835 14.056 31.0187C14.2187 31.3813 14.4747 31.464 14.824 31.288C14.9707 31.216 14.984 31.144 14.8907 30.9947C14.7709 30.8103 14.6562 30.6226 14.5467 30.432C14.5067 30.2507 14.3707 30.0827 14.4587 29.88C14.5653 29.64 14.256 29.5707 14.2613 29.3733V28.9973C14.2533 28.896 14.2453 28.7653 14.112 28.776ZM14.0667 26.1947C13.6278 26.187 13.1959 26.3045 12.8213 26.5333C12.6187 26.6533 12.5973 26.72 12.688 26.9547C12.7787 27.1867 12.8747 27.416 12.9947 27.632C13.1653 27.944 13.2347 27.9653 13.5547 27.8373C13.8357 27.7124 14.1448 27.6636 14.4507 27.696C14.9893 27.7547 15.4027 28.0587 15.7947 28.4L16.04 28.6053C16.0587 28.5893 16.0773 28.5707 16.0987 28.5573C16.048 28.2773 16.0053 27.9547 15.7013 27.8533C15.2827 27.712 14.8373 27.6533 14.3467 27.5413L13.7067 27.528C14.3467 27.0773 14.912 27.4107 15.5387 27.552C15.3707 27.2453 15.1307 27.16 14.9253 27.0373C14.7067 26.904 14.472 26.792 14.2587 26.6533C14.0987 26.5547 13.9387 26.44 14.0667 26.1947ZM41.3547 27.0613C40.7413 27.0347 40.216 27.2747 39.7333 27.624C39.6427 27.6933 39.5733 27.7973 39.4533 27.936C39.6853 28.0053 39.8533 28.0587 40.072 28.1093C40.1893 28.0693 40.3067 28.0293 40.4187 27.9867C41.2347 27.6827 42.0453 27.68 42.8293 28.0693C43.1653 28.2373 43.4613 28.176 43.8053 28.056C43.752 27.9733 43.7253 27.912 43.6853 27.8667C43.3601 27.5206 42.9473 27.269 42.4907 27.1387C42.1173 27.0213 41.7333 27.0773 41.3547 27.0613ZM21.3067 17.288C21.2826 17.4052 21.2844 17.5262 21.312 17.6427C21.5253 18.4987 21.728 19.3573 21.9573 20.208C22.2347 21.24 22.6773 22.208 23.1733 23.1493C23.2267 23.248 23.336 23.3627 23.4347 23.3813C23.6684 23.411 23.9054 23.3632 24.1093 23.2453L22.8507 21.0053C22.2373 19.8107 21.7707 18.552 21.3067 17.288ZM27.7253 1.32532C27.192 1.30399 26.6453 1.33599 26.1173 1.41599C25.488 1.50932 24.864 1.64799 24.2507 1.82132C23.4853 2.03465 22.7333 2.30132 21.9787 2.54932C21.872 2.58399 21.7813 2.65065 21.6853 2.70399C21.76 2.74132 21.8187 2.75199 21.872 2.74132C22.6373 2.55999 23.4187 2.51465 24.2 2.50132C24.5573 2.49599 24.9173 2.52532 25.272 2.56799C25.7787 2.63199 26.2907 2.69599 26.792 2.80799C28.008 3.08532 29.1227 3.60799 30.1653 4.29065C31.4027 5.10665 32.5333 6.05065 33.5173 7.16532C34.064 7.78399 34.5707 8.43199 35.0107 9.13599C35.464 9.86665 35.8507 10.632 36.208 11.4187C36.936 13.0213 37.424 14.704 37.808 16.4213C37.9147 16.8827 37.9947 17.3493 38.0747 17.8187C38.12 18.096 38.248 18.264 38.528 18.3253C38.8533 18.4 39.0613 18.6053 39.1147 18.9947C39.1067 19.2667 38.9547 19.4587 38.7707 19.6347C38.4676 19.8987 38.224 20.2241 38.056 20.5893C38.1382 20.5764 38.2149 20.5403 38.2773 20.4853C38.4907 20.256 38.7093 20.0267 38.904 19.7787C39.1135 19.5285 39.2352 19.2166 39.2507 18.8907C39.2747 18.7573 39.3093 18.624 39.3147 18.4907C39.3333 18.16 39.2693 18.0907 38.9333 18.0427C38.8667 18.032 38.8027 18.0053 38.7387 18.0027C38.52 17.984 38.4053 17.8347 38.3733 17.6533C38.2853 17.1253 38.3627 16.7067 39.032 16.5653C39.2613 16.5173 39.496 16.4853 39.7253 16.4533C40.1467 16.392 40.5653 16.312 40.9867 16.2747C41.36 16.2427 41.4933 16.3627 41.5893 16.72C41.6107 16.7973 41.6373 16.872 41.6453 16.952C41.696 17.4293 41.624 17.552 41.2693 17.72C41.1973 17.7547 41.1227 17.784 41.0613 17.832C40.9996 17.8771 40.9524 17.9392 40.9253 18.0107C40.8213 18.3947 41.12 19.0293 41.4747 19.1973L43.2693 20.0507C43.3307 20.08 43.4027 20.0907 43.4693 20.112L43.5173 20.0427C43.4773 20.0213 43.432 20.008 43.4 19.9787C42.9585 19.628 42.4703 19.3408 41.9493 19.1253C41.7968 19.0557 41.643 18.989 41.488 18.9253C41.3873 18.884 41.3013 18.8134 41.2414 18.7225C41.1814 18.6316 41.1503 18.5248 41.152 18.416C41.144 18.1893 41.272 18.0053 41.4933 17.9173L41.6507 17.8507C41.9147 17.7333 41.9653 17.648 41.9493 17.352C41.9469 17.2955 41.9397 17.2393 41.928 17.184C41.7493 16.4 41.6 15.6107 41.3813 14.8373C40.8601 12.9483 40.1209 11.1263 39.1787 9.40799C38.1966 7.62335 36.9465 6 35.472 4.59465C34.5491 3.70011 33.4896 2.95837 32.3333 2.39732C31.4779 1.97476 30.565 1.68006 29.624 1.52265C28.9955 1.4201 28.3615 1.35421 27.7253 1.32532ZM45.6427 17.2053C45.6693 17.2427 45.6907 17.28 45.744 17.296L45.6853 17.1787L45.6427 17.2053ZM10.9413 10.4453C10.918 10.4629 10.8903 10.4739 10.8613 10.4773C10.8279 10.5141 10.7923 10.5489 10.7547 10.5813C10.728 10.608 10.7013 10.6347 10.6347 10.688L9.66665 11.632C9.43199 11.8587 9.21332 12.1067 8.95732 12.3067C8.19999 12.8933 7.82399 13.72 7.50665 14.5867C7.48317 14.6469 7.47671 14.7124 7.48799 14.776C7.52266 14.9227 7.57599 15.064 7.62665 15.224L7.82399 15.2933C7.77865 15.4427 7.74399 15.5733 7.69866 15.6987C7.54399 16.136 7.38399 16.5707 7.23199 17.008C7.21865 17.048 7.25332 17.104 7.28265 17.2133C7.49599 16.7467 7.70399 16.3333 7.88266 15.9093C8.49065 14.4587 9.17332 13.0453 10.0667 11.7467C10.3067 11.392 10.552 11.0373 10.8213 10.6773C10.832 10.6613 10.84 10.6427 10.88 10.5973C10.8827 10.5547 10.888 10.512 10.92 10.4907L10.9413 10.4453ZM45.544 16.8667C45.5517 16.8726 45.5579 16.8803 45.5621 16.8891C45.5663 16.8979 45.5683 16.9076 45.568 16.9173C45.562 16.9258 45.5566 16.9347 45.552 16.944C45.5572 16.9621 45.5634 16.9799 45.5707 16.9973L45.6187 17.056C45.624 17.0373 45.6373 17.0133 45.632 17C45.624 16.9733 45.6 16.952 45.5787 16.8987C45.567 16.8881 45.5555 16.8774 45.544 16.8667ZM11.1973 11.9467C11.1893 11.9573 11.176 11.968 11.1253 11.984C11.112 12.0187 11.096 12.0507 11.0427 12.1093C10.9399 12.2632 10.8296 12.4118 10.712 12.5547C10.584 12.7413 10.4027 12.7013 10.2293 12.664C9.87199 12.5893 9.62132 12.7067 9.46399 13.0453C9.22666 13.544 8.96532 14.032 8.73599 14.5387C8.60532 14.8267 8.44265 15.1147 8.42132 15.4987C8.63732 15.5067 8.83199 15.5173 9.02932 15.52H9.63732C9.57977 15.7583 9.50945 15.9933 9.42665 16.224C9.39999 16.3627 9.36799 16.4987 9.33865 16.6373L9.39199 16.648C9.43999 16.5253 9.49065 16.4027 9.57065 16.24C9.74665 15.8613 9.91732 15.48 10.104 15.104C10.1573 14.9973 10.1947 14.8373 10.4133 14.8587C10.4133 14.9733 10.424 15.0827 10.4133 15.1893C10.4 15.3093 10.368 15.4293 10.3387 15.5707C10.7147 15.6853 10.568 16.0347 10.6453 16.288C10.9173 16.2293 10.9227 15.768 11.3067 15.904V16.4507L11.352 16.456L12.5227 13.632C12.176 13.632 11.8667 13.5787 11.568 13.72C11.504 13.7493 11.4133 13.7173 11.28 13.7093C11.48 13.3093 11.6507 12.968 11.8427 12.5973C11.8592 12.5617 11.8817 12.5293 11.9093 12.5013C11.9093 12.4613 11.9067 12.4213 11.9307 12.4L11.9467 12.3467C11.9333 12.3627 11.92 12.376 11.872 12.392C11.8613 12.424 11.848 12.456 11.8027 12.512C11.7828 12.5486 11.7533 12.579 11.7173 12.6C11.3893 13.0187 11.4773 13.0373 11.0293 12.8827C10.8187 12.8107 10.8213 12.808 10.904 12.4987C10.9787 12.376 11.0533 12.2507 11.1653 12.0987C11.1653 12.056 11.1627 12.0133 11.184 11.9867L11.1973 11.9467ZM16.7253 10.16C16.7173 10.176 16.7067 10.1893 16.6533 10.2027C16.4027 10.536 16.136 10.8587 15.9067 11.208C15.4933 11.8427 15.104 12.4907 14.704 13.136C14.3307 13.7333 13.784 14.1173 13.1707 14.4187C13.1253 14.44 13.064 14.4347 12.96 14.448C12.992 14.2907 13.0027 14.1573 13.048 14.04C13.23 13.5703 13.4337 13.1094 13.6587 12.6587L13.64 12.6053C13.6126 12.6323 13.5811 12.6548 13.5467 12.672C13.472 12.8053 13.4 12.9387 13.2987 13.1093C12.6053 14.24 12.1173 15.288 12.12 15.6427C12.184 15.6533 12.248 15.672 12.3147 15.6773C12.7867 15.712 12.816 15.696 13.008 15.2373C13.088 15.0507 13.2133 14.9173 13.4 14.8373L13.8667 14.6507C13.984 14.6027 14.0933 14.4987 14.256 14.5653C14.264 14.6987 14.2293 14.8587 14.2933 14.952C14.4053 15.1173 14.4107 15.2853 14.4187 15.4667C14.424 15.5973 14.464 15.728 14.488 15.8587C14.5653 15.768 14.592 15.6853 14.6213 15.6C15 14.56 15.36 13.5147 15.7627 12.48C16.0293 11.7973 16.3493 11.136 16.6427 10.464C16.6773 10.384 16.6773 10.2853 16.7227 10.2187L16.7253 10.16ZM27.3573 9.25332C27.3573 9.37332 27.384 9.47732 27.4133 9.58132C27.5253 10.008 27.664 10.4293 27.744 10.8613C27.808 11.216 27.8053 11.5813 27.8187 11.944C27.8187 12.032 27.768 12.1227 27.7333 12.2373C27.4827 12.0827 27.608 11.816 27.4507 11.664H27.1173C27.0773 11.856 27.0907 12.0693 26.9947 12.1973C26.8187 12.424 26.5813 12.608 26.3653 12.8027C26.2507 12.904 26.1573 12.8507 26.0907 12.736L25.968 12.504C25.7947 12.5973 25.656 12.688 25.5093 12.752C25.2 12.888 24.8827 13.0053 24.576 13.144C24.3493 13.2453 24.336 13.2853 24.3893 13.536C24.4267 13.736 24.48 13.9307 24.5147 14.1307C24.5493 14.3227 24.648 14.4213 24.8427 14.4613C25.464 14.5947 26.0747 14.768 26.5947 15.168C26.7493 14.896 26.7493 14.896 27.0427 14.7653C27.1227 14.728 27.2027 14.6853 27.288 14.6533C27.5013 14.5733 27.5947 14.608 27.688 14.8133C27.7493 14.9413 27.7973 15.0747 27.864 15.2347C28.024 14.8613 27.752 14.5227 27.9093 14.1253C28.328 14.6053 28.5493 15.1653 28.9093 15.6373C28.9475 15.5555 28.9675 15.4663 28.968 15.376C28.9733 15.0453 28.968 14.7173 28.9733 14.3867C28.9733 14.296 29.008 14.208 29.0267 14.12L29.112 14.112C29.4053 14.5253 29.4587 15.056 29.7147 15.4987C29.7283 15.15 29.7194 14.8008 29.688 14.4533C29.6773 14.3333 29.688 14.256 29.8213 14.2187C30.0347 14.3147 30.1307 14.592 30.3947 14.64C30.3147 13.9067 29.2667 11.608 28.2667 10.28C27.9627 9.94132 27.7333 9.53332 27.36 9.25065L27.3573 9.25332ZM20.2453 11.1093C20.1947 11.2 20.1653 11.2427 20.1467 11.288C19.984 11.7813 19.8133 12.2747 19.6667 12.7707C19.584 13.0507 19.4347 13.2213 19.1467 13.2773C18.9067 13.328 18.672 13.416 18.432 13.472C18.3307 13.496 18.1947 13.512 18.1173 13.464C18.0533 13.4213 18.0507 13.28 18.0213 13.1813C17.8507 13.384 17.8027 13.4133 17.568 13.3067C17.2133 13.1413 16.8693 12.9467 16.52 12.7707C16.392 12.704 16.272 12.6027 16.0667 12.6907C15.952 13.0107 15.824 13.3573 15.7013 13.7093C15.4373 14.456 15.4693 14.3547 15.9547 14.9173C16.0773 15.0453 16.2267 14.9973 16.3653 14.9787C16.5093 14.9547 16.648 14.8987 16.792 14.8827C17.1387 14.848 17.4853 14.6693 17.7707 14.8427C18.3147 14.672 18.8027 14.5173 19.2933 14.368C19.4267 14.328 19.5307 14.3813 19.5973 14.512C19.656 14.624 19.688 14.76 19.816 14.8347C19.9173 14.6853 19.7813 14.4933 19.984 14.36L20.3573 15.0027L20.2453 11.1093ZM20.9867 12.064C20.7307 12.0373 20.7013 12.0907 20.6933 12.352C20.688 12.4533 20.6853 12.56 20.6987 12.6587C20.7787 13.192 20.9627 13.688 21.1627 14.1787C21.168 14.1947 21.1947 14.2053 21.2213 14.2187L21.4293 14.0853C21.568 14.1813 21.6453 14.32 21.8373 14.32C22.384 14.3147 22.9307 14.3573 23.48 14.352C23.744 14.3493 23.9013 14.464 24.0267 14.672C24.0747 14.752 24.0907 14.8773 24.2613 14.848L24.048 13.7973C23.9147 13.2773 23.8213 12.744 23.5893 12.2267C23.4373 12.3787 23.2853 12.408 23.1093 12.3493C22.992 12.313 22.8714 12.288 22.7493 12.2747C22.1627 12.2 21.576 12.1173 20.9893 12.0613L20.9867 12.064ZM48.3307 7.45865C48.568 7.89332 48.744 8.30132 48.7013 8.76799C48.6587 9.21599 48.7707 9.67999 48.584 10.144C48.4587 10.056 48.3493 9.92532 48.2853 9.94399C47.9733 10.0373 47.848 9.79199 47.68 9.63732C47.4149 9.39052 47.1604 9.1325 46.9173 8.86399L46.64 8.56265C46.6196 8.57961 46.5992 8.59649 46.5787 8.61332C46.672 8.73599 46.7653 8.86132 46.872 9.02932C46.9787 9.19999 47.096 9.36799 47.1973 9.54399C47.288 9.69865 47.3707 9.85865 47.28 10.0907C47.0613 10.064 46.8427 10.04 46.624 10.0053C46.464 9.97865 46.3547 10.0053 46.2933 10.192C46.2107 10.4533 46.1947 10.448 45.8933 10.432C45.9467 10.544 45.9893 10.6453 46.0453 10.7413C46.1547 10.9387 46.1253 11.1093 45.9653 11.264C45.8053 11.424 45.6507 11.5893 45.4907 11.7467C45.4291 11.8126 45.3497 11.8593 45.2622 11.8811C45.1746 11.9028 45.0826 11.8988 44.9973 11.8693C44.4053 11.7067 43.8053 11.568 43.2107 11.4053C43.1253 11.3813 43.0427 11.2987 42.9813 11.224C42.9013 11.1173 42.8427 10.992 42.768 10.8773C42.6507 10.6907 42.528 10.5093 42.4053 10.3253C42.3651 10.4128 42.3521 10.5104 42.368 10.6053C42.4 10.944 42.448 11.28 42.4613 11.6187C42.4747 11.8853 42.3973 11.9387 42.1387 11.896C41.8613 11.8507 41.5893 11.7893 41.312 11.7413C41.1413 11.7093 40.9627 11.6667 40.7733 11.8213L40.9893 12.376C41.2293 12.376 41.432 12.3493 41.6213 12.3813C42.0906 12.4652 42.5195 12.7002 42.8427 13.0507C43.0507 13.272 43.2533 13.4987 43.4853 13.744L43.5333 13.7307C43.5227 13.7147 43.512 13.696 43.5067 13.624C43.544 13.4747 43.3413 13.3093 43.5547 13.1493C43.6373 13.2293 43.7253 13.3013 43.7893 13.3893C43.944 13.5973 44.0853 13.8133 44.24 14.0747L44.4773 14.4507L44.5413 14.416C44.1616 13.5859 43.782 12.7556 43.4027 11.9253C43.5493 11.944 43.624 11.944 43.6907 11.968C44.2053 12.1547 44.7173 12.3467 45.2293 12.544C45.4267 12.6187 45.6213 12.704 45.8133 12.7947C45.9787 12.8693 46.112 12.8427 46.232 12.7067C46.3653 12.5573 46.504 12.408 46.6427 12.2613C46.776 12.1253 46.896 12.1387 46.9947 12.2987C47.0373 12.3653 47.064 12.44 47.1013 12.512C47.2907 12.88 47.4827 13.2507 47.68 13.6667L48.104 14.488L48.1707 14.4587C48.0533 14.176 47.984 13.8773 47.8027 13.568C47.6507 13.0827 47.3547 12.6453 47.2533 12.1147C47.616 12.2053 48.2187 12.984 48.7653 14.0667L48.9173 14.264L48.9653 14.2347C48.9142 14.1238 48.8679 14.0109 48.8267 13.896C48.704 13.5093 48.568 13.1227 48.464 12.7333C48.4053 12.512 48.368 12.272 48.5227 12.04L48.8133 12.1947L48.744 11.6427L48.816 11.6C48.8747 11.6533 48.9493 11.696 48.9893 11.76C49.184 12.048 49.3707 12.3467 49.5627 12.64C49.5893 12.6827 49.64 12.7173 49.6773 12.7547C49.5813 12.176 49.144 11.7413 49.0667 11.0853L49.48 11.384C49.5173 10.9413 49.512 10.5333 49.592 10.144C49.6773 9.72265 49.5307 9.35199 49.424 8.95732C49.488 8.96799 49.52 8.97332 49.5707 9.02399C49.816 9.35465 50.0587 9.68799 50.3093 10.0133C50.3627 10.0853 50.4427 10.1387 50.4933 10.2453L50.6 10.4133L50.6507 10.3733C50.5916 10.3089 50.5439 10.2349 50.5093 10.1547C50.2096 9.72224 49.9145 9.28666 49.624 8.84799C49.0347 8.01865 48.656 7.60265 48.3307 7.45865ZM30.8107 8.33065C30.8027 8.75999 31.056 9.06399 30.9947 9.43732L30.0133 9.66932C30.2533 10.04 30.0987 10.3013 29.8747 10.552C29.7413 10.704 29.6293 10.8773 29.4933 11.0267C29.3947 11.1333 29.3707 11.2347 29.4453 11.3627L29.872 12.096C29.9493 12.224 30.064 12.272 30.2133 12.2667C30.416 12.2587 30.6187 12.2667 30.8213 12.264C31.1307 12.256 31.3973 12.3227 31.5547 12.6293C31.5707 12.6667 31.608 12.6933 31.672 12.768C31.6827 12.6107 31.664 12.5067 31.6987 12.4213C31.7413 12.3147 31.8053 12.1573 31.8907 12.1333C32.1147 12.072 32.352 12.0693 32.584 12.0533C32.6187 12.0507 32.656 12.1013 32.6907 12.1307L32.88 12.304C32.9307 12.0107 32.6613 11.776 32.816 11.4773L33.152 11.584C33.0827 11.256 32.9653 10.9307 32.9627 10.608C32.9627 10.28 33.0987 9.95999 33.2693 9.64799C33.5547 9.81332 33.696 10.064 33.8933 10.3227C34.3813 11.0293 34.8533 11.744 35.2107 12.5467C35.6507 12.3387 35.9307 12.728 36.296 12.7813C36.288 12.4987 35.9413 11.6053 35.7707 11.4693C35.693 11.4103 35.5956 11.3836 35.4987 11.3947C35.3387 11.424 35.1813 11.4987 34.9893 11.5627C34.9227 11.4587 34.84 11.3547 34.784 11.2373C34.4461 10.4947 34.0228 9.79393 33.5227 9.14932C33.32 8.89865 33.096 8.66399 32.9147 8.45599L31.872 9.21599C31.7413 9.30932 31.6213 9.29599 31.52 9.17065L31.0693 8.61865C31.0027 8.53865 30.928 8.46132 30.8107 8.33065Z" fill="black"/>
</g>
</svg>
