<svg width="64" height="64" viewBox="0 0 64 64" fill="none" xmlns="http://www.w3.org/2000/svg">
<g opacity="0.4">
<path fill-rule="evenodd" clip-rule="evenodd" d="M27.2319 23.936V20.32C27.5706 20.2933 27.9146 20.2746 28.2666 20.264C37.8559 19.952 44.1519 28.7546 44.1519 28.7546C44.1519 28.7546 37.3573 38.48 30.0666 38.48C29.1022 38.4844 28.144 38.3266 27.2319 38.0133V27.056C30.9653 27.52 31.7146 29.2213 33.9599 33.0773L38.9546 28.7386C37.7762 27.2594 36.291 26.0532 34.6014 25.2034C32.9119 24.3535 31.0581 23.8802 29.1679 23.816C28.5182 23.8191 27.8693 23.8583 27.2239 23.9333M27.2239 11.9973V17.3973C27.5706 17.3706 27.9146 17.3466 28.2586 17.3333C41.5973 16.8693 50.2879 28.6026 50.2879 28.6026C50.2879 28.6026 40.3066 41.1093 29.9066 41.1093C29.0053 41.1093 28.1066 41.0267 27.2213 40.864V44.1973C27.9626 44.2986 28.7093 44.3493 29.4559 44.3493C39.1333 44.3493 46.1306 39.256 52.9066 33.232C54.0293 34.1573 58.6293 36.4133 59.5759 37.4026C53.1333 42.9573 38.1146 47.4373 29.6026 47.4373C28.7813 47.4373 27.9946 47.384 27.2186 47.3093V52H63.9999V12H27.2266L27.2239 11.9973ZM27.2239 38.0133V40.8613C18.2746 39.2186 15.7919 29.6346 15.7919 29.6346C18.8366 26.4803 22.8725 24.4675 27.2239 23.9333V27.0586H27.2106C25.9338 27.0465 24.6707 27.3227 23.5155 27.8666C22.3603 28.4105 21.3427 29.2081 20.5386 30.2C20.5386 30.2 22.1786 36.2666 27.2239 38.0133ZM11.3279 29.216C15.1573 24.056 20.9386 20.8213 27.2239 20.32V17.3946C15.4933 18.3653 5.33325 28.5946 5.33325 28.5946C5.33325 28.5946 11.0879 45.7333 27.2266 47.3013V44.192C15.3866 42.6666 11.3333 29.2213 11.3333 29.2213H11.3279V29.216Z" fill="white"/>
</g>
</svg>
