<svg width="64" height="64" viewBox="0 0 64 64" fill="none" xmlns="http://www.w3.org/2000/svg">
<g opacity="0.4" clip-path="url(#clip0_1_1708)">
<path fill-rule="evenodd" clip-rule="evenodd" d="M27.232 23.936V20.32C27.5707 20.2933 27.9147 20.2746 28.2667 20.264C37.856 19.952 44.152 28.7546 44.152 28.7546C44.152 28.7546 37.3574 38.48 30.0667 38.48C29.1023 38.4844 28.1441 38.3266 27.232 38.0133V27.056C30.9654 27.52 31.7147 29.2213 33.96 33.0773L38.9547 28.7386C37.7763 27.2594 36.2911 26.0532 34.6016 25.2034C32.912 24.3535 31.0582 23.8802 29.168 23.816C28.5184 23.8191 27.8694 23.8583 27.224 23.9333M27.224 11.9973V17.3973C27.5707 17.3706 27.9147 17.3466 28.2587 17.3333C41.5974 16.8693 50.288 28.6026 50.288 28.6026C50.288 28.6026 40.3067 41.1093 29.9067 41.1093C29.0054 41.1093 28.1067 41.0267 27.2214 40.864V44.1973C27.9627 44.2986 28.7094 44.3493 29.456 44.3493C39.1334 44.3493 46.1307 39.256 52.9067 33.232C54.0294 34.1573 58.6294 36.4133 59.576 37.4026C53.1334 42.9573 38.1147 47.4373 29.6027 47.4373C28.7814 47.4373 27.9947 47.384 27.2187 47.3093V52H64V12H27.2267L27.224 11.9973ZM27.224 38.0133V40.8613C18.2747 39.2186 15.792 29.6346 15.792 29.6346C18.8367 26.4803 22.8726 24.4675 27.224 23.9333V27.0586H27.2107C25.9339 27.0465 24.6708 27.3227 23.5156 27.8666C22.3604 28.4105 21.3428 29.2081 20.5387 30.2C20.5387 30.2 22.1787 36.2666 27.224 38.0133ZM11.328 29.216C15.1574 24.056 20.9387 20.8213 27.224 20.32V17.3946C15.4934 18.3653 5.33337 28.5946 5.33337 28.5946C5.33337 28.5946 11.088 45.7333 27.2267 47.3013V44.192C15.3867 42.6666 11.3334 29.2213 11.3334 29.2213H11.328V29.216Z" fill="black"/>
</g>
<defs>
<clipPath id="clip0_1_1708">
<rect width="64" height="64" fill="white"/>
</clipPath>
</defs>
</svg>
