<svg width="64" height="64" viewBox="0 0 64 64" fill="none" xmlns="http://www.w3.org/2000/svg">
<g opacity="0.4">
<path fill-rule="evenodd" clip-rule="evenodd" d="M33.6106 3.57337C34.6586 5.41337 35.7013 7.2587 36.7413 9.1067C36.7833 9.1806 36.8442 9.24202 36.9178 9.28465C36.9913 9.32729 37.0749 9.34962 37.1599 9.34937H51.9653C52.4293 9.34937 52.8239 9.6427 53.1546 10.2214L57.0319 17.0747C57.5386 17.9734 57.6719 18.3494 57.0959 19.3067C56.4026 20.4534 55.7279 21.6107 55.0693 22.7734L54.0906 24.528C53.8079 25.0507 53.4959 25.2747 53.9839 25.8934L61.0559 38.2587C61.5146 39.0614 61.3519 39.576 60.9413 40.312C59.7759 42.4054 58.5893 44.4827 57.3813 46.552C56.9573 47.2774 56.4426 47.552 55.5679 47.5387C53.4959 47.496 51.4293 47.512 49.3626 47.5814C49.3183 47.5837 49.2753 47.5971 49.2375 47.6204C49.1998 47.6437 49.1685 47.6761 49.1466 47.7147C46.7621 51.9394 44.3577 56.1528 41.9333 60.3547C41.4826 61.136 40.9199 61.3227 39.9999 61.3254C37.3413 61.3334 34.6613 61.336 31.9546 61.3307C31.7026 61.33 31.4552 61.2628 31.2375 61.1359C31.0198 61.009 30.8394 60.827 30.7146 60.608L27.1546 54.4134C27.1339 54.3728 27.1021 54.339 27.0629 54.3159C27.0237 54.2928 26.9787 54.2813 26.9333 54.2827H13.2853C12.5253 54.3627 11.8106 54.28 11.1386 54.0374L6.86392 46.6507C6.7375 46.432 6.67049 46.184 6.66956 45.9314C6.66862 45.6788 6.73379 45.4303 6.85858 45.2107L10.0773 39.5574C10.1231 39.4774 10.1472 39.3869 10.1472 39.2947C10.1472 39.2025 10.1231 39.112 10.0773 39.032C8.40064 36.1293 6.73396 33.2208 5.07725 30.3067L2.97058 26.5867C2.54392 25.76 2.50925 25.264 3.22392 24.0134C4.46392 21.8454 5.69592 19.68 6.92258 17.5174C7.27458 16.8934 7.73325 16.6267 8.47992 16.624C10.7812 16.6143 13.0826 16.6135 15.3839 16.6214C15.442 16.6209 15.499 16.6052 15.5491 16.5757C15.5992 16.5462 15.6407 16.504 15.6693 16.4534L23.1519 3.40003C23.2653 3.20146 23.429 3.03627 23.6266 2.9211C23.8242 2.80594 24.0486 2.74486 24.2773 2.74403C25.6746 2.74137 27.0853 2.74403 28.4986 2.72803L31.2106 2.6667C32.1199 2.6587 33.1413 2.75203 33.6106 3.57337ZM24.4586 4.64803C24.4305 4.64802 24.4029 4.6554 24.3785 4.66944C24.3542 4.68349 24.334 4.7037 24.3199 4.72803L16.6773 18.1014C16.6406 18.1644 16.588 18.2167 16.5249 18.2532C16.4618 18.2897 16.3902 18.3091 16.3173 18.3094H8.67458C8.52525 18.3094 8.48792 18.376 8.56525 18.5067L24.0586 45.5894C24.1253 45.7014 24.0933 45.7547 23.9679 45.7574L16.5146 45.7974C16.4056 45.7937 16.2978 45.8208 16.2035 45.8755C16.1092 45.9302 16.0322 46.0103 15.9813 46.1067L12.4613 52.2667C12.3439 52.4747 12.4053 52.5814 12.6426 52.5814L27.8853 52.6027C28.0079 52.6027 28.0986 52.656 28.1626 52.7654L31.9039 59.3094C32.0266 59.5254 32.1493 59.528 32.2746 59.3094L45.6239 35.9494L47.7119 32.264C47.7247 32.2413 47.7432 32.2223 47.7657 32.2091C47.7882 32.1959 47.8138 32.189 47.8399 32.189C47.866 32.189 47.8916 32.1959 47.9141 32.2091C47.9366 32.2223 47.9552 32.2413 47.9679 32.264L51.7653 39.0107C51.7938 39.0612 51.8353 39.1031 51.8854 39.1322C51.9356 39.1613 51.9926 39.1764 52.0506 39.176L59.4186 39.1227C59.4375 39.1229 59.4561 39.118 59.4725 39.1087C59.4889 39.0993 59.5025 39.0857 59.5119 39.0694C59.521 39.0531 59.5258 39.0347 59.5258 39.016C59.5258 38.9974 59.521 38.979 59.5119 38.9627L51.7786 25.4C51.7508 25.3547 51.736 25.3026 51.736 25.2494C51.736 25.1962 51.7508 25.144 51.7786 25.0987L52.5599 23.7467L55.5466 18.4747C55.6106 18.3654 55.5786 18.3094 55.4533 18.3094H24.5333C24.3759 18.3094 24.3386 18.24 24.4186 18.104L28.2426 11.424C28.2712 11.3785 28.2864 11.3258 28.2864 11.272C28.2864 11.2182 28.2712 11.1656 28.2426 11.12L24.5999 4.7307C24.586 4.70547 24.5655 4.68447 24.5406 4.66992C24.5158 4.65537 24.4874 4.64781 24.4586 4.64803ZM41.2319 26.0347C41.3546 26.0347 41.3866 26.088 41.3226 26.1947L39.1039 30.1014L32.1359 42.328C32.1228 42.3518 32.1035 42.3716 32.08 42.3852C32.0565 42.3989 32.0297 42.4058 32.0026 42.4054C31.9755 42.4053 31.949 42.3981 31.9256 42.3845C31.9022 42.3709 31.8828 42.3515 31.8693 42.328L22.6613 26.2427C22.6079 26.152 22.6346 26.104 22.7359 26.0987L23.3119 26.0667L41.2373 26.0347H41.2319Z" fill="white"/>
</g>
</svg>
