<svg width="64" height="64" viewBox="0 0 64 64" fill="none" xmlns="http://www.w3.org/2000/svg">
<g opacity="0.4">
<path fill-rule="evenodd" clip-rule="evenodd" d="M33.6107 3.57337C34.6587 5.41337 35.7013 7.2587 36.7413 9.1067C36.7834 9.1806 36.8443 9.24202 36.9179 9.28465C36.9914 9.32729 37.075 9.34962 37.16 9.34937H51.9653C52.4293 9.34937 52.824 9.6427 53.1547 10.2214L57.032 17.0747C57.5387 17.9734 57.672 18.3494 57.096 19.3067C56.4027 20.4534 55.728 21.6107 55.0693 22.7734L54.0907 24.528C53.808 25.0507 53.496 25.2747 53.984 25.8934L61.056 38.2587C61.5147 39.0614 61.352 39.576 60.9413 40.312C59.776 42.4054 58.5893 44.4827 57.3813 46.552C56.9573 47.2774 56.4427 47.552 55.568 47.5387C53.496 47.496 51.4293 47.512 49.3627 47.5814C49.3184 47.5837 49.2753 47.5971 49.2376 47.6204C49.1998 47.6437 49.1686 47.6761 49.1467 47.7147C46.7622 51.9394 44.3578 56.1528 41.9333 60.3547C41.4827 61.136 40.92 61.3227 40 61.3254C37.3413 61.3334 34.6613 61.336 31.9547 61.3307C31.7027 61.33 31.4553 61.2628 31.2376 61.1359C31.0199 61.009 30.8395 60.827 30.7147 60.608L27.1547 54.4134C27.134 54.3728 27.1022 54.339 27.063 54.3159C27.0238 54.2928 26.9788 54.2813 26.9333 54.2827H13.2853C12.5253 54.3627 11.8107 54.28 11.1387 54.0374L6.864 46.6507C6.73758 46.432 6.67058 46.184 6.66964 45.9314C6.6687 45.6788 6.73387 45.4303 6.85867 45.2107L10.0773 39.5574C10.1232 39.4774 10.1473 39.3869 10.1473 39.2947C10.1473 39.2025 10.1232 39.112 10.0773 39.032C8.40072 36.1293 6.73404 33.2208 5.07734 30.3067L2.97067 26.5867C2.544 25.76 2.50933 25.264 3.224 24.0134C4.464 21.8454 5.696 19.68 6.92267 17.5174C7.27467 16.8934 7.73334 16.6267 8.48 16.624C10.7813 16.6143 13.0827 16.6135 15.384 16.6214C15.4421 16.6209 15.4991 16.6052 15.5492 16.5757C15.5993 16.5462 15.6407 16.504 15.6693 16.4534L23.152 3.40003C23.2654 3.20146 23.4291 3.03627 23.6267 2.9211C23.8242 2.80594 24.0487 2.74486 24.2773 2.74403C25.6747 2.74137 27.0853 2.74403 28.4987 2.72803L31.2107 2.6667C32.12 2.6587 33.1413 2.75203 33.6107 3.57337ZM24.4587 4.64803C24.4306 4.64802 24.403 4.6554 24.3786 4.66944C24.3543 4.68349 24.3341 4.7037 24.32 4.72803L16.6773 18.1014C16.6406 18.1644 16.5881 18.2167 16.525 18.2532C16.4618 18.2897 16.3903 18.3091 16.3173 18.3094H8.67467C8.52534 18.3094 8.488 18.376 8.56534 18.5067L24.0587 45.5894C24.1253 45.7014 24.0933 45.7547 23.968 45.7574L16.5147 45.7974C16.4057 45.7937 16.2979 45.8208 16.2036 45.8755C16.1093 45.9302 16.0323 46.0103 15.9813 46.1067L12.4613 52.2667C12.344 52.4747 12.4053 52.5814 12.6427 52.5814L27.8853 52.6027C28.008 52.6027 28.0987 52.656 28.1627 52.7654L31.904 59.3094C32.0267 59.5254 32.1493 59.528 32.2747 59.3094L45.624 35.9494L47.712 32.264C47.7247 32.2413 47.7433 32.2223 47.7658 32.2091C47.7883 32.1959 47.8139 32.189 47.84 32.189C47.8661 32.189 47.8917 32.1959 47.9142 32.2091C47.9367 32.2223 47.9553 32.2413 47.968 32.264L51.7653 39.0107C51.7939 39.0612 51.8353 39.1031 51.8855 39.1322C51.9357 39.1613 51.9927 39.1764 52.0507 39.176L59.4187 39.1227C59.4376 39.1229 59.4562 39.118 59.4725 39.1087C59.4889 39.0993 59.5026 39.0857 59.512 39.0694C59.5211 39.0531 59.5259 39.0347 59.5259 39.016C59.5259 38.9974 59.5211 38.979 59.512 38.9627L51.7787 25.4C51.7508 25.3547 51.7361 25.3026 51.7361 25.2494C51.7361 25.1962 51.7508 25.144 51.7787 25.0987L52.56 23.7467L55.5467 18.4747C55.6107 18.3654 55.5787 18.3094 55.4533 18.3094H24.5333C24.376 18.3094 24.3387 18.24 24.4187 18.104L28.2427 11.424C28.2713 11.3785 28.2865 11.3258 28.2865 11.272C28.2865 11.2182 28.2713 11.1656 28.2427 11.12L24.6 4.7307C24.5861 4.70547 24.5656 4.68447 24.5407 4.66992C24.5158 4.65537 24.4875 4.64781 24.4587 4.64803ZM41.232 26.0347C41.3547 26.0347 41.3867 26.088 41.3227 26.1947L39.104 30.1014L32.136 42.328C32.1229 42.3518 32.1036 42.3716 32.0801 42.3852C32.0566 42.3989 32.0298 42.4058 32.0027 42.4054C31.9756 42.4053 31.9491 42.3981 31.9257 42.3845C31.9023 42.3709 31.8829 42.3515 31.8693 42.328L22.6613 26.2427C22.608 26.152 22.6347 26.104 22.736 26.0987L23.312 26.0667L41.2373 26.0347H41.232Z" fill="black"/>
</g>
</svg>
