<svg width="60" height="60" viewBox="0 0 60 60" fill="none" xmlns="http://www.w3.org/2000/svg">
<g opacity="0.4" clip-path="url(#clip0_69_206)">
<path d="M24.5614 60L24.5586 47.541C24.8674 41.5382 29.5432 36.8674 35.541 36.5586L48 36.5614V48H37.9298C37.1333 48 36.0196 49.193 36.0077 50.0077L36 60H24.5614Z" fill="black"/>
<path d="M0 24.5614L12.3888 24.5586C18.5565 24.8765 23.2477 29.6512 23.4414 35.8218L23.4386 48H12V38C12 37.1621 10.8351 36.061 9.99228 36.0077L0 36L0 24.5614Z" fill="black"/>
<path d="M60 35.4386L47.9621 35.4414C41.8021 35.3403 36.8751 30.6175 36.5586 24.4589L36.5614 12H48V22.0702C48 22.8807 49.2547 23.9825 50.0779 23.9923L60 24V35.4386Z" fill="black"/>
<path d="M35.4386 0L35.4414 12.0379C35.254 18.4786 30.5158 23.1523 24.1081 23.4414L12 23.4386V12H22C22.8533 12 24.0175 10.7333 23.9916 9.85123L24 0L35.4386 0Z" fill="black"/>
</g>
<defs>
<clipPath id="clip0_69_206">
<rect width="60" height="60" fill="white"/>
</clipPath>
</defs>
</svg>
