<svg width="56" height="64" viewBox="0 0 56 64" fill="none" xmlns="http://www.w3.org/2000/svg">
<g opacity="0.4" clip-path="url(#clip0_66_181)">
<path d="M27.8092 0.00550398C28.3239 -0.0485626 28.984 0.290725 29.4431 0.521879L54.7252 15.1559C55.2563 15.4881 55.6677 15.9943 55.8828 16.582C56.1182 26.6126 55.9133 36.6846 55.986 46.73C55.8804 48.0707 55.2711 48.4852 54.2371 49.1309C45.955 54.297 37.1692 58.7281 28.8182 63.7845C27.9571 64.2562 27.2915 63.8621 26.5226 63.4703C18.4517 58.4374 9.70806 54.1583 1.67856 49.1027C0.580425 48.4108 0.145553 48.0355 0.0563883 46.6532C-0.105516 44.1482 0.12991 41.5522 0.142424 39.0526C0.165889 34.1678 0.165106 29.2775 0.142424 24.3919C0.132256 22.1932 -0.0570227 19.9404 0.0571704 17.7323C0.103317 16.8437 0.150246 15.9544 0.926915 15.391C9.3381 10.6707 17.5123 5.46153 25.9751 0.836093C26.4686 0.566543 27.2742 0.0627049 27.8092 0.00628756V0.00550398ZM17.3449 23.2596C17.1517 22.1548 17.2174 21.2161 18.1349 20.485L31.4814 12.7778C32.1361 12.48 32.7234 12.6399 33.3554 12.9024L44.9366 19.5643C45.1822 19.6058 45.4873 19.3911 45.7125 19.2775C46.9209 18.6679 48.0496 17.7926 49.2854 17.2151L49.4136 17.0318L27.9633 4.62154L6.47389 16.9918L17.3449 23.2596ZM40.6536 22.0067L32.1853 17.2379L21.5677 23.3764L21.4887 25.7122L27.8835 29.435L28.0947 29.4522L40.5699 22.1979L40.6521 22.0067H40.6536ZM4.3621 20.8306V42.9665C4.3621 42.9963 4.20723 43.0386 4.40042 43.1609C5.65498 42.3945 6.94943 41.6948 8.21807 40.9535C10.9165 39.3778 13.8128 37.7714 16.4306 36.0954C16.6903 35.9292 17.237 35.6558 17.2714 35.3706L17.2284 28.1946L4.36053 20.8306H4.3621ZM51.6036 20.8306L47.3167 23.3137L47.3011 37.6374C47.215 38.4923 46.4689 39.2861 45.6351 39.4788L45.5796 39.6755L51.6036 43.1624V20.8306ZM43.0783 25.7671L30.133 33.2102L30.1072 41.0734L32.2768 42.3428L43.0783 36.0711V25.7671ZM21.4911 30.7036V36.0711L25.7201 38.573L25.9493 38.6169C25.8906 38.4994 25.8703 38.4022 25.8664 38.2698C25.8343 37.02 25.8578 35.7522 25.8664 34.5008C25.8687 34.1803 26.0212 33.4155 25.8335 33.2087L21.4903 30.7036H21.4911ZM25.8711 43.4759L19.0281 39.5023L6.47389 46.9228L25.832 58.1271C26.0259 58.0049 25.8711 57.9634 25.8711 57.9328V43.4759ZM49.4136 46.7676L41.1628 42.0921L33.0879 46.7473C31.9366 47.3122 31.0567 46.4895 30.0962 45.9825V58.1279L49.3331 46.9588L49.4144 46.7676H49.4136Z" fill="white"/>
</g>
<defs>
<clipPath id="clip0_66_181">
<rect width="56" height="64" fill="white"/>
</clipPath>
</defs>
</svg>
