<svg width="56" height="64" viewBox="0 0 56 64" fill="none" xmlns="http://www.w3.org/2000/svg">
<g opacity="0.4" clip-path="url(#clip0_66_178)">
<path d="M27.8092 0.00550398C28.3238 -0.0485626 28.984 0.290725 29.4431 0.521879L54.7251 15.1559C55.2562 15.4881 55.6676 15.9943 55.8827 16.582C56.1181 26.6126 55.9132 36.6846 55.9859 46.73C55.8803 48.0707 55.2711 48.4852 54.2371 49.1309C45.9549 54.297 37.1691 58.7281 28.8181 63.7845C27.957 64.2562 27.2914 63.8621 26.5225 63.4703C18.4516 58.4374 9.70799 54.1583 1.6785 49.1027C0.580364 48.4108 0.145492 48.0355 0.0563273 46.6532C-0.105577 44.1482 0.129849 41.5522 0.142363 39.0526C0.165828 34.1678 0.165045 29.2775 0.142363 24.3919C0.132195 22.1932 -0.0570837 19.9404 0.0571094 17.7323C0.103256 16.8437 0.150185 15.9544 0.926854 15.391C9.33804 10.6707 17.5122 5.46153 25.975 0.836093C26.4686 0.566543 27.2742 0.0627049 27.8092 0.00628756V0.00550398ZM17.3449 23.2596C17.1517 22.1548 17.2174 21.2161 18.1348 20.485L31.4813 12.7778C32.136 12.48 32.7234 12.6399 33.3554 12.9024L44.9366 19.5643C45.1822 19.6058 45.4872 19.3911 45.7125 19.2775C46.9209 18.6679 48.0495 17.7926 49.2853 17.2151L49.4136 17.0318L27.9633 4.62154L6.47383 16.9918L17.3449 23.2596ZM40.6536 22.0067L32.1853 17.2379L21.5677 23.3764L21.4887 25.7122L27.8835 29.435L28.0947 29.4522L40.5699 22.1979L40.652 22.0067H40.6536ZM4.36203 20.8306V42.9665C4.36203 42.9963 4.20717 43.0386 4.40036 43.1609C5.65492 42.3945 6.94937 41.6948 8.21801 40.9535C10.9164 39.3778 13.8127 37.7714 16.4305 36.0954C16.6902 35.9292 17.2369 35.6558 17.2713 35.3706L17.2283 28.1946L4.36047 20.8306H4.36203ZM51.6036 20.8306L47.3167 23.3137L47.301 37.6374C47.215 38.4923 46.4688 39.2861 45.635 39.4788L45.5795 39.6755L51.6036 43.1624V20.8306ZM43.0782 25.7671L30.1329 33.2102L30.1071 41.0734L32.2768 42.3428L43.0782 36.0711V25.7671ZM21.491 30.7036V36.0711L25.7201 38.573L25.9492 38.6169C25.8906 38.4994 25.8702 38.4022 25.8663 38.2698C25.8343 37.02 25.8577 35.7522 25.8663 34.5008C25.8687 34.1803 26.0212 33.4155 25.8335 33.2087L21.4902 30.7036H21.491ZM25.871 43.4759L19.028 39.5023L6.47383 46.9228L25.8319 58.1271C26.0259 58.0049 25.871 57.9634 25.871 57.9328V43.4759ZM49.4136 46.7676L41.1627 42.0921L33.0879 46.7473C31.9366 47.3122 31.0566 46.4895 30.0962 45.9825V58.1279L49.333 46.9588L49.4144 46.7676H49.4136Z" fill="black"/>
</g>
<defs>
<clipPath id="clip0_66_178">
<rect width="56" height="64" fill="white"/>
</clipPath>
</defs>
</svg>
