<svg width="32" height="32" viewBox="0 0 32 32" fill="none" xmlns="http://www.w3.org/2000/svg">
<path d="M26.1735 17.1993C25.5646 16.8506 24.8752 16.6668 24.1735 16.666C23.2216 16.6694 22.3021 17.0121 21.5802 17.6327L18.7535 15.9993L28.3002 10.486L26.9669 8.17935L25.8135 8.84601L24.4802 6.53268L22.1735 7.86602L23.5069 10.1793L22.3535 10.846L21.0202 8.53268L18.7069 9.86602L20.0402 12.1793L17.4202 13.6927V2.66602H14.7535V3.99935H12.0869V6.66602H14.7535V7.99935H12.0869V10.666H14.7535V13.6927L5.20686 8.17935L3.87353 10.486L5.03353 11.1527L3.7002 13.466L6.0002 14.7993L7.33353 12.486L8.48686 13.1527L7.15353 15.466L9.46686 16.7993L10.8002 14.486L13.4202 15.9993L10.6002 17.6327C9.88279 17.0196 8.97173 16.6799 8.02806 16.6736C7.08439 16.6673 6.16889 16.9949 5.4434 17.5984C4.71792 18.2019 4.22917 19.0425 4.06356 19.9716C3.89795 20.9006 4.06614 21.8583 4.53841 22.6753C5.01067 23.4923 5.75659 24.1161 6.6443 24.4362C7.53201 24.7564 8.50434 24.7524 9.38941 24.425C10.2745 24.0976 11.0153 23.4677 11.4808 22.6469C11.9464 21.826 12.1067 20.867 11.9335 19.9394L14.7535 18.306V21.566C13.8639 21.8805 13.1141 22.4994 12.6367 23.3133C12.1593 24.1272 11.9849 25.0837 12.1445 26.0137C12.304 26.9437 12.7872 27.7873 13.5086 28.3955C14.2301 29.0037 15.1433 29.3373 16.0869 29.3373C17.0304 29.3373 17.9437 29.0037 18.6651 28.3955C19.3865 27.7873 19.8697 26.9437 20.0293 26.0137C20.1888 25.0837 20.0145 24.1272 19.537 23.3133C19.0596 22.4994 18.3098 21.8805 17.4202 21.566V18.306L20.2402 19.9394C20.1074 20.6603 20.1754 21.4039 20.4365 22.0888C20.6977 22.7738 21.1421 23.3738 21.7211 23.8234C22.3002 24.2729 22.9917 24.5547 23.72 24.6379C24.4483 24.7211 25.1855 24.6026 25.8511 24.2952C26.5166 23.9879 27.0849 23.5036 27.4938 22.8952C27.9028 22.2867 28.1366 21.5777 28.1699 20.8453C28.2032 20.113 28.0346 19.3856 27.6825 18.7427C27.3305 18.0997 26.8084 17.5658 26.1735 17.1993ZM9.29353 21.0127C9.24722 21.1817 9.16804 21.34 9.06051 21.4784C8.95298 21.6168 8.81921 21.7327 8.66686 21.8193C8.46506 21.9387 8.23462 22.0009 8.0002 21.9993C7.76525 22.0003 7.53423 21.9391 7.33052 21.822C7.12682 21.705 6.95767 21.5362 6.8402 21.3327C6.75308 21.1808 6.69674 21.0132 6.67438 20.8396C6.65203 20.6659 6.6641 20.4895 6.70991 20.3205C6.75572 20.1515 6.83437 19.9932 6.94137 19.8546C7.04837 19.716 7.18163 19.5998 7.33353 19.5127C7.53533 19.3934 7.76577 19.3312 8.0002 19.3327C8.23514 19.3318 8.46616 19.3929 8.66987 19.51C8.87357 19.6271 9.04272 19.7959 9.1602 19.9993C9.24797 20.1512 9.30493 20.3188 9.32781 20.4927C9.35069 20.6666 9.33904 20.8433 9.29353 21.0127ZM16.0869 26.666C15.8232 26.666 15.5654 26.5878 15.3461 26.4413C15.1268 26.2948 14.9559 26.0866 14.855 25.8429C14.7541 25.5993 14.7277 25.3312 14.7791 25.0726C14.8306 24.8139 14.9576 24.5763 15.1441 24.3899C15.3305 24.2034 15.5681 24.0764 15.8267 24.025C16.0854 23.9735 16.3535 23.9999 16.5971 24.1008C16.8407 24.2018 17.049 24.3727 17.1955 24.5919C17.342 24.8112 17.4202 25.069 17.4202 25.3327C17.4202 25.6863 17.2797 26.0254 17.0297 26.2755C16.7796 26.5255 16.4405 26.666 16.0869 26.666ZM25.3335 21.3327C25.2161 21.5362 25.0469 21.705 24.8432 21.822C24.6395 21.9391 24.4085 22.0003 24.1735 21.9993C23.8816 21.9977 23.5982 21.9003 23.367 21.7221C23.1358 21.5438 22.9694 21.2946 22.8935 21.0127C22.848 20.8433 22.8364 20.6666 22.8592 20.4927C22.8821 20.3188 22.9391 20.1512 23.0269 19.9993C23.2039 19.6937 23.495 19.4708 23.8362 19.3796C24.1774 19.2883 24.5409 19.3362 24.8469 19.5127C25.1525 19.6897 25.3754 19.9808 25.4667 20.322C25.5579 20.6632 25.51 21.0267 25.3335 21.3327Z" fill="#9B9378"/>
</svg>
