<svg width="32" height="32" viewBox="0 0 32 32" fill="none" xmlns="http://www.w3.org/2000/svg">
<path d="M27.9374 14.4379C28.903 14.4379 29.3061 13.1973 28.5217 12.6254L16.5874 3.94414C16.4169 3.81927 16.2111 3.75195 15.9999 3.75195C15.7886 3.75195 15.5828 3.81927 15.4124 3.94414L3.47799 12.6254C2.69362 13.1941 3.09674 14.4379 4.06549 14.4379H5.99987V26.1254H3.74987C3.61237 26.1254 3.49987 26.2379 3.49987 26.3754V28.0004C3.49987 28.1379 3.61237 28.2504 3.74987 28.2504H28.2499C28.3874 28.2504 28.4999 28.1379 28.4999 28.0004V26.3754C28.4999 26.2379 28.3874 26.1254 28.2499 26.1254H25.9999V14.4379H27.9374ZM15.9999 6.14727L24.4717 12.3098H7.52799L15.9999 6.14727ZM8.24987 14.4379H11.9061V26.1254H8.24987V14.4379ZM14.1561 14.4379H17.8124V26.1254H14.1561V14.4379ZM23.7499 26.1254H20.0624V14.4379H23.7499V26.1254Z" fill="#9B9378"/>
</svg>
