<svg width="32" height="32" viewBox="0 0 32 32" fill="none" xmlns="http://www.w3.org/2000/svg">
<path d="M14.7347 2.42137C15.4626 2.17918 16.2448 2.15141 16.988 2.34137L17.2653 2.42137L25.2653 5.08804C26.0221 5.34051 26.686 5.81348 27.1719 6.44619C27.6578 7.0789 27.9434 7.84244 27.992 8.63871L28 8.88271V16C28 19.176 26.6093 21.8134 24.776 23.908L24.5227 24.1907L24.1453 24.5907C23.8925 24.85 23.6324 25.1021 23.3653 25.3467L22.9667 25.704L22.5613 26.048C21.3169 27.07 19.9811 27.9751 18.5707 28.752L17.9613 29.08L17.4147 29.36C16.9755 29.5791 16.4914 29.6931 16.0007 29.6931C15.5099 29.6931 15.0258 29.5791 14.5867 29.36L13.9973 29.0587C12.744 28.4 11.064 27.3974 9.43733 26.048L9.03333 25.704L8.63333 25.3467C8.36675 25.102 8.10709 24.8499 7.85467 24.5907L7.47733 24.1907L7.224 23.908C5.47733 21.912 4.13333 19.4267 4.00933 16.4507L4 16V8.88271C4.00029 8.08495 4.23912 7.3055 4.68579 6.64451C5.13247 5.98353 5.76659 5.4712 6.50667 5.17337L6.73467 5.08937L14.7347 2.42271V2.42137ZM16 20.6667C13.4933 20.6667 11.2787 21.9254 9.956 23.8454C11.892 25.632 14.088 26.8814 15.4733 27.5654C15.6366 27.6479 15.817 27.6909 16 27.6909C16.183 27.6909 16.3634 27.6479 16.5267 27.5654C17.9133 26.8814 20.108 25.632 22.044 23.8454C21.3705 22.8645 20.4681 22.0625 19.4151 21.5087C18.362 20.9548 17.1898 20.6658 16 20.6667ZM15.368 4.32004L7.368 6.98671C6.97013 7.11922 6.62398 7.37345 6.37849 7.71345C6.133 8.05345 6.0006 8.46201 6 8.88137V16C6 18.4534 7.02667 20.576 8.54667 22.38C9.41606 21.2256 10.542 20.2891 11.8356 19.6447C13.1291 19.0002 14.5548 18.6654 16 18.6667C17.4452 18.6654 18.8709 19.0002 20.1644 19.6447C21.458 20.2891 22.5839 21.2256 23.4533 22.38C24.9733 20.576 26 18.4534 26 16V8.88271C26 8.46289 25.8678 8.05373 25.6223 7.7132C25.3768 7.37267 25.0303 7.11803 24.632 6.98537L16.632 4.31871C16.2217 4.18206 15.7783 4.18206 15.368 4.31871V4.32004ZM16 9.33337C16.5253 9.33337 17.0454 9.43684 17.5307 9.63786C18.016 9.83887 18.457 10.1335 18.8284 10.5049C19.1999 10.8764 19.4945 11.3173 19.6955 11.8026C19.8965 12.2879 20 12.8081 20 13.3334C20 13.8587 19.8965 14.3788 19.6955 14.8641C19.4945 15.3494 19.1999 15.7904 18.8284 16.1618C18.457 16.5332 18.016 16.8279 17.5307 17.0289C17.0454 17.2299 16.5253 17.3334 16 17.3334C14.9391 17.3334 13.9217 16.9119 13.1716 16.1618C12.4214 15.4117 12 14.3942 12 13.3334C12 12.2725 12.4214 11.2551 13.1716 10.5049C13.9217 9.7548 14.9391 9.33337 16 9.33337ZM16 11.3334C15.4696 11.3334 14.9609 11.5441 14.5858 11.9192C14.2107 12.2942 14 12.8029 14 13.3334C14 13.8638 14.2107 14.3725 14.5858 14.7476C14.9609 15.1227 15.4696 15.3334 16 15.3334C16.5304 15.3334 17.0391 15.1227 17.4142 14.7476C17.7893 14.3725 18 13.8638 18 13.3334C18 12.8029 17.7893 12.2942 17.4142 11.9192C17.0391 11.5441 16.5304 11.3334 16 11.3334Z" fill="#9B9378"/>
</svg>
