<svg width="1064" height="880" viewBox="0 0 1064 880" fill="none" xmlns="http://www.w3.org/2000/svg">
<g clip-path="url(#clip0_895_3700)">
<g filter="url(#filter0_f_895_3700)">
<circle cx="544" cy="-124" r="517" fill="#E6E2D5" fill-opacity="0.5"/>
</g>
<path d="M219.6 338V664.4" stroke="url(#paint0_linear_895_3700)" stroke-width="1.2" stroke-linecap="round" stroke-linejoin="round"/>
<path d="M812.4 357.199L195.6 357.199" stroke="url(#paint1_linear_895_3700)" stroke-width="1.2" stroke-linecap="round" stroke-linejoin="round"/>
<path d="M255.6 338V664.4" stroke="url(#paint2_linear_895_3700)" stroke-width="1.2" stroke-linecap="round" stroke-linejoin="round"/>
<path d="M812.4 393.199L195.6 393.199" stroke="url(#paint3_linear_895_3700)" stroke-width="1.2" stroke-linecap="round" stroke-linejoin="round"/>
<path d="M291.6 338V664.4" stroke="url(#paint4_linear_895_3700)" stroke-width="1.2" stroke-linecap="round" stroke-linejoin="round"/>
<path d="M812.4 429.199L195.6 429.199" stroke="url(#paint5_linear_895_3700)" stroke-width="1.2" stroke-linecap="round" stroke-linejoin="round"/>
<path d="M327.6 338V664.4" stroke="url(#paint6_linear_895_3700)" stroke-width="1.2" stroke-linecap="round" stroke-linejoin="round"/>
<path d="M812.4 465.199L195.6 465.199" stroke="url(#paint7_linear_895_3700)" stroke-width="1.2" stroke-linecap="round" stroke-linejoin="round"/>
<path d="M363.6 338V664.4" stroke="url(#paint8_linear_895_3700)" stroke-width="1.2" stroke-linecap="round" stroke-linejoin="round"/>
<path d="M812.4 501.199L195.6 501.199" stroke="url(#paint9_linear_895_3700)" stroke-width="1.2" stroke-linecap="round" stroke-linejoin="round"/>
<path d="M399.6 338V664.4" stroke="url(#paint10_linear_895_3700)" stroke-width="1.2" stroke-linecap="round" stroke-linejoin="round"/>
<path d="M812.4 537.199L195.6 537.199" stroke="url(#paint11_linear_895_3700)" stroke-width="1.2" stroke-linecap="round" stroke-linejoin="round"/>
<path d="M435.6 338V664.4" stroke="url(#paint12_linear_895_3700)" stroke-width="1.2" stroke-linecap="round" stroke-linejoin="round"/>
<path d="M812.4 573.199L195.6 573.199" stroke="url(#paint13_linear_895_3700)" stroke-width="1.2" stroke-linecap="round" stroke-linejoin="round"/>
<path d="M471.6 338V664.4" stroke="url(#paint14_linear_895_3700)" stroke-width="1.2" stroke-linecap="round" stroke-linejoin="round"/>
<path d="M812.4 609.199L195.6 609.199" stroke="url(#paint15_linear_895_3700)" stroke-width="1.2" stroke-linecap="round" stroke-linejoin="round"/>
<path d="M507.6 338V664.4" stroke="url(#paint16_linear_895_3700)" stroke-width="1.2" stroke-linecap="round" stroke-linejoin="round"/>
<path d="M812.4 645.199L195.6 645.199" stroke="url(#paint17_linear_895_3700)" stroke-width="1.2" stroke-linecap="round" stroke-linejoin="round"/>
<path d="M543.6 338V664.4" stroke="url(#paint18_linear_895_3700)" stroke-width="1.2" stroke-linecap="round" stroke-linejoin="round"/>
<path d="M579.6 338V664.4" stroke="url(#paint19_linear_895_3700)" stroke-width="1.2" stroke-linecap="round" stroke-linejoin="round"/>
<path d="M615.6 338V664.4" stroke="url(#paint20_linear_895_3700)" stroke-width="1.2" stroke-linecap="round" stroke-linejoin="round"/>
<path d="M651.6 338V664.4" stroke="url(#paint21_linear_895_3700)" stroke-width="1.2" stroke-linecap="round" stroke-linejoin="round"/>
<path d="M687.6 338V664.4" stroke="url(#paint22_linear_895_3700)" stroke-width="1.2" stroke-linecap="round" stroke-linejoin="round"/>
<path d="M723.6 338V664.4" stroke="url(#paint23_linear_895_3700)" stroke-width="1.2" stroke-linecap="round" stroke-linejoin="round"/>
<path d="M759.6 338V664.4" stroke="url(#paint24_linear_895_3700)" stroke-width="1.2" stroke-linecap="round" stroke-linejoin="round"/>
<path d="M795.6 338V664.4" stroke="url(#paint25_linear_895_3700)" stroke-width="1.2" stroke-linecap="round" stroke-linejoin="round"/>
<path d="M444.6 372.797C447.6 399.197 462.6 425.597 496.8 439.997" stroke="#B5B09B" stroke-width="1.2" stroke-linejoin="round" stroke-dasharray="2.4 4.8"/>
<path d="M370.2 423.797C382.8 436.797 424.44 463.277 490.2 465.197" stroke="#B5B09B" stroke-width="1.2" stroke-linecap="round" stroke-linejoin="round" stroke-dasharray="2.4 4.8"/>
<path d="M426 501.802C435.6 502.002 462 501.442 490.8 497.602" stroke="#B5B09B" stroke-width="1.2" stroke-linecap="round" stroke-linejoin="round" stroke-dasharray="2.4 4.8"/>
<path d="M355.8 578.602C375 565.802 429.84 535.282 495.6 515.602" stroke="#B5B09B" stroke-width="1.2" stroke-linecap="round" stroke-linejoin="round" stroke-dasharray="2.4 4.8"/>
<path d="M432 630.799C439.4 610.999 465.96 563.359 513 531.199" stroke="#B5B09B" stroke-width="1.2" stroke-linecap="round" stroke-linejoin="round" stroke-dasharray="2.4 4.8"/>
<g filter="url(#filter1_di_895_3700)">
<path d="M478.8 482.002C478.8 444.225 509.424 413.602 547.2 413.602C584.976 413.602 615.6 444.225 615.6 482.002C615.6 519.778 584.976 550.402 547.2 550.402C509.424 550.402 478.8 519.778 478.8 482.002Z" fill="#22201C"/>
<g clip-path="url(#clip1_895_3700)">
<path d="M578.671 457.487C578.671 456.073 577.518 454.92 576.104 454.883L573.24 454.846C573.054 454.846 567.139 454.66 561.113 452.205C554.751 449.601 550.622 446.662 550.473 446.587L548.762 445.323C547.832 444.653 546.605 444.653 545.712 445.323L544.001 446.55C543.963 446.587 539.76 449.601 533.361 452.205C527.335 454.66 521.383 454.846 521.234 454.846H518.295C516.882 454.883 515.729 456.036 515.729 457.45V486.54C515.729 493.831 519.895 501.978 527.186 508.935C533.808 515.259 541.471 519.202 547.2 519.202C552.929 519.202 560.592 515.259 567.213 508.935C574.505 501.978 578.671 493.831 578.671 486.54V457.487ZM563.605 505.177C558.099 510.423 551.478 513.994 547.2 513.994C542.922 513.994 536.3 510.46 530.795 505.177C524.545 499.225 520.974 492.418 520.974 486.577V460.054H521.271C521.867 460.054 528.488 459.793 535.296 457.041C542.252 454.176 546.828 450.903 547.014 450.754L547.2 450.605L547.386 450.754C547.944 451.163 552.371 454.251 559.141 457.003C565.949 459.756 572.57 460.017 573.165 460.017H573.463V486.54C573.463 492.418 569.855 499.188 563.605 505.177Z" fill="#F1EFE8"/>
<path d="M558.621 470.398L543.741 485.278L537.454 479.029C536.152 477.727 534.069 477.727 532.767 479.029C531.465 480.331 531.465 482.414 532.767 483.716L541.36 492.309C541.992 492.942 542.811 493.276 543.703 493.276C544.596 493.276 545.415 492.942 546.047 492.309L563.271 475.086C564.573 473.784 564.573 471.7 563.271 470.398C562.006 469.096 559.923 469.096 558.621 470.398Z" fill="#F1EFE8"/>
</g>
</g>
<path d="M517.408 586.001V568.547H528.59V571.197H520.57V575.936H527.823V578.587H520.57V586.001H517.408ZM535.364 586.257C534.085 586.257 532.977 585.976 532.04 585.413C531.102 584.851 530.375 584.064 529.858 583.053C529.347 582.041 529.091 580.859 529.091 579.507C529.091 578.155 529.347 576.97 529.858 575.953C530.375 574.936 531.102 574.146 532.04 573.584C532.977 573.021 534.085 572.74 535.364 572.74C536.642 572.74 537.75 573.021 538.688 573.584C539.625 574.146 540.349 574.936 540.861 575.953C541.378 576.97 541.636 578.155 541.636 579.507C541.636 580.859 541.378 582.041 540.861 583.053C540.349 584.064 539.625 584.851 538.688 585.413C537.75 585.976 536.642 586.257 535.364 586.257ZM535.381 583.786C536.074 583.786 536.653 583.595 537.119 583.215C537.585 582.828 537.932 582.311 538.159 581.663C538.392 581.016 538.509 580.294 538.509 579.499C538.509 578.697 538.392 577.973 538.159 577.325C537.932 576.672 537.585 576.152 537.119 575.766C536.653 575.379 536.074 575.186 535.381 575.186C534.671 575.186 534.08 575.379 533.608 575.766C533.142 576.152 532.793 576.672 532.56 577.325C532.332 577.973 532.219 578.697 532.219 579.499C532.219 580.294 532.332 581.016 532.56 581.663C532.793 582.311 533.142 582.828 533.608 583.215C534.08 583.595 534.671 583.786 535.381 583.786ZM543.535 586.001V572.911H546.527V575.092H546.663C546.902 574.337 547.311 573.754 547.89 573.345C548.475 572.93 549.143 572.723 549.893 572.723C550.063 572.723 550.254 572.732 550.464 572.749C550.68 572.76 550.859 572.78 551.001 572.808V575.646C550.87 575.601 550.663 575.561 550.379 575.527C550.1 575.487 549.83 575.467 549.569 575.467C549.007 575.467 548.501 575.59 548.052 575.834C547.609 576.072 547.259 576.405 547.004 576.831C546.748 577.257 546.62 577.749 546.62 578.305V586.001H543.535ZM557.485 591.183C556.377 591.183 555.425 591.033 554.63 590.732C553.834 590.436 553.195 590.038 552.712 589.538C552.229 589.038 551.894 588.484 551.706 587.876L554.485 587.203C554.61 587.459 554.792 587.712 555.03 587.962C555.269 588.217 555.59 588.428 555.993 588.592C556.402 588.763 556.917 588.848 557.536 588.848C558.411 588.848 559.135 588.635 559.709 588.209C560.283 587.788 560.57 587.095 560.57 586.129V583.649H560.417C560.258 583.967 560.025 584.294 559.718 584.629C559.417 584.965 559.016 585.246 558.516 585.473C558.022 585.7 557.4 585.814 556.65 585.814C555.644 585.814 554.732 585.578 553.914 585.107C553.101 584.629 552.454 583.919 551.971 582.976C551.493 582.027 551.255 580.84 551.255 579.413C551.255 577.976 551.493 576.763 551.971 575.774C552.454 574.78 553.104 574.027 553.922 573.516C554.74 572.999 555.652 572.74 556.658 572.74C557.425 572.74 558.056 572.871 558.55 573.132C559.05 573.388 559.448 573.697 559.743 574.061C560.039 574.419 560.263 574.757 560.417 575.075H560.587V572.911H563.63V586.215C563.63 587.334 563.363 588.26 562.829 588.993C562.294 589.726 561.564 590.274 560.638 590.638C559.712 591.001 558.661 591.183 557.485 591.183ZM557.51 583.394C558.164 583.394 558.721 583.234 559.181 582.916C559.641 582.598 559.99 582.141 560.229 581.544C560.468 580.947 560.587 580.232 560.587 579.396C560.587 578.572 560.468 577.851 560.229 577.232C559.996 576.612 559.65 576.132 559.189 575.791C558.735 575.445 558.175 575.271 557.51 575.271C556.823 575.271 556.249 575.45 555.789 575.808C555.329 576.166 554.982 576.658 554.749 577.283C554.516 577.902 554.4 578.607 554.4 579.396C554.4 580.197 554.516 580.899 554.749 581.501C554.988 582.098 555.337 582.564 555.797 582.899C556.263 583.229 556.834 583.394 557.51 583.394ZM571.867 586.257C570.555 586.257 569.421 585.984 568.466 585.439C567.518 584.888 566.788 584.109 566.276 583.104C565.765 582.092 565.509 580.902 565.509 579.533C565.509 578.186 565.765 577.004 566.276 575.987C566.793 574.965 567.515 574.169 568.441 573.601C569.367 573.027 570.455 572.74 571.705 572.74C572.512 572.74 573.273 572.871 573.989 573.132C574.711 573.388 575.347 573.786 575.898 574.325C576.455 574.865 576.893 575.553 577.211 576.388C577.529 577.217 577.688 578.206 577.688 579.354V580.3H566.958V578.22H574.731C574.725 577.629 574.597 577.104 574.347 576.644C574.097 576.178 573.748 575.811 573.299 575.544C572.856 575.277 572.339 575.144 571.748 575.144C571.117 575.144 570.563 575.297 570.086 575.604C569.609 575.905 569.236 576.303 568.969 576.797C568.708 577.286 568.574 577.822 568.569 578.408V580.223C568.569 580.984 568.708 581.638 568.986 582.183C569.265 582.723 569.654 583.138 570.154 583.428C570.654 583.712 571.239 583.854 571.91 583.854C572.359 583.854 572.765 583.791 573.128 583.666C573.492 583.536 573.807 583.345 574.074 583.095C574.341 582.845 574.543 582.536 574.68 582.166L577.56 582.49C577.378 583.251 577.032 583.916 576.52 584.484C576.015 585.047 575.367 585.484 574.577 585.797C573.788 586.104 572.884 586.257 571.867 586.257Z" fill="#0C0A09"/>
<g filter="url(#filter2_d_895_3700)">
<path d="M714 481.998C714 460.128 731.73 442.398 753.6 442.398C775.47 442.398 793.2 460.128 793.2 481.998C793.2 503.869 775.47 521.598 753.6 521.598C731.73 521.598 714 503.869 714 481.998Z" fill="white"/>
<path d="M748.045 480.561H739.495C737.138 480.561 735.22 478.643 735.22 476.286V467.736C735.22 465.379 737.138 463.461 739.495 463.461H748.045C750.402 463.461 752.32 465.379 752.32 467.736V476.286C752.32 478.644 750.402 480.561 748.045 480.561ZM739.495 466.311C738.71 466.311 738.07 466.951 738.07 467.736V476.286C738.07 477.071 738.71 477.711 739.495 477.711H748.045C748.83 477.711 749.47 477.071 749.47 476.286V467.736C749.47 466.951 748.83 466.311 748.045 466.311H739.495Z" fill="#9B9378"/>
<path d="M748.045 500.51H739.495C737.138 500.51 735.22 498.592 735.22 496.235V487.685C735.22 485.328 737.138 483.41 739.495 483.41H748.045C750.402 483.41 752.32 485.328 752.32 487.685V496.235C752.32 498.594 750.402 500.51 748.045 500.51ZM739.495 486.26C738.71 486.26 738.07 486.899 738.07 487.685V496.235C738.07 497.022 738.71 497.66 739.495 497.66H748.045C748.83 497.66 749.47 497.022 749.47 496.235V487.685C749.47 486.899 748.83 486.26 748.045 486.26H739.495Z" fill="#9B9378"/>
<path d="M767.855 480.561H759.305C756.948 480.561 755.03 478.643 755.03 476.286V467.736C755.03 465.379 756.948 463.461 759.305 463.461H767.855C770.212 463.461 772.13 465.379 772.13 467.736V476.286C772.13 478.644 770.212 480.561 767.855 480.561ZM759.305 466.311C758.519 466.311 757.88 466.951 757.88 467.736V476.286C757.88 477.071 758.519 477.711 759.305 477.711H767.855C768.642 477.711 769.28 477.071 769.28 476.286V467.736C769.28 466.951 768.642 466.311 767.855 466.311H759.305Z" fill="#9B9378"/>
<path d="M767.855 500.51H759.305C756.948 500.51 755.03 498.592 755.03 496.235V487.685C755.03 485.328 756.948 483.41 759.305 483.41H767.855C770.212 483.41 772.13 485.328 772.13 487.685V496.235C772.13 498.594 770.212 500.51 767.855 500.51ZM759.305 486.26C758.519 486.26 757.88 486.899 757.88 487.685V496.235C757.88 497.022 758.519 497.66 759.305 497.66H767.855C768.642 497.66 769.28 497.022 769.28 496.235V487.685C769.28 486.899 768.642 486.26 767.855 486.26H759.305Z" fill="#9B9378"/>
</g>
<rect x="216" y="558.797" width="93.2" height="38.4" rx="19.2" fill="white"/>
<path d="M225.3 574.776L235.047 589H239.38L229.632 574.776H225.3ZM229.629 582.676L225.295 589H229.631L231.796 585.839L229.629 582.676ZM240.371 567L232.88 577.931L235.047 581.094L244.707 567H240.371ZM241.156 573.764V589H244.707V568.582L241.156 573.764Z" fill="black"/>
<path d="M267.063 574.833L269.085 578.401L271.125 574.833H273.076L270.219 579.415L273.1 583.997H271.149L269.085 580.573L267.027 583.997H265.07L267.922 579.415L265.106 574.833H267.063ZM276.083 583.997H274.126L278.523 571.779H280.653L285.05 583.997H283.093L279.639 573.998H279.543L276.083 583.997ZM276.411 579.212H282.759V580.764H276.411V579.212ZM288.658 571.779V583.997H286.814V571.779H288.658Z" fill="#0C0A09"/>
<rect x="385.2" y="339.199" width="127.2" height="38.4" rx="19.2" fill="white"/>
<path fill-rule="evenodd" clip-rule="evenodd" d="M413.95 356.403C414.2 355.662 414.286 354.877 414.204 354.1C414.121 353.323 413.872 352.573 413.472 351.902C412.255 349.812 409.81 348.736 407.422 349.242C406.893 348.656 406.246 348.189 405.524 347.871C404.802 347.554 404.02 347.393 403.231 347.399C400.79 347.394 398.624 348.945 397.873 351.237C397.101 351.391 396.371 351.708 395.731 352.166C395.091 352.625 394.555 353.214 394.16 353.895C393.563 354.909 393.308 356.088 393.432 357.259C393.557 358.429 394.054 359.529 394.851 360.395C394.601 361.135 394.514 361.921 394.597 362.698C394.679 363.475 394.929 364.225 395.328 364.897C396.545 366.987 398.99 368.062 401.378 367.557C401.907 368.142 402.554 368.609 403.276 368.926C403.998 369.244 404.779 369.405 405.568 369.399C408.011 369.405 410.178 367.853 410.929 365.559C411.702 365.404 412.432 365.087 413.073 364.628C413.713 364.17 414.249 363.58 414.644 362.899C415.24 361.884 415.495 360.705 415.37 359.536C415.245 358.366 414.748 357.267 413.951 356.402L413.95 356.403ZM405.569 367.961C404.594 367.963 403.648 367.626 402.894 367.007C402.928 366.989 402.987 366.957 403.026 366.933L407.466 364.403C407.577 364.341 407.669 364.25 407.733 364.141C407.797 364.031 407.831 363.906 407.83 363.78V357.604L409.707 358.673C409.727 358.683 409.74 358.702 409.743 358.723V363.838C409.74 366.112 407.873 367.956 405.569 367.961ZM396.592 364.179C396.103 363.346 395.926 362.367 396.094 361.416C396.126 361.436 396.184 361.471 396.225 361.494L400.665 364.024C400.89 364.154 401.169 364.154 401.395 364.024L406.815 360.936V363.074C406.816 363.085 406.813 363.095 406.809 363.105C406.804 363.115 406.797 363.124 406.788 363.131L402.3 365.687C400.301 366.823 397.748 366.147 396.593 364.177L396.592 364.179ZM395.423 354.615C395.914 353.777 396.684 353.137 397.598 352.809L397.596 352.96V358.02C397.596 358.147 397.629 358.272 397.693 358.381C397.757 358.491 397.849 358.582 397.96 358.644L403.38 361.731L401.504 362.801C401.495 362.807 401.484 362.81 401.473 362.811C401.462 362.812 401.451 362.81 401.441 362.806L396.952 360.247C394.957 359.107 394.273 356.589 395.422 354.617L395.423 354.615ZM410.84 358.155L405.42 355.067L407.296 353.999C407.305 353.992 407.316 353.989 407.327 353.988C407.338 353.987 407.349 353.988 407.359 353.993L411.848 356.55C413.846 357.69 414.531 360.212 413.377 362.183C412.885 363.02 412.116 363.659 411.203 363.99V358.779C411.204 358.652 411.17 358.527 411.107 358.418C411.043 358.308 410.951 358.218 410.84 358.156V358.155ZM412.707 355.382C412.663 355.355 412.619 355.329 412.575 355.304L408.135 352.774C408.024 352.71 407.899 352.676 407.771 352.676C407.643 352.676 407.517 352.71 407.406 352.774L401.986 355.862V353.724C401.986 353.713 401.988 353.702 401.993 353.692C401.997 353.682 402.004 353.673 402.013 353.667L406.5 351.112C408.5 349.975 411.055 350.652 412.207 352.625C412.694 353.458 412.872 354.434 412.707 355.382ZM400.966 359.192L399.089 358.124C399.079 358.119 399.071 358.112 399.065 358.103C399.058 358.094 399.054 358.083 399.053 358.073V352.958C399.054 350.681 400.926 348.836 403.234 348.838C404.21 348.838 405.154 349.176 405.905 349.792C405.871 349.81 405.813 349.842 405.774 349.865L401.334 352.395C401.223 352.456 401.131 352.547 401.067 352.656C401.002 352.766 400.969 352.891 400.969 353.018L400.966 359.191V359.192ZM401.986 357.024L404.4 355.649L406.814 357.024V359.774L404.4 361.149L401.985 359.774V357.024H401.986Z" fill="black"/>
<path d="M445.683 358.29C445.683 359.595 445.445 360.716 444.967 361.655C444.49 362.59 443.836 363.31 443.005 363.815C442.177 364.316 441.237 364.566 440.183 364.566C439.125 364.566 438.18 364.316 437.349 363.815C436.522 363.31 435.869 362.588 435.392 361.649C434.915 360.71 434.676 359.591 434.676 358.29C434.676 356.986 434.915 355.866 435.392 354.932C435.869 353.993 436.522 353.273 437.349 352.772C438.18 352.267 439.125 352.014 440.183 352.014C441.237 352.014 442.177 352.267 443.005 352.772C443.836 353.273 444.49 353.993 444.967 354.932C445.445 355.866 445.683 356.986 445.683 358.29ZM443.858 358.29C443.858 357.296 443.697 356.459 443.374 355.779C443.056 355.095 442.619 354.578 442.062 354.228C441.509 353.874 440.883 353.697 440.183 353.697C439.479 353.697 438.85 353.874 438.297 354.228C437.745 354.578 437.307 355.095 436.985 355.779C436.667 356.459 436.508 357.296 436.508 358.29C436.508 359.285 436.667 360.124 436.985 360.808C437.307 361.488 437.745 362.005 438.297 362.359C438.85 362.709 439.479 362.884 440.183 362.884C440.883 362.884 441.509 362.709 442.062 362.359C442.619 362.005 443.056 361.488 443.374 360.808C443.697 360.124 443.858 359.285 443.858 358.29ZM447.838 367.836V355.236H449.58V356.721H449.73C449.833 356.53 449.982 356.31 450.177 356.059C450.372 355.809 450.642 355.59 450.988 355.403C451.334 355.212 451.792 355.116 452.361 355.116C453.1 355.116 453.761 355.303 454.341 355.677C454.922 356.051 455.377 356.59 455.707 357.294C456.042 357.998 456.209 358.845 456.209 359.835C456.209 360.826 456.044 361.675 455.713 362.383C455.383 363.087 454.93 363.63 454.353 364.012C453.776 364.389 453.118 364.578 452.378 364.578C451.822 364.578 451.366 364.485 451.012 364.298C450.662 364.111 450.388 363.892 450.189 363.642C449.99 363.391 449.837 363.168 449.73 362.974H449.622V367.836H447.838ZM449.586 359.818C449.586 360.462 449.68 361.027 449.867 361.512C450.054 361.997 450.324 362.377 450.678 362.651C451.032 362.922 451.466 363.057 451.979 363.057C452.512 363.057 452.957 362.916 453.315 362.634C453.673 362.347 453.944 361.959 454.126 361.47C454.313 360.981 454.407 360.43 454.407 359.818C454.407 359.213 454.315 358.67 454.132 358.189C453.953 357.708 453.683 357.328 453.321 357.049C452.963 356.771 452.516 356.632 451.979 356.632C451.462 356.632 451.024 356.765 450.666 357.032C450.312 357.298 450.044 357.67 449.861 358.147C449.678 358.624 449.586 359.181 449.586 359.818ZM462.157 364.584C461.254 364.584 460.476 364.391 459.824 364.006C459.176 363.616 458.674 363.069 458.321 362.365C457.971 361.657 457.796 360.828 457.796 359.877C457.796 358.939 457.971 358.111 458.321 357.395C458.674 356.68 459.168 356.121 459.8 355.719C460.436 355.317 461.18 355.116 462.031 355.116C462.548 355.116 463.049 355.202 463.535 355.373C464.02 355.544 464.455 355.812 464.841 356.178C465.227 356.544 465.531 357.02 465.754 357.604C465.977 358.185 466.088 358.891 466.088 359.722V360.355H458.804V359.018H464.34C464.34 358.549 464.245 358.133 464.054 357.771C463.863 357.405 463.594 357.117 463.248 356.906C462.906 356.695 462.505 356.59 462.043 356.59C461.542 356.59 461.105 356.713 460.731 356.96C460.361 357.203 460.074 357.521 459.872 357.914C459.673 358.304 459.573 358.728 459.573 359.185V360.229C459.573 360.842 459.681 361.363 459.896 361.792C460.114 362.222 460.419 362.55 460.808 362.777C461.198 362.999 461.653 363.111 462.174 363.111C462.513 363.111 462.821 363.063 463.099 362.968C463.378 362.868 463.618 362.721 463.821 362.526C464.024 362.331 464.179 362.091 464.286 361.804L465.975 362.109C465.84 362.606 465.597 363.041 465.247 363.415C464.901 363.785 464.465 364.073 463.94 364.28C463.419 364.483 462.825 364.584 462.157 364.584ZM469.851 358.959V364.399H468.067V355.236H469.78V356.727H469.893C470.104 356.242 470.434 355.852 470.883 355.558C471.337 355.264 471.907 355.116 472.595 355.116C473.22 355.116 473.767 355.248 474.236 355.51C474.705 355.769 475.069 356.155 475.328 356.668C475.586 357.181 475.716 357.815 475.716 358.571V364.399H473.932V358.785C473.932 358.121 473.759 357.602 473.413 357.228C473.067 356.851 472.591 356.662 471.987 356.662C471.573 356.662 471.205 356.751 470.883 356.93C470.565 357.109 470.312 357.372 470.126 357.718C469.943 358.06 469.851 358.473 469.851 358.959ZM479.283 364.399H477.326L481.723 352.181H483.853L488.25 364.399H486.293L482.839 354.401H482.743L479.283 364.399ZM479.611 359.615H485.959V361.166H479.611V359.615ZM491.858 352.181V364.399H490.014V352.181H491.858Z" fill="#0C0A09"/>
<rect x="351.6" y="624.797" width="146.2" height="38.4" rx="19.2" fill="white"/>
<g clip-path="url(#clip2_895_3700)">
<path fill-rule="evenodd" clip-rule="evenodd" d="M372.627 635.52H376.23L382.8 652H379.197L372.627 635.52ZM365.369 635.52H369.136L375.706 652H372.032L370.689 648.539H363.817L362.473 651.999H358.8L365.37 635.522L365.369 635.52ZM369.501 645.479L367.253 639.687L365.005 645.48H369.5L369.501 645.479Z" fill="black"/>
</g>
<path d="M402.29 649.997H400.333L404.73 637.779H406.86L411.257 649.997H409.3L405.846 639.998H405.75L402.29 649.997ZM402.618 645.212H408.966V646.764H402.618V645.212ZM414.662 644.556V649.997H412.878V640.833H414.59V642.325H414.704C414.915 641.84 415.245 641.45 415.694 641.156C416.147 640.861 416.718 640.714 417.406 640.714C418.031 640.714 418.578 640.845 419.047 641.108C419.516 641.366 419.88 641.752 420.139 642.265C420.397 642.778 420.526 643.413 420.526 644.168V649.997H418.743V644.383C418.743 643.719 418.57 643.2 418.224 642.826C417.878 642.448 417.402 642.259 416.798 642.259C416.384 642.259 416.016 642.349 415.694 642.528C415.376 642.707 415.123 642.969 414.936 643.315C414.753 643.657 414.662 644.071 414.662 644.556ZM427.196 640.833V642.265H422.191V640.833H427.196ZM423.533 638.638H425.317V647.306C425.317 647.652 425.369 647.913 425.472 648.088C425.576 648.259 425.709 648.376 425.872 648.44C426.039 648.5 426.22 648.529 426.415 648.529C426.558 648.529 426.683 648.52 426.791 648.5C426.898 648.48 426.982 648.464 427.041 648.452L427.363 649.925C427.26 649.965 427.113 650.005 426.922 650.045C426.731 650.089 426.492 650.112 426.206 650.116C425.737 650.124 425.299 650.041 424.893 649.866C424.488 649.691 424.16 649.42 423.909 649.054C423.659 648.689 423.533 648.229 423.533 647.676V638.638ZM431.15 644.556V649.997H429.366V637.779H431.126V642.325H431.24C431.454 641.832 431.783 641.44 432.224 641.15C432.666 640.859 433.242 640.714 433.954 640.714C434.583 640.714 435.131 640.843 435.601 641.102C436.074 641.36 436.44 641.746 436.699 642.259C436.961 642.768 437.092 643.405 437.092 644.168V649.997H435.308V644.383C435.308 643.711 435.135 643.19 434.789 642.82C434.443 642.446 433.962 642.259 433.346 642.259C432.924 642.259 432.546 642.349 432.212 642.528C431.882 642.707 431.622 642.969 431.431 643.315C431.244 643.657 431.15 644.071 431.15 644.556ZM439.473 649.997V640.833H441.197V642.289H441.292C441.459 641.796 441.754 641.408 442.175 641.126C442.601 640.839 443.082 640.696 443.619 640.696C443.73 640.696 443.862 640.7 444.013 640.708C444.168 640.716 444.289 640.726 444.377 640.738V642.444C444.305 642.424 444.178 642.402 443.995 642.379C443.812 642.351 443.629 642.337 443.446 642.337C443.024 642.337 442.649 642.426 442.318 642.605C441.992 642.78 441.734 643.025 441.543 643.339C441.352 643.649 441.256 644.003 441.256 644.401V649.997H439.473ZM449.452 650.182C448.593 650.182 447.843 649.985 447.203 649.591C446.563 649.198 446.066 648.647 445.712 647.939C445.358 647.231 445.181 646.404 445.181 645.457C445.181 644.506 445.358 643.675 445.712 642.963C446.066 642.251 446.563 641.698 447.203 641.305C447.843 640.911 448.593 640.714 449.452 640.714C450.311 640.714 451.061 640.911 451.701 641.305C452.342 641.698 452.839 642.251 453.193 642.963C453.547 643.675 453.724 644.506 453.724 645.457C453.724 646.404 453.547 647.231 453.193 647.939C452.839 648.647 452.342 649.198 451.701 649.591C451.061 649.985 450.311 650.182 449.452 650.182ZM449.458 648.685C450.015 648.685 450.476 648.537 450.842 648.243C451.208 647.949 451.479 647.557 451.654 647.068C451.833 646.579 451.922 646.04 451.922 645.451C451.922 644.866 451.833 644.329 451.654 643.84C451.479 643.347 451.208 642.951 450.842 642.653C450.476 642.355 450.015 642.206 449.458 642.206C448.897 642.206 448.432 642.355 448.062 642.653C447.696 642.951 447.424 643.347 447.245 643.84C447.07 644.329 446.982 644.866 446.982 645.451C446.982 646.04 447.07 646.579 447.245 647.068C447.424 647.557 447.696 647.949 448.062 648.243C448.432 648.537 448.897 648.685 449.458 648.685ZM455.715 653.433V640.833H457.457V642.319H457.606C457.709 642.128 457.859 641.907 458.054 641.657C458.248 641.406 458.519 641.187 458.865 641C459.211 640.81 459.668 640.714 460.237 640.714C460.977 640.714 461.637 640.901 462.218 641.275C462.798 641.649 463.254 642.188 463.584 642.892C463.918 643.596 464.085 644.443 464.085 645.433C464.085 646.423 463.92 647.273 463.59 647.981C463.26 648.685 462.806 649.227 462.23 649.609C461.653 649.987 460.995 650.176 460.255 650.176C459.698 650.176 459.243 650.083 458.889 649.896C458.539 649.709 458.264 649.49 458.065 649.239C457.867 648.989 457.713 648.766 457.606 648.571H457.499V653.433H455.715ZM457.463 645.415C457.463 646.06 457.556 646.624 457.743 647.11C457.93 647.595 458.201 647.975 458.555 648.249C458.909 648.52 459.342 648.655 459.855 648.655C460.388 648.655 460.834 648.514 461.192 648.231C461.55 647.945 461.82 647.557 462.003 647.068C462.19 646.579 462.283 646.028 462.283 645.415C462.283 644.811 462.192 644.268 462.009 643.787C461.83 643.305 461.559 642.925 461.198 642.647C460.84 642.369 460.392 642.229 459.855 642.229C459.338 642.229 458.901 642.363 458.543 642.629C458.189 642.896 457.92 643.268 457.737 643.745C457.554 644.222 457.463 644.779 457.463 645.415ZM466.084 649.997V640.833H467.867V649.997H466.084ZM466.984 639.42C466.674 639.42 466.408 639.316 466.185 639.109C465.966 638.898 465.857 638.648 465.857 638.358C465.857 638.063 465.966 637.813 466.185 637.606C466.408 637.395 466.674 637.29 466.984 637.29C467.295 637.29 467.559 637.395 467.778 637.606C468.001 637.813 468.112 638.063 468.112 638.358C468.112 638.648 468.001 638.898 467.778 639.109C467.559 639.316 467.295 639.42 466.984 639.42ZM474.127 650.182C473.24 650.182 472.477 649.981 471.836 649.579C471.2 649.174 470.711 648.615 470.369 647.903C470.027 647.191 469.856 646.376 469.856 645.457C469.856 644.526 470.031 643.705 470.381 642.993C470.731 642.277 471.224 641.718 471.86 641.317C472.496 640.915 473.246 640.714 474.109 640.714C474.805 640.714 475.426 640.843 475.971 641.102C476.516 641.356 476.955 641.714 477.289 642.176C477.627 642.637 477.828 643.176 477.892 643.793H476.156C476.06 643.363 475.841 642.993 475.499 642.683C475.161 642.373 474.708 642.218 474.139 642.218C473.642 642.218 473.206 642.349 472.833 642.611C472.463 642.87 472.174 643.24 471.968 643.721C471.761 644.198 471.657 644.763 471.657 645.415C471.657 646.083 471.759 646.66 471.962 647.145C472.164 647.631 472.451 648.006 472.821 648.273C473.194 648.539 473.634 648.673 474.139 648.673C474.477 648.673 474.783 648.611 475.058 648.488C475.336 648.36 475.569 648.179 475.756 647.945C475.947 647.71 476.08 647.428 476.156 647.098H477.892C477.828 647.69 477.635 648.219 477.313 648.685C476.991 649.15 476.559 649.516 476.018 649.782C475.481 650.049 474.851 650.182 474.127 650.182Z" fill="#0C0A09"/>
<rect x="252" y="405.199" width="123.2" height="38.4" rx="19.2" fill="white"/>
<g clip-path="url(#clip3_895_3700)">
<path d="M271.2 436.398C270.743 433.379 269.331 430.586 267.172 428.427C265.013 426.267 262.219 424.856 259.2 424.398C262.219 423.941 265.013 422.529 267.172 420.37C269.331 418.211 270.743 415.418 271.2 412.398C271.658 415.417 273.069 418.211 275.229 420.37C277.388 422.529 280.181 423.941 283.2 424.398C280.181 424.856 277.388 426.268 275.229 428.427C273.069 430.586 271.658 433.379 271.2 436.398Z" fill="url(#paint26_linear_895_3700)"/>
</g>
<path d="M309.912 422.041C309.797 421.679 309.641 421.355 309.447 421.069C309.256 420.778 309.027 420.532 308.76 420.329C308.494 420.122 308.19 419.965 307.848 419.858C307.51 419.75 307.138 419.697 306.732 419.697C306.044 419.697 305.424 419.874 304.871 420.228C304.318 420.582 303.88 421.101 303.558 421.785C303.24 422.465 303.081 423.298 303.081 424.284C303.081 425.275 303.242 426.112 303.564 426.796C303.886 427.48 304.328 427.999 304.889 428.353C305.449 428.707 306.088 428.884 306.804 428.884C307.468 428.884 308.047 428.749 308.54 428.478C309.037 428.208 309.421 427.826 309.691 427.333C309.966 426.836 310.103 426.251 310.103 425.579L310.58 425.668H307.084V424.147H311.887V425.537C311.887 426.563 311.668 427.454 311.23 428.21C310.797 428.962 310.196 429.542 309.429 429.952C308.665 430.362 307.79 430.566 306.804 430.566C305.698 430.566 304.727 430.312 303.892 429.803C303.061 429.294 302.413 428.572 301.947 427.637C301.482 426.699 301.249 425.585 301.249 424.296C301.249 423.322 301.385 422.447 301.655 421.671C301.925 420.896 302.305 420.237 302.795 419.697C303.288 419.152 303.866 418.736 304.531 418.45C305.199 418.159 305.929 418.014 306.72 418.014C307.38 418.014 307.995 418.112 308.564 418.307C309.136 418.501 309.645 418.778 310.091 419.136C310.54 419.494 310.912 419.919 311.206 420.412C311.501 420.902 311.7 421.445 311.803 422.041H309.912ZM318.033 430.584C317.13 430.584 316.353 430.391 315.7 430.006C315.052 429.616 314.551 429.069 314.197 428.365C313.847 427.657 313.672 426.828 313.672 425.877C313.672 424.939 313.847 424.111 314.197 423.395C314.551 422.68 315.044 422.121 315.676 421.719C316.313 421.317 317.057 421.116 317.908 421.116C318.425 421.116 318.926 421.202 319.411 421.373C319.896 421.544 320.332 421.812 320.718 422.178C321.103 422.544 321.408 423.02 321.63 423.604C321.853 424.185 321.964 424.891 321.964 425.722V426.355H314.68V425.018H320.216C320.216 424.549 320.121 424.133 319.93 423.771C319.739 423.405 319.471 423.117 319.125 422.906C318.783 422.695 318.381 422.59 317.92 422.59C317.418 422.59 316.981 422.713 316.607 422.96C316.237 423.203 315.951 423.521 315.748 423.914C315.549 424.304 315.45 424.728 315.45 425.185V426.229C315.45 426.842 315.557 427.363 315.772 427.792C315.991 428.222 316.295 428.55 316.685 428.777C317.074 428.999 317.53 429.111 318.051 429.111C318.389 429.111 318.697 429.063 318.976 428.968C319.254 428.868 319.495 428.721 319.697 428.526C319.9 428.331 320.055 428.091 320.163 427.804L321.851 428.109C321.716 428.606 321.473 429.041 321.123 429.415C320.777 429.785 320.342 430.073 319.817 430.28C319.296 430.483 318.701 430.584 318.033 430.584ZM323.944 430.399V421.236H325.656V422.727H325.769C325.96 422.222 326.272 421.828 326.706 421.546C327.139 421.26 327.658 421.116 328.263 421.116C328.875 421.116 329.389 421.26 329.802 421.546C330.22 421.832 330.528 422.226 330.727 422.727H330.822C331.041 422.238 331.389 421.848 331.866 421.558C332.344 421.264 332.912 421.116 333.573 421.116C334.404 421.116 335.082 421.377 335.607 421.898C336.136 422.419 336.4 423.205 336.4 424.255V430.399H334.617V424.422C334.617 423.801 334.448 423.352 334.11 423.073C333.772 422.795 333.368 422.656 332.899 422.656C332.318 422.656 331.866 422.835 331.544 423.193C331.222 423.547 331.061 424.002 331.061 424.559V430.399H329.283V424.308C329.283 423.811 329.128 423.411 328.818 423.109C328.508 422.807 328.104 422.656 327.607 422.656C327.269 422.656 326.956 422.745 326.67 422.924C326.388 423.099 326.159 423.344 325.984 423.658C325.813 423.972 325.727 424.336 325.727 424.75V430.399H323.944ZM338.791 430.399V421.236H340.575V430.399H338.791ZM339.692 419.822C339.382 419.822 339.115 419.718 338.893 419.512C338.674 419.301 338.565 419.05 338.565 418.76C338.565 418.466 338.674 418.215 338.893 418.008C339.115 417.797 339.382 417.692 339.692 417.692C340.002 417.692 340.267 417.797 340.486 418.008C340.708 418.215 340.82 418.466 340.82 418.76C340.82 419.05 340.708 419.301 340.486 419.512C340.267 419.718 340.002 419.822 339.692 419.822ZM344.759 424.959V430.399H342.975V421.236H344.687V422.727H344.8C345.011 422.242 345.341 421.852 345.791 421.558C346.244 421.264 346.815 421.116 347.503 421.116C348.127 421.116 348.674 421.248 349.144 421.51C349.613 421.769 349.977 422.155 350.235 422.668C350.494 423.181 350.623 423.815 350.623 424.571V430.399H348.839V424.785C348.839 424.121 348.666 423.602 348.32 423.228C347.974 422.851 347.499 422.662 346.895 422.662C346.481 422.662 346.113 422.751 345.791 422.93C345.473 423.109 345.22 423.372 345.033 423.718C344.85 424.06 344.759 424.473 344.759 424.959ZM353.016 430.399V421.236H354.799V430.399H353.016ZM353.916 419.822C353.606 419.822 353.34 419.718 353.117 419.512C352.898 419.301 352.789 419.05 352.789 418.76C352.789 418.466 352.898 418.215 353.117 418.008C353.34 417.797 353.606 417.692 353.916 417.692C354.227 417.692 354.491 417.797 354.71 418.008C354.933 418.215 355.044 418.466 355.044 418.76C355.044 419.05 354.933 419.301 354.71 419.512C354.491 419.718 354.227 419.822 353.916 419.822Z" fill="#0C0A09"/>
<rect x="290.4" y="482" width="108.2" height="38.4" rx="19.2" fill="white"/>
<g clip-path="url(#clip4_895_3700)">
<path d="M304.897 493H304.873L304.842 495.615H304.864C306.579 495.615 307.91 496.972 310.804 501.861L310.979 502.158L310.991 502.178L312.611 499.74L312.599 499.721C312.245 499.141 311.879 498.569 311.501 498.005C311.129 497.448 310.737 496.905 310.326 496.376C308.413 493.932 306.813 493 304.897 493Z" fill="url(#paint27_linear_895_3700)"/>
<path d="M304.873 493C302.95 493.01 301.247 494.258 300.02 496.17C300.017 496.176 300.014 496.181 300.01 496.187L302.264 497.418L302.275 497.401C302.993 496.318 303.885 495.627 304.843 495.616H304.864L304.896 493H304.873Z" fill="url(#paint28_linear_895_3700)"/>
<path d="M300.019 496.17L300.008 496.187C299.2 497.447 298.598 498.995 298.274 500.664L298.269 500.686L300.803 501.286L300.807 501.264C301.077 499.797 301.593 498.436 302.263 497.419L302.274 497.402L300.019 496.17Z" fill="url(#paint29_linear_895_3700)"/>
<path d="M300.807 501.264L298.274 500.664L298.269 500.686C298.092 501.604 298.002 502.537 298 503.472V503.495L300.598 503.728V503.705C300.589 502.887 300.659 502.07 300.808 501.265L300.807 501.264Z" fill="url(#paint30_linear_895_3700)"/>
<path d="M300.677 504.537C300.631 504.268 300.604 503.996 300.598 503.724V503.702L298 503.468V503.492C297.997 504.046 298.046 504.599 298.146 505.144L300.681 504.559C300.68 504.551 300.678 504.544 300.677 504.537Z" fill="url(#paint31_linear_895_3700)"/>
<path d="M301.27 505.89C300.986 505.58 300.786 505.134 300.681 504.562L300.677 504.541L298.142 505.126L298.146 505.147C298.338 506.157 298.714 506.997 299.252 507.634L299.266 507.651L301.284 505.906C301.279 505.901 301.275 505.895 301.27 505.89Z" fill="url(#paint32_linear_895_3700)"/>
<path d="M308.78 498.654C307.252 501.004 306.326 502.479 306.326 502.479C304.291 505.679 303.587 506.396 302.455 506.396C302.232 506.402 302.011 506.359 301.806 506.272C301.602 506.184 301.418 506.053 301.269 505.888L299.252 507.632L299.266 507.649C300.01 508.518 301.058 509 302.356 509C304.319 509 305.73 508.072 308.24 503.67L310.006 500.54C309.614 499.9 309.206 499.271 308.78 498.654Z" fill="#0082FB"/>
<path d="M311.502 494.946L311.486 494.962C311.086 495.392 310.7 495.87 310.326 496.378C310.704 496.861 311.094 497.402 311.501 498.008C311.981 497.265 312.429 496.663 312.868 496.201L312.884 496.185L311.502 494.946Z" fill="url(#paint33_linear_895_3700)"/>
<path d="M318.918 494.713C317.853 493.633 316.583 493 315.225 493C313.793 493 312.588 493.787 311.502 494.944L311.486 494.96L312.868 496.2L312.884 496.183C313.599 495.436 314.292 495.063 315.06 495.063C315.886 495.063 316.66 495.453 317.33 496.138L317.345 496.154L318.934 494.729L318.918 494.713Z" fill="#0082FB"/>
<path d="M321.998 503.125C321.938 499.658 320.728 496.559 318.934 494.729L318.918 494.713L317.33 496.137L317.345 496.153C318.695 497.545 319.622 500.133 319.706 503.124V503.147H321.998V503.125Z" fill="url(#paint34_linear_895_3700)"/>
<path d="M321.998 503.15V503.127H319.706V503.149C319.71 503.289 319.712 503.431 319.712 503.573C319.712 504.388 319.591 505.047 319.344 505.523L319.333 505.545L321.041 507.327L321.054 507.307C321.674 506.347 322 505.014 322 503.397C322 503.314 322 503.232 321.998 503.15Z" fill="url(#paint35_linear_895_3700)"/>
<path d="M319.344 505.52L319.333 505.54C319.119 505.942 318.814 506.21 318.416 506.327L319.194 508.789C319.344 508.738 319.49 508.678 319.632 508.607C320.186 508.327 320.657 507.907 320.998 507.389L321.042 507.324L321.054 507.304L319.344 505.52Z" fill="url(#paint36_linear_895_3700)"/>
<path d="M317.92 506.393C317.658 506.393 317.428 506.354 317.202 506.253L316.404 508.775C316.853 508.928 317.331 508.997 317.864 508.997C318.356 508.997 318.807 508.924 319.216 508.782L318.436 506.32C318.269 506.37 318.096 506.395 317.92 506.393Z" fill="url(#paint37_linear_895_3700)"/>
<path d="M316.323 505.534L316.309 505.517L314.473 507.431L314.489 507.448C315.126 508.13 315.735 508.553 316.426 508.785L317.223 506.265C316.932 506.14 316.65 505.912 316.323 505.534Z" fill="url(#paint38_linear_895_3700)"/>
<path d="M316.309 505.515C315.759 504.873 315.077 503.803 314.006 502.075L312.61 499.739L312.599 499.719L310.979 502.157L310.991 502.177L311.98 503.845C312.939 505.455 313.72 506.619 314.473 507.43L314.489 507.446L316.323 505.532C316.318 505.527 316.314 505.521 316.309 505.515Z" fill="url(#paint39_linear_895_3700)"/>
</g>
<path d="M339.989 494.982H342.226L346.116 504.48H346.259L350.149 494.982H352.386V507.2H350.632V498.359H350.519L346.916 507.182H345.46L341.856 498.353H341.743V507.2H339.989V494.982ZM358.873 507.385C357.97 507.385 357.192 507.192 356.54 506.806C355.892 506.417 355.391 505.87 355.037 505.166C354.687 504.458 354.512 503.629 354.512 502.678C354.512 501.739 354.687 500.912 355.037 500.196C355.391 499.48 355.884 498.922 356.516 498.52C357.153 498.118 357.896 497.917 358.747 497.917C359.264 497.917 359.766 498.003 360.251 498.174C360.736 498.345 361.172 498.613 361.557 498.979C361.943 499.345 362.247 499.82 362.47 500.405C362.693 500.986 362.804 501.692 362.804 502.523V503.155H355.52V501.819H361.056C361.056 501.35 360.961 500.934 360.77 500.572C360.579 500.206 360.31 499.918 359.964 499.707C359.622 499.496 359.221 499.391 358.759 499.391C358.258 499.391 357.821 499.514 357.447 499.761C357.077 500.003 356.791 500.322 356.588 500.715C356.389 501.105 356.289 501.529 356.289 501.986V503.03C356.289 503.643 356.397 504.164 356.612 504.593C356.83 505.023 357.135 505.351 357.524 505.577C357.914 505.8 358.37 505.912 358.891 505.912C359.229 505.912 359.537 505.864 359.815 505.768C360.094 505.669 360.334 505.522 360.537 505.327C360.74 505.132 360.895 504.891 361.003 504.605L362.691 504.909C362.556 505.406 362.313 505.842 361.963 506.216C361.617 506.586 361.182 506.874 360.657 507.081C360.135 507.284 359.541 507.385 358.873 507.385ZM369.061 498.037V499.468H364.056V498.037H369.061ZM365.398 495.841H367.182V504.51C367.182 504.856 367.233 505.116 367.337 505.291C367.44 505.462 367.573 505.579 367.737 505.643C367.904 505.703 368.085 505.733 368.279 505.733C368.423 505.733 368.548 505.723 368.655 505.703C368.763 505.683 368.846 505.667 368.906 505.655L369.228 507.129C369.125 507.168 368.977 507.208 368.787 507.248C368.596 507.292 368.357 507.316 368.071 507.32C367.601 507.327 367.164 507.244 366.758 507.069C366.352 506.894 366.024 506.623 365.774 506.258C365.523 505.892 365.398 505.432 365.398 504.879V495.841ZM373.701 507.403C373.12 507.403 372.595 507.296 372.126 507.081C371.657 506.862 371.285 506.546 371.01 506.132C370.74 505.719 370.605 505.212 370.605 504.611C370.605 504.094 370.704 503.668 370.903 503.334C371.102 503 371.37 502.736 371.708 502.541C372.046 502.346 372.424 502.199 372.842 502.099C373.259 502 373.685 501.924 374.119 501.873C374.667 501.809 375.113 501.757 375.455 501.718C375.797 501.674 376.046 501.604 376.201 501.509C376.356 501.413 376.433 501.258 376.433 501.043V501.002C376.433 500.481 376.286 500.077 375.992 499.791C375.702 499.504 375.268 499.361 374.691 499.361C374.091 499.361 373.617 499.494 373.271 499.761C372.929 500.023 372.693 500.316 372.561 500.638L370.885 500.256C371.084 499.699 371.374 499.25 371.756 498.908C372.142 498.562 372.585 498.311 373.086 498.156C373.588 497.997 374.115 497.917 374.667 497.917C375.033 497.917 375.421 497.961 375.831 498.048C376.244 498.132 376.63 498.287 376.988 498.514C377.35 498.741 377.646 499.065 377.877 499.486C378.108 499.904 378.223 500.447 378.223 501.115V507.2H376.481V505.947H376.409C376.294 506.178 376.121 506.405 375.89 506.627C375.66 506.85 375.363 507.035 375.002 507.182C374.64 507.329 374.206 507.403 373.701 507.403ZM374.089 505.971C374.582 505.971 375.004 505.874 375.354 505.679C375.708 505.484 375.976 505.229 376.159 504.915C376.346 504.597 376.439 504.257 376.439 503.895V502.714C376.376 502.777 376.252 502.837 376.069 502.893C375.89 502.945 375.686 502.99 375.455 503.03C375.224 503.066 375 503.1 374.781 503.131C374.562 503.159 374.379 503.183 374.232 503.203C373.886 503.247 373.57 503.32 373.283 503.424C373.001 503.527 372.774 503.676 372.603 503.871C372.436 504.062 372.353 504.317 372.353 504.635C372.353 505.076 372.516 505.41 372.842 505.637C373.168 505.86 373.584 505.971 374.089 505.971Z" fill="#0C0A09"/>
<path d="M709.624 483.026C709.858 482.792 709.858 482.412 709.624 482.177L705.806 478.359C705.571 478.125 705.192 478.125 704.957 478.359C704.723 478.593 704.723 478.973 704.957 479.207L708.351 482.602L704.957 485.996C704.723 486.23 704.723 486.61 704.957 486.844C705.192 487.079 705.571 487.079 705.806 486.844L709.624 483.026ZM621.633 483.202C621.965 483.202 622.233 482.933 622.233 482.602C622.233 482.27 621.965 482.002 621.633 482.002V483.202ZM626.567 482.002C626.235 482.002 625.967 482.27 625.967 482.602C625.967 482.933 626.235 483.202 626.567 483.202V482.002ZM629.033 483.202C629.365 483.202 629.633 482.933 629.633 482.602C629.633 482.27 629.365 482.002 629.033 482.002V483.202ZM633.967 482.002C633.635 482.002 633.367 482.27 633.367 482.602C633.367 482.933 633.635 483.202 633.967 483.202V482.002ZM636.433 483.202C636.765 483.202 637.033 482.933 637.033 482.602C637.033 482.27 636.765 482.002 636.433 482.002V483.202ZM641.367 482.002C641.035 482.002 640.767 482.27 640.767 482.602C640.767 482.933 641.035 483.202 641.367 483.202V482.002ZM643.833 483.202C644.165 483.202 644.433 482.933 644.433 482.602C644.433 482.27 644.165 482.002 643.833 482.002V483.202ZM648.767 482.002C648.435 482.002 648.167 482.27 648.167 482.602C648.167 482.933 648.435 483.202 648.767 483.202V482.002ZM651.233 483.202C651.565 483.202 651.833 482.933 651.833 482.602C651.833 482.27 651.565 482.002 651.233 482.002V483.202ZM656.167 482.002C655.835 482.002 655.567 482.27 655.567 482.602C655.567 482.933 655.835 483.202 656.167 483.202V482.002ZM658.633 483.202C658.965 483.202 659.233 482.933 659.233 482.602C659.233 482.27 658.965 482.002 658.633 482.002V483.202ZM663.567 482.002C663.235 482.002 662.967 482.27 662.967 482.602C662.967 482.933 663.235 483.202 663.567 483.202V482.002ZM666.033 483.202C666.365 483.202 666.633 482.933 666.633 482.602C666.633 482.27 666.365 482.002 666.033 482.002V483.202ZM670.967 482.002C670.635 482.002 670.367 482.27 670.367 482.602C670.367 482.933 670.635 483.202 670.967 483.202V482.002ZM673.433 483.202C673.765 483.202 674.033 482.933 674.033 482.602C674.033 482.27 673.765 482.002 673.433 482.002V483.202ZM678.367 482.002C678.035 482.002 677.767 482.27 677.767 482.602C677.767 482.933 678.035 483.202 678.367 483.202V482.002ZM680.833 483.202C681.165 483.202 681.433 482.933 681.433 482.602C681.433 482.27 681.165 482.002 680.833 482.002V483.202ZM685.767 482.002C685.435 482.002 685.167 482.27 685.167 482.602C685.167 482.933 685.435 483.202 685.767 483.202V482.002ZM688.233 483.202C688.565 483.202 688.833 482.933 688.833 482.602C688.833 482.27 688.565 482.002 688.233 482.002V483.202ZM693.167 482.002C692.835 482.002 692.567 482.27 692.567 482.602C692.567 482.933 692.835 483.202 693.167 483.202V482.002ZM695.633 483.202C695.965 483.202 696.233 482.933 696.233 482.602C696.233 482.27 695.965 482.002 695.633 482.002V483.202ZM700.567 482.002C700.235 482.002 699.967 482.27 699.967 482.602C699.967 482.933 700.235 483.202 700.567 483.202V482.002ZM703.033 483.202C703.365 483.202 703.633 482.933 703.633 482.602C703.633 482.27 703.365 482.002 703.033 482.002V483.202ZM707.967 482.002C707.635 482.002 707.367 482.27 707.367 482.602C707.367 482.933 707.635 483.202 707.967 483.202V482.002ZM620.4 482.602V483.202H621.633V482.602V482.002H620.4V482.602ZM626.567 482.602V483.202H629.033V482.602V482.002H626.567V482.602ZM633.967 482.602V483.202H636.433V482.602V482.002H633.967V482.602ZM641.367 482.602V483.202H643.833V482.602V482.002H641.367V482.602ZM648.767 482.602V483.202H651.233V482.602V482.002H648.767V482.602ZM656.167 482.602V483.202H658.633V482.602V482.002H656.167V482.602ZM663.567 482.602V483.202H666.033V482.602V482.002H663.567V482.602ZM670.967 482.602V483.202H673.433V482.602V482.002H670.967V482.602ZM678.367 482.602V483.202H680.833V482.602V482.002H678.367V482.602ZM685.767 482.602V483.202H688.233V482.602V482.002H685.767V482.602ZM693.167 482.602V483.202H695.633V482.602V482.002H693.167V482.602ZM700.567 482.602V483.202H703.033V482.602V482.002H700.567V482.602ZM707.967 482.602V483.202H709.2V482.602V482.002H707.967V482.602Z" fill="#B5B09B"/>
</g>
<path d="M16 0.5H1048C1056.56 0.5 1063.5 7.43959 1063.5 16V864C1063.5 872.56 1056.56 879.5 1048 879.5H16C7.43959 879.5 0.5 872.56 0.5 864V16C0.5 7.43959 7.43959 0.5 16 0.5Z" stroke="#E6E3DB"/>
<defs>
<filter id="filter0_f_895_3700" x="-173" y="-841" width="1434" height="1434" filterUnits="userSpaceOnUse" color-interpolation-filters="sRGB">
<feFlood flood-opacity="0" result="BackgroundImageFix"/>
<feBlend mode="normal" in="SourceGraphic" in2="BackgroundImageFix" result="shape"/>
<feGaussianBlur stdDeviation="100" result="effect1_foregroundBlur_895_3700"/>
</filter>
<filter id="filter1_di_895_3700" x="437.64" y="372.442" width="219.12" height="219.12" filterUnits="userSpaceOnUse" color-interpolation-filters="sRGB">
<feFlood flood-opacity="0" result="BackgroundImageFix"/>
<feColorMatrix in="SourceAlpha" type="matrix" values="0 0 0 0 0 0 0 0 0 0 0 0 0 0 0 0 0 0 127 0" result="hardAlpha"/>
<feMorphology radius="2.4" operator="dilate" in="SourceAlpha" result="effect1_dropShadow_895_3700"/>
<feOffset/>
<feGaussianBlur stdDeviation="19.38"/>
<feComposite in2="hardAlpha" operator="out"/>
<feColorMatrix type="matrix" values="0 0 0 0 0.682353 0 0 0 0 0.647059 0 0 0 0 0.509804 0 0 0 1 0"/>
<feBlend mode="normal" in2="BackgroundImageFix" result="effect1_dropShadow_895_3700"/>
<feBlend mode="normal" in="SourceGraphic" in2="effect1_dropShadow_895_3700" result="shape"/>
<feColorMatrix in="SourceAlpha" type="matrix" values="0 0 0 0 0 0 0 0 0 0 0 0 0 0 0 0 0 0 127 0" result="hardAlpha"/>
<feOffset/>
<feGaussianBlur stdDeviation="4.8"/>
<feComposite in2="hardAlpha" operator="arithmetic" k2="-1" k3="1"/>
<feColorMatrix type="matrix" values="0 0 0 0 0.713726 0 0 0 0 0.678431 0 0 0 0 0.552941 0 0 0 1 0"/>
<feBlend mode="normal" in2="shape" result="effect2_innerShadow_895_3700"/>
</filter>
<filter id="filter2_d_895_3700" x="672.84" y="401.238" width="161.52" height="161.52" filterUnits="userSpaceOnUse" color-interpolation-filters="sRGB">
<feFlood flood-opacity="0" result="BackgroundImageFix"/>
<feColorMatrix in="SourceAlpha" type="matrix" values="0 0 0 0 0 0 0 0 0 0 0 0 0 0 0 0 0 0 127 0" result="hardAlpha"/>
<feMorphology radius="2.4" operator="dilate" in="SourceAlpha" result="effect1_dropShadow_895_3700"/>
<feOffset/>
<feGaussianBlur stdDeviation="19.38"/>
<feComposite in2="hardAlpha" operator="out"/>
<feColorMatrix type="matrix" values="0 0 0 0 0.682353 0 0 0 0 0.647059 0 0 0 0 0.509804 0 0 0 0.5 0"/>
<feBlend mode="normal" in2="BackgroundImageFix" result="effect1_dropShadow_895_3700"/>
<feBlend mode="normal" in="SourceGraphic" in2="effect1_dropShadow_895_3700" result="shape"/>
</filter>
<linearGradient id="paint0_linear_895_3700" x1="220.1" y1="338" x2="220.1" y2="664.4" gradientUnits="userSpaceOnUse">
<stop stop-color="#F8F7F3"/>
<stop offset="0.480769" stop-color="#E6E2D2"/>
<stop offset="1" stop-color="#F8F7F3"/>
</linearGradient>
<linearGradient id="paint1_linear_895_3700" x1="812.4" y1="357.699" x2="195.6" y2="357.699" gradientUnits="userSpaceOnUse">
<stop stop-color="#F8F7F3"/>
<stop offset="0.480769" stop-color="#E6E2D2"/>
<stop offset="1" stop-color="#F8F7F3"/>
</linearGradient>
<linearGradient id="paint2_linear_895_3700" x1="256.1" y1="338" x2="256.1" y2="664.4" gradientUnits="userSpaceOnUse">
<stop stop-color="#F8F7F3"/>
<stop offset="0.480769" stop-color="#E6E2D2"/>
<stop offset="1" stop-color="#F8F7F3"/>
</linearGradient>
<linearGradient id="paint3_linear_895_3700" x1="812.4" y1="393.699" x2="195.6" y2="393.699" gradientUnits="userSpaceOnUse">
<stop stop-color="#F8F7F3"/>
<stop offset="0.480769" stop-color="#E6E2D2"/>
<stop offset="1" stop-color="#F8F7F3"/>
</linearGradient>
<linearGradient id="paint4_linear_895_3700" x1="292.1" y1="338" x2="292.1" y2="664.4" gradientUnits="userSpaceOnUse">
<stop stop-color="#F8F7F3"/>
<stop offset="0.480769" stop-color="#E6E2D2"/>
<stop offset="1" stop-color="#F8F7F3"/>
</linearGradient>
<linearGradient id="paint5_linear_895_3700" x1="812.4" y1="429.699" x2="195.6" y2="429.699" gradientUnits="userSpaceOnUse">
<stop stop-color="#F8F7F3"/>
<stop offset="0.480769" stop-color="#E6E2D2"/>
<stop offset="1" stop-color="#F8F7F3"/>
</linearGradient>
<linearGradient id="paint6_linear_895_3700" x1="328.1" y1="338" x2="328.1" y2="664.4" gradientUnits="userSpaceOnUse">
<stop stop-color="#F8F7F3"/>
<stop offset="0.480769" stop-color="#E6E2D2"/>
<stop offset="1" stop-color="#F8F7F3"/>
</linearGradient>
<linearGradient id="paint7_linear_895_3700" x1="812.4" y1="465.699" x2="195.6" y2="465.699" gradientUnits="userSpaceOnUse">
<stop stop-color="#F8F7F3"/>
<stop offset="0.480769" stop-color="#E6E2D2"/>
<stop offset="1" stop-color="#F8F7F3"/>
</linearGradient>
<linearGradient id="paint8_linear_895_3700" x1="364.1" y1="338" x2="364.1" y2="664.4" gradientUnits="userSpaceOnUse">
<stop stop-color="#F8F7F3"/>
<stop offset="0.480769" stop-color="#E6E2D2"/>
<stop offset="1" stop-color="#F8F7F3"/>
</linearGradient>
<linearGradient id="paint9_linear_895_3700" x1="812.4" y1="501.699" x2="195.6" y2="501.699" gradientUnits="userSpaceOnUse">
<stop stop-color="#F8F7F3"/>
<stop offset="0.480769" stop-color="#E6E2D2"/>
<stop offset="1" stop-color="#F8F7F3"/>
</linearGradient>
<linearGradient id="paint10_linear_895_3700" x1="400.1" y1="338" x2="400.1" y2="664.4" gradientUnits="userSpaceOnUse">
<stop stop-color="#F8F7F3"/>
<stop offset="0.480769" stop-color="#E6E2D2"/>
<stop offset="1" stop-color="#F8F7F3"/>
</linearGradient>
<linearGradient id="paint11_linear_895_3700" x1="812.4" y1="537.699" x2="195.6" y2="537.699" gradientUnits="userSpaceOnUse">
<stop stop-color="#F8F7F3"/>
<stop offset="0.480769" stop-color="#E6E2D2"/>
<stop offset="1" stop-color="#F8F7F3"/>
</linearGradient>
<linearGradient id="paint12_linear_895_3700" x1="436.1" y1="338" x2="436.1" y2="664.4" gradientUnits="userSpaceOnUse">
<stop stop-color="#F8F7F3"/>
<stop offset="0.480769" stop-color="#E6E2D2"/>
<stop offset="1" stop-color="#F8F7F3"/>
</linearGradient>
<linearGradient id="paint13_linear_895_3700" x1="812.4" y1="573.699" x2="195.6" y2="573.699" gradientUnits="userSpaceOnUse">
<stop stop-color="#F8F7F3"/>
<stop offset="0.480769" stop-color="#E6E2D2"/>
<stop offset="1" stop-color="#F8F7F3"/>
</linearGradient>
<linearGradient id="paint14_linear_895_3700" x1="472.1" y1="338" x2="472.1" y2="664.4" gradientUnits="userSpaceOnUse">
<stop stop-color="#F8F7F3"/>
<stop offset="0.480769" stop-color="#E6E2D2"/>
<stop offset="1" stop-color="#F8F7F3"/>
</linearGradient>
<linearGradient id="paint15_linear_895_3700" x1="812.4" y1="609.699" x2="195.6" y2="609.699" gradientUnits="userSpaceOnUse">
<stop stop-color="#F8F7F3"/>
<stop offset="0.480769" stop-color="#E6E2D2"/>
<stop offset="1" stop-color="#F8F7F3"/>
</linearGradient>
<linearGradient id="paint16_linear_895_3700" x1="508.1" y1="338" x2="508.1" y2="664.4" gradientUnits="userSpaceOnUse">
<stop stop-color="#F8F7F3"/>
<stop offset="0.480769" stop-color="#E6E2D2"/>
<stop offset="1" stop-color="#F8F7F3"/>
</linearGradient>
<linearGradient id="paint17_linear_895_3700" x1="812.4" y1="645.699" x2="195.6" y2="645.699" gradientUnits="userSpaceOnUse">
<stop stop-color="#F8F7F3"/>
<stop offset="0.480769" stop-color="#E6E2D2"/>
<stop offset="1" stop-color="#F8F7F3"/>
</linearGradient>
<linearGradient id="paint18_linear_895_3700" x1="544.1" y1="338" x2="544.1" y2="664.4" gradientUnits="userSpaceOnUse">
<stop stop-color="#F8F7F3"/>
<stop offset="0.480769" stop-color="#E6E2D2"/>
<stop offset="1" stop-color="#F8F7F3"/>
</linearGradient>
<linearGradient id="paint19_linear_895_3700" x1="580.1" y1="338" x2="580.1" y2="664.4" gradientUnits="userSpaceOnUse">
<stop stop-color="#F8F7F3"/>
<stop offset="0.480769" stop-color="#E6E2D2"/>
<stop offset="1" stop-color="#F8F7F3"/>
</linearGradient>
<linearGradient id="paint20_linear_895_3700" x1="616.1" y1="338" x2="616.1" y2="664.4" gradientUnits="userSpaceOnUse">
<stop stop-color="#F8F7F3"/>
<stop offset="0.480769" stop-color="#E6E2D2"/>
<stop offset="1" stop-color="#F8F7F3"/>
</linearGradient>
<linearGradient id="paint21_linear_895_3700" x1="652.1" y1="338" x2="652.1" y2="664.4" gradientUnits="userSpaceOnUse">
<stop stop-color="#F8F7F3"/>
<stop offset="0.480769" stop-color="#E6E2D2"/>
<stop offset="1" stop-color="#F8F7F3"/>
</linearGradient>
<linearGradient id="paint22_linear_895_3700" x1="688.1" y1="338" x2="688.1" y2="664.4" gradientUnits="userSpaceOnUse">
<stop stop-color="#F8F7F3"/>
<stop offset="0.480769" stop-color="#E6E2D2"/>
<stop offset="1" stop-color="#F8F7F3"/>
</linearGradient>
<linearGradient id="paint23_linear_895_3700" x1="724.1" y1="338" x2="724.1" y2="664.4" gradientUnits="userSpaceOnUse">
<stop stop-color="#F8F7F3"/>
<stop offset="0.480769" stop-color="#E6E2D2"/>
<stop offset="1" stop-color="#F8F7F3"/>
</linearGradient>
<linearGradient id="paint24_linear_895_3700" x1="760.1" y1="338" x2="760.1" y2="664.4" gradientUnits="userSpaceOnUse">
<stop stop-color="#F8F7F3"/>
<stop offset="0.480769" stop-color="#E6E2D2"/>
<stop offset="1" stop-color="#F8F7F3"/>
</linearGradient>
<linearGradient id="paint25_linear_895_3700" x1="796.1" y1="338" x2="796.1" y2="664.4" gradientUnits="userSpaceOnUse">
<stop stop-color="#F8F7F3"/>
<stop offset="0.480769" stop-color="#E6E2D2"/>
<stop offset="1" stop-color="#F8F7F3"/>
</linearGradient>
<linearGradient id="paint26_linear_895_3700" x1="259.2" y1="2812.4" x2="1908.72" y2="1141.88" gradientUnits="userSpaceOnUse">
<stop stop-color="#1C7DFF"/>
<stop offset="0.52021" stop-color="#1C69FF"/>
<stop offset="1" stop-color="#F0DCD6"/>
</linearGradient>
<linearGradient id="paint27_linear_895_3700" x1="894.486" y1="1311.67" x2="412.722" y2="678.353" gradientUnits="userSpaceOnUse">
<stop offset="0.0006" stop-color="#0867DF"/>
<stop offset="0.4539" stop-color="#0668E1"/>
<stop offset="0.8591" stop-color="#0064E0"/>
</linearGradient>
<linearGradient id="paint28_linear_895_3700" x1="405.89" y1="828.211" x2="749.638" y2="566.583" gradientUnits="userSpaceOnUse">
<stop offset="0.1323" stop-color="#0064DF"/>
<stop offset="0.9988" stop-color="#0064E0"/>
</linearGradient>
<linearGradient id="paint29_linear_895_3700" x1="451.512" y1="952.144" x2="591.653" y2="598.3" gradientUnits="userSpaceOnUse">
<stop offset="0.0147" stop-color="#0072EC"/>
<stop offset="0.6881" stop-color="#0064DF"/>
</linearGradient>
<linearGradient id="paint30_linear_895_3700" x1="430.066" y1="777.006" x2="447.162" y2="549.111" gradientUnits="userSpaceOnUse">
<stop offset="0.0731" stop-color="#007CF6"/>
<stop offset="0.9943" stop-color="#0072EC"/>
</linearGradient>
<linearGradient id="paint31_linear_895_3700" x1="437.834" y1="601.18" x2="432.921" y2="564.505" gradientUnits="userSpaceOnUse">
<stop offset="0.0731" stop-color="#007FF9"/>
<stop offset="1" stop-color="#007CF6"/>
</linearGradient>
<linearGradient id="paint32_linear_895_3700" x1="416.561" y1="543.422" x2="491.558" y2="703.007" gradientUnits="userSpaceOnUse">
<stop offset="0.0731" stop-color="#007FF9"/>
<stop offset="1" stop-color="#0082FB"/>
</linearGradient>
<linearGradient id="paint33_linear_895_3700" x1="399.365" y1="705.86" x2="489.807" y2="580.406" gradientUnits="userSpaceOnUse">
<stop offset="0.2799" stop-color="#007FF8"/>
<stop offset="0.9141" stop-color="#0082FB"/>
</linearGradient>
<linearGradient id="paint34_linear_895_3700" x1="521.611" y1="547.299" x2="722.502" y2="1288.65" gradientUnits="userSpaceOnUse">
<stop stop-color="#0082FB"/>
<stop offset="0.9995" stop-color="#0081FA"/>
</linearGradient>
<linearGradient id="paint35_linear_895_3700" x1="479.5" y1="522.703" x2="361.641" y2="761.658" gradientUnits="userSpaceOnUse">
<stop offset="0.0619" stop-color="#0081FA"/>
<stop offset="1" stop-color="#0080F9"/>
</linearGradient>
<linearGradient id="paint36_linear_895_3700" x1="398.3" y1="699.437" x2="493.397" y2="634.464" gradientUnits="userSpaceOnUse">
<stop stop-color="#027AF3"/>
<stop offset="1" stop-color="#0080F9"/>
</linearGradient>
<linearGradient id="paint37_linear_895_3700" x1="373.862" y1="643.456" x2="547.303" y2="643.456" gradientUnits="userSpaceOnUse">
<stop stop-color="#0377EF"/>
<stop offset="0.9994" stop-color="#0279F1"/>
</linearGradient>
<linearGradient id="paint38_linear_895_3700" x1="425.306" y1="620.871" x2="522.958" y2="678.518" gradientUnits="userSpaceOnUse">
<stop offset="0.0019" stop-color="#0471E9"/>
<stop offset="1" stop-color="#0377EF"/>
</linearGradient>
<linearGradient id="paint39_linear_895_3700" x1="483.344" y1="652.088" x2="802.319" y2="1054.36" gradientUnits="userSpaceOnUse">
<stop offset="0.2765" stop-color="#0867DF"/>
<stop offset="1" stop-color="#0471E9"/>
</linearGradient>
<clipPath id="clip0_895_3700">
<path d="M0 16C0 7.16343 7.16344 0 16 0H1048C1056.84 0 1064 7.16344 1064 16V864C1064 872.837 1056.84 880 1048 880H16C7.16345 880 0 872.837 0 864V16Z" fill="white"/>
</clipPath>
<clipPath id="clip1_895_3700">
<rect width="74.4" height="74.4" fill="white" transform="translate(510 444.801)"/>
</clipPath>
<clipPath id="clip2_895_3700">
<rect width="24" height="24" fill="white" transform="translate(358.8 632)"/>
</clipPath>
<clipPath id="clip3_895_3700">
<rect width="24" height="24" fill="white" transform="translate(259.2 412.398)"/>
</clipPath>
<clipPath id="clip4_895_3700">
<rect width="24" height="24" fill="white" transform="translate(298 489)"/>
</clipPath>
</defs>
</svg>
