<svg width="1064" height="260" viewBox="0 0 1064 260" fill="none" xmlns="http://www.w3.org/2000/svg">
<path d="M16 0.5H1048C1056.56 0.5 1063.5 7.43959 1063.5 16V244C1063.5 252.56 1056.56 259.5 1048 259.5H16C7.43959 259.5 0.5 252.56 0.5 244V16C0.5 7.43959 7.43959 0.5 16 0.5Z" fill="#0C0A09"/>
<path d="M16 0.5H1048C1056.56 0.5 1063.5 7.43959 1063.5 16V244C1063.5 252.56 1056.56 259.5 1048 259.5H16C7.43959 259.5 0.5 252.56 0.5 244V16C0.5 7.43959 7.43959 0.5 16 0.5Z" stroke="#E6E3DB"/>
<rect x="749" y="93" width="169" height="17" rx="8.5" fill="#44403C"/>
<rect x="749" y="116" width="169" height="17" rx="8.5" fill="#44403C"/>
<rect x="749" y="139" width="169" height="17" rx="8.5" fill="#44403C"/>
<rect x="813" y="162" width="105" height="17" rx="8.5" fill="#44403C"/>
<path d="M92 188L84 176H60L52 188M92 188L72 214M92 188H52M72 214L52 188M72 214L64 188L70 176M72 214L80 188L74 176" stroke="white" stroke-width="2" stroke-linecap="round" stroke-linejoin="round"/>
<path d="M764.828 69.3563H779.609C779.741 69.3563 779.866 69.3071 779.959 69.2196C780.052 69.1321 780.104 69.0134 780.104 68.8896V65.8003C780.104 65.7837 780.104 65.7677 780.104 65.7523C780.101 65.7298 780.096 65.7075 780.09 65.6856C780.09 65.6823 780.09 65.679 780.09 65.6756C780.084 65.6528 780.075 65.6305 780.065 65.609L780.061 65.5996C780.05 65.5785 780.038 65.5582 780.024 65.539C780.01 65.5204 779.995 65.5028 779.979 65.4863L779.97 65.4776C779.954 65.4617 779.936 65.4468 779.917 65.4329L779.906 65.4256C779.886 65.4115 779.865 65.399 779.843 65.3883L772.634 62.3017L772.622 62.297L772.594 62.2844L772.574 62.2777L772.549 62.2697L772.524 62.2637L772.502 62.2597L772.473 62.255H772.455H772.42H756.819L751.783 60.102H767.081C767.212 60.102 767.338 60.0528 767.431 59.9653C767.523 59.8777 767.575 59.759 767.575 59.6352V56.5493C767.575 56.5301 767.574 56.511 767.571 56.492V56.4806C767.564 56.4332 767.549 56.387 767.527 56.3439L767.522 56.3359C767.511 56.3156 767.498 56.296 767.484 56.2773C767.482 56.274 767.479 56.2709 767.477 56.2679C767.462 56.2492 767.446 56.2318 767.428 56.2159L767.422 56.2099C767.404 56.1937 767.384 56.1788 767.363 56.1652C767.341 56.1514 767.317 56.1389 767.293 56.1279H767.289L760.069 53.0413C760.004 53.014 759.935 52.9999 759.864 53H749.492C749.466 53.0002 749.439 53.0024 749.413 53.0067H749.402C749.378 53.011 749.354 53.017 749.331 53.0247L749.321 53.0287C749.296 53.0361 749.273 53.0459 749.25 53.058H749.245C749.223 53.0691 749.203 53.0821 749.184 53.0967L749.179 53.1C749.16 53.1146 749.142 53.1304 749.126 53.1474L749.117 53.1567C749.101 53.1739 749.087 53.1922 749.074 53.2114C749.072 53.2145 749.069 53.2179 749.067 53.2214C749.054 53.2416 749.043 53.2628 749.033 53.2847V53.2894C749.023 53.3127 749.016 53.3368 749.01 53.3614C749.004 53.3851 749.001 53.4092 749 53.4334C749 53.4381 749 53.4427 749 53.4474C749 53.4521 749 53.4554 749 53.4594V56.546C749 56.6356 749.028 56.7233 749.079 56.7987C749.131 56.874 749.204 56.9337 749.29 56.9707L754.423 59.1631H749.492C749.466 59.1633 749.439 59.1655 749.413 59.1698H749.402C749.378 59.1744 749.355 59.1804 749.331 59.1878L749.321 59.1918C749.296 59.1998 749.273 59.2096 749.25 59.2211L749.245 59.2245C749.223 59.2358 749.203 59.2487 749.184 59.2631L749.179 59.2665C749.16 59.2811 749.142 59.2971 749.126 59.3145L749.117 59.3238C749.101 59.3407 749.087 59.3587 749.074 59.3778L749.067 59.3878C749.054 59.4092 749.043 59.4315 749.033 59.4545V59.4592C749.023 59.4825 749.016 59.5066 749.01 59.5312C749.004 59.5549 749.001 59.579 749 59.6032C749 59.6079 749 59.6125 749 59.6172C749 59.6219 749 59.6245 749 59.6285V62.7151C749 62.8049 749.027 62.8927 749.079 62.9682C749.13 63.0436 749.204 63.1035 749.29 63.1405L754.423 65.3336H749.492C749.466 65.3339 749.439 65.3359 749.413 65.3396H749.402C749.378 65.3436 749.354 65.3496 749.331 65.3576L749.321 65.3616C749.296 65.3691 749.273 65.3787 749.25 65.3903H749.245C749.223 65.4018 749.203 65.415 749.184 65.4296C749.182 65.4303 749.18 65.4315 749.179 65.4329C749.16 65.4475 749.142 65.4633 749.126 65.4803L749.117 65.4896C749.101 65.5068 749.087 65.5251 749.074 65.5443C749.072 65.5475 749.069 65.5508 749.067 65.5543C749.054 65.5756 749.042 65.5979 749.033 65.621V65.6256C749.023 65.6489 749.015 65.673 749.01 65.6976C749.004 65.7213 749.001 65.7454 749 65.7697C749 65.7743 749 65.779 749 65.7837C749 65.7883 749 65.7917 749 65.7957V68.8822C749 68.9719 749.028 69.0596 749.079 69.1349C749.131 69.2102 749.204 69.27 749.29 69.307L754.423 71.5087H749.492C749.466 71.5089 749.439 71.5111 749.413 71.5154H749.402C749.378 71.52 749.355 71.526 749.331 71.5334L749.321 71.5374C749.296 71.5451 749.273 71.5549 749.25 71.5667L749.245 71.5701C749.223 71.5814 749.203 71.5943 749.184 71.6087H749.179C749.16 71.6234 749.142 71.6394 749.126 71.6567L749.117 71.6654C749.101 71.6826 749.087 71.7009 749.074 71.7201L749.067 71.7301C749.054 71.7504 749.043 71.7715 749.033 71.7934V71.7981C749.023 71.8214 749.016 71.8455 749.01 71.8701C749.004 71.8936 749.001 71.9175 749 71.9415C749 71.9461 749 71.9508 749 71.9561C749 71.9615 749 71.9635 749 71.9675V75.054C749 75.1438 749.027 75.2316 749.079 75.3071C749.13 75.3825 749.204 75.4424 749.29 75.4794L756.511 78.5653C756.523 78.5707 756.536 78.5753 756.548 78.5793L756.559 78.5827C756.573 78.5867 756.586 78.5907 756.6 78.5933H756.609C756.623 78.5963 756.638 78.5985 756.653 78.6H756.66C756.677 78.6 756.694 78.6 756.712 78.6H779.608C779.739 78.6 779.865 78.5508 779.958 78.4633C780.05 78.3758 780.103 78.257 780.103 78.1332V75.062C780.102 75.0431 780.101 75.0242 780.098 75.0054V74.9934C780.091 74.947 780.076 74.902 780.054 74.86L780.05 74.8513C780.038 74.8311 780.026 74.8117 780.011 74.7933L780.004 74.7833C779.989 74.7649 779.973 74.7475 779.956 74.7313L779.949 74.7253C779.931 74.7093 779.912 74.6944 779.891 74.6806C779.869 74.6668 779.845 74.6546 779.821 74.6439H779.816L772.596 71.5581C772.532 71.5305 772.462 71.5162 772.391 71.516H757.207V69.3636L764.828 69.3563ZM757.207 59.1631V57.0107H766.586V59.1631H757.207ZM759.751 53.9242L764.788 56.0772H756.819L751.783 53.9242H759.751ZM749.984 54.1815L756.216 56.8447V58.9064L749.984 56.2393V54.1815ZM758.912 65.3336H757.207V63.1805H772.282L777.319 65.3336H758.912ZM749.987 60.3513L756.218 63.0145V65.0762L749.987 62.413V60.3513ZM756.713 66.2671H779.114V68.4201H756.819L751.783 66.2671H756.713ZM749.987 66.5238L756.218 69.191V71.2527L749.987 68.5855V66.5238ZM749.987 72.6969L756.218 75.3601V77.4218L749.987 74.7586V72.6969ZM757.207 77.6792V75.5288H779.114V77.6818L757.207 77.6792ZM772.282 72.4396L777.319 74.5953H756.819L751.783 72.4422H772.282V72.4396Z" fill="#A8A29E"/>
<g clip-path="url(#clip0_764_2298)">
<path d="M820.708 69.4899H822.551V65.1084H820.708V63.6978H824.392V65.6673H824.507C824.574 65.4171 824.666 65.1738 824.781 64.9406C824.899 64.7083 825.054 64.4961 825.242 64.3123C825.44 64.1213 825.675 63.9696 825.932 63.8656C826.239 63.7467 826.566 63.6897 826.896 63.6978H827.702V65.3745H826.177C825.62 65.3745 825.182 65.5327 824.863 65.849C824.704 66.0104 824.581 66.2012 824.499 66.4101C824.417 66.6189 824.379 66.8417 824.388 67.0651V69.4952H826.964V70.9069H820.704L820.708 69.4899Z" fill="#A8A29E"/>
<path d="M816.9 71.0693C816.379 71.0774 815.86 70.987 815.374 70.8032C814.944 70.6341 814.557 70.3768 814.238 70.0488C813.918 69.7043 813.674 69.3005 813.518 68.8615C813.192 67.8429 813.192 66.7511 813.518 65.7325C813.674 65.2933 813.918 64.8891 814.238 64.5442C814.557 64.2165 814.944 63.9592 815.374 63.7897C815.861 63.6068 816.379 63.5169 816.9 63.5247C817.417 63.5178 817.929 63.6077 818.411 63.7897C818.843 63.9544 819.232 64.2123 819.547 64.5442C819.873 64.8846 820.118 65.2901 820.267 65.7325C820.613 66.7482 820.613 67.8459 820.267 68.8615C820.118 69.3035 819.873 69.7087 819.547 70.0488C819.232 70.381 818.843 70.639 818.411 70.8032C817.93 70.9861 817.417 71.0764 816.9 71.0693ZM816.9 69.6993C817.428 69.6993 817.845 69.5458 818.152 69.2387C818.458 68.9317 818.612 68.4708 818.612 67.8559V66.7381C818.612 66.1318 818.459 65.6755 818.152 65.3692C817.845 65.0522 817.428 64.8936 816.9 64.8936C816.372 64.8936 815.955 65.0522 815.648 65.3692C815.341 65.6755 815.188 66.1318 815.187 66.7381V67.8559C815.187 68.4608 815.34 68.9217 815.648 69.2387C815.955 69.5558 816.372 69.7093 816.9 69.6993Z" fill="#A8A29E"/>
<path d="M809.825 71.0693C809.102 71.0853 808.383 70.9619 807.709 70.706C807.164 70.4906 806.684 70.1443 806.313 69.6993L807.393 68.7493C807.688 69.0667 808.045 69.3233 808.444 69.5038C808.884 69.6885 809.36 69.7793 809.84 69.7699C810.301 69.7699 810.67 69.6954 810.948 69.5465C811.077 69.4838 811.186 69.3857 811.26 69.2642C811.334 69.1426 811.37 69.0028 811.365 68.8615C811.365 68.6008 811.27 68.4234 811.077 68.3272C810.846 68.2184 810.598 68.1462 810.343 68.1135L809.149 67.9318C808.843 67.886 808.54 67.8207 808.242 67.7362C807.966 67.6486 807.704 67.5215 807.465 67.359C807.243 67.2006 807.062 66.9953 806.933 66.7584C806.791 66.4761 806.722 66.1643 806.732 65.8501C806.732 65.0956 807.019 64.5182 807.594 64.1178C808.169 63.7174 808.97 63.5172 809.997 63.5172C810.62 63.5012 811.241 63.6009 811.826 63.8111C812.303 63.9864 812.732 64.2686 813.077 64.635L812.114 65.6684C811.87 65.4228 811.582 65.2239 811.264 65.0817C810.92 64.905 810.478 64.8167 809.94 64.8167C809 64.8167 808.53 65.1017 808.53 65.6716C808.53 65.9324 808.626 66.114 808.818 66.2166C809.055 66.3244 809.307 66.3965 809.566 66.4304L810.746 66.612C811.054 66.6582 811.357 66.7297 811.653 66.8257C811.932 66.9013 812.195 67.0243 812.43 67.1891C812.658 67.3447 812.846 67.5504 812.977 67.7897C813.12 68.0667 813.189 68.3742 813.179 68.6841C813.191 69.0267 813.116 69.3669 812.96 69.6741C812.805 69.9814 812.573 70.246 812.287 70.4442C811.701 70.8602 810.881 71.0686 809.825 71.0693Z" fill="#A8A29E"/>
<path d="M799.57 70.9016V63.6925H801.412V64.9642H801.484C801.646 64.5745 801.903 64.2291 802.232 63.9575C802.578 63.669 803.052 63.5247 803.655 63.5247C804.385 63.5247 804.975 63.7623 805.424 64.2375C805.874 64.7127 806.105 65.3831 806.116 66.2487V70.9016H804.276V66.5041C804.276 65.4611 803.811 64.9392 802.88 64.9385C802.695 64.9376 802.511 64.9613 802.333 65.009C802.162 65.0544 802.001 65.1302 801.858 65.2324C801.725 65.3254 801.613 65.4444 801.53 65.5818C801.452 65.7378 801.414 65.9104 801.421 66.0841V70.9048L799.57 70.9016Z" fill="#A8A29E"/>
<path d="M789.651 62.657V70.8994H787.78V62.657H784.759V61.1502H792.673V62.657H789.651Z" fill="#A8A29E"/>
<path d="M857.079 60.5635H858.921V66.6259H859.008L860.087 65.4803L861.915 63.6925H864.059L861.103 66.5287L864.37 70.9016H862.169L859.794 67.5481L858.918 68.3582V70.9016H857.076L857.079 60.5635Z" fill="#A8A29E"/>
<path d="M853.531 71.0693C853.009 71.0772 852.492 70.9869 852.005 70.8032C851.57 70.6367 851.177 70.3792 850.854 70.0488C850.535 69.7037 850.291 69.3001 850.134 68.8615C849.808 67.8429 849.808 66.7511 850.134 65.7325C850.291 65.2937 850.535 64.8897 850.854 64.5442C851.173 64.2162 851.561 63.9589 851.991 63.7897C852.477 63.6068 852.995 63.5168 853.516 63.5247C854.302 63.5247 854.936 63.6832 855.416 64.0002C855.892 64.3126 856.271 64.7475 856.511 65.257L855.087 66.0114C854.965 65.7197 854.766 65.4644 854.511 65.2709C854.272 65.0753 853.94 64.9781 853.519 64.9781C852.971 64.9781 852.549 65.1316 852.252 65.4386C851.955 65.7457 851.811 66.165 851.82 66.6964V67.8933C851.82 68.4148 851.964 68.8341 852.252 69.1511C852.539 69.4681 852.971 69.6217 853.547 69.6117C853.985 69.6117 854.335 69.5137 854.598 69.3178C854.875 69.1117 855.097 68.8433 855.245 68.5356L856.627 69.3317C856.375 69.8462 855.982 70.2819 855.49 70.5895C854.99 70.9087 854.336 71.0686 853.531 71.0693Z" fill="#A8A29E"/>
<path d="M846.196 71.0693C845.675 71.0772 845.157 70.9869 844.671 70.8032C844.241 70.6341 843.853 70.3769 843.534 70.0488C843.215 69.7037 842.971 69.3001 842.814 68.8615C842.489 67.8427 842.489 66.7513 842.814 65.7325C842.971 65.2937 843.215 64.8897 843.534 64.5442C843.853 64.2164 844.241 63.9592 844.671 63.7897C845.651 63.4364 846.728 63.4364 847.707 63.7897C848.14 63.9546 848.528 64.2125 848.845 64.5442C849.17 64.8846 849.415 65.2901 849.564 65.7325C849.91 66.7482 849.91 67.8458 849.564 68.8615C849.415 69.3035 849.17 69.7086 848.845 70.0488C848.529 70.3808 848.14 70.6387 847.707 70.8032C847.226 70.9861 846.713 71.0764 846.196 71.0693ZM846.196 69.6993C846.724 69.6993 847.142 69.5458 847.449 69.2387C847.756 68.9317 847.909 68.4707 847.909 67.8559V66.7381C847.909 66.1318 847.755 65.6755 847.449 65.3692C847.142 65.0521 846.724 64.8936 846.196 64.8936C845.669 64.8936 845.251 65.0521 844.944 65.3692C844.637 65.6755 844.484 66.1318 844.484 66.7381V67.8559C844.484 68.4608 844.637 68.9217 844.944 69.2387C845.25 69.5558 845.668 69.7093 846.196 69.6993Z" fill="#A8A29E"/>
<path d="M835.869 69.4899H838.229V62.5576H835.869V61.147H840.072V69.4899H842.448V70.9016H835.871L835.869 69.4899Z" fill="#A8A29E"/>
<path d="M828.939 61.1502H832.436C833.384 61.1502 834.114 61.3828 834.625 61.848C835.136 62.3132 835.395 62.9373 835.403 63.7202C835.403 64.2795 835.257 64.7266 834.965 65.0614C834.653 65.4179 834.236 65.6717 833.77 65.7881V65.8575C834.375 66 834.849 66.2561 835.193 66.6259C835.538 66.9957 835.715 67.5125 835.726 68.1765C835.73 68.5596 835.655 68.9397 835.507 69.2943C835.375 69.6173 835.174 69.9089 834.916 70.1492C834.655 70.3986 834.341 70.5893 833.996 70.7081C833.61 70.8433 833.202 70.9095 832.791 70.9037H828.934L828.939 61.1502ZM832.223 69.5743C832.751 69.5743 833.144 69.481 833.403 69.2943C833.663 69.1076 833.797 68.7771 833.806 68.3026V67.842C833.806 67.3861 833.672 67.0655 833.403 66.8802C833.135 66.695 832.741 66.597 832.223 66.5864H830.784V69.5786L832.223 69.5743ZM831.978 65.3125C832.487 65.3125 832.86 65.2249 833.101 65.0475C833.342 64.8701 833.475 64.5634 833.475 64.1253V63.6647C833.475 63.2265 833.35 62.9191 833.101 62.7424C832.86 62.5651 832.487 62.4774 831.978 62.4774H830.784V65.3125H831.978Z" fill="#A8A29E"/>
<path d="M799.371 67.7298C799.383 67.5898 799.389 67.4456 799.389 67.3024C799.396 66.7701 799.309 66.2406 799.129 65.7379C798.981 65.2955 798.735 64.89 798.41 64.5495C798.093 64.2178 797.705 63.96 797.272 63.7951C796.293 63.4417 795.216 63.4417 794.236 63.7951C793.806 63.9645 793.419 64.2218 793.099 64.5495C792.781 64.895 792.536 65.299 792.38 65.7379C792.054 66.7567 792.054 67.8481 792.38 68.8669C792.536 69.3054 792.781 69.709 793.099 70.0541C793.418 70.3822 793.806 70.6395 794.236 70.8086C795.216 71.1634 796.293 71.1634 797.272 70.8086C797.705 70.6441 798.094 70.3861 798.41 70.0541C798.735 69.714 798.98 69.3089 799.129 68.8669C799.199 68.6783 799.254 68.4846 799.293 68.2876H797.444C797.407 68.6428 797.256 68.9775 797.013 69.2441C796.706 69.5519 796.288 69.7054 795.76 69.7047C795.233 69.704 794.815 69.5504 794.508 69.2441C794.201 68.9278 794.048 68.4668 794.048 67.8613V67.7352L799.371 67.7298ZM794.509 65.3692C794.816 65.0521 795.234 64.8936 795.761 64.8936C796.289 64.8936 796.707 65.0521 797.014 65.3692C797.308 65.6641 797.46 66.098 797.472 66.6687H794.05C794.063 66.098 794.214 65.6641 794.509 65.3692Z" fill="#A8A29E"/>
</g>
<path d="M846.036 171.987C852.63 178.581 860.31 183.758 868.863 187.376C877.722 191.123 887.129 193.023 896.822 193.023C906.515 193.023 915.921 191.123 924.78 187.376C929.789 185.257 934.497 182.599 938.864 179.439L969.401 210.002C970.705 211.308 972.415 211.961 974.125 211.961C975.833 211.961 977.541 211.309 978.845 210.007C981.454 207.4 981.456 203.172 978.849 200.563L948.935 170.622C954.898 164.341 959.626 157.13 962.997 149.159C966.744 140.301 968.644 130.894 968.644 121.201C968.644 111.508 966.744 102.101 962.997 93.2425C959.379 84.6893 954.201 77.0091 947.608 70.4151C941.014 63.8213 933.333 58.6435 924.78 55.0257C915.921 51.2787 906.515 49.3789 896.822 49.3789C887.129 49.3789 877.722 51.2789 868.863 55.0257C860.31 58.6435 852.63 63.8213 846.036 70.4151C839.442 77.0089 834.265 84.6893 830.647 93.2425C826.9 102.101 825 111.508 825 121.201C825 130.894 826.9 140.301 830.647 149.159C834.264 157.713 839.442 165.393 846.036 171.987ZM855.48 79.8591C866.523 68.8163 881.205 62.7347 896.822 62.7347C912.439 62.7347 927.121 68.8163 938.164 79.8591C949.206 90.9019 955.288 105.584 955.288 121.201C955.288 136.818 949.206 151.5 938.164 162.543C927.121 173.586 912.439 179.667 896.822 179.667C881.205 179.667 866.523 173.586 855.48 162.543C844.437 151.5 838.356 136.818 838.356 121.201C838.356 105.584 844.437 90.9019 855.48 79.8591Z" fill="white"/>
<g filter="url(#filter0_di_764_2298)">
<g clip-path="url(#clip1_764_2298)">
<path d="M837 121C837 87.8629 863.863 61 897 61C930.137 61 957 87.8629 957 121C957 154.137 930.137 181 897 181C863.863 181 837 154.137 837 121Z" fill="#0C0A09"/>
<path d="M908.163 83.3701C910.388 82.0662 912.921 81.3789 915.5 81.3789C918.079 81.3789 920.612 82.0662 922.837 83.3701L959.924 105.115C962.109 106.395 963.92 108.224 965.179 110.42C966.438 112.617 967.1 115.104 967.1 117.636V161.375C967.098 163.905 966.435 166.391 965.177 168.586C963.918 170.781 962.107 172.609 959.924 173.888L922.837 195.632C920.612 196.936 918.079 197.624 915.5 197.624C912.921 197.624 910.388 196.936 908.163 195.632L871.076 173.888C868.891 172.608 867.08 170.779 865.821 168.582C864.562 166.386 863.9 163.898 863.9 161.367V117.636C863.9 115.104 864.562 112.617 865.821 110.42C867.08 108.224 868.891 106.395 871.076 105.115L908.163 83.3701ZM917.943 91.7148C917.202 91.2812 916.359 91.0526 915.5 91.0526C914.641 91.0526 913.798 91.2812 913.057 91.7148L875.969 113.459C875.24 113.886 874.636 114.496 874.216 115.229C873.796 115.961 873.575 116.791 873.575 117.636V161.375C873.576 162.218 873.798 163.046 874.218 163.777C874.638 164.509 875.242 165.117 875.969 165.543L913.057 187.288C913.798 187.721 914.641 187.95 915.5 187.95C916.359 187.95 917.202 187.721 917.943 187.288L955.03 165.543C955.759 165.117 956.364 164.507 956.784 163.774C957.204 163.041 957.425 162.211 957.425 161.367V117.636C957.425 116.791 957.204 115.961 956.784 115.229C956.364 114.496 955.759 113.886 955.03 113.459L917.943 91.7148Z" fill="#9B9378"/>
<path d="M913.138 143.716L865.569 117.109L870.293 108.668L915.476 133.944L959.868 108.684L964.657 117.093L917.894 143.7C917.17 144.112 916.352 144.33 915.518 144.333C914.685 144.336 913.865 144.123 913.138 143.716Z" fill="#9B9378"/>
<path d="M910.662 194.785V139.5H920.337V194.785H910.662Z" fill="#9B9378"/>
</g>
</g>
<defs>
<filter id="filter0_di_764_2298" x="802.7" y="26.7" width="188.6" height="188.6" filterUnits="userSpaceOnUse" color-interpolation-filters="sRGB">
<feFlood flood-opacity="0" result="BackgroundImageFix"/>
<feColorMatrix in="SourceAlpha" type="matrix" values="0 0 0 0 0 0 0 0 0 0 0 0 0 0 0 0 0 0 127 0" result="hardAlpha"/>
<feMorphology radius="2" operator="dilate" in="SourceAlpha" result="effect1_dropShadow_764_2298"/>
<feOffset/>
<feGaussianBlur stdDeviation="16.15"/>
<feComposite in2="hardAlpha" operator="out"/>
<feColorMatrix type="matrix" values="0 0 0 0 0.682353 0 0 0 0 0.647059 0 0 0 0 0.509804 0 0 0 1 0"/>
<feBlend mode="normal" in2="BackgroundImageFix" result="effect1_dropShadow_764_2298"/>
<feBlend mode="normal" in="SourceGraphic" in2="effect1_dropShadow_764_2298" result="shape"/>
<feColorMatrix in="SourceAlpha" type="matrix" values="0 0 0 0 0 0 0 0 0 0 0 0 0 0 0 0 0 0 127 0" result="hardAlpha"/>
<feOffset/>
<feGaussianBlur stdDeviation="4"/>
<feComposite in2="hardAlpha" operator="arithmetic" k2="-1" k3="1"/>
<feColorMatrix type="matrix" values="0 0 0 0 0.713726 0 0 0 0 0.678431 0 0 0 0 0.552941 0 0 0 1 0"/>
<feBlend mode="normal" in2="shape" result="effect2_innerShadow_764_2298"/>
</filter>
<clipPath id="clip0_764_2298">
<rect width="79.5931" height="10.4727" fill="white" transform="translate(784.759 60.5635)"/>
</clipPath>
<clipPath id="clip1_764_2298">
<path d="M837 121C837 87.8629 863.863 61 897 61C930.137 61 957 87.8629 957 121C957 154.137 930.137 181 897 181C863.863 181 837 154.137 837 121Z" fill="white"/>
</clipPath>
</defs>
</svg>
