<svg width="414" height="288" viewBox="0 0 414 288" fill="none" xmlns="http://www.w3.org/2000/svg">
<g clip-path="url(#clip0_895_3423)">
<rect width="414" height="288" rx="16" fill="#F1EFE8"/>
<path d="M18.2969 -39V177.8" stroke="url(#paint0_linear_895_3423)" stroke-width="0.6" stroke-linecap="round" stroke-linejoin="round"/>
<path d="M42.2085 -39V177.8" stroke="url(#paint1_linear_895_3423)" stroke-width="0.6" stroke-linecap="round" stroke-linejoin="round"/>
<path d="M66.1201 -39V177.8" stroke="url(#paint2_linear_895_3423)" stroke-width="0.6" stroke-linecap="round" stroke-linejoin="round"/>
<path d="M412.044 21.5762L2.3557 21.5762" stroke="url(#paint3_linear_895_3423)" stroke-width="0.6" stroke-linecap="round" stroke-linejoin="round"/>
<path d="M90.0322 -39V177.8" stroke="url(#paint4_linear_895_3423)" stroke-width="0.6" stroke-linecap="round" stroke-linejoin="round"/>
<path d="M412.044 45.4885L2.3557 45.4885" stroke="url(#paint5_linear_895_3423)" stroke-width="0.6" stroke-linecap="round" stroke-linejoin="round"/>
<path d="M113.944 -39V177.8" stroke="url(#paint6_linear_895_3423)" stroke-width="0.6" stroke-linecap="round" stroke-linejoin="round"/>
<path d="M412.044 69.4003L2.3557 69.4003" stroke="url(#paint7_linear_895_3423)" stroke-width="0.6" stroke-linecap="round" stroke-linejoin="round"/>
<path d="M137.855 -39V177.8" stroke="url(#paint8_linear_895_3423)" stroke-width="0.6" stroke-linecap="round" stroke-linejoin="round"/>
<path d="M412.044 93.3125L2.3557 93.3125" stroke="url(#paint9_linear_895_3423)" stroke-width="0.6" stroke-linecap="round" stroke-linejoin="round"/>
<path d="M161.768 -39V177.8" stroke="url(#paint10_linear_895_3423)" stroke-width="0.6" stroke-linecap="round" stroke-linejoin="round"/>
<path d="M412.044 117.225L2.3557 117.225" stroke="url(#paint11_linear_895_3423)" stroke-width="0.6" stroke-linecap="round" stroke-linejoin="round"/>
<path d="M185.679 -39V177.8" stroke="url(#paint12_linear_895_3423)" stroke-width="0.6" stroke-linecap="round" stroke-linejoin="round"/>
<path d="M412.044 141.135L2.3557 141.135" stroke="url(#paint13_linear_895_3423)" stroke-width="0.6" stroke-linecap="round" stroke-linejoin="round"/>
<path d="M209.591 -39V177.8" stroke="url(#paint14_linear_895_3423)" stroke-width="0.6" stroke-linecap="round" stroke-linejoin="round"/>
<path d="M412.044 165.047L2.3557 165.047" stroke="url(#paint15_linear_895_3423)" stroke-width="0.6" stroke-linecap="round" stroke-linejoin="round"/>
<path d="M233.503 -39V177.8" stroke="url(#paint16_linear_895_3423)" stroke-width="0.6" stroke-linecap="round" stroke-linejoin="round"/>
<path d="M257.415 -39V177.8" stroke="url(#paint17_linear_895_3423)" stroke-width="0.6" stroke-linecap="round" stroke-linejoin="round"/>
<path d="M281.326 -39V177.8" stroke="url(#paint18_linear_895_3423)" stroke-width="0.6" stroke-linecap="round" stroke-linejoin="round"/>
<path d="M305.238 -39V177.8" stroke="url(#paint19_linear_895_3423)" stroke-width="0.6" stroke-linecap="round" stroke-linejoin="round"/>
<path d="M329.149 -39V177.8" stroke="url(#paint20_linear_895_3423)" stroke-width="0.6" stroke-linecap="round" stroke-linejoin="round"/>
<path d="M353.062 -39V177.8" stroke="url(#paint21_linear_895_3423)" stroke-width="0.6" stroke-linecap="round" stroke-linejoin="round"/>
<path d="M376.974 -39V177.8" stroke="url(#paint22_linear_895_3423)" stroke-width="0.6" stroke-linecap="round" stroke-linejoin="round"/>
<path d="M400.885 -39V177.8" stroke="url(#paint23_linear_895_3423)" stroke-width="0.6" stroke-linecap="round" stroke-linejoin="round"/>
<g filter="url(#filter0_f_895_3423)">
<circle cx="208" cy="407" r="318" fill="#E6E2D5" fill-opacity="0.5"/>
</g>
<path d="M303 153C282.167 141.5 238.8 105 232 51" stroke="url(#paint24_linear_895_3423)" stroke-width="4"/>
<path d="M268 178C252.167 163.167 220.5 117.7 220.5 54.5" stroke="url(#paint25_linear_895_3423)" stroke-width="4"/>
<path d="M111 153C131.833 141.5 175.2 105 182 51" stroke="url(#paint26_linear_895_3423)" stroke-width="4"/>
<path d="M146 178C161.833 163.167 193.5 117.7 193.5 54.5" stroke="url(#paint27_linear_895_3423)" stroke-width="4"/>
<g filter="url(#filter1_di_895_3423)">
<path d="M147 -0.5C147 -33.9132 174.087 -61 207.5 -61C240.913 -61 268 -33.9132 268 -0.5C268 32.9132 240.913 60 207.5 60C174.087 60 147 32.9132 147 -0.5Z" fill="#22201C"/>
<path d="M208.532 16.3112H237.046C237.299 16.3112 237.542 16.2171 237.721 16.0496C237.899 15.8821 238 15.6549 238 15.418V9.5064C238 9.4745 238 9.44388 238 9.41453C237.994 9.37145 237.985 9.32881 237.973 9.28694C237.973 9.28057 237.973 9.27414 237.973 9.26778C237.961 9.2241 237.945 9.18142 237.925 9.14018L237.917 9.12233C237.897 9.08185 237.873 9.04302 237.846 9.00623C237.82 8.97067 237.79 8.93697 237.759 8.90542L237.742 8.88882C237.71 8.85834 237.676 8.8298 237.64 8.80334L237.618 8.78929C237.58 8.76236 237.539 8.73848 237.497 8.71785L223.59 2.81137L223.568 2.80243L223.512 2.77819L223.475 2.76542L223.426 2.75012L223.379 2.73863L223.336 2.73096L223.279 2.72205H223.245H223.178H193.083L183.368 -1.39806L237.044 -1.4096C237.297 -1.4096 237.54 -1.5037 237.719 -1.67121C237.898 -1.83871 237.999 -2.06589 237.999 -2.30278V-8.20799C237.998 -8.24468 237.995 -8.28132 237.99 -8.31774V-8.33942C237.977 -8.43028 237.948 -8.51855 237.905 -8.601L237.896 -8.6163C237.874 -8.65517 237.85 -8.69269 237.823 -8.7286C237.818 -8.73486 237.813 -8.74081 237.808 -8.74645C237.78 -8.78224 237.749 -8.81556 237.715 -8.84598L237.703 -8.85747C237.667 -8.88841 237.629 -8.91697 237.59 -8.94295C237.546 -8.96951 237.5 -8.99338 237.453 -9.01442H237.445L223.518 -14.9209C223.394 -14.9732 223.26 -15.0002 223.124 -15L178.949 -14.9885C178.898 -14.9881 178.847 -14.9839 178.797 -14.9757H178.776C178.729 -14.9674 178.684 -14.9559 178.639 -14.9413L178.619 -14.9336C178.571 -14.9194 178.526 -14.9006 178.483 -14.8775H178.472C178.43 -14.8562 178.391 -14.8315 178.354 -14.8035L178.345 -14.7971C178.309 -14.7692 178.274 -14.7389 178.243 -14.7065L178.225 -14.6886C178.195 -14.6557 178.168 -14.6207 178.143 -14.584C178.138 -14.5779 178.134 -14.5715 178.13 -14.5648C178.104 -14.5262 178.082 -14.4856 178.064 -14.4436V-14.4347C178.045 -14.39 178.03 -14.3439 178.019 -14.2969C178.009 -14.2516 178.002 -14.2054 178 -14.1591C178 -14.1502 178 -14.1412 178 -14.1323C178 -14.1234 178 -14.117 178 -14.1093V-8.20285C178 -8.03131 178.053 -7.86345 178.152 -7.71931C178.252 -7.57518 178.393 -7.46086 178.56 -7.39004L188.461 -3.19465H178.949C178.898 -3.19431 178.847 -3.19003 178.797 -3.18187H178.776C178.729 -3.173 178.684 -3.16149 178.639 -3.14742L178.619 -3.13979C178.572 -3.12443 178.526 -3.10563 178.483 -3.08362L178.472 -3.07727C178.431 -3.05557 178.391 -3.03082 178.354 -3.00325L178.345 -2.99686C178.308 -2.96889 178.274 -2.93817 178.243 -2.905L178.225 -2.88712C178.195 -2.85485 178.167 -2.8203 178.143 -2.78379L178.13 -2.76463C178.104 -2.72378 178.082 -2.68112 178.064 -2.63703V-2.62812C178.045 -2.58345 178.03 -2.53734 178.019 -2.49031C178.009 -2.44496 178.002 -2.39885 178 -2.35249C178 -2.34356 178 -2.33463 178 -2.3257C178 -2.31677 178 -2.31168 178 -2.30402V3.60246C178 3.77421 178.053 3.94236 178.152 4.08675C178.251 4.23113 178.393 4.34564 178.56 4.41655L188.461 8.61322H178.949C178.898 8.61375 178.848 8.6176 178.797 8.62471H178.776C178.729 8.63243 178.684 8.64396 178.639 8.65917L178.619 8.6668C178.572 8.68118 178.526 8.69957 178.483 8.72169H178.472C178.43 8.74382 178.391 8.76897 178.354 8.79695C178.351 8.79832 178.347 8.80052 178.345 8.80334C178.309 8.83121 178.274 8.86148 178.243 8.89392L178.225 8.91181C178.195 8.94475 178.168 8.9797 178.143 9.01641C178.138 9.02249 178.134 9.0289 178.13 9.03557C178.104 9.07628 178.082 9.11897 178.064 9.16317V9.17208C178.045 9.21669 178.03 9.26281 178.019 9.30989C178.009 9.35523 178.002 9.40135 178 9.44771C178 9.45664 178 9.46557 178 9.4745C178 9.48343 178 9.4898 178 9.49746V15.4039C178 15.5755 178.053 15.7433 178.152 15.8875C178.252 16.0316 178.393 16.1459 178.56 16.2168L188.461 20.43H178.949C178.898 20.4304 178.847 20.4346 178.797 20.4428H178.776C178.729 20.4516 178.684 20.4632 178.639 20.4772L178.619 20.4849C178.572 20.4997 178.526 20.5185 178.483 20.541L178.472 20.5474C178.431 20.5691 178.391 20.5939 178.354 20.6214H178.345C178.308 20.6494 178.274 20.6801 178.243 20.7133L178.225 20.7299C178.195 20.7628 178.168 20.7978 178.143 20.8345L178.13 20.8536C178.104 20.8924 178.083 20.9329 178.064 20.9748V20.9838C178.045 21.0285 178.03 21.0746 178.019 21.1216C178.009 21.1665 178.002 21.2122 178 21.2581C178 21.2671 178 21.276 178 21.2862C178 21.2964 178 21.3002 178 21.3079V27.2144C178 27.3861 178.053 27.5543 178.152 27.6987C178.251 27.843 178.393 27.9575 178.56 28.0284L192.489 33.9336C192.512 33.9439 192.537 33.9528 192.56 33.9604L192.58 33.9668C192.608 33.9745 192.634 33.9822 192.661 33.9873H192.677C192.705 33.9929 192.733 33.9971 192.762 34H192.775C192.808 34 192.842 34 192.876 34H218.453C218.706 34 218.949 33.9059 219.128 33.7384C219.307 33.5709 219.407 33.3437 219.407 33.1068V27.2297C219.406 27.1934 219.404 27.1572 219.399 27.1212V27.0983C219.385 27.0095 219.356 26.9234 219.313 26.8431L219.305 26.8265C219.283 26.7878 219.259 26.7508 219.231 26.7155L219.216 26.6963C219.188 26.6611 219.158 26.6279 219.125 26.5968L219.111 26.5853C219.076 26.5548 219.039 26.5262 218.999 26.4998C218.956 26.4734 218.91 26.45 218.863 26.4296H218.855L204.926 20.5245C204.802 20.4717 204.668 20.4443 204.532 20.444H193.832V16.3252L208.532 16.3112ZM193.832 -3.19465V-7.3135L236.09 -7.32503V-3.20618L193.832 -3.19465ZM222.906 -13.2315L232.621 -9.11139L193.083 -9.09986L183.368 -13.22L222.906 -13.2315ZM179.899 -12.7274L191.919 -7.63121V-3.68588L179.899 -8.78978V-12.7274ZM197.12 8.61322H193.832V4.49309H222.911L232.628 8.61322H197.12ZM179.903 -0.920852L191.923 4.17537V8.12068L179.903 3.02444V-0.920852ZM192.878 10.3996H236.09V14.5197H193.083L183.368 10.3996H192.878ZM179.903 10.8908L191.923 15.9947V19.94L179.903 14.8361V10.8908ZM179.903 22.7038L191.923 27.8001V31.7454L179.903 26.6491V22.7038ZM193.832 32.2379V28.1229H217.5V32.243L193.832 32.2379ZM204.321 22.2113L214.038 26.3365H193.083L183.368 22.2164H204.321V22.2113Z" fill="white"/>
</g>
<path d="M207 60L207 188" stroke="url(#paint28_linear_895_3423)" stroke-width="4"/>
</g>
<defs>
<filter id="filter0_f_895_3423" x="-174.6" y="24.4" width="765.2" height="765.2" filterUnits="userSpaceOnUse" color-interpolation-filters="sRGB">
<feFlood flood-opacity="0" result="BackgroundImageFix"/>
<feBlend mode="normal" in="SourceGraphic" in2="BackgroundImageFix" result="shape"/>
<feGaussianBlur stdDeviation="32.3" result="effect1_foregroundBlur_895_3423"/>
</filter>
<filter id="filter1_di_895_3423" x="112.7" y="-95.3" width="189.6" height="189.6" filterUnits="userSpaceOnUse" color-interpolation-filters="sRGB">
<feFlood flood-opacity="0" result="BackgroundImageFix"/>
<feColorMatrix in="SourceAlpha" type="matrix" values="0 0 0 0 0 0 0 0 0 0 0 0 0 0 0 0 0 0 127 0" result="hardAlpha"/>
<feMorphology radius="2" operator="dilate" in="SourceAlpha" result="effect1_dropShadow_895_3423"/>
<feOffset/>
<feGaussianBlur stdDeviation="16.15"/>
<feComposite in2="hardAlpha" operator="out"/>
<feColorMatrix type="matrix" values="0 0 0 0 0.682353 0 0 0 0 0.647059 0 0 0 0 0.509804 0 0 0 1 0"/>
<feBlend mode="normal" in2="BackgroundImageFix" result="effect1_dropShadow_895_3423"/>
<feBlend mode="normal" in="SourceGraphic" in2="effect1_dropShadow_895_3423" result="shape"/>
<feColorMatrix in="SourceAlpha" type="matrix" values="0 0 0 0 0 0 0 0 0 0 0 0 0 0 0 0 0 0 127 0" result="hardAlpha"/>
<feOffset/>
<feGaussianBlur stdDeviation="4"/>
<feComposite in2="hardAlpha" operator="arithmetic" k2="-1" k3="1"/>
<feColorMatrix type="matrix" values="0 0 0 0 0.713726 0 0 0 0 0.678431 0 0 0 0 0.552941 0 0 0 1 0"/>
<feBlend mode="normal" in2="shape" result="effect2_innerShadow_895_3423"/>
</filter>
<linearGradient id="paint0_linear_895_3423" x1="18.7969" y1="-39" x2="18.7969" y2="177.8" gradientUnits="userSpaceOnUse">
<stop stop-color="#F8F7F3" stop-opacity="0"/>
<stop offset="0.480769" stop-color="#D9D2B6"/>
<stop offset="1" stop-color="#F8F7F3" stop-opacity="0"/>
</linearGradient>
<linearGradient id="paint1_linear_895_3423" x1="42.7085" y1="-39" x2="42.7085" y2="177.8" gradientUnits="userSpaceOnUse">
<stop stop-color="#F8F7F3" stop-opacity="0"/>
<stop offset="0.480769" stop-color="#D9D2B6"/>
<stop offset="1" stop-color="#F8F7F3" stop-opacity="0"/>
</linearGradient>
<linearGradient id="paint2_linear_895_3423" x1="66.6201" y1="-39" x2="66.6201" y2="177.8" gradientUnits="userSpaceOnUse">
<stop stop-color="#F8F7F3" stop-opacity="0"/>
<stop offset="0.480769" stop-color="#D9D2B6"/>
<stop offset="1" stop-color="#F8F7F3" stop-opacity="0"/>
</linearGradient>
<linearGradient id="paint3_linear_895_3423" x1="412.044" y1="22.0762" x2="2.35571" y2="22.0761" gradientUnits="userSpaceOnUse">
<stop stop-color="#F8F7F3" stop-opacity="0"/>
<stop offset="0.480769" stop-color="#D9D2B6"/>
<stop offset="1" stop-color="#F8F7F3" stop-opacity="0"/>
</linearGradient>
<linearGradient id="paint4_linear_895_3423" x1="90.5322" y1="-39" x2="90.5322" y2="177.8" gradientUnits="userSpaceOnUse">
<stop stop-color="#F8F7F3" stop-opacity="0"/>
<stop offset="0.480769" stop-color="#D9D2B6"/>
<stop offset="1" stop-color="#F8F7F3" stop-opacity="0"/>
</linearGradient>
<linearGradient id="paint5_linear_895_3423" x1="412.044" y1="45.9885" x2="2.35571" y2="45.9885" gradientUnits="userSpaceOnUse">
<stop stop-color="#F8F7F3" stop-opacity="0"/>
<stop offset="0.480769" stop-color="#D9D2B6"/>
<stop offset="1" stop-color="#F8F7F3" stop-opacity="0"/>
</linearGradient>
<linearGradient id="paint6_linear_895_3423" x1="114.444" y1="-39" x2="114.444" y2="177.8" gradientUnits="userSpaceOnUse">
<stop stop-color="#F8F7F3" stop-opacity="0"/>
<stop offset="0.480769" stop-color="#D9D2B6"/>
<stop offset="1" stop-color="#F8F7F3" stop-opacity="0"/>
</linearGradient>
<linearGradient id="paint7_linear_895_3423" x1="412.044" y1="69.9003" x2="2.35571" y2="69.9002" gradientUnits="userSpaceOnUse">
<stop stop-color="#F8F7F3" stop-opacity="0"/>
<stop offset="0.480769" stop-color="#D9D2B6"/>
<stop offset="1" stop-color="#F8F7F3" stop-opacity="0"/>
</linearGradient>
<linearGradient id="paint8_linear_895_3423" x1="138.355" y1="-39" x2="138.355" y2="177.8" gradientUnits="userSpaceOnUse">
<stop stop-color="#F8F7F3" stop-opacity="0"/>
<stop offset="0.480769" stop-color="#D9D2B6"/>
<stop offset="1" stop-color="#F8F7F3" stop-opacity="0"/>
</linearGradient>
<linearGradient id="paint9_linear_895_3423" x1="412.044" y1="93.8125" x2="2.35571" y2="93.8125" gradientUnits="userSpaceOnUse">
<stop stop-color="#F8F7F3" stop-opacity="0"/>
<stop offset="0.480769" stop-color="#D9D2B6"/>
<stop offset="1" stop-color="#F8F7F3" stop-opacity="0"/>
</linearGradient>
<linearGradient id="paint10_linear_895_3423" x1="162.268" y1="-39" x2="162.268" y2="177.8" gradientUnits="userSpaceOnUse">
<stop stop-color="#F8F7F3" stop-opacity="0"/>
<stop offset="0.480769" stop-color="#D9D2B6"/>
<stop offset="1" stop-color="#F8F7F3" stop-opacity="0"/>
</linearGradient>
<linearGradient id="paint11_linear_895_3423" x1="412.044" y1="117.725" x2="2.35571" y2="117.725" gradientUnits="userSpaceOnUse">
<stop stop-color="#F8F7F3" stop-opacity="0"/>
<stop offset="0.480769" stop-color="#D9D2B6"/>
<stop offset="1" stop-color="#F8F7F3" stop-opacity="0"/>
</linearGradient>
<linearGradient id="paint12_linear_895_3423" x1="186.179" y1="-39" x2="186.179" y2="177.8" gradientUnits="userSpaceOnUse">
<stop stop-color="#F8F7F3" stop-opacity="0"/>
<stop offset="0.480769" stop-color="#D9D2B6"/>
<stop offset="1" stop-color="#F8F7F3" stop-opacity="0"/>
</linearGradient>
<linearGradient id="paint13_linear_895_3423" x1="412.044" y1="141.635" x2="2.35571" y2="141.635" gradientUnits="userSpaceOnUse">
<stop stop-color="#F8F7F3" stop-opacity="0"/>
<stop offset="0.480769" stop-color="#D9D2B6"/>
<stop offset="1" stop-color="#F8F7F3" stop-opacity="0"/>
</linearGradient>
<linearGradient id="paint14_linear_895_3423" x1="210.091" y1="-39" x2="210.091" y2="177.8" gradientUnits="userSpaceOnUse">
<stop stop-color="#F8F7F3" stop-opacity="0"/>
<stop offset="0.480769" stop-color="#D9D2B6"/>
<stop offset="1" stop-color="#F8F7F3" stop-opacity="0"/>
</linearGradient>
<linearGradient id="paint15_linear_895_3423" x1="412.044" y1="165.547" x2="2.35571" y2="165.547" gradientUnits="userSpaceOnUse">
<stop stop-color="#F8F7F3" stop-opacity="0"/>
<stop offset="0.480769" stop-color="#D9D2B6"/>
<stop offset="1" stop-color="#F8F7F3" stop-opacity="0"/>
</linearGradient>
<linearGradient id="paint16_linear_895_3423" x1="234.003" y1="-39" x2="234.003" y2="177.8" gradientUnits="userSpaceOnUse">
<stop stop-color="#F8F7F3" stop-opacity="0"/>
<stop offset="0.480769" stop-color="#D9D2B6"/>
<stop offset="1" stop-color="#F8F7F3" stop-opacity="0"/>
</linearGradient>
<linearGradient id="paint17_linear_895_3423" x1="257.915" y1="-39" x2="257.915" y2="177.8" gradientUnits="userSpaceOnUse">
<stop stop-color="#F8F7F3" stop-opacity="0"/>
<stop offset="0.480769" stop-color="#D9D2B6"/>
<stop offset="1" stop-color="#F8F7F3" stop-opacity="0"/>
</linearGradient>
<linearGradient id="paint18_linear_895_3423" x1="281.826" y1="-39" x2="281.826" y2="177.8" gradientUnits="userSpaceOnUse">
<stop stop-color="#F8F7F3" stop-opacity="0"/>
<stop offset="0.480769" stop-color="#D9D2B6"/>
<stop offset="1" stop-color="#F8F7F3" stop-opacity="0"/>
</linearGradient>
<linearGradient id="paint19_linear_895_3423" x1="305.738" y1="-39" x2="305.738" y2="177.8" gradientUnits="userSpaceOnUse">
<stop stop-color="#F8F7F3" stop-opacity="0"/>
<stop offset="0.480769" stop-color="#D9D2B6"/>
<stop offset="1" stop-color="#F8F7F3" stop-opacity="0"/>
</linearGradient>
<linearGradient id="paint20_linear_895_3423" x1="329.649" y1="-39" x2="329.649" y2="177.8" gradientUnits="userSpaceOnUse">
<stop stop-color="#F8F7F3" stop-opacity="0"/>
<stop offset="0.480769" stop-color="#D9D2B6"/>
<stop offset="1" stop-color="#F8F7F3" stop-opacity="0"/>
</linearGradient>
<linearGradient id="paint21_linear_895_3423" x1="353.562" y1="-39" x2="353.562" y2="177.8" gradientUnits="userSpaceOnUse">
<stop stop-color="#F8F7F3" stop-opacity="0"/>
<stop offset="0.480769" stop-color="#D9D2B6"/>
<stop offset="1" stop-color="#F8F7F3" stop-opacity="0"/>
</linearGradient>
<linearGradient id="paint22_linear_895_3423" x1="377.474" y1="-39" x2="377.474" y2="177.8" gradientUnits="userSpaceOnUse">
<stop stop-color="#F8F7F3" stop-opacity="0"/>
<stop offset="0.480769" stop-color="#D9D2B6"/>
<stop offset="1" stop-color="#F8F7F3" stop-opacity="0"/>
</linearGradient>
<linearGradient id="paint23_linear_895_3423" x1="401.385" y1="-39" x2="401.385" y2="177.8" gradientUnits="userSpaceOnUse">
<stop stop-color="#F8F7F3" stop-opacity="0"/>
<stop offset="0.480769" stop-color="#D9D2B6"/>
<stop offset="1" stop-color="#F8F7F3" stop-opacity="0"/>
</linearGradient>
<linearGradient id="paint24_linear_895_3423" x1="267.5" y1="48.2109" x2="267.5" y2="153" gradientUnits="userSpaceOnUse">
<stop stop-color="#696352"/>
<stop offset="1" stop-color="#696352" stop-opacity="0"/>
</linearGradient>
<linearGradient id="paint25_linear_895_3423" x1="244.25" y1="51.123" x2="244.25" y2="178" gradientUnits="userSpaceOnUse">
<stop stop-color="#696352"/>
<stop offset="1" stop-color="#696352" stop-opacity="0"/>
</linearGradient>
<linearGradient id="paint26_linear_895_3423" x1="146.5" y1="48.2109" x2="146.5" y2="153" gradientUnits="userSpaceOnUse">
<stop stop-color="#696352"/>
<stop offset="1" stop-color="#696352" stop-opacity="0"/>
</linearGradient>
<linearGradient id="paint27_linear_895_3423" x1="169.75" y1="51.123" x2="169.75" y2="178" gradientUnits="userSpaceOnUse">
<stop stop-color="#696352"/>
<stop offset="1" stop-color="#696352" stop-opacity="0"/>
</linearGradient>
<linearGradient id="paint28_linear_895_3423" x1="207.5" y1="56.5" x2="207.5" y2="188" gradientUnits="userSpaceOnUse">
<stop stop-color="#696352"/>
<stop offset="1" stop-color="#696352" stop-opacity="0"/>
</linearGradient>
<clipPath id="clip0_895_3423">
<rect width="414" height="288" rx="16" fill="white"/>
</clipPath>
</defs>
</svg>
