<svg width="630" height="288" viewBox="0 0 630 288" fill="none" xmlns="http://www.w3.org/2000/svg">
<g clip-path="url(#clip0_895_3811)">
<rect width="630" height="288" rx="16" fill="#F1EFE8"/>
<path d="M15.9414 47V263.8" stroke="url(#paint0_linear_895_3811)" stroke-width="0.6" stroke-linecap="round" stroke-linejoin="round"/>
<path d="M409.688 59.7539L0.000234246 59.7539" stroke="url(#paint1_linear_895_3811)" stroke-width="0.6" stroke-linecap="round" stroke-linejoin="round"/>
<path d="M39.853 47V263.8" stroke="url(#paint2_linear_895_3811)" stroke-width="0.6" stroke-linecap="round" stroke-linejoin="round"/>
<path d="M409.688 83.6641L0.000234246 83.6641" stroke="url(#paint3_linear_895_3811)" stroke-width="0.6" stroke-linecap="round" stroke-linejoin="round"/>
<path d="M63.7646 47V263.8" stroke="url(#paint4_linear_895_3811)" stroke-width="0.6" stroke-linecap="round" stroke-linejoin="round"/>
<path d="M409.688 107.576L0.000234246 107.576" stroke="url(#paint5_linear_895_3811)" stroke-width="0.6" stroke-linecap="round" stroke-linejoin="round"/>
<path d="M87.6768 47V263.8" stroke="url(#paint6_linear_895_3811)" stroke-width="0.6" stroke-linecap="round" stroke-linejoin="round"/>
<path d="M409.688 131.489L0.000234246 131.489" stroke="url(#paint7_linear_895_3811)" stroke-width="0.6" stroke-linecap="round" stroke-linejoin="round"/>
<path d="M111.588 47V263.8" stroke="url(#paint8_linear_895_3811)" stroke-width="0.6" stroke-linecap="round" stroke-linejoin="round"/>
<path d="M409.688 155.4L0.000234246 155.4" stroke="url(#paint9_linear_895_3811)" stroke-width="0.6" stroke-linecap="round" stroke-linejoin="round"/>
<path d="M135.5 47V263.8" stroke="url(#paint10_linear_895_3811)" stroke-width="0.6" stroke-linecap="round" stroke-linejoin="round"/>
<path d="M409.688 179.312L0.000234246 179.312" stroke="url(#paint11_linear_895_3811)" stroke-width="0.6" stroke-linecap="round" stroke-linejoin="round"/>
<path d="M159.412 47V263.8" stroke="url(#paint12_linear_895_3811)" stroke-width="0.6" stroke-linecap="round" stroke-linejoin="round"/>
<path d="M409.688 203.225L0.000234246 203.225" stroke="url(#paint13_linear_895_3811)" stroke-width="0.6" stroke-linecap="round" stroke-linejoin="round"/>
<path d="M183.324 47V263.8" stroke="url(#paint14_linear_895_3811)" stroke-width="0.6" stroke-linecap="round" stroke-linejoin="round"/>
<path d="M409.688 227.135L0.000234246 227.135" stroke="url(#paint15_linear_895_3811)" stroke-width="0.6" stroke-linecap="round" stroke-linejoin="round"/>
<path d="M207.235 47V263.8" stroke="url(#paint16_linear_895_3811)" stroke-width="0.6" stroke-linecap="round" stroke-linejoin="round"/>
<path d="M409.688 251.047L0.000234246 251.047" stroke="url(#paint17_linear_895_3811)" stroke-width="0.6" stroke-linecap="round" stroke-linejoin="round"/>
<path d="M231.147 47V263.8" stroke="url(#paint18_linear_895_3811)" stroke-width="0.6" stroke-linecap="round" stroke-linejoin="round"/>
<path d="M255.059 47V263.8" stroke="url(#paint19_linear_895_3811)" stroke-width="0.6" stroke-linecap="round" stroke-linejoin="round"/>
<path d="M278.971 47V263.8" stroke="url(#paint20_linear_895_3811)" stroke-width="0.6" stroke-linecap="round" stroke-linejoin="round"/>
<path d="M302.883 47V263.8" stroke="url(#paint21_linear_895_3811)" stroke-width="0.6" stroke-linecap="round" stroke-linejoin="round"/>
<path d="M326.794 47V263.8" stroke="url(#paint22_linear_895_3811)" stroke-width="0.6" stroke-linecap="round" stroke-linejoin="round"/>
<path d="M350.706 47V263.8" stroke="url(#paint23_linear_895_3811)" stroke-width="0.6" stroke-linecap="round" stroke-linejoin="round"/>
<path d="M374.618 47V263.8" stroke="url(#paint24_linear_895_3811)" stroke-width="0.6" stroke-linecap="round" stroke-linejoin="round"/>
<path d="M398.53 47V263.8" stroke="url(#paint25_linear_895_3811)" stroke-width="0.6" stroke-linecap="round" stroke-linejoin="round"/>
<path opacity="0.6" d="M636 143.51L551.5 143.51" stroke="url(#paint26_linear_895_3811)" stroke-width="4"/>
<path opacity="0.6" d="M624.007 -8.24243L529.007 86.7576" stroke="url(#paint27_linear_895_3811)" stroke-width="4"/>
<path opacity="0.6" d="M300 303L398 205" stroke="url(#paint28_linear_895_3811)" stroke-width="4"/>
<path opacity="0.6" d="M267 144L370 144" stroke="url(#paint29_linear_895_3811)" stroke-width="4"/>
<path opacity="0.6" d="M460.01 -32L460.01 52.5" stroke="url(#paint30_linear_895_3811)" stroke-width="4"/>
<path opacity="0.6" d="M460 319.5L460 235" stroke="url(#paint31_linear_895_3811)" stroke-width="4"/>
<g filter="url(#filter0_di_895_3811)">
<path d="M369 144C369 93.6312 409.832 52.7996 460.2 52.7996C510.568 52.7996 551.4 93.6312 551.4 144C551.4 194.368 510.568 235.2 460.2 235.2C409.832 235.2 369 194.368 369 144Z" fill="#22201C" shape-rendering="crispEdges"/>
<path d="M460.2 45.5994C514.545 45.5995 558.6 89.655 558.6 144C558.6 198.344 514.545 242.399 460.2 242.399C405.855 242.399 361.8 198.344 361.8 144C361.8 89.655 405.855 45.5994 460.2 45.5994Z" stroke="#D9D5C3" stroke-opacity="0.2" stroke-width="14.4" shape-rendering="crispEdges"/>
<g clip-path="url(#clip1_895_3811)">
<path d="M502.162 111.313C502.162 109.429 500.624 107.891 498.74 107.841L494.92 107.792C494.672 107.792 486.786 107.544 478.751 104.27C470.269 100.798 464.764 96.8798 464.565 96.7806L462.284 95.0942C461.044 94.2014 459.407 94.2014 458.216 95.0942L455.935 96.731C455.885 96.7806 450.28 100.798 441.749 104.27C433.714 107.544 425.778 107.792 425.58 107.792H421.661C419.776 107.841 418.239 109.379 418.239 111.264V150.051C418.239 159.773 423.794 170.635 433.516 179.91C442.344 188.342 452.562 193.6 460.2 193.6C467.839 193.6 478.056 188.342 486.885 179.91C496.607 170.635 502.162 159.773 502.162 150.051V111.313ZM482.074 174.901C474.733 181.894 465.904 186.656 460.2 186.656C454.496 186.656 445.668 181.944 438.327 174.901C429.994 166.965 425.232 157.888 425.232 150.101V114.736H425.629C426.423 114.736 435.252 114.389 444.328 110.718C453.604 106.899 459.704 102.534 459.952 102.336L460.2 102.137L460.448 102.336C461.192 102.881 467.095 106.998 476.122 110.669C485.199 114.339 494.028 114.686 494.821 114.686H495.218V150.051C495.218 157.888 490.407 166.915 482.074 174.901Z" fill="#F1EFE8"/>
<path d="M475.427 128.526L455.587 148.366L447.205 140.034C445.469 138.298 442.691 138.298 440.955 140.034C439.219 141.77 439.219 144.547 440.955 146.283L452.413 157.741C453.256 158.584 454.347 159.03 455.538 159.03C456.728 159.03 457.819 158.584 458.663 157.741L481.627 134.776C483.363 133.04 483.363 130.262 481.627 128.526C479.941 126.79 477.163 126.79 475.427 128.526Z" fill="#F1EFE8"/>
</g>
</g>
</g>
<defs>
<filter id="filter0_di_895_3811" x="299.72" y="-16.4805" width="320.96" height="320.96" filterUnits="userSpaceOnUse" color-interpolation-filters="sRGB">
<feFlood flood-opacity="0" result="BackgroundImageFix"/>
<feColorMatrix in="SourceAlpha" type="matrix" values="0 0 0 0 0 0 0 0 0 0 0 0 0 0 0 0 0 0 127 0" result="hardAlpha"/>
<feMorphology radius="3.2" operator="dilate" in="SourceAlpha" result="effect1_dropShadow_895_3811"/>
<feOffset/>
<feGaussianBlur stdDeviation="25.84"/>
<feComposite in2="hardAlpha" operator="out"/>
<feColorMatrix type="matrix" values="0 0 0 0 0.682353 0 0 0 0 0.647059 0 0 0 0 0.509804 0 0 0 1 0"/>
<feBlend mode="normal" in2="BackgroundImageFix" result="effect1_dropShadow_895_3811"/>
<feBlend mode="normal" in="SourceGraphic" in2="effect1_dropShadow_895_3811" result="shape"/>
<feColorMatrix in="SourceAlpha" type="matrix" values="0 0 0 0 0 0 0 0 0 0 0 0 0 0 0 0 0 0 127 0" result="hardAlpha"/>
<feOffset/>
<feGaussianBlur stdDeviation="6.4"/>
<feComposite in2="hardAlpha" operator="arithmetic" k2="-1" k3="1"/>
<feColorMatrix type="matrix" values="0 0 0 0 0.713726 0 0 0 0 0.678431 0 0 0 0 0.552941 0 0 0 1 0"/>
<feBlend mode="normal" in2="shape" result="effect2_innerShadow_895_3811"/>
</filter>
<linearGradient id="paint0_linear_895_3811" x1="16.4414" y1="47" x2="16.4414" y2="263.8" gradientUnits="userSpaceOnUse">
<stop stop-color="#F8F7F3" stop-opacity="0"/>
<stop offset="0.480769" stop-color="#D9D2B6"/>
<stop offset="1" stop-color="#F8F7F3" stop-opacity="0"/>
</linearGradient>
<linearGradient id="paint1_linear_895_3811" x1="409.688" y1="60.2539" x2="0.000244099" y2="60.2539" gradientUnits="userSpaceOnUse">
<stop stop-color="#F8F7F3" stop-opacity="0"/>
<stop offset="0.480769" stop-color="#D9D2B6"/>
<stop offset="1" stop-color="#F8F7F3" stop-opacity="0"/>
</linearGradient>
<linearGradient id="paint2_linear_895_3811" x1="40.353" y1="47" x2="40.353" y2="263.8" gradientUnits="userSpaceOnUse">
<stop stop-color="#F8F7F3" stop-opacity="0"/>
<stop offset="0.480769" stop-color="#D9D2B6"/>
<stop offset="1" stop-color="#F8F7F3" stop-opacity="0"/>
</linearGradient>
<linearGradient id="paint3_linear_895_3811" x1="409.688" y1="84.1641" x2="0.000244099" y2="84.164" gradientUnits="userSpaceOnUse">
<stop stop-color="#F8F7F3" stop-opacity="0"/>
<stop offset="0.480769" stop-color="#D9D2B6"/>
<stop offset="1" stop-color="#F8F7F3" stop-opacity="0"/>
</linearGradient>
<linearGradient id="paint4_linear_895_3811" x1="64.2646" y1="47" x2="64.2646" y2="263.8" gradientUnits="userSpaceOnUse">
<stop stop-color="#F8F7F3" stop-opacity="0"/>
<stop offset="0.480769" stop-color="#D9D2B6"/>
<stop offset="1" stop-color="#F8F7F3" stop-opacity="0"/>
</linearGradient>
<linearGradient id="paint5_linear_895_3811" x1="409.688" y1="108.076" x2="0.000244099" y2="108.076" gradientUnits="userSpaceOnUse">
<stop stop-color="#F8F7F3" stop-opacity="0"/>
<stop offset="0.480769" stop-color="#D9D2B6"/>
<stop offset="1" stop-color="#F8F7F3" stop-opacity="0"/>
</linearGradient>
<linearGradient id="paint6_linear_895_3811" x1="88.1768" y1="47" x2="88.1768" y2="263.8" gradientUnits="userSpaceOnUse">
<stop stop-color="#F8F7F3" stop-opacity="0"/>
<stop offset="0.480769" stop-color="#D9D2B6"/>
<stop offset="1" stop-color="#F8F7F3" stop-opacity="0"/>
</linearGradient>
<linearGradient id="paint7_linear_895_3811" x1="409.688" y1="131.989" x2="0.000244099" y2="131.988" gradientUnits="userSpaceOnUse">
<stop stop-color="#F8F7F3" stop-opacity="0"/>
<stop offset="0.480769" stop-color="#D9D2B6"/>
<stop offset="1" stop-color="#F8F7F3" stop-opacity="0"/>
</linearGradient>
<linearGradient id="paint8_linear_895_3811" x1="112.088" y1="47" x2="112.088" y2="263.8" gradientUnits="userSpaceOnUse">
<stop stop-color="#F8F7F3" stop-opacity="0"/>
<stop offset="0.480769" stop-color="#D9D2B6"/>
<stop offset="1" stop-color="#F8F7F3" stop-opacity="0"/>
</linearGradient>
<linearGradient id="paint9_linear_895_3811" x1="409.688" y1="155.9" x2="0.000244099" y2="155.9" gradientUnits="userSpaceOnUse">
<stop stop-color="#F8F7F3" stop-opacity="0"/>
<stop offset="0.480769" stop-color="#D9D2B6"/>
<stop offset="1" stop-color="#F8F7F3" stop-opacity="0"/>
</linearGradient>
<linearGradient id="paint10_linear_895_3811" x1="136" y1="47" x2="136" y2="263.8" gradientUnits="userSpaceOnUse">
<stop stop-color="#F8F7F3" stop-opacity="0"/>
<stop offset="0.480769" stop-color="#D9D2B6"/>
<stop offset="1" stop-color="#F8F7F3" stop-opacity="0"/>
</linearGradient>
<linearGradient id="paint11_linear_895_3811" x1="409.688" y1="179.812" x2="0.000244099" y2="179.812" gradientUnits="userSpaceOnUse">
<stop stop-color="#F8F7F3" stop-opacity="0"/>
<stop offset="0.480769" stop-color="#D9D2B6"/>
<stop offset="1" stop-color="#F8F7F3" stop-opacity="0"/>
</linearGradient>
<linearGradient id="paint12_linear_895_3811" x1="159.912" y1="47" x2="159.912" y2="263.8" gradientUnits="userSpaceOnUse">
<stop stop-color="#F8F7F3" stop-opacity="0"/>
<stop offset="0.480769" stop-color="#D9D2B6"/>
<stop offset="1" stop-color="#F8F7F3" stop-opacity="0"/>
</linearGradient>
<linearGradient id="paint13_linear_895_3811" x1="409.688" y1="203.725" x2="0.000244099" y2="203.725" gradientUnits="userSpaceOnUse">
<stop stop-color="#F8F7F3" stop-opacity="0"/>
<stop offset="0.480769" stop-color="#D9D2B6"/>
<stop offset="1" stop-color="#F8F7F3" stop-opacity="0"/>
</linearGradient>
<linearGradient id="paint14_linear_895_3811" x1="183.824" y1="47" x2="183.824" y2="263.8" gradientUnits="userSpaceOnUse">
<stop stop-color="#F8F7F3" stop-opacity="0"/>
<stop offset="0.480769" stop-color="#D9D2B6"/>
<stop offset="1" stop-color="#F8F7F3" stop-opacity="0"/>
</linearGradient>
<linearGradient id="paint15_linear_895_3811" x1="409.688" y1="227.635" x2="0.000244099" y2="227.635" gradientUnits="userSpaceOnUse">
<stop stop-color="#F8F7F3" stop-opacity="0"/>
<stop offset="0.480769" stop-color="#D9D2B6"/>
<stop offset="1" stop-color="#F8F7F3" stop-opacity="0"/>
</linearGradient>
<linearGradient id="paint16_linear_895_3811" x1="207.735" y1="47" x2="207.735" y2="263.8" gradientUnits="userSpaceOnUse">
<stop stop-color="#F8F7F3" stop-opacity="0"/>
<stop offset="0.480769" stop-color="#D9D2B6"/>
<stop offset="1" stop-color="#F8F7F3" stop-opacity="0"/>
</linearGradient>
<linearGradient id="paint17_linear_895_3811" x1="409.688" y1="251.547" x2="0.000244099" y2="251.547" gradientUnits="userSpaceOnUse">
<stop stop-color="#F8F7F3" stop-opacity="0"/>
<stop offset="0.480769" stop-color="#D9D2B6"/>
<stop offset="1" stop-color="#F8F7F3" stop-opacity="0"/>
</linearGradient>
<linearGradient id="paint18_linear_895_3811" x1="231.647" y1="47" x2="231.647" y2="263.8" gradientUnits="userSpaceOnUse">
<stop stop-color="#F8F7F3" stop-opacity="0"/>
<stop offset="0.480769" stop-color="#D9D2B6"/>
<stop offset="1" stop-color="#F8F7F3" stop-opacity="0"/>
</linearGradient>
<linearGradient id="paint19_linear_895_3811" x1="255.559" y1="47" x2="255.559" y2="263.8" gradientUnits="userSpaceOnUse">
<stop stop-color="#F8F7F3" stop-opacity="0"/>
<stop offset="0.480769" stop-color="#D9D2B6"/>
<stop offset="1" stop-color="#F8F7F3" stop-opacity="0"/>
</linearGradient>
<linearGradient id="paint20_linear_895_3811" x1="279.471" y1="47" x2="279.471" y2="263.8" gradientUnits="userSpaceOnUse">
<stop stop-color="#F8F7F3" stop-opacity="0"/>
<stop offset="0.480769" stop-color="#D9D2B6"/>
<stop offset="1" stop-color="#F8F7F3" stop-opacity="0"/>
</linearGradient>
<linearGradient id="paint21_linear_895_3811" x1="303.383" y1="47" x2="303.383" y2="263.8" gradientUnits="userSpaceOnUse">
<stop stop-color="#F8F7F3" stop-opacity="0"/>
<stop offset="0.480769" stop-color="#D9D2B6"/>
<stop offset="1" stop-color="#F8F7F3" stop-opacity="0"/>
</linearGradient>
<linearGradient id="paint22_linear_895_3811" x1="327.294" y1="47" x2="327.294" y2="263.8" gradientUnits="userSpaceOnUse">
<stop stop-color="#F8F7F3" stop-opacity="0"/>
<stop offset="0.480769" stop-color="#D9D2B6"/>
<stop offset="1" stop-color="#F8F7F3" stop-opacity="0"/>
</linearGradient>
<linearGradient id="paint23_linear_895_3811" x1="351.206" y1="47" x2="351.206" y2="263.8" gradientUnits="userSpaceOnUse">
<stop stop-color="#F8F7F3" stop-opacity="0"/>
<stop offset="0.480769" stop-color="#D9D2B6"/>
<stop offset="1" stop-color="#F8F7F3" stop-opacity="0"/>
</linearGradient>
<linearGradient id="paint24_linear_895_3811" x1="375.118" y1="47" x2="375.118" y2="263.8" gradientUnits="userSpaceOnUse">
<stop stop-color="#F8F7F3" stop-opacity="0"/>
<stop offset="0.480769" stop-color="#D9D2B6"/>
<stop offset="1" stop-color="#F8F7F3" stop-opacity="0"/>
</linearGradient>
<linearGradient id="paint25_linear_895_3811" x1="399.03" y1="47" x2="399.03" y2="263.8" gradientUnits="userSpaceOnUse">
<stop stop-color="#F8F7F3" stop-opacity="0"/>
<stop offset="0.480769" stop-color="#D9D2B6"/>
<stop offset="1" stop-color="#F8F7F3" stop-opacity="0"/>
</linearGradient>
<linearGradient id="paint26_linear_895_3811" x1="548.609" y1="144.571" x2="632.5" y2="144.531" gradientUnits="userSpaceOnUse">
<stop stop-color="#C7AF6B"/>
<stop offset="1" stop-color="#C7AF6B" stop-opacity="0"/>
</linearGradient>
<linearGradient id="paint27_linear_895_3811" x1="526.507" y1="90.7578" x2="619.195" y2="-2.06956" gradientUnits="userSpaceOnUse">
<stop stop-color="#C7AF6B"/>
<stop offset="1" stop-color="#C7AF6B" stop-opacity="0"/>
</linearGradient>
<linearGradient id="paint28_linear_895_3811" x1="400.602" y1="200.897" x2="304.075" y2="297.574" gradientUnits="userSpaceOnUse">
<stop stop-color="#C7AF6B"/>
<stop offset="1" stop-color="#C7AF6B" stop-opacity="0"/>
</linearGradient>
<linearGradient id="paint29_linear_895_3811" x1="373.524" y1="142.939" x2="267" y2="143" gradientUnits="userSpaceOnUse">
<stop stop-color="#C7AF6B"/>
<stop offset="1" stop-color="#C7AF6B" stop-opacity="0"/>
</linearGradient>
<linearGradient id="paint30_linear_895_3811" x1="461.071" y1="55.3908" x2="461.042" y2="-5.09343" gradientUnits="userSpaceOnUse">
<stop stop-color="#C7AF6B"/>
<stop offset="1" stop-color="#C7AF6B" stop-opacity="0"/>
</linearGradient>
<linearGradient id="paint31_linear_895_3811" x1="458.939" y1="232.109" x2="458.968" y2="292.593" gradientUnits="userSpaceOnUse">
<stop stop-color="#C7AF6B"/>
<stop offset="1" stop-color="#C7AF6B" stop-opacity="0"/>
</linearGradient>
<clipPath id="clip0_895_3811">
<rect width="630" height="288" rx="16" fill="white"/>
</clipPath>
<clipPath id="clip1_895_3811">
<rect width="99.2" height="99.2" fill="white" transform="translate(410.6 94.4001)"/>
</clipPath>
</defs>
</svg>
