<svg width="305" height="288" viewBox="0 0 305 288" fill="none" xmlns="http://www.w3.org/2000/svg">
<g clip-path="url(#clip0_895_3556)">
<rect width="305" height="288" rx="16" fill="#F1EFE8"/>
<g filter="url(#filter0_f_895_3556)">
<circle cx="153.5" cy="263.5" r="159.5" fill="#E6E2D5" fill-opacity="0.5"/>
</g>
<path d="M11.7646 -39V177.8" stroke="url(#paint0_linear_895_3556)" stroke-width="0.6" stroke-linecap="round" stroke-linejoin="round"/>
<path d="M357.688 21.5762L-51.9998 21.5762" stroke="url(#paint1_linear_895_3556)" stroke-width="0.6" stroke-linecap="round" stroke-linejoin="round"/>
<path d="M35.6768 -39V177.8" stroke="url(#paint2_linear_895_3556)" stroke-width="0.6" stroke-linecap="round" stroke-linejoin="round"/>
<path d="M357.688 45.4885L-51.9998 45.4885" stroke="url(#paint3_linear_895_3556)" stroke-width="0.6" stroke-linecap="round" stroke-linejoin="round"/>
<path d="M59.5884 -39V177.8" stroke="url(#paint4_linear_895_3556)" stroke-width="0.6" stroke-linecap="round" stroke-linejoin="round"/>
<path d="M357.688 69.4003L-51.9998 69.4003" stroke="url(#paint5_linear_895_3556)" stroke-width="0.6" stroke-linecap="round" stroke-linejoin="round"/>
<path d="M83.5 -39V177.8" stroke="url(#paint6_linear_895_3556)" stroke-width="0.6" stroke-linecap="round" stroke-linejoin="round"/>
<path d="M357.688 93.3125L-51.9998 93.3125" stroke="url(#paint7_linear_895_3556)" stroke-width="0.6" stroke-linecap="round" stroke-linejoin="round"/>
<path d="M107.412 -39V177.8" stroke="url(#paint8_linear_895_3556)" stroke-width="0.6" stroke-linecap="round" stroke-linejoin="round"/>
<path d="M357.688 117.225L-51.9998 117.225" stroke="url(#paint9_linear_895_3556)" stroke-width="0.6" stroke-linecap="round" stroke-linejoin="round"/>
<path d="M131.324 -39V177.8" stroke="url(#paint10_linear_895_3556)" stroke-width="0.6" stroke-linecap="round" stroke-linejoin="round"/>
<path d="M357.688 141.135L-51.9998 141.135" stroke="url(#paint11_linear_895_3556)" stroke-width="0.6" stroke-linecap="round" stroke-linejoin="round"/>
<path d="M155.235 -39V177.8" stroke="url(#paint12_linear_895_3556)" stroke-width="0.6" stroke-linecap="round" stroke-linejoin="round"/>
<path d="M357.688 165.047L-51.9998 165.047" stroke="url(#paint13_linear_895_3556)" stroke-width="0.6" stroke-linecap="round" stroke-linejoin="round"/>
<path d="M179.147 -39V177.8" stroke="url(#paint14_linear_895_3556)" stroke-width="0.6" stroke-linecap="round" stroke-linejoin="round"/>
<path d="M203.059 -39V177.8" stroke="url(#paint15_linear_895_3556)" stroke-width="0.6" stroke-linecap="round" stroke-linejoin="round"/>
<path d="M226.971 -39V177.8" stroke="url(#paint16_linear_895_3556)" stroke-width="0.6" stroke-linecap="round" stroke-linejoin="round"/>
<path d="M250.883 -39V177.8" stroke="url(#paint17_linear_895_3556)" stroke-width="0.6" stroke-linecap="round" stroke-linejoin="round"/>
<path d="M274.794 -39V177.8" stroke="url(#paint18_linear_895_3556)" stroke-width="0.6" stroke-linecap="round" stroke-linejoin="round"/>
<path d="M298.706 -39V177.8" stroke="url(#paint19_linear_895_3556)" stroke-width="0.6" stroke-linecap="round" stroke-linejoin="round"/>
<path d="M158.565 174.745C158.824 178.071 156.335 181 153 181C149.665 181 147.176 178.071 147.435 174.745L148.641 159.214C148.814 156.984 150.763 155.333 153 155.333C155.236 155.333 157.186 156.984 157.359 159.214L158.565 174.745ZM131.812 155.16C132.663 153.107 134.998 152.144 137.111 152.831C139.225 153.518 140.581 155.678 140.064 157.839L136.437 173C135.658 176.252 132.356 178.274 129.176 177.24C125.996 176.206 124.56 172.648 125.841 169.559L131.812 155.16ZM180.159 169.559C181.439 172.648 180.004 176.206 176.824 177.24C173.644 178.274 170.342 176.252 169.563 173L165.936 157.839C165.419 155.678 166.775 153.518 168.889 152.831C171.002 152.144 173.337 153.107 174.188 155.16L180.159 169.559ZM117.044 146.107C118.492 144.413 121.028 144.226 122.83 145.537C124.632 146.848 125.239 149.323 124.073 151.222L115.917 164.504C114.17 167.349 110.424 168.253 107.725 166.288C105.025 164.323 104.746 160.491 106.916 157.953L117.044 146.107ZM199.084 157.953C201.254 160.491 200.975 164.323 198.275 166.288C195.576 168.253 191.83 167.349 190.083 164.504L181.927 151.222C180.761 149.323 181.369 146.849 183.17 145.537C184.972 144.226 187.508 144.413 188.956 146.107L199.084 157.953ZM105.778 132.927C107.677 131.761 110.151 132.369 111.463 134.17C112.774 135.972 112.587 138.508 110.893 139.956L99.0467 150.084C96.509 152.254 92.6768 151.975 90.7118 149.275C88.7468 146.576 89.6509 142.83 92.496 141.083L105.778 132.927ZM213.504 141.083C216.349 142.83 217.253 146.576 215.288 149.275C213.323 151.975 209.491 152.254 206.953 150.084L195.107 139.956C193.413 138.508 193.226 135.972 194.537 134.17C195.848 132.368 198.323 131.761 200.222 132.927L213.504 141.083ZM99.1605 116.936C101.322 116.419 103.482 117.775 104.169 119.889C104.856 122.002 103.893 124.337 101.84 125.188L87.4406 131.159C84.3517 132.439 80.794 131.004 79.7602 127.824C78.7263 124.644 80.7482 121.342 84.0003 120.563L99.1605 116.936ZM222 120.563C225.252 121.342 227.274 124.644 226.24 127.824C225.206 131.004 221.648 132.439 218.559 131.159L204.16 125.188C202.107 124.337 201.144 122.002 201.831 119.889C202.518 117.775 204.678 116.419 206.839 116.936L222 120.563ZM76 104C76 100.665 78.9294 98.1762 82.2548 98.4345L97.7859 99.6409C100.016 99.8141 101.667 101.763 101.667 104C101.667 106.236 100.016 108.186 97.7859 108.359L82.2548 109.565C78.9294 109.824 76 107.335 76 104ZM204.333 104C204.333 101.763 205.984 99.8141 208.214 99.6409L223.745 98.4345C227.071 98.1762 230 100.665 230 104C230 107.335 227.071 109.824 223.745 109.565L208.214 108.359C205.984 108.186 204.333 106.236 204.333 104ZM101.84 82.812C103.893 83.6632 104.856 85.9975 104.169 88.1111C103.482 90.2246 101.322 91.5809 99.1605 91.0637L84.0003 87.4366C80.7482 86.6585 78.7263 83.3558 79.7602 80.1757C80.794 76.9956 84.3517 75.5605 87.4406 76.8413L101.84 82.812ZM218.559 76.8413C221.648 75.5605 225.206 76.9956 226.24 80.1757C227.274 83.3558 225.252 86.6585 222 87.4366L206.839 91.0637C204.678 91.5809 202.518 90.2246 201.831 88.1111C201.144 85.9975 202.107 83.6632 204.16 82.812L218.559 76.8413ZM110.893 68.0438C112.587 69.492 112.774 72.0278 111.463 73.8297C110.152 75.6315 107.677 76.2394 105.778 75.0732L92.4961 66.917C89.6509 65.1699 88.7468 61.4238 90.7118 58.7246C92.6768 56.0253 96.509 55.7464 99.0467 57.916L110.893 68.0438ZM206.953 57.916C209.491 55.7464 213.323 56.0253 215.288 58.7246C217.253 61.4238 216.349 65.1699 213.504 66.9171L200.222 75.073C198.323 76.2393 195.849 75.6315 194.537 73.8297C193.226 72.0279 193.413 69.4919 195.107 68.0437L206.953 57.916ZM124.073 56.7775C125.239 58.6767 124.631 61.1511 122.83 62.4627C121.028 63.7744 118.492 63.5873 117.044 61.8933L106.916 50.0467C104.746 47.509 105.025 43.6768 107.725 41.7118C110.424 39.7468 114.17 40.6509 115.917 43.496L124.073 56.7775ZM190.083 43.4961C191.83 40.6509 195.576 39.7468 198.275 41.7118C200.975 43.6768 201.254 47.509 199.084 50.0467L188.956 61.8934C187.508 63.5873 184.972 63.7744 183.17 62.463C181.368 61.1516 180.761 58.6774 181.927 56.7783L190.083 43.4961ZM140.064 50.1605C140.581 52.3219 139.225 54.4824 137.111 55.1694C134.998 55.8564 132.663 54.8925 131.812 52.8396L125.841 38.4406C124.56 35.3517 125.996 31.794 129.176 30.7602C132.356 29.7263 135.658 31.7482 136.437 35.0003L140.064 50.1605ZM169.563 35.0003C170.342 31.7482 173.644 29.7263 176.824 30.7602C180.004 31.794 181.439 35.3517 180.159 38.4406L174.188 52.8396C173.337 54.8925 171.002 55.8564 168.889 55.1694C166.775 54.4824 165.419 52.3219 165.936 50.1605L169.563 35.0003ZM153 27C156.335 27 158.824 29.9294 158.565 33.2548L157.359 48.7859C157.186 51.0157 155.236 52.6667 153 52.6667C150.763 52.6667 148.814 51.0157 148.641 48.7859L147.435 33.2548C147.176 29.9294 149.665 27 153 27Z" fill="#B5B09B"/>
<path d="M158.512 174.741C158.771 178.069 156.281 181 152.943 181C149.606 181 147.116 178.069 147.374 174.741L148.581 159.227C148.754 156.996 150.705 155.344 152.943 155.344C155.182 155.344 157.132 156.996 157.306 159.227L158.512 174.741ZM131.739 155.171C132.592 153.118 134.926 152.155 137.04 152.841C139.156 153.528 140.514 155.691 139.996 157.855L136.368 173.001C135.589 176.253 132.286 178.275 129.105 177.243C125.921 176.209 124.485 172.647 125.768 169.555L131.739 155.171ZM180.118 169.555C181.402 172.647 179.965 176.209 176.781 177.243C173.601 178.275 170.298 176.253 169.519 173.001L165.891 157.855C165.372 155.691 166.73 153.528 168.846 152.841C170.961 152.155 173.295 153.118 174.147 155.171L180.118 169.555ZM116.963 146.118C118.411 144.426 120.946 144.239 122.747 145.549C124.552 146.861 125.161 149.338 123.992 151.239L115.831 164.514C114.083 167.357 110.339 168.26 107.64 166.298C104.936 164.332 104.657 160.496 106.831 157.956L116.963 146.118ZM199.056 157.956C201.229 160.496 200.95 164.332 198.247 166.298C195.548 168.26 191.803 167.357 190.056 164.514L181.895 151.24C180.726 149.339 181.335 146.861 183.139 145.549C184.941 144.239 187.475 144.426 188.924 146.118L199.056 157.956ZM105.691 132.943C107.59 131.779 110.062 132.386 111.373 134.186C112.686 135.988 112.499 138.526 110.803 139.975L98.9443 150.102C96.4072 152.268 92.5784 151.989 90.6131 149.293C88.6449 146.593 89.55 142.844 92.3981 141.097L105.691 132.943ZM213.489 141.097C216.337 142.844 217.242 146.593 215.274 149.293C213.308 151.989 209.48 152.268 206.942 150.102L195.083 139.975C193.387 138.526 193.2 135.988 194.513 134.186C195.825 132.386 198.296 131.779 200.195 132.943L213.489 141.097ZM99.0706 116.96C101.23 116.444 103.389 117.799 104.076 119.911C104.764 122.024 103.8 124.359 101.746 125.21L87.3273 131.182C84.24 132.461 80.6852 131.027 79.6509 127.849C78.6156 124.669 80.638 121.365 83.8911 120.588L99.0706 116.96ZM221.996 120.588C225.249 121.365 227.271 124.669 226.236 127.849C225.201 131.027 221.647 132.461 218.559 131.182L204.141 125.21C202.087 124.359 201.123 122.024 201.811 119.911C202.498 117.799 204.656 116.444 206.816 116.96L221.996 120.588ZM204.314 104.031C204.314 101.795 205.965 99.8467 208.193 99.6737L223.747 98.467C227.072 98.2091 230 100.697 230 104.031C230 107.365 227.072 109.852 223.747 109.595L208.193 108.388C205.965 108.215 204.314 106.266 204.314 104.031Z" fill="#22201C"/>
<g clip-path="url(#clip1_895_3556)">
<path d="M137.189 137.013C136.835 136.869 136.508 136.665 136.224 136.409C135.676 135.915 135.311 135.25 135.186 134.523C135.061 133.795 135.183 133.047 135.534 132.398L146.645 111.681L128.644 104.406C128.089 104.182 127.604 103.812 127.244 103.334C126.883 102.856 126.659 102.289 126.596 101.693C126.534 101.097 126.634 100.496 126.888 99.9535C127.141 99.4109 127.537 98.9475 128.034 98.6132L166.722 72.2962C167.331 71.886 168.06 71.6912 168.793 71.7426C169.526 71.794 170.221 72.0887 170.767 72.58C171.29 73.0573 171.645 73.6902 171.781 74.3852C171.916 75.0803 171.824 75.8004 171.518 76.439L160.346 97.3086L178.347 104.584C178.902 104.807 179.386 105.178 179.747 105.656C180.108 106.134 180.331 106.701 180.394 107.297C180.457 107.892 180.356 108.493 180.103 109.036C179.849 109.579 179.453 110.042 178.956 110.376L140.269 136.693C139.821 136.995 139.306 137.182 138.769 137.237C138.232 137.293 137.689 137.216 137.189 137.013Z" fill="#B5B09B"/>
</g>
</g>
<defs>
<filter id="filter0_f_895_3556" x="-70.6" y="39.4" width="448.2" height="448.2" filterUnits="userSpaceOnUse" color-interpolation-filters="sRGB">
<feFlood flood-opacity="0" result="BackgroundImageFix"/>
<feBlend mode="normal" in="SourceGraphic" in2="BackgroundImageFix" result="shape"/>
<feGaussianBlur stdDeviation="32.3" result="effect1_foregroundBlur_895_3556"/>
</filter>
<linearGradient id="paint0_linear_895_3556" x1="12.2646" y1="-39" x2="12.2646" y2="177.8" gradientUnits="userSpaceOnUse">
<stop stop-color="#F8F7F3" stop-opacity="0"/>
<stop offset="0.480769" stop-color="#D9D2B6"/>
<stop offset="1" stop-color="#F8F7F3" stop-opacity="0"/>
</linearGradient>
<linearGradient id="paint1_linear_895_3556" x1="357.688" y1="22.0762" x2="-51.9998" y2="22.0761" gradientUnits="userSpaceOnUse">
<stop stop-color="#F8F7F3" stop-opacity="0"/>
<stop offset="0.480769" stop-color="#D9D2B6"/>
<stop offset="1" stop-color="#F8F7F3" stop-opacity="0"/>
</linearGradient>
<linearGradient id="paint2_linear_895_3556" x1="36.1768" y1="-39" x2="36.1768" y2="177.8" gradientUnits="userSpaceOnUse">
<stop stop-color="#F8F7F3" stop-opacity="0"/>
<stop offset="0.480769" stop-color="#D9D2B6"/>
<stop offset="1" stop-color="#F8F7F3" stop-opacity="0"/>
</linearGradient>
<linearGradient id="paint3_linear_895_3556" x1="357.688" y1="45.9885" x2="-51.9998" y2="45.9885" gradientUnits="userSpaceOnUse">
<stop stop-color="#F8F7F3" stop-opacity="0"/>
<stop offset="0.480769" stop-color="#D9D2B6"/>
<stop offset="1" stop-color="#F8F7F3" stop-opacity="0"/>
</linearGradient>
<linearGradient id="paint4_linear_895_3556" x1="60.0884" y1="-39" x2="60.0884" y2="177.8" gradientUnits="userSpaceOnUse">
<stop stop-color="#F8F7F3" stop-opacity="0"/>
<stop offset="0.480769" stop-color="#D9D2B6"/>
<stop offset="1" stop-color="#F8F7F3" stop-opacity="0"/>
</linearGradient>
<linearGradient id="paint5_linear_895_3556" x1="357.688" y1="69.9003" x2="-51.9998" y2="69.9002" gradientUnits="userSpaceOnUse">
<stop stop-color="#F8F7F3" stop-opacity="0"/>
<stop offset="0.480769" stop-color="#D9D2B6"/>
<stop offset="1" stop-color="#F8F7F3" stop-opacity="0"/>
</linearGradient>
<linearGradient id="paint6_linear_895_3556" x1="84" y1="-39" x2="84" y2="177.8" gradientUnits="userSpaceOnUse">
<stop stop-color="#F8F7F3" stop-opacity="0"/>
<stop offset="0.480769" stop-color="#D9D2B6"/>
<stop offset="1" stop-color="#F8F7F3" stop-opacity="0"/>
</linearGradient>
<linearGradient id="paint7_linear_895_3556" x1="357.688" y1="93.8125" x2="-51.9998" y2="93.8125" gradientUnits="userSpaceOnUse">
<stop stop-color="#F8F7F3" stop-opacity="0"/>
<stop offset="0.480769" stop-color="#D9D2B6"/>
<stop offset="1" stop-color="#F8F7F3" stop-opacity="0"/>
</linearGradient>
<linearGradient id="paint8_linear_895_3556" x1="107.912" y1="-39" x2="107.912" y2="177.8" gradientUnits="userSpaceOnUse">
<stop stop-color="#F8F7F3" stop-opacity="0"/>
<stop offset="0.480769" stop-color="#D9D2B6"/>
<stop offset="1" stop-color="#F8F7F3" stop-opacity="0"/>
</linearGradient>
<linearGradient id="paint9_linear_895_3556" x1="357.688" y1="117.725" x2="-51.9998" y2="117.725" gradientUnits="userSpaceOnUse">
<stop stop-color="#F8F7F3" stop-opacity="0"/>
<stop offset="0.480769" stop-color="#D9D2B6"/>
<stop offset="1" stop-color="#F8F7F3" stop-opacity="0"/>
</linearGradient>
<linearGradient id="paint10_linear_895_3556" x1="131.824" y1="-39" x2="131.824" y2="177.8" gradientUnits="userSpaceOnUse">
<stop stop-color="#F8F7F3" stop-opacity="0"/>
<stop offset="0.480769" stop-color="#D9D2B6"/>
<stop offset="1" stop-color="#F8F7F3" stop-opacity="0"/>
</linearGradient>
<linearGradient id="paint11_linear_895_3556" x1="357.688" y1="141.635" x2="-51.9998" y2="141.635" gradientUnits="userSpaceOnUse">
<stop stop-color="#F8F7F3" stop-opacity="0"/>
<stop offset="0.480769" stop-color="#D9D2B6"/>
<stop offset="1" stop-color="#F8F7F3" stop-opacity="0"/>
</linearGradient>
<linearGradient id="paint12_linear_895_3556" x1="155.735" y1="-39" x2="155.735" y2="177.8" gradientUnits="userSpaceOnUse">
<stop stop-color="#F8F7F3" stop-opacity="0"/>
<stop offset="0.480769" stop-color="#D9D2B6"/>
<stop offset="1" stop-color="#F8F7F3" stop-opacity="0"/>
</linearGradient>
<linearGradient id="paint13_linear_895_3556" x1="357.688" y1="165.547" x2="-51.9998" y2="165.547" gradientUnits="userSpaceOnUse">
<stop stop-color="#F8F7F3" stop-opacity="0"/>
<stop offset="0.480769" stop-color="#D9D2B6"/>
<stop offset="1" stop-color="#F8F7F3" stop-opacity="0"/>
</linearGradient>
<linearGradient id="paint14_linear_895_3556" x1="179.647" y1="-39" x2="179.647" y2="177.8" gradientUnits="userSpaceOnUse">
<stop stop-color="#F8F7F3" stop-opacity="0"/>
<stop offset="0.480769" stop-color="#D9D2B6"/>
<stop offset="1" stop-color="#F8F7F3" stop-opacity="0"/>
</linearGradient>
<linearGradient id="paint15_linear_895_3556" x1="203.559" y1="-39" x2="203.559" y2="177.8" gradientUnits="userSpaceOnUse">
<stop stop-color="#F8F7F3" stop-opacity="0"/>
<stop offset="0.480769" stop-color="#D9D2B6"/>
<stop offset="1" stop-color="#F8F7F3" stop-opacity="0"/>
</linearGradient>
<linearGradient id="paint16_linear_895_3556" x1="227.471" y1="-39" x2="227.471" y2="177.8" gradientUnits="userSpaceOnUse">
<stop stop-color="#F8F7F3" stop-opacity="0"/>
<stop offset="0.480769" stop-color="#D9D2B6"/>
<stop offset="1" stop-color="#F8F7F3" stop-opacity="0"/>
</linearGradient>
<linearGradient id="paint17_linear_895_3556" x1="251.383" y1="-39" x2="251.383" y2="177.8" gradientUnits="userSpaceOnUse">
<stop stop-color="#F8F7F3" stop-opacity="0"/>
<stop offset="0.480769" stop-color="#D9D2B6"/>
<stop offset="1" stop-color="#F8F7F3" stop-opacity="0"/>
</linearGradient>
<linearGradient id="paint18_linear_895_3556" x1="275.294" y1="-39" x2="275.294" y2="177.8" gradientUnits="userSpaceOnUse">
<stop stop-color="#F8F7F3" stop-opacity="0"/>
<stop offset="0.480769" stop-color="#D9D2B6"/>
<stop offset="1" stop-color="#F8F7F3" stop-opacity="0"/>
</linearGradient>
<linearGradient id="paint19_linear_895_3556" x1="299.206" y1="-39" x2="299.206" y2="177.8" gradientUnits="userSpaceOnUse">
<stop stop-color="#F8F7F3" stop-opacity="0"/>
<stop offset="0.480769" stop-color="#D9D2B6"/>
<stop offset="1" stop-color="#F8F7F3" stop-opacity="0"/>
</linearGradient>
<clipPath id="clip0_895_3556">
<rect width="305" height="288" rx="16" fill="white"/>
</clipPath>
<clipPath id="clip1_895_3556">
<rect width="79.1107" height="79.1107" fill="white" transform="translate(131.644 53) rotate(22.0063)"/>
</clipPath>
</defs>
</svg>
