<svg width="198" height="72" viewBox="0 0 198 72" fill="none" xmlns="http://www.w3.org/2000/svg">
<path fill-rule="evenodd" clip-rule="evenodd" d="M158.12 15.1122H147.974V15.8239C150.215 16.9843 151.95 18.5935 153.177 20.6506C154.458 22.655 155.099 25.1079 155.099 28.009C155.099 30.3824 154.672 32.4658 153.818 34.2591C152.964 36.0524 151.737 37.5821 150.135 38.848C148.534 40.0612 146.612 40.9845 144.371 41.6175C142.182 42.2504 139.727 42.567 137.005 42.567C135.778 42.567 134.604 42.5143 133.483 42.4089C132.362 42.2506 131.294 42.0394 130.28 41.7756C129.693 42.0921 129.186 42.4877 128.759 42.9624C128.385 43.4371 128.199 44.044 128.199 44.7824C128.199 45.4152 128.359 45.9163 128.679 46.2855C128.999 46.6546 129.426 46.9449 129.96 47.1559C130.547 47.3141 131.214 47.4195 131.961 47.4722C132.708 47.525 133.482 47.5513 134.283 47.5513H143.73C146.666 47.5513 149.175 47.8415 151.256 48.4217C153.338 49.0019 155.046 49.8195 156.38 50.8743C157.714 51.9293 158.675 53.1692 159.262 54.5934C159.849 56.0175 160.143 57.5999 160.143 59.3404C160.143 63.6656 158.302 66.857 154.619 68.9142C150.936 70.9713 145.145 72 137.245 72C133.296 72 130.04 71.7624 127.478 71.2877C124.916 70.8657 122.861 70.2326 121.313 69.3886C119.819 68.5447 118.751 67.5423 118.111 66.3819C117.524 65.2215 117.23 63.9557 117.23 62.5844C117.23 60.2635 117.924 58.4964 119.312 57.2832C120.699 56.1228 122.648 55.2263 125.156 54.5934V54.1183C123.395 53.5908 121.98 52.8524 120.913 51.9029C119.899 50.9008 119.392 49.5027 119.392 47.7094C119.392 45.7052 120.059 44.2281 121.393 43.2787C122.781 42.3293 124.596 41.5908 126.838 41.0633V40.5889C124.382 39.4285 122.46 37.7935 121.073 35.6837C119.738 33.5739 119.072 31.0154 119.072 28.009C119.072 25.6354 119.499 23.5517 120.353 21.7583C121.207 19.9122 122.407 18.3826 123.955 17.1694C125.556 15.9562 127.451 15.0328 129.639 14.3999C131.828 13.7669 134.283 13.4503 137.005 13.4503C139.621 13.4504 142.049 13.7406 144.291 14.3208V12.1054C144.291 10.523 144.851 9.2041 145.972 8.14917C147.093 7.09434 148.641 6.56702 150.616 6.56702H162.498L158.12 15.1122ZM128.599 56.8087C127.531 57.7054 126.998 58.8132 126.998 60.1318C126.998 61.3977 127.531 62.4264 128.599 63.2176C129.719 64.0615 131.588 64.4834 134.203 64.4835H141.169C143.891 64.4834 145.865 64.1142 147.093 63.3758C148.321 62.6373 148.935 61.5822 148.935 60.2109C148.935 59.1559 148.507 58.3122 147.653 57.6792C146.799 57.099 145.171 56.8087 142.77 56.8087H128.599ZM137.005 20.8878C134.657 20.8878 132.949 21.4683 131.881 22.6287C130.814 23.7891 130.28 25.2662 130.28 27.0595V28.9579C130.28 30.7512 130.814 32.2282 131.881 33.3886C132.949 34.5491 134.657 35.1295 137.005 35.1295C139.407 35.1295 141.141 34.5491 142.209 33.3886C143.33 32.2282 143.89 30.7513 143.89 28.9579V27.0595C143.89 25.2661 143.33 23.7892 142.209 22.6287C141.141 21.4683 139.407 20.8878 137.005 20.8878Z" fill="#0C0A09"/>
<path fill-rule="evenodd" clip-rule="evenodd" d="M57.4874 13.4503C60.6896 13.4504 63.5717 13.9513 66.1335 14.9534C68.6954 15.9028 70.8572 17.3008 72.6185 19.1469C74.4332 20.993 75.8211 23.2348 76.7818 25.8721C77.7426 28.5094 78.2227 31.4897 78.2228 34.8126C78.2228 38.1357 77.7426 41.1164 76.7818 43.7538C75.8211 46.391 74.4332 48.6329 72.6185 50.479C70.8572 52.325 68.6953 53.7494 66.1335 54.7515C63.5717 55.7009 60.6896 56.1755 57.4874 56.1755C54.285 56.1755 51.4026 55.7009 48.8406 54.7515C46.2787 53.7494 44.0903 52.3251 42.2756 50.479C40.5143 48.6328 39.153 46.3911 38.1923 43.7538C37.2315 41.1164 36.7514 38.1357 36.7514 34.8126C36.7514 31.4897 37.2316 28.5094 38.1923 25.8721C39.153 23.2348 40.5143 20.993 42.2756 19.1469C44.0903 17.3008 46.2787 15.9029 48.8406 14.9534C51.4026 13.9513 54.285 13.4503 57.4874 13.4503ZM57.4874 22.1537C54.8187 22.1537 52.7368 22.9711 51.2424 24.6063C49.748 26.2414 49.0007 28.5622 49.0007 31.5687V38.0566C49.0007 41.0632 49.7479 43.3845 51.2424 45.0196C52.7368 46.6547 54.8187 47.4722 57.4874 47.4722C60.1559 47.4722 62.2373 46.6546 63.7317 45.0196C65.2262 43.3845 65.9734 41.0632 65.9734 38.0566V31.5687C65.9734 28.5622 65.2262 26.2414 63.7317 24.6063C62.2373 22.9712 60.1559 22.1537 57.4874 22.1537Z" fill="#0C0A09"/>
<path fill-rule="evenodd" clip-rule="evenodd" d="M177.565 13.4503C180.66 13.4503 183.436 13.9512 185.891 14.9534C188.347 15.9028 190.428 17.2745 192.136 19.0678C193.844 20.8612 195.152 23.0503 196.059 25.6349C197.02 28.1667 197.5 31.0152 197.5 34.18V37.6612H169.239V38.3735C169.239 41.0108 170.066 43.1473 171.72 44.7824C173.375 46.3646 175.803 47.1559 179.006 47.1559C181.461 47.1559 183.569 46.7071 185.331 45.8104C187.092 44.861 188.613 43.6216 189.894 42.092L196.299 48.9753C194.698 50.9269 192.456 52.6151 189.574 54.0392C186.692 55.4634 183.036 56.1755 178.606 56.1755C171.667 56.1755 166.41 54.2766 162.834 50.479C159.258 46.6812 157.47 41.5119 157.47 34.9714C157.47 31.6483 157.923 28.6676 158.83 26.0302C159.791 23.3402 161.126 21.0721 162.834 19.226C164.595 17.3272 166.704 15.9028 169.159 14.9534C171.667 13.9513 174.469 13.4504 177.565 13.4503ZM177.645 21.8374C175.083 21.8374 173.028 22.6285 171.48 24.2109C169.986 25.7405 169.239 27.8238 169.239 30.461V31.0942H185.891V30.461C185.891 27.7712 185.144 25.6614 183.65 24.1318C182.209 22.6021 180.207 21.8374 177.645 21.8374Z" fill="#0C0A09"/>
<path d="M38.9668 9.73192H12.5093V22.3915H35.2139L32.0866 32.1228H12.5093V55.226H0.5V0H42.7197L38.9668 9.73192Z" fill="#0C0A09"/>
<path d="M100.769 25.9518H101.329C101.703 24.4749 102.21 23.0506 102.85 21.6792C103.544 20.255 104.398 19.0151 105.412 17.9602C106.48 16.8525 107.761 15.9824 109.255 15.3494C110.75 14.7165 112.511 14.3999 114.539 14.3999L120.904 14.4005L116.526 25.1604H109.655C106.72 25.1604 104.505 26.0305 103.01 27.7712C101.516 29.4591 100.769 31.5428 100.769 34.0219V46.1273H114.379V55.226H79.3925V46.1273H88.92V23.4986H79.3925V14.3999H100.769V25.9518Z" fill="#0C0A09"/>
</svg>
