<svg width="522" height="264" viewBox="0 0 522 264" fill="none" xmlns="http://www.w3.org/2000/svg">
<g clip-path="url(#clip0_895_3600)">
<path d="M0 16C0 7.16344 7.16344 0 16 0H506C514.837 0 522 7.16344 522 16V248C522 256.837 514.837 264 506 264H16C7.16344 264 0 256.837 0 248V16Z" fill="#F1EFE8"/>
<g clip-path="url(#clip1_895_3600)">
<g filter="url(#filter0_di_895_3600)">
<path d="M535.915 119.116C538.175 112.895 538.745 106.675 538.175 100.463C537.615 94.2424 535.354 88.0307 532.524 82.3797C527.443 73.8986 520.092 67.1174 511.62 63.1662C502.578 59.2059 492.967 58.0757 483.365 60.3361C478.844 55.8153 473.753 51.8641 468.102 49.034C462.451 46.2221 455.67 45.0828 449.458 45.0828C439.756 45.0262 430.276 47.9902 422.333 53.5639C414.422 59.2059 408.771 67.1264 405.941 76.1681C399.16 77.8589 393.509 80.6889 387.858 84.0795C382.776 88.0307 378.816 93.1212 375.425 98.2026C370.344 106.684 368.644 116.286 369.774 125.897C370.91 135.481 374.84 144.518 381.076 151.883C378.939 157.854 378.167 164.228 378.816 170.536C379.385 176.757 381.646 182.968 384.467 188.619C389.557 197.1 396.899 203.882 405.38 207.833C414.422 211.793 424.024 212.923 433.635 210.663C438.156 215.184 443.238 219.135 448.889 221.965C454.54 224.786 461.321 225.916 467.542 225.916C477.244 225.973 486.724 223.009 494.667 217.435C502.578 211.784 508.229 203.873 511.05 194.831C517.435 193.617 523.44 190.906 528.573 186.919C533.654 182.968 538.175 178.447 541.005 172.796C546.087 164.315 547.787 154.713 546.656 145.102C545.526 135.499 542.135 126.458 535.915 119.116ZM468.102 214.053C459.061 214.053 452.279 211.223 446.068 206.142C446.068 206.142 446.628 205.572 447.198 205.572L483.365 184.659C484.374 184.215 485.181 183.408 485.625 182.399C486.186 181.268 486.186 180.708 486.186 179.578V128.718L501.448 137.76V179.578C501.604 184.052 500.856 188.511 499.249 192.69C497.643 196.869 495.211 200.681 492.099 203.899C488.986 207.117 485.257 209.675 481.134 211.419C477.011 213.164 472.579 214.06 468.102 214.053ZM395.208 182.968C391.248 176.187 389.557 168.276 391.248 160.364C391.248 160.364 391.818 160.934 392.378 160.934L428.545 181.838C429.414 182.297 430.397 182.495 431.375 182.408C432.505 182.408 433.635 182.408 434.196 181.838L478.274 156.404V173.927L441.547 195.401C433.853 199.857 424.705 201.076 416.113 198.791C407.071 196.531 399.729 190.88 395.208 182.968ZM385.597 104.414C389.595 97.6663 395.777 92.4859 403.12 89.7306V132.678C403.12 133.8 403.12 134.939 403.68 135.499C404.125 136.509 404.931 137.315 405.941 137.76L450.019 163.194L434.766 172.236L398.599 151.322C394.747 149.147 391.364 146.229 388.648 142.737C385.932 139.245 383.936 135.248 382.776 130.979C380.516 122.498 381.076 112.326 385.597 104.414ZM510.49 133.239L466.412 107.805L481.665 98.7632L517.831 119.677C523.483 123.067 528.003 127.588 530.833 133.239C533.654 138.89 535.354 145.111 534.785 151.892C534.234 158.256 531.882 164.331 528.003 169.406C524.052 174.496 518.962 178.447 512.75 180.708V137.76C512.75 136.63 512.75 135.499 512.18 134.93C512.18 134.93 511.62 133.809 510.49 133.239ZM525.743 110.635C525.743 110.635 525.182 110.065 524.613 110.065L488.446 89.161C487.316 88.5913 486.755 88.5913 485.625 88.5913C484.495 88.5913 483.365 88.5913 482.795 89.161L438.717 114.595V97.0724L475.453 75.5985C481.104 72.2078 487.316 71.0776 494.097 71.0776C500.318 71.0776 506.529 73.338 512.18 77.2983C517.271 81.2495 521.792 86.34 524.052 91.991C526.313 97.642 526.873 104.423 525.743 110.635ZM430.805 142.281L415.552 133.239V90.8517C415.552 84.6401 417.243 77.8589 420.634 72.7684C424.024 67.1264 429.115 63.1662 434.766 60.3452C440.525 57.4542 447.053 56.4664 453.41 57.5242C459.63 58.0938 465.842 60.9148 470.932 64.875C470.932 64.875 470.363 65.4356 469.802 65.4356L433.635 86.349C432.626 86.7934 431.82 87.5999 431.375 88.6094C430.805 89.7396 430.805 90.3002 430.805 91.4304V142.29V142.281ZM438.717 124.197L458.5 112.895L478.274 124.197V146.802L458.5 158.104L438.717 146.802V124.197Z" fill="#22201C"/>
</g>
</g>
</g>
<path d="M16 0.5H506C514.56 0.5 521.5 7.43959 521.5 16V248C521.5 256.56 514.56 263.5 506 263.5H16C7.43959 263.5 0.5 256.56 0.5 248V16C0.5 7.43959 7.43959 0.5 16 0.5Z" stroke="#E6E3DB"/>
<defs>
<filter id="filter0_di_895_3600" x="348.44" y="24.082" width="219.551" height="222.835" filterUnits="userSpaceOnUse" color-interpolation-filters="sRGB">
<feFlood flood-opacity="0" result="BackgroundImageFix"/>
<feColorMatrix in="SourceAlpha" type="matrix" values="0 0 0 0 0 0 0 0 0 0 0 0 0 0 0 0 0 0 127 0" result="hardAlpha"/>
<feMorphology radius="2" operator="dilate" in="SourceAlpha" result="effect1_dropShadow_895_3600"/>
<feOffset/>
<feGaussianBlur stdDeviation="9.5"/>
<feComposite in2="hardAlpha" operator="out"/>
<feColorMatrix type="matrix" values="0 0 0 0 0.682353 0 0 0 0 0.647059 0 0 0 0 0.509804 0 0 0 1 0"/>
<feBlend mode="normal" in2="BackgroundImageFix" result="effect1_dropShadow_895_3600"/>
<feBlend mode="normal" in="SourceGraphic" in2="effect1_dropShadow_895_3600" result="shape"/>
<feColorMatrix in="SourceAlpha" type="matrix" values="0 0 0 0 0 0 0 0 0 0 0 0 0 0 0 0 0 0 127 0" result="hardAlpha"/>
<feOffset/>
<feGaussianBlur stdDeviation="4"/>
<feComposite in2="hardAlpha" operator="arithmetic" k2="-1" k3="1"/>
<feColorMatrix type="matrix" values="0 0 0 0 0.713726 0 0 0 0 0.678431 0 0 0 0 0.552941 0 0 0 1 0"/>
<feBlend mode="normal" in2="shape" result="effect2_innerShadow_895_3600"/>
</filter>
<clipPath id="clip0_895_3600">
<path d="M0 16C0 7.16344 7.16344 0 16 0H506C514.837 0 522 7.16344 522 16V248C522 256.837 514.837 264 506 264H16C7.16344 264 0 256.837 0 248V16Z" fill="white"/>
</clipPath>
<clipPath id="clip1_895_3600">
<rect width="217" height="217" fill="white" transform="translate(350 27)"/>
</clipPath>
</defs>
</svg>
