<svg width="32" height="32" viewBox="0 0 32 32" fill="none" xmlns="http://www.w3.org/2000/svg">
<path d="M12.1868 27.437C12.1868 28.1783 12.7175 28.7076 13.4588 28.7076H18.5415C19.2828 28.7076 19.8121 28.1783 19.8121 27.437V26.1663H12.1881L12.1868 27.437ZM16.0001 3.29297C11.1295 3.29297 7.10547 7.31697 7.10547 12.1876C7.10547 15.2583 8.58814 17.9063 10.9175 19.4943V22.353C10.9175 23.0943 11.4468 23.6236 12.1881 23.6236H19.8121C20.5535 23.6236 21.0828 23.0943 21.0828 22.353V19.4943C23.4121 17.9063 24.8961 15.2583 24.8961 12.1876C24.8961 7.31697 20.8708 3.29297 16.0001 3.29297ZM19.6001 17.377L18.5415 18.1183V21.0836H13.4588V18.1183L12.4001 17.377C11.5531 16.8018 10.8595 16.0284 10.3796 15.1239C9.89972 14.2195 9.64816 13.2115 9.6468 12.1876C9.65208 10.5042 10.3231 8.89132 11.5135 7.70098C12.7038 6.51064 14.3167 5.83958 16.0001 5.8343C17.6835 5.83958 19.2965 6.51064 20.4868 7.70098C21.6771 8.89132 22.3482 10.5042 22.3535 12.1876C22.3521 13.2115 22.1005 14.2195 21.6207 15.1239C21.1408 16.0284 20.4472 16.8018 19.6001 17.377Z" fill="#9B9378"/>
</svg>
