<svg width="33" height="32" viewBox="0 0 33 32" fill="none" xmlns="http://www.w3.org/2000/svg">
<path d="M15.2834 2.29669C15.4709 2.48422 15.5762 2.73853 15.5762 3.00369C15.5762 3.26886 15.4709 3.52316 15.2834 3.71069L9.89941 9.09269H16.6334C22.1554 9.09269 26.4894 12.8327 26.4894 18.0927C26.4894 23.3567 22.8194 27.0927 16.8674 27.0927C16.8274 27.0927 16.4154 27.0447 15.6274 26.9527C15.3534 26.9199 15.1009 26.7878 14.9177 26.5814C14.7346 26.375 14.6334 26.1086 14.6334 25.8327C14.6334 25.7073 14.6599 25.5833 14.7113 25.4689C14.7626 25.3545 14.8377 25.2523 14.9314 25.169C15.0251 25.0856 15.1354 25.0231 15.255 24.9855C15.3746 24.9479 15.5009 24.936 15.6254 24.9507C16.4314 25.0447 16.8574 25.0907 16.9014 25.0907C22.5874 24.8307 24.4894 21.7547 24.4894 18.0947C24.4894 14.4347 21.2654 11.3127 17.0314 11.1047L16.6314 11.0947H9.63141L9.54941 11.0847L15.2014 16.7407C15.2969 16.8329 15.3731 16.9433 15.4255 17.0653C15.4779 17.1873 15.5055 17.3185 15.5067 17.4513C15.5078 17.5841 15.4825 17.7157 15.4322 17.8386C15.3819 17.9615 15.3077 18.0732 15.2138 18.1671C15.1199 18.261 15.0083 18.3352 14.8854 18.3855C14.7625 18.4358 14.6308 18.4611 14.498 18.4599C14.3652 18.4588 14.234 18.4312 14.112 18.3788C13.99 18.3264 13.8797 18.2502 13.7874 18.1547L6.71341 11.0807C6.56903 10.9364 6.47229 10.7513 6.43618 10.5504C6.40007 10.3494 6.42632 10.1423 6.51141 9.95669L6.53541 9.82069C6.58007 9.64889 6.66983 9.49215 6.79541 9.36669L13.8674 2.29669C14.0549 2.10922 14.3092 2.00391 14.5744 2.00391C14.8396 2.00391 15.0939 2.10922 15.2814 2.29669H15.2834Z" fill="#9B9378"/>
</svg>
