<svg width="1062" height="181" viewBox="0 0 1062 181" fill="none" xmlns="http://www.w3.org/2000/svg">
<g clip-path="url(#clip0_895_3611)">
<path d="M0 16C0 7.16345 7.16344 0 16 0H1046C1054.84 0 1062 7.16344 1062 16V165C1062 173.837 1054.84 181 1046 181H16C7.16344 181 0 173.837 0 165V16Z" fill="#F1EFE8"/>
<g filter="url(#filter0_di_895_3611)">
<g clip-path="url(#clip1_895_3611)">
<path d="M898.286 133.609C895.706 128.953 887.193 119.783 881.961 118.045C874.978 116.97 879.16 123.2 879.16 125.871C877.358 127.222 874.557 128.737 873.201 130.543C872.385 131.243 875.192 137.671 880.603 135.606C886.014 133.541 882.897 137.707 886.634 145.96C890.372 154.213 897.855 154.377 901.222 151.878C905.491 148.71 900.635 137.848 898.286 133.609Z" fill="#22201C"/>
<path d="M780 24.375C635.522 24.375 518.375 141.522 518.375 286C518.375 430.479 635.522 547.625 780 547.625C924.479 547.625 1041.62 430.479 1041.62 286C1041.62 141.522 924.479 24.375 780 24.375ZM683.525 488.554C677.083 484.895 672.576 479.724 670.723 469.949C666.113 445.646 670.369 432.496 691.702 418.272C701.751 411.573 703.407 403.472 711.44 395.439C713.408 392.939 718.694 383.322 722.186 382.825C726.433 381.915 738.197 379.873 740.523 375.233C744.949 369.222 754.687 343.233 758.977 340.659C765.981 336.074 775.818 322.018 768.671 313.679C760.47 303.584 749.05 303.44 738.42 298.143C729.059 293.462 724.902 272.12 717.747 264.738C703.834 250.564 682.709 242.314 665.189 233.554C655.709 229.758 656.611 228.583 649.188 236.006C639.655 245.539 625.719 233.592 624.31 223.743C624.205 220.47 620.46 202.467 622.675 201.084C643.647 187.974 612.948 190.993 610.411 184.966C604.156 167.455 625.604 153.594 640.077 152.146C656.295 150.116 659.681 177.719 665.889 175.389C668.875 173.898 668.886 160.913 669.277 158.103C670.756 148.725 673.467 147.272 682.591 143.883C693.218 139.936 701.352 134.986 712.608 133.108C725.463 129.377 736.338 131.318 746.246 123.064C750.787 119.659 754.076 124.909 758.393 125.867C767.735 127.734 769.722 112.902 769.722 107.296C769.682 101.848 771.199 97.2165 764.232 91.4117C755.115 84.3233 742.007 90.3968 734.683 97.7188C725.837 105.935 715.578 105.369 718.565 91.1781C719.305 86.0005 730.489 79.9808 734.916 77.1625C739.238 74.5673 741.812 80.1081 747.063 78.7977C754.747 77.0889 757.615 84.328 766.685 84.4039C770.461 83.5501 783.966 76.3671 776.746 61.785C777.831 61.7745 778.914 61.75 780 61.75C782.167 61.75 784.33 61.7897 786.488 61.8504C789.764 72.2232 779.521 81.0554 784.672 94.1027C794.938 119.185 803.35 97.623 813.521 85.9269C816.848 82.5994 818.932 83.3446 824.383 82.3062C827.765 81.7421 832.623 71.4792 834.186 68.3116C857.613 74.1001 879.878 83.6436 900.254 96.6407C891.556 97.5658 889.336 95.0102 889.469 105.257C889.518 109.131 889.816 120.813 895.629 121.784C905.296 122.922 903.549 129.763 912.624 130.952C921.317 132.092 915.913 139.774 919.458 147.362C923.421 159.307 896.325 162.898 891.074 164.648C875.143 169.967 898.479 193.158 908.827 190.694C912.117 189.871 923.094 188.472 923.855 184.776C923.842 184.398 921.711 171.914 922.843 170.488C924.633 168.229 928.826 167.047 935.429 170.786C951.049 179.631 958.958 200.803 977.355 205.001C979.862 205.572 984.199 204.826 987.276 207.376C989.882 210.897 996.526 217.205 988.597 217.205C978.065 214.866 972.502 218.209 963.838 211.513C954.806 204.532 949.188 198.792 937.267 198.576C927.001 198.391 917.785 194.116 907.206 195.832C901.308 196.788 895.482 199.115 889.789 200.854C884.397 202.65 883.354 212.259 877.876 213.351C855.139 218.702 860.051 240.412 855.95 257.632C854.372 264.245 848.913 282.163 854.868 288.101C865.52 298.442 877.974 312.669 893.617 314.921C902.033 316.132 920.426 309.577 926.113 318.118C928.521 322.911 934.811 314.579 936.508 318.82C940.786 331.654 931.529 340.061 931.442 352.167C931.314 369.923 942.162 376.192 927.631 392.05C911.698 407.943 922.57 428.01 913.732 446.945C909.012 456.682 908.117 470.18 901.034 474.716C885.476 484.681 868.682 492.701 851.146 498.524C820.046 508.846 786.726 512.156 754.184 508.4C737.11 506.428 720.265 502.494 704.102 496.644C699.7 495.052 695.599 493.719 691.871 492.318C689.065 491.117 686.281 489.869 683.525 488.554ZM634.82 456.908C634.274 456.444 633.728 455.978 633.186 455.508C629.164 452.014 625.242 448.369 621.437 444.563C617.479 440.606 613.688 436.527 610.068 432.334C610.027 432.286 609.986 432.238 609.945 432.19C609.201 431.328 608.477 430.454 607.747 429.581C547.38 356.628 538.533 249.798 589.154 168.152C596.253 175.251 584.364 189.203 597.914 198.519C603.898 202.731 609.618 201.041 608.425 208.797C607.266 216.329 614.68 216.196 615.784 222.813C619.103 237.33 638.217 244.586 627.346 260.889C616.697 275.634 607.5 292.107 615.55 310.878C618.183 317.722 624.799 324.728 629.825 329.85C638.95 339.154 638.441 333.574 638.441 345.333C638.259 350.44 644.586 355.724 643.93 358.998C642.761 368.355 640.539 377.604 639.375 386.913C637.282 420.361 639.225 453.092 664.253 478.131C654.946 472.518 645.991 466.16 637.427 459.105C636.554 458.382 635.686 457.646 634.82 456.908Z" fill="#22201C"/>
</g>
</g>
</g>
<path d="M16 0.5H1046C1054.56 0.5 1061.5 7.43959 1061.5 16V165C1061.5 173.56 1054.56 180.5 1046 180.5H16C7.43959 180.5 0.5 173.56 0.5 165V16C0.500001 7.43959 7.43959 0.5 16 0.5Z" stroke="#E6E3DB"/>
<defs>
<filter id="filter0_di_895_3611" x="495.7" y="1.7" width="568.6" height="568.6" filterUnits="userSpaceOnUse" color-interpolation-filters="sRGB">
<feFlood flood-opacity="0" result="BackgroundImageFix"/>
<feColorMatrix in="SourceAlpha" type="matrix" values="0 0 0 0 0 0 0 0 0 0 0 0 0 0 0 0 0 0 127 0" result="hardAlpha"/>
<feMorphology radius="2" operator="dilate" in="SourceAlpha" result="effect1_dropShadow_895_3611"/>
<feOffset/>
<feGaussianBlur stdDeviation="16.15"/>
<feComposite in2="hardAlpha" operator="out"/>
<feColorMatrix type="matrix" values="0 0 0 0 0.682353 0 0 0 0 0.647059 0 0 0 0 0.509804 0 0 0 1 0"/>
<feBlend mode="normal" in2="BackgroundImageFix" result="effect1_dropShadow_895_3611"/>
<feBlend mode="normal" in="SourceGraphic" in2="effect1_dropShadow_895_3611" result="shape"/>
<feColorMatrix in="SourceAlpha" type="matrix" values="0 0 0 0 0 0 0 0 0 0 0 0 0 0 0 0 0 0 127 0" result="hardAlpha"/>
<feOffset/>
<feGaussianBlur stdDeviation="4"/>
<feComposite in2="hardAlpha" operator="arithmetic" k2="-1" k3="1"/>
<feColorMatrix type="matrix" values="0 0 0 0 0.713726 0 0 0 0 0.678431 0 0 0 0 0.552941 0 0 0 1 0"/>
<feBlend mode="normal" in2="shape" result="effect2_innerShadow_895_3611"/>
</filter>
<clipPath id="clip0_895_3611">
<path d="M0 16C0 7.16345 7.16344 0 16 0H1046C1054.84 0 1062 7.16344 1062 16V165C1062 173.837 1054.84 181 1046 181H16C7.16344 181 0 173.837 0 165V16Z" fill="white"/>
</clipPath>
<clipPath id="clip1_895_3611">
<path d="M530 286C530 147.929 641.929 36 780 36C918.071 36 1030 147.929 1030 286C1030 424.071 918.071 536 780 536C641.929 536 530 424.071 530 286Z" fill="white"/>
</clipPath>
</defs>
</svg>
