<svg width="33" height="32" viewBox="0 0 33 32" fill="none" xmlns="http://www.w3.org/2000/svg">
<path d="M5.9165 18.125H14.2915C14.3578 18.125 14.4214 18.1514 14.4683 18.1982C14.5151 18.2451 14.5415 18.3087 14.5415 18.375V26.75C14.5415 26.8163 14.5151 26.8799 14.4683 26.9268C14.4214 26.9736 14.3578 27 14.2915 27H5.9165C5.8502 27 5.78663 26.9736 5.73975 26.9268C5.69286 26.8799 5.6665 26.8163 5.6665 26.75V18.375L5.67139 18.3262C5.68097 18.2781 5.70454 18.2334 5.73975 18.1982C5.78663 18.1514 5.8502 18.125 5.9165 18.125ZM19.0415 18.125H27.4165C27.4828 18.125 27.5464 18.1514 27.5933 18.1982C27.6401 18.2451 27.6665 18.3087 27.6665 18.375V26.75C27.6665 26.8163 27.6401 26.8799 27.5933 26.9268C27.5464 26.9736 27.4828 27 27.4165 27H19.0415C18.9752 27 18.9116 26.9736 18.8647 26.9268C18.8179 26.8799 18.7915 26.8163 18.7915 26.75V18.375C18.7915 18.3087 18.8179 18.2451 18.8647 18.1982C18.9116 18.1514 18.9752 18.125 19.0415 18.125ZM5.9165 5H14.2915C14.3578 5 14.4214 5.02636 14.4683 5.07324C14.5151 5.12013 14.5415 5.1837 14.5415 5.25V13.625C14.5415 13.6913 14.5151 13.7549 14.4683 13.8018C14.4214 13.8486 14.3578 13.875 14.2915 13.875H5.9165C5.8502 13.875 5.78663 13.8486 5.73975 13.8018C5.69286 13.7549 5.6665 13.6913 5.6665 13.625V5.25L5.67139 5.20117C5.68097 5.15306 5.70454 5.10844 5.73975 5.07324C5.78663 5.02636 5.8502 5 5.9165 5ZM19.0415 5H27.4165C27.4828 5 27.5464 5.02636 27.5933 5.07324C27.6401 5.12012 27.6665 5.18369 27.6665 5.25V13.625C27.6665 13.6913 27.6401 13.7549 27.5933 13.8018C27.5464 13.8486 27.4828 13.875 27.4165 13.875H19.0415C18.9752 13.875 18.9116 13.8486 18.8647 13.8018C18.8179 13.7549 18.7915 13.6913 18.7915 13.625V5.25C18.7915 5.18369 18.8179 5.12012 18.8647 5.07324C18.9116 5.02636 18.9752 5 19.0415 5Z" stroke="#9B9378" stroke-width="2"/>
</svg>
