<svg width="70" height="70" viewBox="0 0 70 70" fill="none" xmlns="http://www.w3.org/2000/svg">
<path d="M18.7336 67.0187C18.3794 66.875 18.0528 66.6709 17.7686 66.4153C17.2211 65.9204 16.8556 65.256 16.7306 64.5286C16.6055 63.8012 16.7282 63.0529 17.079 62.4036L28.1894 41.6867L10.1889 34.4118C9.63331 34.1882 9.14916 33.8175 8.7884 33.3396C8.42764 32.8616 8.20391 32.2944 8.14122 31.6988C8.07853 31.1033 8.17926 30.5019 8.43259 29.9593C8.68592 29.4167 9.08228 28.9534 9.57909 28.619L48.2666 2.30211C48.876 1.89189 49.605 1.69701 50.3379 1.74843C51.0707 1.79985 51.7654 2.0946 52.3116 2.5859C52.8347 3.06311 53.1902 3.69609 53.3255 4.39111C53.4608 5.08613 53.3688 5.80625 53.0629 6.44486L41.8908 27.3145L59.8913 34.5895C60.4469 34.813 60.931 35.1837 61.2918 35.6617C61.6525 36.1396 61.8763 36.7069 61.939 37.3024C62.0017 37.8979 61.9009 38.4993 61.6476 39.0419C61.3943 39.5845 60.9979 40.0479 60.5011 40.3822L21.8136 66.6991C21.3657 67.0006 20.8505 67.1874 20.3134 67.2431C19.7764 67.2988 19.2339 67.2217 18.7336 67.0187Z" fill="#0C0A09" stroke="url(#paint0_linear_794_9973)" stroke-linecap="round"/>
<defs>
<linearGradient id="paint0_linear_794_9973" x1="49.3701" y1="-0.955333" x2="21.4538" y2="68.1181" gradientUnits="userSpaceOnUse">
<stop stop-color="#696352"/>
<stop offset="1" stop-color="#696352" stop-opacity="0"/>
</linearGradient>
</defs>
</svg>
