<svg width="70" height="70" viewBox="0 0 70 70" fill="none" xmlns="http://www.w3.org/2000/svg">
<path d="M58.1151 33.5559H53.7811V21.9984C53.7811 18.8056 51.1951 16.2196 48.0023 16.2196H36.4448V11.8856C36.4448 7.89817 33.2086 4.66211 29.2212 4.66211C25.2338 4.66211 21.9978 7.89824 21.9978 11.8856V16.2196H10.4403C7.24759 16.2196 4.69047 18.8056 4.69047 21.9984L4.67598 32.978H8.9956C13.3007 32.978 16.7969 36.4742 16.7969 40.7793C16.7969 45.0844 13.3007 48.5806 8.9956 48.5806H4.67598L4.66162 59.5603C4.66162 62.753 7.24759 65.3391 10.4403 65.3391H21.4199V61.005C21.4199 56.6999 24.9161 53.2037 29.2213 53.2037C33.5265 53.2037 37.0226 56.6999 37.0226 61.005V65.339H48.0022C51.195 65.339 53.781 62.753 53.781 59.5603V48.0028H58.115C62.1024 48.0028 65.3385 44.7667 65.3385 40.7794C65.3385 36.792 62.1024 33.5558 58.1151 33.5558V33.5559Z" fill="#0C0A09" stroke="url(#paint0_linear_794_9979)" stroke-linecap="round"/>
<defs>
<linearGradient id="paint0_linear_794_9979" x1="35.0004" y1="3.00297" x2="35.0004" y2="65.3391" gradientUnits="userSpaceOnUse">
<stop stop-color="#696352"/>
<stop offset="1" stop-color="#696352" stop-opacity="0"/>
</linearGradient>
</defs>
</svg>
