<svg width="609" height="266" viewBox="0 0 609 266" fill="none" xmlns="http://www.w3.org/2000/svg">
<path d="M579.712 6.7574C585.245 0.110831 595.102 -0.945279 601.925 4.44881C608.749 9.84299 609.997 19.6769 604.807 26.5953L604.555 26.9224C590.324 44.9258 568.266 72.3198 548.318 96.0103C538.358 107.839 528.818 118.872 520.995 127.385C517.095 131.629 513.489 135.392 510.393 138.365C507.77 140.884 504.154 144.198 500.547 146.127C494.976 149.104 489.112 149.398 484.789 149.114C480.26 148.817 475.696 147.763 471.515 146.487C463.662 144.089 455.302 140.319 447.812 136.47L446.327 135.7C438.958 131.846 430.945 132.601 425.755 136.635L308.337 227.906C294.673 238.527 276.37 240.957 260.432 234.322L259.676 234L175.037 197.053C170.905 195.25 166.211 195.275 162.107 197.109L161.713 197.293L23.9265 263.425C15.9601 267.249 6.40239 263.89 2.57882 255.923C-1.24446 247.957 2.11448 238.399 10.0808 234.576L147.866 168.443L148.457 168.165C160.907 162.396 175.244 162.227 187.839 167.725L272.477 204.671L272.983 204.882C278.235 206.965 284.216 206.124 288.698 202.64L406.116 111.371C422.538 98.6059 444.267 98.5121 461.155 107.343L462.479 108.03C469.091 111.424 475.546 114.259 480.859 115.881C483.241 116.609 485.024 116.973 486.243 117.119C486.729 116.69 487.385 116.094 488.228 115.285C490.639 112.969 493.739 109.753 497.431 105.734C504.794 97.7214 513.992 87.0948 523.84 75.399C543.508 52.0397 565.35 24.9191 579.452 7.07869L579.712 6.7574Z" fill="#F1EFE8" stroke="url(#paint0_linear_764_1847)" stroke-linecap="round"/>
<defs>
<linearGradient id="paint0_linear_764_1847" x1="304.505" y1="-6.21886" x2="304.505" y2="265.004" gradientUnits="userSpaceOnUse">
<stop stop-color="#696352"/>
<stop offset="1" stop-color="#696352" stop-opacity="0"/>
</linearGradient>
</defs>
</svg>
