<svg width="414" height="288" viewBox="0 0 414 288" fill="none" xmlns="http://www.w3.org/2000/svg">
<g clip-path="url(#clip0_895_2804)">
<rect width="414" height="288" rx="16" fill="#3E3B32"/>
<g opacity="0.2">
<path d="M15.9414 0V216.8" stroke="url(#paint0_linear_895_2804)" stroke-width="0.6" stroke-linecap="round" stroke-linejoin="round"/>
<path d="M409.688 12.7539L0.000234246 12.7539" stroke="url(#paint1_linear_895_2804)" stroke-width="0.6" stroke-linecap="round" stroke-linejoin="round"/>
<path d="M39.853 0V216.8" stroke="url(#paint2_linear_895_2804)" stroke-width="0.6" stroke-linecap="round" stroke-linejoin="round"/>
<path d="M409.688 36.6641L0.000234246 36.6641" stroke="url(#paint3_linear_895_2804)" stroke-width="0.6" stroke-linecap="round" stroke-linejoin="round"/>
<path d="M63.7646 0V216.8" stroke="url(#paint4_linear_895_2804)" stroke-width="0.6" stroke-linecap="round" stroke-linejoin="round"/>
<path d="M409.688 60.5762L0.000234246 60.5762" stroke="url(#paint5_linear_895_2804)" stroke-width="0.6" stroke-linecap="round" stroke-linejoin="round"/>
<path d="M87.6768 0V216.8" stroke="url(#paint6_linear_895_2804)" stroke-width="0.6" stroke-linecap="round" stroke-linejoin="round"/>
<path d="M409.688 84.4885L0.000234246 84.4885" stroke="url(#paint7_linear_895_2804)" stroke-width="0.6" stroke-linecap="round" stroke-linejoin="round"/>
<path d="M111.588 0V216.8" stroke="url(#paint8_linear_895_2804)" stroke-width="0.6" stroke-linecap="round" stroke-linejoin="round"/>
<path d="M409.688 108.4L0.000234246 108.4" stroke="url(#paint9_linear_895_2804)" stroke-width="0.6" stroke-linecap="round" stroke-linejoin="round"/>
<path d="M135.5 0V216.8" stroke="url(#paint10_linear_895_2804)" stroke-width="0.6" stroke-linecap="round" stroke-linejoin="round"/>
<path d="M409.688 132.312L0.000234246 132.312" stroke="url(#paint11_linear_895_2804)" stroke-width="0.6" stroke-linecap="round" stroke-linejoin="round"/>
<path d="M159.412 0V216.8" stroke="url(#paint12_linear_895_2804)" stroke-width="0.6" stroke-linecap="round" stroke-linejoin="round"/>
<path d="M409.688 156.225L0.000234246 156.225" stroke="url(#paint13_linear_895_2804)" stroke-width="0.6" stroke-linecap="round" stroke-linejoin="round"/>
<path d="M183.324 0V216.8" stroke="url(#paint14_linear_895_2804)" stroke-width="0.6" stroke-linecap="round" stroke-linejoin="round"/>
<path d="M409.688 180.135L0.000234246 180.135" stroke="url(#paint15_linear_895_2804)" stroke-width="0.6" stroke-linecap="round" stroke-linejoin="round"/>
<path d="M207.235 0V216.8" stroke="url(#paint16_linear_895_2804)" stroke-width="0.6" stroke-linecap="round" stroke-linejoin="round"/>
<path d="M409.688 204.047L0.000234246 204.047" stroke="url(#paint17_linear_895_2804)" stroke-width="0.6" stroke-linecap="round" stroke-linejoin="round"/>
<path d="M231.147 0V216.8" stroke="url(#paint18_linear_895_2804)" stroke-width="0.6" stroke-linecap="round" stroke-linejoin="round"/>
<path d="M255.059 0V216.8" stroke="url(#paint19_linear_895_2804)" stroke-width="0.6" stroke-linecap="round" stroke-linejoin="round"/>
<path d="M278.971 0V216.8" stroke="url(#paint20_linear_895_2804)" stroke-width="0.6" stroke-linecap="round" stroke-linejoin="round"/>
<path d="M302.882 0V216.8" stroke="url(#paint21_linear_895_2804)" stroke-width="0.6" stroke-linecap="round" stroke-linejoin="round"/>
<path d="M326.794 0V216.8" stroke="url(#paint22_linear_895_2804)" stroke-width="0.6" stroke-linecap="round" stroke-linejoin="round"/>
<path d="M350.706 0V216.8" stroke="url(#paint23_linear_895_2804)" stroke-width="0.6" stroke-linecap="round" stroke-linejoin="round"/>
<path d="M374.618 0V216.8" stroke="url(#paint24_linear_895_2804)" stroke-width="0.6" stroke-linecap="round" stroke-linejoin="round"/>
<path d="M398.53 0V216.8" stroke="url(#paint25_linear_895_2804)" stroke-width="0.6" stroke-linecap="round" stroke-linejoin="round"/>
</g>
<path d="M21.6461 90.7922C18.8601 87.9264 15.5275 85.6405 11.8427 84.0679C8.15796 82.4953 4.19488 81.6676 0.184689 81.633C-3.8255 81.5983 -7.80247 82.3575 -11.5142 83.8662C-15.2259 85.375 -18.598 87.603 -21.4337 90.4203C-24.2695 93.2376 -26.512 96.5878 -28.0306 100.275C-29.5492 103.963 -30.3134 107.914 -30.2785 111.898C-30.2437 115.882 -29.4105 119.82 -27.8277 123.481C-26.2448 127.141 -23.944 130.452 -21.0594 133.22C-15.3632 138.686 -7.73415 141.71 0.184689 141.642C8.10353 141.574 15.6785 138.418 21.2782 132.855C26.8779 127.291 30.0542 119.766 30.123 111.898C30.1918 104.031 27.1476 96.4513 21.6461 90.7922ZM-31.7357 80.1777C-25.8558 74.3378 -18.4717 70.2181 -10.3921 68.2699C-2.31251 66.3216 6.15092 66.6199 14.0712 69.1321C21.9916 71.6443 29.0633 76.2734 34.5119 82.5126C39.9605 88.7518 43.5759 96.3603 44.962 104.505H106V119.508H94.6743V134.511H79.5733V119.508H72.0229V141.997H56.9219V119.508H44.9695C43.7792 126.49 40.9472 133.095 36.7039 138.785C32.4606 144.475 26.9257 149.09 20.5491 152.255C14.1725 155.42 7.13419 157.045 0.00629425 156.999C-7.1216 156.953 -14.1379 155.236 -20.4723 151.988C-26.8066 148.741 -32.2802 144.054 -36.4482 138.309C-40.6162 132.564 -43.3608 125.923 -44.4591 118.926C-45.5573 111.929 -44.9781 104.773 -42.7686 98.04C-40.5591 91.3071 -36.7817 85.1871 -31.7433 80.1777H-31.7357Z" fill="#F1F0EE"/>
<rect x="128" y="105" width="276" height="14" fill="url(#paint26_linear_895_2804)"/>
<g filter="url(#filter0_f_895_2804)">
<circle cx="116.5" cy="111.5" r="17.5" fill="#F8F7F3"/>
</g>
<g filter="url(#filter1_f_895_2804)">
<circle cx="116.5" cy="111.5" r="23.5" fill="#9B9378"/>
</g>
<g filter="url(#filter2_f_895_2804)">
<ellipse cx="116" cy="111.5" rx="14" ry="13.5" fill="#FAFAF9"/>
</g>
<g opacity="0.6">
<rect x="201" y="143" width="78" height="32" rx="16" fill="#0C0A09"/>
<path d="M208.917 156.314L217.04 168.167H220.65L212.527 156.314H208.917ZM212.524 162.897L208.913 168.167H212.526L214.33 165.532L212.524 162.897ZM221.476 149.833L215.234 158.942L217.04 161.579L225.089 149.833H221.476ZM222.13 155.47V168.167H225.089V151.152L222.13 155.47Z" fill="white"/>
<path d="M243.885 156.364L245.571 159.337L247.271 156.364H248.897L246.515 160.182L248.917 164H247.291L245.571 161.146L243.856 164H242.225L244.601 160.182L242.255 156.364H243.885ZM251.403 164H249.772L253.436 153.818H255.211L258.875 164H257.244L254.366 155.668H254.286L251.403 164ZM251.676 160.013H256.966V161.305H251.676V160.013ZM261.881 153.818V164H260.345V153.818H261.881Z" fill="#FAFAF9"/>
</g>
<g opacity="0.8">
<rect x="327" y="18" width="106" height="32" rx="16" fill="#0C0A09"/>
<g clip-path="url(#clip1_895_2804)">
<path fill-rule="evenodd" clip-rule="evenodd" d="M350.958 32.3375C351.167 31.7205 351.239 31.0659 351.17 30.4184C351.101 29.771 350.893 29.1461 350.56 28.5866C349.546 26.845 347.508 25.9483 345.518 26.37C345.078 25.882 344.539 25.4928 343.937 25.2281C343.335 24.9634 342.684 24.8291 342.026 24.8341C339.992 24.83 338.187 26.1225 337.561 28.0325C336.918 28.1612 336.309 28.4253 335.776 28.8072C335.242 29.1891 334.796 29.68 334.467 30.2475C333.969 31.0927 333.756 32.0755 333.86 33.0509C333.964 34.0263 334.378 34.9424 335.043 35.6641C334.834 36.2811 334.762 36.9359 334.831 37.5835C334.899 38.2311 335.107 38.8561 335.44 39.4158C336.454 41.1575 338.492 42.0533 340.482 41.6325C340.922 42.1204 341.461 42.5094 342.063 42.774C342.665 43.0386 343.316 43.1727 343.973 43.1675C346.009 43.1725 347.815 41.8791 348.441 39.9675C349.085 39.8387 349.694 39.5745 350.227 39.1923C350.761 38.8101 351.208 38.3187 351.537 37.7508C352.034 36.9056 352.246 35.9232 352.142 34.9484C352.038 33.9736 351.623 33.058 350.959 32.3366L350.958 32.3375ZM343.974 41.9691C343.161 41.9711 342.373 41.69 341.745 41.1741C341.773 41.1591 341.823 41.1325 341.855 41.1125L345.555 39.0041C345.647 38.9526 345.724 38.8772 345.778 38.7859C345.831 38.6946 345.859 38.5907 345.858 38.485V33.3383L347.423 34.2291C347.439 34.2375 347.45 34.2533 347.453 34.2708V38.5333C347.45 40.4283 345.894 41.965 343.974 41.9691ZM336.493 38.8175C336.086 38.1238 335.939 37.3074 336.078 36.515C336.105 36.5316 336.153 36.5608 336.188 36.58L339.888 38.6883C340.075 38.7966 340.308 38.7966 340.496 38.6883L345.013 36.115V37.8966C345.013 37.9058 345.011 37.9149 345.007 37.9231C345.003 37.9314 344.997 37.9386 344.99 37.9441L341.25 40.0741C339.584 41.0208 337.457 40.4575 336.494 38.8158L336.493 38.8175ZM335.519 30.8475C335.929 30.1491 336.57 29.6165 337.332 29.3425L337.33 29.4683V33.685C337.33 33.7908 337.357 33.8949 337.411 33.9863C337.464 34.0778 337.541 34.1533 337.633 34.205L342.15 36.7775L340.587 37.6691C340.579 37.6741 340.57 37.6771 340.561 37.6778C340.552 37.6785 340.543 37.677 340.534 37.6733L336.793 35.5408C335.131 34.5908 334.561 32.4925 335.518 30.8491L335.519 30.8475ZM348.367 33.7975L343.85 31.2241L345.413 30.3341C345.421 30.329 345.43 30.3259 345.439 30.325C345.448 30.3242 345.457 30.3256 345.466 30.3291L349.207 32.46C350.872 33.41 351.443 35.5116 350.481 37.1541C350.071 37.852 349.43 38.3847 348.669 38.66V34.3175C348.67 34.2118 348.642 34.1079 348.589 34.0166C348.536 33.9253 348.459 33.8499 348.367 33.7983V33.7975ZM349.923 31.4866C349.886 31.4645 349.85 31.4428 349.813 31.4216L346.113 29.3133C346.02 29.2601 345.915 29.2322 345.809 29.2322C345.702 29.2322 345.598 29.2601 345.505 29.3133L340.988 31.8866V30.105C340.988 30.0958 340.99 30.0867 340.994 30.0784C340.998 30.0702 341.004 30.063 341.011 30.0575L344.75 27.9283C346.417 26.9808 348.546 27.545 349.506 29.1891C349.912 29.8833 350.06 30.6966 349.923 31.4866ZM340.138 34.6616L338.574 33.7716C338.566 33.7676 338.559 33.7616 338.554 33.7542C338.549 33.7468 338.545 33.7382 338.544 33.7291V29.4666C338.545 27.5691 340.105 26.0316 342.028 26.0333C342.842 26.0333 343.628 26.315 344.254 26.8283C344.226 26.8433 344.178 26.87 344.145 26.8891L340.445 28.9975C340.353 29.0489 340.276 29.1242 340.222 29.2155C340.169 29.3068 340.141 29.4108 340.141 29.5166L340.138 34.6608V34.6616ZM340.988 32.855L343 31.7091L345.012 32.855V35.1466L343 36.2925L340.988 35.1466V32.855H340.988Z" fill="white"/>
</g>
<path d="M377.403 33.9091C377.403 34.9962 377.204 35.9309 376.806 36.7131C376.408 37.492 375.863 38.0919 375.17 38.5128C374.481 38.9304 373.697 39.1392 372.819 39.1392C371.937 39.1392 371.15 38.9304 370.457 38.5128C369.768 38.0919 369.224 37.4903 368.827 36.7081C368.429 35.9259 368.23 34.9929 368.23 33.9091C368.23 32.822 368.429 31.889 368.827 31.1101C369.224 30.3279 369.768 29.728 370.457 29.3104C371.15 28.8894 371.937 28.679 372.819 28.679C373.697 28.679 374.481 28.8894 375.17 29.3104C375.863 29.728 376.408 30.3279 376.806 31.1101C377.204 31.889 377.403 32.822 377.403 33.9091ZM375.881 33.9091C375.881 33.0805 375.747 32.3828 375.479 31.8161C375.213 31.246 374.849 30.8151 374.385 30.5234C373.924 30.2285 373.402 30.081 372.819 30.081C372.232 30.081 371.708 30.2285 371.248 30.5234C370.787 30.8151 370.422 31.246 370.154 31.8161C369.889 32.3828 369.756 33.0805 369.756 33.9091C369.756 34.7377 369.889 35.437 370.154 36.0071C370.422 36.5739 370.787 37.0047 371.248 37.2997C371.708 37.5914 372.232 37.7372 372.819 37.7372C373.402 37.7372 373.924 37.5914 374.385 37.2997C374.849 37.0047 375.213 36.5739 375.479 36.0071C375.747 35.437 375.881 34.7377 375.881 33.9091ZM379.199 41.8636V31.3636H380.65V32.6016H380.775C380.861 32.4425 380.985 32.2585 381.147 32.0497C381.31 31.8409 381.535 31.6586 381.824 31.5028C382.112 31.3438 382.493 31.2642 382.967 31.2642C383.583 31.2642 384.134 31.42 384.618 31.7315C385.101 32.0431 385.481 32.4922 385.756 33.0788C386.034 33.6655 386.174 34.3714 386.174 35.1967C386.174 36.022 386.036 36.7296 385.761 37.3196C385.486 37.9062 385.108 38.3587 384.627 38.6768C384.147 38.9917 383.598 39.1491 382.982 39.1491C382.518 39.1491 382.138 39.0713 381.843 38.9155C381.552 38.7597 381.323 38.5774 381.157 38.3686C380.992 38.1598 380.864 37.9742 380.775 37.8118H380.685V41.8636H379.199ZM380.655 35.1818C380.655 35.7187 380.733 36.1894 380.889 36.5938C381.045 36.9981 381.27 37.3146 381.565 37.5433C381.86 37.7687 382.221 37.8814 382.649 37.8814C383.093 37.8814 383.464 37.7637 383.762 37.5284C384.061 37.2898 384.286 36.9666 384.439 36.5589C384.594 36.1513 384.672 35.6922 384.672 35.1818C384.672 34.678 384.596 34.2256 384.444 33.8246C384.294 33.4235 384.069 33.107 383.767 32.875C383.469 32.643 383.096 32.527 382.649 32.527C382.218 32.527 381.853 32.638 381.555 32.8601C381.26 33.0821 381.036 33.392 380.884 33.7898C380.731 34.1875 380.655 34.6515 380.655 35.1818ZM391.13 39.1541C390.378 39.1541 389.73 38.9934 389.186 38.6719C388.646 38.3471 388.229 37.8913 387.934 37.3047C387.642 36.7147 387.496 36.0237 387.496 35.2315C387.496 34.4493 387.642 33.7599 387.934 33.1634C388.229 32.5668 388.64 32.1011 389.167 31.7663C389.697 31.4316 390.317 31.2642 391.026 31.2642C391.457 31.2642 391.874 31.3355 392.279 31.478C392.683 31.6205 393.046 31.8442 393.368 32.1491C393.689 32.4541 393.943 32.8501 394.128 33.3374C394.314 33.8213 394.407 34.4096 394.407 35.1023V35.6293H388.336V34.5156H392.95C392.95 34.1245 392.87 33.7782 392.711 33.4766C392.552 33.1716 392.328 32.9313 392.04 32.7557C391.755 32.58 391.42 32.4922 391.036 32.4922C390.618 32.4922 390.254 32.5949 389.942 32.8004C389.634 33.0026 389.395 33.2678 389.226 33.5959C389.06 33.9207 388.978 34.2737 388.978 34.6548V35.5249C388.978 36.0353 389.067 36.4695 389.246 36.8274C389.428 37.1854 389.682 37.4588 390.007 37.6477C390.332 37.8333 390.711 37.9261 391.145 37.9261C391.427 37.9261 391.684 37.8864 391.916 37.8068C392.148 37.724 392.348 37.6013 392.517 37.4389C392.686 37.2765 392.816 37.076 392.905 36.8374L394.312 37.0909C394.199 37.5052 393.997 37.8681 393.706 38.1797C393.417 38.4879 393.054 38.7282 392.617 38.9006C392.183 39.0696 391.687 39.1541 391.13 39.1541ZM397.542 34.4659V39H396.056V31.3636H397.483V32.6065H397.577C397.753 32.2022 398.028 31.8774 398.403 31.6321C398.78 31.3868 399.256 31.2642 399.829 31.2642C400.35 31.2642 400.805 31.3736 401.197 31.5923C401.588 31.8078 401.891 32.1293 402.106 32.5568C402.322 32.9844 402.43 33.513 402.43 34.1428V39H400.943V34.3217C400.943 33.7682 400.799 33.3357 400.51 33.0241C400.222 32.7093 399.826 32.5518 399.322 32.5518C398.978 32.5518 398.671 32.6264 398.403 32.7756C398.137 32.9247 397.927 33.1435 397.771 33.4318C397.619 33.7169 397.542 34.0616 397.542 34.4659ZM405.403 39H403.772L407.436 28.8182H409.211L412.875 39H411.244L408.366 30.6676H408.286L405.403 39ZM405.676 35.0128H410.966V36.3054H405.676V35.0128ZM415.881 28.8182V39H414.345V28.8182H415.881Z" fill="#FAFAF9"/>
</g>
<g opacity="0.4">
<rect x="353" y="156" width="122" height="32" rx="16" fill="#0C0A09"/>
<path fill-rule="evenodd" clip-rule="evenodd" d="M370.522 164.934H373.525L379 178.667H375.997L370.522 164.934ZM364.474 164.934H367.613L373.088 178.667H370.027L368.907 175.783H363.181L362.061 178.666H359L364.475 164.935L364.474 164.934ZM367.917 173.233L366.044 168.406L364.171 173.234H367.917L367.917 173.233Z" fill="white"/>
<path d="M395.408 177H393.778L397.442 166.818H399.217L402.881 177H401.25L398.371 168.668H398.292L395.408 177ZM395.682 173.013H400.972V174.305H395.682V173.013ZM405.718 172.466V177H404.232V169.364H405.659V170.607H405.753C405.929 170.202 406.204 169.877 406.578 169.632C406.956 169.387 407.432 169.264 408.005 169.264C408.526 169.264 408.981 169.374 409.372 169.592C409.763 169.808 410.067 170.129 410.282 170.557C410.498 170.984 410.605 171.513 410.605 172.143V177H409.119V172.322C409.119 171.768 408.975 171.336 408.686 171.024C408.398 170.709 408.002 170.552 407.498 170.552C407.153 170.552 406.847 170.626 406.578 170.776C406.313 170.925 406.103 171.143 405.947 171.432C405.794 171.717 405.718 172.062 405.718 172.466ZM416.164 169.364V170.557H411.992V169.364H416.164ZM413.111 167.534H414.597V174.758C414.597 175.046 414.641 175.263 414.727 175.409C414.813 175.552 414.924 175.649 415.06 175.702C415.199 175.752 415.35 175.777 415.512 175.777C415.632 175.777 415.736 175.769 415.825 175.752C415.915 175.736 415.985 175.722 416.034 175.712L416.303 176.94C416.217 176.973 416.094 177.007 415.935 177.04C415.776 177.076 415.577 177.096 415.338 177.099C414.947 177.106 414.583 177.036 414.244 176.891C413.906 176.745 413.633 176.519 413.424 176.214C413.215 175.91 413.111 175.527 413.111 175.066V167.534ZM419.458 172.466V177H417.972V166.818H419.439V170.607H419.533C419.712 170.196 419.985 169.869 420.353 169.627C420.721 169.385 421.202 169.264 421.795 169.264C422.319 169.264 422.776 169.372 423.167 169.587C423.562 169.803 423.867 170.124 424.082 170.552C424.301 170.976 424.41 171.506 424.41 172.143V177H422.924V172.322C422.924 171.762 422.779 171.327 422.491 171.019C422.203 170.708 421.802 170.552 421.288 170.552C420.937 170.552 420.622 170.626 420.343 170.776C420.068 170.925 419.851 171.143 419.692 171.432C419.536 171.717 419.458 172.062 419.458 172.466ZM426.394 177V169.364H427.831V170.577H427.91C428.049 170.166 428.295 169.843 428.646 169.607C429.001 169.369 429.402 169.249 429.849 169.249C429.942 169.249 430.051 169.253 430.177 169.259C430.306 169.266 430.408 169.274 430.48 169.284V170.706C430.421 170.689 430.315 170.671 430.162 170.651C430.01 170.628 429.857 170.616 429.705 170.616C429.354 170.616 429.04 170.691 428.765 170.84C428.493 170.986 428.278 171.19 428.119 171.452C427.96 171.71 427.88 172.005 427.88 172.337V177H426.394ZM434.71 177.154C433.994 177.154 433.369 176.99 432.836 176.662C432.302 176.334 431.888 175.875 431.593 175.285C431.298 174.695 431.15 174.005 431.15 173.217C431.15 172.424 431.298 171.732 431.593 171.138C431.888 170.545 432.302 170.085 432.836 169.756C433.369 169.428 433.994 169.264 434.71 169.264C435.426 169.264 436.051 169.428 436.584 169.756C437.118 170.085 437.532 170.545 437.827 171.138C438.122 171.732 438.27 172.424 438.27 173.217C438.27 174.005 438.122 174.695 437.827 175.285C437.532 175.875 437.118 176.334 436.584 176.662C436.051 176.99 435.426 177.154 434.71 177.154ZM434.715 175.906C435.179 175.906 435.564 175.784 435.868 175.538C436.173 175.293 436.399 174.967 436.545 174.559C436.694 174.151 436.768 173.702 436.768 173.212C436.768 172.724 436.694 172.277 436.545 171.869C436.399 171.458 436.173 171.129 435.868 170.88C435.564 170.631 435.179 170.507 434.715 170.507C434.248 170.507 433.86 170.631 433.552 170.88C433.247 171.129 433.02 171.458 432.871 171.869C432.725 172.277 432.652 172.724 432.652 173.212C432.652 173.702 432.725 174.151 432.871 174.559C433.02 174.967 433.247 175.293 433.552 175.538C433.86 175.784 434.248 175.906 434.715 175.906ZM439.929 179.864V169.364H441.381V170.602H441.505C441.591 170.442 441.715 170.259 441.878 170.05C442.04 169.841 442.266 169.659 442.554 169.503C442.842 169.344 443.223 169.264 443.697 169.264C444.314 169.264 444.864 169.42 445.348 169.732C445.832 170.043 446.211 170.492 446.487 171.079C446.765 171.665 446.904 172.371 446.904 173.197C446.904 174.022 446.767 174.73 446.491 175.32C446.216 175.906 445.839 176.359 445.358 176.677C444.877 176.992 444.329 177.149 443.712 177.149C443.248 177.149 442.869 177.071 442.574 176.915C442.282 176.76 442.054 176.577 441.888 176.369C441.722 176.16 441.594 175.974 441.505 175.812H441.415V179.864H439.929ZM441.386 173.182C441.386 173.719 441.464 174.189 441.619 174.594C441.775 174.998 442 175.315 442.295 175.543C442.59 175.769 442.952 175.881 443.379 175.881C443.823 175.881 444.195 175.764 444.493 175.528C444.791 175.29 445.017 174.967 445.169 174.559C445.325 174.151 445.403 173.692 445.403 173.182C445.403 172.678 445.326 172.226 445.174 171.825C445.025 171.424 444.799 171.107 444.498 170.875C444.2 170.643 443.827 170.527 443.379 170.527C442.948 170.527 442.584 170.638 442.286 170.86C441.991 171.082 441.767 171.392 441.614 171.79C441.462 172.187 441.386 172.652 441.386 173.182ZM448.57 177V169.364H450.056V177H448.57ZM449.32 168.185C449.062 168.185 448.84 168.099 448.654 167.927C448.472 167.751 448.381 167.542 448.381 167.3C448.381 167.055 448.472 166.846 448.654 166.674C448.84 166.498 449.062 166.411 449.32 166.411C449.579 166.411 449.799 166.498 449.982 166.674C450.167 166.846 450.26 167.055 450.26 167.3C450.26 167.542 450.167 167.751 449.982 167.927C449.799 168.099 449.579 168.185 449.32 168.185ZM455.273 177.154C454.533 177.154 453.897 176.987 453.363 176.652C452.833 176.314 452.425 175.848 452.14 175.255C451.855 174.662 451.713 173.982 451.713 173.217C451.713 172.441 451.859 171.757 452.15 171.163C452.442 170.567 452.853 170.101 453.383 169.766C453.914 169.432 454.538 169.264 455.258 169.264C455.838 169.264 456.355 169.372 456.809 169.587C457.263 169.799 457.629 170.098 457.907 170.482C458.189 170.867 458.357 171.316 458.41 171.83H456.963C456.883 171.472 456.701 171.163 456.416 170.905C456.134 170.646 455.756 170.517 455.282 170.517C454.868 170.517 454.505 170.626 454.194 170.845C453.885 171.061 453.645 171.369 453.473 171.77C453.3 172.168 453.214 172.638 453.214 173.182C453.214 173.739 453.299 174.219 453.468 174.624C453.637 175.028 453.876 175.341 454.184 175.563C454.495 175.785 454.862 175.896 455.282 175.896C455.564 175.896 455.819 175.845 456.048 175.742C456.28 175.636 456.474 175.485 456.63 175.29C456.789 175.094 456.9 174.859 456.963 174.584H458.41C458.357 175.078 458.196 175.518 457.927 175.906C457.659 176.294 457.299 176.599 456.849 176.821C456.401 177.043 455.876 177.154 455.273 177.154Z" fill="#FAFAF9"/>
</g>
<g opacity="0.4">
<rect x="215" y="45" width="103" height="32" rx="16" fill="#0C0A09"/>
<g clip-path="url(#clip2_895_2804)">
<path d="M231 71C230.619 68.4841 229.443 66.1561 227.643 64.3568C225.844 62.5575 223.516 61.3812 221 61C223.516 60.6188 225.844 59.4425 227.643 57.6432C229.443 55.8439 230.619 53.5159 231 51C231.381 53.5159 232.558 55.8437 234.357 57.6431C236.156 59.4424 238.484 60.6187 241 61C238.484 61.3813 236.156 62.5576 234.357 64.3569C232.558 66.1563 231.381 68.4841 231 71Z" fill="url(#paint27_linear_895_2804)"/>
</g>
<path d="M263.593 59.0348C263.497 58.7332 263.368 58.4631 263.205 58.2244C263.046 57.9825 262.856 57.777 262.634 57.608C262.412 57.4356 262.158 57.3047 261.873 57.2152C261.591 57.1257 261.281 57.081 260.943 57.081C260.37 57.081 259.853 57.2285 259.392 57.5234C258.932 57.8184 258.567 58.2509 258.298 58.821C258.033 59.3878 257.901 60.0821 257.901 60.9041C257.901 61.7294 258.035 62.4271 258.303 62.9972C258.572 63.5672 258.94 63.9998 259.407 64.2947C259.874 64.5897 260.406 64.7372 261.003 64.7372C261.557 64.7372 262.039 64.6245 262.45 64.3991C262.864 64.1738 263.184 63.8556 263.409 63.4446C263.638 63.0303 263.752 62.5431 263.752 61.983L264.15 62.0575H261.237V60.7898H265.239V61.9482C265.239 62.8033 265.057 63.5457 264.692 64.1754C264.331 64.8018 263.83 65.2857 263.191 65.6271C262.554 65.9685 261.825 66.1392 261.003 66.1392C260.082 66.1392 259.273 65.9271 258.577 65.5028C257.884 65.0786 257.344 64.477 256.956 63.6982C256.568 62.916 256.374 61.9879 256.374 60.9141C256.374 60.102 256.487 59.3729 256.713 58.7266C256.938 58.0803 257.254 57.5317 257.662 57.081C258.073 56.6269 258.555 56.2805 259.109 56.0419C259.666 55.8 260.274 55.679 260.933 55.679C261.484 55.679 261.996 55.7602 262.47 55.9226C262.947 56.085 263.371 56.3153 263.742 56.6136C264.117 56.9119 264.427 57.2666 264.672 57.6776C264.917 58.0852 265.083 58.5376 265.169 59.0348H263.593ZM270.361 66.1541C269.608 66.1541 268.96 65.9934 268.417 65.6719C267.877 65.3471 267.459 64.8913 267.164 64.3047C266.872 63.7147 266.727 63.0237 266.727 62.2315C266.727 61.4493 266.872 60.7599 267.164 60.1634C267.459 59.5668 267.87 59.1011 268.397 58.7663C268.927 58.4316 269.547 58.2642 270.256 58.2642C270.687 58.2642 271.105 58.3355 271.509 58.478C271.914 58.6205 272.277 58.8442 272.598 59.1491C272.92 59.4541 273.173 59.8501 273.359 60.3374C273.544 60.8213 273.637 61.4096 273.637 62.1023V62.6293H267.567V61.5156H272.18C272.18 61.1245 272.101 60.7782 271.942 60.4766C271.783 60.1716 271.559 59.9313 271.271 59.7557C270.986 59.58 270.651 59.4922 270.266 59.4922C269.849 59.4922 269.484 59.5949 269.173 59.8004C268.864 60.0026 268.626 60.2678 268.457 60.5959C268.291 60.9207 268.208 61.2737 268.208 61.6548V62.5249C268.208 63.0353 268.298 63.4695 268.477 63.8274C268.659 64.1854 268.912 64.4588 269.237 64.6477C269.562 64.8333 269.942 64.9261 270.376 64.9261C270.657 64.9261 270.914 64.8864 271.146 64.8068C271.378 64.724 271.579 64.6013 271.748 64.4389C271.917 64.2765 272.046 64.076 272.136 63.8374L273.543 64.0909C273.43 64.5052 273.228 64.8681 272.936 65.1797C272.648 65.4879 272.285 65.7282 271.847 65.9006C271.413 66.0696 270.918 66.1541 270.361 66.1541ZM275.286 66V58.3636H276.713V59.6065H276.808C276.967 59.1856 277.227 58.8575 277.588 58.6222C277.95 58.3835 278.382 58.2642 278.886 58.2642C279.396 58.2642 279.824 58.3835 280.169 58.6222C280.517 58.8608 280.773 59.1889 280.939 59.6065H281.019C281.201 59.1989 281.491 58.8741 281.889 58.6321C282.286 58.3868 282.76 58.2642 283.311 58.2642C284.003 58.2642 284.568 58.4813 285.006 58.9155C285.447 59.3497 285.667 60.0043 285.667 60.8793V66H284.181V61.0185C284.181 60.5014 284.04 60.1269 283.758 59.8949C283.476 59.6629 283.14 59.5469 282.749 59.5469C282.265 59.5469 281.889 59.696 281.62 59.9943C281.352 60.2893 281.218 60.6688 281.218 61.1328V66H279.736V60.924C279.736 60.5097 279.607 60.1766 279.348 59.9247C279.09 59.6728 278.753 59.5469 278.339 59.5469C278.057 59.5469 277.797 59.6214 277.558 59.7706C277.323 59.9164 277.133 60.1203 276.987 60.3821C276.844 60.6439 276.773 60.9472 276.773 61.2919V66H275.286ZM287.659 66V58.3636H289.146V66H287.659ZM288.41 57.1854C288.152 57.1854 287.93 57.0992 287.744 56.9268C287.562 56.7512 287.471 56.5424 287.471 56.3004C287.471 56.0552 287.562 55.8464 287.744 55.674C287.93 55.4983 288.152 55.4105 288.41 55.4105C288.669 55.4105 288.889 55.4983 289.071 55.674C289.257 55.8464 289.35 56.0552 289.35 56.3004C289.35 56.5424 289.257 56.7512 289.071 56.9268C288.889 57.0992 288.669 57.1854 288.41 57.1854ZM292.632 61.4659V66H291.146V58.3636H292.573V59.6065H292.667C292.843 59.2022 293.118 58.8774 293.492 58.6321C293.87 58.3868 294.346 58.2642 294.919 58.2642C295.44 58.2642 295.895 58.3736 296.286 58.5923C296.677 58.8078 296.981 59.1293 297.196 59.5568C297.412 59.9844 297.519 60.513 297.519 61.1428V66H296.033V61.3217C296.033 60.7682 295.889 60.3357 295.6 60.0241C295.312 59.7093 294.916 59.5518 294.412 59.5518C294.067 59.5518 293.761 59.6264 293.492 59.7756C293.227 59.9247 293.017 60.1435 292.861 60.4318C292.709 60.7169 292.632 61.0616 292.632 61.4659ZM299.513 66V58.3636H300.999V66H299.513ZM300.264 57.1854C300.005 57.1854 299.783 57.0992 299.597 56.9268C299.415 56.7512 299.324 56.5424 299.324 56.3004C299.324 56.0552 299.415 55.8464 299.597 55.674C299.783 55.4983 300.005 55.4105 300.264 55.4105C300.522 55.4105 300.743 55.4983 300.925 55.674C301.11 55.8464 301.203 56.0552 301.203 56.3004C301.203 56.5424 301.11 56.7512 300.925 56.9268C300.743 57.0992 300.522 57.1854 300.264 57.1854Z" fill="#FAFAF9"/>
</g>
<rect x="262" y="90" width="171" height="42" rx="21" fill="#0C0A09"/>
<path d="M290.213 113.778H301.618C301.72 113.778 301.817 113.74 301.888 113.672C301.96 113.603 302 113.51 302 113.414V111C302 110.987 302 110.975 302 110.963C301.998 110.945 301.994 110.928 301.989 110.911C301.989 110.908 301.989 110.905 301.989 110.903C301.984 110.885 301.978 110.868 301.97 110.851L301.967 110.843C301.959 110.827 301.949 110.811 301.938 110.796C301.928 110.782 301.916 110.768 301.903 110.755L301.897 110.748C301.884 110.736 301.87 110.724 301.856 110.713L301.847 110.707C301.832 110.696 301.816 110.687 301.799 110.678L296.236 108.267L296.227 108.263L296.205 108.253L296.19 108.248L296.171 108.242L296.151 108.237L296.135 108.234L296.112 108.23H296.098H296.071H284.033L280.147 106.548H291.951C292.052 106.548 292.15 106.51 292.221 106.442C292.293 106.373 292.333 106.28 292.333 106.184V103.773C292.333 103.758 292.332 103.743 292.33 103.728V103.719C292.324 103.682 292.313 103.646 292.295 103.612L292.292 103.606C292.283 103.59 292.273 103.575 292.263 103.56C292.261 103.558 292.259 103.555 292.257 103.553C292.246 103.538 292.233 103.525 292.22 103.512L292.215 103.508C292.2 103.495 292.185 103.483 292.169 103.473C292.152 103.462 292.134 103.452 292.115 103.444H292.112L286.541 101.032C286.491 101.011 286.437 101 286.383 101H278.38C278.359 101 278.339 101.002 278.319 101.005H278.31C278.292 101.009 278.274 101.013 278.256 101.019L278.248 101.022C278.229 101.028 278.21 101.036 278.193 101.045H278.189C278.172 101.054 278.156 101.064 278.142 101.076L278.138 101.078C278.123 101.09 278.11 101.102 278.097 101.115L278.09 101.122C278.078 101.136 278.067 101.15 278.057 101.165C278.055 101.168 278.053 101.17 278.052 101.173C278.042 101.189 278.033 101.205 278.026 101.222V101.226C278.018 101.244 278.012 101.263 278.008 101.282C278.003 101.301 278.001 101.32 278 101.339C278 101.342 278 101.346 278 101.35C278 101.353 278 101.356 278 101.359V103.77C278 103.84 278.021 103.909 278.061 103.968C278.101 104.027 278.157 104.073 278.224 104.102L282.184 105.815H278.38C278.359 105.815 278.339 105.817 278.319 105.82H278.31C278.292 105.824 278.274 105.828 278.256 105.834L278.248 105.837C278.229 105.844 278.211 105.851 278.193 105.86L278.189 105.863C278.172 105.872 278.157 105.882 278.142 105.893L278.138 105.896C278.123 105.907 278.11 105.92 278.097 105.933L278.09 105.94C278.078 105.954 278.067 105.968 278.057 105.983L278.052 105.99C278.042 106.007 278.033 106.025 278.026 106.043V106.046C278.018 106.064 278.012 106.083 278.008 106.102C278.003 106.121 278.001 106.14 278 106.159C278 106.162 278 106.166 278 106.17C278 106.173 278 106.175 278 106.179V108.59C278 108.66 278.021 108.729 278.061 108.788C278.101 108.847 278.157 108.893 278.224 108.922L282.184 110.636H278.38C278.359 110.636 278.339 110.637 278.319 110.64H278.31C278.292 110.643 278.273 110.648 278.256 110.654L278.248 110.657C278.229 110.663 278.21 110.671 278.193 110.68H278.189C278.172 110.689 278.157 110.699 278.142 110.711C278.14 110.711 278.139 110.712 278.138 110.713C278.123 110.725 278.11 110.737 278.097 110.75L278.09 110.758C278.078 110.771 278.067 110.785 278.057 110.8C278.055 110.803 278.053 110.805 278.052 110.808C278.042 110.825 278.033 110.842 278.026 110.86V110.864C278.018 110.882 278.012 110.901 278.008 110.92C278.003 110.939 278.001 110.957 278 110.976C278 110.98 278 110.984 278 110.987C278 110.991 278 110.993 278 110.997V113.408C278 113.478 278.021 113.547 278.061 113.605C278.101 113.664 278.157 113.711 278.224 113.74L282.184 115.46H278.38C278.359 115.46 278.339 115.462 278.319 115.465H278.31C278.292 115.469 278.274 115.473 278.256 115.479L278.248 115.482C278.229 115.488 278.21 115.496 278.193 115.505L278.189 115.508C278.172 115.517 278.157 115.527 278.142 115.538H278.138C278.123 115.549 278.11 115.562 278.097 115.576L278.09 115.582C278.078 115.596 278.067 115.61 278.057 115.625L278.052 115.633C278.042 115.649 278.033 115.665 278.026 115.682V115.686C278.018 115.704 278.012 115.723 278.008 115.742C278.003 115.761 278.001 115.779 278 115.798C278 115.802 278 115.805 278 115.809C278 115.814 278 115.815 278 115.818V118.23C278 118.3 278.021 118.368 278.061 118.427C278.101 118.486 278.157 118.533 278.224 118.562L283.796 120.973C283.805 120.977 283.815 120.981 283.824 120.984L283.832 120.986C283.843 120.99 283.853 120.993 283.864 120.995H283.871C283.882 120.997 283.893 120.999 283.905 121H283.91C283.923 121 283.937 121 283.951 121H301.617C301.718 121 301.816 120.962 301.887 120.893C301.959 120.825 301.999 120.732 301.999 120.635V118.236C301.999 118.221 301.998 118.206 301.996 118.192V118.182C301.99 118.146 301.978 118.111 301.961 118.078L301.958 118.071C301.949 118.056 301.94 118.04 301.929 118.026L301.923 118.018C301.911 118.004 301.899 117.99 301.886 117.978L301.881 117.973C301.866 117.96 301.851 117.949 301.836 117.938C301.818 117.927 301.8 117.918 301.781 117.909H301.778L296.207 115.498C296.157 115.477 296.103 115.466 296.049 115.466H284.333V113.784L290.213 113.778ZM284.333 105.815V104.133H291.57V105.815H284.333ZM286.296 101.722L290.182 103.404H284.033L280.147 101.722H286.296ZM278.76 101.923L283.568 104.004V105.614L278.76 103.531V101.923ZM285.648 110.636H284.333V108.954H295.964L299.851 110.636H285.648ZM278.761 106.743L283.569 108.824V110.435L278.761 108.354V106.743ZM283.951 111.365H301.236V113.047H284.033L280.147 111.365H283.951ZM278.761 111.565L283.569 113.649V115.26L278.761 113.176V111.565ZM278.761 116.388L283.569 118.469V120.08L278.761 117.999V116.388ZM284.333 120.281V118.601H301.236V120.283L284.333 120.281ZM295.964 116.187L299.851 117.871H284.033L280.147 116.189H295.964V116.187Z" fill="white"/>
<path d="M309.54 106.897V104.909H319.985V106.897H315.939V118H313.586V106.897H309.54ZM324.819 118.192C323.834 118.192 322.984 117.987 322.268 117.578C321.557 117.165 321.009 116.581 320.626 115.827C320.242 115.068 320.05 114.175 320.05 113.148C320.05 112.138 320.242 111.252 320.626 110.489C321.013 109.722 321.555 109.126 322.249 108.7C322.944 108.269 323.76 108.054 324.697 108.054C325.302 108.054 325.873 108.152 326.41 108.348C326.952 108.54 327.429 108.838 327.842 109.243C328.26 109.648 328.588 110.163 328.827 110.79C329.065 111.412 329.184 112.153 329.184 113.014V113.724H321.137V112.164H326.966C326.962 111.721 326.866 111.327 326.679 110.982C326.491 110.632 326.229 110.357 325.893 110.157C325.56 109.957 325.172 109.857 324.729 109.857C324.256 109.857 323.841 109.972 323.483 110.202C323.125 110.428 322.846 110.726 322.645 111.097C322.449 111.463 322.349 111.866 322.345 112.305V113.666C322.345 114.237 322.449 114.727 322.658 115.136C322.867 115.541 323.159 115.852 323.534 116.07C323.909 116.283 324.348 116.389 324.851 116.389C325.187 116.389 325.492 116.342 325.765 116.249C326.037 116.151 326.274 116.008 326.474 115.82C326.675 115.633 326.826 115.401 326.928 115.124L329.089 115.366C328.952 115.937 328.692 116.436 328.309 116.862C327.93 117.284 327.444 117.612 326.851 117.847C326.259 118.077 325.581 118.192 324.819 118.192ZM333.456 112.247V118H331.142V108.182H333.354V109.85H333.469C333.695 109.3 334.055 108.864 334.549 108.54C335.048 108.216 335.663 108.054 336.396 108.054C337.074 108.054 337.664 108.199 338.167 108.489C338.674 108.778 339.066 109.198 339.343 109.748C339.624 110.298 339.763 110.964 339.759 111.749V118H337.445V112.107C337.445 111.45 337.274 110.937 336.933 110.566C336.597 110.195 336.13 110.01 335.533 110.01C335.129 110.01 334.768 110.099 334.453 110.278C334.142 110.453 333.897 110.707 333.718 111.039C333.543 111.371 333.456 111.774 333.456 112.247ZM349.871 110.777L347.761 111.007C347.702 110.794 347.597 110.594 347.448 110.406C347.303 110.219 347.107 110.067 346.86 109.952C346.613 109.837 346.31 109.78 345.952 109.78C345.471 109.78 345.066 109.884 344.738 110.093C344.414 110.302 344.254 110.572 344.259 110.905C344.254 111.19 344.359 111.423 344.572 111.602C344.789 111.781 345.147 111.928 345.646 112.043L347.32 112.401C348.249 112.601 348.94 112.918 349.391 113.353C349.847 113.788 350.077 114.357 350.082 115.06C350.077 115.678 349.896 116.223 349.538 116.696C349.185 117.165 348.692 117.531 348.062 117.795C347.431 118.06 346.707 118.192 345.888 118.192C344.687 118.192 343.719 117.94 342.987 117.438C342.254 116.93 341.817 116.225 341.676 115.322L343.933 115.104C344.035 115.548 344.252 115.882 344.585 116.108C344.917 116.334 345.349 116.447 345.882 116.447C346.432 116.447 346.873 116.334 347.205 116.108C347.542 115.882 347.71 115.603 347.71 115.271C347.71 114.989 347.602 114.757 347.384 114.574C347.171 114.391 346.839 114.25 346.387 114.152L344.712 113.8C343.771 113.604 343.074 113.274 342.622 112.81C342.17 112.341 341.947 111.749 341.951 111.033C341.947 110.428 342.111 109.903 342.443 109.46C342.78 109.013 343.246 108.668 343.843 108.425C344.444 108.178 345.136 108.054 345.92 108.054C347.071 108.054 347.977 108.299 348.637 108.789C349.302 109.279 349.713 109.942 349.871 110.777ZM356.272 118.192C355.314 118.192 354.483 117.981 353.779 117.559C353.076 117.137 352.531 116.547 352.143 115.788C351.76 115.03 351.568 114.143 351.568 113.129C351.568 112.115 351.76 111.227 352.143 110.464C352.531 109.701 353.076 109.109 353.779 108.687C354.483 108.265 355.314 108.054 356.272 108.054C357.231 108.054 358.062 108.265 358.765 108.687C359.468 109.109 360.012 109.701 360.395 110.464C360.783 111.227 360.977 112.115 360.977 113.129C360.977 114.143 360.783 115.03 360.395 115.788C360.012 116.547 359.468 117.137 358.765 117.559C358.062 117.981 357.231 118.192 356.272 118.192ZM356.285 116.338C356.805 116.338 357.24 116.195 357.589 115.91C357.939 115.62 358.199 115.232 358.369 114.746C358.544 114.261 358.631 113.719 358.631 113.123C358.631 112.522 358.544 111.979 358.369 111.493C358.199 111.003 357.939 110.613 357.589 110.323C357.24 110.033 356.805 109.888 356.285 109.888C355.752 109.888 355.309 110.033 354.956 110.323C354.606 110.613 354.344 111.003 354.169 111.493C353.999 111.979 353.914 112.522 353.914 113.123C353.914 113.719 353.999 114.261 354.169 114.746C354.344 115.232 354.606 115.62 354.956 115.91C355.309 116.195 355.752 116.338 356.285 116.338ZM362.941 118V108.182H365.184V109.818H365.287C365.466 109.251 365.773 108.815 366.207 108.508C366.646 108.197 367.147 108.041 367.709 108.041C367.837 108.041 367.98 108.048 368.138 108.06C368.3 108.069 368.434 108.084 368.54 108.105V110.234C368.442 110.2 368.287 110.17 368.074 110.144C367.865 110.114 367.662 110.099 367.466 110.099C367.045 110.099 366.665 110.191 366.329 110.374C365.996 110.553 365.734 110.803 365.542 111.122C365.351 111.442 365.255 111.81 365.255 112.228V118H362.941ZM370.18 118V104.909H375.191C376.137 104.909 376.923 105.058 377.55 105.357C378.181 105.651 378.651 106.053 378.963 106.565C379.278 107.076 379.436 107.656 379.436 108.303C379.436 108.836 379.333 109.292 379.129 109.671C378.924 110.046 378.649 110.351 378.304 110.585C377.959 110.82 377.573 110.988 377.147 111.09V111.218C377.612 111.244 378.057 111.386 378.483 111.646C378.914 111.902 379.265 112.264 379.538 112.733C379.811 113.202 379.947 113.768 379.947 114.433C379.947 115.111 379.783 115.72 379.455 116.261C379.127 116.798 378.632 117.222 377.972 117.533C377.311 117.844 376.48 118 375.479 118H370.18ZM372.551 116.018H375.102C375.963 116.018 376.583 115.854 376.962 115.526C377.345 115.194 377.537 114.768 377.537 114.248C377.537 113.86 377.441 113.511 377.249 113.2C377.058 112.884 376.785 112.637 376.431 112.458C376.078 112.275 375.656 112.183 375.166 112.183H372.551V116.018ZM372.551 110.477H374.897C375.306 110.477 375.675 110.402 376.003 110.253C376.331 110.099 376.589 109.884 376.776 109.607C376.968 109.326 377.064 108.994 377.064 108.61C377.064 108.103 376.885 107.685 376.527 107.357C376.173 107.029 375.647 106.865 374.948 106.865H372.551V110.477ZM384.222 104.909V118H381.908V104.909H384.222ZM390.884 118.192C389.925 118.192 389.094 117.981 388.391 117.559C387.688 117.137 387.142 116.547 386.754 115.788C386.371 115.03 386.179 114.143 386.179 113.129C386.179 112.115 386.371 111.227 386.754 110.464C387.142 109.701 387.688 109.109 388.391 108.687C389.094 108.265 389.925 108.054 390.884 108.054C391.843 108.054 392.673 108.265 393.377 108.687C394.08 109.109 394.623 109.701 395.007 110.464C395.394 111.227 395.588 112.115 395.588 113.129C395.588 114.143 395.394 115.03 395.007 115.788C394.623 116.547 394.08 117.137 393.377 117.559C392.673 117.981 391.843 118.192 390.884 118.192ZM390.896 116.338C391.416 116.338 391.851 116.195 392.2 115.91C392.55 115.62 392.81 115.232 392.98 114.746C393.155 114.261 393.242 113.719 393.242 113.123C393.242 112.522 393.155 111.979 392.98 111.493C392.81 111.003 392.55 110.613 392.2 110.323C391.851 110.033 391.416 109.888 390.896 109.888C390.364 109.888 389.921 110.033 389.567 110.323C389.218 110.613 388.955 111.003 388.781 111.493C388.61 111.979 388.525 112.522 388.525 113.123C388.525 113.719 388.61 114.261 388.781 114.746C388.955 115.232 389.218 115.62 389.567 115.91C389.921 116.195 390.364 116.338 390.896 116.338ZM401.835 118.192C400.855 118.192 400.013 117.977 399.31 117.546C398.611 117.116 398.072 116.521 397.693 115.763C397.318 115 397.13 114.122 397.13 113.129C397.13 112.132 397.322 111.252 397.706 110.489C398.089 109.722 398.63 109.126 399.329 108.7C400.032 108.269 400.863 108.054 401.822 108.054C402.619 108.054 403.324 108.201 403.938 108.495C404.556 108.785 405.048 109.196 405.414 109.729C405.781 110.257 405.99 110.875 406.041 111.582H403.829C403.74 111.109 403.527 110.715 403.19 110.4C402.858 110.08 402.412 109.92 401.854 109.92C401.381 109.92 400.966 110.048 400.608 110.304C400.25 110.555 399.971 110.918 399.77 111.391C399.574 111.864 399.476 112.43 399.476 113.091C399.476 113.76 399.574 114.335 399.77 114.817C399.966 115.294 400.241 115.663 400.595 115.923C400.953 116.178 401.373 116.306 401.854 116.306C402.195 116.306 402.5 116.242 402.768 116.114C403.041 115.982 403.269 115.793 403.452 115.545C403.635 115.298 403.761 114.998 403.829 114.644H406.041C405.985 115.339 405.781 115.955 405.427 116.491C405.074 117.024 404.592 117.442 403.983 117.744C403.373 118.043 402.657 118.192 401.835 118.192ZM410.05 114.919L410.044 112.126H410.415L413.943 108.182H416.647L412.307 113.014H411.827L410.05 114.919ZM407.941 118V104.909H410.255V118H407.941ZM414.103 118L410.907 113.532L412.466 111.902L416.871 118H414.103Z" fill="#FAFAF9"/>
</g>
<defs>
<filter id="filter0_f_895_2804" x="94.1" y="89.1" width="44.8" height="44.8" filterUnits="userSpaceOnUse" color-interpolation-filters="sRGB">
<feFlood flood-opacity="0" result="BackgroundImageFix"/>
<feBlend mode="normal" in="SourceGraphic" in2="BackgroundImageFix" result="shape"/>
<feGaussianBlur stdDeviation="2.45" result="effect1_foregroundBlur_895_2804"/>
</filter>
<filter id="filter1_f_895_2804" x="84.5" y="79.5" width="64" height="64" filterUnits="userSpaceOnUse" color-interpolation-filters="sRGB">
<feFlood flood-opacity="0" result="BackgroundImageFix"/>
<feBlend mode="normal" in="SourceGraphic" in2="BackgroundImageFix" result="shape"/>
<feGaussianBlur stdDeviation="4.25" result="effect1_foregroundBlur_895_2804"/>
</filter>
<filter id="filter2_f_895_2804" x="94.4" y="90.4" width="43.2" height="42.2" filterUnits="userSpaceOnUse" color-interpolation-filters="sRGB">
<feFlood flood-opacity="0" result="BackgroundImageFix"/>
<feBlend mode="normal" in="SourceGraphic" in2="BackgroundImageFix" result="shape"/>
<feGaussianBlur stdDeviation="3.8" result="effect1_foregroundBlur_895_2804"/>
</filter>
<linearGradient id="paint0_linear_895_2804" x1="16.4414" y1="0" x2="16.4414" y2="216.8" gradientUnits="userSpaceOnUse">
<stop stop-color="#F8F7F3" stop-opacity="0"/>
<stop offset="0.480769" stop-color="#D9D2B6"/>
<stop offset="1" stop-color="#F8F7F3" stop-opacity="0"/>
</linearGradient>
<linearGradient id="paint1_linear_895_2804" x1="409.688" y1="13.2539" x2="0.000244099" y2="13.2539" gradientUnits="userSpaceOnUse">
<stop stop-color="#F8F7F3" stop-opacity="0"/>
<stop offset="0.480769" stop-color="#D9D2B6"/>
<stop offset="1" stop-color="#F8F7F3" stop-opacity="0"/>
</linearGradient>
<linearGradient id="paint2_linear_895_2804" x1="40.353" y1="0" x2="40.353" y2="216.8" gradientUnits="userSpaceOnUse">
<stop stop-color="#F8F7F3" stop-opacity="0"/>
<stop offset="0.480769" stop-color="#D9D2B6"/>
<stop offset="1" stop-color="#F8F7F3" stop-opacity="0"/>
</linearGradient>
<linearGradient id="paint3_linear_895_2804" x1="409.688" y1="37.1641" x2="0.000244099" y2="37.164" gradientUnits="userSpaceOnUse">
<stop stop-color="#F8F7F3" stop-opacity="0"/>
<stop offset="0.480769" stop-color="#D9D2B6"/>
<stop offset="1" stop-color="#F8F7F3" stop-opacity="0"/>
</linearGradient>
<linearGradient id="paint4_linear_895_2804" x1="64.2646" y1="0" x2="64.2646" y2="216.8" gradientUnits="userSpaceOnUse">
<stop stop-color="#F8F7F3" stop-opacity="0"/>
<stop offset="0.480769" stop-color="#D9D2B6"/>
<stop offset="1" stop-color="#F8F7F3" stop-opacity="0"/>
</linearGradient>
<linearGradient id="paint5_linear_895_2804" x1="409.688" y1="61.0762" x2="0.000244099" y2="61.0761" gradientUnits="userSpaceOnUse">
<stop stop-color="#F8F7F3" stop-opacity="0"/>
<stop offset="0.480769" stop-color="#D9D2B6"/>
<stop offset="1" stop-color="#F8F7F3" stop-opacity="0"/>
</linearGradient>
<linearGradient id="paint6_linear_895_2804" x1="88.1768" y1="0" x2="88.1768" y2="216.8" gradientUnits="userSpaceOnUse">
<stop stop-color="#F8F7F3" stop-opacity="0"/>
<stop offset="0.480769" stop-color="#D9D2B6"/>
<stop offset="1" stop-color="#F8F7F3" stop-opacity="0"/>
</linearGradient>
<linearGradient id="paint7_linear_895_2804" x1="409.688" y1="84.9885" x2="0.000244099" y2="84.9885" gradientUnits="userSpaceOnUse">
<stop stop-color="#F8F7F3" stop-opacity="0"/>
<stop offset="0.480769" stop-color="#D9D2B6"/>
<stop offset="1" stop-color="#F8F7F3" stop-opacity="0"/>
</linearGradient>
<linearGradient id="paint8_linear_895_2804" x1="112.088" y1="0" x2="112.088" y2="216.8" gradientUnits="userSpaceOnUse">
<stop stop-color="#F8F7F3" stop-opacity="0"/>
<stop offset="0.480769" stop-color="#D9D2B6"/>
<stop offset="1" stop-color="#F8F7F3" stop-opacity="0"/>
</linearGradient>
<linearGradient id="paint9_linear_895_2804" x1="409.688" y1="108.9" x2="0.000244099" y2="108.9" gradientUnits="userSpaceOnUse">
<stop stop-color="#F8F7F3" stop-opacity="0"/>
<stop offset="0.480769" stop-color="#D9D2B6"/>
<stop offset="1" stop-color="#F8F7F3" stop-opacity="0"/>
</linearGradient>
<linearGradient id="paint10_linear_895_2804" x1="136" y1="0" x2="136" y2="216.8" gradientUnits="userSpaceOnUse">
<stop stop-color="#F8F7F3" stop-opacity="0"/>
<stop offset="0.480769" stop-color="#D9D2B6"/>
<stop offset="1" stop-color="#F8F7F3" stop-opacity="0"/>
</linearGradient>
<linearGradient id="paint11_linear_895_2804" x1="409.688" y1="132.812" x2="0.000244099" y2="132.812" gradientUnits="userSpaceOnUse">
<stop stop-color="#F8F7F3" stop-opacity="0"/>
<stop offset="0.480769" stop-color="#D9D2B6"/>
<stop offset="1" stop-color="#F8F7F3" stop-opacity="0"/>
</linearGradient>
<linearGradient id="paint12_linear_895_2804" x1="159.912" y1="0" x2="159.912" y2="216.8" gradientUnits="userSpaceOnUse">
<stop stop-color="#F8F7F3" stop-opacity="0"/>
<stop offset="0.480769" stop-color="#D9D2B6"/>
<stop offset="1" stop-color="#F8F7F3" stop-opacity="0"/>
</linearGradient>
<linearGradient id="paint13_linear_895_2804" x1="409.688" y1="156.725" x2="0.000244099" y2="156.725" gradientUnits="userSpaceOnUse">
<stop stop-color="#F8F7F3" stop-opacity="0"/>
<stop offset="0.480769" stop-color="#D9D2B6"/>
<stop offset="1" stop-color="#F8F7F3" stop-opacity="0"/>
</linearGradient>
<linearGradient id="paint14_linear_895_2804" x1="183.824" y1="0" x2="183.824" y2="216.8" gradientUnits="userSpaceOnUse">
<stop stop-color="#F8F7F3" stop-opacity="0"/>
<stop offset="0.480769" stop-color="#D9D2B6"/>
<stop offset="1" stop-color="#F8F7F3" stop-opacity="0"/>
</linearGradient>
<linearGradient id="paint15_linear_895_2804" x1="409.688" y1="180.635" x2="0.000244099" y2="180.635" gradientUnits="userSpaceOnUse">
<stop stop-color="#F8F7F3" stop-opacity="0"/>
<stop offset="0.480769" stop-color="#D9D2B6"/>
<stop offset="1" stop-color="#F8F7F3" stop-opacity="0"/>
</linearGradient>
<linearGradient id="paint16_linear_895_2804" x1="207.735" y1="0" x2="207.735" y2="216.8" gradientUnits="userSpaceOnUse">
<stop stop-color="#F8F7F3" stop-opacity="0"/>
<stop offset="0.480769" stop-color="#D9D2B6"/>
<stop offset="1" stop-color="#F8F7F3" stop-opacity="0"/>
</linearGradient>
<linearGradient id="paint17_linear_895_2804" x1="409.688" y1="204.547" x2="0.000244099" y2="204.547" gradientUnits="userSpaceOnUse">
<stop stop-color="#F8F7F3" stop-opacity="0"/>
<stop offset="0.480769" stop-color="#D9D2B6"/>
<stop offset="1" stop-color="#F8F7F3" stop-opacity="0"/>
</linearGradient>
<linearGradient id="paint18_linear_895_2804" x1="231.647" y1="0" x2="231.647" y2="216.8" gradientUnits="userSpaceOnUse">
<stop stop-color="#F8F7F3" stop-opacity="0"/>
<stop offset="0.480769" stop-color="#D9D2B6"/>
<stop offset="1" stop-color="#F8F7F3" stop-opacity="0"/>
</linearGradient>
<linearGradient id="paint19_linear_895_2804" x1="255.559" y1="0" x2="255.559" y2="216.8" gradientUnits="userSpaceOnUse">
<stop stop-color="#F8F7F3" stop-opacity="0"/>
<stop offset="0.480769" stop-color="#D9D2B6"/>
<stop offset="1" stop-color="#F8F7F3" stop-opacity="0"/>
</linearGradient>
<linearGradient id="paint20_linear_895_2804" x1="279.471" y1="0" x2="279.471" y2="216.8" gradientUnits="userSpaceOnUse">
<stop stop-color="#F8F7F3" stop-opacity="0"/>
<stop offset="0.480769" stop-color="#D9D2B6"/>
<stop offset="1" stop-color="#F8F7F3" stop-opacity="0"/>
</linearGradient>
<linearGradient id="paint21_linear_895_2804" x1="303.382" y1="0" x2="303.382" y2="216.8" gradientUnits="userSpaceOnUse">
<stop stop-color="#F8F7F3" stop-opacity="0"/>
<stop offset="0.480769" stop-color="#D9D2B6"/>
<stop offset="1" stop-color="#F8F7F3" stop-opacity="0"/>
</linearGradient>
<linearGradient id="paint22_linear_895_2804" x1="327.294" y1="0" x2="327.294" y2="216.8" gradientUnits="userSpaceOnUse">
<stop stop-color="#F8F7F3" stop-opacity="0"/>
<stop offset="0.480769" stop-color="#D9D2B6"/>
<stop offset="1" stop-color="#F8F7F3" stop-opacity="0"/>
</linearGradient>
<linearGradient id="paint23_linear_895_2804" x1="351.206" y1="0" x2="351.206" y2="216.8" gradientUnits="userSpaceOnUse">
<stop stop-color="#F8F7F3" stop-opacity="0"/>
<stop offset="0.480769" stop-color="#D9D2B6"/>
<stop offset="1" stop-color="#F8F7F3" stop-opacity="0"/>
</linearGradient>
<linearGradient id="paint24_linear_895_2804" x1="375.118" y1="0" x2="375.118" y2="216.8" gradientUnits="userSpaceOnUse">
<stop stop-color="#F8F7F3" stop-opacity="0"/>
<stop offset="0.480769" stop-color="#D9D2B6"/>
<stop offset="1" stop-color="#F8F7F3" stop-opacity="0"/>
</linearGradient>
<linearGradient id="paint25_linear_895_2804" x1="399.03" y1="0" x2="399.03" y2="216.8" gradientUnits="userSpaceOnUse">
<stop stop-color="#F8F7F3" stop-opacity="0"/>
<stop offset="0.480769" stop-color="#D9D2B6"/>
<stop offset="1" stop-color="#F8F7F3" stop-opacity="0"/>
</linearGradient>
<linearGradient id="paint26_linear_895_2804" x1="128" y1="112" x2="404" y2="112" gradientUnits="userSpaceOnUse">
<stop stop-color="#B5B09B"/>
<stop offset="1" stop-color="white" stop-opacity="0"/>
</linearGradient>
<linearGradient id="paint27_linear_895_2804" x1="221" y1="2051" x2="1595.6" y2="658.9" gradientUnits="userSpaceOnUse">
<stop stop-color="#1C7DFF"/>
<stop offset="0.52021" stop-color="#1C69FF"/>
<stop offset="1" stop-color="#F0DCD6"/>
</linearGradient>
<clipPath id="clip0_895_2804">
<rect width="414" height="288" rx="16" fill="white"/>
</clipPath>
<clipPath id="clip1_895_2804">
<rect width="20" height="20" fill="white" transform="translate(333 24)"/>
</clipPath>
<clipPath id="clip2_895_2804">
<rect width="20" height="20" fill="white" transform="translate(221 51)"/>
</clipPath>
</defs>
</svg>
