<svg width="522" height="264" viewBox="0 0 522 264" fill="none" xmlns="http://www.w3.org/2000/svg">
<g clip-path="url(#clip0_895_2912)">
<path d="M0 16C0 7.16344 7.16344 0 16 0H506C514.837 0 522 7.16344 522 16V248C522 256.837 514.837 264 506 264H16C7.16344 264 0 256.837 0 248V16Z" fill="#3E3B32"/>
<g filter="url(#filter0_di_895_2912)">
<path d="M473.129 159.784H587.183C588.195 159.784 589.166 159.4 589.882 158.716C590.598 158.032 591 157.104 591 156.137V132.003C591 131.872 591 131.747 591 131.628C590.977 131.452 590.94 131.278 590.891 131.107C590.893 131.081 590.893 131.054 590.891 131.028C590.842 130.85 590.778 130.676 590.7 130.507L590.667 130.435C590.587 130.269 590.492 130.111 590.384 129.961C590.278 129.815 590.162 129.678 590.035 129.549L589.969 129.481C589.841 129.357 589.704 129.24 589.56 129.132L589.473 129.075C589.32 128.965 589.158 128.868 588.988 128.783L533.36 104.67L533.272 104.633L533.049 104.534L532.902 104.482L532.705 104.419L532.514 104.373L532.345 104.341L532.116 104.305H531.98H531.713H411.334L372.473 87.4841H490.512C491.525 87.4841 492.496 87.0999 493.211 86.416C493.927 85.7322 494.329 84.8047 494.329 83.8376V59.729C494.327 59.5792 494.316 59.4296 494.297 59.281V59.1924C494.241 58.8215 494.125 58.4611 493.953 58.1245L493.92 58.0621C493.833 57.9034 493.734 57.7502 493.626 57.6036C493.608 57.578 493.588 57.5537 493.566 57.5307C493.456 57.3846 493.332 57.2486 493.195 57.1244L493.146 57.0774C493.004 56.9511 492.853 56.8345 492.693 56.7285C492.519 56.6201 492.336 56.5226 492.148 56.4367H492.116L436.405 32.3229C435.91 32.1093 435.373 31.9993 434.83 32H354.795C354.592 32.0014 354.39 32.0187 354.19 32.052H354.103C353.917 32.086 353.735 32.133 353.557 32.1927L353.476 32.224C353.286 32.282 353.103 32.3588 352.93 32.4531H352.887C352.721 32.5399 352.564 32.641 352.418 32.7553L352.38 32.7814C352.234 32.8952 352.097 33.0188 351.971 33.1512L351.9 33.2241C351.78 33.3586 351.67 33.5014 351.573 33.6513C351.552 33.6761 351.534 33.7023 351.518 33.7295C351.417 33.8874 351.329 34.0529 351.256 34.2244V34.2609C351.18 34.4433 351.12 34.6314 351.076 34.8234C351.034 35.0085 351.009 35.1968 351 35.386C351 35.4225 351 35.4589 351 35.4954C351 35.5319 351 35.5579 351 35.5891V59.7029C351.001 60.4032 351.212 61.0886 351.61 61.677C352.007 62.2655 352.573 62.7322 353.241 63.0213L392.844 80.1494H354.795C354.592 80.1508 354.39 80.1682 354.19 80.2015H354.103C353.918 80.2377 353.736 80.2847 353.557 80.3422L353.476 80.3733C353.288 80.4361 353.105 80.5128 352.93 80.6026L352.887 80.6286C352.722 80.7172 352.565 80.8182 352.418 80.9308L352.38 80.9568C352.233 81.071 352.096 81.1965 351.971 81.3319L351.9 81.4049C351.779 81.5366 351.669 81.6777 351.573 81.8268L351.518 81.905C351.416 82.0717 351.329 82.2459 351.256 82.4259V82.4623C351.18 82.6447 351.12 82.8329 351.076 83.0249C351.034 83.21 351.009 83.3983 351 83.5876C351 83.624 351 83.6605 351 83.6969C351 83.7334 351 83.7542 351 83.7854V107.899C351 108.6 351.211 109.287 351.608 109.876C352.006 110.466 352.573 110.933 353.241 111.223L392.844 128.356H354.795C354.592 128.358 354.39 128.374 354.19 128.403H354.103C353.917 128.435 353.734 128.482 353.557 128.544L353.476 128.575C353.287 128.634 353.105 128.709 352.93 128.799H352.887C352.722 128.889 352.565 128.992 352.418 129.106C352.403 129.112 352.39 129.121 352.38 129.132C352.234 129.246 352.097 129.37 351.971 129.502L351.9 129.575C351.78 129.71 351.67 129.852 351.573 130.002C351.552 130.027 351.534 130.053 351.518 130.08C351.415 130.247 351.328 130.421 351.256 130.601V130.638C351.179 130.82 351.119 131.008 351.076 131.2C351.034 131.385 351.009 131.574 351 131.763C351 131.799 351 131.836 351 131.872C351 131.909 351 131.935 351 131.966V156.08C351.001 156.78 351.212 157.466 351.61 158.054C352.007 158.642 352.573 159.109 353.241 159.398L392.844 176.599H354.795C354.592 176.601 354.39 176.618 354.19 176.651H354.103C353.918 176.688 353.736 176.735 353.557 176.792L353.476 176.823C353.287 176.884 353.104 176.96 352.93 177.052L352.887 177.079C352.722 177.167 352.565 177.268 352.418 177.381H352.38C352.233 177.495 352.096 177.62 351.971 177.756L351.9 177.823C351.78 177.958 351.67 178.101 351.573 178.251L351.518 178.329C351.418 178.487 351.33 178.653 351.256 178.824V178.86C351.18 179.042 351.12 179.231 351.076 179.423C351.035 179.606 351.009 179.793 351 179.98C351 180.017 351 180.053 351 180.095C351 180.136 351 180.152 351 180.183V204.297C351 204.998 351.211 205.685 351.608 206.274C352.006 206.864 352.573 207.331 353.241 207.621L408.957 231.729C409.049 231.771 409.147 231.807 409.24 231.838L409.322 231.865C409.431 231.896 409.535 231.927 409.644 231.948H409.709C409.821 231.971 409.934 231.988 410.047 232H410.102C410.233 232 410.369 232 410.505 232H587.172C588.184 232 589.155 231.616 589.871 230.932C590.587 230.248 590.989 229.321 590.989 228.354V204.36C590.986 204.211 590.976 204.064 590.956 203.917V203.823C590.899 203.461 590.784 203.109 590.613 202.781L590.58 202.713C590.494 202.556 590.395 202.404 590.286 202.26L590.226 202.182C590.114 202.038 589.992 201.903 589.86 201.776L589.806 201.729C589.664 201.604 589.515 201.488 589.359 201.38C589.184 201.272 589.002 201.176 588.813 201.093H588.781L533.065 176.985C532.57 176.769 532.033 176.657 531.489 176.657H414.328V159.841L473.129 159.784ZM414.328 80.1494V63.3338H486.696V80.1494H414.328ZM433.957 39.22L472.818 56.0408H411.334L372.473 39.22H433.957ZM358.596 41.2308L406.677 62.0367V78.1439L358.596 57.3067V41.2308ZM427.479 128.356H414.328V111.535H530.644L569.511 128.356H427.479ZM358.612 89.4324L406.694 110.238V126.345L358.612 105.539V89.4324ZM410.511 135.649H583.361V152.47H411.334L372.473 135.649H410.511ZM358.612 137.655L406.694 158.492V174.599L358.612 153.762V137.655ZM358.612 185.882L406.694 206.688V222.795L358.612 201.989V185.882ZM414.328 224.806V208.006H583.361V224.827L414.328 224.806ZM530.644 183.871L569.511 200.713H411.334L372.473 183.892H530.644V183.871Z" fill="#F1EFE8"/>
</g>
</g>
<path d="M16 0.5H506C514.56 0.5 521.5 7.43959 521.5 16V248C521.5 256.56 514.56 263.5 506 263.5H16C7.43959 263.5 0.5 256.56 0.5 248V16C0.5 7.43959 7.43959 0.5 16 0.5Z" stroke="#3E3B32"/>
<defs>
<filter id="filter0_di_895_2912" x="327" y="8" width="288" height="248" filterUnits="userSpaceOnUse" color-interpolation-filters="sRGB">
<feFlood flood-opacity="0" result="BackgroundImageFix"/>
<feColorMatrix in="SourceAlpha" type="matrix" values="0 0 0 0 0 0 0 0 0 0 0 0 0 0 0 0 0 0 127 0" result="hardAlpha"/>
<feMorphology radius="2" operator="dilate" in="SourceAlpha" result="effect1_dropShadow_895_2912"/>
<feOffset/>
<feGaussianBlur stdDeviation="11"/>
<feComposite in2="hardAlpha" operator="out"/>
<feColorMatrix type="matrix" values="0 0 0 0 0.682353 0 0 0 0 0.647059 0 0 0 0 0.509804 0 0 0 1 0"/>
<feBlend mode="normal" in2="BackgroundImageFix" result="effect1_dropShadow_895_2912"/>
<feBlend mode="normal" in="SourceGraphic" in2="effect1_dropShadow_895_2912" result="shape"/>
<feColorMatrix in="SourceAlpha" type="matrix" values="0 0 0 0 0 0 0 0 0 0 0 0 0 0 0 0 0 0 127 0" result="hardAlpha"/>
<feOffset/>
<feGaussianBlur stdDeviation="4"/>
<feComposite in2="hardAlpha" operator="arithmetic" k2="-1" k3="1"/>
<feColorMatrix type="matrix" values="0 0 0 0 0.713726 0 0 0 0 0.678431 0 0 0 0 0.552941 0 0 0 1 0"/>
<feBlend mode="normal" in2="shape" result="effect2_innerShadow_895_2912"/>
</filter>
<clipPath id="clip0_895_2912">
<path d="M0 16C0 7.16344 7.16344 0 16 0H506C514.837 0 522 7.16344 522 16V248C522 256.837 514.837 264 506 264H16C7.16344 264 0 256.837 0 248V16Z" fill="white"/>
</clipPath>
</defs>
</svg>
