<svg width="70" height="70" viewBox="0 0 70 70" fill="none" xmlns="http://www.w3.org/2000/svg">
<path d="M18.7337 67.0187C18.3795 66.875 18.053 66.6709 17.7687 66.4153C17.2212 65.9204 16.8557 65.256 16.7307 64.5286C16.6057 63.8012 16.7284 63.0529 17.0791 62.4036L28.1895 41.6867L10.189 34.4118C9.63343 34.1882 9.14928 33.8175 8.78852 33.3396C8.42777 32.8616 8.20403 32.2944 8.14134 31.6988C8.07865 31.1033 8.17938 30.5019 8.43271 29.9593C8.68604 29.4167 9.0824 28.9534 9.57922 28.619L48.2667 2.30211C48.8761 1.89189 49.6052 1.69701 50.338 1.74843C51.0708 1.79985 51.7655 2.0946 52.3117 2.5859C52.8348 3.06311 53.1903 3.69609 53.3256 4.39111C53.461 5.08613 53.3689 5.80625 53.063 6.44486L41.8909 27.3145L59.8915 34.5895C60.447 34.813 60.9311 35.1837 61.2919 35.6617C61.6527 36.1396 61.8764 36.7069 61.9391 37.3024C62.0018 37.8979 61.901 38.4993 61.6477 39.0419C61.3944 39.5845 60.998 40.0479 60.5012 40.3822L21.8137 66.6991C21.3658 67.0006 20.8506 67.1874 20.3136 67.2431C19.7765 67.2988 19.234 67.2217 18.7337 67.0187Z" fill="#FAFAF9" stroke="url(#paint0_linear_895_2897)" stroke-linecap="round"/>
<defs>
<linearGradient id="paint0_linear_895_2897" x1="49.3702" y1="-0.955333" x2="21.4539" y2="68.1181" gradientUnits="userSpaceOnUse">
<stop stop-color="#696352"/>
<stop offset="1" stop-color="#696352" stop-opacity="0"/>
</linearGradient>
</defs>
</svg>
