<svg width="294" height="294" viewBox="0 0 294 294" fill="none" xmlns="http://www.w3.org/2000/svg">
<path opacity="0.2" d="M157.625 282.059C158.118 288.407 153.368 294 147 294C140.632 294 135.882 288.407 136.375 282.059L138.678 252.409C139.009 248.152 142.73 245 147 245C151.27 245 154.991 248.152 155.322 252.409L157.625 282.059ZM106.55 244.67C108.175 240.751 112.632 238.911 116.667 240.222C120.702 241.534 123.291 245.658 122.304 249.784L115.379 278.727C113.893 284.935 107.588 288.795 101.517 286.821C95.4461 284.848 92.7064 278.056 95.1516 272.159L106.55 244.67ZM198.848 272.159C201.294 278.056 198.554 284.848 192.483 286.821C186.412 288.795 180.107 284.935 178.621 278.727L171.696 249.784C170.709 245.658 173.298 241.534 177.333 240.222C181.368 238.911 185.825 240.751 187.45 244.67L198.848 272.159ZM78.3564 227.385C81.1211 224.152 85.9622 223.794 89.4021 226.298C92.842 228.801 94.0024 233.525 91.7761 237.15L76.2052 262.508C72.8698 267.939 65.7182 269.665 60.5651 265.914C55.412 262.162 54.8795 254.847 59.0214 250.002L78.3564 227.385ZM234.979 250.002C239.12 254.846 238.588 262.162 233.435 265.914C228.282 269.665 221.13 267.939 217.795 262.508L202.224 237.152C199.998 233.526 201.158 228.802 204.598 226.298C208.038 223.794 212.879 224.152 215.644 227.386L234.979 250.002ZM56.848 202.224C60.4737 199.998 65.1975 201.158 67.7016 204.598C70.2056 208.038 69.8484 212.879 66.6145 215.644L43.9983 234.979C39.1535 239.12 31.8375 238.588 28.0861 233.435C24.3347 228.282 26.0608 221.13 31.4923 217.795L56.848 202.224ZM262.508 217.795C267.939 221.13 269.665 228.282 265.914 233.435C262.162 238.588 254.847 239.121 250.002 234.979L227.385 215.644C224.152 212.879 223.794 208.038 226.298 204.598C228.801 201.158 233.525 199.998 237.15 202.224L262.508 217.795ZM44.2156 171.696C48.3419 170.709 52.4664 173.298 53.7779 177.333C55.0894 181.368 53.2494 185.825 49.3301 187.45L21.8412 198.848C15.9442 201.294 9.15221 198.554 7.17852 192.483C5.20481 186.412 9.06466 180.107 15.2734 178.621L44.2156 171.696ZM278.727 178.621C284.935 180.107 288.795 186.412 286.821 192.483C284.848 198.554 278.056 201.294 272.159 198.848L244.67 187.45C240.751 185.825 238.911 181.368 240.222 177.333C241.534 173.298 245.658 170.709 249.784 171.696L278.727 178.621ZM0 147C0 140.632 5.59258 135.882 11.941 136.375L41.5913 138.678C45.8482 139.009 49 142.73 49 147C49 151.27 45.8482 154.991 41.5913 155.322L11.941 157.625C5.59259 158.118 0 153.368 0 147ZM245 147C245 142.73 248.152 139.009 252.409 138.678L282.059 136.375C288.407 135.882 294 140.632 294 147C294 153.368 288.407 158.118 282.059 157.625L252.409 155.322C248.152 154.991 245 151.27 245 147ZM49.3301 106.55C53.2493 108.175 55.0894 112.632 53.7779 116.667C52.4664 120.702 48.3419 123.291 44.2156 122.304L15.2734 115.379C9.06466 113.893 5.20481 107.588 7.17852 101.517C9.15221 95.4461 15.9442 92.7064 21.8412 95.1516L49.3301 106.55ZM272.159 95.1516C278.056 92.7064 284.848 95.4461 286.821 101.517C288.795 107.588 284.935 113.893 278.727 115.379L249.784 122.304C245.658 123.291 241.534 120.702 240.222 116.667C238.911 112.632 240.751 108.175 244.67 106.55L272.159 95.1516ZM66.6147 78.3564C69.8485 81.1211 70.2057 85.9622 67.7021 89.4021C65.1985 92.842 60.4751 94.0024 56.8495 91.7761L31.4925 76.2052C26.0609 72.8698 24.3348 65.7182 28.0861 60.5651C31.8375 55.412 39.1535 54.8795 43.9983 59.0214L66.6147 78.3564ZM250.002 59.0214C254.846 54.8795 262.162 55.412 265.914 60.5651C269.665 65.7182 267.939 72.8699 262.508 76.2053L237.152 91.7758C233.526 94.0023 228.802 92.8419 226.298 89.4021C223.794 85.9623 224.152 81.121 227.386 78.3562L250.002 59.0214ZM91.7758 56.848C94.0023 60.4737 92.8419 65.1975 89.4021 67.7016C85.9623 70.2056 81.121 69.8484 78.3562 66.6145L59.0214 43.9983C54.8795 39.1535 55.412 31.8375 60.5651 28.0861C65.7182 24.3347 72.8699 26.0608 76.2053 31.4923L91.7758 56.848ZM217.795 31.4925C221.13 26.0609 228.282 24.3348 233.435 28.0861C238.588 31.8375 239.121 39.1535 234.979 43.9983L215.644 66.6147C212.879 69.8485 208.038 70.2057 204.598 67.7021C201.158 65.1985 199.998 60.4751 202.224 56.8495L217.795 31.4925ZM122.304 44.2156C123.291 48.3419 120.702 52.4664 116.667 53.7779C112.632 55.0894 108.175 53.2494 106.55 49.3301L95.1516 21.8412C92.7064 15.9442 95.4461 9.15221 101.517 7.17852C107.588 5.20481 113.893 9.06466 115.379 15.2734L122.304 44.2156ZM178.621 15.2734C180.107 9.06466 186.412 5.20481 192.483 7.17852C198.554 9.15221 201.294 15.9442 198.848 21.8412L187.45 49.3301C185.825 53.2493 181.368 55.0894 177.333 53.7779C173.298 52.4664 170.709 48.3419 171.696 44.2156L178.621 15.2734ZM147 0C153.368 0 158.118 5.59258 157.625 11.941L155.322 41.5913C154.991 45.8482 151.27 49 147 49C142.73 49 139.009 45.8482 138.678 41.5913L136.375 11.941C135.882 5.59259 140.632 0 147 0Z" fill="url(#paint0_linear_895_2986)"/>
<defs>
<linearGradient id="paint0_linear_895_2986" x1="312.5" y1="33" x2="22" y2="258.5" gradientUnits="userSpaceOnUse">
<stop stop-color="#D9D2B6"/>
<stop offset="1" stop-color="#B5B09B"/>
</linearGradient>
</defs>
</svg>
