<svg width="342" height="296" viewBox="0 0 342 296" fill="none" xmlns="http://www.w3.org/2000/svg">
<g clip-path="url(#clip0_832_1631)">
<rect width="434" height="320" fill="#0C0A09"/>
<path d="M474 40L-40 40" stroke="url(#paint0_linear_832_1631)" stroke-linecap="round" stroke-linejoin="round"/>
<path d="M10 24V296" stroke="url(#paint1_linear_832_1631)" stroke-linecap="round" stroke-linejoin="round"/>
<path d="M474 70L-40 70" stroke="url(#paint2_linear_832_1631)" stroke-linecap="round" stroke-linejoin="round"/>
<path d="M40 24V296" stroke="url(#paint3_linear_832_1631)" stroke-linecap="round" stroke-linejoin="round"/>
<path d="M474 100L-40 100" stroke="url(#paint4_linear_832_1631)" stroke-linecap="round" stroke-linejoin="round"/>
<path d="M70 24V296" stroke="url(#paint5_linear_832_1631)" stroke-linecap="round" stroke-linejoin="round"/>
<path d="M474 130L-40 130" stroke="url(#paint6_linear_832_1631)" stroke-linecap="round" stroke-linejoin="round"/>
<path d="M100 24V296" stroke="url(#paint7_linear_832_1631)" stroke-linecap="round" stroke-linejoin="round"/>
<path d="M474 160L-40 160" stroke="url(#paint8_linear_832_1631)" stroke-linecap="round" stroke-linejoin="round"/>
<path d="M130 24V296" stroke="url(#paint9_linear_832_1631)" stroke-linecap="round" stroke-linejoin="round"/>
<path d="M474 190L-40 190" stroke="url(#paint10_linear_832_1631)" stroke-linecap="round" stroke-linejoin="round"/>
<path d="M160 24V296" stroke="url(#paint11_linear_832_1631)" stroke-linecap="round" stroke-linejoin="round"/>
<path d="M474 220L-40 220" stroke="url(#paint12_linear_832_1631)" stroke-linecap="round" stroke-linejoin="round"/>
<path d="M190 24V296" stroke="url(#paint13_linear_832_1631)" stroke-linecap="round" stroke-linejoin="round"/>
<path d="M474 250L-40 250" stroke="url(#paint14_linear_832_1631)" stroke-linecap="round" stroke-linejoin="round"/>
<path d="M220 24V296" stroke="url(#paint15_linear_832_1631)" stroke-linecap="round" stroke-linejoin="round"/>
<path d="M474 280L-40 280" stroke="url(#paint16_linear_832_1631)" stroke-linecap="round" stroke-linejoin="round"/>
<path d="M250 24V296" stroke="url(#paint17_linear_832_1631)" stroke-linecap="round" stroke-linejoin="round"/>
<path d="M280 24V296" stroke="url(#paint18_linear_832_1631)" stroke-linecap="round" stroke-linejoin="round"/>
<path d="M310 24V296" stroke="url(#paint19_linear_832_1631)" stroke-linecap="round" stroke-linejoin="round"/>
<path d="M340 24V296" stroke="url(#paint20_linear_832_1631)" stroke-linecap="round" stroke-linejoin="round"/>
<path d="M55.7439 232.466C54.7513 231.447 53.564 230.634 52.2512 230.075C50.9385 229.516 49.5265 229.222 48.0978 229.21C46.6691 229.197 45.2523 229.467 43.9299 230.004C42.6076 230.54 41.4062 231.332 40.3959 232.333C39.3856 233.335 38.5867 234.526 38.0456 235.837C37.5046 237.148 37.2324 238.552 37.2448 239.969C37.2572 241.385 37.554 242.785 38.118 244.086C38.6819 245.387 39.5016 246.564 40.5293 247.548C42.5586 249.491 45.2766 250.566 48.0978 250.542C50.9191 250.518 53.6178 249.396 55.6128 247.418C57.6078 245.441 58.7394 242.765 58.7639 239.969C58.7884 237.172 57.7039 234.477 55.7439 232.466ZM36.7256 228.692C38.8205 226.616 41.4512 225.152 44.3297 224.459C47.2082 223.767 50.2234 223.873 53.0452 224.766C55.8669 225.659 58.3864 227.304 60.3275 229.522C62.2687 231.74 63.5567 234.445 64.0506 237.34H85.7964V242.674H81.7614V248.007H76.3815V242.674H73.6915V250.668H68.3115V242.674H64.0532C63.6292 245.156 62.6202 247.504 61.1085 249.526C59.5967 251.549 57.6248 253.19 55.353 254.315C53.0813 255.44 50.5737 256.018 48.0343 256.001C45.4949 255.985 42.9952 255.375 40.7384 254.22C38.4817 253.066 36.5316 251.4 35.0467 249.357C33.5618 247.315 32.584 244.954 32.1927 242.467C31.8015 239.979 32.0078 237.436 32.795 235.042C33.5821 232.649 34.9279 230.473 36.7229 228.692H36.7256Z" fill="#9B9378"/>
<rect x="89" y="237" width="286" height="6" fill="url(#paint21_linear_832_1631)"/>
<g filter="url(#filter0_f_832_1631)">
<circle cx="87.6631" cy="240.008" r="6" fill="white"/>
</g>
<g filter="url(#filter1_f_832_1631)">
<circle cx="87.6631" cy="240.008" r="8" fill="white"/>
</g>
<g filter="url(#filter2_f_832_1631)">
<circle cx="87.6631" cy="240.008" r="4" fill="white"/>
</g>
</g>
<defs>
<filter id="filter0_f_832_1631" x="76.7631" y="229.108" width="21.8" height="21.8" filterUnits="userSpaceOnUse" color-interpolation-filters="sRGB">
<feFlood flood-opacity="0" result="BackgroundImageFix"/>
<feBlend mode="normal" in="SourceGraphic" in2="BackgroundImageFix" result="shape"/>
<feGaussianBlur stdDeviation="2.45" result="effect1_foregroundBlur_832_1631"/>
</filter>
<filter id="filter1_f_832_1631" x="71.1631" y="223.508" width="33" height="33" filterUnits="userSpaceOnUse" color-interpolation-filters="sRGB">
<feFlood flood-opacity="0" result="BackgroundImageFix"/>
<feBlend mode="normal" in="SourceGraphic" in2="BackgroundImageFix" result="shape"/>
<feGaussianBlur stdDeviation="4.25" result="effect1_foregroundBlur_832_1631"/>
</filter>
<filter id="filter2_f_832_1631" x="78.7631" y="231.108" width="17.8" height="17.8" filterUnits="userSpaceOnUse" color-interpolation-filters="sRGB">
<feFlood flood-opacity="0" result="BackgroundImageFix"/>
<feBlend mode="normal" in="SourceGraphic" in2="BackgroundImageFix" result="shape"/>
<feGaussianBlur stdDeviation="2.45" result="effect1_foregroundBlur_832_1631"/>
</filter>
<linearGradient id="paint0_linear_832_1631" x1="474" y1="40.5" x2="-40" y2="40.5" gradientUnits="userSpaceOnUse">
<stop stop-color="#0D0D0D"/>
<stop offset="0.480769" stop-color="#34322D"/>
<stop offset="1" stop-color="#0D0D0D"/>
</linearGradient>
<linearGradient id="paint1_linear_832_1631" x1="10.5" y1="24" x2="10.5" y2="296" gradientUnits="userSpaceOnUse">
<stop stop-color="#0D0D0D"/>
<stop offset="0.480769" stop-color="#34322D"/>
<stop offset="1" stop-color="#0D0D0D"/>
</linearGradient>
<linearGradient id="paint2_linear_832_1631" x1="474" y1="70.5" x2="-40" y2="70.5" gradientUnits="userSpaceOnUse">
<stop stop-color="#0D0D0D"/>
<stop offset="0.480769" stop-color="#34322D"/>
<stop offset="1" stop-color="#0D0D0D"/>
</linearGradient>
<linearGradient id="paint3_linear_832_1631" x1="40.5" y1="24" x2="40.5" y2="296" gradientUnits="userSpaceOnUse">
<stop stop-color="#0D0D0D"/>
<stop offset="0.480769" stop-color="#34322D"/>
<stop offset="1" stop-color="#0D0D0D"/>
</linearGradient>
<linearGradient id="paint4_linear_832_1631" x1="474" y1="100.5" x2="-40" y2="100.5" gradientUnits="userSpaceOnUse">
<stop stop-color="#0D0D0D"/>
<stop offset="0.480769" stop-color="#34322D"/>
<stop offset="1" stop-color="#0D0D0D"/>
</linearGradient>
<linearGradient id="paint5_linear_832_1631" x1="70.5" y1="24" x2="70.5" y2="296" gradientUnits="userSpaceOnUse">
<stop stop-color="#0D0D0D"/>
<stop offset="0.480769" stop-color="#34322D"/>
<stop offset="1" stop-color="#0D0D0D"/>
</linearGradient>
<linearGradient id="paint6_linear_832_1631" x1="474" y1="130.5" x2="-40" y2="130.5" gradientUnits="userSpaceOnUse">
<stop stop-color="#0D0D0D"/>
<stop offset="0.480769" stop-color="#34322D"/>
<stop offset="1" stop-color="#0D0D0D"/>
</linearGradient>
<linearGradient id="paint7_linear_832_1631" x1="100.5" y1="24" x2="100.5" y2="296" gradientUnits="userSpaceOnUse">
<stop stop-color="#0D0D0D"/>
<stop offset="0.480769" stop-color="#34322D"/>
<stop offset="1" stop-color="#0D0D0D"/>
</linearGradient>
<linearGradient id="paint8_linear_832_1631" x1="474" y1="160.5" x2="-40" y2="160.5" gradientUnits="userSpaceOnUse">
<stop stop-color="#0D0D0D"/>
<stop offset="0.480769" stop-color="#34322D"/>
<stop offset="1" stop-color="#0D0D0D"/>
</linearGradient>
<linearGradient id="paint9_linear_832_1631" x1="130.5" y1="24" x2="130.5" y2="296" gradientUnits="userSpaceOnUse">
<stop stop-color="#0D0D0D"/>
<stop offset="0.480769" stop-color="#34322D"/>
<stop offset="1" stop-color="#0D0D0D"/>
</linearGradient>
<linearGradient id="paint10_linear_832_1631" x1="474" y1="190.5" x2="-40" y2="190.5" gradientUnits="userSpaceOnUse">
<stop stop-color="#0D0D0D"/>
<stop offset="0.480769" stop-color="#34322D"/>
<stop offset="1" stop-color="#0D0D0D"/>
</linearGradient>
<linearGradient id="paint11_linear_832_1631" x1="160.5" y1="24" x2="160.5" y2="296" gradientUnits="userSpaceOnUse">
<stop stop-color="#0D0D0D"/>
<stop offset="0.480769" stop-color="#34322D"/>
<stop offset="1" stop-color="#0D0D0D"/>
</linearGradient>
<linearGradient id="paint12_linear_832_1631" x1="474" y1="220.5" x2="-40" y2="220.5" gradientUnits="userSpaceOnUse">
<stop stop-color="#0D0D0D"/>
<stop offset="0.480769" stop-color="#34322D"/>
<stop offset="1" stop-color="#0D0D0D"/>
</linearGradient>
<linearGradient id="paint13_linear_832_1631" x1="190.5" y1="24" x2="190.5" y2="296" gradientUnits="userSpaceOnUse">
<stop stop-color="#0D0D0D"/>
<stop offset="0.480769" stop-color="#34322D"/>
<stop offset="1" stop-color="#0D0D0D"/>
</linearGradient>
<linearGradient id="paint14_linear_832_1631" x1="474" y1="250.5" x2="-40" y2="250.5" gradientUnits="userSpaceOnUse">
<stop stop-color="#0D0D0D"/>
<stop offset="0.480769" stop-color="#34322D"/>
<stop offset="1" stop-color="#0D0D0D"/>
</linearGradient>
<linearGradient id="paint15_linear_832_1631" x1="220.5" y1="24" x2="220.5" y2="296" gradientUnits="userSpaceOnUse">
<stop stop-color="#0D0D0D"/>
<stop offset="0.480769" stop-color="#34322D"/>
<stop offset="1" stop-color="#0D0D0D"/>
</linearGradient>
<linearGradient id="paint16_linear_832_1631" x1="474" y1="280.5" x2="-40" y2="280.5" gradientUnits="userSpaceOnUse">
<stop stop-color="#0D0D0D"/>
<stop offset="0.480769" stop-color="#34322D"/>
<stop offset="1" stop-color="#0D0D0D"/>
</linearGradient>
<linearGradient id="paint17_linear_832_1631" x1="250.5" y1="24" x2="250.5" y2="296" gradientUnits="userSpaceOnUse">
<stop stop-color="#0D0D0D"/>
<stop offset="0.480769" stop-color="#34322D"/>
<stop offset="1" stop-color="#0D0D0D"/>
</linearGradient>
<linearGradient id="paint18_linear_832_1631" x1="280.5" y1="24" x2="280.5" y2="296" gradientUnits="userSpaceOnUse">
<stop stop-color="#0D0D0D"/>
<stop offset="0.480769" stop-color="#34322D"/>
<stop offset="1" stop-color="#0D0D0D"/>
</linearGradient>
<linearGradient id="paint19_linear_832_1631" x1="310.5" y1="24" x2="310.5" y2="296" gradientUnits="userSpaceOnUse">
<stop stop-color="#0D0D0D"/>
<stop offset="0.480769" stop-color="#34322D"/>
<stop offset="1" stop-color="#0D0D0D"/>
</linearGradient>
<linearGradient id="paint20_linear_832_1631" x1="340.5" y1="24" x2="340.5" y2="296" gradientUnits="userSpaceOnUse">
<stop stop-color="#0D0D0D"/>
<stop offset="0.480769" stop-color="#34322D"/>
<stop offset="1" stop-color="#0D0D0D"/>
</linearGradient>
<linearGradient id="paint21_linear_832_1631" x1="89" y1="240" x2="375" y2="240" gradientUnits="userSpaceOnUse">
<stop stop-color="#B5B09B"/>
<stop offset="1" stop-color="white" stop-opacity="0"/>
</linearGradient>
<clipPath id="clip0_832_1631">
<rect width="434" height="296" fill="white"/>
</clipPath>
</defs>
</svg>
