<svg width="321" height="165" viewBox="0 0 321 165" fill="none" xmlns="http://www.w3.org/2000/svg">
<path d="M13 1V164.2" stroke="url(#paint0_linear_832_1540)" stroke-width="0.6" stroke-linecap="round" stroke-linejoin="round"/>
<path d="M309.4 10.5996L0.99991 10.5996" stroke="url(#paint1_linear_832_1540)" stroke-width="0.6" stroke-linecap="round" stroke-linejoin="round"/>
<path d="M31 1V164.2" stroke="url(#paint2_linear_832_1540)" stroke-width="0.6" stroke-linecap="round" stroke-linejoin="round"/>
<path d="M309.4 28.5996L0.99991 28.5996" stroke="url(#paint3_linear_832_1540)" stroke-width="0.6" stroke-linecap="round" stroke-linejoin="round"/>
<path d="M49 1V164.2" stroke="url(#paint4_linear_832_1540)" stroke-width="0.6" stroke-linecap="round" stroke-linejoin="round"/>
<path d="M309.4 46.5996L0.99991 46.5996" stroke="url(#paint5_linear_832_1540)" stroke-width="0.6" stroke-linecap="round" stroke-linejoin="round"/>
<path d="M67 1V164.2" stroke="url(#paint6_linear_832_1540)" stroke-width="0.6" stroke-linecap="round" stroke-linejoin="round"/>
<path d="M309.4 64.5996L0.99991 64.5996" stroke="url(#paint7_linear_832_1540)" stroke-width="0.6" stroke-linecap="round" stroke-linejoin="round"/>
<path d="M85 1V164.2" stroke="url(#paint8_linear_832_1540)" stroke-width="0.6" stroke-linecap="round" stroke-linejoin="round"/>
<path d="M309.4 82.5996L0.99991 82.5996" stroke="url(#paint9_linear_832_1540)" stroke-width="0.6" stroke-linecap="round" stroke-linejoin="round"/>
<path d="M103 1V164.2" stroke="url(#paint10_linear_832_1540)" stroke-width="0.6" stroke-linecap="round" stroke-linejoin="round"/>
<path d="M309.4 100.6L0.99991 100.6" stroke="url(#paint11_linear_832_1540)" stroke-width="0.6" stroke-linecap="round" stroke-linejoin="round"/>
<path d="M121 1V164.2" stroke="url(#paint12_linear_832_1540)" stroke-width="0.6" stroke-linecap="round" stroke-linejoin="round"/>
<path d="M309.4 118.6L0.99991 118.6" stroke="url(#paint13_linear_832_1540)" stroke-width="0.6" stroke-linecap="round" stroke-linejoin="round"/>
<path d="M139 1V164.2" stroke="url(#paint14_linear_832_1540)" stroke-width="0.6" stroke-linecap="round" stroke-linejoin="round"/>
<path d="M309.4 136.6L0.99991 136.6" stroke="url(#paint15_linear_832_1540)" stroke-width="0.6" stroke-linecap="round" stroke-linejoin="round"/>
<path d="M157 1V164.2" stroke="url(#paint16_linear_832_1540)" stroke-width="0.6" stroke-linecap="round" stroke-linejoin="round"/>
<path d="M309.4 154.6L0.99991 154.6" stroke="url(#paint17_linear_832_1540)" stroke-width="0.6" stroke-linecap="round" stroke-linejoin="round"/>
<path d="M175 1V164.2" stroke="url(#paint18_linear_832_1540)" stroke-width="0.6" stroke-linecap="round" stroke-linejoin="round"/>
<path d="M193 1V164.2" stroke="url(#paint19_linear_832_1540)" stroke-width="0.6" stroke-linecap="round" stroke-linejoin="round"/>
<path d="M211 1V164.2" stroke="url(#paint20_linear_832_1540)" stroke-width="0.6" stroke-linecap="round" stroke-linejoin="round"/>
<path d="M229 1V164.2" stroke="url(#paint21_linear_832_1540)" stroke-width="0.6" stroke-linecap="round" stroke-linejoin="round"/>
<path d="M247 1V164.2" stroke="url(#paint22_linear_832_1540)" stroke-width="0.6" stroke-linecap="round" stroke-linejoin="round"/>
<path d="M265 1V164.2" stroke="url(#paint23_linear_832_1540)" stroke-width="0.6" stroke-linecap="round" stroke-linejoin="round"/>
<path d="M283 1V164.2" stroke="url(#paint24_linear_832_1540)" stroke-width="0.6" stroke-linecap="round" stroke-linejoin="round"/>
<path d="M301 1V164.2" stroke="url(#paint25_linear_832_1540)" stroke-width="0.6" stroke-linecap="round" stroke-linejoin="round"/>
<path d="M125.5 18.3984C127 31.5984 134.5 44.7984 151.6 51.9984" stroke="#B5B09B" stroke-width="0.6" stroke-linejoin="round" stroke-dasharray="1.2 2.4"/>
<path d="M88.3 43.8984C94.6 50.3984 115.42 63.6384 148.3 64.5984" stroke="#B5B09B" stroke-width="0.6" stroke-linecap="round" stroke-linejoin="round" stroke-dasharray="1.2 2.4"/>
<path d="M116.2 82.9008C121 83.0008 134.2 82.7208 148.6 80.8008" stroke="#B5B09B" stroke-width="0.6" stroke-linecap="round" stroke-linejoin="round" stroke-dasharray="1.2 2.4"/>
<path d="M81.1001 121.301C90.7001 114.901 118.12 99.6408 151 89.8008" stroke="#B5B09B" stroke-width="0.6" stroke-linecap="round" stroke-linejoin="round" stroke-dasharray="1.2 2.4"/>
<path d="M119.2 147.4C122.9 137.5 136.18 113.68 159.7 97.5996" stroke="#B5B09B" stroke-width="0.6" stroke-linecap="round" stroke-linejoin="round" stroke-dasharray="1.2 2.4"/>
<g filter="url(#filter0_di_832_1540)">
<path d="M142.6 73.0008C142.6 54.1126 157.912 38.8008 176.8 38.8008C195.688 38.8008 211 54.1126 211 73.0008C211 91.8889 195.688 107.201 176.8 107.201C157.912 107.201 142.6 91.8889 142.6 73.0008Z" fill="#22201C"/>
<g clip-path="url(#clip0_832_1540)">
<path d="M192.536 60.7435C192.536 60.0367 191.959 59.4601 191.252 59.4415L189.82 59.4229C189.727 59.4229 186.77 59.3299 183.756 58.1023C180.576 56.8003 178.511 55.3309 178.437 55.2937L177.581 54.6613C177.116 54.3265 176.502 54.3265 176.056 54.6613L175.2 55.2751C175.182 55.2937 173.08 56.8003 169.881 58.1023C166.868 59.3299 163.892 59.4229 163.817 59.4229H162.348C161.641 59.4415 161.064 60.0181 161.064 60.7249V75.2701C161.064 78.9157 163.148 82.9891 166.793 86.4673C170.104 89.6293 173.936 91.6009 176.8 91.6009C179.664 91.6009 183.496 89.6293 186.807 86.4673C190.452 82.9891 192.536 78.9157 192.536 75.2701V60.7435ZM185.003 84.5887C182.25 87.2113 178.939 88.9969 176.8 88.9969C174.661 88.9969 171.35 87.2299 168.597 84.5887C165.473 81.6127 163.687 78.2089 163.687 75.2887V62.0269H163.836C164.133 62.0269 167.444 61.8967 170.848 60.5203C174.326 59.0881 176.614 57.4513 176.707 57.3769L176.8 57.3025L176.893 57.3769C177.172 57.5815 179.385 59.1253 182.771 60.5017C186.174 61.8781 189.485 62.0083 189.783 62.0083H189.932V75.2701C189.932 78.2089 188.127 81.5941 185.003 84.5887Z" fill="#F1EFE8"/>
<path d="M182.51 67.1992L175.07 74.6392L171.927 71.5144C171.276 70.8634 170.234 70.8634 169.583 71.5144C168.932 72.1654 168.932 73.207 169.583 73.858L173.88 78.1546C174.196 78.4708 174.605 78.6382 175.052 78.6382C175.498 78.6382 175.907 78.4708 176.223 78.1546L184.835 69.5428C185.486 68.8918 185.486 67.8502 184.835 67.1992C184.203 66.5482 183.161 66.5482 182.51 67.1992Z" fill="#F1EFE8"/>
</g>
</g>
<path d="M161.904 125.001V116.274H167.495V117.599H163.485V119.968H167.112V121.294H163.485V125.001H161.904ZM170.882 125.129C170.243 125.129 169.689 124.988 169.22 124.707C168.751 124.426 168.388 124.032 168.129 123.527C167.874 123.021 167.746 122.43 167.746 121.754C167.746 121.078 167.874 120.485 168.129 119.977C168.388 119.468 168.751 119.073 169.22 118.792C169.689 118.511 170.243 118.37 170.882 118.37C171.521 118.37 172.075 118.511 172.544 118.792C173.013 119.073 173.375 119.468 173.631 119.977C173.889 120.485 174.018 121.078 174.018 121.754C174.018 122.43 173.889 123.021 173.631 123.527C173.375 124.032 173.013 124.426 172.544 124.707C172.075 124.988 171.521 125.129 170.882 125.129ZM170.891 123.893C171.237 123.893 171.527 123.798 171.76 123.608C171.993 123.414 172.166 123.156 172.28 122.832C172.396 122.508 172.454 122.147 172.454 121.75C172.454 121.349 172.396 120.987 172.28 120.663C172.166 120.336 171.993 120.076 171.76 119.883C171.527 119.69 171.237 119.593 170.891 119.593C170.535 119.593 170.24 119.69 170.004 119.883C169.771 120.076 169.597 120.336 169.48 120.663C169.366 120.987 169.31 121.349 169.31 121.75C169.31 122.147 169.366 122.508 169.48 122.832C169.597 123.156 169.771 123.414 170.004 123.608C170.24 123.798 170.535 123.893 170.891 123.893ZM174.968 125.001V118.456H176.463V119.546H176.532C176.651 119.169 176.855 118.877 177.145 118.673C177.438 118.465 177.772 118.362 178.147 118.362C178.232 118.362 178.327 118.366 178.432 118.375C178.54 118.38 178.63 118.39 178.701 118.404V119.823C178.635 119.801 178.532 119.781 178.39 119.764C178.25 119.744 178.115 119.734 177.985 119.734C177.704 119.734 177.451 119.795 177.226 119.917C177.005 120.036 176.83 120.203 176.702 120.416C176.574 120.629 176.51 120.875 176.51 121.153V125.001H174.968ZM181.943 127.592C181.389 127.592 180.913 127.517 180.515 127.366C180.117 127.218 179.798 127.019 179.556 126.769C179.315 126.519 179.147 126.242 179.053 125.938L180.443 125.602C180.505 125.73 180.596 125.856 180.715 125.981C180.835 126.109 180.995 126.214 181.197 126.296C181.401 126.382 181.658 126.424 181.968 126.424C182.406 126.424 182.768 126.318 183.055 126.105C183.342 125.894 183.485 125.548 183.485 125.065V123.825H183.408C183.329 123.984 183.212 124.147 183.059 124.315C182.908 124.483 182.708 124.623 182.458 124.737C182.211 124.85 181.9 124.907 181.525 124.907C181.022 124.907 180.566 124.789 180.157 124.554C179.751 124.315 179.427 123.96 179.185 123.488C178.947 123.014 178.828 122.42 178.828 121.707C178.828 120.988 178.947 120.382 179.185 119.887C179.427 119.39 179.752 119.014 180.161 118.758C180.57 118.5 181.026 118.37 181.529 118.37C181.913 118.37 182.228 118.436 182.475 118.566C182.725 118.694 182.924 118.849 183.072 119.031C183.22 119.21 183.332 119.379 183.408 119.538H183.494V118.456H185.015V125.108C185.015 125.667 184.882 126.13 184.614 126.497C184.347 126.863 183.982 127.137 183.519 127.319C183.056 127.501 182.531 127.592 181.943 127.592ZM181.955 123.697C182.282 123.697 182.56 123.617 182.791 123.458C183.021 123.299 183.195 123.071 183.315 122.772C183.434 122.474 183.494 122.116 183.494 121.698C183.494 121.286 183.434 120.926 183.315 120.616C183.198 120.306 183.025 120.066 182.795 119.896C182.568 119.723 182.288 119.636 181.955 119.636C181.612 119.636 181.325 119.725 181.095 119.904C180.864 120.083 180.691 120.329 180.575 120.642C180.458 120.951 180.4 121.304 180.4 121.698C180.4 122.099 180.458 122.45 180.575 122.751C180.694 123.049 180.869 123.282 181.099 123.45C181.332 123.615 181.617 123.697 181.955 123.697ZM189.134 125.129C188.477 125.129 187.911 124.992 187.433 124.72C186.959 124.444 186.594 124.055 186.338 123.552C186.083 123.046 185.955 122.451 185.955 121.767C185.955 121.093 186.083 120.502 186.338 119.994C186.597 119.483 186.958 119.085 187.421 118.801C187.884 118.514 188.428 118.37 189.053 118.37C189.456 118.37 189.837 118.436 190.195 118.566C190.556 118.694 190.874 118.893 191.149 119.163C191.428 119.433 191.647 119.777 191.806 120.194C191.965 120.609 192.044 121.103 192.044 121.677V122.15H186.679V121.11H190.566C190.563 120.815 190.499 120.552 190.374 120.322C190.249 120.089 190.074 119.906 189.85 119.772C189.628 119.639 189.37 119.572 189.074 119.572C188.759 119.572 188.482 119.649 188.243 119.802C188.004 119.953 187.818 120.152 187.685 120.399C187.554 120.643 187.487 120.911 187.485 121.204V122.112C187.485 122.492 187.554 122.819 187.693 123.092C187.833 123.362 188.027 123.569 188.277 123.714C188.527 123.856 188.82 123.927 189.155 123.927C189.379 123.927 189.583 123.896 189.764 123.833C189.946 123.768 190.104 123.673 190.237 123.548C190.371 123.423 190.472 123.268 190.54 123.083L191.98 123.245C191.889 123.626 191.716 123.958 191.46 124.242C191.208 124.524 190.884 124.742 190.489 124.899C190.094 125.052 189.642 125.129 189.134 125.129Z" fill="#0C0A09"/>
<g filter="url(#filter1_d_832_1540)">
<path d="M260.2 72.9992C260.2 62.064 269.065 53.1992 280 53.1992C290.935 53.1992 299.8 62.064 299.8 72.9992C299.8 83.9345 290.935 92.7992 280 92.7992C269.065 92.7992 260.2 83.9345 260.2 72.9992Z" fill="white"/>
<path d="M277.223 72.2805H272.948C271.769 72.2805 270.81 71.3214 270.81 70.143V65.868C270.81 64.6895 271.769 63.7305 272.948 63.7305H277.223C278.401 63.7305 279.36 64.6895 279.36 65.868V70.143C279.36 71.3222 278.401 72.2805 277.223 72.2805ZM272.948 65.1555C272.555 65.1555 272.235 65.4754 272.235 65.868V70.143C272.235 70.5356 272.555 70.8555 272.948 70.8555H277.223C277.615 70.8555 277.935 70.5356 277.935 70.143V65.868C277.935 65.4754 277.615 65.1555 277.223 65.1555H272.948Z" fill="#9B9378"/>
<path d="M277.223 82.2551H272.948C271.769 82.2551 270.81 81.2961 270.81 80.1176V75.8426C270.81 74.6641 271.769 73.7051 272.948 73.7051H277.223C278.401 73.7051 279.36 74.6641 279.36 75.8426V80.1176C279.36 81.2968 278.401 82.2551 277.223 82.2551ZM272.948 75.1301C272.555 75.1301 272.235 75.4493 272.235 75.8426V80.1176C272.235 80.5109 272.555 80.8301 272.948 80.8301H277.223C277.615 80.8301 277.935 80.5109 277.935 80.1176V75.8426C277.935 75.4493 277.615 75.1301 277.223 75.1301H272.948Z" fill="#9B9378"/>
<path d="M287.128 72.2805H282.853C281.674 72.2805 280.715 71.3214 280.715 70.143V65.868C280.715 64.6895 281.674 63.7305 282.853 63.7305H287.128C288.306 63.7305 289.265 64.6895 289.265 65.868V70.143C289.265 71.3222 288.306 72.2805 287.128 72.2805ZM282.853 65.1555C282.46 65.1555 282.14 65.4754 282.14 65.868V70.143C282.14 70.5356 282.46 70.8555 282.853 70.8555H287.128C287.521 70.8555 287.84 70.5356 287.84 70.143V65.868C287.84 65.4754 287.521 65.1555 287.128 65.1555H282.853Z" fill="#9B9378"/>
<path d="M287.128 82.2551H282.853C281.674 82.2551 280.715 81.2961 280.715 80.1176V75.8426C280.715 74.6641 281.674 73.7051 282.853 73.7051H287.128C288.306 73.7051 289.265 74.6641 289.265 75.8426V80.1176C289.265 81.2968 288.306 82.2551 287.128 82.2551ZM282.853 75.1301C282.46 75.1301 282.14 75.4493 282.14 75.8426V80.1176C282.14 80.5109 282.46 80.8301 282.853 80.8301H287.128C287.521 80.8301 287.84 80.5109 287.84 80.1176V75.8426C287.84 75.4493 287.521 75.1301 287.128 75.1301H282.853Z" fill="#9B9378"/>
</g>
<rect x="37" y="111.398" width="47.6" height="19.2" rx="9.6" fill="white"/>
<path d="M42.9503 119.388L47.8238 126.5H49.99L45.116 119.388H42.9503ZM45.1143 123.338L42.9475 126.5H45.1154L46.198 124.919L45.1143 123.338ZM50.4855 115.5L46.7401 120.965L47.8238 122.547L52.6534 115.5H50.4855ZM50.8778 118.882V126.5H52.6534V116.291L50.8778 118.882Z" fill="black"/>
<path d="M63.5313 119.416L64.5425 121.2L65.5627 119.416H66.5381L65.1093 121.707L66.55 123.998H65.5746L64.5425 122.286L63.5134 123.998H62.535L63.9608 121.707L62.5529 119.416H63.5313ZM68.0415 123.998H67.0631L69.2615 117.889H70.3265L72.5249 123.998H71.5465L69.8194 118.999H69.7716L68.0415 123.998ZM68.2056 121.606H71.3794V122.381H68.2056V121.606ZM74.3288 117.889V123.998H73.4071V117.889H74.3288Z" fill="#0C0A09"/>
<rect x="95.8" y="1.59961" width="63.6" height="19.2" rx="9.6" fill="white"/>
<g clip-path="url(#clip1_832_1540)">
<path fill-rule="evenodd" clip-rule="evenodd" d="M110.175 10.2013C110.3 9.83114 110.343 9.43835 110.302 9.04989C110.261 8.66142 110.136 8.28648 109.936 7.9508C109.328 6.9058 108.105 6.3678 106.911 6.6208C106.647 6.328 106.323 6.09451 105.962 5.93568C105.601 5.77685 105.21 5.69629 104.816 5.6993C103.595 5.6968 102.512 6.4723 102.137 7.6183C101.751 7.69556 101.385 7.85402 101.065 8.08314C100.745 8.31227 100.478 8.60684 100.28 8.9473C99.9814 9.45443 99.8538 10.0441 99.916 10.6294C99.9782 11.2146 100.227 11.7643 100.626 12.1973C100.501 12.5675 100.457 12.9604 100.498 13.3489C100.539 13.7375 100.664 14.1125 100.864 14.4483C101.473 15.4933 102.695 16.0308 103.889 15.7783C104.153 16.071 104.477 16.3045 104.838 16.4632C105.199 16.622 105.59 16.7024 105.984 16.6993C107.206 16.7023 108.289 15.9263 108.665 14.7793C109.051 14.7021 109.416 14.5435 109.736 14.3142C110.057 14.0849 110.324 13.7901 110.522 13.4493C110.82 12.9422 110.947 12.3527 110.885 11.7679C110.823 11.183 110.574 10.6336 110.176 10.2008L110.175 10.2013ZM105.985 15.9803C105.497 15.9815 105.024 15.8128 104.647 15.5033C104.664 15.4943 104.694 15.4783 104.713 15.4663L106.933 14.2013C106.988 14.1704 107.035 14.1252 107.067 14.0704C107.099 14.0156 107.115 13.9532 107.115 13.8898V10.8018L108.054 11.3363C108.064 11.3413 108.07 11.3508 108.072 11.3613V13.9188C108.07 15.0558 107.137 15.9778 105.985 15.9803ZM101.496 14.0893C101.251 13.6731 101.163 13.1833 101.247 12.7078C101.263 12.7178 101.292 12.7353 101.313 12.7468L103.533 14.0118C103.645 14.0768 103.785 14.0768 103.898 14.0118L106.608 12.4678V13.5368C106.608 13.5423 106.607 13.5477 106.604 13.5527C106.602 13.5577 106.598 13.562 106.594 13.5653L104.35 14.8433C103.351 15.4113 102.074 15.0733 101.497 14.0883L101.496 14.0893ZM100.912 9.3073C101.157 8.8883 101.542 8.56875 101.999 8.4043L101.998 8.4798V11.0098C101.998 11.0733 102.014 11.1358 102.046 11.1906C102.078 11.2455 102.125 11.2908 102.18 11.3218L104.89 12.8653L103.952 13.4003C103.947 13.4033 103.942 13.4051 103.937 13.4055C103.931 13.4059 103.926 13.405 103.921 13.4028L101.676 12.1233C100.679 11.5533 100.337 10.2943 100.911 9.3083L100.912 9.3073ZM108.62 11.0773L105.91 9.5333L106.848 8.9993C106.853 8.99624 106.858 8.99437 106.863 8.99385C106.869 8.99332 106.874 8.99417 106.88 8.9963L109.124 10.2748C110.123 10.8448 110.466 12.1058 109.889 13.0913C109.643 13.51 109.258 13.8296 108.802 13.9948V11.3893C108.802 11.3259 108.785 11.2636 108.753 11.2088C108.721 11.154 108.675 11.1088 108.62 11.0778V11.0773ZM109.554 9.6908C109.532 9.67752 109.51 9.66452 109.488 9.6518L107.268 8.3868C107.212 8.35491 107.149 8.33812 107.085 8.33812C107.021 8.33812 106.958 8.35491 106.903 8.3868L104.193 9.9308V8.8618C104.193 8.85631 104.194 8.85085 104.196 8.84589C104.199 8.84093 104.202 8.83661 104.207 8.8333L106.45 7.5558C107.45 6.9873 108.728 7.3258 109.304 8.3123C109.547 8.7288 109.636 9.2168 109.554 9.6908ZM103.683 11.5958L102.745 11.0618C102.74 11.0594 102.735 11.0558 102.732 11.0514C102.729 11.0469 102.727 11.0417 102.727 11.0363V8.4788C102.727 7.3403 103.663 6.4178 104.817 6.4188C105.305 6.4188 105.777 6.5878 106.153 6.8958C106.136 6.9048 106.107 6.9208 106.087 6.9323L103.867 8.1973C103.812 8.22815 103.765 8.27333 103.733 8.32812C103.701 8.38291 103.684 8.4453 103.685 8.5088L103.683 11.5953V11.5958ZM104.193 10.5118L105.4 9.8243L106.607 10.5118V11.8868L105.4 12.5743L104.193 11.8868V10.5118H104.193Z" fill="black"/>
</g>
<path d="M126.042 11.1447C126.042 11.7969 125.922 12.3577 125.684 12.8271C125.445 13.2944 125.118 13.6543 124.702 13.9069C124.289 14.1575 123.818 14.2827 123.291 14.2827C122.762 14.2827 122.29 14.1575 121.874 13.9069C121.461 13.6543 121.135 13.2934 120.896 12.8241C120.657 12.3548 120.538 11.795 120.538 11.1447C120.538 10.4924 120.657 9.9326 120.896 9.46527C121.135 8.99595 121.461 8.63601 121.874 8.38544C122.29 8.13288 122.762 8.0066 123.291 8.0066C123.818 8.0066 124.289 8.13288 124.702 8.38544C125.118 8.63601 125.445 8.99595 125.684 9.46527C125.922 9.9326 126.042 10.4924 126.042 11.1447ZM125.129 11.1447C125.129 10.6475 125.048 10.2289 124.887 9.88885C124.728 9.5468 124.509 9.28828 124.231 9.11328C123.954 8.93629 123.641 8.8478 123.291 8.8478C122.939 8.8478 122.625 8.93629 122.349 9.11328C122.072 9.28828 121.853 9.5468 121.692 9.88885C121.533 10.2289 121.454 10.6475 121.454 11.1447C121.454 11.6418 121.533 12.0614 121.692 12.4035C121.853 12.7435 122.072 13.0021 122.349 13.179C122.625 13.354 122.939 13.4415 123.291 13.4415C123.641 13.4415 123.954 13.354 124.231 13.179C124.509 13.0021 124.728 12.7435 124.887 12.4035C125.048 12.0614 125.129 11.6418 125.129 11.1447ZM127.119 15.9174V9.6174H127.99V10.3602H128.065C128.116 10.2647 128.191 10.1543 128.288 10.029C128.386 9.90376 128.521 9.79439 128.694 9.70092C128.867 9.60547 129.096 9.55774 129.38 9.55774C129.75 9.55774 130.08 9.65121 130.371 9.83814C130.661 10.0251 130.889 10.2945 131.054 10.6465C131.221 10.9985 131.304 11.4221 131.304 11.9173C131.304 12.4124 131.222 12.837 131.057 13.191C130.892 13.543 130.665 13.8144 130.377 14.0053C130.088 14.1942 129.759 14.2887 129.389 14.2887C129.111 14.2887 128.883 14.242 128.706 14.1485C128.531 14.055 128.394 13.9457 128.294 13.8204C128.195 13.6951 128.118 13.5837 128.065 13.4863H128.011V15.9174H127.119ZM127.993 11.9083C127.993 12.2305 128.04 12.5129 128.133 12.7555C128.227 12.9981 128.362 13.188 128.539 13.3252C128.716 13.4604 128.933 13.5281 129.189 13.5281C129.456 13.5281 129.679 13.4575 129.858 13.3163C130.036 13.1731 130.172 12.9792 130.263 12.7346C130.357 12.49 130.403 12.2146 130.403 11.9083C130.403 11.606 130.358 11.3346 130.266 11.094C130.177 10.8533 130.041 10.6634 129.86 10.5242C129.682 10.385 129.458 10.3154 129.189 10.3154C128.931 10.3154 128.712 10.382 128.533 10.5153C128.356 10.6485 128.222 10.8344 128.13 11.0731C128.039 11.3117 127.993 11.5901 127.993 11.9083ZM134.278 14.2917C133.827 14.2917 133.438 14.1952 133.112 14.0023C132.788 13.8075 132.537 13.534 132.36 13.182C132.185 12.8281 132.098 12.4134 132.098 11.9381C132.098 11.4688 132.185 11.0552 132.36 10.6972C132.537 10.3393 132.784 10.0599 133.1 9.85902C133.418 9.65817 133.79 9.55774 134.216 9.55774C134.474 9.55774 134.725 9.6005 134.967 9.68601C135.21 9.77152 135.428 9.90575 135.621 10.0887C135.813 10.2717 135.966 10.5093 136.077 10.8016C136.188 11.092 136.244 11.445 136.244 11.8606V12.1768H132.602V11.5086H135.37C135.37 11.2739 135.322 11.0661 135.227 10.8852C135.131 10.7022 134.997 10.558 134.824 10.4526C134.653 10.3472 134.452 10.2945 134.222 10.2945C133.971 10.2945 133.752 10.3562 133.565 10.4795C133.38 10.6008 133.237 10.7599 133.136 10.9567C133.036 11.1516 132.987 11.3634 132.987 11.5921V12.1141C132.987 12.4204 133.04 12.6809 133.148 12.8957C133.257 13.1104 133.409 13.2745 133.604 13.3879C133.799 13.4992 134.027 13.5549 134.287 13.5549C134.456 13.5549 134.61 13.531 134.75 13.4833C134.889 13.4336 135.009 13.36 135.11 13.2626C135.212 13.1651 135.289 13.0448 135.343 12.9016L136.187 13.0538C136.12 13.3023 135.998 13.5201 135.823 13.707C135.65 13.892 135.433 14.0362 135.17 14.1396C134.91 14.241 134.612 14.2917 134.278 14.2917ZM138.126 11.4788V14.1992H137.234V9.6174H138.09V10.3631H138.146C138.252 10.1205 138.417 9.92564 138.642 9.77848C138.868 9.63132 139.154 9.55774 139.498 9.55774C139.81 9.55774 140.083 9.62337 140.318 9.75462C140.553 9.88388 140.735 10.0768 140.864 10.3333C140.993 10.5898 141.058 10.907 141.058 11.2849V14.1992H140.166V11.3923C140.166 11.0602 140.079 10.8006 139.906 10.6137C139.733 10.4248 139.496 10.3303 139.193 10.3303C138.987 10.3303 138.803 10.3751 138.642 10.4646C138.482 10.554 138.356 10.6853 138.263 10.8583C138.171 11.0293 138.126 11.2362 138.126 11.4788ZM142.842 14.1992H141.863L144.062 8.09013H145.127L147.325 14.1992H146.347L144.619 9.19979H144.572L142.842 14.1992ZM143.006 11.8069H146.179V12.5825H143.006V11.8069ZM149.129 8.09013V14.1992H148.207V8.09013H149.129Z" fill="#0C0A09"/>
<rect x="79" y="144.398" width="73.6" height="19.2" rx="9.6" fill="white"/>
<g clip-path="url(#clip2_832_1540)">
<path fill-rule="evenodd" clip-rule="evenodd" d="M89.5136 149.76H91.3151L94.6001 158H92.7986L89.5136 149.76ZM85.8846 149.76H87.7681L91.0531 158H89.2161L88.5446 156.269H85.1086L84.4366 157.999H82.6001L85.8851 149.761L85.8846 149.76ZM87.9506 154.739L86.8266 151.843L85.7026 154.74H87.9501L87.9506 154.739Z" fill="black"/>
</g>
<path d="M104.845 156.998H103.867L106.065 150.889H107.13L109.328 156.998H108.35L106.623 151.999H106.575L104.845 156.998ZM105.009 154.606H108.183V155.381H105.009V154.606ZM111.031 154.278V156.998H110.139V152.416H110.995V153.162H111.052C111.157 152.919 111.322 152.724 111.547 152.577C111.774 152.43 112.059 152.357 112.403 152.357C112.715 152.357 112.989 152.422 113.223 152.553C113.458 152.683 113.64 152.876 113.769 153.132C113.899 153.389 113.963 153.706 113.963 154.084V156.998H113.071V154.191C113.071 153.859 112.985 153.599 112.812 153.413C112.639 153.224 112.401 153.129 112.099 153.129C111.892 153.129 111.708 153.174 111.547 153.263C111.388 153.353 111.262 153.484 111.168 153.657C111.077 153.828 111.031 154.035 111.031 154.278ZM117.298 152.416V153.132H114.795V152.416H117.298ZM115.467 151.319H116.358V155.653C116.358 155.826 116.384 155.956 116.436 156.044C116.488 156.129 116.554 156.188 116.636 156.219C116.719 156.249 116.81 156.264 116.907 156.264C116.979 156.264 117.042 156.259 117.095 156.249C117.149 156.239 117.191 156.231 117.221 156.225L117.382 156.962C117.33 156.982 117.256 157.002 117.161 157.022C117.065 157.044 116.946 157.056 116.803 157.058C116.568 157.062 116.35 157.02 116.147 156.932C115.944 156.845 115.78 156.71 115.655 156.527C115.529 156.344 115.467 156.114 115.467 155.838V151.319ZM119.275 154.278V156.998H118.383V150.889H119.263V153.162H119.32C119.427 152.915 119.591 152.719 119.812 152.574C120.033 152.429 120.321 152.357 120.677 152.357C120.991 152.357 121.266 152.421 121.5 152.55C121.737 152.68 121.92 152.873 122.049 153.129C122.18 153.384 122.246 153.702 122.246 154.084V156.998H121.354V154.191C121.354 153.855 121.268 153.594 121.095 153.41C120.922 153.223 120.681 153.129 120.373 153.129C120.162 153.129 119.973 153.174 119.806 153.263C119.641 153.353 119.511 153.484 119.415 153.657C119.322 153.828 119.275 154.035 119.275 154.278ZM123.436 156.998V152.416H124.298V153.144H124.346C124.43 152.897 124.577 152.704 124.788 152.562C125 152.419 125.241 152.348 125.509 152.348C125.565 152.348 125.631 152.35 125.706 152.354C125.784 152.358 125.845 152.363 125.888 152.369V153.222C125.852 153.212 125.789 153.201 125.697 153.189C125.606 153.175 125.514 153.168 125.423 153.168C125.212 153.168 125.024 153.213 124.859 153.302C124.696 153.39 124.567 153.512 124.471 153.669C124.376 153.824 124.328 154.001 124.328 154.2V156.998H123.436ZM128.426 157.091C127.996 157.091 127.622 156.992 127.301 156.795C126.981 156.598 126.733 156.323 126.556 155.969C126.379 155.615 126.29 155.201 126.29 154.728C126.29 154.253 126.379 153.837 126.556 153.481C126.733 153.125 126.981 152.849 127.301 152.652C127.622 152.455 127.996 152.357 128.426 152.357C128.856 152.357 129.23 152.455 129.551 152.652C129.871 152.849 130.119 153.125 130.296 153.481C130.473 153.837 130.562 154.253 130.562 154.728C130.562 155.201 130.473 155.615 130.296 155.969C130.119 156.323 129.871 156.598 129.551 156.795C129.23 156.992 128.856 157.091 128.426 157.091ZM128.429 156.342C128.707 156.342 128.938 156.268 129.121 156.121C129.304 155.974 129.439 155.778 129.527 155.533C129.616 155.289 129.661 155.019 129.661 154.725C129.661 154.433 129.616 154.164 129.527 153.92C129.439 153.673 129.304 153.475 129.121 153.326C128.938 153.177 128.707 153.102 128.429 153.102C128.149 153.102 127.916 153.177 127.731 153.326C127.548 153.475 127.412 153.673 127.322 153.92C127.235 154.164 127.191 154.433 127.191 154.725C127.191 155.019 127.235 155.289 127.322 155.533C127.412 155.778 127.548 155.974 127.731 156.121C127.916 156.268 128.149 156.342 128.429 156.342ZM131.557 158.716V152.416H132.428V153.159H132.503C132.555 153.064 132.629 152.953 132.727 152.828C132.824 152.703 132.959 152.593 133.132 152.5C133.305 152.404 133.534 152.357 133.818 152.357C134.188 152.357 134.518 152.45 134.809 152.637C135.099 152.824 135.327 153.093 135.492 153.445C135.659 153.797 135.742 154.221 135.742 154.716C135.742 155.211 135.66 155.636 135.495 155.99C135.33 156.342 135.103 156.613 134.815 156.804C134.526 156.993 134.197 157.088 133.827 157.088C133.549 157.088 133.321 157.041 133.144 156.947C132.969 156.854 132.832 156.744 132.733 156.619C132.633 156.494 132.557 156.383 132.503 156.285H132.449V158.716H131.557ZM132.431 154.707C132.431 155.029 132.478 155.312 132.572 155.554C132.665 155.797 132.8 155.987 132.977 156.124C133.154 156.259 133.371 156.327 133.628 156.327C133.894 156.327 134.117 156.256 134.296 156.115C134.475 155.972 134.61 155.778 134.701 155.533C134.795 155.289 134.842 155.013 134.842 154.707C134.842 154.405 134.796 154.133 134.704 153.893C134.615 153.652 134.48 153.462 134.299 153.323C134.12 153.184 133.896 153.114 133.628 153.114C133.369 153.114 133.15 153.181 132.971 153.314C132.794 153.447 132.66 153.633 132.569 153.872C132.477 154.111 132.431 154.389 132.431 154.707ZM136.742 156.998V152.416H137.634V156.998H136.742ZM137.192 151.709C137.037 151.709 136.904 151.658 136.792 151.554C136.683 151.449 136.628 151.323 136.628 151.178C136.628 151.031 136.683 150.906 136.792 150.802C136.904 150.697 137.037 150.644 137.192 150.644C137.347 150.644 137.48 150.697 137.589 150.802C137.7 150.906 137.756 151.031 137.756 151.178C137.756 151.323 137.7 151.449 137.589 151.554C137.48 151.658 137.347 151.709 137.192 151.709ZM140.764 157.091C140.32 157.091 139.938 156.99 139.618 156.789C139.3 156.586 139.055 156.307 138.884 155.951C138.713 155.595 138.628 155.187 138.628 154.728C138.628 154.263 138.715 153.852 138.89 153.496C139.065 153.138 139.312 152.859 139.63 152.658C139.948 152.457 140.323 152.357 140.755 152.357C141.103 152.357 141.413 152.421 141.685 152.55C141.958 152.678 142.177 152.857 142.344 153.087C142.514 153.318 142.614 153.588 142.646 153.896H141.778C141.73 153.681 141.621 153.496 141.45 153.341C141.281 153.186 141.054 153.108 140.769 153.108C140.521 153.108 140.303 153.174 140.116 153.305C139.931 153.434 139.787 153.619 139.684 153.86C139.58 154.099 139.529 154.381 139.529 154.707C139.529 155.041 139.579 155.33 139.681 155.572C139.782 155.815 139.925 156.003 140.11 156.136C140.297 156.269 140.517 156.336 140.769 156.336C140.939 156.336 141.092 156.305 141.229 156.243C141.368 156.18 141.484 156.089 141.578 155.972C141.673 155.855 141.74 155.713 141.778 155.548H142.646C142.614 155.845 142.518 156.109 142.356 156.342C142.195 156.574 141.98 156.757 141.709 156.891C141.441 157.024 141.125 157.091 140.764 157.091Z" fill="#0C0A09"/>
<rect x="29.2" y="34.5996" width="61.6" height="19.2" rx="9.6" fill="white"/>
<g clip-path="url(#clip3_832_1540)">
<path d="M38.8 50.1992C38.5713 48.6897 37.8656 47.2929 36.786 46.2133C35.7064 45.1337 34.3096 44.4279 32.8 44.1992C34.3096 43.9705 35.7064 43.2647 36.786 42.1851C37.8656 41.1055 38.5713 39.7088 38.8 38.1992C39.0288 39.7087 39.7346 41.1055 40.8142 42.1851C41.8938 43.2646 43.2905 43.9704 44.8 44.1992C43.2905 44.428 41.8938 45.1338 40.8142 46.2134C39.7346 47.293 39.0288 48.6897 38.8 50.1992Z" fill="url(#paint26_linear_832_1540)"/>
</g>
<path d="M58.1559 43.0201C58.0982 42.8391 58.0207 42.6771 57.9232 42.5339C57.8278 42.3887 57.7134 42.2654 57.5802 42.164C57.4469 42.0606 57.2948 41.982 57.1238 41.9283C56.9547 41.8746 56.7688 41.8478 56.566 41.8478C56.2219 41.8478 55.9117 41.9363 55.6353 42.1133C55.3589 42.2903 55.1401 42.5498 54.979 42.8918C54.8199 43.2319 54.7404 43.6485 54.7404 44.1417C54.7404 44.6369 54.8209 45.0555 54.982 45.3975C55.1431 45.7396 55.3638 45.9991 55.6442 46.1761C55.9246 46.3531 56.2438 46.4415 56.6018 46.4415C56.9339 46.4415 57.2232 46.3739 57.4698 46.2387C57.7184 46.1035 57.9103 45.9126 58.0455 45.666C58.1827 45.4174 58.2513 45.1251 58.2513 44.789L58.49 44.8337H56.742V44.0731H59.1432V44.7681C59.1432 45.2812 59.0339 45.7266 58.8151 46.1045C58.5984 46.4803 58.2981 46.7707 57.9143 46.9755C57.5324 47.1803 57.0949 47.2827 56.6018 47.2827C56.0489 47.2827 55.5637 47.1555 55.1461 46.9009C54.7305 46.6464 54.4063 46.2854 54.1736 45.8181C53.941 45.3488 53.8246 44.792 53.8246 44.1477C53.8246 43.6604 53.8922 43.2229 54.0275 42.8352C54.1627 42.4474 54.3526 42.1183 54.5972 41.8478C54.8438 41.5754 55.1332 41.3675 55.4653 41.2244C55.7993 41.0792 56.1643 41.0066 56.56 41.0066C56.8901 41.0066 57.1974 41.0553 57.4817 41.1528C57.7681 41.2502 58.0226 41.3884 58.2454 41.5674C58.4701 41.7464 58.656 41.9592 58.8032 42.2058C58.9503 42.4504 59.0498 42.7218 59.1015 43.0201H58.1559ZM62.2164 47.2917C61.765 47.2917 61.3762 47.1952 61.0501 47.0023C60.7259 46.8075 60.4754 46.534 60.2984 46.182C60.1234 45.8281 60.0359 45.4134 60.0359 44.9381C60.0359 44.4688 60.1234 44.0552 60.2984 43.6972C60.4754 43.3393 60.722 43.0599 61.0382 42.859C61.3563 42.6582 61.7282 42.5577 62.1538 42.5577C62.4123 42.5577 62.6629 42.6005 62.9055 42.686C63.1481 42.7715 63.3659 42.9058 63.5588 43.0887C63.7517 43.2717 63.9038 43.5093 64.0151 43.8016C64.1265 44.092 64.1822 44.445 64.1822 44.8606V45.1768H60.54V44.5086H63.3082C63.3082 44.2739 63.2605 44.0661 63.165 43.8852C63.0696 43.7022 62.9353 43.558 62.7623 43.4526C62.5913 43.3472 62.3904 43.2945 62.1598 43.2945C61.9092 43.2945 61.6904 43.3562 61.5035 43.4795C61.3186 43.6008 61.1754 43.7599 61.074 43.9567C60.9745 44.1516 60.9248 44.3634 60.9248 44.5921V45.1141C60.9248 45.4204 60.9785 45.6809 61.0859 45.8957C61.1953 46.1104 61.3474 46.2745 61.5423 46.3879C61.7372 46.4992 61.9649 46.5549 62.2254 46.5549C62.3944 46.5549 62.5485 46.531 62.6877 46.4833C62.8269 46.4336 62.9473 46.36 63.0487 46.2626C63.1501 46.1651 63.2276 46.0448 63.2813 45.9016L64.1255 46.0538C64.0579 46.3023 63.9366 46.5201 63.7616 46.707C63.5886 46.892 63.3708 47.0362 63.1083 47.1396C62.8478 47.241 62.5505 47.2917 62.2164 47.2917ZM65.1718 47.1992V42.6174H66.0279V43.3631H66.0846C66.18 43.1106 66.3361 42.9137 66.5529 42.7725C66.7697 42.6293 67.0292 42.5577 67.3314 42.5577C67.6377 42.5577 67.8942 42.6293 68.1011 42.7725C68.3099 42.9157 68.464 43.1126 68.5634 43.3631H68.6111C68.7205 43.1185 68.8945 42.9237 69.1332 42.7785C69.3718 42.6313 69.6562 42.5577 69.9863 42.5577C70.4019 42.5577 70.741 42.688 71.0035 42.9485C71.268 43.209 71.4002 43.6018 71.4002 44.1268V47.1992H70.5083V44.2103C70.5083 43.9001 70.4238 43.6754 70.2547 43.5362C70.0857 43.3969 69.8839 43.3273 69.6492 43.3273C69.3589 43.3273 69.1332 43.4168 68.9721 43.5958C68.811 43.7728 68.7305 44.0005 68.7305 44.2789V47.1992H67.8415V44.1536C67.8415 43.905 67.764 43.7052 67.6089 43.554C67.4538 43.4029 67.2519 43.3273 67.0033 43.3273C66.8343 43.3273 66.6782 43.3721 66.535 43.4616C66.3938 43.5491 66.2795 43.6714 66.192 43.8285C66.1064 43.9856 66.0637 44.1675 66.0637 44.3744V47.1992H65.1718ZM72.5956 47.1992V42.6174H73.4875V47.1992H72.5956ZM73.046 41.9104C72.8909 41.9104 72.7577 41.8587 72.6463 41.7553C72.537 41.6499 72.4823 41.5246 72.4823 41.3795C72.4823 41.2323 72.537 41.107 72.6463 41.0036C72.7577 40.8982 72.8909 40.8455 73.046 40.8455C73.2012 40.8455 73.3334 40.8982 73.4428 41.0036C73.5541 41.107 73.6098 41.2323 73.6098 41.3795C73.6098 41.5246 73.5541 41.6499 73.4428 41.7553C73.3334 41.8587 73.2012 41.9104 73.046 41.9104ZM75.5793 44.4788V47.1992H74.6874V42.6174H75.5435V43.3631H75.6002C75.7056 43.1205 75.8707 42.9256 76.0954 42.7785C76.3221 42.6313 76.6074 42.5577 76.9515 42.5577C77.2637 42.5577 77.5371 42.6234 77.7718 42.7546C78.0064 42.8839 78.1884 43.0768 78.3177 43.3333C78.4469 43.5898 78.5116 43.907 78.5116 44.2849V47.1992H77.6197V44.3923C77.6197 44.0602 77.5332 43.8006 77.3601 43.6137C77.1871 43.4248 76.9495 43.3303 76.6472 43.3303C76.4404 43.3303 76.2564 43.3751 76.0954 43.4646C75.9363 43.554 75.81 43.6853 75.7165 43.8583C75.6251 44.0293 75.5793 44.2362 75.5793 44.4788ZM79.7077 47.1992V42.6174H80.5996V47.1992H79.7077ZM80.1582 41.9104C80.003 41.9104 79.8698 41.8587 79.7584 41.7553C79.6491 41.6499 79.5944 41.5246 79.5944 41.3795C79.5944 41.2323 79.6491 41.107 79.7584 41.0036C79.8698 40.8982 80.003 40.8455 80.1582 40.8455C80.3133 40.8455 80.4455 40.8982 80.5549 41.0036C80.6663 41.107 80.7219 41.2323 80.7219 41.3795C80.7219 41.5246 80.6663 41.6499 80.5549 41.7553C80.4455 41.8587 80.3133 41.9104 80.1582 41.9104Z" fill="#0C0A09"/>
<rect x="48.3999" y="73" width="70.6" height="19.2" rx="9.6" fill="white"/>
<path opacity="0.2" fill-rule="evenodd" clip-rule="evenodd" d="M60.6925 82.2166C61.3045 82.2166 61.8914 81.9735 62.3242 81.5407C62.7569 81.108 63 80.521 63 79.9091C63 79.2971 62.7569 78.7102 62.3242 78.2774C61.8914 77.8447 61.3045 77.6016 60.6925 77.6016C60.0805 77.6016 59.4936 77.8447 59.0609 78.2774C58.6281 78.7102 58.385 79.2971 58.385 79.9091C58.385 80.521 58.6281 81.108 59.0609 81.5407C59.4936 81.9735 60.0805 82.2166 60.6925 82.2166ZM60.6925 87.6016C61.3045 87.6016 61.8914 87.3585 62.3242 86.9257C62.7569 86.493 63 85.9061 63 85.2941C63 84.6821 62.7569 84.0952 62.3242 83.6624C61.8914 83.2297 61.3045 82.9866 60.6925 82.9866C60.0805 82.9866 59.4936 83.2297 59.0609 83.6624C58.6281 84.0952 58.385 84.6821 58.385 85.2941C58.385 85.9061 58.6281 86.493 59.0609 86.9257C59.4936 87.3585 60.0805 87.6016 60.6925 87.6016ZM55.3075 87.6016C55.9195 87.6016 56.5064 87.3585 56.9391 86.9257C57.3719 86.493 57.615 85.9061 57.615 85.2941C57.615 84.6821 57.3719 84.0952 56.9391 83.6624C56.5064 83.2297 55.9195 82.9866 55.3075 82.9866C54.6955 82.9866 54.1086 83.2297 53.6759 83.6624C53.2431 84.0952 53 84.6821 53 85.2941C53 85.9061 53.2431 86.493 53.6759 86.9257C54.1086 87.3585 54.6955 87.6016 55.3075 87.6016Z" fill="black"/>
<path d="M55.3075 82.2166C56.5819 82.2166 57.615 81.1835 57.615 79.9091C57.615 78.6347 56.5819 77.6016 55.3075 77.6016C54.0331 77.6016 53 78.6347 53 79.9091C53 81.1835 54.0331 82.2166 55.3075 82.2166Z" fill="#0F6FFF"/>
<path d="M73.3561 80.284V79.4905H78.0841V80.284H76.178V85.5996H75.2592V80.284H73.3561ZM80.3228 85.6921C79.8933 85.6921 79.5184 85.5936 79.1982 85.3968C78.8781 85.1999 78.6295 84.9245 78.4525 84.5705C78.2755 84.2165 78.187 83.8029 78.187 83.3296C78.187 82.8543 78.2755 82.4387 78.4525 82.0827C78.6295 81.7267 78.8781 81.4503 79.1982 81.2534C79.5184 81.0566 79.8933 80.9581 80.3228 80.9581C80.7524 80.9581 81.1272 81.0566 81.4474 81.2534C81.7676 81.4503 82.0161 81.7267 82.1931 82.0827C82.3701 82.4387 82.4586 82.8543 82.4586 83.3296C82.4586 83.8029 82.3701 84.2165 82.1931 84.5705C82.0161 84.9245 81.7676 85.1999 81.4474 85.3968C81.1272 85.5936 80.7524 85.6921 80.3228 85.6921ZM80.3258 84.9434C80.6042 84.9434 80.8349 84.8698 81.0178 84.7226C81.2008 84.5755 81.336 84.3796 81.4235 84.135C81.513 83.8904 81.5577 83.6209 81.5577 83.3266C81.5577 83.0343 81.513 82.7658 81.4235 82.5212C81.336 82.2746 81.2008 82.0767 81.0178 81.9276C80.8349 81.7784 80.6042 81.7039 80.3258 81.7039C80.0454 81.7039 79.8127 81.7784 79.6278 81.9276C79.4448 82.0767 79.3086 82.2746 79.2191 82.5212C79.1316 82.7658 79.0879 83.0343 79.0879 83.3266C79.0879 83.6209 79.1316 83.8904 79.2191 84.135C79.3086 84.3796 79.4448 84.5755 79.6278 84.7226C79.8127 84.8698 80.0454 84.9434 80.3258 84.9434ZM85.3752 87.4132C85.0113 87.4132 84.6981 87.3655 84.4356 87.2701C84.175 87.1746 83.9623 87.0483 83.7972 86.8912C83.6321 86.7341 83.5089 86.5621 83.4273 86.3752L84.1939 86.059C84.2476 86.1465 84.3192 86.239 84.4087 86.3364C84.5002 86.4358 84.6235 86.5203 84.7786 86.59C84.9357 86.6596 85.1375 86.6944 85.3841 86.6944C85.7222 86.6944 86.0016 86.6118 86.2223 86.4468C86.4431 86.2837 86.5535 86.0232 86.5535 85.6652V84.7644H86.4968C86.4431 84.8618 86.3655 84.9702 86.2641 85.0895C86.1647 85.2088 86.0275 85.3123 85.8525 85.3998C85.6775 85.4873 85.4498 85.531 85.1694 85.531C84.8074 85.531 84.4813 85.4465 84.191 85.2775C83.9026 85.1064 83.6739 84.8549 83.5049 84.5228C83.3378 84.1887 83.2543 83.778 83.2543 83.2908C83.2543 82.8036 83.3368 82.386 83.5019 82.038C83.6689 81.6899 83.8976 81.4235 84.188 81.2385C84.4783 81.0516 84.8074 80.9581 85.1753 80.9581C85.4597 80.9581 85.6894 81.0059 85.8644 81.1013C86.0394 81.1948 86.1756 81.3042 86.2731 81.4294C86.3725 81.5547 86.4491 81.6651 86.5027 81.7605H86.5684V81.0178H87.4424V85.701C87.4424 86.0948 87.3509 86.4179 87.1679 86.6705C86.985 86.923 86.7374 87.11 86.4252 87.2313C86.115 87.3526 85.765 87.4132 85.3752 87.4132ZM85.3662 84.7912C85.6228 84.7912 85.8395 84.7316 86.0165 84.6123C86.1955 84.4909 86.3307 84.3179 86.4222 84.0932C86.5157 83.8665 86.5624 83.5951 86.5624 83.2789C86.5624 82.9706 86.5167 82.6992 86.4252 82.4645C86.3337 82.2299 86.1995 82.0469 86.0225 81.9157C85.8455 81.7824 85.6267 81.7158 85.3662 81.7158C85.0978 81.7158 84.874 81.7854 84.6951 81.9246C84.5161 82.0618 84.3809 82.2488 84.2894 82.4854C84.1999 82.7221 84.1552 82.9865 84.1552 83.2789C84.1552 83.5792 84.2009 83.8426 84.2924 84.0694C84.3839 84.2961 84.5191 84.473 84.6981 84.6003C84.879 84.7276 85.1017 84.7912 85.3662 84.7912ZM90.6133 85.6921C90.1618 85.6921 89.7731 85.5956 89.4469 85.4027C89.1228 85.2078 88.8722 84.9344 88.6952 84.5824C88.5202 84.2284 88.4327 83.8138 88.4327 83.3385C88.4327 82.8692 88.5202 82.4556 88.6952 82.0976C88.8722 81.7397 89.1188 81.4603 89.435 81.2594C89.7532 81.0586 90.125 80.9581 90.5506 80.9581C90.8091 80.9581 91.0597 81.0009 91.3023 81.0864C91.5449 81.1719 91.7627 81.3061 91.9556 81.4891C92.1485 81.6721 92.3006 81.9097 92.412 82.202C92.5233 82.4924 92.579 82.8453 92.579 83.261V83.5772H88.9368V82.909H91.705C91.705 82.6743 91.6573 82.4665 91.5618 82.2855C91.4664 82.1026 91.3321 81.9584 91.1591 81.853C90.9881 81.7476 90.7873 81.6949 90.5566 81.6949C90.306 81.6949 90.0873 81.7566 89.9003 81.8799C89.7154 82.0012 89.5722 82.1603 89.4708 82.3571C89.3714 82.552 89.3216 82.7638 89.3216 82.9925V83.5145C89.3216 83.8208 89.3753 84.0813 89.4827 84.2961C89.5921 84.5108 89.7442 84.6749 89.9391 84.7882C90.134 84.8996 90.3617 84.9553 90.6222 84.9553C90.7912 84.9553 90.9454 84.9314 91.0846 84.8837C91.2238 84.834 91.3441 84.7604 91.4455 84.663C91.5469 84.5655 91.6245 84.4452 91.6782 84.302L92.5223 84.4542C92.4547 84.7027 92.3334 84.9205 92.1584 85.1074C91.9854 85.2924 91.7677 85.4365 91.5052 85.54C91.2446 85.6414 90.9473 85.6921 90.6133 85.6921ZM95.7074 81.0178V81.7337H93.2047V81.0178H95.7074ZM93.8759 79.9201H94.7678V84.2543C94.7678 84.4273 94.7936 84.5576 94.8453 84.6451C94.897 84.7306 94.9636 84.7892 95.0452 84.8211C95.1287 84.8509 95.2192 84.8658 95.3166 84.8658C95.3882 84.8658 95.4509 84.8608 95.5046 84.8509C95.5582 84.8409 95.6 84.833 95.6298 84.827L95.7909 85.5638C95.7392 85.5837 95.6656 85.6036 95.5702 85.6235C95.4747 85.6453 95.3554 85.6573 95.2122 85.6593C94.9776 85.6632 94.7588 85.6215 94.556 85.534C94.3531 85.4465 94.1891 85.3113 94.0638 85.1283C93.9385 84.9453 93.8759 84.7157 93.8759 84.4392V79.9201ZM97.6843 82.8792V85.5996H96.7924V79.4905H97.6724V81.7635H97.7291C97.8365 81.5169 98.0005 81.3211 98.2213 81.1759C98.442 81.0307 98.7304 80.9581 99.0863 80.9581C99.4005 80.9581 99.675 81.0228 99.9096 81.152C100.146 81.2813 100.329 81.4742 100.458 81.7307C100.59 81.9853 100.655 82.3034 100.655 82.6853V85.5996H99.7635V82.7926C99.7635 82.4566 99.677 82.1961 99.504 82.0111C99.3309 81.8242 99.0903 81.7307 98.7821 81.7307C98.5713 81.7307 98.3824 81.7755 98.2153 81.8649C98.0503 81.9544 97.92 82.0857 97.8245 82.2587C97.7311 82.4297 97.6843 82.6365 97.6843 82.8792ZM103.82 85.6921C103.369 85.6921 102.98 85.5956 102.654 85.4027C102.33 85.2078 102.079 84.9344 101.902 84.5824C101.727 84.2284 101.64 83.8138 101.64 83.3385C101.64 82.8692 101.727 82.4556 101.902 82.0976C102.079 81.7397 102.326 81.4603 102.642 81.2594C102.96 81.0586 103.332 80.9581 103.758 80.9581C104.016 80.9581 104.267 81.0009 104.509 81.0864C104.752 81.1719 104.97 81.3061 105.163 81.4891C105.356 81.6721 105.508 81.9097 105.619 82.202C105.73 82.4924 105.786 82.8453 105.786 83.261V83.5772H102.144V82.909H104.912C104.912 82.6743 104.864 82.4665 104.769 82.2855C104.673 82.1026 104.539 81.9584 104.366 81.853C104.195 81.7476 103.994 81.6949 103.764 81.6949C103.513 81.6949 103.294 81.7566 103.107 81.8799C102.922 82.0012 102.779 82.1603 102.678 82.3571C102.578 82.552 102.529 82.7638 102.529 82.9925V83.5145C102.529 83.8208 102.582 84.0813 102.69 84.2961C102.799 84.5108 102.951 84.6749 103.146 84.7882C103.341 84.8996 103.569 84.9553 103.829 84.9553C103.998 84.9553 104.152 84.9314 104.292 84.8837C104.431 84.834 104.551 84.7604 104.653 84.663C104.754 84.5655 104.832 84.4452 104.885 84.302L105.729 84.4542C105.662 84.7027 105.54 84.9205 105.365 85.1074C105.192 85.2924 104.975 85.4365 104.712 85.54C104.452 85.6414 104.154 85.6921 103.82 85.6921ZM106.776 85.5996V81.0178H107.638V81.7456H107.685C107.769 81.499 107.916 81.3051 108.127 81.164C108.34 81.0208 108.58 80.9492 108.849 80.9492C108.904 80.9492 108.97 80.9512 109.046 80.9551C109.123 80.9591 109.184 80.9641 109.228 80.9701V81.8232C109.192 81.8132 109.128 81.8023 109.037 81.7904C108.945 81.7765 108.854 81.7695 108.762 81.7695C108.552 81.7695 108.364 81.8142 108.199 81.9037C108.035 81.9912 107.906 82.1135 107.811 82.2706C107.715 82.4257 107.668 82.6027 107.668 82.8016V85.5996H106.776Z" fill="#0C0A09"/>
<path d="M258.012 73.5129C258.129 73.3958 258.129 73.2058 258.012 73.0886L256.103 71.1795C255.986 71.0623 255.796 71.0623 255.679 71.1795C255.561 71.2966 255.561 71.4866 255.679 71.6037L257.376 73.3008L255.679 74.9978C255.561 75.115 255.561 75.3049 255.679 75.4221C255.796 75.5393 255.986 75.5393 256.103 75.4221L258.012 73.5129ZM214.017 73.6008C214.182 73.6008 214.317 73.4665 214.317 73.3008C214.317 73.1351 214.182 73.0008 214.017 73.0008V73.6008ZM216.483 73.0008C216.318 73.0008 216.183 73.1351 216.183 73.3008C216.183 73.4665 216.318 73.6008 216.483 73.6008V73.0008ZM217.717 73.6008C217.882 73.6008 218.017 73.4665 218.017 73.3008C218.017 73.1351 217.882 73.0008 217.717 73.0008V73.6008ZM220.183 73.0008C220.018 73.0008 219.883 73.1351 219.883 73.3008C219.883 73.4665 220.018 73.6008 220.183 73.6008V73.0008ZM221.417 73.6008C221.582 73.6008 221.717 73.4665 221.717 73.3008C221.717 73.1351 221.582 73.0008 221.417 73.0008V73.6008ZM223.883 73.0008C223.718 73.0008 223.583 73.1351 223.583 73.3008C223.583 73.4665 223.718 73.6008 223.883 73.6008V73.0008ZM225.117 73.6008C225.282 73.6008 225.417 73.4665 225.417 73.3008C225.417 73.1351 225.282 73.0008 225.117 73.0008V73.6008ZM227.583 73.0008C227.418 73.0008 227.283 73.1351 227.283 73.3008C227.283 73.4665 227.418 73.6008 227.583 73.6008V73.0008ZM228.817 73.6008C228.982 73.6008 229.117 73.4665 229.117 73.3008C229.117 73.1351 228.982 73.0008 228.817 73.0008V73.6008ZM231.283 73.0008C231.118 73.0008 230.983 73.1351 230.983 73.3008C230.983 73.4665 231.118 73.6008 231.283 73.6008V73.0008ZM232.517 73.6008C232.682 73.6008 232.817 73.4665 232.817 73.3008C232.817 73.1351 232.682 73.0008 232.517 73.0008V73.6008ZM234.983 73.0008C234.818 73.0008 234.683 73.1351 234.683 73.3008C234.683 73.4665 234.818 73.6008 234.983 73.6008V73.0008ZM236.217 73.6008C236.382 73.6008 236.517 73.4665 236.517 73.3008C236.517 73.1351 236.382 73.0008 236.217 73.0008V73.6008ZM238.683 73.0008C238.518 73.0008 238.383 73.1351 238.383 73.3008C238.383 73.4665 238.518 73.6008 238.683 73.6008V73.0008ZM239.917 73.6008C240.082 73.6008 240.217 73.4665 240.217 73.3008C240.217 73.1351 240.082 73.0008 239.917 73.0008V73.6008ZM242.383 73.0008C242.218 73.0008 242.083 73.1351 242.083 73.3008C242.083 73.4665 242.218 73.6008 242.383 73.6008V73.0008ZM243.617 73.6008C243.782 73.6008 243.917 73.4665 243.917 73.3008C243.917 73.1351 243.782 73.0008 243.617 73.0008V73.6008ZM246.083 73.0008C245.918 73.0008 245.783 73.1351 245.783 73.3008C245.783 73.4665 245.918 73.6008 246.083 73.6008V73.0008ZM247.317 73.6008C247.482 73.6008 247.617 73.4665 247.617 73.3008C247.617 73.1351 247.482 73.0008 247.317 73.0008V73.6008ZM249.783 73.0008C249.618 73.0008 249.483 73.1351 249.483 73.3008C249.483 73.4665 249.618 73.6008 249.783 73.6008V73.0008ZM251.017 73.6008C251.182 73.6008 251.317 73.4665 251.317 73.3008C251.317 73.1351 251.182 73.0008 251.017 73.0008V73.6008ZM253.483 73.0008C253.318 73.0008 253.183 73.1351 253.183 73.3008C253.183 73.4665 253.318 73.6008 253.483 73.6008V73.0008ZM254.717 73.6008C254.882 73.6008 255.017 73.4665 255.017 73.3008C255.017 73.1351 254.882 73.0008 254.717 73.0008V73.6008ZM257.183 73.0008C257.018 73.0008 256.883 73.1351 256.883 73.3008C256.883 73.4665 257.018 73.6008 257.183 73.6008V73.0008ZM213.4 73.3008V73.6008H214.017V73.3008V73.0008H213.4V73.3008ZM216.483 73.3008V73.6008H217.717V73.3008V73.0008H216.483V73.3008ZM220.183 73.3008V73.6008H221.417V73.3008V73.0008H220.183V73.3008ZM223.883 73.3008V73.6008H225.117V73.3008V73.0008H223.883V73.3008ZM227.583 73.3008V73.6008H228.817V73.3008V73.0008H227.583V73.3008ZM231.283 73.3008V73.6008H232.517V73.3008V73.0008H231.283V73.3008ZM234.983 73.3008V73.6008H236.217V73.3008V73.0008H234.983V73.3008ZM238.683 73.3008V73.6008H239.917V73.3008V73.0008H238.683V73.3008ZM242.383 73.3008V73.6008H243.617V73.3008V73.0008H242.383V73.3008ZM246.083 73.3008V73.6008H247.317V73.3008V73.0008H246.083V73.3008ZM249.783 73.3008V73.6008H251.017V73.3008V73.0008H249.783V73.3008ZM253.483 73.3008V73.6008H254.717V73.3008V73.0008H253.483V73.3008ZM257.183 73.3008V73.6008H257.8V73.3008V73.0008H257.183V73.3008Z" fill="#B5B09B"/>
<defs>
<filter id="filter0_di_832_1540" x="122.02" y="18.2208" width="109.56" height="109.56" filterUnits="userSpaceOnUse" color-interpolation-filters="sRGB">
<feFlood flood-opacity="0" result="BackgroundImageFix"/>
<feColorMatrix in="SourceAlpha" type="matrix" values="0 0 0 0 0 0 0 0 0 0 0 0 0 0 0 0 0 0 127 0" result="hardAlpha"/>
<feMorphology radius="1.2" operator="dilate" in="SourceAlpha" result="effect1_dropShadow_832_1540"/>
<feOffset/>
<feGaussianBlur stdDeviation="9.69"/>
<feComposite in2="hardAlpha" operator="out"/>
<feColorMatrix type="matrix" values="0 0 0 0 0.682353 0 0 0 0 0.647059 0 0 0 0 0.509804 0 0 0 1 0"/>
<feBlend mode="normal" in2="BackgroundImageFix" result="effect1_dropShadow_832_1540"/>
<feBlend mode="normal" in="SourceGraphic" in2="effect1_dropShadow_832_1540" result="shape"/>
<feColorMatrix in="SourceAlpha" type="matrix" values="0 0 0 0 0 0 0 0 0 0 0 0 0 0 0 0 0 0 127 0" result="hardAlpha"/>
<feOffset/>
<feGaussianBlur stdDeviation="2.4"/>
<feComposite in2="hardAlpha" operator="arithmetic" k2="-1" k3="1"/>
<feColorMatrix type="matrix" values="0 0 0 0 0.713726 0 0 0 0 0.678431 0 0 0 0 0.552941 0 0 0 1 0"/>
<feBlend mode="normal" in2="shape" result="effect2_innerShadow_832_1540"/>
</filter>
<filter id="filter1_d_832_1540" x="239.62" y="32.6192" width="80.76" height="80.7596" filterUnits="userSpaceOnUse" color-interpolation-filters="sRGB">
<feFlood flood-opacity="0" result="BackgroundImageFix"/>
<feColorMatrix in="SourceAlpha" type="matrix" values="0 0 0 0 0 0 0 0 0 0 0 0 0 0 0 0 0 0 127 0" result="hardAlpha"/>
<feMorphology radius="1.2" operator="dilate" in="SourceAlpha" result="effect1_dropShadow_832_1540"/>
<feOffset/>
<feGaussianBlur stdDeviation="9.69"/>
<feComposite in2="hardAlpha" operator="out"/>
<feColorMatrix type="matrix" values="0 0 0 0 0.682353 0 0 0 0 0.647059 0 0 0 0 0.509804 0 0 0 0.5 0"/>
<feBlend mode="normal" in2="BackgroundImageFix" result="effect1_dropShadow_832_1540"/>
<feBlend mode="normal" in="SourceGraphic" in2="effect1_dropShadow_832_1540" result="shape"/>
</filter>
<linearGradient id="paint0_linear_832_1540" x1="13.5" y1="1" x2="13.5" y2="164.2" gradientUnits="userSpaceOnUse">
<stop stop-color="#F8F7F3"/>
<stop offset="0.480769" stop-color="#E6E2D2"/>
<stop offset="1" stop-color="#F8F7F3"/>
</linearGradient>
<linearGradient id="paint1_linear_832_1540" x1="309.4" y1="11.0996" x2="0.999908" y2="11.0996" gradientUnits="userSpaceOnUse">
<stop stop-color="#F8F7F3"/>
<stop offset="0.480769" stop-color="#E6E2D2"/>
<stop offset="1" stop-color="#F8F7F3"/>
</linearGradient>
<linearGradient id="paint2_linear_832_1540" x1="31.5" y1="1" x2="31.5" y2="164.2" gradientUnits="userSpaceOnUse">
<stop stop-color="#F8F7F3"/>
<stop offset="0.480769" stop-color="#E6E2D2"/>
<stop offset="1" stop-color="#F8F7F3"/>
</linearGradient>
<linearGradient id="paint3_linear_832_1540" x1="309.4" y1="29.0996" x2="0.999908" y2="29.0996" gradientUnits="userSpaceOnUse">
<stop stop-color="#F8F7F3"/>
<stop offset="0.480769" stop-color="#E6E2D2"/>
<stop offset="1" stop-color="#F8F7F3"/>
</linearGradient>
<linearGradient id="paint4_linear_832_1540" x1="49.5" y1="1" x2="49.5" y2="164.2" gradientUnits="userSpaceOnUse">
<stop stop-color="#F8F7F3"/>
<stop offset="0.480769" stop-color="#E6E2D2"/>
<stop offset="1" stop-color="#F8F7F3"/>
</linearGradient>
<linearGradient id="paint5_linear_832_1540" x1="309.4" y1="47.0996" x2="0.999908" y2="47.0996" gradientUnits="userSpaceOnUse">
<stop stop-color="#F8F7F3"/>
<stop offset="0.480769" stop-color="#E6E2D2"/>
<stop offset="1" stop-color="#F8F7F3"/>
</linearGradient>
<linearGradient id="paint6_linear_832_1540" x1="67.5" y1="1" x2="67.5" y2="164.2" gradientUnits="userSpaceOnUse">
<stop stop-color="#F8F7F3"/>
<stop offset="0.480769" stop-color="#E6E2D2"/>
<stop offset="1" stop-color="#F8F7F3"/>
</linearGradient>
<linearGradient id="paint7_linear_832_1540" x1="309.4" y1="65.0996" x2="0.999908" y2="65.0996" gradientUnits="userSpaceOnUse">
<stop stop-color="#F8F7F3"/>
<stop offset="0.480769" stop-color="#E6E2D2"/>
<stop offset="1" stop-color="#F8F7F3"/>
</linearGradient>
<linearGradient id="paint8_linear_832_1540" x1="85.5" y1="1" x2="85.5" y2="164.2" gradientUnits="userSpaceOnUse">
<stop stop-color="#F8F7F3"/>
<stop offset="0.480769" stop-color="#E6E2D2"/>
<stop offset="1" stop-color="#F8F7F3"/>
</linearGradient>
<linearGradient id="paint9_linear_832_1540" x1="309.4" y1="83.0996" x2="0.999908" y2="83.0996" gradientUnits="userSpaceOnUse">
<stop stop-color="#F8F7F3"/>
<stop offset="0.480769" stop-color="#E6E2D2"/>
<stop offset="1" stop-color="#F8F7F3"/>
</linearGradient>
<linearGradient id="paint10_linear_832_1540" x1="103.5" y1="1" x2="103.5" y2="164.2" gradientUnits="userSpaceOnUse">
<stop stop-color="#F8F7F3"/>
<stop offset="0.480769" stop-color="#E6E2D2"/>
<stop offset="1" stop-color="#F8F7F3"/>
</linearGradient>
<linearGradient id="paint11_linear_832_1540" x1="309.4" y1="101.1" x2="0.999908" y2="101.1" gradientUnits="userSpaceOnUse">
<stop stop-color="#F8F7F3"/>
<stop offset="0.480769" stop-color="#E6E2D2"/>
<stop offset="1" stop-color="#F8F7F3"/>
</linearGradient>
<linearGradient id="paint12_linear_832_1540" x1="121.5" y1="1" x2="121.5" y2="164.2" gradientUnits="userSpaceOnUse">
<stop stop-color="#F8F7F3"/>
<stop offset="0.480769" stop-color="#E6E2D2"/>
<stop offset="1" stop-color="#F8F7F3"/>
</linearGradient>
<linearGradient id="paint13_linear_832_1540" x1="309.4" y1="119.1" x2="0.999908" y2="119.1" gradientUnits="userSpaceOnUse">
<stop stop-color="#F8F7F3"/>
<stop offset="0.480769" stop-color="#E6E2D2"/>
<stop offset="1" stop-color="#F8F7F3"/>
</linearGradient>
<linearGradient id="paint14_linear_832_1540" x1="139.5" y1="1" x2="139.5" y2="164.2" gradientUnits="userSpaceOnUse">
<stop stop-color="#F8F7F3"/>
<stop offset="0.480769" stop-color="#E6E2D2"/>
<stop offset="1" stop-color="#F8F7F3"/>
</linearGradient>
<linearGradient id="paint15_linear_832_1540" x1="309.4" y1="137.1" x2="0.999908" y2="137.1" gradientUnits="userSpaceOnUse">
<stop stop-color="#F8F7F3"/>
<stop offset="0.480769" stop-color="#E6E2D2"/>
<stop offset="1" stop-color="#F8F7F3"/>
</linearGradient>
<linearGradient id="paint16_linear_832_1540" x1="157.5" y1="1" x2="157.5" y2="164.2" gradientUnits="userSpaceOnUse">
<stop stop-color="#F8F7F3"/>
<stop offset="0.480769" stop-color="#E6E2D2"/>
<stop offset="1" stop-color="#F8F7F3"/>
</linearGradient>
<linearGradient id="paint17_linear_832_1540" x1="309.4" y1="155.1" x2="0.999908" y2="155.1" gradientUnits="userSpaceOnUse">
<stop stop-color="#F8F7F3"/>
<stop offset="0.480769" stop-color="#E6E2D2"/>
<stop offset="1" stop-color="#F8F7F3"/>
</linearGradient>
<linearGradient id="paint18_linear_832_1540" x1="175.5" y1="1" x2="175.5" y2="164.2" gradientUnits="userSpaceOnUse">
<stop stop-color="#F8F7F3"/>
<stop offset="0.480769" stop-color="#E6E2D2"/>
<stop offset="1" stop-color="#F8F7F3"/>
</linearGradient>
<linearGradient id="paint19_linear_832_1540" x1="193.5" y1="1" x2="193.5" y2="164.2" gradientUnits="userSpaceOnUse">
<stop stop-color="#F8F7F3"/>
<stop offset="0.480769" stop-color="#E6E2D2"/>
<stop offset="1" stop-color="#F8F7F3"/>
</linearGradient>
<linearGradient id="paint20_linear_832_1540" x1="211.5" y1="1" x2="211.5" y2="164.2" gradientUnits="userSpaceOnUse">
<stop stop-color="#F8F7F3"/>
<stop offset="0.480769" stop-color="#E6E2D2"/>
<stop offset="1" stop-color="#F8F7F3"/>
</linearGradient>
<linearGradient id="paint21_linear_832_1540" x1="229.5" y1="1" x2="229.5" y2="164.2" gradientUnits="userSpaceOnUse">
<stop stop-color="#F8F7F3"/>
<stop offset="0.480769" stop-color="#E6E2D2"/>
<stop offset="1" stop-color="#F8F7F3"/>
</linearGradient>
<linearGradient id="paint22_linear_832_1540" x1="247.5" y1="1" x2="247.5" y2="164.2" gradientUnits="userSpaceOnUse">
<stop stop-color="#F8F7F3"/>
<stop offset="0.480769" stop-color="#E6E2D2"/>
<stop offset="1" stop-color="#F8F7F3"/>
</linearGradient>
<linearGradient id="paint23_linear_832_1540" x1="265.5" y1="1" x2="265.5" y2="164.2" gradientUnits="userSpaceOnUse">
<stop stop-color="#F8F7F3"/>
<stop offset="0.480769" stop-color="#E6E2D2"/>
<stop offset="1" stop-color="#F8F7F3"/>
</linearGradient>
<linearGradient id="paint24_linear_832_1540" x1="283.5" y1="1" x2="283.5" y2="164.2" gradientUnits="userSpaceOnUse">
<stop stop-color="#F8F7F3"/>
<stop offset="0.480769" stop-color="#E6E2D2"/>
<stop offset="1" stop-color="#F8F7F3"/>
</linearGradient>
<linearGradient id="paint25_linear_832_1540" x1="301.5" y1="1" x2="301.5" y2="164.2" gradientUnits="userSpaceOnUse">
<stop stop-color="#F8F7F3"/>
<stop offset="0.480769" stop-color="#E6E2D2"/>
<stop offset="1" stop-color="#F8F7F3"/>
</linearGradient>
<linearGradient id="paint26_linear_832_1540" x1="32.8" y1="1238.2" x2="857.56" y2="402.939" gradientUnits="userSpaceOnUse">
<stop stop-color="#1C7DFF"/>
<stop offset="0.52021" stop-color="#1C69FF"/>
<stop offset="1" stop-color="#F0DCD6"/>
</linearGradient>
<clipPath id="clip0_832_1540">
<rect width="37.2" height="37.2" fill="white" transform="translate(158.2 54.4004)"/>
</clipPath>
<clipPath id="clip1_832_1540">
<rect width="12" height="12" fill="white" transform="translate(99.3999 5.19922)"/>
</clipPath>
<clipPath id="clip2_832_1540">
<rect width="12" height="12" fill="white" transform="translate(82.6001 148)"/>
</clipPath>
<clipPath id="clip3_832_1540">
<rect width="12" height="12" fill="white" transform="translate(32.8 38.1992)"/>
</clipPath>
</defs>
</svg>
