<svg width="341" height="288" viewBox="0 0 341 288" fill="none" xmlns="http://www.w3.org/2000/svg">
<g clip-path="url(#clip0_794_9839)">
<rect width="341" height="288" rx="16" fill="#F1EFE8"/>
<path d="M5.85303 -39V177.8" stroke="url(#paint0_linear_794_9839)" stroke-width="0.6" stroke-linecap="round" stroke-linejoin="round"/>
<path d="M29.7649 -39V177.8" stroke="url(#paint1_linear_794_9839)" stroke-width="0.6" stroke-linecap="round" stroke-linejoin="round"/>
<path d="M375.688 21.5762L-34 21.5762" stroke="url(#paint2_linear_794_9839)" stroke-width="0.6" stroke-linecap="round" stroke-linejoin="round"/>
<path d="M53.6768 -39V177.8" stroke="url(#paint3_linear_794_9839)" stroke-width="0.6" stroke-linecap="round" stroke-linejoin="round"/>
<path d="M375.688 45.4885L-34 45.4885" stroke="url(#paint4_linear_794_9839)" stroke-width="0.6" stroke-linecap="round" stroke-linejoin="round"/>
<path d="M77.5884 -39V177.8" stroke="url(#paint5_linear_794_9839)" stroke-width="0.6" stroke-linecap="round" stroke-linejoin="round"/>
<path d="M375.688 69.4003L-34 69.4003" stroke="url(#paint6_linear_794_9839)" stroke-width="0.6" stroke-linecap="round" stroke-linejoin="round"/>
<path d="M101.5 -39V177.8" stroke="url(#paint7_linear_794_9839)" stroke-width="0.6" stroke-linecap="round" stroke-linejoin="round"/>
<path d="M375.688 93.3125L-34 93.3125" stroke="url(#paint8_linear_794_9839)" stroke-width="0.6" stroke-linecap="round" stroke-linejoin="round"/>
<path d="M125.412 -39V177.8" stroke="url(#paint9_linear_794_9839)" stroke-width="0.6" stroke-linecap="round" stroke-linejoin="round"/>
<path d="M375.688 117.225L-34 117.225" stroke="url(#paint10_linear_794_9839)" stroke-width="0.6" stroke-linecap="round" stroke-linejoin="round"/>
<path d="M149.324 -39V177.8" stroke="url(#paint11_linear_794_9839)" stroke-width="0.6" stroke-linecap="round" stroke-linejoin="round"/>
<path d="M375.688 141.135L-34 141.135" stroke="url(#paint12_linear_794_9839)" stroke-width="0.6" stroke-linecap="round" stroke-linejoin="round"/>
<path d="M173.235 -39V177.8" stroke="url(#paint13_linear_794_9839)" stroke-width="0.6" stroke-linecap="round" stroke-linejoin="round"/>
<path d="M375.688 165.047L-34 165.047" stroke="url(#paint14_linear_794_9839)" stroke-width="0.6" stroke-linecap="round" stroke-linejoin="round"/>
<path d="M197.147 -39V177.8" stroke="url(#paint15_linear_794_9839)" stroke-width="0.6" stroke-linecap="round" stroke-linejoin="round"/>
<path d="M221.059 -39V177.8" stroke="url(#paint16_linear_794_9839)" stroke-width="0.6" stroke-linecap="round" stroke-linejoin="round"/>
<path d="M244.971 -39V177.8" stroke="url(#paint17_linear_794_9839)" stroke-width="0.6" stroke-linecap="round" stroke-linejoin="round"/>
<path d="M268.883 -39V177.8" stroke="url(#paint18_linear_794_9839)" stroke-width="0.6" stroke-linecap="round" stroke-linejoin="round"/>
<path d="M292.794 -39V177.8" stroke="url(#paint19_linear_794_9839)" stroke-width="0.6" stroke-linecap="round" stroke-linejoin="round"/>
<path d="M316.706 -39V177.8" stroke="url(#paint20_linear_794_9839)" stroke-width="0.6" stroke-linecap="round" stroke-linejoin="round"/>
<path d="M340.618 -39V177.8" stroke="url(#paint21_linear_794_9839)" stroke-width="0.6" stroke-linecap="round" stroke-linejoin="round"/>
<path d="M233 154V160C233 168.837 225.837 176 217 176H75C66.1634 176 59 168.837 59 160V151" stroke="url(#paint22_linear_794_9839)" stroke-width="2"/>
<path d="M179.5 139.5H155C146.163 139.5 139 132.337 139 123.5V36C139 27.1634 146.163 20 155 20H204" stroke="url(#paint23_linear_794_9839)" stroke-width="2"/>
<rect x="156.5" y="-48.5" width="210" height="148" rx="15.5" fill="#EBE8DE" stroke="white"/>
<rect x="-16.5" y="-15.5" width="139" height="173" rx="15.5" fill="#EBE8DE" stroke="white"/>
<g filter="url(#filter0_di_794_9839)">
<path d="M156 139C156 128.507 164.507 120 175 120H293C303.493 120 312 128.507 312 139C312 149.493 303.493 158 293 158H175C164.507 158 156 149.493 156 139Z" fill="#22201C"/>
</g>
<path d="M202.113 134L205 136.887L207.887 134L205 131.113L202.113 134ZM205 134V134.5H286V134V133.5H205V134Z" fill="url(#paint24_linear_794_9839)"/>
<path d="M288.887 145L286 142.113L283.113 145L286 147.887L288.887 145ZM205 145V145.5H286V145V144.5H205V145Z" fill="url(#paint25_linear_794_9839)"/>
<path d="M175.18 134.691L174.068 135.802L170.095 131.829L173.878 128.047L174.989 129.158L173.076 131.07H179.302C183.853 131.07 187.553 134.716 187.641 139.246L187.643 139.412C187.643 144.019 183.908 147.753 179.302 147.753C174.695 147.753 170.961 144.018 170.961 139.412H172.532C172.532 143.151 175.563 146.182 179.302 146.182C183.041 146.182 186.071 143.151 186.071 139.412C186.071 135.673 183.041 132.642 179.302 132.642L173.13 132.642L175.18 134.691ZM179.842 134.825L179.841 138.602H183.619V140.222H178.222V134.825H179.841H179.842Z" fill="#F1EFE8"/>
</g>
<defs>
<filter id="filter0_di_794_9839" x="121.7" y="85.7" width="224.6" height="106.6" filterUnits="userSpaceOnUse" color-interpolation-filters="sRGB">
<feFlood flood-opacity="0" result="BackgroundImageFix"/>
<feColorMatrix in="SourceAlpha" type="matrix" values="0 0 0 0 0 0 0 0 0 0 0 0 0 0 0 0 0 0 127 0" result="hardAlpha"/>
<feMorphology radius="2" operator="dilate" in="SourceAlpha" result="effect1_dropShadow_794_9839"/>
<feOffset/>
<feGaussianBlur stdDeviation="16.15"/>
<feComposite in2="hardAlpha" operator="out"/>
<feColorMatrix type="matrix" values="0 0 0 0 0.682353 0 0 0 0 0.647059 0 0 0 0 0.509804 0 0 0 1 0"/>
<feBlend mode="normal" in2="BackgroundImageFix" result="effect1_dropShadow_794_9839"/>
<feBlend mode="normal" in="SourceGraphic" in2="effect1_dropShadow_794_9839" result="shape"/>
<feColorMatrix in="SourceAlpha" type="matrix" values="0 0 0 0 0 0 0 0 0 0 0 0 0 0 0 0 0 0 127 0" result="hardAlpha"/>
<feOffset/>
<feGaussianBlur stdDeviation="4"/>
<feComposite in2="hardAlpha" operator="arithmetic" k2="-1" k3="1"/>
<feColorMatrix type="matrix" values="0 0 0 0 0.713726 0 0 0 0 0.678431 0 0 0 0 0.552941 0 0 0 1 0"/>
<feBlend mode="normal" in2="shape" result="effect2_innerShadow_794_9839"/>
</filter>
<linearGradient id="paint0_linear_794_9839" x1="6.35303" y1="-39" x2="6.35303" y2="177.8" gradientUnits="userSpaceOnUse">
<stop stop-color="#F8F7F3" stop-opacity="0"/>
<stop offset="0.480769" stop-color="#D9D2B6"/>
<stop offset="1" stop-color="#F8F7F3" stop-opacity="0"/>
</linearGradient>
<linearGradient id="paint1_linear_794_9839" x1="30.2649" y1="-39" x2="30.2649" y2="177.8" gradientUnits="userSpaceOnUse">
<stop stop-color="#F8F7F3" stop-opacity="0"/>
<stop offset="0.480769" stop-color="#D9D2B6"/>
<stop offset="1" stop-color="#F8F7F3" stop-opacity="0"/>
</linearGradient>
<linearGradient id="paint2_linear_794_9839" x1="375.688" y1="22.0762" x2="-34" y2="22.0761" gradientUnits="userSpaceOnUse">
<stop stop-color="#F8F7F3" stop-opacity="0"/>
<stop offset="0.480769" stop-color="#D9D2B6"/>
<stop offset="1" stop-color="#F8F7F3" stop-opacity="0"/>
</linearGradient>
<linearGradient id="paint3_linear_794_9839" x1="54.1768" y1="-39" x2="54.1768" y2="177.8" gradientUnits="userSpaceOnUse">
<stop stop-color="#F8F7F3" stop-opacity="0"/>
<stop offset="0.480769" stop-color="#D9D2B6"/>
<stop offset="1" stop-color="#F8F7F3" stop-opacity="0"/>
</linearGradient>
<linearGradient id="paint4_linear_794_9839" x1="375.688" y1="45.9885" x2="-34" y2="45.9885" gradientUnits="userSpaceOnUse">
<stop stop-color="#F8F7F3" stop-opacity="0"/>
<stop offset="0.480769" stop-color="#D9D2B6"/>
<stop offset="1" stop-color="#F8F7F3" stop-opacity="0"/>
</linearGradient>
<linearGradient id="paint5_linear_794_9839" x1="78.0884" y1="-39" x2="78.0884" y2="177.8" gradientUnits="userSpaceOnUse">
<stop stop-color="#F8F7F3" stop-opacity="0"/>
<stop offset="0.480769" stop-color="#D9D2B6"/>
<stop offset="1" stop-color="#F8F7F3" stop-opacity="0"/>
</linearGradient>
<linearGradient id="paint6_linear_794_9839" x1="375.688" y1="69.9003" x2="-34" y2="69.9002" gradientUnits="userSpaceOnUse">
<stop stop-color="#F8F7F3" stop-opacity="0"/>
<stop offset="0.480769" stop-color="#D9D2B6"/>
<stop offset="1" stop-color="#F8F7F3" stop-opacity="0"/>
</linearGradient>
<linearGradient id="paint7_linear_794_9839" x1="102" y1="-39" x2="102" y2="177.8" gradientUnits="userSpaceOnUse">
<stop stop-color="#F8F7F3" stop-opacity="0"/>
<stop offset="0.480769" stop-color="#D9D2B6"/>
<stop offset="1" stop-color="#F8F7F3" stop-opacity="0"/>
</linearGradient>
<linearGradient id="paint8_linear_794_9839" x1="375.688" y1="93.8125" x2="-34" y2="93.8125" gradientUnits="userSpaceOnUse">
<stop stop-color="#F8F7F3" stop-opacity="0"/>
<stop offset="0.480769" stop-color="#D9D2B6"/>
<stop offset="1" stop-color="#F8F7F3" stop-opacity="0"/>
</linearGradient>
<linearGradient id="paint9_linear_794_9839" x1="125.912" y1="-39" x2="125.912" y2="177.8" gradientUnits="userSpaceOnUse">
<stop stop-color="#F8F7F3" stop-opacity="0"/>
<stop offset="0.480769" stop-color="#D9D2B6"/>
<stop offset="1" stop-color="#F8F7F3" stop-opacity="0"/>
</linearGradient>
<linearGradient id="paint10_linear_794_9839" x1="375.688" y1="117.725" x2="-34" y2="117.725" gradientUnits="userSpaceOnUse">
<stop stop-color="#F8F7F3" stop-opacity="0"/>
<stop offset="0.480769" stop-color="#D9D2B6"/>
<stop offset="1" stop-color="#F8F7F3" stop-opacity="0"/>
</linearGradient>
<linearGradient id="paint11_linear_794_9839" x1="149.824" y1="-39" x2="149.824" y2="177.8" gradientUnits="userSpaceOnUse">
<stop stop-color="#F8F7F3" stop-opacity="0"/>
<stop offset="0.480769" stop-color="#D9D2B6"/>
<stop offset="1" stop-color="#F8F7F3" stop-opacity="0"/>
</linearGradient>
<linearGradient id="paint12_linear_794_9839" x1="375.688" y1="141.635" x2="-34" y2="141.635" gradientUnits="userSpaceOnUse">
<stop stop-color="#F8F7F3" stop-opacity="0"/>
<stop offset="0.480769" stop-color="#D9D2B6"/>
<stop offset="1" stop-color="#F8F7F3" stop-opacity="0"/>
</linearGradient>
<linearGradient id="paint13_linear_794_9839" x1="173.735" y1="-39" x2="173.735" y2="177.8" gradientUnits="userSpaceOnUse">
<stop stop-color="#F8F7F3" stop-opacity="0"/>
<stop offset="0.480769" stop-color="#D9D2B6"/>
<stop offset="1" stop-color="#F8F7F3" stop-opacity="0"/>
</linearGradient>
<linearGradient id="paint14_linear_794_9839" x1="375.688" y1="165.547" x2="-34" y2="165.547" gradientUnits="userSpaceOnUse">
<stop stop-color="#F8F7F3" stop-opacity="0"/>
<stop offset="0.480769" stop-color="#D9D2B6"/>
<stop offset="1" stop-color="#F8F7F3" stop-opacity="0"/>
</linearGradient>
<linearGradient id="paint15_linear_794_9839" x1="197.647" y1="-39" x2="197.647" y2="177.8" gradientUnits="userSpaceOnUse">
<stop stop-color="#F8F7F3" stop-opacity="0"/>
<stop offset="0.480769" stop-color="#D9D2B6"/>
<stop offset="1" stop-color="#F8F7F3" stop-opacity="0"/>
</linearGradient>
<linearGradient id="paint16_linear_794_9839" x1="221.559" y1="-39" x2="221.559" y2="177.8" gradientUnits="userSpaceOnUse">
<stop stop-color="#F8F7F3" stop-opacity="0"/>
<stop offset="0.480769" stop-color="#D9D2B6"/>
<stop offset="1" stop-color="#F8F7F3" stop-opacity="0"/>
</linearGradient>
<linearGradient id="paint17_linear_794_9839" x1="245.471" y1="-39" x2="245.471" y2="177.8" gradientUnits="userSpaceOnUse">
<stop stop-color="#F8F7F3" stop-opacity="0"/>
<stop offset="0.480769" stop-color="#D9D2B6"/>
<stop offset="1" stop-color="#F8F7F3" stop-opacity="0"/>
</linearGradient>
<linearGradient id="paint18_linear_794_9839" x1="269.383" y1="-39" x2="269.383" y2="177.8" gradientUnits="userSpaceOnUse">
<stop stop-color="#F8F7F3" stop-opacity="0"/>
<stop offset="0.480769" stop-color="#D9D2B6"/>
<stop offset="1" stop-color="#F8F7F3" stop-opacity="0"/>
</linearGradient>
<linearGradient id="paint19_linear_794_9839" x1="293.294" y1="-39" x2="293.294" y2="177.8" gradientUnits="userSpaceOnUse">
<stop stop-color="#F8F7F3" stop-opacity="0"/>
<stop offset="0.480769" stop-color="#D9D2B6"/>
<stop offset="1" stop-color="#F8F7F3" stop-opacity="0"/>
</linearGradient>
<linearGradient id="paint20_linear_794_9839" x1="317.206" y1="-39" x2="317.206" y2="177.8" gradientUnits="userSpaceOnUse">
<stop stop-color="#F8F7F3" stop-opacity="0"/>
<stop offset="0.480769" stop-color="#D9D2B6"/>
<stop offset="1" stop-color="#F8F7F3" stop-opacity="0"/>
</linearGradient>
<linearGradient id="paint21_linear_794_9839" x1="341.118" y1="-39" x2="341.118" y2="177.8" gradientUnits="userSpaceOnUse">
<stop stop-color="#F8F7F3" stop-opacity="0"/>
<stop offset="0.480769" stop-color="#D9D2B6"/>
<stop offset="1" stop-color="#F8F7F3" stop-opacity="0"/>
</linearGradient>
<linearGradient id="paint22_linear_794_9839" x1="59" y1="152.688" x2="233" y2="152.682" gradientUnits="userSpaceOnUse">
<stop stop-color="#696352"/>
<stop offset="1" stop-color="#F1EFE8"/>
</linearGradient>
<linearGradient id="paint23_linear_794_9839" x1="133.251" y1="16.7324" x2="133.251" y2="139.5" gradientUnits="userSpaceOnUse">
<stop stop-color="#696352"/>
<stop offset="1" stop-color="#F1EFE8"/>
</linearGradient>
<linearGradient id="paint24_linear_794_9839" x1="205" y1="134.068" x2="286" y2="134.031" gradientUnits="userSpaceOnUse">
<stop stop-color="#696352"/>
<stop offset="1" stop-color="#696352" stop-opacity="0"/>
</linearGradient>
<linearGradient id="paint25_linear_794_9839" x1="205" y1="145.068" x2="286" y2="145.031" gradientUnits="userSpaceOnUse">
<stop stop-color="#696352" stop-opacity="0"/>
<stop offset="1" stop-color="#696352"/>
</linearGradient>
<clipPath id="clip0_794_9839">
<rect width="341" height="288" rx="16" fill="white"/>
</clipPath>
</defs>
</svg>
