<svg width="342" height="288" viewBox="0 0 342 288" fill="none" xmlns="http://www.w3.org/2000/svg">
<g clip-path="url(#clip0_794_9727)">
<rect width="342" height="288" rx="16" fill="#F1EFE8"/>
<path d="M295.688 59.7539L-114 59.7539" stroke="url(#paint0_linear_794_9727)" stroke-width="0.6" stroke-linecap="round" stroke-linejoin="round"/>
<path d="M295.688 83.6641L-114 83.6641" stroke="url(#paint1_linear_794_9727)" stroke-width="0.6" stroke-linecap="round" stroke-linejoin="round"/>
<path d="M295.688 107.576L-114 107.576" stroke="url(#paint2_linear_794_9727)" stroke-width="0.6" stroke-linecap="round" stroke-linejoin="round"/>
<path d="M295.688 131.489L-114 131.489" stroke="url(#paint3_linear_794_9727)" stroke-width="0.6" stroke-linecap="round" stroke-linejoin="round"/>
<path d="M295.688 155.4L-114 155.4" stroke="url(#paint4_linear_794_9727)" stroke-width="0.6" stroke-linecap="round" stroke-linejoin="round"/>
<path d="M21.5002 47V263.8" stroke="url(#paint5_linear_794_9727)" stroke-width="0.6" stroke-linecap="round" stroke-linejoin="round"/>
<path d="M295.688 179.312L-114 179.312" stroke="url(#paint6_linear_794_9727)" stroke-width="0.6" stroke-linecap="round" stroke-linejoin="round"/>
<path d="M45.4119 47V263.8" stroke="url(#paint7_linear_794_9727)" stroke-width="0.6" stroke-linecap="round" stroke-linejoin="round"/>
<path d="M295.688 203.225L-114 203.225" stroke="url(#paint8_linear_794_9727)" stroke-width="0.6" stroke-linecap="round" stroke-linejoin="round"/>
<path d="M69.3237 47V263.8" stroke="url(#paint9_linear_794_9727)" stroke-width="0.6" stroke-linecap="round" stroke-linejoin="round"/>
<path d="M295.688 227.135L-114 227.135" stroke="url(#paint10_linear_794_9727)" stroke-width="0.6" stroke-linecap="round" stroke-linejoin="round"/>
<path d="M93.2354 47V263.8" stroke="url(#paint11_linear_794_9727)" stroke-width="0.6" stroke-linecap="round" stroke-linejoin="round"/>
<path d="M295.688 251.047L-114 251.047" stroke="url(#paint12_linear_794_9727)" stroke-width="0.6" stroke-linecap="round" stroke-linejoin="round"/>
<path d="M117.147 47V263.8" stroke="url(#paint13_linear_794_9727)" stroke-width="0.6" stroke-linecap="round" stroke-linejoin="round"/>
<path d="M141.059 47V263.8" stroke="url(#paint14_linear_794_9727)" stroke-width="0.6" stroke-linecap="round" stroke-linejoin="round"/>
<path d="M164.971 47V263.8" stroke="url(#paint15_linear_794_9727)" stroke-width="0.6" stroke-linecap="round" stroke-linejoin="round"/>
<path d="M188.883 47V263.8" stroke="url(#paint16_linear_794_9727)" stroke-width="0.6" stroke-linecap="round" stroke-linejoin="round"/>
<path d="M212.794 47V263.8" stroke="url(#paint17_linear_794_9727)" stroke-width="0.6" stroke-linecap="round" stroke-linejoin="round"/>
<path d="M236.706 47V263.8" stroke="url(#paint18_linear_794_9727)" stroke-width="0.6" stroke-linecap="round" stroke-linejoin="round"/>
<path d="M260.618 47V263.8" stroke="url(#paint19_linear_794_9727)" stroke-width="0.6" stroke-linecap="round" stroke-linejoin="round"/>
<path d="M284.53 47V263.8" stroke="url(#paint20_linear_794_9727)" stroke-width="0.6" stroke-linecap="round" stroke-linejoin="round"/>
<path opacity="0.6" d="M143 303L241 205" stroke="url(#paint21_linear_794_9727)" stroke-width="4"/>
<path opacity="0.6" d="M110 144L213 144" stroke="url(#paint22_linear_794_9727)" stroke-width="4"/>
<path opacity="0.6" d="M303.01 -32L303.01 52.5" stroke="url(#paint23_linear_794_9727)" stroke-width="4"/>
<path opacity="0.6" d="M303 319.5L303 235" stroke="url(#paint24_linear_794_9727)" stroke-width="4"/>
<g filter="url(#filter0_di_794_9727)">
<path d="M212 144C212 93.6312 252.832 52.7996 303.2 52.7996C353.568 52.7996 394.4 93.6312 394.4 144C394.4 194.368 353.568 235.2 303.2 235.2C252.832 235.2 212 194.368 212 144Z" fill="#22201C" shape-rendering="crispEdges"/>
<path d="M303.2 45.5994C357.545 45.5995 401.6 89.655 401.6 144C401.6 198.344 357.545 242.399 303.2 242.399C248.855 242.399 204.8 198.344 204.8 144C204.8 89.655 248.855 45.5994 303.2 45.5994Z" stroke="#D9D5C3" stroke-opacity="0.2" stroke-width="14.4" shape-rendering="crispEdges"/>
<g clip-path="url(#clip1_794_9727)">
<path d="M345.161 111.313C345.161 109.429 343.624 107.891 341.739 107.841L337.92 107.792C337.672 107.792 329.785 107.544 321.75 104.27C313.269 100.798 307.763 96.8798 307.565 96.7806L305.283 95.0942C304.043 94.2014 302.406 94.2014 301.216 95.0942L298.934 96.731C298.885 96.7806 293.28 100.798 284.749 104.27C276.713 107.544 268.777 107.792 268.579 107.792H264.661C262.776 107.841 261.238 109.379 261.238 111.264V150.051C261.238 159.773 266.793 170.635 276.515 179.91C285.344 188.342 295.561 193.6 303.2 193.6C310.838 193.6 321.056 188.342 329.885 179.91C339.606 170.635 345.161 159.773 345.161 150.051V111.313ZM325.073 174.901C317.733 181.894 308.904 186.656 303.2 186.656C297.496 186.656 288.667 181.944 281.326 174.901C272.993 166.965 268.232 157.888 268.232 150.101V114.736H268.629C269.422 114.736 278.251 114.389 287.328 110.718C296.603 106.899 302.704 102.534 302.952 102.336L303.2 102.137L303.448 102.336C304.192 102.881 310.094 106.998 319.121 110.669C328.198 114.339 337.027 114.686 337.821 114.686H338.217V150.051C338.217 157.888 333.406 166.915 325.073 174.901Z" fill="#F1EFE8"/>
<path d="M318.427 128.526L298.587 148.366L290.205 140.034C288.469 138.298 285.691 138.298 283.955 140.034C282.219 141.77 282.219 144.547 283.955 146.283L295.413 157.741C296.256 158.584 297.347 159.03 298.537 159.03C299.728 159.03 300.819 158.584 301.662 157.741L324.627 134.776C326.363 133.04 326.363 130.262 324.627 128.526C322.941 126.79 320.163 126.79 318.427 128.526Z" fill="#F1EFE8"/>
</g>
</g>
</g>
<defs>
<filter id="filter0_di_794_9727" x="142.72" y="-16.4805" width="320.96" height="320.96" filterUnits="userSpaceOnUse" color-interpolation-filters="sRGB">
<feFlood flood-opacity="0" result="BackgroundImageFix"/>
<feColorMatrix in="SourceAlpha" type="matrix" values="0 0 0 0 0 0 0 0 0 0 0 0 0 0 0 0 0 0 127 0" result="hardAlpha"/>
<feMorphology radius="3.2" operator="dilate" in="SourceAlpha" result="effect1_dropShadow_794_9727"/>
<feOffset/>
<feGaussianBlur stdDeviation="25.84"/>
<feComposite in2="hardAlpha" operator="out"/>
<feColorMatrix type="matrix" values="0 0 0 0 0.682353 0 0 0 0 0.647059 0 0 0 0 0.509804 0 0 0 1 0"/>
<feBlend mode="normal" in2="BackgroundImageFix" result="effect1_dropShadow_794_9727"/>
<feBlend mode="normal" in="SourceGraphic" in2="effect1_dropShadow_794_9727" result="shape"/>
<feColorMatrix in="SourceAlpha" type="matrix" values="0 0 0 0 0 0 0 0 0 0 0 0 0 0 0 0 0 0 127 0" result="hardAlpha"/>
<feOffset/>
<feGaussianBlur stdDeviation="6.4"/>
<feComposite in2="hardAlpha" operator="arithmetic" k2="-1" k3="1"/>
<feColorMatrix type="matrix" values="0 0 0 0 0.713726 0 0 0 0 0.678431 0 0 0 0 0.552941 0 0 0 1 0"/>
<feBlend mode="normal" in2="shape" result="effect2_innerShadow_794_9727"/>
</filter>
<linearGradient id="paint0_linear_794_9727" x1="295.688" y1="60.2539" x2="-114" y2="60.2539" gradientUnits="userSpaceOnUse">
<stop stop-color="#F8F7F3" stop-opacity="0"/>
<stop offset="0.480769" stop-color="#D9D2B6"/>
<stop offset="1" stop-color="#F8F7F3" stop-opacity="0"/>
</linearGradient>
<linearGradient id="paint1_linear_794_9727" x1="295.688" y1="84.1641" x2="-114" y2="84.164" gradientUnits="userSpaceOnUse">
<stop stop-color="#F8F7F3" stop-opacity="0"/>
<stop offset="0.480769" stop-color="#D9D2B6"/>
<stop offset="1" stop-color="#F8F7F3" stop-opacity="0"/>
</linearGradient>
<linearGradient id="paint2_linear_794_9727" x1="295.688" y1="108.076" x2="-114" y2="108.076" gradientUnits="userSpaceOnUse">
<stop stop-color="#F8F7F3" stop-opacity="0"/>
<stop offset="0.480769" stop-color="#D9D2B6"/>
<stop offset="1" stop-color="#F8F7F3" stop-opacity="0"/>
</linearGradient>
<linearGradient id="paint3_linear_794_9727" x1="295.688" y1="131.989" x2="-114" y2="131.988" gradientUnits="userSpaceOnUse">
<stop stop-color="#F8F7F3" stop-opacity="0"/>
<stop offset="0.480769" stop-color="#D9D2B6"/>
<stop offset="1" stop-color="#F8F7F3" stop-opacity="0"/>
</linearGradient>
<linearGradient id="paint4_linear_794_9727" x1="295.688" y1="155.9" x2="-114" y2="155.9" gradientUnits="userSpaceOnUse">
<stop stop-color="#F8F7F3" stop-opacity="0"/>
<stop offset="0.480769" stop-color="#D9D2B6"/>
<stop offset="1" stop-color="#F8F7F3" stop-opacity="0"/>
</linearGradient>
<linearGradient id="paint5_linear_794_9727" x1="22.0002" y1="47" x2="22.0002" y2="263.8" gradientUnits="userSpaceOnUse">
<stop stop-color="#F8F7F3" stop-opacity="0"/>
<stop offset="0.480769" stop-color="#D9D2B6"/>
<stop offset="1" stop-color="#F8F7F3" stop-opacity="0"/>
</linearGradient>
<linearGradient id="paint6_linear_794_9727" x1="295.688" y1="179.812" x2="-114" y2="179.812" gradientUnits="userSpaceOnUse">
<stop stop-color="#F8F7F3" stop-opacity="0"/>
<stop offset="0.480769" stop-color="#D9D2B6"/>
<stop offset="1" stop-color="#F8F7F3" stop-opacity="0"/>
</linearGradient>
<linearGradient id="paint7_linear_794_9727" x1="45.9119" y1="47" x2="45.9119" y2="263.8" gradientUnits="userSpaceOnUse">
<stop stop-color="#F8F7F3" stop-opacity="0"/>
<stop offset="0.480769" stop-color="#D9D2B6"/>
<stop offset="1" stop-color="#F8F7F3" stop-opacity="0"/>
</linearGradient>
<linearGradient id="paint8_linear_794_9727" x1="295.688" y1="203.725" x2="-114" y2="203.725" gradientUnits="userSpaceOnUse">
<stop stop-color="#F8F7F3" stop-opacity="0"/>
<stop offset="0.480769" stop-color="#D9D2B6"/>
<stop offset="1" stop-color="#F8F7F3" stop-opacity="0"/>
</linearGradient>
<linearGradient id="paint9_linear_794_9727" x1="69.8237" y1="47" x2="69.8237" y2="263.8" gradientUnits="userSpaceOnUse">
<stop stop-color="#F8F7F3" stop-opacity="0"/>
<stop offset="0.480769" stop-color="#D9D2B6"/>
<stop offset="1" stop-color="#F8F7F3" stop-opacity="0"/>
</linearGradient>
<linearGradient id="paint10_linear_794_9727" x1="295.688" y1="227.635" x2="-114" y2="227.635" gradientUnits="userSpaceOnUse">
<stop stop-color="#F8F7F3" stop-opacity="0"/>
<stop offset="0.480769" stop-color="#D9D2B6"/>
<stop offset="1" stop-color="#F8F7F3" stop-opacity="0"/>
</linearGradient>
<linearGradient id="paint11_linear_794_9727" x1="93.7354" y1="47" x2="93.7354" y2="263.8" gradientUnits="userSpaceOnUse">
<stop stop-color="#F8F7F3" stop-opacity="0"/>
<stop offset="0.480769" stop-color="#D9D2B6"/>
<stop offset="1" stop-color="#F8F7F3" stop-opacity="0"/>
</linearGradient>
<linearGradient id="paint12_linear_794_9727" x1="295.688" y1="251.547" x2="-114" y2="251.547" gradientUnits="userSpaceOnUse">
<stop stop-color="#F8F7F3" stop-opacity="0"/>
<stop offset="0.480769" stop-color="#D9D2B6"/>
<stop offset="1" stop-color="#F8F7F3" stop-opacity="0"/>
</linearGradient>
<linearGradient id="paint13_linear_794_9727" x1="117.647" y1="47" x2="117.647" y2="263.8" gradientUnits="userSpaceOnUse">
<stop stop-color="#F8F7F3" stop-opacity="0"/>
<stop offset="0.480769" stop-color="#D9D2B6"/>
<stop offset="1" stop-color="#F8F7F3" stop-opacity="0"/>
</linearGradient>
<linearGradient id="paint14_linear_794_9727" x1="141.559" y1="47" x2="141.559" y2="263.8" gradientUnits="userSpaceOnUse">
<stop stop-color="#F8F7F3" stop-opacity="0"/>
<stop offset="0.480769" stop-color="#D9D2B6"/>
<stop offset="1" stop-color="#F8F7F3" stop-opacity="0"/>
</linearGradient>
<linearGradient id="paint15_linear_794_9727" x1="165.471" y1="47" x2="165.471" y2="263.8" gradientUnits="userSpaceOnUse">
<stop stop-color="#F8F7F3" stop-opacity="0"/>
<stop offset="0.480769" stop-color="#D9D2B6"/>
<stop offset="1" stop-color="#F8F7F3" stop-opacity="0"/>
</linearGradient>
<linearGradient id="paint16_linear_794_9727" x1="189.383" y1="47" x2="189.383" y2="263.8" gradientUnits="userSpaceOnUse">
<stop stop-color="#F8F7F3" stop-opacity="0"/>
<stop offset="0.480769" stop-color="#D9D2B6"/>
<stop offset="1" stop-color="#F8F7F3" stop-opacity="0"/>
</linearGradient>
<linearGradient id="paint17_linear_794_9727" x1="213.294" y1="47" x2="213.294" y2="263.8" gradientUnits="userSpaceOnUse">
<stop stop-color="#F8F7F3" stop-opacity="0"/>
<stop offset="0.480769" stop-color="#D9D2B6"/>
<stop offset="1" stop-color="#F8F7F3" stop-opacity="0"/>
</linearGradient>
<linearGradient id="paint18_linear_794_9727" x1="237.206" y1="47" x2="237.206" y2="263.8" gradientUnits="userSpaceOnUse">
<stop stop-color="#F8F7F3" stop-opacity="0"/>
<stop offset="0.480769" stop-color="#D9D2B6"/>
<stop offset="1" stop-color="#F8F7F3" stop-opacity="0"/>
</linearGradient>
<linearGradient id="paint19_linear_794_9727" x1="261.118" y1="47" x2="261.118" y2="263.8" gradientUnits="userSpaceOnUse">
<stop stop-color="#F8F7F3" stop-opacity="0"/>
<stop offset="0.480769" stop-color="#D9D2B6"/>
<stop offset="1" stop-color="#F8F7F3" stop-opacity="0"/>
</linearGradient>
<linearGradient id="paint20_linear_794_9727" x1="285.03" y1="47" x2="285.03" y2="263.8" gradientUnits="userSpaceOnUse">
<stop stop-color="#F8F7F3" stop-opacity="0"/>
<stop offset="0.480769" stop-color="#D9D2B6"/>
<stop offset="1" stop-color="#F8F7F3" stop-opacity="0"/>
</linearGradient>
<linearGradient id="paint21_linear_794_9727" x1="243.602" y1="200.897" x2="147.075" y2="297.574" gradientUnits="userSpaceOnUse">
<stop stop-color="#C7AF6B"/>
<stop offset="1" stop-color="#C7AF6B" stop-opacity="0"/>
</linearGradient>
<linearGradient id="paint22_linear_794_9727" x1="216.524" y1="142.939" x2="110" y2="143" gradientUnits="userSpaceOnUse">
<stop stop-color="#C7AF6B"/>
<stop offset="1" stop-color="#C7AF6B" stop-opacity="0"/>
</linearGradient>
<linearGradient id="paint23_linear_794_9727" x1="304.071" y1="55.3908" x2="304.042" y2="-5.09343" gradientUnits="userSpaceOnUse">
<stop stop-color="#C7AF6B"/>
<stop offset="1" stop-color="#C7AF6B" stop-opacity="0"/>
</linearGradient>
<linearGradient id="paint24_linear_794_9727" x1="301.939" y1="232.109" x2="301.968" y2="292.593" gradientUnits="userSpaceOnUse">
<stop stop-color="#C7AF6B"/>
<stop offset="1" stop-color="#C7AF6B" stop-opacity="0"/>
</linearGradient>
<clipPath id="clip0_794_9727">
<rect width="342" height="288" rx="16" fill="white"/>
</clipPath>
<clipPath id="clip1_794_9727">
<rect width="99.2" height="99.2" fill="white" transform="translate(253.6 94.4001)"/>
</clipPath>
</defs>
</svg>
